<svg xmlns="http://www.w3.org/2000/svg" viewBox="0 0 127.04 222.79"><defs><style>.cls-1{fill:#303250;}.cls-2{fill:#474b6d;}</style></defs><title>item-2</title><g id="Слой_2" data-name="Слой 2"><g id="Слой_7" data-name="Слой 7"><path class="cls-1" d="M4.69,0,0,2.69,29.95,48.14s-4.81,23.75-7.22,30.59,0,20.12,2.84,30.58S30.88,132.58,31,141.7s-1.39,19.92,4.85,29.91S58.1,204,70.91,208.2s27.63,1.05,32.33,5.07a125.8,125.8,0,0,1,9.67,9.52s-1.49-13.14,6.75-34S130,136.12,122,121.58s-22.7-39.15-33.1-46.86-29.8-22.92-38-25.52S34.5,43,34.5,43,19.19,19.31,16.57,14.14,4.69,0,4.69,0Z"/><path class="cls-2" d="M82.91,180.24c.29,3.79,2,7.46,2.08,11.38s-.64,8.42,1.52,12.29l-2.45-32.58C83.68,174.27,82.68,177.38,82.91,180.24Z"/><path class="cls-2" d="M68.27,165.08c-.13,9.36-.88,21.4,1.33,30.38l2.48-57.66c-.75,3.46-1.79,7-2.19,8.83C68.5,152.78,68.36,158.88,68.27,165.08Z"/><path class="cls-2" d="M87.46,161.3c-3.26-10-6.22-20.22-9.93-30.05l37.85,20.57c-1.81-1.42-3.55-2.91-5-3.88A71,71,0,0,0,98.58,142c-7.29-3.15-14.23-8.12-21.21-11.18-.53-1.4-1.06-2.79-1.63-4.17a215.17,215.17,0,0,0-11.12-22.31l55.86,30.45c-9-5.2-16.35-13.48-26-17.78-10.22-4.55-19.38-10.15-30.13-13.16-1.58-2.84-3.15-5.64-4.68-8.38-2.18-3.92-4.08-9.57-5.82-13.89l48.3,22.94C94.53,97.85,86,94.37,76.81,90.28c-4.42-2-9-3.41-13.67-5-2.4-.84-6.6-3.36-9.64-4.54-1.93-4.65-4.08-7.05-6.72-11.45-1.66-2.76-3.42-5.86-5.3-8.91L76,72.25c-4.7-2.24-9.25-6.07-14-7.66C57.14,62.94,46.47,59,41.2,59.91a60,60,0,0,0-6.86-9.3c-2.28-.26.52,5.32,4,11.24-3.24,6.23-3,15.6-4.27,22.31-1.88,9.6-5.34,16.39-2.74,26.39L39.06,63c2.77,4.61,5.79,9.22,7,11.29s2.41,4.1,3.58,6.19c-2,11.49-6.06,21.69-7.71,33.33-.75,5.26-.74,10.21-1.18,15.38-.47,5.53.63,11.19.18,16.42l8.76-65c4.59,8.17,8.87,16.79,12.83,25.61-1.82,5.77-1.87,12.24-3,18.25-1.24,6.72-3.19,13.24-3.87,20.14-.55,5.64-.73,11.36-1.42,17-.65,5.4-3.06,12.15-2,17.33l10.31-72.55c3.52,7.86,6.78,15.87,9.77,23.86l-.33,7.57a31.15,31.15,0,0,0,.86-6.13c1.75,4.73,3.4,9.45,5,14.12,1.77,5.33,3.53,10.9,5.47,16.42l.69,9.12c.06-.49.11-1,.13-1.44a38,38,0,0,0-.42-6.54,118.82,118.82,0,0,0,9,20.07c2,3.4,4.21,6.46,6.34,9.7s4.61,8.57,7,10.73c-2.76-12-11.54-22.31-15.78-34.23-1-2.69-1.86-5.4-2.75-8.12l28.42,23C111,174.52,96.8,167.83,87.46,161.3Z"/><path class="cls-2" d="M115.38,151.81c2.39,1.87,4.92,3.62,7.16,3.89Z"/><path class="cls-2" d="M76,72.25a17.81,17.81,0,0,0,4.35,1.5Z"/></g></g></svg>