<svg xmlns="http://www.w3.org/2000/svg" viewBox="0 0 307.15 258.66"><defs><style>.cls-1{fill:#e3e8a7;}</style></defs><title>item-3</title><g id="Слой_2" data-name="Слой 2"><g id="Слой_7" data-name="Слой 7"><path class="cls-1" d="M167,80.78c4.27.12,8.65.54,10.29-4.68,1.39-4.42-1.54-8.5-2.09-12.72-3.17,1.24-7.38,5.37-9.13,8.31C164.93,73.61,164.3,79.69,167,80.78Z"/><path class="cls-1" d="M128.42,51.2c2.55-1.34,7.22.39,9.91.9a26.44,26.44,0,0,1,10.47,4.32c4.76,3.3,7.54,8.52,9.67,13.69-9.15,2-20.35,3-29.24-.83a11.71,11.71,0,0,1-6.42-7.07c-2.26-5.95,1.47-10.94,4.66-15.83"/><path class="cls-1" d="M131.55,53.44c1.61-1.57,5.33-2.69,7.46-4.11a13.66,13.66,0,0,0,5.4-6.47c2-5,2.81-9.89,1.18-15.11a39.5,39.5,0,0,0-3.93-8.22c-.85-1.46-2-4.83-3.43-5.75-2.54-1.64-8.2,4.4-10.06,6.34a29.25,29.25,0,0,0-7.41,13,25,25,0,0,0,.38,15.07c.69,1.91,1.49,6.2,4.19,5.9"/><path class="cls-1" d="M156.29,51c2.94,8.16,5.85,16.86,14.73,20.25,7,2.69,13.71,1.52,20.66-.26a38.62,38.62,0,0,0,8.77-3.57c-4.54-15.57-22.11-27.2-37.94-23.29C158.84,45,155.09,48.64,156.29,51Z"/><path class="cls-1" d="M206.75,94.93c10.88-2,22.35-12.64,25.38-23.09C235,62,234.95,51,231,41.5c-12.85,8.84-24.68,18.11-30.8,33-2.83,6.87-3.37,13.64-.87,20.58"/><path class="cls-1" d="M166.88,91.95A47.42,47.42,0,0,0,183,105.08c7.55,3.72,17.33,2.39,24.82-.73,4.58-1.91,8.12-4.93,12.22-7.51-1-2.73-5.1-4.58-7.38-6.18s-4.49-3.47-6.81-5.11c-5.45-3.84-10.91-6.25-17.82-5.31-4.64.63-9.75,2.08-13.56,4.89A77.19,77.19,0,0,0,166.88,91.95Z"/><path class="cls-1" d="M134.52,97.64a55.46,55.46,0,0,1,23-3.23c8.87.53,14.1,7.23,18.33,14.4a49.24,49.24,0,0,1,4.5,9.82c-10.56,1.45-20.83,3.93-30.29-2.53C144.3,112.18,138.22,104.76,134.52,97.64Z"/><path class="cls-1" d="M167.63,212c-2.2-9.75-5.91-19.26-8.84-28.9-1.93-6.33-6.16-20.35-5.36-25.69,3.31,2.44,7.13,4,10.64,6.06-2.31-4.36-6.16-6.52-9.2-10-4-4.53-6.14-12.87-7.52-18.92-3.73-16.31-8.63-31.46-13.63-47.22,19.5,5.13,41.47,20.39,47.83,39.73a56.4,56.4,0,0,0-1-8.32c4-.26,15.71,13.16,18.46,16.77a48.68,48.68,0,0,1,9.23,26.41c1.62-3.24,1.14-9.22.82-13.08,10,7.1,19.44,30,19.76,42.13,1.65-8.54-2.59-21.55-6.09-29.49,2.66,1.47,5.38,3.89,9.78,3.88-7.44-4.93-13.39-12-19.8-18-5.78-5.4-11.27-12.19-15.66-17.26,3.08.92,8.48,3.17,11.63,1.9-10.88-3.94-18.29-10.13-26.54-18.13s-14-13.47-23.82-19.55c6.33-.44,10,0,16.55-.73,5.31-.62,13.21.74,18.48,0,4.88-.72,48.85,1.31,52.42-10.32-9.78,6.62-55.1,7.91-65.8,7.64-5.16-.13-17.59,2.26-22.12-.55,2.7-4.85,10.79-7,11.53-13-4,3.41-9.14,8.37-14.41,9.88-6.34,1.81-12.3-1.84-18-4.19a157.5,157.5,0,0,1-36.27-21.14c14.93-7.41,31.91-7.29,48-9.88,10.92-1.76,20.92-5.42,31.59-7.92,6.93-1.62,13.76-2.75,20.06-6.35-6.32-2.28-14.41,1.51-20.49,3.1-8.66,2.27-18.89,3.85-27.46,6.19-9,2.46-14.58,2.21-22.43,4-8,1.82-15.79,3.34-24,4.64-22,3.48-39-17.28-55.34-28.86C43.55,21.83,36,17.7,28.8,13,23,9.26,13.92,1.3,7,.1,4.56-.33-.09.51,0,4.21.11,8.59,19.77,15.65,23.5,17.87,44.28,30.29,64.78,43.66,84.3,58c5.8,4.25,11.49,9.41,17.8,12.86s12.67,6.13,18.76,9.93c5.66,3.53,6.74,3.92,9.18,10.56,3,8.26,9.08,22.39,11,31,4,18.37,6.52,31.21,10.64,49.53a195.59,195.59,0,0,0,7.24,25.53C160.47,201.63,162.9,217.5,167.63,212Z"/><path class="cls-1" d="M155.42,157.9c2.07-2.94,5.81-4.18,8.95-5.86,4.18-2.24,7.5-2.07,11.79-.18,9.39,4.15,13.76,14.24,17,23.34,1.86,5.14,2.89,10.64,5.3,15.54-4.5,2.31-12.51,2.62-17.38,1.71a42.48,42.48,0,0,1-18.55-8.25c-3.91-3.11-6.62-7.69-8.36-12.35C152.67,167.7,151.05,158.93,155.42,157.9Z"/><path class="cls-1" d="M159.53,191.6c8.84.35,18.16,8.88,21.66,16.4,2.71,5.84,5.11,11.09,5.16,17.67a44,44,0,0,1-3.18,18c-1.84,4.56-4,11.88-8.06,15-12.49-8.68-23.33-22-25.8-37.39-1-6.13.86-13.7,2.83-19.47C153.31,198.36,156,191.26,159.53,191.6Z"/><path class="cls-1" d="M149.22,178.75l-.08-.23"/><path class="cls-1" d="M149.14,178.53c2.67,2.66,4.21,8.41,3.92,12.3-.43,5.88-4.92,11-8.39,15.38-6.91,8.8-17.89,12.45-28.78,11.7-4.72-.33-9.81-.4-14.42-1.51.33-2.45,1.65-5.55,2.29-8.07a58.28,58.28,0,0,1,5-13.4,52.12,52.12,0,0,1,15.7-17.81c4.78-3.3,10.83-5.89,16.62-4.67C143.67,173,149.29,174.37,149.14,178.53Z"/><path class="cls-1" d="M140.64,131.91c5.11,7.1,4.44,18.8-2.35,24.39-5.66,4.65-14.62,7.26-21.85,7.61-3.61.18-7.5-.57-11,.28-.85-2.45.51-6.18.75-8.76a46.85,46.85,0,0,1,2.12-11.59c2.17-6.22,6-12.8,12.15-15.81C125.46,125.59,137.74,125.88,140.64,131.91Z"/><path class="cls-1" d="M127.22,91.73c6.22,3.78-.27,14.81-3.78,18.24-2.1,2-4.42,4.31-5.18,0-.65-3.69,1.27-7.45,3.17-10.45C123,97,126.21,94.3,127.22,91.73Z"/><path class="cls-1" d="M178.87,117.38c3.89,1.07,5.83,8.46,6.74,12.06,1,4.11-.14,8.15-2.13,11.9-4.75,8.93-13,13.26-20.69,19.25-6.56-6.2-5.83-18.2-2.31-25.81C164.21,126.72,170.6,121.67,178.87,117.38Z"/><path class="cls-1" d="M201.33,129.48c9.12-5.61,17.07-12.5,28.47-12.17,10.95.32,17.88,9.44,24.07,17.32-4.37,5.75-11.21,9-17.83,11.34-5.2,1.87-11.53,3.58-17,2.25C212,146.53,201.7,138.67,201.33,129.48Z"/><path class="cls-1" d="M207.51,153.12c7.43,6.81,14.93,20.81,10.94,30.92-3.74,9.49-9.84,18.09-18.56,23.46-1-2-3.21-3.69-4.45-5.75a46,46,0,0,1-3.89-9.58c-2.19-6.75-1.22-14.34.56-21.08a33.15,33.15,0,0,1,6.51-12.8,26,26,0,0,1,3.32-3.44A10.52,10.52,0,0,1,207.51,153.12Z"/><path class="cls-1" d="M224.17,160.58c3.58,10,8.71,17.64,17.81,23.08,7.35,4.39,14.92,4.11,23,2.71,2.38-.41,16.68-2.63,17.11-5.62.17-1.17-4-6.25-4.66-7.34a70.83,70.83,0,0,0-7.48-9.8c-4-4.46-10.47-8.1-16.1-10.1C244.32,150.09,231.77,153.74,224.17,160.58Z"/><path class="cls-1" d="M227.76,179.21c-4.79,10.17-8.92,19.59-7.27,31,1.11,7.67,5.9,15.38,11.66,20.4a63.54,63.54,0,0,0,9.29,6.37c2.31,1.36,5.76,3.64,7.8,1.63,1.39-1.37,2.38-4.62,3.24-6.33a48.91,48.91,0,0,0,3.83-10.87c1.76-7.54,1.14-15.61-3-22.34C248.12,190.48,237.67,180.62,227.76,179.21Z"/><path class="cls-1" d="M217.85,92c1.14-3.21,19.5-1.69,22.09-1.12,11.86,2.59,21.1,8.67,26.12,20.09a157.82,157.82,0,0,1,5.75,15.33c-10.93,5.58-29.39,3.61-39.19-3.47a39.21,39.21,0,0,1-14-18.52C217.07,99.86,216.65,95.62,217.85,92Z"/><path class="cls-1" d="M176.39,111.7c5.71-.49,10.95-3.84,16.74-4.33a23.34,23.34,0,0,1,16.5,5.53,15.62,15.62,0,0,1-16.2,6.36C188.6,118.22,179.87,115,176.39,111.7Z"/><path class="cls-1" d="M258.66,88.93a82.6,82.6,0,0,0,6.46,14.56c3.24,5.41,9.07,8.53,14.81,10.78,9.37,3.67,17.66,5.59,27.21,1.68a30.09,30.09,0,0,0-3.38-7.09c-1.66-2.9-2.9-6.23-5.06-8.81a53.29,53.29,0,0,0-13.55-11.8c-4.3-2.49-10.24-5.8-15.39-5.34C266.17,83.24,261.43,86.12,258.66,88.93Z"/><path class="cls-1" d="M243,87.07c8.24,5.61,18.88-.5,25.22-6A58.4,58.4,0,0,0,283,61.79c1.63-3.45,3.86-7.4,4.59-11.18s-3.47-3.41-6.72-3.28c-12.78.53-26,5.18-34.08,15.38-3.48,4.38-6.62,9.34-6.87,15.09a15.5,15.5,0,0,0,.72,5C241.3,84.7,242.52,84.91,243,87.07Z"/><path class="cls-1" d="M190.91,40.1c1.67,5.54,13,10.53,18.45,10.31a49.8,49.8,0,0,0,19.25-4.75,58.09,58.09,0,0,0,8-5.42c1.28-.93,5.46-2.93,5.78-4.62.48-2.55-8.35-6.25-10.59-7.4a29.11,29.11,0,0,0-13.6-3.6A39,39,0,0,0,198.38,31C196.66,32.19,190.7,37.43,190.91,40.1Z"/><path class="cls-1" d="M169.39,45c7-.33,12.64-8.11,14.5-14.33,1.95-6.5.15-13-2-19.16-1.17-3.39-5.09-10.62-9.39-10.32-3.66.25-7,7.15-8.43,9.85-2.5,4.81-3.58,10.13-4.26,15.49C159.39,30,158.5,46.74,169.39,45Z"/></g></g></svg>