<svg xmlns="http://www.w3.org/2000/svg" viewBox="0 0 213.4 261.56"><defs><style>.cls-1{fill:#009c53;}</style></defs><title>item-4</title><g id="Слой_2" data-name="Слой 2"><g id="Слой_7" data-name="Слой 7"><path class="cls-1" d="M22.45,249.11c1.35,6.42,11.12,10.14,18.16,10.3,4.43.1,7.78-2.37,11.53-3.32,8.6-2.18,3.72-1.77,10.33,1.34,6.36,3,13.74,6.85,21.11,1.35,10.47-7.81,2.53-12.65,17-9.67,31.12,6.42,18-35.36,39.19-31.06,14.73,3,27,8.34,38.17-7.11,12.1-16.81,4.61-34.73-1.44-51.31-1.65-4.5-8.33-18.27-6.47-23,2.73-6.93,12.56-6.1,18.69-6.46,8.83-.53,16.73.27,22.08-6.8,6.18-8.18-.16-16.13-2.82-24.15-8.16-24.7-38-25.71-33.34-37.8,2-5.25,11.49-4.33,13.95-8.95,2.73-5.13-3.91-12.4-4.71-17.14-1.45-8.69,18.68-27,5.36-34.25C178.07-5,165.43,16.15,156.75,20c-6.65,2.94-22.8,2.59-27.44,8-3.58,4.18.22,10.11-3.72,14.79-6.3,7.47-22.32,6.53-31.45,8.56-10.53,2.33-27.22,5.1-34.06,14s.84,17.19,1.86,26c1.5,12.86-16.26,12.83-27.12,18.68-9.92,5.34-20.26,16.09-22.49,26.51-1.34,6.27-.24,12.21,2.09,18,1,2.36,6.75,9,6.33,11.4-.95,5.37-14.71,11.72-18.14,17.79-6.13,10.87-.41,14,5.71,21.85,7.8,9.93-2.72,8.71-4,19.39-1,8.46,4.78,9.42,10.55,12.52C21.56,241,20.82,241.35,22.45,249.11Z"/></g></g></svg>