<svg xmlns="http://www.w3.org/2000/svg" viewBox="0 0 292.48 246.31"><defs><style>.cls-1{fill:#b1c73c;}</style></defs><title>item-5</title><g id="Слой_2" data-name="Слой 2"><g id="Слой_7" data-name="Слой 7"><path class="cls-1" d="M159,76.92c4.06.11,8.24.52,9.8-4.46,1.32-4.21-1.47-8.09-2-12.11-3,1.18-7,5.11-8.69,7.91C157.05,70.09,156.45,75.88,159,76.92Z"/><path class="cls-1" d="M122.28,48.76c2.43-1.28,6.88.37,9.43.85a25.17,25.17,0,0,1,10,4.11c4.53,3.14,7.18,8.11,9.21,13-8.71,1.89-19.38,2.83-27.85-.79a11.15,11.15,0,0,1-6.12-6.73c-2.15-5.66,1.4-10.41,4.43-15.08"/><path class="cls-1" d="M125.27,50.89c1.54-1.49,5.08-2.56,7.1-3.91a13,13,0,0,0,5.15-6.16c1.87-4.76,2.68-9.42,1.12-14.38a37.61,37.61,0,0,0-3.75-7.83c-.81-1.39-1.9-4.6-3.26-5.48-2.42-1.56-7.81,4.19-9.58,6A27.86,27.86,0,0,0,115,31.57a23.83,23.83,0,0,0,.36,14.35c.66,1.82,1.42,5.9,4,5.62"/><path class="cls-1" d="M148.82,48.57c2.79,7.77,5.57,16.06,14,19.29,6.69,2.56,13.06,1.44,19.67-.25a36.77,36.77,0,0,0,8.35-3.4c-4.32-14.82-21.06-25.9-36.13-22.18C151.25,42.89,147.68,46.32,148.82,48.57Z"/><path class="cls-1" d="M196.88,90.4c10.36-1.94,21.29-12,24.17-22,2.71-9.37,2.68-19.81-1.13-28.9-12.24,8.41-23.5,17.24-29.33,31.38-2.7,6.54-3.21,13-.83,19.6"/><path class="cls-1" d="M158.91,87.56a45.16,45.16,0,0,0,15.38,12.5c7.19,3.55,16.5,2.28,23.64-.7,4.36-1.82,7.74-4.7,11.64-7.15-1-2.6-4.86-4.36-7-5.89s-4.27-3.31-6.49-4.87c-5.19-3.65-10.39-6-17-5.05-4.42.6-9.29,2-12.91,4.66A73.5,73.5,0,0,0,158.91,87.56Z"/><path class="cls-1" d="M159.63,201.84c-2.09-9.28-5.63-18.34-8.42-27.52-1.84-6-5.87-19.38-5.11-24.46,3.15,2.32,6.79,3.84,10.13,5.77-2.2-4.16-5.87-6.21-8.76-9.51-3.79-4.32-5.84-12.26-7.16-18-3.56-15.53-8.22-30-13-45C145.9,88,166.81,102.57,172.87,121a53.7,53.7,0,0,0-1-7.93c3.85-.25,15,12.53,17.58,16a46.35,46.35,0,0,1,8.79,25.15c1.54-3.08,1.09-8.78.78-12.46,9.52,6.76,18.51,28.59,18.81,40.11,1.57-8.14-2.47-20.52-5.8-28.08,2.53,1.4,5.12,3.7,9.32,3.69-7.08-4.7-12.75-11.41-18.86-17.12-5.51-5.15-10.74-11.61-14.91-16.43,2.94.87,8.08,3,11.07,1.81-10.36-3.75-17.42-9.64-25.27-17.27s-13.32-12.82-22.68-18.62c6-.42,9.54,0,15.76-.7,5.06-.59,12.58.71,17.6,0,4.64-.69,46.51,1.25,49.92-9.83-9.31,6.31-52.47,7.53-62.66,7.27-4.91-.12-16.75,2.15-21.07-.53,2.57-4.62,10.28-6.67,11-12.39-3.84,3.24-8.7,8-13.72,9.41-6,1.73-11.71-1.75-17.17-4A150,150,0,0,1,95.84,58.9c14.22-7.05,30.38-6.94,45.68-9.41,10.4-1.68,19.93-5.16,30.09-7.54,6.59-1.54,13.1-2.62,19.1-6.05-6-2.17-13.72,1.44-19.51,3-8.24,2.16-18,3.66-26.14,5.9-8.58,2.35-13.88,2.11-21.36,3.8-7.65,1.74-15,3.18-22.87,4.42C79.91,56.29,63.69,36.52,48.12,25.5c-6.65-4.71-13.86-8.65-20.7-13.08C21.88,8.82,13.26,1.24,6.69.1,4.35-.31-.09.49,0,4,.11,8.18,18.83,14.9,22.37,17c19.79,11.83,39.32,24.55,57.9,38.17,5.52,4,10.95,9,17,12.24s12.06,5.84,17.86,9.45c5.39,3.36,6.42,3.73,8.74,10.06,2.89,7.87,8.64,21.32,10.43,29.5,3.82,17.49,6.21,29.72,10.13,47.16a186.24,186.24,0,0,0,6.9,24.31C152.8,192,155.12,207.11,159.63,201.84Z"/><path class="cls-1" d="M148,150.35c2-2.8,5.54-4,8.52-5.58,4-2.14,7.14-2,11.23-.17,8.94,4,13.1,13.56,16.23,22.22,1.77,4.9,2.75,10.14,5,14.79-4.29,2.2-11.91,2.5-16.55,1.63a40.45,40.45,0,0,1-17.66-7.86c-3.73-3-6.31-7.32-8-11.76C145.38,159.69,143.83,151.33,148,150.35Z"/><path class="cls-1" d="M151.91,182.45c8.41.34,17.3,8.46,20.62,15.62,2.58,5.56,4.86,10.56,4.91,16.83a41.85,41.85,0,0,1-3,17.12c-1.75,4.34-3.77,11.31-7.67,14.29-11.89-8.27-22.21-20.92-24.57-35.6-.94-5.84.82-13,2.69-18.54C146,188.89,148.53,182.13,151.91,182.45Z"/><path class="cls-1" d="M142.09,170.22,142,170"/><path class="cls-1" d="M142,170c2.55,2.53,4,8,3.73,11.71-.41,5.6-4.69,10.44-8,14.64-6.58,8.38-17,11.86-27.41,11.14-4.49-.31-9.34-.38-13.73-1.44.31-2.33,1.57-5.28,2.18-7.69a55.5,55.5,0,0,1,4.75-12.76,49.63,49.63,0,0,1,15-17c4.55-3.14,10.32-5.61,15.83-4.45C136.81,164.72,142.16,166,142,170Z"/><path class="cls-1" d="M133.92,125.61c4.87,6.76,4.23,17.9-2.24,23.22-5.39,4.43-13.92,6.91-20.81,7.25-3.43.17-7.14-.54-10.45.26-.81-2.33.49-5.89.72-8.34a44.62,44.62,0,0,1,2-11c2.07-5.92,5.73-12.19,11.57-15.06C119.47,119.59,131.16,119.86,133.92,125.61Z"/><path class="cls-1" d="M121.14,87.35c5.92,3.6-.25,14.11-3.6,17.37-2,1.95-4.21,4.1-4.93,0-.62-3.51,1.21-7.09,3-9.95C117.11,92.41,120.18,89.79,121.14,87.35Z"/><path class="cls-1" d="M191.72,123.29C200.4,118,208,111.39,218.83,111.7c10.42.3,17,9,22.92,16.5-4.16,5.48-10.67,8.52-17,10.8-4.95,1.78-11,3.4-16.22,2.15C201.86,139.53,192.07,132,191.72,123.29Z"/><path class="cls-1" d="M197.6,145.81c7.08,6.48,14.21,19.82,10.42,29.45-3.56,9-9.37,17.23-17.67,22.34-1-1.95-3.06-3.51-4.24-5.47A43.82,43.82,0,0,1,182.4,183c-2.09-6.42-1.16-13.66.53-20.07a31.57,31.57,0,0,1,6.2-12.19,24.78,24.78,0,0,1,3.16-3.28A10,10,0,0,1,197.6,145.81Z"/><path class="cls-1" d="M213.46,152.91c3.41,9.48,8.29,16.8,17,22,7,4.18,14.21,3.91,21.95,2.58,2.27-.39,15.89-2.5,16.29-5.35.16-1.12-3.8-5.95-4.44-7a67.45,67.45,0,0,0-7.12-9.33c-3.77-4.25-10-7.71-15.33-9.62C232.65,142.92,220.7,146.4,213.46,152.91Z"/><path class="cls-1" d="M216.88,170.65c-4.56,9.69-8.49,18.65-6.92,29.53,1.05,7.31,5.61,14.64,11.1,19.42a60.51,60.51,0,0,0,8.84,6.07c2.2,1.29,5.49,3.47,7.42,1.55,1.32-1.31,2.27-4.4,3.08-6a46.57,46.57,0,0,0,3.65-10.35c1.67-7.18,1.08-14.87-2.81-21.27C236.27,181.38,226.32,172,216.88,170.65Z"/><path class="cls-1" d="M207.44,87.58c1.09-3.06,18.57-1.61,21-1.07,11.29,2.46,20.09,8.26,24.87,19.13a150.28,150.28,0,0,1,5.48,14.6c-10.41,5.31-28,3.44-37.32-3.31a37.34,37.34,0,0,1-13.3-17.64C206.7,95.09,206.3,91.05,207.44,87.58Z"/><path class="cls-1" d="M246.31,84.68a78.66,78.66,0,0,0,6.15,13.87c3.09,5.15,8.64,8.12,14.11,10.26,8.92,3.49,16.82,5.33,25.91,1.6a28.65,28.65,0,0,0-3.22-6.75c-1.58-2.76-2.76-5.93-4.82-8.38A50.75,50.75,0,0,0,271.53,84c-4.09-2.37-9.76-5.52-14.65-5.09C253.45,79.26,248.94,82,246.31,84.68Z"/><path class="cls-1" d="M231.38,82.91c7.85,5.34,18-.48,24-5.68a55.61,55.61,0,0,0,14.13-18.39c1.55-3.29,3.67-7,4.37-10.64s-3.3-3.25-6.4-3.12C255.33,45.58,242.78,50,235,59.72c-3.32,4.17-6.31,8.89-6.54,14.37a14.76,14.76,0,0,0,.68,4.78C229.77,80.65,230.93,80.86,231.38,82.91Z"/><path class="cls-1" d="M181.79,38.19c1.59,5.28,12.42,10,17.57,9.82a47.42,47.42,0,0,0,18.33-4.52,55.32,55.32,0,0,0,7.63-5.16c1.21-.89,5.19-2.79,5.5-4.4.46-2.43-8-6-10.09-7a27.72,27.72,0,0,0-13-3.43,37.11,37.11,0,0,0-18.87,6.08C187.26,30.65,181.59,35.64,181.79,38.19Z"/><path class="cls-1" d="M161.29,42.85c6.67-.31,12-7.73,13.81-13.65C177,23,175.25,16.85,173.22,11c-1.11-3.23-4.85-10.11-8.95-9.83-3.49.24-6.69,6.8-8,9.37-2.38,4.58-3.41,9.64-4.05,14.75C151.78,28.55,150.93,44.5,161.29,42.85Z"/></g></g></svg>