<svg xmlns="http://www.w3.org/2000/svg" viewBox="0 0 114.72 69.24"><defs><style>.cls-1{fill:#fff;}</style></defs><title>logo</title><g id="Слой_2" data-name="Слой 2"><g id="Слой_7" data-name="Слой 7"><path class="cls-1" d="M42,26.83l-.25.14a.61.61,0,0,1-.2.09,3,3,0,0,1-.5.14,2.93,2.93,0,0,0-.5.14c-.12.15-.2.23-.22.23a3.33,3.33,0,0,1-.58.13l-.59.09-.4.14-.32.09-.13.16c-.06.08-.1.11-.14.11l-.29.07-.52.16-.54.16-.31.07a1.07,1.07,0,0,1-.23.14l-.43.2-.45.22a2,2,0,0,1-.34.16l-.41.27-.31.22a1.47,1.47,0,0,0,0,.72c0,.06.07-.13.19,0s.17,0,.23,0,.1.38.16.33l.14-.11.27,0,.45-.07.45-.07.27,0a1.24,1.24,0,0,0,.36-.11,1.24,1.24,0,0,1,.36-.11.8.8,0,0,1,.36,0l.36,0,.14-.13c.06-.06.09-.1.09-.14a8.82,8.82,0,0,1-1.08,1.6L36.5,32l-.58.2-.36.13a1.73,1.73,0,0,0-.25.47,1.78,1.78,0,0,1-.25.47l-.25.4a2.28,2.28,0,0,1-.2.32,1,1,0,0,1-.25.14,1,1,0,0,0-.25.13,4.67,4.67,0,0,0-.47.34q-.38.29-.47.38a1,1,0,0,0-.25.09,1,1,0,0,0-.25.13.27.27,0,0,0,0,.25.56.56,0,0,1,.09.25H36a2.1,2.1,0,0,1-.31.36l-.36.36a1.67,1.67,0,0,0-.38.09,1.13,1.13,0,0,0-.34.13s-.08,0-.14.11-.1.11-.13.11l-.59.23a2.05,2.05,0,0,0-.58.27l-.29.18-.45.29-.45.29a1.88,1.88,0,0,0-.25.18,3.22,3.22,0,0,1-.5.14,3.66,3.66,0,0,1-.5.09l-.34.25-.34.25a.83.83,0,0,0-.29.09,3.38,3.38,0,0,1-.45.16,3,3,0,0,0-.45.16,1,1,0,0,1-.25.09.54.54,0,0,0-.25.09l-.25.13h.22a1.47,1.47,0,0,0-.2-.26,1,1,0,0,0-.25-.22,2,2,0,0,0-.5-.09,1,1,0,0,1-.5-.13,4.73,4.73,0,0,1-.09-.62,1.84,1.84,0,0,1,0-.31,2.4,2.4,0,0,0,0-.27l1.44-1.67V36A2,2,0,0,1,28,36a.61.61,0,0,0-.36,0l-2.84.95-.23,0-.38.09-.38.09-.22,0-.61.34-.61.34a3.2,3.2,0,0,1-.47.14,2.84,2.84,0,0,0-.47.13l-1.89.94a3.12,3.12,0,0,1-.45.13,2.61,2.61,0,0,1-.54.09l-.27,0-.18,0S18,39.21,18,39.1l-.13-.26c0-.06,0-.21,0-.45a4.77,4.77,0,0,0,0-.5l-.27,0-.27,0a3.21,3.21,0,0,1-.47.14,2.89,2.89,0,0,0-.47.13.6.6,0,0,0-.27.11.72.72,0,0,1-.23.11l-.67.27-.54.22-.22,0c-.12,0-.19,0-.22,0a.85.85,0,0,0-.25.11.92.92,0,0,1-.25.11h-.49l-.45-.72a.76.76,0,0,1-.11-.25.42.42,0,0,0-.16-.25h-.68l-.74.14a5.89,5.89,0,0,0-.7.13,1.43,1.43,0,0,0-.38.11l-.34.11a.78.78,0,0,1-.31,0H9.09q0-.14,0-.72c0-.39,0-.65,0-.77s0-.07-.09-.13a.26.26,0,0,0-.18-.09H8.28a2.89,2.89,0,0,0-.5.11,3,3,0,0,1-.5.11H7.07l-.54-.25a2.19,2.19,0,0,1-.4-.2.91.91,0,0,0,0-.16,1,1,0,0,1,0-.2,2.64,2.64,0,0,1,0-.36,4.08,4.08,0,0,1,.25-.38A4.13,4.13,0,0,1,6.62,35s0-.11,0-.23l0-.38A2.86,2.86,0,0,1,6.75,34a.54.54,0,0,1,.09-.23,1.29,1.29,0,0,1,.27-.38l.5-.52a6.89,6.89,0,0,1,.52-.47l.38-.29v-.45l-.11,0-.11,0L8,31.89a2.91,2.91,0,0,1-.47.14,3.07,3.07,0,0,1-.47.09H5.4A.55.55,0,0,1,5.15,32l-.25-.14v-.27s.07,0,.11-.09a.45.45,0,0,1,.16-.14,2.73,2.73,0,0,1,.36-.27l.36-.23.27-.07.45-.16L7,30.52l.25-.07a1,1,0,0,0,.13-.23L7.56,30v-.5l-.49.27v-.27a2.64,2.64,0,0,1-.36.27L6.35,30a1.14,1.14,0,0,1-.34.14,1.69,1.69,0,0,1-.38.09l-.22.16a.7.7,0,0,1-.23.11H3.24a1.47,1.47,0,0,0-.2-.52,2.56,2.56,0,0,0-.29-.47l-.38-.09-.56-.14H1.08s-.07,0-.11-.09L.86,29v-.27a2,2,0,0,0,.25-.36A2,2,0,0,1,1.35,28l.25-.18L2,27.55l.45-.29.25-.18a2.91,2.91,0,0,0,.56-.5l.43-.45V25.4c-.09-.15-.18-.23-.27-.23a1.86,1.86,0,0,0-.34.11,1.45,1.45,0,0,1-.38.11H2.52a1.13,1.13,0,0,1-.18-.47,1,1,0,0,1,0-.47s.06-.1.18-.23L2.75,24l.45-.23.54-.27.34-.09.38-.13q.18-.23.22-.23a4,4,0,0,1,.59-.27,6,6,0,0,1,.63-.22V21.8l-.25-.36q-.16-.23-.25-.23H3.24s-.07-.07-.11-.22L3,20.63v-.5a1.75,1.75,0,0,1,.09-.38,1.15,1.15,0,0,1,.14-.34,1.87,1.87,0,0,1,.36-.36A1.79,1.79,0,0,0,4,18.69a.34.34,0,0,0,0-.14l0-.09a1.07,1.07,0,0,0-.36-.11,1,1,0,0,1-.36-.11s0-.11,0-.23a2.33,2.33,0,0,1,0-.27,1.83,1.83,0,0,1,0-.25,1.82,1.82,0,0,0,0-.25l.36-.18.58-.29.59-.29a3.53,3.53,0,0,1,.4-.18,1.18,1.18,0,0,1,.34-.14,1.74,1.74,0,0,1,.38-.09s0-.07.09-.13l.14-.14.59-.23.58-.22.5-.25.5-.25a1,1,0,0,1,.34-.11A2.06,2.06,0,0,0,9,14.63a1,1,0,0,0,.25-.23,1.6,1.6,0,0,0,.2-.27H9.23l-.5.13a2.66,2.66,0,0,1-.45.09A1,1,0,0,1,8,14.5a1,1,0,0,0-.25.13,3.06,3.06,0,0,0-.47.09,2.86,2.86,0,0,0-.47.13l-.47.25-.47.25a5.47,5.47,0,0,1-.65.25l-.56.2q-.22.09-.85.27L3,16.3h-.5a4.25,4.25,0,0,0-.5-.11,2.22,2.22,0,0,1-.45-.11l-.14-.13c-.06-.06-.09-.11-.09-.14A2.72,2.72,0,0,1,1.19,15q-.07-.59-.11-.77H.14V11.52c0-.06.09-.18.27-.36a1.91,1.91,0,0,1,.45-.36l.34-.18.56-.29L2.34,10a3.88,3.88,0,0,0,.41-.23,3.57,3.57,0,0,0,.49-.09,3.05,3.05,0,0,0,.5-.14q.18-.22.22-.22a1.06,1.06,0,0,1,.25-.13,1,1,0,0,1,.25-.09L4.59,9c.06-.06.09-.1.09-.14s0-.09,0-.18a.52.52,0,0,1-.07-.18.53.53,0,0,1-.18-.07.25.25,0,0,0-.22,0,1.09,1.09,0,0,0-.36.14l-.59.31c-.21.12-.41.23-.61.32a1.78,1.78,0,0,0-.34.18L2,9.34q-.2,0-.25,0c-.12.15-.2.22-.22.22a3,3,0,0,1-.45.14,2.5,2.5,0,0,1-.49.09.76.76,0,0,1-.31,0H0A2.69,2.69,0,0,1,0,9.5a1.5,1.5,0,0,1,.09-.36S.2,9,.34,8.91l.29-.27.25-.23L1.33,8l.45-.38a1.67,1.67,0,0,1,.29-.22c.12-.15.2-.23.23-.23a3.8,3.8,0,0,1,.54-.36l.63-.36.27-.14A.81.81,0,0,1,4,6.25a3.09,3.09,0,0,1,.47-.13A2.94,2.94,0,0,0,4.91,6a1,1,0,0,0,.38-.2l.34-.25a1.34,1.34,0,0,1,.31-.16l.54-.22L7,4.92a1.33,1.33,0,0,1,.29-.11,1.4,1.4,0,0,1,.27-.16L8,4.43l.45-.23a.88.88,0,0,1,.25-.11L9.11,4l.34-.09.27-.27L10,3.52l.45-.16.45-.16a1.07,1.07,0,0,1,.29-.07l.47-.24.47-.24a3.56,3.56,0,0,1,.59-.13l.59-.09.27-.14a1.05,1.05,0,0,0,.23-.13l.34,0,.61-.06L15.33,2l.38,0A1.37,1.37,0,0,0,16,1.7a3.16,3.16,0,0,1,.38-.3c.27,0,.42,0,.45,0a.9.9,0,0,0,.25-.11.91.91,0,0,1,.25-.11A3.51,3.51,0,0,1,18,1.06L18.54,1a1.08,1.08,0,0,1,.25-.13A1,1,0,0,0,19,.7,2.21,2.21,0,0,1,19.4.6a2.12,2.12,0,0,0,.36-.11l.27,0,.45-.07.45-.06.27,0a.66.66,0,0,0,.23-.14A.66.66,0,0,1,21.65,0s.07,0,.13.11l.14.16h.23s.07,0,.13.09.09.1.09.13a1.71,1.71,0,0,1,.16.6,4.19,4.19,0,0,0,.11.6h.45l.65-.13a3.32,3.32,0,0,0,.56-.14.71.71,0,0,0,.22-.11.62.62,0,0,1,.27-.11,3.47,3.47,0,0,1,.58-.13L26,1l.36-.13L26.69.7l.25,0c.13,0,.22,0,.25,0A1.88,1.88,0,0,0,27.52.6a1.51,1.51,0,0,1,.38-.11h2.61a1.55,1.55,0,0,1,.36.09l.36.13.27.24a1,1,0,0,1,.23.24l-.25.13a.57.57,0,0,1-.25.09,1.16,1.16,0,0,1-.34.15l-.38.15-.45.25S30,2,30,2V2.3a.18.18,0,0,0,0,.14s0,.07.09.13.11.09.14.09h.22a1.76,1.76,0,0,0,.74-.15l.7-.33.61-.24.61-.24a1.09,1.09,0,0,1,.23-.13,1,1,0,0,0,.22-.14l.52-.13a3.31,3.31,0,0,1,.47-.09h1.17l.22.49.27-.27h.45a1.29,1.29,0,0,1,.27.25,1.42,1.42,0,0,1,.23.3,1.18,1.18,0,0,1,0,.27,1.26,1.26,0,0,1,0,.22,1,1,0,0,1-.34.11,2.2,2.2,0,0,0-.38.11,5.53,5.53,0,0,0-1.17.7c0,.06.06.15.18.27a1.24,1.24,0,0,0,.27.22h.72l.13-.13c.06-.06.09-.1.09-.14a2.24,2.24,0,0,1,.36-.11,2.1,2.1,0,0,0,.36-.11,3.64,3.64,0,0,1,.61-.13l.61-.09A1.1,1.1,0,0,1,38.89,3l.27-.13.38-.13.34-.09.43,0,.63-.05.61,0H42V3.81l.13,0,.14,0,.22-.16a.72.72,0,0,1,.22-.11h.72l.27.11a.39.39,0,0,1,.22.16l-.36.34-.36.34a2.59,2.59,0,0,1-.36.27L42.49,5l-.36.14-.58.22a6.16,6.16,0,0,1-.61.23l-.38.13L40.33,6a.19.19,0,0,0,.09.16l.14.11.5,0a1.36,1.36,0,0,1,.5,0,3,3,0,0,1,.23.34L42,7m0,16.76-.41.27a1.24,1.24,0,0,1-.31.18,2.08,2.08,0,0,0-.11.38,1,1,0,0,1-.11.34s0,.08-.11.14-.11.1-.11.13,0,.05,0,.07a.07.07,0,0,1,0,.07.54.54,0,0,1,.23.07c.09,0,.15.05.18,0l.5-.25M42,21.06a3,3,0,0,1-.47.13,3,3,0,0,0-.47.13,2.18,2.18,0,0,0-.5.34l-.45.38h.23l.27,0,.45-.09.45-.09.27,0,.13,0c.06,0,.09,0,.09,0m-.34-6.08-.61.09a1,1,0,0,1-.23.14l-.27.13-.25.07-.45.16-.45.16-.25.07a7.35,7.35,0,0,1-.7.36l-.74.36-.4.27-.31.23,0,.09A.34.34,0,0,0,37,18s0,.08.09.14l.13.13h.23a1.06,1.06,0,0,1,.25-.13,1,1,0,0,0,.25-.14h.23l.56-.2a5.55,5.55,0,0,0,.65-.25l.47-.27a1.58,1.58,0,0,1,.47-.23,4.11,4.11,0,0,1,.68-.09l.68,0a1.87,1.87,0,0,1,0,.32,1.41,1.41,0,0,1-.09.31,1.25,1.25,0,0,0-.31.18l-.41.27-.47.25-.47.25-.7.45q-.56.36-.74.5l-.13.14c-.06.06-.1.09-.14.09a2,2,0,0,1-.47.27l-.47.23-.13.11c-.06,0-.09.08-.09.11a.06.06,0,0,0,0,.09.13.13,0,0,1,0,.09l.56,0,.56,0a2.11,2.11,0,0,1,.36-.11.81.81,0,0,0,.36-.16s.07,0,.13-.09l.14-.14,2.39-.5s0-.07.09-.11l.14-.11.27-.07m0-9.26a1,1,0,0,0-.14.23.77.77,0,0,0-.09.22l.22,0M17.26,30.51l.11.13a1,1,0,0,1,.11.34,2.06,2.06,0,0,0,.11.38l.11.25.11.25.29.41a1.25,1.25,0,0,1,.2.31l.52.09.7.13h.72l.41-.13.31-.09a1,1,0,0,1,.07-.22c0-.12.1-.25.16-.38l.16-.38a1,1,0,0,0,.07-.23l.25-.22a1.14,1.14,0,0,0,.25-.27v-.45q0-.45,0-1.15l.09-1.4q0-.7.07-1.21t0-.56a3.71,3.71,0,0,1,.07-.52q.07-.38.14-.81c0-.28.1-.55.16-.81s.1-.43.14-.52.07,0,.13-.09.09-.1.09-.14v-.09c0-.18,0-.26-.14-.25s-.13-.1-.13-.34a1.21,1.21,0,0,1,0-.27,1.23,1.23,0,0,1,.11-.36,1.24,1.24,0,0,0,.11-.36c0-.09.07-.28.13-.58a3.79,3.79,0,0,0,.09-.63s0-.14,0-.34l.09-.61q0-.32.09-.59a2.69,2.69,0,0,0,0-.36s0-.14,0-.32.05-.36.07-.54,0-.35.07-.52a2.85,2.85,0,0,0,0-.29l.87-4.89v-.95a3.17,3.17,0,0,0-.09-.47c-.06-.26.33-3.45.3-3.51l-.23-.45a5.57,5.57,0,0,0-.27-.5,4.63,4.63,0,0,0-.27-.45c-.12-.18-.19-.27-.22-.27s-.14-.11-.32-.16L22.95,5h-1.4a.81.81,0,0,0-.22.09,1.07,1.07,0,0,0-.27.18l-.41.25a2.37,2.37,0,0,0-.31.2,2,2,0,0,0-.25.36,2,2,0,0,1-.25.36,1.48,1.48,0,0,1-.09.36,3.44,3.44,0,0,1-.13.36c0,.12-.51,3.37-.57,3.69a5,5,0,0,0-.09.56,1.25,1.25,0,0,0,0,.47q0,.38,0,.47c0,.09-.93,4.19-1,4.51a1.73,1.73,0,0,1-.16.61.72.72,0,0,1-.11.23.7.7,0,0,0-.11.22v.94c0,.09,0,.23,0,.43s0,.39-.07.58-.06.38-.09.56a2.71,2.71,0,0,0,0,.36,2,2,0,0,1-.09.41q-.09.31-.16.68t-.16.68a2,2,0,0,0-.09.4q0,.14,0,.52t-.09.83q0,.45-.07.9t0,.63s0,.2,0,.5,0,.53,0,.68,0,.43,0,.95a3.18,3.18,0,0,0,.07.49l.13.74q.07.38.14.72a4.36,4.36,0,0,0,.11.47A.2.2,0,0,1,17.26,30.51Zm21.9-8a.38.38,0,0,0,.2.16l.25.11v-.5H39A.37.37,0,0,0,39.16,22.5Z"/><path class="cls-1" d="M33.5,25.63a3.12,3.12,0,0,1,.41-.45l.54-.54a2,2,0,0,1,.36-.25l.36-.2.38-.13a1.18,1.18,0,0,0,.34-.14.19.19,0,0,0,.16-.09l.11-.14a6.71,6.71,0,0,0-.07-.7,6.57,6.57,0,0,1-.07-.7.09.09,0,0,1-.07,0,.09.09,0,0,0-.07,0c-.12.15-.2.22-.23.22l-.38.14a1.22,1.22,0,0,0-.34.13l-.22.25c-.12.14-.21.2-.27.2l-.43.25-.59.31a6.12,6.12,0,0,1-.56.27,1.4,1.4,0,0,0-.31.16H31.11a1.3,1.3,0,0,1-.23-.27.9.9,0,0,1-.25-.25l-.36-.45-.38-.45a1.64,1.64,0,0,1-.22-.29V22c0-.06.07-.15.11-.27a.73.73,0,0,1,.11-.23l.54-.31.68-.41.47-.22.47-.23a5.44,5.44,0,0,1,.45-.36l.5-.36.27-.27.34-.09.38-.14a.73.73,0,0,1,.22-.11.74.74,0,0,0,.22-.11l.38-.25.34-.25a2,2,0,0,1,.38-.11,1,1,0,0,0,.34-.11,1.95,1.95,0,0,0,.5-.5h-.23l-.54.13a2.68,2.68,0,0,1-.45.09l-.47.25-.47.25h-.5s-.08,0-.14-.09-.09-.1-.09-.14v-.72a.92.92,0,0,1,.25-.25A.94.94,0,0,0,34,17s0-.12,0-.27a4.42,4.42,0,0,1,0-.45v-.45a.46.46,0,0,1,0-.27,1.78,1.78,0,0,1,.38-.36,2.43,2.43,0,0,1,.56-.36,2.4,2.4,0,0,1,.47-.11,2.28,2.28,0,0,0,.47-.11,1.13,1.13,0,0,0,.27-.25l.23-.25a2,2,0,0,1,.36-.25l.36-.2a1.93,1.93,0,0,1,.59-.25,1.92,1.92,0,0,0,.58-.25,2,2,0,0,0,.5-.5h-.23a1.24,1.24,0,0,0-.34.09,5.16,5.16,0,0,1-.52.16l-.54.16-.31.09h-.45a1,1,0,0,1-.25-.23l-.25-.27v-.23l.27-.54a2.65,2.65,0,0,1,.23-.41,2.71,2.71,0,0,1,.45-.22A1.17,1.17,0,0,0,37.1,11l.22-.25.49-.22a1.14,1.14,0,0,0,.45-.27c.06,0,.11-.13.16-.31s.08-.32.11-.41V8.39a2.15,2.15,0,0,1,.36-.11.8.8,0,0,0,.36-.16l.22-.23a.75.75,0,0,1,.22-.11L40,7.67a1.15,1.15,0,0,1,.34-.14,1.79,1.79,0,0,1,.38-.09s0-.08.09-.14l.14-.13L41.38,7a4.81,4.81,0,0,1,.5-.23l.38-.14a1.14,1.14,0,0,0,.34-.13A2,2,0,0,0,43,6.12l.36-.38a.81.81,0,0,0,.22-.09l.27-.14a1.19,1.19,0,0,1,.34-.13,1.71,1.71,0,0,1,.38-.09s0-.07.09-.13L44.75,5l.34-.22.38-.23s0-.07.09-.13l.14-.14a3.45,3.45,0,0,0,.5-.09,1.56,1.56,0,0,0,.45-.14,1,1,0,0,0,.27-.36,2.85,2.85,0,0,1,.23-.36,1.19,1.19,0,0,1,.34-.13,1.74,1.74,0,0,1,.38-.09l.61-.24.61-.24.34-.09.38-.13c.12-.14.2-.22.23-.22s0-.05.14-.05h.4a.23.23,0,0,1,.18.05.56.56,0,0,1,.25.09l.2.13a1,1,0,0,1,.13.22l.14.26v.22s-.07,0-.11.09a.45.45,0,0,1-.16.13,2.89,2.89,0,0,1-.36.27l-.36.23a.92.92,0,0,1-.32.11,2.21,2.21,0,0,0-.36.11l-.22,0-.38.09-.38.07-.23,0-.14.14c-.06.06-.09.1-.09.13a1.75,1.75,0,0,0-.38.09,1.18,1.18,0,0,0-.34.13q-.09.09-.47.56L46.64,6a.91.91,0,0,0-.11.31c0,.18-.08.32-.11.41s-.08.47-.14.95-.09.79-.09.94l-.11.13a.19.19,0,0,1-.16.09,2.1,2.1,0,0,1-.58.27l-.59.23a3.24,3.24,0,0,0-.36.25,3.15,3.15,0,0,1-.36.25,1.48,1.48,0,0,0-.36.09l-.36.13a.88.88,0,0,0-.25.11.88.88,0,0,1-.25.11,1,1,0,0,1-.34.11.85.85,0,0,0-.38.16s0,.09.09.18a.37.37,0,0,1,.14.23.22.22,0,0,1,.11,0,.15.15,0,0,0,.16,0s.1-.07.22-.22l1.44-.72.61-.22a2.15,2.15,0,0,0,.61-.27l.36-.2a2,2,0,0,0,.36-.25v1.17a2.76,2.76,0,0,1-.09.45,2.76,2.76,0,0,1-.18.54c0,.09-.07.23-.11.4a.9.9,0,0,1-.11.32l-.36.36a2,2,0,0,1-.36.32h1v.27a.36.36,0,0,1,0,.23c0,.06,0,.2,0,.4s0,.44-.07.68-.06.46-.09.68a3.66,3.66,0,0,0,0,.41q0,.18,0,.65c0,.32-.06.65-.09,1s-.05.7-.07,1,0,.53,0,.65a2.51,2.51,0,0,0-.31.72l-.18.72c0,.06,0,.26-.09.61a3.39,3.39,0,0,1-.14.61l-.22.45a5.13,5.13,0,0,1-.52.32l-.7.4a1,1,0,0,1-.25.14,1,1,0,0,0-.25.13l-.45.45-.25.18-.43.29-.45.32-.31.2a1,1,0,0,0-.25.09,1,1,0,0,0-.25.13l-.34.25-.38.25a.79.79,0,0,0-.22.09,1,1,0,0,0-.22.13s-.08,0-.14.11-.11.11-.13.11a3.81,3.81,0,0,1-.54.36l-.63.36-.27.14a.79.79,0,0,1-.22.09,1.18,1.18,0,0,1-.34.13l-.38.13a.71.71,0,0,0-.22.11.7.7,0,0,1-.23.11l-.14,0-.13,0-.23,0-.22-.25a1.16,1.16,0,0,0-.27-.25h-.23l-.61.2a2.55,2.55,0,0,0-.61.29,1,1,0,0,1-.14-.22.69.69,0,0,1-.09-.27v-.68Zm3,7.79a2.22,2.22,0,0,1,.19-.3l.31-.43.31-.4.19-.23.24-.07.4-.18.4-.18a1,1,0,0,1,.24-.08q.09-.1.61-.55t.61-.56l.52-.25.52-.25a2.54,2.54,0,0,0,.21-.35c.11-.2.2-.35.26-.45v-.25s0,.08-.09.13l-.14.13-.5.25a2.11,2.11,0,0,0-.5.3s-.08,0-.14.1l-.14.15a2.45,2.45,0,0,1-.4.3,1.5,1.5,0,0,1-.35.2s-.11,0-.24,0l-.24,0-.28.3a.8.8,0,0,0-.24.1A1.12,1.12,0,0,0,38,31l-.38.43a2.06,2.06,0,0,1-.38.38,6.62,6.62,0,0,1-.76.3l-.76.25a.83.83,0,0,0-.09-.3,1.14,1.14,0,0,0-.14-.25.8.8,0,0,0-.26-.12.79.79,0,0,1-.26-.13.87.87,0,0,1-.12-.28.88.88,0,0,0-.12-.28,1.25,1.25,0,0,0-.52,0,1.2,1.2,0,0,1-.52,0s-.08,0-.14-.1a.28.28,0,0,1-.09-.15s0-.14,0-.33,0-.31,0-.38a3.69,3.69,0,0,1,0-.38c0-.15,0-.24,0-.28s.07-.11.21-.23a3.69,3.69,0,0,0,.31-.28,3,3,0,0,1,.35-.25l.64-.43.61-.43.38-.25.52-.55a.81.81,0,0,0,.24-.1,1.07,1.07,0,0,0,.24-.15l.47-.33.68-.48.66-.48.45-.33s.08,0,.14-.13.11-.13.14-.13l.26-.2.45-.33.47-.33.33-.2a1.07,1.07,0,0,1,.24-.15,1.1,1.1,0,0,0,.24-.15s.11-.08.24-.25a3.68,3.68,0,0,1,.64-.4,3.76,3.76,0,0,0,.64-.4s.11-.08.24-.25a1.07,1.07,0,0,1,.26-.15,1.07,1.07,0,0,0,.26-.15l.38-.25.38-.25a.35.35,0,0,1,.19-.08l.19,0q0,.2,0,.86a6.91,6.91,0,0,1-.09.86,2.33,2.33,0,0,1-.07.33l-.14.58q-.07.3-.17.6a2.22,2.22,0,0,0-.09.35,2,2,0,0,0-.17.68,3.36,3.36,0,0,1-.12.63c0,.07,0,.24,0,.5s0,.55-.07.86-.06.59-.09.86,0,.44,0,.5a1.73,1.73,0,0,1-.1.4,4,4,0,0,1-.14.4s-.07,0-.12.1a.47.47,0,0,1-.16.15l-.71.61-.52.45-.36.2-.54.33-.54.33a1.91,1.91,0,0,0-.31.2l-.28.3a3.06,3.06,0,0,1-.35.25l-.4.25s0,.08-.09.15l-.14.15-.5.25-.5.25-.28.3a1.09,1.09,0,0,1-.24.15.82.82,0,0,1-.24.1h-.52l-.14-.13c-.06-.05-.09-.09-.09-.13a.7.7,0,0,0,0-.15.72.72,0,0,1,0-.15A1.54,1.54,0,0,1,36.52,33.42ZM38,37.11l.47-.5.47-.49a1.15,1.15,0,0,0,.13-.2l.14-.25a4.69,4.69,0,0,0,.11-.61,4.43,4.43,0,0,1,.11-.61s0-.15,0-.36,0-.33,0-.36.18-.14.45-.25l.5-.2.22-.22.38-.38.38-.38.22-.23a1.07,1.07,0,0,1,.22-.13.81.81,0,0,1,.23-.09l.38-.25.34-.25h.5a1,1,0,0,1,.13.25,1,1,0,0,1,.09.25,2.94,2.94,0,0,1,.27.36q.18.27.23.36l.72.72a3.36,3.36,0,0,1,.29.38,1.41,1.41,0,0,1,.2.34.88.88,0,0,1-.2.36,3.81,3.81,0,0,1-.29.36l-.47.23-.47.23a4.27,4.27,0,0,0-.4.27q-.31.23-.68.45c-.24.15-.47.3-.68.45l-.41.27-.25.14a.56.56,0,0,1-.25.09,1.24,1.24,0,0,1-.34.14l-.38.13a.77.77,0,0,0-.23.09,1,1,0,0,0-.23.14l-.61.36-.61.36a.56.56,0,0,1-.25-.09l-.25-.14a.79.79,0,0,0-.09-.22L38,37.34v-.23Zm18,4,.2-.35a1.89,1.89,0,0,1,.25-.35l.14-.13c.06-.06.1-.09.13-.09L57.2,40l.47-.25s.1-.08.23-.23l1-.5.23-.22.13-.25a.56.56,0,0,0,.09-.25.09.09,0,0,0,0-.07.09.09,0,0,1,0-.07,1.63,1.63,0,0,1-.34-.07.54.54,0,0,0-.34,0s-.07,0-.11.11-.08.11-.11.11l-.38.14a1.13,1.13,0,0,0-.34.13.88.88,0,0,0-.36.2,3.2,3.2,0,0,1-.36.25,1.2,1.2,0,0,1-.34.14l-.38.13a.87.87,0,0,0-.36.2,3.53,3.53,0,0,1-.36.25L55,40l-.47.25s-.11.07-.22.22a1.8,1.8,0,0,1-.47.25,3.24,3.24,0,0,0-.52.25l-.36.13a1.5,1.5,0,0,1-.36.09h-.45a1.31,1.31,0,0,1-.27-.22,1.26,1.26,0,0,1-.22-.27,1.16,1.16,0,0,1-.14-.34,1.73,1.73,0,0,1-.09-.38s-.07,0-.11-.09a.44.44,0,0,0-.16-.14.81.81,0,0,1-.23-.09,1.07,1.07,0,0,1-.22-.14l-.27-.25a1,1,0,0,1-.23-.25v-.22a4.1,4.1,0,0,1,.23-.36,2.62,2.62,0,0,1,.27-.36l.11-.13c0-.06.08-.09.11-.09a1,1,0,0,1,.25-.14,1.1,1.1,0,0,0,.25-.13s0-.08,0-.14a.26.26,0,0,1-.09-.18,1.66,1.66,0,0,1-.43-.09.77.77,0,0,0-.43,0,1.05,1.05,0,0,0-.27.11l-.54.27-.61.31-.47.25L48,38.4a4,4,0,0,0-.61.38,5,5,0,0,1-.86.38,3.28,3.28,0,0,1-.94.11H45s0-.07-.09-.11a.47.47,0,0,1-.14-.16,1.76,1.76,0,0,1-.25-.47,1.72,1.72,0,0,0-.25-.47q-.49.27-1,.5a2.59,2.59,0,0,1-1.08.23h-.31s-.07-.07-.11-.2a2.56,2.56,0,0,0-.11-.29v-.23l.47-.22a2.15,2.15,0,0,0,.47-.27s.07-.08.11-.23.08-.23.11-.23A1,1,0,0,1,43,37l.41-.2.45-.22a5.68,5.68,0,0,1,.74-.29,1.17,1.17,0,0,0,.34-.14s.09,0,.18-.13l.29-.31.29-.32.18-.18a.8.8,0,0,0,.23-.09l.27-.14.38-.13.34-.09a3,3,0,0,0,.36-.25,3.29,3.29,0,0,1,.36-.25,1,1,0,0,1,.25-.13,1,1,0,0,1,.25-.09s0-.07.09-.13l.14-.14.27-.07.45-.16.45-.16.27-.07a1.08,1.08,0,0,1,.22-.13,1,1,0,0,0,.23-.14,2.16,2.16,0,0,1,.36-.11,2.08,2.08,0,0,0,.36-.11h8.64l.83,0,1.44.07,1.44.07.83,0h.45a6,6,0,0,0,.74-.09,6.16,6.16,0,0,0,.7-.14l.11-.25a.78.78,0,0,1,.16-.25,2,2,0,0,1,.36-.25l.36-.2V29.2a4.16,4.16,0,0,1-.11-.59A1.68,1.68,0,0,0,67,28s0-.07-.09-.13l-.14-.14-.67-.41L65.55,27l-.47,0-.81-.07-.83-.07-.5,0a.55.55,0,0,1-.25-.09l-.25-.13H59.34l-.32,0-.52-.09L58,26.36l-.29,0H51l.36-.34.36-.34a4.23,4.23,0,0,1,.5-.36,1.74,1.74,0,0,0,.45-.36.47.47,0,0,0,0-.27.36.36,0,0,0,0-.23l-.47.23a2.05,2.05,0,0,0-.47.27l-.36.23-.36.22-.72.36-.72.36v-.45a2.68,2.68,0,0,1,.09-.45q.09-.36.16-.76t.16-.77a2.69,2.69,0,0,0,.09-.45v-.45a2.9,2.9,0,0,1,.11-.5,2.93,2.93,0,0,0,.11-.5,3.53,3.53,0,0,1,.07-.45l.16-.83q.09-.47.16-.9t.11-.65s0-.13,0-.31,0-.36.07-.54l.09-.52a2.41,2.41,0,0,0,0-.34.7.7,0,0,1,.11-.22.72.72,0,0,0,.11-.23.88.88,0,0,0,0-.38c0-.19,0-.31,0-.34s0-.34,0-.65l.09-1q0-.5.09-.92c0-.28,0-.47,0-.56s0-.18,0-.36,0-.37.07-.56l.09-.59a3.11,3.11,0,0,0,0-.43,1.69,1.69,0,0,1,0-.25c0-.14.06-.29.09-.45s.05-.31.07-.45,0-.23,0-.29V9.35c0-.15,0-.33,0-.54s0-.42,0-.63v-.9c0-.18,0-.37,0-.56s0-.38,0-.56V5.74s0-.07-.09-.11l-.13-.11h-.23l-.41-.13-.31-.09a1,1,0,0,1-.25-.22l-.25-.27V4.57a2,2,0,0,1,.36-.25A1.93,1.93,0,0,0,51,4.08,2.11,2.11,0,0,1,51.35,4a1,1,0,0,0,.34-.11A3.13,3.13,0,0,0,52,3.61a3,3,0,0,1,.36-.25,1.74,1.74,0,0,1,.47-.25l.47-.2.38-.13a1.16,1.16,0,0,0,.34-.14,3.41,3.41,0,0,0,.58-.25l.88-.46.88-.46a6,6,0,0,0,.54-.3.74.74,0,0,0,.09.28,1.08,1.08,0,0,0,.14.24.71.71,0,0,0,.23.12l.27.12h.23l.27-.05.45-.08.45-.08.27-.05h.49c.12-.14.19-.22.23-.22a.78.78,0,0,1,.25-.16l.25-.11H61a.59.59,0,0,1,.27.27v.49a3.1,3.1,0,0,0-.14.37,1.16,1.16,0,0,1-.13.33A2.43,2.43,0,0,0,61,3a2.6,2.6,0,0,1,0,.35l.18,0a.3.3,0,0,0,.23,0l.61-.26a3,3,0,0,1,.61-.22A.76.76,0,0,1,63,2.8l.45-.16.45-.15.25-.07.49-.24.5-.24h1.17a.19.19,0,0,1,.16.09,1.18,1.18,0,0,1,.11.18h1.89s0,.07.09.13.1.09.13.09h1.44s.07,0,.13-.11.1-.11.14-.11a2.89,2.89,0,0,1,.47-.15,2.78,2.78,0,0,0,.47-.15,2,2,0,0,1,.36-.12A2,2,0,0,0,72,1.66a.71.71,0,0,0,.22-.11.62.62,0,0,1,.27-.11l.09-.05a.31.31,0,0,1,.14.05s.07,0,.11.09l.11.13a.87.87,0,0,1,.16.3,1.2,1.2,0,0,1,.07.25,1.19,1.19,0,0,1,0,.46c0,.25,0,.4,0,.46l.13.11.14.11a1.39,1.39,0,0,1,.16.41,2.53,2.53,0,0,1,.07.32c0,.06-.07.14-.2.25l-.29.25a1.38,1.38,0,0,1-.45.11,2.56,2.56,0,0,0-.5.11L72,5l-.22.25a7.38,7.38,0,0,0-.72.47,6.88,6.88,0,0,1-.72.47h.94L72,6.12A2.74,2.74,0,0,0,72.52,6l.34-.25.34-.25a3.55,3.55,0,0,1,.58-.09l.54,0a1.9,1.9,0,0,1,0,.32,1.41,1.41,0,0,1-.09.32.76.76,0,0,1-.25.11.74.74,0,0,0-.25.11l-.23.25a1.16,1.16,0,0,1-.27.25,1.38,1.38,0,0,1-.45.11,2.57,2.57,0,0,0-.5.11A.8.8,0,0,0,72,7a1.07,1.07,0,0,0-.22.13l-.27.27a2.94,2.94,0,0,1-.34.23l-.38.23s0,.08-.09.14-.11.09-.13.09a3.06,3.06,0,0,1-.47.13,3,3,0,0,0-.47.14s-.08,0-.14.09l-.13.13-.11.25-.11.25h.95l.74-.22a3.66,3.66,0,0,0,.7-.27l.72.72s0,.08-.09.14-.11.09-.13.09a1,1,0,0,1-.25.14,1,1,0,0,0-.25.13l-.36.36-.36.36h1l.4-.14.81-.29.9-.31.72-.25a.87.87,0,0,0,.25-.11.9.9,0,0,1,.25-.11l.27-.07.45-.16L76.3,9a.82.82,0,0,0,.27-.11s.1-.07.22-.23l.36-.13a1.47,1.47,0,0,1,.36-.09l.11,0,.16,0,.22,0s.08,0,.14.09.09.1.09.13l-.11.14c0,.06-.08.09-.11.09a2.28,2.28,0,0,1-.38.27,2.84,2.84,0,0,0-.34.23s-.1.08-.22.23a.73.73,0,0,1-.23.11l-.38.16-.38.16-.22.07s-.11.08-.23.23a2,2,0,0,1-.5.27l-.49.22-.23.23a.58.58,0,0,0,0,.14.63.63,0,0,1,0,.13h1.62c.09,0,.18.08.27.23v.22l-1.21,1.44.29,0,.29,0,.36,0,.27,0c.12-.15.2-.22.23-.22a.85.85,0,0,1,.29-.11l.52-.16.52-.16a1.6,1.6,0,0,1,.34-.07.86.86,0,0,0,.25-.11.87.87,0,0,1,.25-.11h.45a.2.2,0,0,1,.16.09l.11.13-.41.29-.56.43-.56.43-.41.29-.34.25-.38.25-.13.11c-.06,0-.09.08-.09.11a2.42,2.42,0,0,1,0,.27c0,.15-.05.3-.07.45a4.5,4.5,0,0,1-.07.45,2.2,2.2,0,0,0,0,.27,1.75,1.75,0,0,1-.5.25,1.78,1.78,0,0,0-.49.25V17l.11.14a.19.19,0,0,0,.16.09s0,0,.09,0,.14,0,.14,0a3.07,3.07,0,0,0,.47-.09A2.79,2.79,0,0,0,76.8,17l.65-.13.56-.09h.22a1.08,1.08,0,0,1,.25-.13,1,1,0,0,1,.25-.09.27.27,0,0,1,.18,0h.22a1.29,1.29,0,0,1-.07.25A.79.79,0,0,1,79,17l-.32.23-.41.27-.47.22-.47.23-.14.14c-.06.06-.09.1-.09.13l-.38.23-.61.38c-.21.14-.41.26-.61.36a2.27,2.27,0,0,0-.34.2l-.14.14c-.06.06-.09.1-.09.13l-.5.23-.49.23-.11.14-.11.13.22.23h.27a2.13,2.13,0,0,1,.36-.11,2.08,2.08,0,0,0,.36-.11,1,1,0,0,1,.22-.13,1,1,0,0,0,.23-.14l.27-.07.45-.16.45-.16.27-.07a1.09,1.09,0,0,1,.25-.13,1,1,0,0,0,.25-.14H78a.49.49,0,0,1,.18.23c.06.12.08.21,0,.27s-.07.1-.2.23l-.29.27a2.72,2.72,0,0,1-.45.23l-.5.22-.43.27c-.2.12-.29.19-.29.23a2.56,2.56,0,0,0,.11.47,3.65,3.65,0,0,0,.16.47v.95a2.14,2.14,0,0,1-.56.54,5.23,5.23,0,0,1-.65.45l.49,1.17a1.17,1.17,0,0,0,.27,0,2.49,2.49,0,0,0,.83-.14c.25-.09-3.23,7-3.26,7l-.27.27-.47.23-.47.22s0,.08-.11.14-.11.11-.11.14l-.54.41-.4.31a1.72,1.72,0,0,0-.38.09,1.18,1.18,0,0,0-.34.13,2.24,2.24,0,0,0-.34.16l-.45.23-.43.2a1,1,0,0,0-.23.13l-.25.25c-.14.14-.22.2-.25.2a2.14,2.14,0,0,1-.58.27l-.59.23L67,36.1l-.45.29-.45.29a1.77,1.77,0,0,0-.25.18l-.68.41-.54.32a1.23,1.23,0,0,1-.34.14l-.38.13-.31.14-.45.2-.43.23a1.34,1.34,0,0,0-.25.16c-.06,0-.27.16-.63.41l-.81.54a2,2,0,0,0-.29.2l-.47.34-.52.36-.38.27q-.09.09-.47.38a5.18,5.18,0,0,1-.47.34,3.88,3.88,0,0,1-.61.27l-.61.23h-.5l-.45,0s-.07-.07-.11-.2a2.26,2.26,0,0,0-.11-.29l0-.09A.33.33,0,0,1,56,41.15Z"/><path class="cls-1" d="M88.89,38.55a.2.2,0,0,1-.16-.09l-.11-.13v-.49s0-.08.11-.14a.34.34,0,0,1,.16-.09l.13-.27a.8.8,0,0,0,.09-.23,1.38,1.38,0,0,0,0-.18,1.33,1.33,0,0,1,0-.18,2.79,2.79,0,0,1-.47-.07.85.85,0,0,0-.43,0,1,1,0,0,0-.29.07l-.45.16L87,37l-.25.07H83.84a6.34,6.34,0,0,0-.7.09l-.74.14-.25.14-.25.14-1.67-1.67a0,0,0,0,0,0,0h0c-.09,0-.14,0-.14,0s-.1.08-.22.23l-.59.14a3.88,3.88,0,0,1-.63.09l-.23,0-.27,0-.45,0s-.08,0-.13-.09l-.14-.14v-.5l.14-.25a1.07,1.07,0,0,1,.13-.2l.45-.47.5-.52.49-.38a4,4,0,0,1,.45-.34,2.74,2.74,0,0,0,.45-.09l.49-.14H81l.54.14.41.09a1.2,1.2,0,0,1,.18.25.57.57,0,0,1,.09.25l.52,0,.79.07.79.09.52,0,.47.27a1.55,1.55,0,0,0,.47.23l.38,0,.76.09.85.07.65,0,.31,0,.41,0,.41,0,.31,0c.18,0,.42,0,.72,0l.9-.07c.3,0,.57,0,.81-.07l.45,0,.31-.09.61-.2.67-.22a4.14,4.14,0,0,0,.52-.2l.49-.25.5-.25.34-.09.38-.14.52-.32.65-.41c.21-.12.49-.3.85-.54l.58-.41a5.1,5.1,0,0,0,.49-.45l.65-.65.63-.65.38-.4a4.87,4.87,0,0,0,.32-.61L102,28a2.92,2.92,0,0,0,.14-.36,1.49,1.49,0,0,0,.09-.36,3.41,3.41,0,0,0,.16-.77,4.92,4.92,0,0,1,.11-.68V24a1,1,0,0,1-.13-.25,1,1,0,0,0-.13-.25,5.72,5.72,0,0,0-.09-.58,3.26,3.26,0,0,0-.14-.59.89.89,0,0,0-.2-.36,4.51,4.51,0,0,0-.29-.36s0-.07-.09-.13l-.14-.14a1,1,0,0,1-.25-.09,1,1,0,0,1-.25-.14,1.07,1.07,0,0,0-.09-.25,1.08,1.08,0,0,0-.14-.25,1.77,1.77,0,0,1-.5-.23l-.18-.18-.29-.32-.29-.32c-.09-.09-.15-.13-.18-.13a2.2,2.2,0,0,0-.58-.27L98,18.92a2.21,2.21,0,0,1-.47-.2l-.61-.32-.56-.27A1.32,1.32,0,0,1,96,18a1.91,1.91,0,0,1-.36-.36,1.86,1.86,0,0,0-.36-.36H95.1s-.07,0-.14.11-.1.11-.13.11l-.32,0-.36,0a.6.6,0,0,1-.27-.11.72.72,0,0,0-.22-.11,2.68,2.68,0,0,1-.45-.09q-.36-.09-.76-.16c-.27,0-.52-.1-.74-.16a2.38,2.38,0,0,0-.43-.09,1.44,1.44,0,0,1-.38-.11,1.94,1.94,0,0,0-.34-.11l-.27,0-.45-.09-.45-.07-.27,0a3.06,3.06,0,0,0-.47-.13,3,3,0,0,1-.47-.14,1.29,1.29,0,0,1,0-.23,1.28,1.28,0,0,1,0-.22.55.55,0,0,1,.09-.25l.13-.25L88.5,15c0-.06.08-.09.11-.09a.76.76,0,0,1,.27-.16.73.73,0,0,0,.23-.11l.34,0a.87.87,0,0,0,.38,0s.07-.07.11-.23.08-.23.11-.23a.88.88,0,0,1,.38,0l.34,0a.56.56,0,0,0,.25-.09l.25-.14.25-.25a1.11,1.11,0,0,0,.2-.25l.5,0,.49,0,.54,0,.41,0a.82.82,0,0,1,.22.09l.27.14s0,.08.09.14l.14.13h.45a1,1,0,0,0,.13-.25,1,1,0,0,1,.14-.25,1,1,0,0,1,.34-.11,2.07,2.07,0,0,0,.38-.11L96,13a.56.56,0,0,0,.09-.25l.61,0,.61,0,.68,0,.5,0a1.47,1.47,0,0,1,.36.09l.36.13a1.79,1.79,0,0,0,.27.18,4,4,0,0,1,.45.32,4.06,4.06,0,0,0,.45.32,2,2,0,0,1,.27.18l.34.09.38.13a.55.55,0,0,1,.25.09l.25.13.94-.95a.5.5,0,0,0,.22.18.32.32,0,0,0,.27,0s.1-.06.23-.18a1.27,1.27,0,0,0,.23-.27,6.39,6.39,0,0,0,.27-.74l.23-.7c0-.06,0-.2,0-.43s0-.4,0-.52,0-.23,0-.43,0-.31,0-.34a3.16,3.16,0,0,0-.47-.47,3,3,0,0,1-.47-.47,1,1,0,0,1-.27-.34l-.22-.38a.82.82,0,0,0-.25-.11.75.75,0,0,1-.25-.11c-.12-.15-.2-.22-.23-.22a.81.81,0,0,0-.25-.16l-.25-.11-.59-.09a3.37,3.37,0,0,1-.58-.14s-.08,0-.13-.11-.11-.11-.14-.11a3.11,3.11,0,0,0-.52-.13l-.65-.14a3.05,3.05,0,0,1-.43,0l-.59-.09-.56-.07-.36,0H96a.69.69,0,0,1-.22-.11.61.61,0,0,0-.27-.11l-.45,0-.27,0-.23,0a.7.7,0,0,0-.22.11.69.69,0,0,1-.23.11l-.49,0-.83.09L92,6.92l-.49,0-.32,0-.45.09-.43.09-.25,0a1.47,1.47,0,0,0-.36.09l-.61.2-.68.25a4.45,4.45,0,0,1-.52.18.81.81,0,0,0-.23.09,1.12,1.12,0,0,0-.22.13,2.08,2.08,0,0,1-.38.11,1,1,0,0,0-.34.11,1.14,1.14,0,0,0-.27.25l-.22.25a2.3,2.3,0,0,1-.47.11,2.24,2.24,0,0,0-.47.11,3,3,0,0,0-.45.41,5.46,5.46,0,0,0-.49.54,4.32,4.32,0,0,0-.41.52,5.59,5.59,0,0,0-.31.47,1.18,1.18,0,0,0-.14.34,3.23,3.23,0,0,1-.13.38s-.07.07-.2.11a.77.77,0,0,0-.25.11l-.36.36-.36.36a2.69,2.69,0,0,0-.27.36,4,4,0,0,0-.23.36,3.46,3.46,0,0,0-.14.36,1.51,1.51,0,0,0-.09.36s0,.18,0,.45,0,.48,0,.63,0,.23,0,.52,0,.47,0,.56.08,0,.14.09.09.1.09.13V18a2.06,2.06,0,0,0,.2.41c.14.24.23.42.29.54l.25.41a2.2,2.2,0,0,0,.2.31,2,2,0,0,0,.38.11,1,1,0,0,1,.34.11,1.08,1.08,0,0,1,.13.25,1,1,0,0,0,.14.25c0,.06.18.14.45.25a1.78,1.78,0,0,1,.5.25,1.23,1.23,0,0,1,.13.2.57.57,0,0,1,.09.25l.72.14.72.13h.5a2.9,2.9,0,0,1,.47-.13,3,3,0,0,0,.47-.14h.95l.31.09a1.87,1.87,0,0,1,.41.18l.61.25a3.09,3.09,0,0,0,.61.2h1.67a.8.8,0,0,1,.22.09,1.07,1.07,0,0,1,.27.18c.12.15.19.23.22.23l.23,0,.38.09.38.07.22,0,.36.14a1.19,1.19,0,0,1,.32.13,4.27,4.27,0,0,1,.58.32l.63.36a11.5,11.5,0,0,1,.95.72.36.36,0,0,1,0,.23v.54a.36.36,0,0,1,0,.23s-.07.07-.22.11-.23.08-.23.11a1,1,0,0,0-.13.25,1,1,0,0,1-.13.25,2.07,2.07,0,0,1-.32.34c-.15.14-.3.29-.45.45a5.8,5.8,0,0,1-.43.43l-.25.23a3.09,3.09,0,0,1-.63.34l-.77.34a1.41,1.41,0,0,1-.41.14l-.58.13-.58.09a3.39,3.39,0,0,0-.59.14.88.88,0,0,0-.25.11.87.87,0,0,1-.25.11,3.09,3.09,0,0,1-.54.09l-.88.07-.88.07-.59,0a.56.56,0,0,1-.09.25,1.17,1.17,0,0,1-.13.2s0,0-.14,0h0a0,0,0,0,1,0,0c-.06,0-.15-.07-.27-.22s-.2-.23-.22-.23a3.76,3.76,0,0,0-.68-.27,7.62,7.62,0,0,0-.76-.23l-.29,0-.52-.07-.54-.07-.31,0a2.18,2.18,0,0,0-.36-.11.79.79,0,0,1-.36-.16S83,28.17,82.9,28a.61.61,0,0,0-.27.11.7.7,0,0,1-.22.11l-.47,0-.74,0-.74,0-.47,0V28.2A.26.26,0,0,1,80,28s0-.07.09-.13.1-.09.14-.09a5.53,5.53,0,0,1-.72-.09l-.72-.14-.23-.27c-.12-.15-.19-.23-.22-.23l-.25,0-.29,0-.38,0-.29,0a1.45,1.45,0,0,0-.36.09l-.36.13a1,1,0,0,0-.14.23.7.7,0,0,0-.09.27,3.83,3.83,0,0,0-.14.65q-.09.56-.13.79v.45l.11.14a.44.44,0,0,0,.16.13,2.76,2.76,0,0,0,.36.23,2.88,2.88,0,0,1,.36.23,2.14,2.14,0,0,1,.11.38,1,1,0,0,0,.11.34,1.91,1.91,0,0,0,.34.36l.38.36a1,1,0,0,0,.25.14,1.07,1.07,0,0,1,.25.13v.23l-.14.13c-.06.06-.11.09-.14.09L74.26,34.5s0,.07-.09.11l-.13.11-.36.14a1.46,1.46,0,0,1-.36.09l-.25.14-.25.14c-.12.15-.2.23-.23.23a1.16,1.16,0,0,1-.34.13,1.73,1.73,0,0,1-.38.09l-.25.14-.25.13-.22.23a2.51,2.51,0,0,1-.38.27,2.67,2.67,0,0,0-.34.23H70a1.15,1.15,0,0,1-.18-.47,2.75,2.75,0,0,1-.09-.52l.49-.45a1,1,0,0,1,.34-.27l.38-.23.27-.27c.12-.12.18-.19.18-.23s0,0,0-.09V34c0-.15,0-.22,0-.22s-.13-.11-.31-.16a2,2,0,0,1-.36-.11H67.55a.27.27,0,0,1-.25,0,.49.49,0,0,1-.2-.18,2.77,2.77,0,0,1,0-.36,1.07,1.07,0,0,1,0-.2.92.92,0,0,0,0-.16c0-.06.13-.22.31-.47a2.05,2.05,0,0,1,.41-.47,2,2,0,0,1,.47-.27l.47-.23.36-.22.36-.23a1,1,0,0,1,.25-.14,1,1,0,0,0,.25-.13l.36-.23L70.7,30l.14-.13c.06-.06.09-.11.09-.14s0-.22,0-.47a1.24,1.24,0,0,1,0-.47,1.26,1.26,0,0,1,.18-.32l.27-.41.25-.22.25-.23a.06.06,0,0,0,0-.09.13.13,0,0,1,0-.09l-.47,0-.43,0a.89.89,0,0,0-.25.11,1.45,1.45,0,0,0-.25.16,2.06,2.06,0,0,1-.36.11,2.14,2.14,0,0,0-.36.11h-.23a1,1,0,0,1-.14-.23.69.69,0,0,1-.09-.27l0-.09a.34.34,0,0,1,0-.13,3.15,3.15,0,0,1,.56-.63l.61-.59a2.12,2.12,0,0,1,.38-.11,1,1,0,0,0,.34-.11s.05,0,.07-.13a1.61,1.61,0,0,0,0-.23,1.69,1.69,0,0,0,0-.18.37.37,0,0,0-.07-.18,2.11,2.11,0,0,1-.45.27,4.82,4.82,0,0,1-.5.23l-.49,0-.63,0-.45,0-.36,0-.45-.5.94-.95.14-.25a.56.56,0,0,0,.09-.25s0-.08,0-.16a.55.55,0,0,1,0-.2,1.6,1.6,0,0,1-.34-.07.55.55,0,0,0-.34,0,1.38,1.38,0,0,0-.34.23,1,1,0,0,1-.38.23l-.32,0-.22,0-.18,0-.23-.23V23l.25-.41a.88.88,0,0,1,.25-.31,2,2,0,0,1,.47-.27l.47-.23.36-.23a2.75,2.75,0,0,0,.36-.27l.5-.36a5.55,5.55,0,0,0,.45-.36s.07,0,.13-.09l.14-.14h-.5c-.12,0-.34.07-.65.11a2.81,2.81,0,0,0-.56.11.61.61,0,0,0-.2.09,2,2,0,0,1-.36.16,2.82,2.82,0,0,0-.38.16.78.78,0,0,1-.22.09l-.18,0-.22,0-.31,0a1.58,1.58,0,0,1-.29-.22c-.13-.12-.2-.21-.2-.27a1.56,1.56,0,0,1,.22-.47l.27-.47a2.27,2.27,0,0,1,.09-.34,3,3,0,0,1,.14-.38l.22-.23a1.23,1.23,0,0,1,.27-.22,1,1,0,0,1,.22-.13,1,1,0,0,0,.22-.14L68,18a2.37,2.37,0,0,0,.32-.2l.49-.5a.27.27,0,0,0,0-.25.59.59,0,0,1-.09-.2l-.09,0-.65.14-.85.16-.77.14-.38.07a.55.55,0,0,0-.25.09,1.09,1.09,0,0,0-.2.13V14.87l.36-.36.36-.36v-.72a3.36,3.36,0,0,1-.14-.36,3.41,3.41,0,0,0-.13-.36,1.29,1.29,0,0,0-.23-.27l-.22-.22-.38,0c-.19,0-.31,0-.34,0s-.07,0-.14-.09L64.45,12c0-.15,0-.23,0-.23s0-.07-.09-.13l-.13-.14.36-.36.36-.36a.51.51,0,0,1,.23,0,.65.65,0,0,1,.27,0,5.07,5.07,0,0,1,.07-.58,1.65,1.65,0,0,1,.16-.59s.07-.1.2-.23l.29-.27a2.63,2.63,0,0,1,.36-.27,1.24,1.24,0,0,1,.32-.18.83.83,0,0,1,.27-.11l.47-.16L68,8.23l.25-.07s.08,0,.14-.11.11-.11.14-.11a2.16,2.16,0,0,1,.58-.27l.59-.23A.89.89,0,0,0,70,7.33a.9.9,0,0,1,.25-.11.8.8,0,0,1,.36-.16,2.06,2.06,0,0,0,.36-.11l.95-.13q.72-.09.95-.09A1.28,1.28,0,0,1,73,6.45a1.24,1.24,0,0,1,.27-.22l.22,0,.38-.07L74.3,6l.23,0L75,5.75l.47-.25.34-.09.38-.13c.12-.15.2-.23.23-.23l.36-.14.36-.14.27,0,.45-.07.45-.09.27,0a.69.69,0,0,0,.22-.11.6.6,0,0,1,.27-.11,1,1,0,0,0,.25-.09,3.35,3.35,0,0,1,.45-.16,3.11,3.11,0,0,0,.45-.16,1,1,0,0,1,.25-.09.6.6,0,0,0,.27-.11A.71.71,0,0,1,81,3.61a3.1,3.1,0,0,1,.45-.13,2.61,2.61,0,0,1,.5-.09l.27,0,.47-.09.45-.09.25,0A.89.89,0,0,0,83.6,3a.89.89,0,0,1,.25-.11h.94s.07,0,.13.09.09.1.09.13a1,1,0,0,1,.16.47,4.12,4.12,0,0,0,.11.51h.22A1.22,1.22,0,0,0,85.78,4l.45-.16.45-.16A1.26,1.26,0,0,1,87,3.61l.52-.07.92-.16.92-.15a2.55,2.55,0,0,0,.52-.11A.71.71,0,0,0,90.05,3a.72.72,0,0,1,.23-.11l.65-.13.56-.09.52,0,.7,0,.59,0,.58,0s.07,0,.13.09l.14.13a1,1,0,0,0,.09.24,1,1,0,0,0,.14.24l.45.44L95,3.73l.14-.11.25-.13a.63.63,0,0,1,.2-.09,3.61,3.61,0,0,1,.61-.14,3.39,3.39,0,0,0,.61-.14.87.87,0,0,0,.36-.22.87.87,0,0,1,.36-.22,6.37,6.37,0,0,1,.77-.11l.63-.07.5-.09h.27a1,1,0,0,0,.22.13,1.13,1.13,0,0,1,.23.14h3.15l.34.35.34.35h.27l.68-.14a1.73,1.73,0,0,0,.49-.14s.08,0,.14-.11.1-.11.14-.11l.63-.05.54.05a1.05,1.05,0,0,1,.27.34l.23.38a1.8,1.8,0,0,0,.36.36,1.85,1.85,0,0,1,.36.36,1.8,1.8,0,0,0,.09.31l.14.4v.23s.07.1.22.22a.19.19,0,0,1,0,.13v.27c0,.06,0,.09,0,.09a2,2,0,0,1-.32.36l-.36.36a1.87,1.87,0,0,1-.5.22l-.14.14c-.06.06-.09.1-.09.13a0,0,0,0,0,0,0v0c0,.09,0,.13,0,.13l.36-.13a1.48,1.48,0,0,1,.36-.09,1.08,1.08,0,0,1,.45,0h1.08a.75.75,0,0,1,.36,0l.22.23a1.74,1.74,0,0,1,.47-.25,3.29,3.29,0,0,0,.52-.25h.23l.54-.11a1.22,1.22,0,0,0,.41-.11s.08,0,.14-.11.1-.11.14-.11a1.79,1.79,0,0,1,.49-.07l.5,0c0,.18,0,.28,0,.32a1,1,0,0,1-.23.25l-.27.25a.79.79,0,0,0-.22.09,1,1,0,0,0-.22.13s-.08,0-.14.11-.1.11-.14.11a1,1,0,0,1-.23.14,1,1,0,0,0-.22.13s-.08,0-.14.11-.11.11-.14.11l-.58.23a2.19,2.19,0,0,0-.59.27s-.08,0-.14.09l-.13.13-.47.22-.47.22a2,2,0,0,1-.36.25,1.9,1.9,0,0,0-.36.25l-.23.23a.3.3,0,0,0,0,.25.75.75,0,0,1,.07.2l.18,0,.18,0,.79-.11a3.25,3.25,0,0,0,.65-.11l.27-.16a.7.7,0,0,1,.23-.11,1,1,0,0,1,.25.23l.25.27v.5l-.11.14a.19.19,0,0,1-.16.09h3a.58.58,0,0,1,0,.13c0,.06,0,.09-.07.09a1.17,1.17,0,0,1-.25.27L113,12a1,1,0,0,1-.09.25,1,1,0,0,1-.14.25,1,1,0,0,1-.34.11,2.23,2.23,0,0,0-.38.11,3.47,3.47,0,0,1-.49.25,1.74,1.74,0,0,0-.45.25s-.08,0-.14.09-.09.11-.09.13,0,.08.09.13.11.09.14.09l.45,0,.49,0a2.53,2.53,0,0,0,.47-.11,2.59,2.59,0,0,1,.47-.11h.27s.07,0,.13.09.09.1.09.13v.27l-.36.34-.36.34a1,1,0,0,1-.22.13,1,1,0,0,0-.22.14l-.38.25a1.4,1.4,0,0,1-.34.2,3,3,0,0,1-.5.13,3,3,0,0,0-.49.13,3.53,3.53,0,0,0-.41.18l-.59.29-.56.29-.34.18a2,2,0,0,0-.36.34l-.36.38s0,.08.09.14l.43.07a.85.85,0,0,0,.43,0,.89.89,0,0,0,.25-.11.89.89,0,0,1,.25-.11.85.85,0,0,1,.38-.16l.34-.07q.36,0,1.53-.09v.81h2.66a1.26,1.26,0,0,1,0,.22.56.56,0,0,1-.09.23,1,1,0,0,1-.23.13l-.27.13-.22,0c-.12,0-.2,0-.23,0s-.15.07-.27.2l-.23.25a2.89,2.89,0,0,1-.34.22,2.45,2.45,0,0,0-.38.27l-.25.13a.61.61,0,0,1-.2.09,1.06,1.06,0,0,0-.29.07l-.45.16-.45.16a.8.8,0,0,0-.25.11,1.12,1.12,0,0,0-.25.2l-.25.25a.32.32,0,0,0,0,.14.35.35,0,0,1,0,.13h2.88a1.31,1.31,0,0,1,0,.23,1.3,1.3,0,0,0,0,.23l-.25.49-.25.49v.23l.14.4a1.05,1.05,0,0,0,.14.32s.06.1.18.2l.27.25a2.4,2.4,0,0,0,.38.27l.34.22a1.31,1.31,0,0,1,0,.23.49.49,0,0,1,0,.16.38.38,0,0,0,0,.11,1,1,0,0,1-.23.25,1.53,1.53,0,0,1-.27.2v1.71a.69.69,0,0,1,.27.09,1.07,1.07,0,0,1,.23.13.4.4,0,0,1,.16.23.86.86,0,0,1,.07.27,1.47,1.47,0,0,1-.22.45s0,.08-.09.14-.1.09-.13.09a2.77,2.77,0,0,1-.36.27l-.36.22H113a1.47,1.47,0,0,1,.38.11,1.87,1.87,0,0,0,.34.11s.11,0,.25,0l.25,0,.25.14.25.13-.25.25a1.1,1.1,0,0,1-.25.2,1,1,0,0,1-.25.14,1,1,0,0,0-.25.13.56.56,0,0,0-.2.11,3.39,3.39,0,0,1-.36.23l-.38.22-.22.16-.27.13a.78.78,0,0,1-.23.09,1.91,1.91,0,0,0-.36.07l-.59.16-.61.16a1,1,0,0,0-.34.11.9.9,0,0,0-.25.11.88.88,0,0,1-.25.11h-.23a.89.89,0,0,0-.25.11.9.9,0,0,1-.25.11s-.07,0-.14-.09-.09-.1-.09-.13a4.57,4.57,0,0,1-.45.49,4.35,4.35,0,0,1-.49.45,3.44,3.44,0,0,1-.61.14l-.61.09-.36.13-.36.14a.88.88,0,0,0-.25.11.88.88,0,0,1-.25.11l-.58.25-.59.25a.88.88,0,0,0-.25.11.88.88,0,0,1-.25.11,1.15,1.15,0,0,1-.34.13,1.74,1.74,0,0,1-.38.09l-.47.25-.47.25-.36.14a1.48,1.48,0,0,1-.36.09l-.47.25-.47.25-.61.22a2.23,2.23,0,0,0-.61.27s-.11.08-.22.22l-.38.14-.34.09-.45.23L97,37l-.74.38-.43.23a1.68,1.68,0,0,0-.38.09,1.12,1.12,0,0,0-.34.13,4.61,4.61,0,0,0-1.1.61,5.06,5.06,0,0,1-1.06.61,2.6,2.6,0,0,0-.45.09l-.5.13h-.27L91.5,39l-.14-.24a.53.53,0,0,1-.09-.24ZM106.57,3.84h.22V3.61Z"/><path class="cls-1" d="M2.66,66.17V55.78h1V66.17Z"/><path class="cls-1" d="M11.89,64.93A3.18,3.18,0,0,1,10.62,66a3.94,3.94,0,0,1-1.72.38A3.82,3.82,0,0,1,6,65.19a4.28,4.28,0,0,1,0-5.85A3.94,3.94,0,0,1,9,58.15a3.74,3.74,0,0,1,1.66.37,3.3,3.3,0,0,1,1.25,1.05V58.31h1v7.86h-1Zm0-2.74A3.06,3.06,0,0,0,11,60a2.75,2.75,0,0,0-2-.93A2.84,2.84,0,0,0,6.81,60a3.23,3.23,0,0,0-.88,2.31,3.06,3.06,0,0,0,.88,2.22,2.85,2.85,0,0,0,2.12.9,2.75,2.75,0,0,0,2.08-1A3.26,3.26,0,0,0,11.89,62.19Z"/><path class="cls-1" d="M14.45,58.31h1v.9a2.89,2.89,0,0,1,1.07-.8,3.82,3.82,0,0,1,2.92.06,2.56,2.56,0,0,1,1.06.92,2.91,2.91,0,0,1,.39,1A9,9,0,0,1,21,62.06v4.1H20v-4.4a3.12,3.12,0,0,0-.53-2,2.09,2.09,0,0,0-1.69-.63,2.49,2.49,0,0,0-1.19.28,2,2,0,0,0-.81.79,2.27,2.27,0,0,0-.26.73,9.26,9.26,0,0,0-.07,1.43v3.82h-1Z"/><path class="cls-1" d="M23.89,66.82a2,2,0,0,0,.82,1.06,2.63,2.63,0,0,0,1.45.38,2.74,2.74,0,0,0,2.14-.89A3.42,3.42,0,0,0,29.1,65v-.21A4,4,0,0,1,27.81,66a3.28,3.28,0,0,1-1.59.39,3.93,3.93,0,0,1-2.92-1.18,4.29,4.29,0,0,1,0-5.86,4.09,4.09,0,0,1,4.55-.82,3.54,3.54,0,0,1,1.27,1.12v-1.3h1v6.57a4.66,4.66,0,0,1-1,3.2,3.59,3.59,0,0,1-2.83,1.15,3.91,3.91,0,0,1-2.28-.66,3,3,0,0,1-1.23-1.76Zm-.7-4.64a3.25,3.25,0,0,0,.87,2.31,2.77,2.77,0,0,0,4.14,0,3.08,3.08,0,0,0,.89-2.19A3.27,3.27,0,0,0,28.21,60a2.7,2.7,0,0,0-2.06-1,2.8,2.8,0,0,0-2.09.9A3.08,3.08,0,0,0,23.19,62.19Z"/><path class="cls-1" d="M31.59,58.31h1v4.17a3.8,3.8,0,0,0,.52,2.27,2,2,0,0,0,1.7.67A2.46,2.46,0,0,0,36,65.15a2.12,2.12,0,0,0,.82-.8,2.28,2.28,0,0,0,.26-.72,9.1,9.1,0,0,0,.08-1.45V58.31h1v7.86h-1v-.85a2.78,2.78,0,0,1-1,.81,3.33,3.33,0,0,1-1.36.25,3,3,0,0,1-2.44-.92,4.86,4.86,0,0,1-.75-3Z"/><path class="cls-1" d="M46.34,64.93A3.19,3.19,0,0,1,45.07,66a3.94,3.94,0,0,1-1.72.38,3.82,3.82,0,0,1-2.86-1.18,4.28,4.28,0,0,1,0-5.85,3.94,3.94,0,0,1,2.92-1.18,3.75,3.75,0,0,1,1.66.37,3.3,3.3,0,0,1,1.25,1.05V58.31h1v7.86h-1Zm0-2.74A3.06,3.06,0,0,0,45.45,60a2.75,2.75,0,0,0-2-.93,2.84,2.84,0,0,0-2.14.93,3.23,3.23,0,0,0-.88,2.31,3.06,3.06,0,0,0,.88,2.22,2.85,2.85,0,0,0,2.12.9,2.75,2.75,0,0,0,2.08-1A3.26,3.26,0,0,0,46.34,62.19Z"/><path class="cls-1" d="M50.23,66.82a2,2,0,0,0,.82,1.06,2.63,2.63,0,0,0,1.44.38,2.74,2.74,0,0,0,2.14-.89,3.42,3.42,0,0,0,.8-2.38v-.21A4,4,0,0,1,54.15,66a3.28,3.28,0,0,1-1.59.39,3.93,3.93,0,0,1-2.92-1.18,4.29,4.29,0,0,1,0-5.86,4.09,4.09,0,0,1,4.55-.82,3.54,3.54,0,0,1,1.27,1.12v-1.3h1v6.57a4.66,4.66,0,0,1-1,3.2,3.59,3.59,0,0,1-2.83,1.15,3.91,3.91,0,0,1-2.28-.66,3,3,0,0,1-1.23-1.76Zm-.7-4.64a3.25,3.25,0,0,0,.87,2.31,2.77,2.77,0,0,0,4.14,0,3.08,3.08,0,0,0,.89-2.19A3.27,3.27,0,0,0,54.55,60a2.7,2.7,0,0,0-2.06-1,2.8,2.8,0,0,0-2.09.9A3.08,3.08,0,0,0,49.53,62.19Z"/><path class="cls-1" d="M65.63,62.58h-7a3,3,0,0,0,.92,2.06,2.9,2.9,0,0,0,2.07.79A2.86,2.86,0,0,0,63.17,65a3,3,0,0,0,1.09-1.26h1.13a4.49,4.49,0,0,1-1.52,2,3.8,3.8,0,0,1-2.26.69,3.85,3.85,0,0,1-2.88-1.22,4.31,4.31,0,0,1,0-5.89,4,4,0,0,1,2.95-1.17,3.7,3.7,0,0,1,2.87,1.22,4.54,4.54,0,0,1,1.11,3.17Zm-1.11-.88a3.53,3.53,0,0,0-1-2,2.9,2.9,0,0,0-2-.66,2.76,2.76,0,0,0-1.92.71,3.11,3.11,0,0,0-1,1.93Z"/><path class="cls-1" d="M70.39,63.68h1v0a1.82,1.82,0,0,0,.41,1.22,1.3,1.3,0,0,0,1,.48,1.34,1.34,0,0,0,1-.37,1.25,1.25,0,0,0,.39-.94,1.32,1.32,0,0,0-.31-.91,2.83,2.83,0,0,0-1.11-.64,4,4,0,0,1-1.69-.95,2,2,0,0,1-.4-1.3,2.1,2.1,0,0,1,.66-1.56,2.21,2.21,0,0,1,1.6-.64,2.17,2.17,0,0,1,1.58.57,2.27,2.27,0,0,1,.63,1.6H74.14a1.28,1.28,0,0,0-.35-.87,1.18,1.18,0,0,0-.86-.31,1.09,1.09,0,0,0-.81.33,1.13,1.13,0,0,0-.33.82,1.19,1.19,0,0,0,.13.59,1.25,1.25,0,0,0,.45.43,3.47,3.47,0,0,0,.82.34q.54.16.73.24A2.35,2.35,0,0,1,75,62.7,2.38,2.38,0,0,1,75.33,64a2.21,2.21,0,0,1-.7,1.68,2.48,2.48,0,0,1-1.78.66,2.28,2.28,0,0,1-1.76-.73A2.92,2.92,0,0,1,70.39,63.68Z"/><path class="cls-1" d="M82.77,60.73a3.24,3.24,0,0,0-1.12-1.26,2.93,2.93,0,0,0-1.57-.41A2.66,2.66,0,0,0,78,60a3.25,3.25,0,0,0-.84,2.27A3.2,3.2,0,0,0,78,64.51a2.72,2.72,0,0,0,2.08.91,2.87,2.87,0,0,0,1.6-.45,2.84,2.84,0,0,0,1.05-1.27h1.11a4,4,0,0,1-1.43,2,4,4,0,0,1-5.15-.51,4.25,4.25,0,0,1,0-5.87,3.87,3.87,0,0,1,2.88-1.21,3.77,3.77,0,0,1,2.24.69,4.12,4.12,0,0,1,1.45,1.93Z"/><path class="cls-1" d="M85.32,55.78h1v3.46a2.78,2.78,0,0,1,1-.81,3.25,3.25,0,0,1,1.35-.27,2.86,2.86,0,0,1,2.39.95,5,5,0,0,1,.75,3.08v4h-1v-4a4.07,4.07,0,0,0-.51-2.37,2,2,0,0,0-1.7-.67,2.47,2.47,0,0,0-1.19.28,2,2,0,0,0-.81.79,2.28,2.28,0,0,0-.26.73,9.31,9.31,0,0,0-.07,1.43v3.82h-1Z"/><path class="cls-1" d="M93,62.25a4.12,4.12,0,0,1,1.18-3A3.74,3.74,0,0,1,97,58.06a4.1,4.1,0,0,1,4.09,4.09,4.22,4.22,0,0,1-1.17,3,3.76,3.76,0,0,1-2.84,1.24,3.84,3.84,0,0,1-2.87-1.22A4.06,4.06,0,0,1,93,62.25Zm1.06,0a3.21,3.21,0,0,0,.86,2.27,2.79,2.79,0,0,0,2.13.92,2.75,2.75,0,0,0,2.1-.92,3.24,3.24,0,0,0,.85-2.29,3.17,3.17,0,0,0-.86-2.29A2.9,2.9,0,0,0,97,59a2.69,2.69,0,0,0-2,.92A3.22,3.22,0,0,0,94.09,62.23Z"/><path class="cls-1" d="M101.83,62.25a4.12,4.12,0,0,1,1.18-3,3.74,3.74,0,0,1,2.79-1.23,4.1,4.1,0,0,1,4.09,4.09,4.22,4.22,0,0,1-1.17,3,3.76,3.76,0,0,1-2.84,1.24A3.84,3.84,0,0,1,103,65.18,4.06,4.06,0,0,1,101.83,62.25Zm1.06,0a3.21,3.21,0,0,0,.86,2.27,2.79,2.79,0,0,0,2.13.92,2.75,2.75,0,0,0,2.1-.92,3.24,3.24,0,0,0,.85-2.29,3.17,3.17,0,0,0-.86-2.29,2.9,2.9,0,0,0-2.18-.9,2.69,2.69,0,0,0-2,.92A3.22,3.22,0,0,0,102.89,62.23Z"/><path class="cls-1" d="M111.06,66.17V55.78h1V66.17Z"/><path class="cls-1" d="M2.66,56V45h4V56Z"/><path class="cls-1" d="M8.76,56V48.21h3.67v1.08a3.38,3.38,0,0,1,1.08-1A2.72,2.72,0,0,1,14.84,48a2.59,2.59,0,0,1,2,.75,2.85,2.85,0,0,1,.72,2.06V56H13.76V52.06a1.82,1.82,0,0,0-.12-.8.44.44,0,0,0-.42-.22.57.57,0,0,0-.5.26,1.36,1.36,0,0,0-.17.76V56Z"/><path class="cls-1" d="M19.77,56V51.07H18.69V48.21h1.08V45.64h3.77v2.57h1.08v2.86H23.53V56Z"/><path class="cls-1" d="M34.57,52.7H29.22v.12a1.55,1.55,0,0,0,.21.91.75.75,0,0,0,.65.3.7.7,0,0,0,.46-.16,1.07,1.07,0,0,0,.31-.47l3.49.24a3.7,3.7,0,0,1-1.58,2,5.15,5.15,0,0,1-2.74.69A5.07,5.07,0,0,1,28.33,56a4.43,4.43,0,0,1-1.41-.8,4.26,4.26,0,0,1-1.07-1.41,3.94,3.94,0,0,1,0-3.37A4.19,4.19,0,0,1,26.92,49a4.31,4.31,0,0,1,1.4-.8A5.13,5.13,0,0,1,30,48a4.92,4.92,0,0,1,2.24.5,4.4,4.4,0,0,1,1.65,1.45A3.64,3.64,0,0,1,34.42,51a4.64,4.64,0,0,1,.17,1.29c0,.12,0,.21,0,.27S34.58,52.65,34.57,52.7ZM29.25,51H31a1,1,0,0,0-.23-.67.81.81,0,0,0-.61-.22.78.78,0,0,0-.58.23A1.13,1.13,0,0,0,29.25,51Z"/><path class="cls-1" d="M35.92,56V48.21h3.67V49.3a3.43,3.43,0,0,1,1.09-1A2.69,2.69,0,0,1,42,48h.27v3.77a3.26,3.26,0,0,0-.58-.26,1.62,1.62,0,0,0-.48-.08,1.52,1.52,0,0,0-1.12.39,1.48,1.48,0,0,0-.39,1.1V56Z"/><path class="cls-1" d="M43.58,56V48.21h3.67v1.08a3.38,3.38,0,0,1,1.08-1A2.72,2.72,0,0,1,49.66,48a2.59,2.59,0,0,1,2,.75,2.85,2.85,0,0,1,.72,2.06V56H48.58V52.06a1.82,1.82,0,0,0-.12-.8A.44.44,0,0,0,48,51a.57.57,0,0,0-.5.26,1.36,1.36,0,0,0-.17.76V56Z"/><path class="cls-1" d="M59.46,56V54.82a4.07,4.07,0,0,1-1.18,1.11,2.68,2.68,0,0,1-1.36.36,2.73,2.73,0,0,1-2.25-1.15,4.7,4.7,0,0,1-.89-3,5,5,0,0,1,.87-3.05A2.71,2.71,0,0,1,56.92,48a2.77,2.77,0,0,1,1.31.31,3.43,3.43,0,0,1,1.1,1v-1h3.61V56Zm-2.07-3.91a1.18,1.18,0,0,0,.27.81,1,1,0,0,0,1.42,0,1.19,1.19,0,0,0,.27-.81,1.22,1.22,0,0,0-.27-.83,1,1,0,0,0-1.42,0A1.22,1.22,0,0,0,57.39,52.08Z"/><path class="cls-1" d="M65.18,56V51.07H64.1V48.21h1.08V45.64h3.77v2.57H70v2.86H68.95V56Z"/><path class="cls-1" d="M75.26,45.78a1.7,1.7,0,0,1-.55,1.33,2.13,2.13,0,0,1-1.48.49,2.16,2.16,0,0,1-1.5-.5,1.69,1.69,0,0,1-.56-1.33,1.64,1.64,0,0,1,.55-1.31,2.21,2.21,0,0,1,1.5-.48,2.17,2.17,0,0,1,1.49.48A1.65,1.65,0,0,1,75.26,45.78ZM71.34,56V48.21h3.77V56Z"/><path class="cls-1" d="M85.68,52.12a3.88,3.88,0,0,1-.38,1.68A4.28,4.28,0,0,1,82.84,56a5.39,5.39,0,0,1-3.39,0A4.3,4.3,0,0,1,78,55.2,4.09,4.09,0,0,1,77,53.81a4,4,0,0,1,0-3.38A4.19,4.19,0,0,1,78,49a4.31,4.31,0,0,1,1.41-.8,5.39,5.39,0,0,1,3.39,0,4.44,4.44,0,0,1,1.41.8,4.1,4.1,0,0,1,1.06,1.39A4,4,0,0,1,85.68,52.12Zm-4.54,1.07a.82.82,0,0,0,.66-.3,1.32,1.32,0,0,0,0-1.55.82.82,0,0,0-.66-.29.83.83,0,0,0-.67.29,1.34,1.34,0,0,0,0,1.56A.83.83,0,0,0,81.14,53.19Z"/><path class="cls-1" d="M87.11,56V48.21h3.67v1.08a3.38,3.38,0,0,1,1.08-1A2.72,2.72,0,0,1,93.2,48a2.59,2.59,0,0,1,2,.75,2.85,2.85,0,0,1,.72,2.06V56H92.12V52.06a1.82,1.82,0,0,0-.12-.8.44.44,0,0,0-.42-.22.57.57,0,0,0-.5.26,1.36,1.36,0,0,0-.17.76V56Z"/><path class="cls-1" d="M103,56V54.82a4.07,4.07,0,0,1-1.18,1.11,2.68,2.68,0,0,1-1.36.36,2.73,2.73,0,0,1-2.25-1.15,4.7,4.7,0,0,1-.89-3,5,5,0,0,1,.87-3.05A2.71,2.71,0,0,1,100.45,48a2.78,2.78,0,0,1,1.31.31,3.43,3.43,0,0,1,1.1,1v-1h3.61V56Zm-2.07-3.91a1.19,1.19,0,0,0,.27.81,1,1,0,0,0,1.42,0,1.19,1.19,0,0,0,.26-.81,1.22,1.22,0,0,0-.27-.83,1,1,0,0,0-1.42,0A1.23,1.23,0,0,0,100.92,52.08Z"/><path class="cls-1" d="M108.29,56V44.33h3.77V56Z"/></g></g></svg>