<?xml version="1.0" encoding="utf-8"?>
<!-- Generator: Adobe Illustrator 22.0.1, SVG Export Plug-In . SVG Version: 6.00 Build 0)  -->
<svg version="1.1" id="Слой_1" xmlns="http://www.w3.org/2000/svg" xmlns:xlink="http://www.w3.org/1999/xlink" x="0px" y="0px"
	 viewBox="0 0 276.9 331.7" style="enable-background:new 0 0 276.9 331.7;" xml:space="preserve">
<style type="text/css">
	.st0{fill:#009C53;}
	.st1{fill:#F2EFA3;}
	.st2{fill:#CAE977;}
	.st3{fill:#B1C73C;}
</style>
<g>
	<path class="st3" d="M189.4,183.2c-0.2,4.5-0.6,9.1,4.8,10.9c4.6,1.5,9-1.6,13.4-2.1c-1.3-3.3-5.6-7.8-8.7-9.7
		C197,181.1,190.6,180.4,189.4,183.2z"/>
	<path class="st3" d="M220.9,142.9c1.4,2.7-0.5,7.6-1,10.4c-0.8,4-2.2,7.6-4.6,11c-3.5,5-9,7.9-14.5,10.1c-2-9.7-3-21.5,1.1-30.8
		c1.5-3.3,4-5.4,7.5-6.7c6.3-2.3,11.5,1.6,16.6,5"/>
	<path class="st3" d="M218.5,146.2c1.6,1.7,2.8,5.6,4.3,7.9c1.7,2.6,3.8,4.6,6.8,5.7c5.2,2.1,10.4,3,15.9,1.4c3.2-1,5.9-2.4,8.7-4.1
		c1.5-0.9,5.1-2.1,6.1-3.6c1.8-2.7-4.6-8.7-6.6-10.6c-4-3.9-8.2-6.4-13.7-7.9c-5.1-1.5-10.8-1.5-15.9,0.3c-2,0.7-6.5,1.5-6.3,4.4"/>
	<path class="st3" d="M220.8,172.2c-8.6,3-17.8,6-21.5,15.3c-2.9,7.4-1.7,14.4,0.1,21.7c0.8,3.3,2.1,6.4,3.7,9.3
		c16.4-4.6,28.8-23,24.9-39.7C227.1,175,223.3,171,220.8,172.2z"/>
	<path class="st3" d="M174.2,225c2.1,11.5,13.1,23.6,24.1,26.9c10.3,3.1,21.9,3.1,32-1c-9.2-13.6-18.8-26.1-34.4-32.7
		c-7.2-3-14.3-3.7-21.7-1.1"/>
	<path class="st3" d="M177.6,183c-5.7,4.4-10.7,10.4-14,16.9c-4,7.9-2.7,18.2,0.6,26.1c2,4.8,5.1,8.6,7.8,12.9
		c2.9-1.1,4.9-5.3,6.6-7.7c1.8-2.4,3.7-4.7,5.4-7.1c4.1-5.7,6.7-11.4,5.7-18.7c-0.6-4.9-2.1-10.3-5-14.3
		C183.7,189.6,179.1,184.2,177.6,183z"/>
	<path class="st3" d="M171.9,148.9c2.9,8.1,3.8,15.7,3.2,24.2c-0.6,9.3-7.7,14.8-15.3,19.2c-3.3,1.9-6.7,3.5-10.4,4.6
		c-1.4-11.1-4-22,2.9-31.9C156.5,159.1,164.4,152.7,171.9,148.9z"/>
	<path class="st3" d="M51.3,182.8c10.3-2.2,20.3-6.1,30.5-9.1c6.7-2,21.5-6.3,27.1-5.4c-2.6,3.5-4.3,7.5-6.5,11.1
		c4.6-2.4,6.9-6.4,10.6-9.6c4.8-4.2,13.6-6.3,20-7.8c17.2-3.8,33.2-8.8,49.8-13.9c-5.6,20.5-21.8,43.5-42.2,50
		c2.6-0.2,6.3-0.4,8.8-1c0.2,4.3-14,16.4-17.8,19.3c-7.6,5.7-18.5,9.3-27.9,9.5c3.4,1.7,9.7,1.3,13.8,1
		c-7.6,10.5-31.8,20.2-44.5,20.4c9,1.8,22.7-2.5,31.1-6.2c-1.6,2.8-4.1,5.6-4.2,10.3c5.3-7.8,12.7-14,19.1-20.7
		c5.7-6,12.9-11.8,18.3-16.3c-1,3.2-3.4,8.9-2.1,12.2c4.2-11.4,10.8-19.2,19.3-27.8c8.5-8.7,14.3-14.6,20.8-24.9
		c0.4,6.7-0.1,10.5,0.6,17.4c0.6,5.6-0.9,13.9-0.1,19.5c0.7,5.1-1.8,51.4,10.4,55.3c-6.9-10.4-7.8-58.1-7.5-69.3
		c0.2-5.4-2.2-18.5,0.8-23.3c5.1,2.9,7.3,11.4,13.6,12.3c-3.6-4.3-8.7-9.7-10.3-15.3c-1.9-6.7,2-12.9,4.6-18.9
		c5.7-13.6,13.5-26.4,22.6-38c7.7,15.8,7.4,33.7,10,50.6c1.8,11.5,5.5,22.1,8.1,33.3c1.6,7.3,2.8,14.5,6.5,21.2
		c2.5-6.6-1.5-15.2-3.1-21.6c-2.3-9.1-3.9-19.9-6.3-29c-2.5-9.5-2.2-15.4-4-23.6c-1.8-8.5-3.4-16.7-4.7-25.3
		c-3.5-23.1,18.5-40.9,30.9-58c5.3-7.3,9.7-15.2,14.6-22.8c4-6.1,12.5-15.6,13.8-22.8c0.5-2.6-0.4-7.5-4.3-7.4
		c-4.6,0.1-12.2,20.7-14.6,24.6c-13.3,21.8-27.5,43.2-42.7,63.7c-4.5,6.1-10,12-13.7,18.6c-3.6,6.5-6.6,13.3-10.6,19.7
		c-3.8,5.9-4.2,7.1-11.2,9.6c-8.7,3.1-23.7,9.4-32.7,11.3c-19.4,4.1-32.9,6.6-52.2,10.8c-9.3,2-18,4.2-26.9,7.4
		C62.2,175.3,45.5,177.7,51.3,182.8z"/>
	<path class="st3" d="M108.3,170.4c3.1,2.2,4.4,6.2,6.1,9.5c2.3,4.4,2.1,7.9,0.1,12.4c-4.4,9.8-15.1,14.4-24.7,17.7
		c-5.4,1.9-11.2,3-16.4,5.4c-2.4-4.8-2.7-13.2-1.7-18.3c1.4-7.1,4.4-13.9,8.9-19.5c3.3-4.1,8.2-6.9,13.1-8.7
		C98,167.4,107.3,165.8,108.3,170.4z"/>
	<path class="st3" d="M72.8,174.4c-0.5,9.3-9.5,19-17.5,22.7c-6.2,2.8-11.7,5.3-18.6,5.3c-6.9,0-12.5-0.8-18.9-3.5
		c-4.8-2-12.5-4.3-15.7-8.6c9.3-13.1,23.3-24.4,39.6-26.8c6.5-1,14.4,1,20.5,3.1C65.7,167.8,73.2,170.7,72.8,174.4z"/>
	<path class="st3" d="M86.4,163.7c0.1,0,0.2-0.1,0.2-0.1"/>
	<path class="st3" d="M86.7,163.6c-2.8,2.8-8.9,4.4-13,4c-6.2-0.5-11.5-5.3-16.1-9c-9.2-7.4-13-18.9-12.1-30.4
		c0.4-5,0.5-10.3,1.7-15.2c2.6,0.4,5.8,1.8,8.5,2.5c4.8,1.3,9.7,3,14.1,5.4c7.2,4,14,9.8,18.6,16.7c3.4,5.1,6.1,11.5,4.8,17.5
		C92.5,157.9,91,163.8,86.7,163.6z"/>
	<path class="st3" d="M135.8,155c-7.5,5.3-19.8,4.5-25.7-2.7c-4.9-6-7.5-15.5-7.8-23.1c-0.2-3.8,0.7-7.9-0.2-11.6
		c2.6-0.9,6.5,0.6,9.2,0.9c4.3,0.4,8.1,0.9,12.2,2.3c6.5,2.3,13.4,6.5,16.5,12.9C142.6,139.1,142.2,152,135.8,155z"/>
	<path class="st3" d="M178.2,141.3c-4,6.5-15.6-0.4-19.2-4.1c-2.1-2.2-4.5-4.7,0.1-5.5c3.9-0.7,7.8,1.4,11,3.4
		C172.7,136.8,175.5,140.2,178.2,141.3z"/>
	<path class="st3" d="M150.8,195.4c-1.2,4.1-9,6.1-12.8,7c-4.3,1-8.6-0.2-12.5-2.3c-9.4-5.1-13.8-13.8-20.1-22
		c6.6-6.9,19.2-6,27.2-2.2C141.1,179.9,146.3,186.7,150.8,195.4z"/>
	<path class="st3" d="M137.8,219c5.8,9.7,13,18.1,12.6,30.1c-0.4,11.5-10.1,18.7-18.4,25.2c-6-4.6-9.3-11.9-11.8-18.9
		c-1.9-5.5-3.7-12.2-2.2-18C119.8,230,128.2,219.3,137.8,219z"/>
	<path class="st3" d="M112.9,225.3c-7.2,7.8-22,15.5-32.7,11.2c-10-4-19-10.5-24.5-19.7c2.2-1.1,3.9-3.3,6.1-4.6
		c3.1-1.8,6.7-2.9,10.1-4c7.1-2.2,15.1-1.2,22.2,0.8c4.8,1.3,9.6,3.7,13.4,7c1.2,1.1,2.6,2.2,3.6,3.5
		C112.3,220.9,112.8,223.2,112.9,225.3z"/>
	<path class="st3" d="M104.9,242.7c-10.5,3.7-18.7,9-24.4,18.5c-4.7,7.7-4.5,15.7-3.1,24.2c0.4,2.5,2.6,17.6,5.8,18.1
		c1.2,0.2,6.6-4.1,7.8-4.8c3.7-2.2,7.1-4.9,10.4-7.8c4.7-4.1,8.6-11,10.8-16.9C115.8,264,112,250.8,104.9,242.7z"/>
	<path class="st3" d="M85.2,246.4c-10.7-5.1-20.5-9.6-32.6-7.9c-8.1,1.1-16.2,6.1-21.6,12.1c-2.5,2.8-4.8,6.4-6.8,9.7
		c-1.5,2.4-3.9,6-1.8,8.2c1.4,1.5,4.8,2.5,6.6,3.5c3.6,1.9,7.4,3.2,11.4,4.1c7.9,1.9,16.4,1.3,23.5-2.9
		C73.2,267.7,83.7,256.8,85.2,246.4z"/>
	<path class="st3" d="M177.2,236.7c3.4,1.2,1.6,20.5,1,23.3c-2.8,12.5-9.3,22.1-21.4,27.3c-5.2,2.2-10.7,4.2-16.2,5.9
		c-5.8-11.6-3.5-31,4-41.2c4.9-6.7,11.8-11.8,19.6-14.5C168.9,235.8,173.3,235.4,177.2,236.7z"/>
	<path class="st3" d="M156.8,192.9c0.5,6,4,11.6,4.4,17.7c0.5,6.1-2,12.8-6,17.3c-5.6-3.8-8-10.8-6.6-17.1
		C149.8,205.7,153.3,196.5,156.8,192.9z"/>
	<path class="st3" d="M180,279.7c-5.3,1.8-10.6,3.8-15.4,6.7c-5.7,3.4-9.1,9.5-11.5,15.5c-3.9,9.8-6,18.5-2,28.6
		c2.7-0.7,5.1-2.2,7.5-3.5c3.1-1.7,6.6-3,9.3-5.3c4.8-4,9.4-8.8,12.5-14.2c2.7-4.5,6.2-10.7,5.8-16.2
		C185.9,287.6,183,282.6,180,279.7z"/>
	<path class="st3" d="M182.1,263.2c-6,8.6,0.4,19.9,6.1,26.6c5.6,6.6,12.4,12,20.2,15.8c3.6,1.7,7.8,4.1,11.7,4.9
		c4,0.8,3.6-3.6,3.5-7c-0.4-13.5-5.2-27.4-15.9-36c-4.6-3.7-9.8-7.1-15.8-7.4c-1.6-0.1-3.7,0.2-5.3,0.7
		C184.6,261.4,184.4,262.7,182.1,263.2z"/>
	<path class="st3" d="M232,208.8c-5.9,1.7-11.2,13.6-11,19.3c0.2,6.7,1.9,14.3,4.8,20.3c1.5,3,3.7,5.8,5.6,8.5c1,1.4,3,5.8,4.8,6.1
		c2.7,0.5,6.7-8.7,7.9-11.1c2.3-4.5,3.9-9.2,3.9-14.3c0-6.8-2.7-15.2-6.6-20.9C240.3,214.9,234.8,208.6,232,208.8z"/>
	<path class="st3" d="M227.1,186.1c0.3,7.4,8.4,13.4,15,15.4c6.8,2.1,13.7,0.3,20.2-1.9c3.6-1.2,11.2-5.3,11-9.8
		c-0.2-3.9-7.5-7.5-10.3-9c-5-2.7-10.6-3.9-16.3-4.6C242.9,175.7,225.3,174.6,227.1,186.1z"/>
</g>
</svg>
