<?xml version="1.0" encoding="utf-8"?>
<!-- Generator: Adobe Illustrator 22.0.1, SVG Export Plug-In . SVG Version: 6.00 Build 0)  -->
<svg version="1.1" id="Слой_1" xmlns="http://www.w3.org/2000/svg" xmlns:xlink="http://www.w3.org/1999/xlink" x="0px" y="0px"
	 viewBox="0 0 192 251" style="enable-background:new 0 0 192 251;" xml:space="preserve">
<style type="text/css">
	.st0{fill:#009C53;}
	.st1{fill:#F2EFA3;}
	.st2{fill:#CAE977;}
</style>
<g>
	<path class="st0" d="M49,243.8c-5.3-5-1.9-10.1-0.9-16.2c1.6-9.3-7.2-3.6-12.9-3.3c-17.4,1.1,8.2-26.2,12.6-29.6
		c4.6-3.5,13.1-11.5,0.9-11.2c-11,0.3-23.4,4.4-33.4-2.7c-20.5-14.5,59.6-34.4,53-50.6c-2.1-5.2-20-1.5-24.5-1.4
		c-9.6,0.3-17.1-0.4-25.8-4.5c-4.2-2-16.5-7.2-14.4-13.8c2-6.4,13.2-7.1,16.7-12.1C23.9,93.3,13.4,90,18,84c4.6-6,20.1-3.3,26.4-3
		c20,0.8,48.6,9.2,65.8-4.8c7.9-6.4,11.8-18.3,16.6-27.2c4.3-8.1,7.9-16.3,12.5-24.1c2.2-3.8,6-20.8,11.4-17.7
		c5.1,2.9-4.3,13.8-6.1,17.3c-5.7,10.6-11.9,21.8-16.3,33c-3.2,8-8.3,18.8-7.5,27.6c1,11.1,13.2,20,21.9,25.4
		c10.1,6.3,19.3,13.5,29.1,19.9c6.1,4,21.1,13.7,11.6,22c-2.4,2.1-8.1,1.3-9.3,4.6c-0.6,1.7,3.9,10.5,4,13.2
		c0.6,19.3-17.7,7.5-27,1.5c-10.5-6.8-19.2-17.2-30.4-23.1c-4.3-2.3-7.7-3.6-7.2,2.9c0.5,6.4,7.6,13.9,11.9,18.4
		c9,9.6,17.4,16.3,20.8,29.6c1,3.9,1.5,8.4-2.8,10.2c-5.2,2.1-5.7-2.9-5.3,4.2c0.3,4.2,1.6,6.8-3.1,9.2c-6.9,3.4-16.2-4.1-20.8-9
		c-6.4-6.9-12.4-15.7-16.5-21.7c-4.3,4.7-1.5,19.7-1.9,25.5c-0.4,6.8-1.6,14.3-6.4,19.6c-9.1,10.1-15.6-3.6-19.9-11.3
		c-5.4,0.8-5.9,10.2-8.5,14.1c-1.5,2.2-2.5,3.8-5.2,4.6C52.9,245.4,50.9,243.3,49,243.8z"/>
	<path class="st1" d="M116.8,80.2c-12,24.9,16.8,43.8,32,58.1c-10.4-2.9-18.4-13.6-25.5-20.9c-4.6-4.8-10.7-10.6-12.1-17.3
		c-4,10.5-7.3,21-9.2,32.2c-1.3,8.1,1.7,18.3,3.5,26.1c1.7,7.5,5.2,19.1,10.9,24.2c-12.2-13.2-15-29.1-18.3-45.6
		c-5.4,10.4-8.1,23.7-10.5,35.2c-1.7,7.9-2.4,19-6.3,26.1c0.3-5,3.6-16.9,2.9-21.7c-2.5,5.5-12.3,18.8-16.8,23.1
		c2.9-10.7,12.8-19.2,16.9-29.4c3-7.7,6.8-23.4,7.9-31.6c-8.3,7.7-21.8,23.8-33.3,26.4c12.9-8.7,22.6-20.1,32.9-31.3
		c4.8-5.2,6.5-10.7,8.4-17.3c1.4-4.9,5.5-13.9,5.1-19.1c-9.8,4.9-18.2,10.3-29.2,11.6c-6,0.7-16.9,2.5-21.6-1.7
		c17.2-2,33.8-1.5,48.1-12.4C109.7,89.6,113.9,79.3,116.8,80.2z"/>
</g>
</svg>
