<?xml version="1.0" encoding="utf-8"?>
<!-- Generator: Adobe Illustrator 22.0.1, SVG Export Plug-In . SVG Version: 6.00 Build 0)  -->
<svg version="1.1" id="Слой_1" xmlns="http://www.w3.org/2000/svg" xmlns:xlink="http://www.w3.org/1999/xlink" x="0px" y="0px"
	 viewBox="0 0 273.9 330.3" style="enable-background:new 0 0 273.9 330.3;" xml:space="preserve">
<style type="text/css">
	.st0{fill:#009C53;}
	.st1{fill:#F2EFA3;}
	.st2{fill:#CAE977;}
	.st3{fill:#E3E8A7;}
</style>
<g>
	<path class="st3" d="M188.3,180.5c0.1,4.5-0.2,9.1,5.4,10.6c4.7,1.2,8.9-2,13.3-2.8c-1.5-3.3-6-7.5-9.2-9.2
		C195.8,177.9,189.3,177.6,188.3,180.5z"/>
	<path class="st3" d="M217.5,138.5c1.5,2.6-0.1,7.6-0.5,10.5c-0.6,4.1-1.8,7.7-4,11.2c-3.2,5.2-8.6,8.3-13.9,10.8
		c-2.5-9.5-4.1-21.3-0.6-30.8c1.3-3.4,3.7-5.6,7.1-7.1c6.1-2.7,11.6,1,16.9,4.1"/>
	<path class="st3" d="M215.3,141.9c1.7,1.6,3.1,5.5,4.7,7.6c1.8,2.5,4.1,4.4,7.1,5.4c5.4,1.8,10.5,2.5,15.9,0.5
		c3.1-1.1,5.7-2.8,8.5-4.5c1.5-1,5-2.3,5.9-3.9c1.6-2.8-5-8.4-7.2-10.3c-4.2-3.7-8.6-5.9-14.1-7.2c-5.2-1.2-10.9-0.9-15.8,1.1
		c-2,0.8-6.4,1.9-6,4.7"/>
	<path class="st3" d="M219.1,167.8c-8.4,3.5-17.4,7-20.6,16.5c-2.5,7.5-0.9,14.5,1.3,21.7c1,3.3,2.5,6.2,4.2,9.1
		c16.2-5.5,27.5-24.6,22.7-41C225.5,170.2,221.5,166.4,219.1,167.8z"/>
	<path class="st3" d="M175.4,223c2.7,11.3,14.4,22.9,25.5,25.6c10.5,2.5,22,1.9,31.9-2.7c-9.9-13.1-20.2-25.1-36.2-30.8
		c-7.4-2.6-14.5-2.9-21.7,0.1"/>
	<path class="st3" d="M176.6,180.9c-5.5,4.7-10.1,10.9-13,17.6c-3.5,8.1-1.7,18.3,2,26.1c2.2,4.7,5.6,8.3,8.5,12.5
		c2.8-1.2,4.6-5.6,6.1-8.1c1.6-2.5,3.4-4.9,5-7.4c3.8-5.9,6-11.8,4.7-19c-0.9-4.8-2.7-10.2-5.8-14C183,187.2,178.1,182,176.6,180.9z
		"/>
	<path class="st3" d="M169,147.1c3.3,8,4.6,15.5,4.5,24c-0.1,9.4-6.9,15.2-14.3,20c-3.2,2.1-6.5,3.9-10.1,5.2c-2-11-5.1-21.7,1.2-32
		C154.2,158.1,161.7,151.4,169,147.1z"/>
	<path class="st3" d="M50.4,187.5c10.1-2.8,20-7.2,30-10.7c6.6-2.3,21.1-7.5,26.8-6.9c-2.4,3.6-3.9,7.7-5.9,11.5
		c4.5-2.6,6.6-6.8,10.1-10.2c4.6-4.4,13.2-7.1,19.5-8.8c17-4.7,32.7-10.6,49-16.6c-4.5,20.8-19.4,44.6-39.5,52.2
		c2.6-0.3,6.2-0.7,8.7-1.5c0.5,4.2-13.1,17.2-16.7,20.2c-7.3,6.1-18,10.3-27.3,11c3.5,1.5,9.8,0.8,13.8,0.2
		c-7,10.9-30.6,21.9-43.3,22.8c9.1,1.3,22.5-3.8,30.7-7.8c-1.4,2.9-3.8,5.8-3.6,10.5c4.8-8.1,12-14.7,17.9-21.7
		c5.4-6.3,12.3-12.5,17.4-17.3c-0.8,3.3-2.9,9.1-1.4,12.3c3.6-11.6,9.8-19.7,17.8-28.8c8.1-9.1,13.5-15.4,19.4-26
		c0.8,6.6,0.5,10.5,1.6,17.4c0.9,5.6-0.1,13.9,0.9,19.4c1,5.1,1,51.4,13.4,54.6c-7.4-10-11-57.6-11.2-68.8
		c-0.1-5.4-3.2-18.4-0.5-23.3c5.2,2.6,7.9,11,14.2,11.5c-3.8-4.1-9.2-9.2-11.1-14.7c-2.2-6.6,1.3-13,3.5-19.2
		c5-13.9,12-27.1,20.5-39.2c8.5,15.3,9.2,33.2,12.7,50c2.4,11.4,6.7,21.7,9.9,32.8c2,7.2,3.6,14.3,7.7,20.8
		c2.1-6.8-2.3-15.1-4.3-21.4c-2.8-9-5-19.7-7.8-28.6c-3-9.4-3-15.2-5.3-23.4c-2.3-8.4-4.3-16.4-6-25c-4.7-22.9,16.3-41.8,27.7-59.6
		c4.9-7.6,8.8-15.8,13.4-23.5c3.7-6.3,11.6-16.2,12.6-23.5c0.3-2.6-0.8-7.5-4.7-7.2c-4.6,0.3-11.1,21.4-13.2,25.4
		c-12.1,22.5-25.1,44.7-39.2,65.9c-4.2,6.3-9.3,12.5-12.7,19.3c-3.3,6.7-5.8,13.6-9.5,20.2c-3.4,6.1-3.8,7.3-10.7,10.2
		c-8.5,3.6-23.1,10.6-32.1,13c-19.1,5.1-32.5,8.4-51.6,13.6c-9.1,2.5-17.8,5.2-26.5,8.9C60.9,179.5,44.3,182.8,50.4,187.5z"/>
	<path class="st3" d="M106.6,172c3.2,2,4.7,5.9,6.6,9.1c2.6,4.3,2.5,7.8,0.8,12.4c-3.9,10.1-14.3,15.2-23.7,19.1
		c-5.3,2.2-11.1,3.6-16.1,6.3c-2.6-4.6-3.4-13-2.6-18.2c1-7.1,3.6-14.1,7.8-19.9c3.1-4.3,7.8-7.3,12.6-9.4
		C96.2,169.6,105.3,167.5,106.6,172z"/>
	<path class="st3" d="M71.4,178c0.1,9.3-8.5,19.5-16.2,23.6c-6,3.1-11.4,5.9-18.3,6.3c-6.9,0.4-12.5-0.2-19.1-2.5
		c-4.9-1.7-12.7-3.6-16.2-7.7c8.5-13.6,22-25.6,38.1-29c6.4-1.3,14.5,0.2,20.6,2C64,171.8,71.6,174.3,71.4,178z"/>
	<path class="st3" d="M84.4,166.5c0.1,0,0.2-0.1,0.2-0.1"/>
	<path class="st3" d="M84.6,166.4c-2.7,2.9-8.6,4.8-12.7,4.7c-6.2-0.2-11.8-4.6-16.6-8.1c-9.6-6.8-14-18.2-13.7-29.7
		c0.1-5-0.1-10.3,0.9-15.2c2.6,0.2,5.9,1.5,8.6,2c4.9,1,9.9,2.4,14.3,4.6c7.4,3.6,14.5,9,19.5,15.6c3.7,4.9,6.7,11.1,5.7,17.3
		C90.2,160.4,89,166.4,84.6,166.4z"/>
	<path class="st3" d="M133.2,155.2c-7.2,5.7-19.6,5.6-25.8-1.3c-5.2-5.7-8.3-15-9.1-22.6c-0.4-3.8,0.2-7.9-0.8-11.5
		c2.5-1,6.5,0.2,9.3,0.4c4.3,0.2,8.1,0.4,12.3,1.7c6.6,2,13.8,5.7,17.2,12C139.2,139,139.5,151.9,133.2,155.2z"/>
	<path class="st3" d="M174.9,139.2c-3.7,6.7-15.6,0.4-19.4-3.1c-2.3-2.1-4.7-4.4-0.2-5.4c3.8-0.9,7.9,1,11.1,2.8
		C169.1,135,172.1,138.2,174.9,139.2z"/>
	<path class="st3" d="M150.4,194.7c-0.9,4.1-8.6,6.5-12.4,7.7c-4.3,1.3-8.6,0.3-12.6-1.7c-9.6-4.6-14.6-13.1-21.3-20.8
		c6.2-7.2,18.9-7,27-3.7C139.9,179.8,145.5,186.2,150.4,194.7z"/>
	<path class="st3" d="M138.8,218.9c6.3,9.3,14,17.3,14.2,29.4c0.2,11.5-9.1,19.3-17,26.2c-6.3-4.3-10-11.4-12.8-18.2
		c-2.2-5.4-4.3-11.9-3.2-17.8C121.3,231,129.1,219.8,138.8,218.9z"/>
	<path class="st3" d="M114.2,226.6c-6.8,8.1-21.2,16.7-32,13c-10.2-3.5-19.5-9.5-25.6-18.4c2.1-1.2,3.7-3.6,5.8-5
		c3-2,6.5-3.3,9.9-4.6c7-2.6,15-2,22.2-0.4c4.9,1,9.8,3.2,13.8,6.2c1.3,1,2.7,2.1,3.8,3.3C113.3,222.2,114,224.6,114.2,226.6z"/>
	<path class="st3" d="M107.2,244.5c-10.3,4.3-18.1,10-23.4,19.9c-4.3,7.9-3.6,15.9-1.7,24.4c0.5,2.5,3.6,17.4,6.7,17.7
		c1.2,0.1,6.4-4.5,7.5-5.3c3.6-2.4,6.8-5.3,9.9-8.3c4.5-4.4,8-11.4,9.8-17.4C119.2,265.2,114.7,252.1,107.2,244.5z"/>
	<path class="st3" d="M87.7,249.2c-10.9-4.5-21-8.4-33-6.1c-8,1.5-15.9,6.9-20.9,13.3c-2.4,3-4.5,6.7-6.2,10.1
		c-1.3,2.5-3.5,6.2-1.3,8.3c1.5,1.4,5,2.3,6.8,3.1c3.7,1.7,7.6,2.8,11.6,3.5c8,1.5,16.5,0.4,23.3-4.2
		C76.9,271.1,86.7,259.7,87.7,249.2z"/>
	<path class="st3" d="M179,234.5c3.4,1,2.7,20.4,2.3,23.2c-2.1,12.6-8.1,22.6-19.9,28.5c-5.1,2.5-10.5,4.8-15.8,6.8
		c-6.4-11.2-5.2-30.7,1.7-41.4c4.6-7,11.1-12.4,18.8-15.6C170.7,234.1,175.1,233.4,179,234.5z"/>
	<path class="st3" d="M156.2,191.8c0.8,6,4.6,11.3,5.4,17.4c0.8,6-1.3,12.9-5,17.6c-5.8-3.4-8.6-10.4-7.5-16.7
		C150,205,152.9,195.7,156.2,191.8z"/>
	<path class="st3" d="M184.2,277.3c-5.2,2.1-10.3,4.4-15,7.5c-5.5,3.7-8.5,10-10.6,16.1c-3.4,10-5,18.8-0.4,28.7
		c2.6-0.8,5-2.4,7.3-3.9c3-1.9,6.4-3.4,9-5.8c4.6-4.2,8.9-9.3,11.8-14.8c2.4-4.6,5.6-11.1,4.9-16.4
		C190.5,284.9,187.3,280,184.2,277.3z"/>
	<path class="st3" d="M185.4,260.7c-5.5,8.9,1.4,19.8,7.5,26.2c5.9,6.3,13,11.3,21,14.7c3.7,1.5,8,3.7,12,4.3c4,0.6,3.4-3.8,3.1-7.2
		c-1.2-13.4-6.7-27.1-17.8-35.1c-4.8-3.4-10.1-6.5-16.2-6.5c-1.6,0-3.7,0.4-5.2,1C187.8,258.8,187.6,260.1,185.4,260.7z"/>
	<path class="st3" d="M232.3,203.6c-5.8,2-10.4,14.2-9.9,19.9c0.6,6.7,2.7,14.1,5.9,20c1.6,2.9,4,5.6,6.1,8.2c1,1.3,3.3,5.6,5.1,5.8
		c2.7,0.4,6.2-9.1,7.3-11.5c2.1-4.6,3.4-9.4,3.1-14.5c-0.4-6.8-3.6-15.1-7.7-20.5C240.9,209.3,235.1,203.3,232.3,203.6z"/>
	<path class="st3" d="M226.1,181.2c0.7,7.3,9.1,12.9,15.8,14.6c6.9,1.7,13.7-0.5,20.1-3c3.5-1.4,10.9-5.9,10.4-10.4
		c-0.4-3.8-7.9-7-10.8-8.4c-5.2-2.4-10.8-3.3-16.5-3.7C241.4,170,223.7,169.9,226.1,181.2z"/>
</g>
</svg>
