<?xml version="1.0" encoding="utf-8"?>
<!-- Generator: Adobe Illustrator 22.0.1, SVG Export Plug-In . SVG Version: 6.00 Build 0)  -->
<svg version="1.1" id="Слой_1" xmlns="http://www.w3.org/2000/svg" xmlns:xlink="http://www.w3.org/1999/xlink" x="0px" y="0px"
	 viewBox="0 0 245.4 185.6" style="enable-background:new 0 0 245.4 185.6;" xml:space="preserve">
<style type="text/css">
	.st0{fill:#009C53;}
	.st1{fill:#F2EFA3;}
</style>
<g>
	<path class="st0" d="M244.1,130.4c-4.6,5.7-9.9,2.6-16.1,2c-9.4-0.9-3.1,7.5-2.4,13.1c2.3,17.2-26.8-6.4-30.4-10.4
		c-3.9-4.3-12.4-12.2-11.2-0.1c1.1,10.9,6,23-0.3,33.5c-13,21.4-38.5-57-54.2-49.3c-5.1,2.5-0.1,20.1,0.3,24.6
		c1,9.6,0.8,17.1-2.7,26.1c-1.7,4.4-6,16.9-12.7,15.4c-6.5-1.5-8-12.7-13.2-15.8c-5.5-3.3-8.1,7.4-14.4,3.3
		c-6.3-4.2-4.7-19.8-4.9-26.1c-0.6-20,5.7-49.2-9.4-65.3c-7-7.4-19-10.5-28.3-14.6c-8.4-3.7-16.8-6.7-25-10.8
		c-3.9-2-21.2-4.6-18.5-10.1c2.5-5.3,14,3.3,17.6,4.9c11,5,22.6,10.3,34.1,14c8.2,2.6,19.3,7,28.1,5.6c11-1.7,19-14.6,23.8-23.6
		c5.6-10.5,12.1-20.2,17.8-30.4c3.6-6.4,12.2-22,21.1-13.1c2.2,2.2,1.9,8,5.2,8.9c1.7,0.5,10.2-4.6,12.9-4.9
		c19.2-1.9,8.7,17.2,3.4,26.8c-6,10.9-15.8,20.4-20.9,31.9c-1.9,4.4-3.1,8,3.4,7c6.4-0.9,13.3-8.6,17.5-13.1
		c8.9-9.7,15-18.5,28.1-22.8c3.8-1.3,8.3-2.1,10.3,2.1c2.4,5.1-2.5,5.9,4.6,5c4.2-0.6,6.7-2.1,9.4,2.5c3.8,6.6-2.9,16.4-7.5,21.3
		c-6.5,6.9-14.8,13.4-20.5,18c5,3.9,19.8,0.1,25.5,0.1c6.8,0,14.4,0.6,20,5c10.7,8.4-2.5,15.8-9.9,20.6c1.2,5.3,10.6,5.1,14.7,7.5
		c2.3,1.3,4,2.2,5,4.9C245.4,126.4,243.5,128.6,244.1,130.4z"/>
	<path class="st1" d="M76.1,74.3c25.6,10.2,42.5-19.8,55.7-36c-2.1,10.6-12.2,19.3-19,26.9c-4.4,4.9-9.8,11.4-16.4,13.3
		c10.7,3.2,21.5,5.8,32.8,6.9c8.1,0.8,18.1-3,25.7-5.3c7.3-2.3,18.6-6.5,23.4-12.5c-12.3,13.1-27.9,17-44.2,21.5
		c10.7,4.7,24.2,6.4,35.9,8c8,1.1,19.2,1,26.5,4.4c-5,0.1-17.1-2.4-21.8-1.3c5.6,2.2,19.6,11,24.3,15.1c-10.9-2.1-20-11.4-30.5-14.7
		c-7.9-2.5-23.8-5.1-32.1-5.6c8.3,7.7,25.3,20,28.6,31.4c-9.6-12.3-21.7-21.1-33.6-30.7c-5.5-4.4-11.1-5.8-17.9-7.2
		c-5-1.1-14.3-4.5-19.5-3.8c5.6,9.5,11.6,17.4,13.7,28.3c1.1,5.9,3.7,16.7-0.2,21.7c-3.2-17-3.9-33.6-15.7-47.1
		C86,80.8,75.4,77.3,76.1,74.3z"/>
</g>
</svg>
