<?xml version="1.0" encoding="utf-8"?>
<!-- Generator: Adobe Illustrator 22.0.1, SVG Export Plug-In . SVG Version: 6.00 Build 0)  -->
<svg version="1.1" id="Слой_1" xmlns="http://www.w3.org/2000/svg" xmlns:xlink="http://www.w3.org/1999/xlink" x="0px" y="0px"
	 viewBox="0 0 145.4 202.9" style="enable-background:new 0 0 145.4 202.9;" xml:space="preserve">
<style type="text/css">
	.st0{fill:#009C53;}
	.st1{fill:#F2EFA3;}
	.st2{fill:#CAE977;}
</style>
<g>
	<g>
		<path class="st0" d="M98.5,200.7c4.5,2.1,11-1.5,14.2-5.3c2-2.3,1.9-5.2,3-7.7c2.4-5.6,0.5-2.8,5.3-5c4.6-2.1,10.2-4.4,10-10.8
			c-0.2-9.1-6.6-6.9,1.5-13.4c17.5-13.9-13.8-25.2-1.9-34.7c8.2-6.6,16.9-10.9,12.3-23.7c-5-13.9-19.2-17.7-32-21.7
			c-3.5-1.1-14.8-3.5-16.9-6.6c-3-4.5,1.7-9.4,4.2-12.9c3.5-5,7.4-8.9,5.4-14.9c-2.3-6.9-9.9-7-16-9.1C69,28.6,55.4,44.2,50,36.4
			c-2.3-3.4,2.4-8.1,0.6-11.4c-1.9-3.7-9.3-3.3-12.5-5C32.2,16.9,29.7-2,19.5,2c-8.6,3.3-1.1,19.4-2.6,25.8
			c-1.1,4.9-8.3,13.4-7,18.3c1,3.8,6.3,4.3,7.4,8.5c1.8,6.7-5.7,14.9-8.4,20.7C5.7,82,0.1,92.2,2.6,99.7c2.4,7.5,10.9,7.1,16.7,10.4
			c8.5,4.8,0.8,14.4-0.4,22.8c-1.1,7.7,1,18,6.4,23.7c3.2,3.5,7.4,5.5,11.9,6.8c1.9,0.5,8.4,0.3,9.7,1.6c2.9,2.9,0.8,13.1,3,17.6
			c4,8.1,8.4,6.4,15.8,6.5c9.5,0.2,4.1,5.3,10.1,10.7c4.7,4.3,7.8,1.6,12.2-0.2C93.1,197.6,93,198.2,98.5,200.7z"/>
		<path class="st2" d="M100.8,183.9c0,0-6.3-17.8-9.2-25.7c-3-8-13.1-26.4-13.1-26.4s-4.5,4.9-7.7,14.4c-3.1,9.5-7.4,22.1-7.4,22.1
			s-0.7-3.7,0.9-9c1.6-5.3,8-20.1,9.3-24.5c1.2-4.4,2.8-6.9,2.8-6.9s-8.1-17.4-9.5-21c-1.4-3.6-6.4-12.7-6.4-12.7s-3.2,6.8-5.3,12.5
			s-6.8,21.6-8.4,26.9s-3.6,11.8-3.6,11.8s3.2-20.2,6.1-28.1c2.9-7.9,8.5-25.1,8.5-25.1S54.4,82,52.2,78.4
			c-2.2-3.5-6.9-12.2-6.9-12.2l-3.4-5.7c0,0-8,11.5-11.2,16.6c-3.2,5-8.2,13.9-8.2,13.9s5.4-12.8,8.4-18.3s8.4-15.5,8.4-15.5
			s-7.9-19-10.1-23.3s-7.5-17.2-7.4-18.5c0.1-1.3,5.2,5.7,7.1,9.8s9,17.7,10.3,20.9c1.2,3.2,3.7,7.9,3.7,7.9s16.2-1,24.5,0.7
			S80,57.9,80,57.9s-12.1-1.7-18.3-1.8S45.2,57,45.2,57s5,7,7.5,11.7c2.4,4.7,8.7,17.6,8.7,17.6s37,10.7,47.7,14.6
			s20.5,7.8,20.5,7.8s-27.6-8.3-36.9-11c-9.3-2.7-30-7.5-30-7.5s6.3,11.9,8.8,17.3s9.5,20.3,9.5,20.3s21.1,9.1,27.2,12.3
			c6,3.2,12,6.8,12,6.8s-21.5-9.9-29.6-12.2s-8.1-2.3-8.1-2.3s11.6,22.8,13.9,29.8S100.8,183.9,100.8,183.9z"/>
	</g>
</g>
</svg>
