<?xml version="1.0" encoding="utf-8"?>
<!-- Generator: Adobe Illustrator 22.0.1, SVG Export Plug-In . SVG Version: 6.00 Build 0)  -->
<svg version="1.1" id="Слой_1" xmlns="http://www.w3.org/2000/svg" xmlns:xlink="http://www.w3.org/1999/xlink" x="0px" y="0px"
	 viewBox="0 0 203.2 146.6" style="enable-background:new 0 0 203.2 146.6;" xml:space="preserve">
<style type="text/css">
	.st0{fill:#009C53;}
	.st1{fill:#F2EFA3;}
	.st2{fill:#CAE977;}
</style>
<g>
	<path class="st0" d="M2,96.8c-2.2,4.4,1.2,11,4.8,14.2c2.3,2,5.1,2.1,7.5,3.2c5.5,2.6,2.7,0.6,4.8,5.4c1.9,4.6,4,10.2,10.4,10.2
		c9,0.1,7-6.4,13.2,1.9c13.3,17.7,25.4-12.9,34.5-0.9c6.3,8.4,10.3,17,23.1,12.9c13.9-4.5,18.1-18.5,22.5-31
		c1.2-3.4,3.9-14.5,7.1-16.5c4.6-2.9,9.3,2,12.6,4.5c4.8,3.6,8.6,7.6,14.6,5.8c6.9-2.1,7.2-9.6,9.5-15.6c6.9-18.3-8.1-32.2-0.2-37.3
		c3.4-2.2,7.9,2.6,11.3,0.9c3.7-1.8,3.6-9.1,5.3-12.2c3.2-5.8,21.9-7.6,18.3-17.9c-3-8.6-19.2-1.7-25.5-3.3
		c-4.8-1.2-13-8.7-17.9-7.5c-3.8,0.9-4.5,6.1-8.6,7.1c-6.7,1.6-14.6-6.1-20.2-9c-6.5-3.3-16.5-9.1-24-7c-7.5,2.2-7.4,10.5-10.8,16.2
		c-5,8.3-14.3,0.3-22.6-1.1c-7.6-1.3-17.8,0.5-23.7,5.6c-3.5,3.1-5.7,7.1-7,11.6c-0.6,1.8-0.6,8.4-1.9,9.6c-2.9,2.8-13,0.4-17.5,2.4
		c-8.1,3.7-6.6,8.1-6.9,15.5c-0.4,9.4-5.4,3.9-10.9,9.7c-4.4,4.5-1.8,7.7-0.2,12.1C5.2,91.6,4.7,91.5,2,96.8z"/>
	<path class="st2" d="M23.5,100.3c0,0,17.8-5.7,25.7-8.3s26.6-12.1,26.6-12.1s-4.7-4.6-14-8s-21.7-8-21.7-8s3.7-0.6,8.9,1.1
		c5.2,1.7,19.7,8.5,24,9.9c4.3,1.4,6.7,3,6.7,3s17.5-7.5,21.1-8.8c3.6-1.3,12.7-6,12.7-6s-6.6-3.3-12.3-5.6
		c-5.7-2.3-21.2-7.4-26.4-9.1c-5.2-1.7-11.5-3.9-11.5-3.9s19.9,3.8,27.6,6.9s24.6,9.1,24.6,9.1s10.2-3.2,13.8-5.2
		c3.6-2,12.2-6.5,12.2-6.5l5.8-3.2c0,0-11.2-8.3-16.1-11.6c-4.9-3.3-13.5-8.5-13.5-8.5s12.6,5.7,17.8,8.8c5.3,3.1,15.1,8.8,15.1,8.8
		s19.1-7.2,23.4-9.3c4.3-2.1,17.2-6.9,18.5-6.7c1.3,0.2-5.8,4.9-9.9,6.7c-4.2,1.8-17.8,8.4-21,9.5c-3.2,1.1-7.9,3.4-7.9,3.4
		s0.5,16.1-1.4,24.3c-1.9,8.2-3.6,12.4-3.6,12.4s2-12,2.4-18S150.8,49,150.8,49s-7.1,4.8-11.8,7c-4.7,2.3-17.7,8.1-17.7,8.1
		s-11.7,36.3-15.9,46.8C101.3,121.3,97,131,97,131s9.1-27.1,12-36.2c3-9.2,8.3-29.4,8.3-29.4s-12,5.9-17.4,8.2
		c-5.4,2.3-20.4,8.8-20.4,8.8s-9.6,20.6-13,26.5c-3.4,5.9-7.1,11.7-7.1,11.7s10.5-21,12.9-29c2.5-8,2.5-8,2.5-8S52,94.4,45,96.5
		S23.5,100.3,23.5,100.3z"/>
</g>
</svg>
