<?xml version="1.0" encoding="utf-8"?>
<!-- Generator: Adobe Illustrator 22.0.1, SVG Export Plug-In . SVG Version: 6.00 Build 0)  -->
<svg version="1.1" id="Слой_1" xmlns="http://www.w3.org/2000/svg" xmlns:xlink="http://www.w3.org/1999/xlink" x="0px" y="0px"
	 viewBox="0 0 178 172.8" style="enable-background:new 0 0 178 172.8;" xml:space="preserve">
<style type="text/css">
	.st0{fill:#C1D87E;}
	.st1{fill:#EEEBA4;}
</style>
<g>
	<path class="st0" d="M45.2,16.2c0,0,4.4-1.4,5.9-0.2c1.5,1.2,10.6,13,15.3,22.9s11.5,25,11.5,25s4.2-5.7,5.5-13.6
		c1.3-7.8,3.6-13.1,3.6-13.1s2.1,7.4,8.1,4c5.9-3.4,11.6-9.5,11.6-9.5s5.9,4.9,15,1.6s13-5.4,13-5.4s-14.1,14-10.3,23.4
		c3.8,9.4,21.4,4.9,21.4,4.9s-9.5,7-4,14.8s22.5,19.7,22.5,19.7s-31-3.8-39.8,4.2s11.4,29.8,11.4,29.8s-8.7-1.5-14,7.7
		c-5.4,9.2,3.1,28.2,3.1,28.2s-13.5-17-20-17.5c-6.5-0.5-9.5,3.4-9.5,3.4s-1.1-18-15.9-22s-27.4,13.2-27.4,13.2s-1.7-5.5-5.9-3
		s-10.6,10.4-10.6,10.4s5.4-14,3-22.5s-12.5-9.3-12.5-9.3s13.9-6.9,12.6-16.3c-1.3-9.6-5.5-16.5-11.8-18.2
		c-6.3-1.7-12.5-1.8-12.5-1.8s14.3-2.6,18.9-9.6s6.4-14,6.4-14s6.9,9.1,12.9,4.1s7.3-11.2,7.3-11.2s8.5,7.5,11.5,11.9s4,7,4,7
		s-8.3-21.8-15.9-31.9S45.2,16.2,45.2,16.2z"/>
	<path class="st1" d="M112.9,135.4C105.6,117.4,98.4,102,88.7,85c-2-3.6-6.8-9.6-7.8-13.6c11.3,0.8,21.6,7.4,33.5,8.5
		c-6.6-4-16.9-6.8-22.6-8.7c-6-2-9.9-2.6-14.7-5.1c-0.9,3.4-3.2,6.7-4.5,10.1c-1.6,4.2-3.1,8.3-4.5,12.6c-2.4,7.2-6.2,14.5-9.5,21.3
		c7.5-12.7,13.8-25.6,18.9-39.3c3.8,4.3,7,11.4,9.6,16.6c2.9,5.8,5.5,11.7,8.9,17.1C102.4,114.3,106.2,125.5,112.9,135.4z"/>
</g>
</svg>
