<?xml version="1.0" encoding="utf-8"?>
<!-- Generator: Adobe Illustrator 22.0.1, SVG Export Plug-In . SVG Version: 6.00 Build 0)  -->
<svg version="1.1" id="Слой_1" xmlns="http://www.w3.org/2000/svg" xmlns:xlink="http://www.w3.org/1999/xlink" x="0px" y="0px"
	 viewBox="0 0 1920 412.8" style="enable-background:new 0 0 1920 412.8;" xml:space="preserve">
<style type="text/css">
	.st0{clip-path:url(#SVGID_2_);}
	.st1{clip-path:url(#SVGID_3_);}
	.st2{fill:#D7D8D9;}
	.st3{fill:#50965F;}
	.st4{fill:#566FB2;}
	.st5{fill:#DC7951;}
	.st6{clip-path:url(#SVGID_4_);}
</style>
<g>
	<defs>
		<rect id="SVGID_1_" x="-5.7" y="1.5" width="1931.5" height="432"/>
	</defs>
	<clipPath id="SVGID_2_">
		<use xlink:href="#SVGID_1_"  style="overflow:visible;"/>
	</clipPath>
	<g class="st0">
		<g>
			<defs>
				
					<rect id="SVGID_13_" x="-5.7" y="-48.9" transform="matrix(-1 -4.489221e-11 4.489221e-11 -1 416.0199 398.6857)" width="427.5" height="496.5"/>
			</defs>
			<clipPath id="SVGID_3_">
				<use xlink:href="#SVGID_13_"  style="overflow:visible;"/>
			</clipPath>
			<g class="st1">
				<g>
					<path class="st2" d="M-370.6,325.8C-80,447.5,253.1,298.8,356.3,1.1c-1-0.3-2-0.7-3-1C250.7,296.1-80.5,444-369.4,322.9
						C-369.8,323.9-370.2,324.8-370.6,325.8z"/>
					<g>
						<path class="st3" d="M313.2,84.2c26.3,0.8,53,0.1,80-2.4c-15.4-22.4-31.8-43.6-49.1-63.6C335.2,41.2,324.8,63.2,313.2,84.2z"
							/>
						<path class="st4" d="M274.7,144.2c25.8,4.5,52.3,7.5,79.2,8.9c-12.4-24-26-46.9-40.7-68.8
							C301.6,105.2,288.8,125.2,274.7,144.2z"/>
						<path class="st5" d="M229.4,197.6c24.9,7.9,50.6,14.5,77,19.5c-9.3-25.2-19.9-49.6-31.7-73
							C260.7,163.1,245.6,180.9,229.4,197.6z"/>
						<path class="st3" d="M178.1,244.3c23.6,11.1,48.2,21,73.7,29.5c-6.1-26.1-13.6-51.5-22.4-76.1
							C213.3,214.3,196.1,229.9,178.1,244.3z"/>
						<path class="st4" d="M121.7,283.7c22,14,45,27,69.1,38.7c-2.8-26.6-7-52.7-12.6-78.2C160.1,258.6,141.3,271.8,121.7,283.7z"/>
						<path class="st5" d="M60.8,315.7c20,16.7,41.2,32.5,63.6,47.2c0.6-26.7-0.3-53.1-2.7-79.1C102.1,295.7,81.8,306.3,60.8,315.7z
							"/>
						<path class="st3" d="M-3.5,339.7c17.7,19.1,36.8,37.4,57.1,54.8c4-26.5,6.4-52.8,7.3-78.8C39.9,325,18.4,333-3.5,339.7z"/>
					</g>
				</g>
				<g>
					<path class="st2" d="M-575.1,149.2c255,185.1,613.2,116.6,781.9-149.5c-0.9-0.6-1.8-1.1-2.7-1.7
						C36.4,262.6-319.8,330.7-573.3,146.7C-573.9,147.5-574.5,148.4-575.1,149.2z"/>
					<g>
						<path class="st3" d="M145.8,70.8c25.4,6.8,51.6,12.2,78.4,16c-9.8-25.3-21-49.7-33.3-73.2C177,33.9,161.9,53,145.8,70.8z"/>
						<path class="st4" d="M94.6,120.3c24.1,10.3,49.2,19.3,75.1,26.8c-6.6-26.2-14.6-51.7-23.9-76.3
							C129.7,88.5,112.6,105.1,94.6,120.3z"/>
						<path class="st5" d="M38.3,161.9c22.4,13.4,46,25.7,70.5,36.7c-3.3-26.7-8-52.8-14.2-78.3C76.7,135.5,57.8,149.4,38.3,161.9z"
							/>
						<path class="st3" d="M-22.3,195.6c20.5,16.2,42.1,31.5,64.9,45.6c0-26.8-1.4-53.3-4.3-79.2C18.7,174.5-1.5,185.7-22.3,195.6z"
							/>
					</g>
				</g>
			</g>
		</g>
		<g>
			<defs>
				<rect id="SVGID_12_" x="1498.3" y="-47.9" width="427.5" height="496.5"/>
			</defs>
			<clipPath id="SVGID_4_">
				<use xlink:href="#SVGID_12_"  style="overflow:visible;"/>
			</clipPath>
			<g class="st6">
				<g>
					<path class="st2" d="M2290.6,326.8c-290.6,121.7-623.6-27-726.9-324.7c1-0.3,2-0.7,3-1c102.7,296,433.8,443.8,722.7,322.8
						C2289.8,324.9,2290.2,325.8,2290.6,326.8z"/>
					<g>
						<path class="st3" d="M1606.8,85.2c-26.3,0.8-53,0.1-80-2.4c15.4-22.4,31.8-43.6,49.1-63.6
							C1584.8,42.2,1595.2,64.2,1606.8,85.2z"/>
						<path class="st4" d="M1645.3,145.2c-25.8,4.5-52.3,7.5-79.2,8.9c12.4-24,26-46.9,40.7-68.8
							C1618.4,106.2,1631.2,126.2,1645.3,145.2z"/>
						<path class="st5" d="M1690.6,198.6c-24.9,7.9-50.6,14.5-77,19.5c9.3-25.2,19.9-49.6,31.7-73
							C1659.3,164.1,1674.4,181.9,1690.6,198.6z"/>
						<path class="st3" d="M1741.9,245.3c-23.6,11.1-48.2,21-73.7,29.5c6.1-26.1,13.6-51.5,22.4-76.1
							C1706.7,215.3,1723.9,230.9,1741.9,245.3z"/>
						<path class="st4" d="M1798.3,284.7c-22,14-45,27-69.1,38.7c2.8-26.6,7-52.7,12.6-78.2C1759.9,259.6,1778.7,272.8,1798.3,284.7
							z"/>
						<path class="st5" d="M1859.2,316.6c-20,16.7-41.2,32.5-63.6,47.2c-0.6-26.7,0.3-53.1,2.7-79.1
							C1817.9,296.7,1838.2,307.3,1859.2,316.6z"/>
						<path class="st3" d="M1923.5,340.7c-17.7,19.1-36.8,37.4-57.1,54.8c-4-26.5-6.4-52.8-7.3-78.8
							C1880.1,326,1901.6,334,1923.5,340.7z"/>
					</g>
				</g>
				<g>
					<path class="st2" d="M2495.1,150.2c-255,185.1-613.2,116.6-781.9-149.5c0.9-0.6,1.8-1.1,2.7-1.7
						c167.7,264.6,523.9,332.7,777.5,148.6C2493.9,148.5,2494.5,149.4,2495.1,150.2z"/>
					<g>
						<path class="st3" d="M1774.2,71.7c-25.4,6.8-51.6,12.2-78.4,16c9.8-25.3,21-49.7,33.3-73.2C1743,34.9,1758.1,54,1774.2,71.7z"
							/>
						<path class="st4" d="M1825.4,121.3c-24.1,10.3-49.2,19.3-75.1,26.8c6.6-26.2,14.6-51.7,23.9-76.3
							C1790.3,89.5,1807.4,106,1825.4,121.3z"/>
						<path class="st5" d="M1881.7,162.9c-22.4,13.4-46,25.7-70.5,36.7c3.3-26.7,8-52.8,14.2-78.3
							C1843.3,136.5,1862.2,150.4,1881.7,162.9z"/>
						<path class="st3" d="M1942.3,196.6c-20.5,16.2-42.1,31.5-64.9,45.6c0-26.8,1.4-53.3,4.3-79.2
							C1901.3,175.5,1921.5,186.7,1942.3,196.6z"/>
					</g>
				</g>
			</g>
		</g>
	</g>
</g>
</svg>
