<svg xmlns="http://www.w3.org/2000/svg" xmlns:xlink="http://www.w3.org/1999/xlink" viewBox="0 0 3070.28 435.8"><defs><style>.cls-1{fill:none;}.cls-2{clip-path:url(#clip-path);}.cls-3{fill:#d7d8d9;}.cls-4{fill:#009c53;}.cls-5{fill:#3763dd;}.cls-6{fill:#f8743b;}.cls-7{clip-path:url(#clip-path-2);}</style><clipPath id="clip-path" transform="translate(0 -46.94)"><rect id="SVGID" class="cls-1" x="569.41" width="427.48" height="496.48" transform="translate(1566.3 496.48) rotate(-180)"/></clipPath><clipPath id="clip-path-2" transform="translate(0 -46.94)"><rect id="SVGID-2" data-name="SVGID" class="cls-1" x="2073.39" y="1" width="427.48" height="496.48"/></clipPath></defs><title>flags</title><g id="Слой_2" data-name="Слой 2"><g id="Видео_блок" data-name="Видео блок"><g class="cls-2"><path class="cls-3" d="M204.55,374.69c290.59,121.75,623.64-27,726.9-324.66l-3-1c-102.67,296-433.8,443.85-722.72,322.8Z" transform="translate(0 -46.94)"/><path class="cls-4" d="M888.38,133.13a646.68,646.68,0,0,0,80-2.4,709.45,709.45,0,0,0-49.14-63.6A543,543,0,0,1,888.38,133.13Z" transform="translate(0 -46.94)"/><path class="cls-5" d="M849.88,193.05a662.4,662.4,0,0,0,79.2,8.87,707.47,707.47,0,0,0-40.71-68.79A536.52,536.52,0,0,1,849.88,193.05Z" transform="translate(0 -46.94)"/><path class="cls-6" d="M804.58,246.52a676.18,676.18,0,0,0,77,19.52,705.69,705.69,0,0,0-31.74-73A535.8,535.8,0,0,1,804.58,246.52Z" transform="translate(0 -46.94)"/><path class="cls-4" d="M753.28,293.17a685,685,0,0,0,73.65,29.48,703.79,703.79,0,0,0-22.35-76.13A537.84,537.84,0,0,1,753.28,293.17Z" transform="translate(0 -46.94)"/><path class="cls-5" d="M696.81,332.64a693.05,693.05,0,0,0,69.12,38.72,702.49,702.49,0,0,0-12.65-78.18A542.45,542.45,0,0,1,696.81,332.64Z" transform="translate(0 -46.94)"/><path class="cls-6" d="M636,364.55a696.84,696.84,0,0,0,63.56,47.18,699.7,699.7,0,0,0-2.73-79.09A544.24,544.24,0,0,1,636,364.55Z" transform="translate(0 -46.94)"/><path class="cls-4" d="M571.62,388.55a699.64,699.64,0,0,0,57.08,54.82A696.59,696.59,0,0,0,636,364.55,543.81,543.81,0,0,1,571.62,388.55Z" transform="translate(0 -46.94)"/><path class="cls-6" d="M504.54,404.27a702.28,702.28,0,0,0,49.78,61.6,693.45,693.45,0,0,0,17.3-77.31A542.46,542.46,0,0,1,504.54,404.27Z" transform="translate(0 -46.94)"/><path class="cls-4" d="M435.56,411.34a704,704,0,0,0,41.78,67.46,685.73,685.73,0,0,0,27.2-74.52A538,538,0,0,1,435.56,411.34Z" transform="translate(0 -46.94)"/><path class="cls-5" d="M365.51,409.4a705.66,705.66,0,0,0,33.17,72.34,675.13,675.13,0,0,0,36.88-70.4A536.07,536.07,0,0,1,365.51,409.4Z" transform="translate(0 -46.94)"/><path class="cls-6" d="M295.19,398.07a707.73,707.73,0,0,0,24.06,76.22,662.12,662.12,0,0,0,46.25-64.9A536.5,536.5,0,0,1,295.19,398.07Z" transform="translate(0 -46.94)"/><path class="cls-4" d="M225.45,377A708.74,708.74,0,0,0,240,456a647.28,647.28,0,0,0,55.19-58A543.63,543.63,0,0,1,225.45,377Z" transform="translate(0 -46.94)"/><path class="cls-3" d="M0,198.13C255,383.21,613.24,314.71,781.95,48.62l-2.65-1.68C611.56,311.5,255.35,379.6,1.84,195.58Z" transform="translate(0 -46.94)"/><path class="cls-4" d="M721,119.65a646.68,646.68,0,0,0,78.43,16,709.45,709.45,0,0,0-33.27-73.17A543,543,0,0,1,721,119.65Z" transform="translate(0 -46.94)"/><path class="cls-5" d="M669.78,169.16a662.4,662.4,0,0,0,75.06,26.78A707.47,707.47,0,0,0,721,119.65,536.52,536.52,0,0,1,669.78,169.16Z" transform="translate(0 -46.94)"/><path class="cls-6" d="M613.43,210.82A676.18,676.18,0,0,0,684,247.47a705.69,705.69,0,0,0-14.18-78.31A535.8,535.8,0,0,1,613.43,210.82Z" transform="translate(0 -46.94)"/><path class="cls-4" d="M552.81,244.48A685,685,0,0,0,617.75,290a703.79,703.79,0,0,0-4.32-79.23A537.84,537.84,0,0,1,552.81,244.48Z" transform="translate(0 -46.94)"/><path class="cls-5" d="M488.8,270a693.05,693.05,0,0,0,58.41,53.52,702.49,702.49,0,0,0,5.6-79A542.45,542.45,0,0,1,488.8,270Z" transform="translate(0 -46.94)"/><path class="cls-6" d="M422.28,287.09a696.84,696.84,0,0,0,51.06,60.49A699.7,699.7,0,0,0,488.8,270,544.24,544.24,0,0,1,422.28,287.09Z" transform="translate(0 -46.94)"/><path class="cls-4" d="M354.13,295.71a699.64,699.64,0,0,0,43,66.44,696.59,696.59,0,0,0,25.15-75.06A543.81,543.81,0,0,1,354.13,295.71Z" transform="translate(0 -46.94)"/><path class="cls-6" d="M285.23,295.64A702.28,702.28,0,0,0,319.58,367a693.45,693.45,0,0,0,34.55-71.29A542.46,542.46,0,0,1,285.23,295.64Z" transform="translate(0 -46.94)"/><path class="cls-4" d="M216.47,286.72a704,704,0,0,0,25.21,75.23,685.73,685.73,0,0,0,43.55-66.31A538,538,0,0,1,216.47,286.72Z" transform="translate(0 -46.94)"/><path class="cls-5" d="M148.73,268.78a705.66,705.66,0,0,0,15.71,78,675.13,675.13,0,0,0,52-60.08A536.07,536.07,0,0,1,148.73,268.78Z" transform="translate(0 -46.94)"/><path class="cls-6" d="M82.87,241.65a707.73,707.73,0,0,0,6,79.71,662.12,662.12,0,0,0,59.89-52.58A536.5,536.5,0,0,1,82.87,241.65Z" transform="translate(0 -46.94)"/><path class="cls-4" d="M19.81,205.16a708.74,708.74,0,0,0-3.93,80.28,647.28,647.28,0,0,0,67-43.79A543.63,543.63,0,0,1,19.81,205.16Z" transform="translate(0 -46.94)"/></g><g class="cls-7"><path class="cls-3" d="M2865.73,375.69c-290.59,121.75-623.64-27-726.9-324.66l3-1c102.67,296,433.8,443.85,722.72,322.8Z" transform="translate(0 -46.94)"/><path class="cls-4" d="M2181.9,134.13a646.68,646.68,0,0,1-80-2.4A709.45,709.45,0,0,1,2151,68.12,543,543,0,0,0,2181.9,134.13Z" transform="translate(0 -46.94)"/><path class="cls-5" d="M2220.4,194a662.4,662.4,0,0,1-79.2,8.87,707.47,707.47,0,0,1,40.71-68.79A536.52,536.52,0,0,0,2220.4,194Z" transform="translate(0 -46.94)"/><path class="cls-6" d="M2265.7,247.51a676.18,676.18,0,0,1-77,19.52,705.69,705.69,0,0,1,31.74-73A535.8,535.8,0,0,0,2265.7,247.51Z" transform="translate(0 -46.94)"/><path class="cls-4" d="M2317,294.16a685,685,0,0,1-73.65,29.48,703.79,703.79,0,0,1,22.35-76.13A537.84,537.84,0,0,0,2317,294.16Z" transform="translate(0 -46.94)"/><path class="cls-5" d="M2373.47,333.63a693.05,693.05,0,0,1-69.12,38.72A702.49,702.49,0,0,1,2317,294.16,542.45,542.45,0,0,0,2373.47,333.63Z" transform="translate(0 -46.94)"/><path class="cls-6" d="M2434.3,365.54a696.84,696.84,0,0,1-63.56,47.18,699.7,699.7,0,0,1,2.73-79.09A544.24,544.24,0,0,0,2434.3,365.54Z" transform="translate(0 -46.94)"/><path class="cls-4" d="M2498.66,389.55a699.64,699.64,0,0,1-57.08,54.82,696.59,696.59,0,0,1-7.29-78.82A543.81,543.81,0,0,0,2498.66,389.55Z" transform="translate(0 -46.94)"/><path class="cls-6" d="M2565.74,405.26a702.28,702.28,0,0,1-49.78,61.6,693.45,693.45,0,0,1-17.3-77.31A542.46,542.46,0,0,0,2565.74,405.26Z" transform="translate(0 -46.94)"/><path class="cls-4" d="M2634.72,412.33a704,704,0,0,1-41.78,67.46,685.73,685.73,0,0,1-27.2-74.52A538,538,0,0,0,2634.72,412.33Z" transform="translate(0 -46.94)"/><path class="cls-5" d="M2704.77,410.39a705.66,705.66,0,0,1-33.17,72.34,675.13,675.13,0,0,1-36.88-70.4A536.07,536.07,0,0,0,2704.77,410.39Z" transform="translate(0 -46.94)"/><path class="cls-6" d="M2775.09,399.07A707.73,707.73,0,0,1,2751,475.29a662.12,662.12,0,0,1-46.25-64.9A536.5,536.5,0,0,0,2775.09,399.07Z" transform="translate(0 -46.94)"/><path class="cls-4" d="M2844.84,378a708.74,708.74,0,0,1-14.56,79,647.28,647.28,0,0,1-55.19-58A543.63,543.63,0,0,0,2844.84,378Z" transform="translate(0 -46.94)"/><path class="cls-3" d="M3070.28,199.12C2815.31,384.2,2457,315.7,2288.33,49.61l2.65-1.68c167.74,264.56,523.95,332.67,777.45,148.65Z" transform="translate(0 -46.94)"/><path class="cls-4" d="M2349.31,120.64a646.68,646.68,0,0,1-78.43,16,709.45,709.45,0,0,1,33.27-73.17A543,543,0,0,0,2349.31,120.64Z" transform="translate(0 -46.94)"/><path class="cls-5" d="M2400.5,170.15a662.4,662.4,0,0,1-75.06,26.78,707.47,707.47,0,0,1,23.87-76.29A536.52,536.52,0,0,0,2400.5,170.15Z" transform="translate(0 -46.94)"/><path class="cls-6" d="M2456.85,211.81a676.18,676.18,0,0,1-70.52,36.65,705.69,705.69,0,0,1,14.18-78.31A535.8,535.8,0,0,0,2456.85,211.81Z" transform="translate(0 -46.94)"/><path class="cls-4" d="M2517.47,245.47A685,685,0,0,1,2452.53,291a703.79,703.79,0,0,1,4.32-79.23A537.84,537.84,0,0,0,2517.47,245.47Z" transform="translate(0 -46.94)"/><path class="cls-5" d="M2581.48,271a693.05,693.05,0,0,1-58.41,53.52,702.49,702.49,0,0,1-5.6-79A542.45,542.45,0,0,0,2581.48,271Z" transform="translate(0 -46.94)"/><path class="cls-6" d="M2648,288.08a696.84,696.84,0,0,1-51.06,60.49A699.7,699.7,0,0,1,2581.48,271,544.24,544.24,0,0,0,2648,288.08Z" transform="translate(0 -46.94)"/><path class="cls-4" d="M2716.15,296.7a699.64,699.64,0,0,1-43,66.44A696.59,696.59,0,0,1,2648,288.08,543.81,543.81,0,0,0,2716.15,296.7Z" transform="translate(0 -46.94)"/><path class="cls-6" d="M2785.05,296.63A702.28,702.28,0,0,1,2750.7,368a693.45,693.45,0,0,1-34.55-71.29A542.46,542.46,0,0,0,2785.05,296.63Z" transform="translate(0 -46.94)"/><path class="cls-4" d="M2853.81,287.71a704,704,0,0,1-25.21,75.23,685.73,685.73,0,0,1-43.55-66.31A538,538,0,0,0,2853.81,287.71Z" transform="translate(0 -46.94)"/><path class="cls-5" d="M2921.56,269.77a705.66,705.66,0,0,1-15.71,78,675.13,675.13,0,0,1-52-60.08A536.07,536.07,0,0,0,2921.56,269.77Z" transform="translate(0 -46.94)"/><path class="cls-6" d="M2987.41,242.65a707.73,707.73,0,0,1-6,79.71,662.12,662.12,0,0,1-59.89-52.58A536.5,536.5,0,0,0,2987.41,242.65Z" transform="translate(0 -46.94)"/><path class="cls-4" d="M3050.47,206.16a708.74,708.74,0,0,1,3.93,80.28,647.28,647.28,0,0,1-67-43.79A543.63,543.63,0,0,0,3050.47,206.16Z" transform="translate(0 -46.94)"/></g></g></g></svg>