<?xml version="1.0" encoding="utf-8"?>
<!-- Generator: Adobe Illustrator 22.0.1, SVG Export Plug-In . SVG Version: 6.00 Build 0)  -->
<svg version="1.1" id="Слой_1" xmlns="http://www.w3.org/2000/svg" xmlns:xlink="http://www.w3.org/1999/xlink" x="0px" y="0px"
	 viewBox="0 0 1842.4 538.7" style="enable-background:new 0 0 1842.4 538.7;" xml:space="preserve">
<style type="text/css">
	.st0{fill:#D6D6D6;}
</style>
<g>
	<polygon class="st0" points="1752.7,101.4 1766.2,99.2 1773,86.9 1777.6,100 1793.1,101.6 1780.7,109.5 1785.3,125.3 1771.4,117.5 
		1760.3,125.2 1763.3,111 	"/>
	<polygon class="st0" points="1187.3,57.4 1201.9,55 1209.4,41.5 1214.4,55.8 1231.3,57.6 1217.8,66.1 1222.8,83.4 1207.6,74.9 
		1195.6,83.3 1198.8,67.8 	"/>
	<polygon class="st0" points="49.4,388.3 64,385.9 71.5,372.4 76.5,386.8 93.4,388.6 79.9,397.1 84.9,414.4 69.7,405.8 57.7,414.3 
		60.9,398.7 	"/>
	<polygon class="st0" points="141.3,174 156,171.6 163.4,158.1 168.4,172.4 185.3,174.2 171.8,182.8 176.8,200.1 161.7,191.5 
		149.6,200 152.8,184.4 	"/>
	<polygon class="st0" points="613.4,48.7 628,46.3 635.5,32.8 640.5,47.1 657.4,48.9 643.9,57.4 648.9,74.7 633.8,66.1 621.7,74.6 
		624.9,59.1 	"/>
	<polygon class="st0" points="1605.4,334 1620,331.6 1627.5,318.2 1632.5,332.5 1649.4,334.3 1635.9,342.8 1640.9,360.1 
		1625.8,351.5 1613.7,360 1616.9,344.4 	"/>
</g>
</svg>
