<?xml version="1.0" encoding="utf-8"?>
<!-- Generator: Adobe Illustrator 22.0.1, SVG Export Plug-In . SVG Version: 6.00 Build 0)  -->
<svg version="1.1" id="Слой_1" xmlns="http://www.w3.org/2000/svg" xmlns:xlink="http://www.w3.org/1999/xlink" x="0px" y="0px"
	 viewBox="0 0 1900.4 956.7" style="enable-background:new 0 0 1900.4 956.7;" xml:space="preserve">
<style type="text/css">
	.st0{fill:#3763DD;}
	.st1{opacity:0.3;}
	.st2{fill:#FFFFFF;}
	.st3{fill:#D6D6D6;}
</style>
<g>
	<g>
		<polygon class="st3" points="60.2,20.7 77.1,17.9 85.6,2.4 91.4,18.8 110.8,20.9 95.3,30.7 101,50.6 83.6,40.7 69.8,50.4 
			73.5,32.6 		"/>
		<polygon class="st3" points="212.8,36.3 223.6,34.5 229.1,24.5 232.8,35.1 245.2,36.4 235.3,42.7 239,55.5 227.8,49.1 218.9,55.4 
			221.3,43.9 		"/>
		<polygon class="st3" points="161.3,199.9 172.1,198.1 177.6,188.2 181.3,198.7 193.7,200 183.8,206.3 187.5,219.1 176.3,212.8 
			167.4,219 169.8,207.5 		"/>
		<polygon class="st3" points="1153.8,492.3 1164.6,490.5 1170.1,480.5 1173.8,491.1 1186.2,492.4 1176.3,498.7 1180,511.5 
			1168.8,505.1 1159.9,511.4 1162.3,499.9 		"/>
		<polygon class="st3" points="1609.7,101.1 1620.5,99.3 1626,89.4 1629.7,99.9 1642.2,101.2 1632.2,107.5 1635.9,120.3 1624.8,114 
			1615.8,120.2 1618.2,108.7 		"/>
		<polygon class="st3" points="917.8,132 928.6,130.2 934.1,120.3 937.7,130.8 950.2,132.2 940.2,138.5 943.9,151.2 932.8,144.9 
			923.9,151.1 926.3,139.7 		"/>
		<polygon class="st3" points="245.2,459.1 256,457.4 261.5,447.4 265.2,458 277.7,459.3 267.7,465.6 271.4,478.3 260.3,472 
			251.4,478.3 253.7,466.8 		"/>
		<polygon class="st3" points="212.8,807.5 223.6,805.8 229.1,795.8 232.8,806.4 245.2,807.7 235.3,814 239,826.7 227.8,820.4 
			218.9,826.7 221.3,815.2 		"/>
		<polygon class="st3" points="787.6,792.1 798.4,790.3 803.8,780.4 807.5,790.9 820,792.2 810,798.5 813.7,811.3 802.6,805 
			793.7,811.2 796.1,799.7 		"/>
	</g>
	<g>
		<polygon class="st3" points="1713.2,535.7 1730.1,532.9 1738.6,517.4 1744.4,533.8 1763.8,535.9 1748.3,545.7 1754,565.6 
			1736.6,555.7 1722.8,565.4 1726.5,547.6 		"/>
		<polygon class="st3" points="1577.3,707.9 1588.1,706.1 1593.6,696.2 1597.3,706.7 1609.7,708 1599.8,714.3 1603.5,727.1 
			1592.3,720.8 1583.4,727 1585.8,715.5 		"/>
		<polygon class="st3" points="1750.5,893.2 1766.9,890.5 1775.2,875.5 1780.8,891.5 1799.7,893.5 1784.6,903 1790.2,922.3 
			1773.3,912.7 1759.8,922.2 1763.4,904.8 		"/>
	</g>
</g>
<polygon class="st3" points="613.8,433 630.6,430.2 639.2,414.7 645,431.1 664.4,433.2 648.8,443 654.6,462.9 637.2,453 
	623.4,462.7 627.1,444.9 "/>
<polygon class="st3" points="1406.9,287.9 1423.8,285.1 1432.3,269.7 1438.1,286.1 1457.5,288.2 1442,298 1447.7,317.8 1430.3,308 
	1416.5,317.7 1420.2,299.9 "/>
<polygon class="st3" points="549.7,83.5 566.5,80.8 575.1,65.3 580.8,81.7 600.3,83.8 584.7,93.6 590.5,113.5 573.1,103.6 
	559.2,113.3 562.9,95.5 "/>
</svg>
