<?xml version="1.0" encoding="utf-8"?>
<!-- Generator: Adobe Illustrator 22.0.1, SVG Export Plug-In . SVG Version: 6.00 Build 0)  -->
<svg version="1.1" id="Слой_1" xmlns="http://www.w3.org/2000/svg" xmlns:xlink="http://www.w3.org/1999/xlink" x="0px" y="0px"
	 viewBox="0 0 1842.4 260.7" style="enable-background:new 0 0 1842.4 260.7;" xml:space="preserve">
<style type="text/css">
	.st0{fill:#D6D6D6;}
</style>
<polygon class="st0" points="1493.8,195.2 1508.4,192.8 1515.9,179.3 1520.9,193.6 1537.8,195.4 1524.3,203.9 1529.3,221.2 
	1514.1,212.6 1502.1,221.1 1505.3,205.6 "/>
<polygon class="st0" points="1764.2,53.2 1778.9,50.8 1786.3,37.3 1791.3,51.6 1808.3,53.4 1794.7,61.9 1799.7,79.2 1784.6,70.6 
	1772.5,79.1 1775.8,63.6 "/>
<polygon class="st0" points="387.3,221.2 402,218.8 409.4,205.3 414.4,219.6 431.3,221.4 417.8,229.9 422.8,247.2 407.7,238.6 
	395.6,247.1 398.8,231.6 "/>
<polygon class="st0" points="159.3,33.7 174,31.3 181.4,17.8 186.4,32.1 203.3,33.9 189.8,42.4 194.8,59.7 179.7,51.1 167.6,59.6 
	170.8,44.1 "/>
<polygon class="st0" points="54.8,212.1 69.4,209.6 76.8,196.2 81.8,210.5 98.8,212.3 85.2,220.8 90.2,238.1 75.1,229.5 63,238 
	66.3,222.4 "/>
</svg>
