<?xml version="1.0" encoding="utf-8"?>
<!-- Generator: Adobe Illustrator 22.0.1, SVG Export Plug-In . SVG Version: 6.00 Build 0)  -->
<svg version="1.1" id="Слой_1" xmlns="http://www.w3.org/2000/svg" xmlns:xlink="http://www.w3.org/1999/xlink" x="0px" y="0px"
	 viewBox="0 0 1832 500" style="enable-background:new 0 0 1832 500;" xml:space="preserve">
<style type="text/css">
	.st0{fill:#D6D6D6;}
</style>
<g>
	<g>
		<path class="st0" d="M87,286.6c1,1.3,1.4,3,1.4,4.9c1.8,2.8,1.6,7.1-0.5,11.7c-0.9,2.1-1.9,4.1-2.9,6.1l0.1,0
			c0.8,0.5,1.7,0.9,2.8,1.6c0.3,0,0.7,0.1,0.9,0.3c1.1,0.7,2.1,1.3,3.2,2.1c0.7,0.4,1.1,1.3,1.3,2.2c0.1-0.1,0.1-0.1,0.2-0.2
			c1.4-0.9,2.9-1.1,4.2-0.7c1.6,0.4,2.8,1.7,3.2,3.4c0.3,0.9,0.5,2,0.6,3.3c0.3,0.4,0.5,0.9,0.6,1.4c0.5,2,1.2,5.1-0.5,8.6
			c-0.2,0.5-0.4,0.8-0.6,1.2c-2,3.2-5.1,5.1-7.9,4.8c-2.4-0.2-4.2-1.7-5-4.2c-0.3-0.9-0.5-1.7-0.4-2.7c-1.3,0.6-2.5,0.9-3.7,0.7
			c-0.3,0-0.6-0.1-0.8-0.2c0,0,0,0-0.1,0l-1.1,1.4l-2.4-1.3c-5.1-2.7-8.8-4.7-13.6-8.2l-0.8-0.6l-0.2-1.2c0-0.2,0-0.3,0-0.4
			c0-0.2-0.2-0.2-0.3-0.4c-0.3-0.6-0.6-1.5-0.4-2.4l-0.3-0.2l-0.1-1.2c0-0.2,0-0.3,0-0.4c-0.1-0.2-0.2-0.3-0.3-0.4
			c-0.5-0.9-0.7-2-0.3-3.2c-0.3,0.3-0.5,0.6-0.7,0.8c-0.7,0.8-1.5,1.6-2.3,2.6c-0.6,0.9-1.5,1.5-2.3,2l-1.6,1l-1.2-0.7
			c-1.4-0.9-2.5-2.1-3.4-3.2l-0.6-0.6c-0.4-0.1-0.7-0.3-1.1-0.5c-1.1-1-1.5-2.7-0.8-4.5c-0.1,0-0.2-0.1-0.3-0.2
			c-1.5-1.2-1.5-3.6-0.3-5.7c0.1-0.1,0.2-0.3,0.3-0.4c7.2-9.7,16.3-16.6,25-18.9c1.5-0.5,3-0.9,4.2-0.9
			C82.1,282.5,85.1,283.7,87,286.6z M77.7,286.5c-1.1,0.1-2.3,0.4-3.6,0.9c-8.5,2.3-16.8,9.2-22.8,17.3c-0.7,1,0.2,1.8,0.9,0.9
			c2.8-3.4,5.9-6.3,9.2-8.5c-1.7,1.5-3.3,3-5.2,4.6c0,0.6,0,1,0.2,1.4c-1.2,1.3-2.6,2.7-3.3,4.3c0.7,1,1.6,2,2.8,2.6
			c0.3-0.2,0.7-0.5,1.1-1c2.4-2.5,4.6-5.3,7.3-7.6c0,0,0,0,0.1-0.1c0.1-0.1,0.2-0.2,0.3-0.2c3.1-2.6,6.5-4.5,10.1-5.8
			c0.6-0.2,1.8-0.6,2.5-0.6c-0.3,2.5-3.3,6.3-4.4,8.1c-2,3.1-4.2,6-6.5,9c-0.3,0.4-0.4,0.9-0.3,1.3c0.2,0.3,0.4,0.7,0.7,0.9
			c0,0.3,0,0.4-0.1,0.7c0,0.1,0,0.3,0.1,0.5c4.8,3.5,8.5,5.5,13.8,8.3c0.1-0.2,0.3-0.4,0.4-0.6c-0.1,0,0-0.1,0.1-0.1
			c0.3,0,0.6,0.1,0.8,0.2c0.4,0,0.7,0,1-0.1c0.4,0.1,0.7,0.3,0.8,0.4c0.8,0.1,1.6-0.2,2.4-0.7c1.7-0.8,2.8-2.8,3.7-4.5
			c0.3-0.5,0.3-1.3-0.1-1.4c-1.1-0.7-2.1-1.3-3.1-1.9c-0.2-0.1-0.2-0.1-0.4-0.1c-2.6-1.5-3.8-2-6.5-3.6c-0.7-0.4-1.3,0.9-0.6,1.3
			c0.8,0.5,1.5,0.9,2.3,1.4c-1.4-0.7-2.8-1.4-4.2-2c-0.2-0.1-0.4-0.1-0.7-0.1c0.3-0.4,0.4-0.9,0.7-1.3c0.9-1.3,1.7-2.8,2.5-4.2
			c1.6-2.7,3.1-5.5,4.3-8.3c1.1-2.7,2-6.4,0.4-8.5C82.9,287,80.6,286.1,77.7,286.5z M76.2,295.9c-0.1,0.2-0.3,0.4-0.5,0.4
			c-0.2,0-0.4,0-0.7,0.1c-4.7,2.2-9.7,5.1-14,9.1C65.4,301,70.7,297.4,76.2,295.9z M94.2,318.5c-0.6,0.3-1.2,0.8-1.8,1.4
			c-0.7,0-1.7,0.5-2.1,1.3c-1.7,3.4-0.7,7.6,2.6,8.1c1.9,0.2,3.8-1.5,4.8-3.4c0.9-2,0.7-4.1,0.1-5.9
			C97.5,318.5,95.8,317.5,94.2,318.5z"/>
	</g>
	<g>
		<path class="st0" d="M521.4,63.5c-0.8-1.4-1-3.1-0.8-5.1c-1.4-3-0.8-7.2,1.9-11.6c1.1-2,2.4-3.8,3.6-5.7l-0.1-0.1
			c-0.8-0.6-1.5-1.1-2.6-1.9c-0.3-0.1-0.6-0.2-0.9-0.4c-1-0.8-2-1.6-2.9-2.5c-0.6-0.5-1-1.4-1-2.3c-0.1,0.1-0.1,0.1-0.2,0.1
			c-1.5,0.7-3,0.7-4.2,0.2c-1.6-0.6-2.6-2-2.8-3.8c-0.2-0.9-0.3-2.1-0.2-3.4c-0.2-0.5-0.4-0.9-0.5-1.4c-0.3-2.1-0.6-5.2,1.5-8.5
			c0.2-0.4,0.5-0.7,0.8-1.1c2.3-2.9,5.7-4.4,8.4-3.8c2.4,0.5,4,2.2,4.4,4.7c0.2,0.9,0.3,1.8,0.1,2.7c1.4-0.4,2.6-0.6,3.7-0.3
			c0.3,0.1,0.6,0.1,0.8,0.3c0,0,0,0,0.1,0.1l1.3-1.3l2.2,1.6c4.7,3.3,8.2,5.7,12.5,9.8l0.7,0.7l0,1.3c0,0.2,0,0.3,0,0.5
			s0.1,0.3,0.2,0.5c0.3,0.7,0.4,1.5,0.1,2.4l0.3,0.2l0,1.2c0,0.2,0,0.3,0,0.5c0.1,0.2,0.2,0.3,0.2,0.5c0.4,0.9,0.4,2,0,3.2
			c0.3-0.2,0.5-0.5,0.8-0.7c0.8-0.7,1.7-1.4,2.6-2.3c0.7-0.8,1.6-1.3,2.5-1.7l1.7-0.8l1.1,0.9c1.3,1.1,2.2,2.4,3,3.6l0.5,0.7
			c0.4,0.1,0.6,0.3,1,0.6c1,1.1,1.1,2.9,0.3,4.5c0.1,0.1,0.2,0.2,0.3,0.2c1.3,1.4,1.1,3.8-0.4,5.7c-0.1,0.1-0.2,0.3-0.3,0.4
			c-8.3,8.8-18.1,14.6-27,15.9c-1.5,0.3-3,0.5-4.3,0.4C525.9,68.1,523,66.6,521.4,63.5z M518,30.9c0.7-0.3,1.3-0.7,2-1.2
			c0.7,0.1,1.7-0.3,2.2-1c2-3.2,1.6-7.5-1.6-8.3c-1.9-0.4-4,1-5.2,2.8c-1.1,1.9-1.1,4-0.8,5.8C514.8,30.5,516.4,31.7,518,30.9z
			 M530.8,64.7c1.2,0,2.4-0.1,3.7-0.5c8.7-1.3,17.8-7.2,24.7-14.5c0.8-0.9,0-1.9-0.8-1c-3.2,3-6.6,5.5-10.2,7.4
			c1.8-1.3,3.7-2.6,5.7-4c0.1-0.5,0.1-1,0-1.4c1.3-1.1,2.9-2.3,3.8-3.9c-0.6-1.1-1.4-2.2-2.5-2.9c-0.4,0.2-0.8,0.4-1.2,0.9
			c-2.7,2.2-5.2,4.7-8.1,6.7c0,0,0,0-0.1,0.1c-0.1,0-0.2,0.1-0.4,0.2c-3.4,2.3-7,3.7-10.7,4.6c-0.6,0.2-1.9,0.4-2.6,0.3
			c0.6-2.5,4-5.9,5.3-7.5c2.4-2.9,4.9-5.5,7.5-8.2c0.4-0.3,0.5-0.9,0.4-1.2c-0.2-0.3-0.3-0.7-0.6-0.9c0.1-0.2,0.1-0.4,0.2-0.6
			c0-0.2,0-0.3-0.1-0.5c-4.4-4.1-7.8-6.4-12.7-9.9c-0.1,0.2-0.3,0.4-0.4,0.6c0.1,0.1,0,0.1-0.1,0.1c-0.3-0.1-0.6-0.1-0.8-0.3
			c-0.4,0-0.7-0.1-1,0c-0.4-0.2-0.6-0.3-0.8-0.5c-0.8-0.2-1.6,0-2.5,0.4c-1.7,0.6-3.1,2.5-4.2,4c-0.4,0.5-0.4,1.2-0.1,1.4
			c1,0.8,1.9,1.5,2.9,2.3c0.1,0.1,0.2,0.2,0.4,0.2c2.5,1.8,3.5,2.5,6,4.3c0.6,0.5,1.4-0.7,0.8-1.2c-0.7-0.6-1.4-1.1-2.1-1.7
			c1.3,0.9,2.6,1.7,3.9,2.5c0.2,0.2,0.4,0.2,0.6,0.2c-0.3,0.4-0.5,0.8-0.8,1.2c-1,1.2-2,2.6-2.9,3.8c-1.9,2.5-3.7,5.1-5.2,7.7
			c-1.4,2.5-2.7,6.2-1.4,8.4C525.6,63.5,527.8,64.7,530.8,64.7z M533.3,55.5c0.1-0.2,0.4-0.3,0.5-0.4c0.2,0,0.4,0,0.7,0
			c4.9-1.6,10.2-4,15-7.4C544.7,51.7,538.9,54.7,533.3,55.5z"/>
	</g>
	<g>
		<path class="st0" d="M595.8,488.2c-1.6,0-3.2-0.7-4.7-2c-3.3-0.3-6.6-3.1-8.9-7.7c-1.1-2-2-4-3-6.1l-0.1,0c-0.9,0.3-1.7,0.8-3,1.2
			c-0.2,0.2-0.5,0.4-0.8,0.5c-1.2,0.4-2.3,0.9-3.6,1.2c-0.8,0.3-1.7,0.1-2.5-0.4c0,0.1,0,0.1,0,0.3c-0.2,1.6-0.9,2.9-2.1,3.7
			c-1.3,1-3.1,1.1-4.7,0.4c-0.9-0.3-1.9-0.8-3-1.6c-0.5-0.1-1-0.1-1.5-0.4c-1.9-0.8-4.7-2.3-6.5-5.7c-0.3-0.4-0.4-0.8-0.5-1.2
			c-1.3-3.5-0.8-7.2,1.1-9.2c1.6-1.8,3.9-2.2,6.4-1.3c0.9,0.3,1.7,0.7,2.4,1.3c0.3-1.4,0.9-2.5,1.7-3.3c0.2-0.2,0.4-0.4,0.7-0.5
			c0,0,0,0,0.1,0l-0.5-1.8l2.6-1.1c5.2-2.3,9.1-4,14.9-5.6l1-0.2l1.1,0.6c0.1,0.1,0.3,0.2,0.4,0.2c0.1,0.1,0.3,0,0.5,0.1
			c0.7,0.1,1.5,0.5,2.1,1.1l0.3-0.1l1,0.7c0.1,0.1,0.3,0.2,0.4,0.2c0.2,0.1,0.4,0,0.5,0.1c1,0.1,2,0.7,2.7,1.7
			c0-0.4-0.2-0.7-0.2-1.1c-0.2-1.1-0.3-2.2-0.6-3.4c-0.3-1-0.3-2.1-0.2-3l0.2-1.9l1.3-0.5c1.6-0.6,3.2-0.7,4.6-0.7l0.8-0.1
			c0.3-0.2,0.6-0.4,1-0.5c1.4-0.3,3.1,0.6,4,2.1c0.1,0,0.3-0.1,0.3-0.1c1.8-0.4,3.8,1,4.6,3.3c0,0.1,0.1,0.3,0.2,0.5
			c3.2,11.7,3,23.1-0.6,31.3c-0.5,1.5-1.1,2.9-1.9,3.9C602,486.8,599.2,488.4,595.8,488.2z M566.2,474c0.1-0.7,0.1-1.5,0-2.3
			c0.5-0.6,0.6-1.6,0.3-2.4c-1.6-3.4-5.6-5.3-8-3c-1.3,1.4-1.2,3.9-0.3,5.9c1,1.9,2.8,3.1,4.5,3.7
			C564.2,476.6,566.1,475.9,566.2,474z M601.7,480.9c0.6-1,1.1-2.1,1.5-3.4c3.5-8.1,3.2-18.9,0.5-28.6c-0.3-1.2-1.6-1-1.3,0.2
			c0.9,4.3,1.2,8.6,1,12.5c-0.2-2.3-0.3-4.5-0.4-6.9c-0.4-0.4-0.8-0.6-1.2-0.7c-0.2-1.7-0.5-3.7-1.4-5.3c-1.3-0.1-2.6,0-3.8,0.6
			c0,0.4,0,0.9,0.2,1.5c0.5,3.4,1.3,6.9,1.4,10.4c0,0,0,0,0,0.1c0,0.1,0,0.3,0,0.4c0.2,4.1-0.5,7.9-1.7,11.5
			c-0.2,0.6-0.7,1.8-1.1,2.3c-1.8-1.8-3-6.5-3.7-8.4c-1.2-3.5-2.1-7.1-3.1-10.7c-0.1-0.5-0.5-0.8-0.8-1c-0.4,0-0.8-0.1-1.1,0
			c-0.2-0.2-0.3-0.3-0.5-0.5c-0.1-0.1-0.3-0.2-0.5-0.2c-5.8,1.6-9.6,3.2-15.1,5.7c0.1,0.2,0.2,0.5,0.3,0.7c0.1,0,0.1,0.1,0,0.1
			c-0.2,0.2-0.4,0.4-0.7,0.5c-0.3,0.3-0.5,0.6-0.5,0.8c-0.4,0.3-0.6,0.4-0.8,0.4c-0.5,0.6-0.8,1.3-1,2.3c-0.4,1.8,0.5,3.9,1.2,5.7
			c0.2,0.6,0.8,1,1.2,0.9c1.2-0.4,2.3-0.8,3.4-1.3c0.2-0.1,0.3-0.1,0.4-0.3c2.8-1.2,3.9-1.7,6.8-2.9c0.8-0.3,0.1-1.6-0.7-1.3
			c-0.8,0.3-1.7,0.6-2.5,0.9c1.5-0.7,2.9-1.3,4.2-2.1c0.3-0.1,0.4-0.3,0.5-0.4c0.2,0.5,0.4,0.9,0.6,1.3c0.5,1.5,1.1,3.1,1.7,4.5
			c1.2,2.9,2.4,5.8,3.9,8.5c1.4,2.6,3.8,5.5,6.4,5.6C598,484.6,600.1,483.4,601.7,480.9z M595.2,473.8c-0.1-0.2-0.1-0.5,0-0.6
			c0.1-0.2,0.3-0.3,0.3-0.6c1.2-5.1,2-10.7,1.5-16.6C597.9,462.2,597.4,468.7,595.2,473.8z"/>
	</g>
	<g>
		<path class="st0" d="M1586.7,72c1.6-0.3,3.3,0.1,5,1.1c3.3-0.3,7,1.8,10.2,5.9c1.5,1.8,2.8,3.6,4.1,5.4l0.1,0
			c0.8-0.5,1.5-1.1,2.7-1.8c0.2-0.2,0.4-0.5,0.6-0.7c1.1-0.6,2.1-1.3,3.4-1.9c0.7-0.4,1.6-0.4,2.5-0.1c-0.1-0.1-0.1-0.1,0-0.3
			c-0.1-1.6,0.4-3,1.3-4c1.1-1.2,2.8-1.7,4.5-1.3c0.9,0.2,2,0.5,3.2,1c0.5,0,1,0,1.5,0.1c2,0.5,5.1,1.3,7.4,4.4
			c0.3,0.4,0.5,0.7,0.8,1.1c1.9,3.2,2.1,6.9,0.6,9.2c-1.3,2-3.5,2.9-6,2.5c-0.9-0.2-1.8-0.3-2.6-0.8c-0.1,1.4-0.4,2.6-1.1,3.6
			c-0.2,0.2-0.3,0.5-0.6,0.6c0,0,0,0-0.1,0l0.8,1.6l-2.3,1.5c-4.7,3.2-8.2,5.6-13.6,8.3l-0.9,0.4l-1.2-0.4c-0.1-0.1-0.3-0.1-0.4-0.2
			c-0.1-0.1-0.3,0-0.5,0c-0.7,0-1.6-0.2-2.3-0.7l-0.3,0.2l-1.1-0.5c-0.1-0.1-0.3-0.1-0.4-0.2c-0.2,0-0.4,0.1-0.5,0
			c-1,0-2.1-0.3-3-1.2c0.1,0.4,0.3,0.7,0.4,1c0.4,1,0.7,2.1,1.2,3.2c0.5,1,0.7,2,0.7,2.9l0.2,1.9l-1.2,0.7c-1.5,0.9-3,1.2-4.4,1.5
			l-0.8,0.2c-0.2,0.3-0.6,0.5-0.9,0.7c-1.3,0.5-3.1,0-4.3-1.3c-0.1,0-0.2,0.1-0.3,0.2c-1.7,0.8-3.9-0.3-5.2-2.4
			c-0.1-0.1-0.2-0.3-0.2-0.4c-5.3-10.9-7.2-22.1-5.3-30.9c0.2-1.5,0.6-3,1.1-4.2C1580.8,74.6,1583.3,72.4,1586.7,72z M1582.3,80.3
			c-0.4,1.1-0.7,2.3-0.9,3.6c-1.9,8.6,0.4,19.2,4.8,28.2c0.5,1.1,1.7,0.6,1.2-0.4c-1.7-4.1-2.8-8.2-3.3-12.1
			c0.6,2.2,1.2,4.4,1.7,6.7c0.5,0.3,0.9,0.5,1.3,0.5c0.6,1.6,1.2,3.5,2.3,4.9c1.2-0.2,2.5-0.5,3.6-1.3c0-0.4-0.1-0.9-0.4-1.4
			c-1.1-3.3-2.5-6.5-3.4-10c0,0,0,0-0.1-0.1c0-0.1,0-0.3,0-0.4c-0.9-4-1-7.9-0.5-11.7c0.1-0.6,0.3-1.9,0.7-2.5
			c2.1,1.4,4.1,5.8,5.2,7.6c1.8,3.3,3.4,6.6,5,9.9c0.2,0.5,0.6,0.7,1,0.8c0.4-0.1,0.8-0.1,1.1-0.2c0.2,0.2,0.3,0.2,0.5,0.4
			c0.1,0.1,0.3,0.1,0.5,0.1c5.4-2.7,8.8-5,13.7-8.4c-0.1-0.2-0.2-0.4-0.4-0.6c-0.1,0-0.1-0.1-0.1-0.1c0.2-0.2,0.3-0.5,0.6-0.6
			c0.2-0.4,0.4-0.6,0.4-0.9c0.3-0.3,0.6-0.5,0.7-0.6c0.4-0.7,0.6-1.5,0.5-2.4c0-1.9-1.2-3.8-2.3-5.4c-0.3-0.5-1-0.8-1.3-0.6
			c-1.1,0.6-2.1,1.2-3.1,1.9c-0.2,0.1-0.2,0.1-0.3,0.3c-2.5,1.7-3.6,2.4-6.2,4.1c-0.7,0.4,0.2,1.6,0.9,1.2c0.8-0.5,1.5-0.9,2.3-1.4
			c-1.3,0.9-2.6,1.8-3.7,2.8c-0.2,0.1-0.3,0.3-0.4,0.5c-0.2-0.4-0.6-0.8-0.8-1.2c-0.7-1.4-1.7-2.8-2.6-4.1c-1.7-2.6-3.5-5.3-5.4-7.6
			c-1.9-2.3-4.8-4.7-7.4-4.3C1585.2,75.9,1583.4,77.6,1582.3,80.3z M1590,86c0.1,0.2,0.2,0.5,0.2,0.6c-0.1,0.2-0.2,0.4-0.2,0.7
			c-0.2,5.2,0.1,10.9,1.6,16.6C1589.5,97.9,1588.8,91.5,1590,86z M1618.4,80.4c0,0.7,0.1,1.5,0.4,2.3c-0.4,0.6-0.3,1.7,0.2,2.4
			c2.2,3,6.4,4.2,8.4,1.5c1-1.6,0.5-4.1-0.8-5.9c-1.3-1.7-3.4-2.5-5.1-2.8C1619.9,77.5,1618.2,78.5,1618.4,80.4z"/>
	</g>
	<g>
		<path class="st0" d="M1744.3,397.2c-0.6,1.5-1.8,2.8-3.5,3.8c-1.4,2.9-5.2,5.1-10.3,5.7c-2.3,0.4-4.5,0.5-6.8,0.7v0.1
			c0,1,0.1,1.9,0.1,3.2c0.1,0.3,0.2,0.6,0.2,0.9c0,1.3,0,2.5-0.1,3.8c0,0.8-0.5,1.6-1.2,2.2c0.1,0,0.1,0,0.2,0.1
			c1.4,0.7,2.4,1.9,2.8,3.2c0.5,1.6,0,3.3-1.2,4.6c-0.6,0.7-1.4,1.5-2.5,2.2c-0.2,0.4-0.5,0.9-0.8,1.3c-1.4,1.5-3.7,3.7-7.6,4.1
			c-0.5,0.1-0.8,0.1-1.3,0.1c-3.7,0-7-1.7-8.2-4.2c-1.1-2.1-0.7-4.5,1-6.4c0.6-0.7,1.2-1.3,2.1-1.8c-1.2-0.8-2.1-1.7-2.5-2.8
			c-0.1-0.3-0.2-0.5-0.2-0.8c0,0,0,0,0-0.1l-1.8-0.2l-0.1-2.8c-0.4-5.7-0.6-9.9-0.1-15.9l0.1-1l1-0.8c0.1-0.1,0.2-0.2,0.4-0.3
			c0.1-0.1,0.1-0.3,0.2-0.4c0.4-0.6,1-1.3,1.8-1.6v-0.4l1-0.7c0.1-0.1,0.2-0.2,0.4-0.3c0.1-0.2,0.1-0.4,0.2-0.4
			c0.5-0.9,1.3-1.6,2.5-2c-0.4-0.1-0.7-0.1-1.1-0.2c-1.1-0.2-2.2-0.4-3.4-0.6c-1.1-0.1-2.1-0.4-2.9-0.9l-1.7-0.8v-1.4
			c0-1.7,0.5-3.2,1-4.6l0.2-0.8c-0.1-0.4-0.1-0.7-0.1-1.2c0.2-1.4,1.6-2.7,3.4-3c0-0.1,0-0.3,0-0.4c0.2-1.9,2.3-3.2,4.7-3.2
			c0.1,0,0.4,0,0.5,0c12.1,1.1,22.7,5.2,29.2,11.3c1.2,1,2.3,2.1,3,3.1C1745.2,390.9,1745.8,394.1,1744.3,397.2z M1739.5,389.2
			c-0.7-0.9-1.6-1.8-2.7-2.6c-6.4-6.1-16.7-9.5-26.7-10.4c-1.2-0.1-1.4,1.2-0.2,1.3c4.3,0.6,8.5,1.8,12.1,3.4
			c-2.2-0.6-4.3-1.3-6.6-2c-0.5,0.3-0.8,0.5-1.1,0.9c-1.7-0.4-3.6-0.8-5.4-0.5c-0.5,1.2-0.8,2.4-0.7,3.8c0.4,0.2,0.8,0.4,1.4,0.4
			c3.4,0.7,6.9,1.2,10.3,2.2c0,0,0,0,0.1,0c0.1,0.1,0.2,0.1,0.4,0.2c3.9,1.3,7.2,3.2,10.3,5.5c0.5,0.4,1.4,1.3,1.8,1.9
			c-2.3,1.1-7.1,0.5-9.2,0.5c-3.7-0.1-7.4-0.4-11.1-0.8c-0.5-0.1-1,0.2-1.2,0.4c-0.1,0.4-0.4,0.7-0.4,1.1c-0.2,0.1-0.4,0.2-0.6,0.3
			c-0.1,0.1-0.2,0.2-0.4,0.4c-0.5,6-0.2,10.1,0.1,16.1c0.2,0,0.5,0,0.7,0c0-0.1,0.1-0.1,0.1,0c0.1,0.3,0.2,0.5,0.2,0.8
			c0.2,0.4,0.4,0.6,0.6,0.8c0.1,0.4,0.1,0.7,0.1,0.9c0.4,0.7,1,1.3,1.8,1.7c1.6,1,3.9,0.9,5.8,0.8c0.6,0,1.2-0.4,1.2-0.8
			c0-1.3,0-2.4,0-3.7c0-0.2,0-0.3-0.1-0.4c-0.1-3-0.2-4.3-0.4-7.4c0-0.8-1.4-0.6-1.4,0.2c0,0.9,0,1.8,0,2.7
			c-0.1-1.6-0.2-3.1-0.5-4.6c0-0.3-0.1-0.4-0.2-0.6c0.5,0,1-0.1,1.4-0.1c1.6,0.1,3.3,0,4.8-0.1c3.1-0.1,6.3-0.3,9.3-0.7
			c2.9-0.4,6.5-1.7,7.5-4.1C1741.8,393.9,1741.3,391.5,1739.5,389.2z M1720.9,420.1c-0.6-0.4-1.3-0.6-2.2-0.8
			c-0.4-0.6-1.3-1.2-2.2-1.1c-3.7,0.4-6.9,3.4-5.6,6.4c0.8,1.7,3.3,2.5,5.4,2.3c2.2-0.3,3.9-1.6,5.1-2.9
			C1722.6,422.9,1722.6,420.9,1720.9,420.1z M1730.7,392.8c-0.2,0-0.5-0.1-0.6-0.2c-0.1-0.2-0.2-0.4-0.5-0.5
			c-4.3-2.9-9.4-5.5-15.1-7.1C1720.7,386.3,1726.6,389,1730.7,392.8z"/>
	</g>
</g>
</svg>
