<svg xmlns="http://www.w3.org/2000/svg" viewBox="0 0 1732.23 568.71"><defs><style>.cls-1{fill:#80ba9c;}.cls-2{fill:#635128;}.cls-3{fill:#6b8c46;}.cls-4{fill:#557135;}.cls-5{fill:#dbc95d;}.cls-6{fill:#8f3d1f;}.cls-7{fill:#cae977;}.cls-8{fill:#7da266;}</style></defs><title>illustration-2</title><g id="Слой_2" data-name="Слой 2"><g id="section-2_о_лагере" data-name="section-2 о лагере"><path class="cls-1" d="M58,158.51s-11,7.91-18.32-2.73c0,0-12.19,3-14.93-8.21,0,0-14.63-1.21-14-12.46,0,0-17.67-8.51-6.09-24.62,0,0-11.28-10,1.52-21.28,0,0-9.75-14.59,7.31-18.85C13.42,70.35,14.95,53,32,57c0,0,4.57-14.59,21-9.12,0,0,14.78-11,23.16,3.65,0,0,16.15-2.13,19.2,11.25,0,0,15.54,2.13,14,17.63,0,0,11.93,10.94,4.31,24,0,0,7.6,21.77-8.88,23.71A14.94,14.94,0,0,1,95.61,142s-1.74,11.64-12.1,9.81c0,0-7.92,8.82-13.71,4Z"/><path class="cls-2" d="M39.63,130.47s17.06,1.77,18.28,10.6-1.83,80.1-1.83,80.1H74.37s-7.92-80.1-5.18-85.91,11.58-9.09,11.58-9.09-10.06-.25-13.41,2.78-7.62,3.79-12.19,3S46,130,39.63,130.47Z"/><polygon class="cls-2" points="1634.26 430.19 1631.57 430.54 1628.88 430.19 1624.18 498.85 1631.57 498.85 1638.96 498.85 1634.26 430.19"/><polygon class="cls-3" points="1666.5 446.08 1670.38 446.08 1661.51 425.82 1666.5 425.82 1659.29 409.8 1663.72 409.8 1653.75 394.32 1659.85 394.32 1649.87 374.43 1653.75 374.43 1645.98 356.94 1651.53 356.94 1642.66 341.83 1648.76 341.83 1638.22 326.92 1643.21 326.92 1631.57 301.5 1619.93 326.92 1624.91 326.92 1614.38 341.83 1620.48 341.83 1611.61 356.94 1617.15 356.94 1609.39 374.43 1613.27 374.43 1603.29 394.32 1609.39 394.32 1599.41 409.8 1603.85 409.8 1596.64 425.82 1601.63 425.82 1592.76 446.08 1596.64 446.08 1587.21 464.5 1631.57 464.5 1675.92 464.5 1666.5 446.08"/><path class="cls-4" d="M1675.92,464.5l-9.43-18.42h3.88l-8.87-20.26h5l-7.21-16h4.44l-10-15.47h6.1l-10-19.89h3.88l-7.76-17.5h5.54l-8.87-15.1h6.1l-10.53-14.92h5l-11.64-25.42c8.39,77.34,0,129-13.1,144.21s-31.26,18.79-31.26,18.79h88.71Z"/><polygon class="cls-2" points="1575.76 472.75 1572.44 473.17 1569.14 472.75 1563.35 557.25 1572.44 557.25 1581.54 557.25 1575.76 472.75"/><polygon class="cls-3" points="1615.44 492.31 1620.21 492.31 1609.3 467.37 1615.44 467.37 1606.56 447.65 1612.02 447.65 1599.74 428.61 1607.25 428.61 1594.97 404.13 1599.74 404.13 1590.19 382.59 1597.01 382.59 1586.09 364.01 1593.6 364.01 1580.64 345.65 1586.78 345.65 1572.45 314.36 1558.12 345.65 1564.26 345.65 1551.3 364.01 1558.8 364.01 1547.88 382.59 1554.71 382.59 1545.15 404.13 1549.93 404.13 1537.65 428.61 1545.15 428.61 1532.87 447.65 1538.33 447.65 1529.46 467.37 1535.6 467.37 1524.68 492.31 1529.46 492.31 1517.86 514.98 1572.45 514.98 1627.04 514.98 1615.44 492.31"/><path class="cls-4" d="M1627,515l-11.6-22.67h4.78l-10.92-24.93h6.14l-8.87-19.72H1612l-12.28-19h7.51L1595,404.13h4.78l-9.55-21.53H1597L1586.09,364h7.51l-13-18.36h6.14l-14.33-31.28c10.32,95.19,0,158.81-16.12,177.48S1517.86,515,1517.86,515H1627Z"/><path class="cls-5" d="M1719.46,127.93a28,28,0,0,1-.08-3.64,18.35,18.35,0,0,1,.51-3.43,4,4,0,0,1,.94-3.22,48.74,48.74,0,0,0,11.12-25,38.24,38.24,0,0,0-.46-12,66.66,66.66,0,0,0-3.8-11.1,30.65,30.65,0,0,1-2.48-10.9c-.06-4.72,1.45-9.29,1.73-14a63.92,63.92,0,0,0-3.39-23.73,44,44,0,0,0-3-7c-1-1.1-1.87-2.24-2.73-3.42-3.18-4.4-6.66-7.68-12-9.38-6.76-2.14-15.85-1.24-20.84,3.75-10.87,10.87-15.32,27.54-11,42.25a3.56,3.56,0,0,1,.11,1.75c-.6,2.81-4.12.76-5.66.4a21.65,21.65,0,0,0-19.59,5.22c-3.61,3.45-5.85,8.08-7.38,12.8-5.21,16.06-1.22,36,10.61,48.37a44.25,44.25,0,0,0,8.16,6.69A42.43,42.43,0,0,1,1675.92,141a18.18,18.18,0,0,0,3.6,5.33,21.14,21.14,0,0,0,18,6c7.15-1.1,14-6.27,18.31-11.91,2.05-2.72,3.07-6.49,3.41-10.46C1719.29,129.25,1719.37,128.59,1719.46,127.93Z"/><path class="cls-6" d="M1701.35,72.63l7.61-8.36,5.83-6.4c.4-.44,2.47-2.21,2.31-2.78-.31-1.06-1.77.44-2.09.8-.68.78-1.39,1.54-2.09,2.31l-4.81,5.32-6,6.61,2.53-8c.28-.88,2.11-4.93,1.2-5.46-1.41-.83-1.87,2.65-2.11,3.35l-1.38,3.93q-1.54,4.36-3.08,8.73-2.8,7.9-5.62,15.78c.28-.79-.1-2.32-.14-3.13l-.71-15.94-.39-8.78c-.08-1.82.57-6.05-1.48-6.86a1.39,1.39,0,0,0-1.37.15c-.64.53-.34,2-.34,2.76,0,9.25,0,18.49,0,27.74q0,16.46,0,32.92,0,8,0,15.92l-18.86-25a7.71,7.71,0,0,1-.54-2.34L1666,89.16l-.95-4.07c-.15-.65-.78-3.34-1.63-2.27s.56,5.43.82,6.61c.47,2.19,1.06,4.35,1.48,6.55l1.55,8-5.08-6.73-4.29-5.68-2.07-2.75c-.11-.15-1.76-2.27-1.84-1.9-.37,1.73,1.3,3.29,2.28,4.7l3.66,5.26,18.75,27,10.63,15.28.05,86.3,10.44-.45L1694,95.85Z"/><path class="cls-7" d="M139.66,271.53a26,26,0,0,0-4.69,6.2c-4.71,9-8.94,17.31-10.48,26.9s-1.32,19.2-.77,28.75a146.15,146.15,0,0,1,.1,20.71c-.72,8.54-6,16.58-6.79,25.1-1.89,19.41-1.85,40.3,16.1,55.33,12.76,10.68,33.1,17.93,53.07,15.42,22.87-2.88,32.05-17.81,34.68-33.33,3.42-20.21-2.92-40.15-.44-60.27,1.12-9.08,5-17.83,5.77-27,1.43-16.61-3.66-33-12.73-47.84-5.67-9.27-14.21-19.63-27.65-23.42C169.63,253.56,149.58,261.58,139.66,271.53Z"/><path class="cls-8" d="M206.7,351.22c-1.31-1-3.49,2.45-3.91,3.37l-2.77,6-7.37,16-18,38.87c.09-.19,0-.59,0-.79l-.47-10-.86-18.47-1.07-23-1.1-23.68-1-20.45-.36-7.79c-.07-1.54.48-5.32-1-6.29a2.38,2.38,0,0,0-3.28,0c-1.51,1.13-.88,2.39-.89,3.9q0,1.5,0,3,0,3.71,0,7.42,0,11.35-.08,22.7,0,12.22-.08,24.44,0,9.77-.07,19.54,0,4,0,8l-3.15-5.37-7.48-12.75-3.62-6.16c-.49-.83-1-1.66-1.47-2.5-.28-.51-.33-.93-1-1.09a1.49,1.49,0,0,0-1.6.71c-.18.52.58,1.42.83,1.87l2.34,4.27L152,378c-.4-.74-2-1.52-2.65-2L137,366.45l-3-2.34a27.61,27.61,0,0,0-2.65-2.29c-1.15-.64-2,.13-1.38,1.14.51.83,1.68,1.34,2.45,2l4.06,3.29,18.33,14.87,9.5,17.36-.58,168.26,18-1-6.53-140.35,13.24-31.1,11.95-28.08,4.71-11.06c.44-1,2.45-4.18,2.13-5.05A1.82,1.82,0,0,0,206.7,351.22Z"/></g></g></svg>