<?xml version="1.0" encoding="utf-8"?>
<!-- Generator: Adobe Illustrator 22.0.1, SVG Export Plug-In . SVG Version: 6.00 Build 0)  -->
<svg version="1.1" id="Слой_1" xmlns="http://www.w3.org/2000/svg" xmlns:xlink="http://www.w3.org/1999/xlink" x="0px" y="0px"
	 viewBox="0 0 1732.2 264.2" style="enable-background:new 0 0 1732.2 264.2;" xml:space="preserve">
<style type="text/css">
	.st0{fill:#80BA9C;}
	.st1{fill:#635128;}
	.st2{fill:#DBC95D;}
	.st3{fill:#8F3D1F;}
</style>
<g id="Слой_2_1_">
	<g id="section-2_о_лагере">
		<path class="st0" d="M97.6,140.6c0,0-11,7.9-18.3-2.7c0,0-12.2,3-14.9-8.2c0,0-14.6-1.2-14-12.5c0,0-17.7-8.5-6.1-24.6
			c0,0-11.3-10,1.5-21.3c0,0-9.8-14.6,7.3-18.8C53,52.4,54.5,35,71.6,39c0,0,4.6-14.6,21-9.1c0,0,14.8-11,23.2,3.7
			c0,0,16.2-2.1,19.2,11.3c0,0,15.5,2.1,14,17.6c0,0,11.9,10.9,4.3,24c0,0,7.6,21.8-8.9,23.7c0,6.1-3.6,11.5-9.2,13.9
			c0,0-1.7,11.6-12.1,9.8c0,0-7.9,8.8-13.7,4L97.6,140.6z"/>
		<path class="st1" d="M79.2,112.5c0,0,17.1,1.8,18.3,10.6s-1.8,80.1-1.8,80.1h18.3c0,0-7.9-80.1-5.2-85.9s11.6-9.1,11.6-9.1
			s-10.1-0.3-13.4,2.8s-7.6,3.8-12.2,3S85.6,112,79.2,112.5z"/>
		<g>
			<path class="st2" d="M1660.5,149.8c-0.1-1.2-0.1-2.4-0.1-3.6c0.1-1.2,0.2-2.3,0.5-3.4c-0.2-1.2,0.2-2.3,0.9-3.2
				c6-7.1,9.9-15.8,11.1-25c0.5-4,0.3-8-0.5-12c-0.9-3.8-2.2-7.5-3.8-11.1c-1.5-3.5-2.3-7.1-2.5-10.9c-0.1-4.7,1.4-9.3,1.7-14
				c0.4-8.1-0.8-16.1-3.4-23.7c-0.8-2.4-1.8-4.8-3-7c-1-1.1-1.9-2.2-2.7-3.4c-3.2-4.4-6.7-7.7-12-9.4c-6.8-2.1-15.8-1.2-20.8,3.8
				c-10.9,10.9-15.3,27.5-11,42.3c0.2,0.6,0.2,1.2,0.1,1.8c-0.6,2.8-4.1,0.8-5.7,0.4c-7-1.6-14.3,0.3-19.6,5.2
				c-3.6,3.4-5.8,8.1-7.4,12.8c-5.2,16.1-1.2,36,10.6,48.4c2.4,2.5,5.2,4.8,8.2,6.7c6.9,4.6,12.4,11,15.7,18.7
				c0.9,2,2.1,3.8,3.6,5.3c4.7,4.7,11.4,7,18,6c7.2-1.1,14-6.3,18.3-11.9c2.1-2.7,3.1-6.5,3.4-10.5
				C1660.3,151.1,1660.4,150.4,1660.5,149.8z"/>
			<path class="st3" d="M1642.4,94.5l7.6-8.4l5.8-6.4c0.4-0.4,2.5-2.2,2.3-2.8c-0.3-1.1-1.8,0.4-2.1,0.8c-0.7,0.8-1.4,1.5-2.1,2.3
				l-4.8,5.3l-6,6.6l2.5-8c0.3-0.9,2.1-4.9,1.2-5.5c-1.4-0.8-1.9,2.7-2.1,3.3l-1.4,3.9c-1,2.9-2.1,5.8-3.1,8.7
				c-1.9,5.3-3.7,10.5-5.6,15.8c0.3-0.8-0.1-2.3-0.1-3.1l-0.7-15.9l-0.4-8.8c-0.1-1.8,0.6-6.1-1.5-6.9c-0.5-0.2-1-0.1-1.4,0.2
				c-0.6,0.5-0.3,2-0.3,2.8c0,9.3,0,18.5,0,27.7c0,11,0,21.9,0,32.9c0,5.3,0,10.6,0,15.9l-18.9-25c-0.3-0.7-0.5-1.5-0.5-2.3
				l-3.8-16.7l-0.9-4.1c-0.2-0.7-0.8-3.3-1.6-2.3s0.6,5.4,0.8,6.6c0.5,2.2,1.1,4.3,1.5,6.6l1.6,8l-5.1-6.7l-4.3-5.7l-2.1-2.8
				c-0.1-0.2-1.8-2.3-1.8-1.9c-0.4,1.7,1.3,3.3,2.3,4.7l3.7,5.3l18.8,27l10.6,15.3l0.1,86.3l10.4-0.4l-5.8-129.2L1642.4,94.5z"/>
		</g>
	</g>
</g>
</svg>
