<svg xmlns="http://www.w3.org/2000/svg" viewBox="0 0 220.13 207.2"><defs><style>.cls-1{fill:#009c53;}.cls-2{fill:#dbc95d;}.cls-3{fill:#cae977;}</style></defs><title>play-button</title><g id="Слой_2" data-name="Слой 2"><g id="Видео_блок" data-name="Видео блок"><path class="cls-1" d="M.15,117.48c0-.74,0-1.48,0-2.22C-.26,106-1.6,42.34,33.23,38.35,70.8,34,110.71,35.61,129.49,0c11.35,12.13,9.39,28.57-5.87,39.52-16.41,11.78-41.09,12.91-61,15.65-9,1.23-32.09,1.17-36,25s-7.65,78.64,9.57,95.86C44.23,184.16,71.68,188,100,188c31.93,0,64.95-4.66,72.41-7.74,18-7.44,21.1-24.46,23.45-43.63S199.25,52,167.16,36c30.52,4.7,44.11,15.3,50,43.87,2.68,13.06,3.9,35.05,2.21,56.53-2,25.48-8.07,50.24-20.6,58.52-23.09,15.26-167,20.29-185.48-8.22C0,166.19,0,124.75.15,117.48Z"/><path class="cls-2" d="M85,119s-.21-31.65,9.1-32.39,33.45,14,42.23,21.91,9.1,13.87-.32,21.17-32.18,22.44-40.65,21.7S85.78,135.86,85,119Z"/><path class="cls-3" d="M62.58,55.17c20-2.74,44.64-3.87,61-15.65,15.26-11,17.22-27.39,5.87-39.52C110.71,35.61,70.8,34,33.23,38.35a27.28,27.28,0,0,0-4.87,1L47.61,57.53C53.43,55.95,59.07,55.66,62.58,55.17Z"/><path class="cls-3" d="M198.75,194.87c12.53-8.28,18.6-33,20.6-58.52,1.68-21.47.47-43.46-2.21-56.53-5.87-28.56-19.46-39.17-50-43.87,32.09,16,31,81.45,28.66,100.62-2.19,17.88-5,33.89-20,42l19.29,18.21A24,24,0,0,0,198.75,194.87Z"/></g></g></svg>