<?xml version="1.0" encoding="utf-8"?>
<!-- Generator: Adobe Illustrator 22.0.1, SVG Export Plug-In . SVG Version: 6.00 Build 0)  -->
<svg version="1.1" id="Слой_1" xmlns="http://www.w3.org/2000/svg" xmlns:xlink="http://www.w3.org/1999/xlink" x="0px" y="0px"
	 viewBox="0 0 1216.6 536.8" style="enable-background:new 0 0 1216.6 536.8;" xml:space="preserve">
<style type="text/css">
	.st0{fill:#FFFFFF;}
</style>
<path class="st0" d="M1198.2,412.1c-3.4,0-6.7-0.1-10.1-0.1c-2.7-0.1-5.4-0.2-8.1-0.4c6.2-1.3,12-3.1,17.5-5.5
	c9.3-4,3.5-11.8-6.8-13.4c-4.3-0.7-9-1.2-12.8-2.5c-2.5-0.8-3.4-1.2-3-1.8c0.6-0.9,0.7-1.8,0.6-2.8c6.3-2.5,12.8-4.8,19.6-6.9
	c13.7-4.2,7.2-14.5-7.8-14.9c-5.1-0.2-10.2-0.3-15.2-0.5c-1.3-2.4-4.6-4.5-9.3-5.5c-1.3-1.1-2.7-2.2-4.2-3.3
	c5.6-5.3-1.2-11.2-13.3-11.9c-10.8-0.7-21.6-1.1-32.4-1.4c-1.3-0.1-2.6-0.2-3.9-0.2c2.1-4-3.2-8.8-11-10c-4.3-0.7-9-1.2-12.8-2.5
	c-2.5-0.8-3.4-1.2-3-1.8c0.6-0.9,0.7-1.8,0.6-2.8c6.3-2.5,12.8-4.8,19.6-6.9c13.7-4.2,7.2-14.5-7.8-14.9c-5.1-0.2-10.2-0.3-15.2-0.5
	c-0.4-0.7-1-1.4-1.7-2.1c0.3,0,0.6,0,0.9,0c7.2-0.3,11.8-2.5,13.8-5.2l6.9-0.2c5.1-0.2,10.1-0.6,14.9-1.2c20.4-0.2,40.7-0.2,61.1,0
	c3.8,0.1,7.6,0.1,11.5,0.1c19.9-0.2,20-15.8,0-16c-3.4,0-6.7-0.1-10.1-0.1c-2.7-0.1-5.4-0.2-8.2-0.4c6.2-1.3,12-3.1,17.5-5.5
	c9.3-4,3.5-11.8-6.8-13.4c-4.3-0.7-9-1.2-12.8-2.5c-2.5-0.8-3.4-1.2-3-1.8c0.6-0.9,0.7-1.8,0.6-2.8c6.3-2.5,12.8-4.8,19.6-6.9
	c13.7-4.2,7.2-14.5-7.8-14.9c-5.1-0.2-10.2-0.3-15.2-0.5c-1.3-2.4-4.6-4.5-9.3-5.5c-1.3-1.1-2.7-2.2-4.2-3.3
	c5.6-5.3-1.2-11.2-13.2-11.9c-4.8-0.3-9.7-0.6-14.6-0.8c-2-1.4-4.8-2.5-8-3c-4.3-0.7-9-1.2-12.8-2.5c-2.5-0.8-3.4-1.2-3-1.8
	c0.6-0.9,0.7-1.8,0.6-2.8c6.3-2.5,12.8-4.8,19.6-6.9c13-4,7.8-13.5-5.7-14.8c14.4-0.1,28.8,0,43.2,0.1c3.8,0.1,7.6,0.1,11.5,0.1
	c19.9-0.2,20-15.8,0-16c-3.4,0-6.7-0.1-10.1-0.1c-2.7-0.1-5.4-0.2-8.2-0.4c6.2-1.3,12-3.1,17.5-5.5c9.3-4,3.5-11.8-6.8-13.4
	c-4.3-0.7-9-1.2-12.8-2.5c-2.5-0.8-3.4-1.2-3-1.8c0.6-0.9,0.7-1.8,0.6-2.8c6.3-2.5,12.8-4.8,19.6-6.9c13.7-4.2,7.2-14.5-7.8-14.9
	c-5.1-0.2-10.2-0.3-15.2-0.5c-0.8-1.5-2.5-2.9-4.7-4c15.4-2.3,14-15.5-4.3-15.7c-3.4,0-6.7-0.1-10.1-0.1c-0.5,0-1.1,0-1.6,0
	c-1.4-0.3-2.9-0.6-4.5-0.8c5.4-1.3,10.6-3,15.5-5.1c9.3-4,3.5-11.8-6.8-13.4c-4.3-0.7-9-1.2-12.8-2.5c-2.5-0.8-3.4-1.2-3-1.8
	c0.6-0.9,0.7-1.8,0.6-2.8c6.3-2.5,12.8-4.8,19.6-6.9c13.7-4.2,7.2-14.5-7.8-14.9c-5.1-0.2-10.2-0.3-15.2-0.5
	c-1.3-2.4-4.6-4.5-9.3-5.5c-1.3-1.1-2.7-2.2-4.2-3.3c5.6-5.3-1.2-11.2-13.2-11.9c-10.8-0.7-21.6-1.1-32.5-1.4
	c-4.6-0.3-9.4-0.4-14.3-0.3l-0.4,0c-24.5-0.3-49,0-73.4,0c-40.7,0-81.4-0.3-122.1,0.3c-24,0.4-47.9,1.1-71.9,2.1
	c-10.2-0.6-20.4-1-30.6-1.3c-4.7-0.3-9.5-0.4-14.3-0.3l-0.4,0c-24.5-0.3-49,0-73.4,0c-40.7,0-81.4-0.3-122.1,0.3
	c-81.2,1.2-162.2,6.8-243,10.9c-27.4,1.4-54.8,2.8-82.2,4.3l-42.8,1.3c-9.1,0.3-18,1.4-26,3.3c-2.6-0.5-5.7-0.6-9.1,0
	c-26.5,4-53,8.1-79.4,12.1C21.2,55.8,24.5,68.9,42.1,69c4.6,0,9.2,0.1,13.8,0.1c-5.2,1.5-10.4,3-15.4,4.7c-12.6,4.2-8.1,15,7.8,14.9
	c3.3,0,6.6-0.1,10-0.1C60,92,65,94.7,72.8,94.3c6.6-0.4,13.3-0.7,19.9-0.9l0.5,3.6c0.1,0.5,0.2,1,0.3,1.6c-1.3,0.2-2.6,0.5-3.8,0.7
	c-8.8,0.7-17.6,1.8-26,3.4c-18.8,3.5-11.4,17.3,8.2,15.4c7.8-0.7,15.5-1.7,23-3c-0.5,1.1-0.5,2.2-0.2,3.2
	c-7.1,1.1-14.2,2.2-21.3,3.3c-16.8,2.6-13.5,15.6,4.1,15.7c4.6,0,9.2,0.1,13.8,0.1c-5.2,1.5-10.4,3-15.4,4.7
	c-12.6,4.2-8.1,15,7.8,14.9c3.3,0,6.6-0.1,10-0.1c1.6,3.3,6.7,6.1,14.5,5.6c6.6-0.4,13.3-0.7,19.9-0.9l0.5,3.6
	c0.1,0.5,0.2,1,0.3,1.6c-1.3,0.2-2.6,0.5-3.8,0.7c-8.8,0.7-17.6,1.8-26,3.4c-5.6,1-8.8,3-10.2,5.2c-20.4,3.1-40.9,6.2-61.3,9.3
	C10.8,188,14,201,31.6,201.2c4.6,0,9.2,0.1,13.8,0.1c-5.2,1.5-10.4,3-15.4,4.7c-12.6,4.2-8.1,15,7.8,14.9c3.3,0,6.6-0.1,10-0.1
	c1.6,3.3,6.7,6.1,14.5,5.6c6.6-0.4,13.3-0.7,19.9-0.9l0.5,3.6c0.1,0.5,0.2,1,0.3,1.6c-1.3,0.2-2.6,0.5-3.8,0.7
	c-8.8,0.7-17.6,1.8-26,3.4c-18.8,3.5-11.4,17.3,8.2,15.4c7.8-0.7,15.5-1.7,23-3c-2.5,5.7,6.5,11,18.8,9.8c1.7-0.2,3.5-0.3,5.2-0.5
	c-3.5,1.1-7,2.1-10.4,3.3c-12.6,4.2-8.1,15,7.8,14.9c3.3,0,6.6-0.1,10-0.1c1.6,3.3,6.7,6.1,14.5,5.6c6.6-0.4,13.3-0.7,19.9-0.9
	l0.5,3.6c0.1,0.5,0.2,1,0.3,1.6c-1.3,0.2-2.6,0.5-3.8,0.7c-8.8,0.7-17.6,1.8-26,3.4c-9.9,1.9-12.5,6.6-10,10.3
	c-2.8,0.5-5.6,1-8.2,1.6c-2.6-0.5-5.7-0.6-9.1,0c-26.5,4-53,8.1-79.4,12.1c-16.8,2.6-13.5,15.6,4.1,15.7c4.6,0,9.2,0.1,13.8,0.1
	c-5.2,1.5-10.4,3-15.4,4.7c-12.6,4.2-8.1,15,7.8,14.9c3.3,0,6.6-0.1,10-0.1c1.6,3.3,6.7,6.1,14.5,5.6c6.6-0.4,13.3-0.7,19.9-0.9
	l0.5,3.6c0.1,0.5,0.2,1,0.3,1.6c-1.3,0.2-2.6,0.5-3.8,0.7c-8.8,0.7-17.6,1.8-26,3.4c-18.8,3.5-11.4,17.3,8.2,15.4
	c7.8-0.7,15.5-1.7,23-3c-2.5,5.7,6.5,11,18.8,9.8c2.2-0.2,4.4-0.4,6.5-0.6c1.3,3.4,6.4,6.3,14.8,6.4c4.6,0,9.2,0.1,13.8,0.1
	c-5.2,1.5-10.4,3-15.4,4.7c-12.6,4.2-8.1,15,7.8,14.9c3.3,0,6.6-0.1,10-0.1c1.6,3.3,6.7,6.1,14.5,5.6c6.6-0.4,13.3-0.7,19.9-0.9
	l0.5,3.6c0.1,0.5,0.2,1,0.3,1.6c-1.3,0.2-2.6,0.5-3.8,0.7c-8.8,0.7-17.6,1.8-26,3.4c-6.3,1.2-9.6,3.5-10.6,6
	c-18.5,2.8-37.1,5.7-55.6,8.5c-16.8,2.6-13.5,15.6,4.1,15.7c4.6,0,9.2,0.1,13.8,0.1c-5.2,1.5-10.4,3-15.4,4.7
	c-12.6,4.2-8.1,15,7.8,14.9c3.3,0,6.6-0.1,10-0.1c1.6,3.3,6.7,6.1,14.5,5.6c6.6-0.4,13.3-0.7,19.9-0.9l0.5,3.6
	c0.1,0.5,0.2,1,0.3,1.6c-1.3,0.2-2.6,0.5-3.8,0.7c-8.8,0.7-17.6,1.8-26,3.4c-18.8,3.5-11.4,17.3,8.2,15.4c7.8-0.7,15.5-1.7,23-3
	c-2.5,5.7,6.5,11,18.8,9.8c6.1-0.6,12.1-1.2,18.2-1.7c5,1.1,10.3,1.9,15.8,2.4c2.1,3,7.2,5.6,14.2,5.8c25.7,0.8,52,1.4,77.1-2.4
	c10.9-1.7,21.3-4.1,32.5-5.3c12.8-1.4,26.2-1,39.2-1c34.7,0.1,69.4,0.3,104.2,0.4c3.2,0.9,7.2,1.3,11.6,0.9c2.7-0.3,5.5-0.6,8.2-0.8
	c4.9,0,9.7,0,14.6,0.1c3.6,0.6,7.3,1.1,11.2,1.5c2.1,3,7.2,5.6,14.2,5.8c25.7,0.8,52,1.4,77.1-2.4c10.9-1.7,21.3-4.1,32.5-5.3
	c12.8-1.4,26.2-1,39.2-1c51.3,0.2,102.7,0.4,154,0.6c4.8,1.1,10.6,1.2,16.3-0.6c1.2-0.4,2.3-0.9,3.4-1.4c3.7,0,7.4-0.1,11.1-0.1
	c7.6-0.1,15.2-0.2,22.8-0.5c14.6-0.4,29.1-1,43.7-1.8c25-1.3,49.9-3.2,74.6-5.6c9,2.4,21,1.4,30.7,1.4c11.5,0,23-0.1,34.5-0.1
	c2.1,0.1,4.2,0.1,6.4,0c7.2-0.3,11.8-2.5,13.8-5.2l6.9-0.2c5.1-0.2,10.1-0.6,14.9-1.2c20.4-0.2,40.7-0.2,61.1,0
	c3.8,0.1,7.6,0.1,11.5,0.1c19.9-0.2,20-15.8,0-16c-3.4,0-6.7-0.1-10.1-0.1c-2.7-0.1-5.4-0.2-8.1-0.4c6.2-1.3,12-3.1,17.5-5.5
	c9.3-4,3.5-11.8-6.8-13.4c-4.3-0.7-9-1.2-12.8-2.5c-2.5-0.8-3.4-1.2-3-1.8c0.6-0.9,0.7-1.8,0.6-2.8c6.3-2.5,12.8-4.8,19.6-6.9
	c13.1-4,7.7-13.6-5.9-14.8c12.7,0,25.4,0,38.2,0.1c3.8,0.1,7.6,0.1,11.5,0.1C1218.1,427.9,1218.2,412.3,1198.2,412.1z"/>
</svg>
