<?xml version="1.0" encoding="utf-8"?>
<!-- Generator: Adobe Illustrator 22.0.1, SVG Export Plug-In . SVG Version: 6.00 Build 0)  -->
<svg version="1.1" id="Слой_1" xmlns="http://www.w3.org/2000/svg" xmlns:xlink="http://www.w3.org/1999/xlink" x="0px" y="0px"
	 viewBox="0 0 145.8 624.8" style="enable-background:new 0 0 145.8 624.8;" xml:space="preserve">
<style type="text/css">
	.st0{fill:#80BA9C;}
	.st1{fill:#635128;}
	.st2{fill:#6B8C46;}
	.st3{fill:#557135;}
	.st4{fill:#DBC95D;}
	.st5{fill:#8F3D1F;}
	.st6{fill:#2A3E52;}
	.st7{fill:#063035;}
	.st8{fill:#F5CB3B;}
	.st9{fill:#DDAF2F;}
	.st10{fill:#C4AA90;}
	.st11{fill:#85674D;}
	.st12{fill:#A07C62;}
	.st13{fill:#B5947D;}
	.st14{fill:#A7D6D3;}
	.st15{fill:#C0E2DE;}
	.st16{opacity:0.3;fill:#DDAF2F;}
	.st17{fill:#F37350;}
	.st18{fill:#B1D665;}
</style>
<g>
	<g>
		<g>
			<g>
				<g>
					<path class="st0" d="M81.4,124.4c0,0-11,7.9-18.3-2.7c0,0-12.2,3-14.9-8.2c0,0-14.6-1.2-14-12.5c0,0-17.7-8.5-6.1-24.6
						c0,0-11.3-10,1.5-21.3c0,0-9.7-14.6,7.3-18.8c0,0,1.5-17.3,18.6-13.4c0,0,4.6-14.6,21-9.1c0,0,14.8-11,23.2,3.6
						c0,0,16.2-2.1,19.2,11.2c0,0,15.5,2.1,14,17.6c0,0,11.9,10.9,4.3,24c0,0,7.6,21.8-8.9,23.7c0,0,0.5,9.6-9.2,13.9
						c0,0-1.7,11.6-12.1,9.8c0,0-7.9,8.8-13.7,4L81.4,124.4z"/>
				</g>
			</g>
			<g>
				<path class="st1" d="M63,96.4c0,0,17.1,1.8,18.3,10.6c1.2,8.8-1.8,80.1-1.8,80.1h18.3c0,0-7.9-80.1-5.2-85.9
					c2.7-5.8,11.6-9.1,11.6-9.1s-10.1-0.3-13.4,2.8c-3.4,3-7.6,3.8-12.2,3C74,97.1,69.4,95.9,63,96.4z"/>
			</g>
		</g>
	</g>
	<g>
		<g>
			<g>
				<g>
					<polygon class="st1" points="55.8,523 52.7,523.4 49.6,523 44.2,602.3 52.7,602.3 61.2,602.3 					"/>
				</g>
				<g>
					<polygon class="st2" points="93,541.4 97.5,541.4 87.3,518 93,518 84.7,499.5 89.8,499.5 78.3,481.6 85.3,481.6 73.8,458.6 
						78.3,458.6 69.3,438.4 75.7,438.4 65.5,421 72.5,421 60.4,403.8 66.1,403.8 52.7,374.4 39.3,403.8 45,403.8 32.9,421 39.9,421 
						29.7,438.4 36.1,438.4 27.1,458.6 31.6,458.6 20.1,481.6 27.1,481.6 15.6,499.5 20.7,499.5 12.4,518 18.1,518 7.9,541.4 
						12.4,541.4 1.5,562.6 52.7,562.6 103.9,562.6 					"/>
				</g>
			</g>
			<path class="st3" d="M103.9,562.6L93,541.4h4.5L87.3,518H93l-8.3-18.5h5.1l-11.5-17.9h7l-11.5-23h4.5l-9-20.2h6.4L65.5,421h7
				l-12.2-17.2h5.8l-13.4-29.3c9.7,89.3,0,149-15.1,166.5c-15.1,17.5-36.1,21.7-36.1,21.7h51.2H103.9z"/>
		</g>
	</g>
</g>
</svg>
