<?xml version="1.0" encoding="utf-8"?>
<!-- Generator: Adobe Illustrator 22.0.1, SVG Export Plug-In . SVG Version: 6.00 Build 0)  -->
<svg version="1.1" id="Слой_1" xmlns="http://www.w3.org/2000/svg" xmlns:xlink="http://www.w3.org/1999/xlink" x="0px" y="0px"
	 viewBox="0 0 530.8 594.7" style="enable-background:new 0 0 530.8 594.7;" xml:space="preserve">
<style type="text/css">
	.st0{fill:#80BA9C;}
	.st1{fill:#635128;}
	.st2{fill:#6B8C46;}
	.st3{fill:#557135;}
	.st4{fill:#DBC95D;}
	.st5{fill:#8F3D1F;}
	.st6{fill:#2A3E52;}
	.st7{fill:#063035;}
	.st8{fill:#F5CB3B;}
	.st9{fill:#DDAF2F;}
	.st10{fill:#C4AA90;}
	.st11{fill:#85674D;}
	.st12{fill:#A07C62;}
	.st13{fill:#B5947D;}
	.st14{fill:#A7D6D3;}
	.st15{fill:#C0E2DE;}
	.st16{opacity:0.3;fill:#DDAF2F;}
	.st17{fill:#F37350;}
	.st18{fill:#B1D665;}
</style>
<g>
	<g>
		<path class="st4" d="M480.7,126.1c-0.1-1.1-0.1-2.3-0.1-3.4c0.1-1.1,0.2-2.2,0.5-3.2c-0.1-1,0.1-2.1,0.9-3
			c5.5-6.7,9.4-14.9,10.4-23.5c0.4-3.7,0.3-7.6-0.4-11.3c-0.7-3.6-2.2-7-3.6-10.4c-1.3-3.3-2.3-6.7-2.3-10.2
			c-0.1-4.4,1.4-8.7,1.6-13.1c0.4-7.5-0.8-15.2-3.2-22.3c-0.8-2.3-1.7-4.5-2.8-6.6c-0.9-1-1.8-2.1-2.6-3.2c-3-4.1-6.3-7.2-11.3-8.8
			c-6.3-2-14.9-1.2-19.6,3.5c-10.2,10.2-14.4,25.9-10.3,39.7c0.2,0.5,0.2,1.1,0.1,1.6c-0.6,2.6-3.9,0.7-5.3,0.4
			c-2.1-0.5-4.4-0.6-6.6-0.4c-4.4,0.4-8.6,2.3-11.8,5.3c-3.4,3.2-5.5,7.6-6.9,12c-4.9,15.1-1.1,33.8,10,45.4
			c2.3,2.4,4.9,4.5,7.7,6.3c6.6,4.2,11.6,10.4,14.8,17.5c0.8,1.8,1.9,3.5,3.4,5c4.3,4.4,10.8,6.5,16.9,5.6c6.7-1,13.2-5.9,17.2-11.2
			c1.9-2.6,2.9-6.1,3.2-9.8C480.6,127.3,480.6,126.7,480.7,126.1z"/>
		<path class="st5" d="M463.7,74.2c2.4-2.6,4.8-5.2,7.1-7.8c1.8-2,3.6-4,5.5-6c0.4-0.4,2.3-2.1,2.2-2.6c-0.3-1-1.7,0.4-2,0.8
			c-0.6,0.7-1.3,1.4-2,2.2c-1.5,1.7-3,3.3-4.5,5c-1.9,2.1-3.7,4.1-5.6,6.2c0.8-2.5,1.6-5,2.4-7.5c0.3-0.8,2-4.6,1.1-5.1
			c-1.3-0.8-1.8,2.5-2,3.1c-0.4,1.2-0.9,2.5-1.3,3.7c-1,2.7-1.9,5.5-2.9,8.2c-1.8,4.9-3.5,9.9-5.3,14.8c0.3-0.7-0.1-2.2-0.1-2.9
			c-0.2-5-0.4-10-0.7-15c-0.1-2.7-0.2-5.5-0.4-8.2c-0.1-1.7,0.5-5.7-1.4-6.4c-0.4-0.2-0.9-0.1-1.3,0.1c-0.6,0.5-0.3,1.9-0.3,2.6
			c0,8.7,0,17.4,0,26c0,10.3,0,20.6,0,30.9c0,5,0,10,0,14.9l-17.7-23.5c-0.4-0.5-0.4-1.6-0.5-2.2c-1.2-5.2-2.4-10.5-3.7-15.7
			c-0.3-1.3-0.6-2.5-0.9-3.8c-0.1-0.6-0.7-3.1-1.5-2.1c-0.8,0.9,0.5,5.1,0.8,6.2c0.4,2.1,1,4.1,1.4,6.2c0.5,2.5,1,5,1.5,7.6
			c-1.6-2.1-3.2-4.2-4.8-6.3c-1.3-1.8-2.7-3.6-4-5.3c-0.6-0.9-1.3-1.7-1.9-2.6c-0.1-0.1-1.7-2.1-1.7-1.8c-0.3,1.6,1.2,3.1,2.1,4.4
			c1.1,1.6,2.3,3.3,3.4,4.9c5.9,8.4,11.7,16.9,17.6,25.3c3.3,4.8,6.6,9.6,10,14.3l0.1,81l9.8-0.4L456.8,96L463.7,74.2z"/>
	</g>
	<g>
		<g>
			<g>
				<g>
					<path class="st0" d="M146,125.4c0,0-11,7.9-18.3-2.7c0,0-12.2,3-14.9-8.2c0,0-14.6-1.2-14-12.5c0,0-17.7-8.5-6.1-24.6
						c0,0-11.3-10,1.5-21.3c0,0-9.7-14.6,7.3-18.8c0,0,1.5-17.3,18.6-13.4c0,0,4.6-14.6,21-9.1c0,0,14.8-11,23.2,3.6
						c0,0,16.2-2.1,19.2,11.2c0,0,15.5,2.1,14,17.6c0,0,11.9,10.9,4.3,24c0,0,7.6,21.8-8.9,23.7c0,0,0.5,9.6-9.2,13.9
						c0,0-1.7,11.6-12.1,9.8c0,0-7.9,8.8-13.7,4L146,125.4z"/>
				</g>
			</g>
			<g>
				<path class="st1" d="M127.7,97.4c0,0,17.1,1.8,18.3,10.6c1.2,8.8-1.8,80.1-1.8,80.1h18.3c0,0-7.9-80.1-5.2-85.9
					c2.7-5.8,11.6-9.1,11.6-9.1s-10.1-0.3-13.4,2.8c-3.4,3-7.6,3.8-12.2,3C138.7,98.2,134.1,96.9,127.7,97.4z"/>
			</g>
		</g>
	</g>
	<g>
		<g>
			<g>
				<g>
					<g>
						<path class="st6" d="M271.9,401.1c0,0-30.3-3.6-43.1-22.2c-12.8-18.6-14.8-57.1,0-75.7c14.8-18.6,41.7-32.9,62.2-20.2
							c20.5,12.7,40.3,63,26.1,88C303,395.9,282.5,399.9,271.9,401.1z"/>
					</g>
				</g>
				<g>
					<path class="st7" d="M259.8,492.3c0,0,3.9-110.6,2.8-114.1c-1.1-3.5-14.9-19.5-14.9-19.5s17.7,14.5,19.3,8.5
						c1.7-6,5-51.5,5-51.5s1.1,46,5.5,45.5c4.4-0.5,22.6-18.5,22.6-18.5s-21,24-21,33c0,9,1.7,116.6,1.7,116.6H259.8z"/>
				</g>
			</g>
		</g>
		<g>
			<g>
				<g>
					<polygon class="st1" points="143.9,408.5 139.5,409 135.2,408.5 127.6,519.4 139.5,519.4 151.5,519.4 					"/>
				</g>
				<g>
					<polygon class="st2" points="196,434.1 202.3,434.1 187.9,401.4 196,401.4 184.3,375.5 191.5,375.5 175.4,350.5 185.2,350.5 
						169.1,318.3 175.4,318.3 162.8,290.1 171.8,290.1 157.5,265.6 167.3,265.6 150.3,241.5 158.3,241.5 139.5,200.4 120.7,241.5 
						128.8,241.5 111.7,265.6 121.6,265.6 107.3,290.1 116.2,290.1 103.7,318.3 110,318.3 93.8,350.5 103.7,350.5 87.5,375.5 
						94.7,375.5 83.1,401.4 91.1,401.4 76.8,434.1 83.1,434.1 67.8,463.9 139.5,463.9 211.2,463.9 					"/>
				</g>
			</g>
			<path class="st3" d="M211.2,463.9L196,434.1h6.3l-14.3-32.7h8.1l-11.7-25.9h7.2l-16.1-25h9.9l-16.1-32.2h6.3l-12.5-28.3h9
				l-14.3-24.4h9.9l-17-24.1h8.1l-18.8-41.1c13.6,125,0,208.6-21.2,233.1c-21.2,24.5-50.5,30.4-50.5,30.4h71.7H211.2z"/>
		</g>
		<g>
			<g>
				<g>
					<polygon class="st8" points="408,518.8 296.8,518.8 296.8,397.5 352.4,343.5 408,399.5 					"/>
					<rect x="296.8" y="454.3" class="st9" width="111.2" height="8.4"/>
					<g>
						<g>
							<path class="st10" d="M318.2,494.3c-0.1,0-0.1,0-0.2-0.1c-0.1-0.1-0.1-0.3,0-0.4l6.9-6.7c0.1-0.1,0.3-0.1,0.4,0
								c0.1,0.1,0.1,0.3,0,0.4l-6.9,6.7C318.4,494.3,318.3,494.3,318.2,494.3z"/>
						</g>
						<g>
							<path class="st10" d="M329.9,496.7c-0.1,0-0.1,0-0.2-0.1c-0.1-0.1-0.1-0.3,0-0.4l6.9-6.7c0.1-0.1,0.3-0.1,0.4,0
								c0.1,0.1,0.1,0.3,0,0.4l-6.9,6.7C330,496.6,329.9,496.7,329.9,496.7z"/>
						</g>
						<path class="st11" d="M325.7,471.7L325.7,471.7c7.7,0,13.9,6.2,13.9,13.9v33.3h-27.8v-33.3C311.8,477.9,318,471.7,325.7,471.7
							z"/>
						<path class="st12" d="M325.7,474.4L325.7,474.4c6.5,0,11.8,5.3,11.8,11.8v32.3c0,0.2-0.2,0.4-0.4,0.4h-22.7
							c-0.2,0-0.4-0.2-0.4-0.4v-32.3C313.9,479.7,319.2,474.4,325.7,474.4z"/>
						<g>
							<g>
								<path class="st13" d="M316,508.3c-0.1,0-0.1,0-0.1-0.1c-0.1-0.1-0.1-0.2,0-0.3l16.3-16.2c0.1-0.1,0.2-0.1,0.3,0
									c0.1,0.1,0.1,0.2,0,0.3l-16.3,16.2C316.1,508.3,316,508.3,316,508.3z"/>
								<path class="st13" d="M316,508.4c-0.1,0-0.1,0-0.2-0.1c-0.1-0.1-0.1-0.2,0-0.3l16.3-16.2c0.1-0.1,0.2-0.1,0.3,0
									c0.1,0.1,0.1,0.2,0,0.3l-16.3,16.2C316.1,508.4,316,508.4,316,508.4z M332.3,491.8c0,0-0.1,0-0.1,0L315.9,508
									c-0.1,0.1-0.1,0.2,0,0.2c0.1,0.1,0.2,0.1,0.2,0l16.3-16.2c0.1-0.1,0.1-0.2,0-0.2C332.4,491.8,332.4,491.8,332.3,491.8z"/>
							</g>
						</g>
						<g>
							<g>
								<path class="st13" d="M325.4,504.7C325.3,504.7,325.3,504.7,325.4,504.7c-0.1-0.1-0.1-0.1-0.1-0.2l8.5-7.9c0,0,0.1,0,0.1,0
									c0,0,0,0.1,0,0.1L325.4,504.7C325.4,504.7,325.4,504.7,325.4,504.7z"/>
								<path class="st13" d="M325.4,504.8c-0.1,0-0.1,0-0.1-0.1c0,0-0.1-0.1-0.1-0.1c0-0.1,0-0.1,0.1-0.1l8.5-7.9
									c0.1-0.1,0.2-0.1,0.3,0c0,0,0.1,0.1,0.1,0.1c0,0.1,0,0.1-0.1,0.1l-8.5,7.9C325.5,504.8,325.4,504.8,325.4,504.8z"/>
							</g>
						</g>
						<g>
							<g>
								<path class="st13" d="M320.1,498.3c0,0-0.1,0-0.1,0c-0.1-0.1-0.1-0.1,0-0.2l12.3-11.7c0.1-0.1,0.2-0.1,0.2,0
									c0.1,0.1,0.1,0.1,0,0.2l-12.3,11.7C320.1,498.2,320.1,498.3,320.1,498.3z"/>
								<path class="st13" d="M320.1,498.4c-0.1,0-0.1,0-0.2-0.1c0,0-0.1-0.1-0.1-0.2c0-0.1,0-0.1,0.1-0.2l12.3-11.7
									c0.1-0.1,0.3-0.1,0.4,0c0,0,0.1,0.1,0.1,0.2c0,0.1,0,0.1-0.1,0.2l-12.3,11.7C320.2,498.3,320.1,498.4,320.1,498.4z
									 M332.4,486.3C332.3,486.3,332.3,486.4,332.4,486.3L320,498.1c0,0,0,0,0,0c0,0,0,0,0,0c0,0,0,0,0.1,0L332.4,486.3
									C332.4,486.4,332.4,486.4,332.4,486.3C332.4,486.4,332.4,486.4,332.4,486.3C332.4,486.4,332.4,486.3,332.4,486.3z"/>
							</g>
						</g>
					</g>
					<g>
						<rect x="364.7" y="476.3" class="st14" width="26" height="24.9"/>
						<g>
							<g>
								<path class="st15" d="M372.8,485.3c0,0-0.1,0-0.1-0.1c-0.1-0.1-0.1-0.2,0-0.3l4.3-4.2c0.1-0.1,0.2-0.1,0.3,0
									c0.1,0.1,0.1,0.2,0,0.3l-4.3,4.2C372.9,485.3,372.9,485.3,372.8,485.3z"/>
							</g>
							<g>
								<path class="st15" d="M375.5,489.9c0,0-0.1,0-0.1-0.1c-0.1-0.1-0.1-0.2,0-0.3l4.3-4.2c0.1-0.1,0.2-0.1,0.3,0
									c0.1,0.1,0.1,0.2,0,0.3l-4.3,4.2C375.6,489.9,375.6,489.9,375.5,489.9z"/>
							</g>
							<g>
								<path class="st15" d="M370.8,489.6c0,0-0.1,0-0.1-0.1c-0.1-0.1-0.1-0.2,0-0.3l13.7-12.2c0.1-0.1,0.2-0.1,0.3,0
									c0.1,0.1,0.1,0.2,0,0.3L371,489.5C370.9,489.6,370.9,489.6,370.8,489.6z"/>
							</g>
						</g>
						<g>
							<g>
								<rect x="377" y="476.3" class="st11" width="1.5" height="25.7"/>
							</g>
						</g>
						<g>
							<g>
								<g>
									<rect x="364.7" y="483.1" class="st11" width="26" height="1.5"/>
								</g>
							</g>
							<g>
								<g>
									<rect x="364.7" y="491.5" class="st11" width="26" height="1.5"/>
								</g>
							</g>
						</g>
						<rect x="361.9" y="471.4" class="st11" width="31.5" height="4.8"/>
						<rect x="361.9" y="499.6" class="st11" width="31.5" height="4.8"/>
					</g>
					<g>
						<g>
							<rect x="308.5" y="404.8" class="st14" width="27.2" height="33.8"/>
							<g>
								<g>
									<path class="st15" d="M316.7,422.2c0,0-0.1,0-0.1,0c-0.1-0.1-0.1-0.2,0-0.2l3.8-3.7c0.1-0.1,0.2-0.1,0.2,0
										c0.1,0.1,0.1,0.2,0,0.2l-3.8,3.7C316.8,422.2,316.7,422.2,316.7,422.2z"/>
								</g>
								<g>
									<path class="st15" d="M321.4,422.8c0,0-0.1,0-0.1,0c-0.1-0.1-0.1-0.2,0-0.2l3.8-3.7c0.1-0.1,0.2-0.1,0.2,0
										c0.1,0.1,0.1,0.2,0,0.2l-3.8,3.7C321.5,422.8,321.5,422.8,321.4,422.8z"/>
								</g>
								<g>
									<path class="st15" d="M314.9,426c0,0-0.1,0-0.1-0.1c-0.1-0.1-0.1-0.2,0-0.2l12.2-10.9c0.1-0.1,0.2-0.1,0.2,0
										c0.1,0.1,0.1,0.2,0,0.2L315,426C315,426,315,426,314.9,426z"/>
								</g>
							</g>
							<g>
								<g>
									<rect x="321.5" y="404.8" class="st11" width="1.2" height="35.4"/>
								</g>
							</g>
							<g>
								<g>
									<g>
										<rect x="308.6" y="415.5" class="st11" width="27.1" height="1.2"/>
									</g>
								</g>
								<g>
									<g>
										<rect x="308.6" y="426.8" class="st11" width="27.1" height="1.2"/>
									</g>
								</g>
							</g>
							<path class="st11" d="M335.3,441.9h-26.5c-0.9,0-1.6-0.7-1.6-1.6l0,0c0-0.9,0.7-1.6,1.6-1.6h26.5c0.9,0,1.6,0.7,1.6,1.6l0,0
								C337,441.1,336.2,441.9,335.3,441.9z"/>
						</g>
						<g>
							<rect x="369.1" y="404.8" class="st14" width="27.2" height="33.8"/>
							<g>
								<g>
									<path class="st15" d="M377.3,422.2c0,0-0.1,0-0.1,0c-0.1-0.1-0.1-0.2,0-0.2l3.8-3.7c0.1-0.1,0.2-0.1,0.2,0
										c0.1,0.1,0.1,0.2,0,0.2l-3.8,3.7C377.4,422.2,377.3,422.2,377.3,422.2z"/>
								</g>
								<g>
									<path class="st15" d="M382,422.8c0,0-0.1,0-0.1,0c-0.1-0.1-0.1-0.2,0-0.2l3.8-3.7c0.1-0.1,0.2-0.1,0.2,0
										c0.1,0.1,0.1,0.2,0,0.2l-3.8,3.7C382.1,422.8,382,422.8,382,422.8z"/>
								</g>
								<g>
									<path class="st15" d="M375.5,426c0,0-0.1,0-0.1-0.1c-0.1-0.1-0.1-0.2,0-0.2l12.2-10.9c0.1-0.1,0.2-0.1,0.2,0
										c0.1,0.1,0.1,0.2,0,0.2L375.6,426C375.6,426,375.5,426,375.5,426z"/>
								</g>
							</g>
							<g>
								<g>
									<rect x="382.1" y="404.8" class="st11" width="1.2" height="35.4"/>
								</g>
							</g>
							<g>
								<g>
									<g>
										<rect x="369.1" y="415.5" class="st11" width="27.1" height="1.2"/>
									</g>
								</g>
								<g>
									<g>
										<rect x="369.1" y="426.8" class="st11" width="27.1" height="1.2"/>
									</g>
								</g>
							</g>
							<path class="st11" d="M395.9,441.9h-26.5c-0.9,0-1.6-0.7-1.6-1.6l0,0c0-0.9,0.7-1.6,1.6-1.6h26.5c0.9,0,1.6,0.7,1.6,1.6l0,0
								C397.5,441.1,396.8,441.9,395.9,441.9z"/>
						</g>
					</g>
					<g>
						<rect x="378.6" y="390.2" class="st9" width="9.2" height="4.8"/>
					</g>
					<g>
						<rect x="299.4" y="466.8" class="st9" width="9.2" height="4.8"/>
					</g>
					<g>
						<rect x="296.7" y="472.6" class="st9" width="5.2" height="4.8"/>
					</g>
					<g>
						<rect x="402.7" y="489.1" class="st9" width="5.2" height="4.8"/>
					</g>
					<g>
						<rect x="391.9" y="396.8" class="st9" width="5.2" height="4.8"/>
					</g>
					<g>
						<rect x="332" y="384" class="st9" width="7.2" height="4.8"/>
					</g>
					<path class="st16" d="M296.8,397.5v8.8l53.3-50c1.3-1.2,3.4-1.2,4.7,0l53.3,50v-6.8l-54-53.1L296.8,397.5z"/>
					<g>
						<path class="st17" d="M351.3,339.9l-63.5,61.8c-1,1-0.3,2.6,1.1,2.6h6c0.4,0,0.8-0.2,1.1-0.4l55.4-52.7c0.6-0.6,1.5-0.6,2.1,0
							l55.4,52.7c0.3,0.3,0.7,0.4,1.1,0.4h6c1.4,0,2.1-1.7,1.1-2.6l-63.5-61.8C352.9,339.3,351.9,339.3,351.3,339.9z"/>
					</g>
				</g>
				<g>
					<path class="st18" d="M419,519.2c3.5-0.7,6.4-4.1,6.6-7.7c0-0.6,0-1.3-0.3-1.8c-0.6-1.2-2-1.8-3.4-1.7
						c-1.3,0.1-2.6,0.7-3.8,1.3c2.9-3.8,5.1-8.8,3.1-13.2c-0.5-1.2-1.5-2.3-2.8-2.3c-1.3,0-2.3,1.2-3,2.3c-1.8,2.8-3.4,5.9-4.8,9
						c-0.5-3.3-1.5-6.8-4.3-8.6c-0.4-0.3-0.9-0.5-1.4-0.4c-0.5,0.1-0.9,0.3-1.2,0.7c-2.4,2.4-2.2,6.3-1.8,9.6
						c-0.7-2.2-3.8-3.1-5.9-2.1c-2.1,1-3.4,3.3-3.8,5.7c-0.4,1.9-0.3,3.9,0.5,5.5c0.9,1.7,2.8,3.8,4.7,3.7"/>
				</g>
				<g>
					<path class="st18" d="M291,518.8c-2.9-0.6-5.2-3.3-5.4-6.3c0-0.5,0-1,0.2-1.5c0.5-1,1.7-1.5,2.8-1.4c1.1,0.1,2.1,0.6,3.1,1
						c-2.4-3.1-4.1-7.2-2.6-10.8c0.4-0.9,1.2-1.9,2.3-1.9c1.1,0,1.9,1,2.5,1.9c1.5,2.3,2.8,4.8,3.9,7.3c0.4-2.7,1.2-5.6,3.5-7
						c0.3-0.2,0.7-0.4,1.1-0.3c0.4,0,0.7,0.3,1,0.5c2,1.9,1.8,5.1,1.5,7.9c0.6-1.8,3.1-2.5,4.8-1.7c1.7,0.8,2.8,2.7,3.1,4.6
						c0.3,1.5,0.3,3.2-0.4,4.5c-0.7,1.4-2.3,3.1-3.8,3"/>
				</g>
			</g>
			<g>
				<g>
					<polygon class="st8" points="297.5,519 135.8,519 135.8,342.5 216.6,264 297.5,345.5 					"/>
					<rect x="135.8" y="425.1" class="st9" width="161.7" height="12.2"/>
					<g>
						<g>
							<path class="st10" d="M166.9,483.3c-0.1,0-0.2,0-0.3-0.1c-0.2-0.2-0.2-0.4,0-0.6l10-9.7c0.2-0.2,0.4-0.2,0.6,0
								c0.2,0.2,0.2,0.4,0,0.6l-10,9.7C167.2,483.2,167,483.3,166.9,483.3z"/>
						</g>
						<g>
							<path class="st10" d="M183.9,486.7c-0.1,0-0.2,0-0.3-0.1c-0.2-0.2-0.2-0.4,0-0.6l10-9.7c0.2-0.2,0.4-0.2,0.6,0
								c0.2,0.2,0.2,0.4,0,0.6l-10,9.7C184.1,486.7,184,486.7,183.9,486.7z"/>
						</g>
						<path class="st11" d="M177.8,450.4L177.8,450.4c11.1,0,20.2,9,20.2,20.2V519h-40.4v-48.3C157.6,459.5,166.6,450.4,177.8,450.4
							z"/>
						<path class="st12" d="M177.8,454.4L177.8,454.4c9.4,0,17.1,7.7,17.1,17.1v46.9c0,0.3-0.3,0.6-0.6,0.6h-33
							c-0.3,0-0.6-0.3-0.6-0.6v-46.9C160.7,462,168.4,454.4,177.8,454.4z"/>
						<g>
							<g>
								<path class="st13" d="M163.7,503.7c-0.1,0-0.1,0-0.2-0.1c-0.1-0.1-0.1-0.3,0-0.4l23.8-23.6c0.1-0.1,0.3-0.1,0.4,0
									c0.1,0.1,0.1,0.3,0,0.4l-23.8,23.6C163.8,503.7,163.7,503.7,163.7,503.7z"/>
								<path class="st13" d="M163.7,503.8c-0.1,0-0.2,0-0.2-0.1c-0.1-0.1-0.1-0.4,0-0.5l23.8-23.6c0.1-0.1,0.4-0.1,0.5,0
									c0.1,0.1,0.1,0.4,0,0.5l-23.8,23.6C163.8,503.7,163.8,503.8,163.7,503.8z M187.4,479.6c-0.1,0-0.1,0-0.2,0.1l-23.8,23.6
									c-0.1,0.1-0.1,0.2,0,0.3c0.1,0.1,0.2,0.1,0.3,0l23.8-23.6c0.1-0.1,0.1-0.2,0-0.3C187.5,479.6,187.5,479.6,187.4,479.6z"/>
							</g>
						</g>
						<g>
							<g>
								<path class="st13" d="M177.3,498.4c0,0-0.1,0-0.1,0c-0.1-0.1-0.1-0.1,0-0.2l12.3-11.4c0.1-0.1,0.2-0.1,0.2,0
									c0.1,0.1,0.1,0.1,0,0.2l-12.3,11.4C177.4,498.4,177.4,498.4,177.3,498.4z"/>
								<path class="st13" d="M177.3,498.6c-0.1,0-0.2,0-0.2-0.1c-0.1-0.1-0.1-0.1-0.1-0.2c0-0.1,0-0.2,0.1-0.2l12.3-11.4
									c0.1-0.1,0.3-0.1,0.4,0c0.1,0.1,0.1,0.1,0.1,0.2c0,0.1,0,0.2-0.1,0.2l-12.3,11.4C177.5,498.6,177.4,498.6,177.3,498.6z"/>
							</g>
						</g>
						<g>
							<g>
								<path class="st13" d="M169.6,489c-0.1,0-0.1,0-0.2-0.1c-0.1-0.1-0.1-0.2,0-0.3l17.9-17.1c0.1-0.1,0.2-0.1,0.3,0
									c0.1,0.1,0.1,0.2,0,0.3L169.8,489C169.7,489,169.7,489,169.6,489z"/>
								<path class="st13" d="M169.6,489.2c-0.1,0-0.2,0-0.3-0.1c-0.1-0.1-0.1-0.2-0.1-0.3c0-0.1,0-0.2,0.1-0.3l17.9-17.1
									c0.1-0.1,0.4-0.1,0.5,0c0.1,0.1,0.1,0.2,0.1,0.3c0,0.1,0,0.2-0.1,0.3l-17.9,17.1C169.8,489.2,169.7,489.2,169.6,489.2z
									 M187.5,471.7C187.5,471.7,187.5,471.7,187.5,471.7l-17.9,17.1c0,0,0,0,0,0c0,0,0,0,0,0c0,0,0.1,0,0.1,0L187.5,471.7
									C187.6,471.8,187.6,471.8,187.5,471.7C187.6,471.8,187.6,471.8,187.5,471.7C187.5,471.7,187.5,471.7,187.5,471.7z"/>
							</g>
						</g>
					</g>
					<g>
						<rect x="234.5" y="457.1" class="st14" width="37.8" height="36.2"/>
						<g>
							<g>
								<path class="st15" d="M246.3,470.2c-0.1,0-0.1,0-0.2-0.1c-0.1-0.1-0.1-0.3,0-0.4l6.3-6.1c0.1-0.1,0.3-0.1,0.4,0
									c0.1,0.1,0.1,0.3,0,0.4l-6.3,6.1C246.5,470.2,246.4,470.2,246.3,470.2z"/>
							</g>
							<g>
								<path class="st15" d="M250.2,476.8c-0.1,0-0.1,0-0.2-0.1c-0.1-0.1-0.1-0.3,0-0.4l6.3-6.1c0.1-0.1,0.3-0.1,0.4,0
									c0.1,0.1,0.1,0.3,0,0.4l-6.3,6.1C250.4,476.8,250.3,476.8,250.2,476.8z"/>
							</g>
							<g>
								<path class="st15" d="M243.4,476.4c-0.1,0-0.1,0-0.2-0.1c-0.1-0.1-0.1-0.3,0-0.4l19.9-17.8c0.1-0.1,0.3-0.1,0.4,0
									c0.1,0.1,0.1,0.3,0,0.4l-19.9,17.8C243.6,476.4,243.5,476.4,243.4,476.4z"/>
							</g>
						</g>
						<g>
							<g>
								<rect x="252.3" y="457.1" class="st11" width="2.1" height="37.4"/>
							</g>
						</g>
						<g>
							<g>
								<g>
									<rect x="234.5" y="467" class="st11" width="37.8" height="2.1"/>
								</g>
							</g>
							<g>
								<g>
									<rect x="234.5" y="479.3" class="st11" width="37.8" height="2.1"/>
								</g>
							</g>
						</g>
						<rect x="230.5" y="450.1" class="st11" width="45.8" height="7"/>
						<rect x="230.5" y="490.9" class="st11" width="45.8" height="7"/>
					</g>
					<g>
						<g>
							<rect x="152.8" y="353.2" class="st14" width="39.5" height="49.1"/>
							<g>
								<g>
									<path class="st15" d="M164.7,378.5c-0.1,0-0.1,0-0.2-0.1c-0.1-0.1-0.1-0.2,0-0.3l5.6-5.4c0.1-0.1,0.2-0.1,0.3,0
										c0.1,0.1,0.1,0.2,0,0.3l-5.6,5.4C164.9,378.5,164.8,378.5,164.7,378.5z"/>
								</g>
								<g>
									<path class="st15" d="M171.6,379.4c-0.1,0-0.1,0-0.2-0.1c-0.1-0.1-0.1-0.2,0-0.3l5.6-5.4c0.1-0.1,0.2-0.1,0.3,0
										c0.1,0.1,0.1,0.2,0,0.3l-5.6,5.4C171.7,379.4,171.7,379.4,171.6,379.4z"/>
								</g>
								<g>
									<path class="st15" d="M162.2,384c-0.1,0-0.1,0-0.2-0.1c-0.1-0.1-0.1-0.2,0-0.3l17.7-15.8c0.1-0.1,0.2-0.1,0.3,0
										c0.1,0.1,0.1,0.2,0,0.3L162.3,384C162.3,384,162.2,384,162.2,384z"/>
								</g>
							</g>
							<g>
								<g>
									<rect x="171.7" y="353.2" class="st11" width="1.7" height="51.5"/>
								</g>
							</g>
							<g>
								<g>
									<g>
										<rect x="152.9" y="368.7" class="st11" width="39.3" height="1.7"/>
									</g>
								</g>
								<g>
									<g>
										<rect x="152.9" y="385.2" class="st11" width="39.3" height="1.7"/>
									</g>
								</g>
							</g>
							<path class="st11" d="M191.8,407h-38.5c-1.3,0-2.3-1-2.3-2.3l0,0c0-1.3,1-2.3,2.3-2.3h38.5c1.3,0,2.3,1,2.3,2.3l0,0
								C194.2,406,193.1,407,191.8,407z"/>
						</g>
						<g>
							<rect x="240.9" y="353.2" class="st14" width="39.5" height="49.1"/>
							<g>
								<g>
									<path class="st15" d="M252.8,378.5c-0.1,0-0.1,0-0.2-0.1c-0.1-0.1-0.1-0.2,0-0.3l5.6-5.4c0.1-0.1,0.2-0.1,0.3,0
										c0.1,0.1,0.1,0.2,0,0.3l-5.6,5.4C252.9,378.5,252.9,378.5,252.8,378.5z"/>
								</g>
								<g>
									<path class="st15" d="M259.7,379.4c-0.1,0-0.1,0-0.2-0.1c-0.1-0.1-0.1-0.2,0-0.3l5.6-5.4c0.1-0.1,0.2-0.1,0.3,0
										c0.1,0.1,0.1,0.2,0,0.3l-5.6,5.4C259.8,379.4,259.7,379.4,259.7,379.4z"/>
								</g>
								<g>
									<path class="st15" d="M250.2,384c-0.1,0-0.1,0-0.2-0.1c-0.1-0.1-0.1-0.2,0-0.3l17.7-15.8c0.1-0.1,0.2-0.1,0.3,0
										c0.1,0.1,0.1,0.2,0,0.3L250.4,384C250.3,384,250.3,384,250.2,384z"/>
								</g>
							</g>
							<g>
								<g>
									<rect x="259.8" y="353.2" class="st11" width="1.7" height="51.5"/>
								</g>
							</g>
							<g>
								<g>
									<g>
										<rect x="241" y="368.7" class="st11" width="39.3" height="1.7"/>
									</g>
								</g>
								<g>
									<g>
										<rect x="241" y="385.2" class="st11" width="39.3" height="1.7"/>
									</g>
								</g>
							</g>
							<path class="st11" d="M279.9,407h-38.5c-1.3,0-2.3-1-2.3-2.3l0,0c0-1.3,1-2.3,2.3-2.3h38.5c1.3,0,2.3,1,2.3,2.3l0,0
								C282.2,406,281.2,407,279.9,407z"/>
						</g>
					</g>
					<g>
						<rect x="254.8" y="332" class="st9" width="13.4" height="7"/>
					</g>
					<g>
						<rect x="139.5" y="443.3" class="st9" width="13.4" height="7"/>
					</g>
					<g>
						<rect x="135.7" y="451.8" class="st9" width="7.6" height="7"/>
					</g>
					<g>
						<rect x="289.8" y="475.8" class="st9" width="7.6" height="7"/>
					</g>
					<g>
						<rect x="274.1" y="341.6" class="st9" width="7.6" height="7"/>
					</g>
					<g>
						<rect x="186.9" y="323" class="st9" width="10.5" height="7"/>
					</g>
					<path class="st16" d="M135.8,342.5v12.9l77.4-72.7c1.9-1.8,4.9-1.8,6.8,0l77.4,72.7v-9.9L219,268.2L135.8,342.5z"/>
					<g>
						<path class="st17" d="M215,258.8l-92.4,89.8c-1.4,1.4-0.4,3.8,1.6,3.8h8.7c0.6,0,1.1-0.2,1.5-0.6l80.6-76.7
							c0.9-0.8,2.2-0.8,3.1,0l80.6,76.7c0.4,0.4,1,0.6,1.5,0.6h8.7c2,0,3-2.4,1.6-3.8l-92.4-89.8C217.3,257.9,215.9,257.9,215,258.8
							z"/>
					</g>
				</g>
				<g>
					<path class="st18" d="M313.4,519.4c5.1-1.1,9.3-5.9,9.6-11.1c0-0.9,0-1.9-0.4-2.7c-0.8-1.8-3-2.6-4.9-2.5c-2,0.1-3.8,1-5.6,1.9
						c4.2-5.5,7.4-12.8,4.6-19.1c-0.7-1.7-2.2-3.3-4-3.3c-1.9,0-3.4,1.8-4.4,3.4c-2.7,4.1-5,8.5-7,13.1c-0.7-4.8-2.2-9.9-6.3-12.4
						c-0.6-0.4-1.3-0.7-2-0.6c-0.7,0.1-1.2,0.5-1.7,1c-3.5,3.4-3.2,9.1-2.6,14c-1.1-3.3-5.5-4.5-8.6-3c-3.1,1.5-4.9,4.8-5.6,8.2
						c-0.5,2.7-0.5,5.6,0.8,8.1c1.3,2.4,4,5.5,6.8,5.3"/>
				</g>
				<g>
					<path class="st18" d="M127.4,518.9c-4.2-0.9-7.6-4.8-7.8-9.1c0-0.7,0-1.5,0.3-2.2c0.7-1.5,2.4-2.2,4-2.1
						c1.6,0.1,3.1,0.8,4.5,1.5c-3.4-4.5-6-10.5-3.7-15.6c0.6-1.4,1.8-2.7,3.3-2.7c1.6,0,2.7,1.4,3.6,2.8c2.2,3.4,4.1,7,5.7,10.7
						c0.6-3.9,1.8-8.1,5.2-10.2c0.5-0.3,1.1-0.6,1.6-0.5c0.5,0.1,1,0.4,1.4,0.8c2.9,2.8,2.6,7.4,2.2,11.4c0.9-2.7,4.5-3.7,7-2.5
						c2.5,1.2,4,4,4.6,6.7c0.4,2.2,0.4,4.6-0.6,6.6c-1,2-3.3,4.5-5.5,4.4"/>
				</g>
			</g>
		</g>
		<g>
			<g>
				<g>
					<g>
						<path class="st0" d="M456.8,465.4c0,0-12.5,8.9-20.7-3.1c0,0-13.8,3.4-16.9-9.3c0,0-16.5-1.4-15.9-14.1c0,0-20-9.6-6.9-27.9
							c0,0-12.8-11.3,1.7-24.1c0,0-11-16.5,8.3-21.3c0,0,1.7-19.6,21-15.1c0,0,5.2-16.5,23.8-10.3c0,0,16.7-12.4,26.2,4.1
							c0,0,18.3-2.4,21.7,12.7c0,0,17.6,2.4,15.9,19.9c0,0,13.5,12.4,4.9,27.2c0,0,8.6,24.6-10,26.8c0,0,0.6,10.9-10.4,15.7
							c0,0-2,13.2-13.7,11.1c0,0-9,10-15.5,4.5L456.8,465.4z"/>
					</g>
				</g>
				<g>
					<path class="st1" d="M436.1,433.7c0,0,19.3,2,20.7,12c1.4,10-2.1,90.6-2.1,90.6h20.7c0,0-9-90.6-5.9-97.2
						c3.1-6.6,13.1-10.3,13.1-10.3s-11.4-0.3-15.2,3.1c-3.8,3.4-8.6,4.3-13.8,3.4C448.5,434.5,443.4,433.1,436.1,433.7z"/>
				</g>
			</g>
		</g>
	</g>
</g>
</svg>
