<?xml version="1.0" encoding="utf-8"?>
<!-- Generator: Adobe Illustrator 22.0.1, SVG Export Plug-In . SVG Version: 6.00 Build 0)  -->
<svg version="1.1" id="Слой_1" xmlns="http://www.w3.org/2000/svg" xmlns:xlink="http://www.w3.org/1999/xlink" x="0px" y="0px"
	 viewBox="0 0 54.3 54.5" style="enable-background:new 0 0 54.3 54.5;" xml:space="preserve">
<style type="text/css">
	.st0{fill:#FFFFFF;}
	.st1{fill:#F8743B;}
</style>
<g>
	<g>
		<path class="st0" d="M52.3,25.5c-5.1-15.8-13.8-39.4-41-14.2c-25.2,27.3-1.6,36,14.2,41c8.7,2.8,18.1,2.9,23.9-2.9
			C54.8,44.1,55.1,34.2,52.3,25.5z"/>
	</g>
	<path class="st1" d="M29.4,41V27.6h4.5l0.7-5.2h-5.2V19c0-1.5,0.4-2.5,2.6-2.5l2.8,0v-4.7c-0.5-0.1-2.1-0.2-4-0.2
		c-4,0-6.7,2.4-6.7,6.9v3.9h-4.5v5.2H24V41H29.4L29.4,41z"/>
</g>
</svg>
