<?xml version="1.0" encoding="utf-8"?>
<!-- Generator: Adobe Illustrator 22.0.1, SVG Export Plug-In . SVG Version: 6.00 Build 0)  -->
<svg version="1.1" id="Слой_1" xmlns="http://www.w3.org/2000/svg" xmlns:xlink="http://www.w3.org/1999/xlink" x="0px" y="0px"
	 viewBox="0 0 54.6 54.4" style="enable-background:new 0 0 54.6 54.4;" xml:space="preserve">
<style type="text/css">
	.st0{fill:#F8743B;}
	.st1{fill:#FFFFFF;}
</style>
<g>
	<g>
		<path class="st0" d="M52.4,25.6c-5.1-15.8-13.8-39.4-41-14.2c-25.2,27.3-1.6,36,14.2,41c8.7,2.8,18.1,2.9,23.9-2.9
			C54.8,44.1,55.1,34.2,52.4,25.6z"/>
	</g>
	<g>
		<path class="st1" d="M43,20.9c-0.2-1.9-0.9-3.5-2.3-4.8c-1.5-1.4-3.2-2-5.2-2.1c-3.3-0.2-11.2-0.3-14,0.2
			c-3.2,0.5-5.2,2.4-6.1,5.5c-0.7,2.4-0.5,13.5-0.1,15.9c0.5,3.2,2.5,5.3,5.7,6.2c2.2,0.6,13.2,0.5,15.6,0.1
			c3.2-0.5,5.3-2.4,6.2-5.6C43.4,33.6,43.2,23.1,43,20.9z M40.4,35c-0.4,2.5-2,4-4.5,4.3c-2.3,0.2-12.4,0.4-14.6-0.2
			c-2-0.6-3.2-2-3.5-4c-0.3-1.9-0.4-11.7,0-14.2c0.4-2.4,2-4,4.5-4.2c2.5-0.3,11.5-0.3,13.9,0.1c2.5,0.4,4,2,4.3,4.5
			C40.7,23.5,40.7,32.5,40.4,35z M29.1,20.7c-4,0-7.2,3.2-7.2,7.2c0,4,3.2,7.2,7.2,7.2c4,0,7.2-3.2,7.2-7.2
			C36.3,24,33.1,20.7,29.1,20.7z M29,32.6c-2.6,0-4.7-2.1-4.6-4.7c0-2.6,2.1-4.7,4.7-4.6c2.6,0,4.7,2.1,4.6,4.7S31.6,32.7,29,32.6z
			 M38.3,20.4c0,0.9-0.8,1.7-1.7,1.7c-0.9,0-1.7-0.8-1.7-1.7c0-0.9,0.8-1.7,1.7-1.7C37.5,18.7,38.3,19.5,38.3,20.4z"/>
		<path class="st1" d="M43,20.9c-0.2-1.9-0.9-3.5-2.3-4.8c-1.5-1.4-3.2-2-5.2-2.1c-3.3-0.2-11.2-0.3-14,0.2
			c-3.2,0.5-5.2,2.4-6.1,5.5c-0.7,2.4-0.5,13.5-0.1,15.9c0.5,3.2,2.5,5.3,5.7,6.2c2.2,0.6,13.2,0.5,15.6,0.1
			c3.2-0.5,5.3-2.4,6.2-5.6C43.4,33.6,43.2,23.1,43,20.9z M40.4,35c-0.4,2.5-2,4-4.5,4.3c-2.3,0.2-12.4,0.4-14.6-0.2
			c-2-0.6-3.2-2-3.5-4c-0.3-1.9-0.4-11.7,0-14.2c0.4-2.4,2-4,4.5-4.2c2.5-0.3,11.5-0.3,13.9,0.1c2.5,0.4,4,2,4.3,4.5
			C40.7,23.5,40.7,32.5,40.4,35z M29.1,20.7c-4,0-7.2,3.2-7.2,7.2c0,4,3.2,7.2,7.2,7.2c4,0,7.2-3.2,7.2-7.2
			C36.3,24,33.1,20.7,29.1,20.7z M29,32.6c-2.6,0-4.7-2.1-4.6-4.7c0-2.6,2.1-4.7,4.7-4.6c2.6,0,4.7,2.1,4.6,4.7S31.6,32.7,29,32.6z
			 M38.3,20.4c0,0.9-0.8,1.7-1.7,1.7c-0.9,0-1.7-0.8-1.7-1.7c0-0.9,0.8-1.7,1.7-1.7C37.5,18.7,38.3,19.5,38.3,20.4z"/>
	</g>
</g>
</svg>
