<?xml version="1.0" encoding="utf-8"?>
<!-- Generator: Adobe Illustrator 22.0.1, SVG Export Plug-In . SVG Version: 6.00 Build 0)  -->
<svg version="1.1" id="Слой_1" xmlns="http://www.w3.org/2000/svg" xmlns:xlink="http://www.w3.org/1999/xlink" x="0px" y="0px"
	 viewBox="0 0 12.6 17.5" style="enable-background:new 0 0 12.6 17.5;" xml:space="preserve">
<style type="text/css">
	.st0{fill-rule:evenodd;clip-rule:evenodd;fill:#BF3030;}
</style>
<path class="st0" d="M12.5,6.1c0-3.3-2.8-6-6.2-6c-3.4,0-6.2,2.7-6.2,6c0,0.2,0,0.3,0,0.5h0c0,3.3,6.2,10.9,6.2,10.9
	s6.2-7.6,6.2-10.9h0C12.5,6.4,12.5,6.3,12.5,6.1z M6.3,9.1C4.9,9.1,3.8,8,3.8,6.7c0-1.3,1.1-2.4,2.5-2.4c1.3,0,2.4,1.1,2.4,2.4
	C8.8,8,7.7,9.1,6.3,9.1z"/>
</svg>
