<?xml version="1.0" encoding="utf-8"?>
<!-- Generator: Adobe Illustrator 22.0.1, SVG Export Plug-In . SVG Version: 6.00 Build 0)  -->
<svg version="1.1" id="Слой_1" xmlns="http://www.w3.org/2000/svg" xmlns:xlink="http://www.w3.org/1999/xlink" x="0px" y="0px"
	 viewBox="0 0 54.3 54.5" style="enable-background:new 0 0 54.3 54.5;" xml:space="preserve">
<style type="text/css">
	.st0{fill:#FFFFFF;}
	.st1{fill:#F8743B;}
</style>
<g>
	<g>
		<path class="st0" d="M52.3,25.5c-5.1-15.8-13.8-39.4-41-14.2c-25.2,27.3-1.6,36,14.2,41c8.7,2.8,18.1,2.9,23.9-2.9
			C54.8,44,55.1,34.2,52.3,25.5z"/>
	</g>
	<path class="st1" d="M17.2,21.8c0.9,2.3,2.1,4.5,3.7,6.5c0.2,0.3,0.5,0.5,0.8,0.7c0.4,0.3,0.8,0.2,1-0.3c0.2-0.5,0.3-1.5,0.3-2
		c0-1.3,0-2.2-0.1-3.6c0-0.9-0.4-1.6-1.6-1.8c-0.4-0.1-0.4-0.4-0.2-0.7c0.5-0.7,1.2-0.8,2-0.8c1.3-0.1,2.6,0,3.8,0
		c0.5,0,1,0,1.6,0.2c0.7,0.1,1,0.6,1.1,1.3c0.1,0.3,0.1,0.7,0.1,1c0,1.5-0.1,2.9-0.1,4.4c0,0.6,0,1.2,0.2,1.7c0.2,0.8,0.7,1,1.2,0.4
		c0.7-0.7,1.3-1.5,1.9-2.3c1-1.5,1.8-3.1,2.5-4.8c0.3-0.9,0.6-1.1,1.5-1.1c1.8,0,3.5,0,5.3,0c0.3,0,0.6,0,0.9,0.1
		c0.5,0.2,0.7,0.5,0.6,1c-0.3,1.2-0.9,2.1-1.6,3.1c-1.1,1.5-2.2,3-3.3,4.5c-0.1,0.2-0.3,0.4-0.4,0.6c-0.4,0.7-0.4,1.2,0.2,1.8
		c1,1,2,1.9,2.9,2.9c0.7,0.7,1.3,1.5,1.8,2.4c0.7,1.1,0.3,2.1-1,2.2c-0.8,0.1-4.7,0-4.9,0c-1,0-1.9-0.4-2.7-1.1
		c-0.8-0.8-1.6-1.6-2.3-2.5c-0.2-0.2-0.5-0.5-0.8-0.7c-0.6-0.5-1.3-0.4-1.6,0.4c-0.3,0.6-0.5,2.3-0.5,2.5c-0.1,0.8-0.5,1.2-1.4,1.3
		c-2.4,0.1-4.8-0.1-7-1.3c-1.9-1-3.4-2.4-4.7-4.1c-2.1-2.6-3.7-5.5-5.2-8.5c-0.1-0.2-1.6-3.4-1.6-3.5c-0.1-0.5,0-1,0.4-1.2
		c0.3-0.1,5.2,0,5.3,0C16.4,20.7,16.9,21,17.2,21.8z"/>
</g>
</svg>
