<?xml version="1.0" encoding="utf-8"?>
<!-- Generator: Adobe Illustrator 22.0.1, SVG Export Plug-In . SVG Version: 6.00 Build 0)  -->
<svg version="1.1" id="Слой_1" xmlns="http://www.w3.org/2000/svg" xmlns:xlink="http://www.w3.org/1999/xlink" x="0px" y="0px"
	 viewBox="0 0 54.3 54.5" style="enable-background:new 0 0 54.3 54.5;" xml:space="preserve">
<style type="text/css">
	.st0{fill:#FFFFFF;}
	.st1{fill:#F8743B;}
</style>
<g>
	<g>
		<path class="st0" d="M52.4,25.5c-5.1-15.8-13.8-39.4-41-14.2c-25.2,27.3-1.6,36,14.2,41c8.7,2.8,18.1,2.9,23.9-2.9
			C54.9,44,55.2,34.1,52.4,25.5z"/>
	</g>
	<path class="st1" d="M41.7,25.5c0-0.3,0-0.6-0.1-1c-0.1-1.4-0.3-2.9-1.2-4c-0.8-0.9-2-1.1-3.1-1.3c-1.4-0.2-2.9-0.3-4.3-0.3
		c-2.9-0.1-5.8,0-8.7,0c-1.5,0-3,0.1-4.5,0.2c-1.8,0.1-3.7,0.4-4.6,2.2c-0.8,1.6-0.7,3.7-0.7,5.5c0,1.6,0,3.2,0,4.8
		c0.1,2.1,0.2,4.7,2.4,5.6c1.2,0.5,2.6,0.6,3.9,0.7c1.3,0.1,2.7,0.1,4,0.1c2.8,0,5.6-0.1,8.5-0.1c2,0,4-0.1,5.8-0.7
		c1.6-0.6,2-2.3,2.3-3.8c0.2-1.5,0.2-3,0.2-4.6C41.7,27.7,41.7,26.6,41.7,25.5z M25.4,32.6c0-2.8,0-5.5,0-8.2c2.3,1.4,4.7,2.7,7,4.1
		C30.1,29.8,27.7,31.2,25.4,32.6z"/>
</g>
</svg>
