<?xml version="1.0" encoding="utf-8"?>
<!-- Generator: Adobe Illustrator 22.0.1, SVG Export Plug-In . SVG Version: 6.00 Build 0)  -->
<svg version="1.1" id="Слой_1" xmlns="http://www.w3.org/2000/svg" xmlns:xlink="http://www.w3.org/1999/xlink" x="0px" y="0px"
	 viewBox="0 0 1923.7 877.3" style="enable-background:new 0 0 1923.7 877.3;" xml:space="preserve">
<style type="text/css">
	.st0{clip-path:url(#SVGID_2_);}
	.st1{fill:#009C53;}
	.st2{fill:#303030;}
	.st3{fill:#CAE977;}
	.st4{fill:#635128;}
	.st5{fill:#6B8C46;}
	.st6{fill:#063035;}
	.st7{fill:#856037;}
	.st8{fill:#B48B59;}
	.st9{fill:#FFFFFF;}
	.st10{fill:#CD5351;}
	.st11{fill:#F49045;}
	.st12{fill:#6D6D6C;}
	.st13{fill:#2CBAE5;}
	.st14{fill:#FFF2E7;}
	.st15{fill:#313130;}
	.st16{fill:#585857;}
	.st17{fill:#3E3E3D;}
	.st18{fill:#6F6F6E;}
	.st19{fill:#AEAEAE;}
</style>
<g>
	<g>
		<g>
			<defs>
				<rect id="SVGID_1_" x="-0.5" y="-8.4" width="1924.3" height="894"/>
			</defs>
			<clipPath id="SVGID_2_">
				<use xlink:href="#SVGID_1_"  style="overflow:visible;"/>
			</clipPath>
			<g class="st0">
				<rect x="-12.6" y="174.1" class="st1" width="1940.3" height="714"/>
				<g>
					<g>
						<g>
							<g>
								<rect x="1547.5" y="438.9" class="st2" width="10.1" height="50.8"/>
								<path class="st2" d="M1598.3,443.4h-63.8v6.9h63.7C1598.1,448,1598.2,445.7,1598.3,443.4z"/>
								<path class="st2" d="M1600.1,478.4h-65.7v6.9h65.3C1600.1,483,1600.2,480.7,1600.1,478.4z"/>
							</g>
							<g>
								<polygon class="st2" points="1309.7,551.7 1310.1,544.7 1383.2,546.7 1382.8,553.7 								"/>
								<polygon class="st2" points="1314.3,526.8 1316.3,520 1388.1,530 1386.1,536.8 								"/>
								<polygon class="st2" points="1326.6,501.2 1331.6,495.1 1395.2,520.3 1390.3,526.4 								"/>
								<polygon class="st2" points="1347.6,479.1 1354.7,474.1 1406.8,509.8 1399.7,514.8 								"/>
								<polygon class="st2" points="1374.8,462 1382.9,457.7 1427.1,498.2 1419.1,502.4 								"/>
								<polygon class="st2" points="1408.5,448.2 1417.9,445.6 1444.8,492.9 1435.4,495.5 								"/>
								<polygon class="st2" points="1445.2,440.9 1455.2,439.9 1465.7,490.2 1455.8,491.2 								"/>
								<polygon class="st2" points="1481.6,438.2 1491.7,438 1494,488.8 1483.9,489 								"/>
								<polygon class="st2" points="1517.4,438.2 1527.5,438.3 1526.2,489.1 1516.1,489 								"/>
								<path class="st2" d="M1367.7,481.9c50.8-35.9,104-31.3,169.1-31.7l-0.1-7c-68.3,0.4-122.8-3.9-176.3,33.7
									c-33.8,23.9-43.4,48.4-45.6,75.1c-0.4,5.2,0,10.5,0,15.9c3.3,0,6.7-0.1,10,0C1324.8,536.7,1329.7,508.8,1367.7,481.9z"/>
								<path class="st2" d="M1537.2,478.3c-51.4,0.3-101-4.8-140.7,23.3c-20.7,14.6-29,31.7-31.2,49.6c-0.7,5.6,0.3,11.2,0.3,16.9
									c3.3,0.1,6.7,0.1,10,0c0.2-22.4,3.6-44.3,28.1-61.6c36.9-26,85.9-20.8,133.7-21.1L1537.2,478.3z"/>
							</g>
							<g>
								<polygon class="st2" points="1310.8,656.8 1311.2,663.8 1384.4,661.7 1384,654.7 								"/>
								<polygon class="st2" points="1315.4,681.6 1317.4,688.5 1389.2,678.5 1387.3,671.7 								"/>
								<polygon class="st2" points="1327.7,707.2 1332.7,713.3 1396.4,688.1 1391.4,682 								"/>
								<polygon class="st2" points="1348.7,729.3 1355.8,734.4 1408,698.6 1400.9,693.7 								"/>
								<polygon class="st2" points="1376,746.5 1384,750.7 1428.2,710.3 1420.2,706 								"/>
								<polygon class="st2" points="1409.6,760.3 1419,762.8 1445.9,715.5 1436.6,713 								"/>
								<polygon class="st2" points="1446.3,767.5 1456.3,768.5 1466.9,718.2 1456.9,717.2 								"/>
								<polygon class="st2" points="1482.7,770.2 1492.8,770.5 1495.1,719.7 1485,719.4 								"/>
								<polygon class="st2" points="1518.6,770.2 1528.7,770.1 1527.4,719.3 1517.3,719.4 								"/>
								<path class="st2" d="M1368.9,726.5c50.8,35.9,104,31.3,169.1,31.7l-0.1,7c-68.3-0.4-122.8,3.9-176.3-33.7
									c-40.4-28.6-45.6-58-45.6-91.1c3.3,0,6.7,0.1,10,0C1326,671.6,1330.9,699.6,1368.9,726.5z"/>
								<path class="st2" d="M1538.3,730.2c-51.4-0.3-101,4.8-140.7-23.3c-27.1-19.2-31.1-42.2-31.2-66.4c3.3-0.1,6.7,0.1,10,0.2
									c0.2,22.4,3.9,44,28.3,61.3c36.9,26,85.9,20.8,133.7,21.1L1538.3,730.2z"/>
							</g>
							<g>
								<polygon class="st2" points="1309.7,641.6 1309.7,634.6 1382.9,634.1 1383,641.2 								"/>
								<polygon class="st2" points="1309.5,618.6 1309.4,611.5 1382.6,611.1 1382.7,618.1 								"/>
								<polygon class="st2" points="1309.2,595.4 1309.1,588.5 1382.3,588 1382.4,595 								"/>
								<polygon class="st2" points="1308.9,572.4 1308.8,565.4 1382,564.9 1382.1,571.9 								"/>
								<path class="st2" d="M1316.3,650.7l10-0.1l-1.2-94.8c-3.3,0-6.7,0.1-10,0.1L1316.3,650.7z"/>
								<path class="st2" d="M1365.5,556.5l1.2,93.8l10-0.1l-1.2-93.8C1372.2,556.5,1368.8,556.6,1365.5,556.5z"/>
							</g>
						</g>
						<g>
							<g>
								<polygon class="st2" points="1797.6,376.9 1797.2,383.9 1724.1,381.9 1724.4,374.9 								"/>
								<polygon class="st2" points="1793,401.8 1791,408.7 1719.2,398.7 1721.2,391.8 								"/>
								<polygon class="st2" points="1780.7,427.4 1775.7,433.5 1712.1,408.3 1717,402.2 								"/>
								<polygon class="st2" points="1759.7,449.5 1752.6,454.5 1700.4,418.8 1707.6,413.8 								"/>
								<polygon class="st2" points="1732.4,466.7 1724.4,470.9 1680.2,430.5 1688.2,426.2 								"/>
								<polygon class="st2" points="1698.8,480.4 1689.4,483 1662.5,435.7 1671.9,433.1 								"/>
								<polygon class="st2" points="1662.1,487.7 1652.1,488.7 1641.5,438.4 1651.5,437.4 								"/>
								<polygon class="st2" points="1625.7,490.4 1615.6,490.7 1613.3,439.8 1623.4,439.6 								"/>
								<polygon class="st2" points="1589.9,490.4 1579.8,490.3 1581,439.5 1591.1,439.6 								"/>
								<path class="st2" d="M1739.6,446.7c-50.8,35.9-104,31.3-169.1,31.7l0.1,7c68.3-0.4,122.8,3.9,176.3-33.7
									c40.4-28.6,45.6-58,45.6-91.1c-3.3,0-6.7,0.1-10,0C1782.5,391.8,1777.6,419.8,1739.6,446.7z"/>
								<path class="st2" d="M1570.1,450.4c51.4-0.3,101,4.8,140.7-23.3c27.1-19.2,31.1-42.2,31.2-66.4c-3.3-0.1-6.7,0.1-10,0.2
									c-0.2,22.4-3.9,44-28.3,61.3c-36.9,26-85.9,20.8-133.7,21.1L1570.1,450.4z"/>
							</g>
							<g>
								<polygon class="st2" points="1798.7,361.8 1798.8,354.8 1725.5,354.3 1725.5,361.3 								"/>
								<polygon class="st2" points="1799,338.7 1799.1,331.7 1725.8,331.3 1725.7,338.3 								"/>
								<polygon class="st2" points="1799.3,315.6 1799.4,308.7 1726.1,308.2 1726,315.2 								"/>
								<polygon class="st2" points="1799.6,292.5 1799.7,285.5 1726.4,285.1 1726.3,292.1 								"/>
								<path class="st2" d="M1792.2,370.8l-10-0.1l1.2-94.8c3.3,0,6.7,0.1,10,0.1L1792.2,370.8z"/>
								<path class="st2" d="M1742.9,276.7l-1.2,93.8l-10-0.1l1.2-93.8C1736.3,276.7,1739.6,276.7,1742.9,276.7z"/>
							</g>
							<g>
								<polygon class="st2" points="1799.9,270.3 1800,263.3 1726.7,262.8 1726.6,269.8 								"/>
								<polygon class="st2" points="1800.2,247.2 1800.3,240.2 1727,239.8 1726.9,246.8 								"/>
								<polygon class="st2" points="1800.5,224.1 1800.6,217.2 1727.3,216.7 1727.2,223.7 								"/>
								<polygon class="st2" points="1800.8,201 1800.8,194 1727.6,193.6 1727.5,200.6 								"/>
								<polygon class="st2" points="1793.4,279.3 1783.4,279.3 1784.6,174.1 1794.8,174.2 								"/>
								<polygon class="st2" points="1744.5,174.1 1742.9,279 1732.9,279 1734,174.2 								"/>
							</g>
						</g>
					</g>
					<g>
						<g>
							<g>
								<rect x="1583.7" y="718.8" class="st2" width="10.1" height="50.8"/>
								<rect x="1550.5" y="718.8" class="st2" width="10.1" height="50.8"/>
								<rect x="1517.3" y="718.8" class="st2" width="10" height="50.8"/>
								<rect x="1484" y="718.8" class="st2" width="10.1" height="50.8"/>
								<path class="st2" d="M1606.9,723.2v6.9h-136.6c0-2.3,0-4.6,0-6.9H1606.9z"/>
								<path class="st2" d="M1471.7,758.2h135.2v6.9h-135.2C1471.8,762.8,1471.8,760.5,1471.7,758.2z"/>
							</g>
							<g>
								<polygon class="st2" points="1831.7,831.5 1831.3,824.5 1758.1,826.5 1758.5,833.5 								"/>
								<polygon class="st2" points="1827.1,806.7 1825.1,799.8 1753.3,809.8 1755.2,816.6 								"/>
								<polygon class="st2" points="1814.8,781 1809.8,774.9 1746.1,800.2 1751.1,806.3 								"/>
								<polygon class="st2" points="1793.8,758.9 1786.7,753.9 1734.5,789.6 1741.6,794.6 								"/>
								<polygon class="st2" points="1766.5,741.8 1758.5,737.5 1714.3,778 1722.3,782.2 								"/>
								<polygon class="st2" points="1732.9,728 1723.5,725.5 1696.6,772.8 1706,775.3 								"/>
								<polygon class="st2" points="1696.2,720.8 1686.2,719.8 1675.6,770.1 1685.6,771.1 								"/>
								<polygon class="st2" points="1659.8,718.1 1649.7,717.8 1647.4,768.6 1657.5,768.9 								"/>
								<polygon class="st2" points="1623.9,718 1613.8,718.2 1615.1,768.9 1625.2,768.9 								"/>
								<path class="st2" d="M1773.6,761.8c-50.8-35.9-104-31.3-169.1-31.7l0.1-7c68.3,0.4,122.8-3.9,176.3,33.7
									c33.8,23.9,43.4,48.4,45.6,75.1c0.4,5.2,0,10.5,0,15.9c-3.3,0-6.7-0.1-10,0C1816.5,816.5,1811.6,788.6,1773.6,761.8z"/>
								<path class="st2" d="M1604.2,758.1c51.4,0.3,101-4.8,140.7,23.3c20.7,14.6,29,31.7,31.2,49.6c0.7,5.6-0.3,11.2-0.3,16.9
									c-3.3,0.1-6.7,0.1-10,0c-0.2-22.4-3.6-44.3-28.1-61.6c-36.9-26-85.9-20.8-133.7-21.1L1604.2,758.1z"/>
							</g>
							<g>
								<polygon class="st2" points="1832.2,875.3 1832.3,868.3 1759.1,867.9 1759,874.8 								"/>
								<polygon class="st2" points="1832.5,852.2 1832.6,845.2 1759.4,844.7 1759.3,851.8 								"/>
								<path class="st2" d="M1825.1,930.5l-10-0.1l1.2-94.8c3.3,0,6.7,0.1,10,0.1L1825.1,930.5z"/>
								<path class="st2" d="M1775.9,836.4l-1.2,93.8l-10-0.1l1.2-93.8C1769.2,836.4,1772.5,836.4,1775.9,836.4z"/>
							</g>
						</g>
					</g>
				</g>
				<g>
					<g>
						<g>
							<g>
								<path class="st3" d="M1592.5,236.7c0,0-14.1-3.8-20-23.5c-6-19.7-6.9-69,0-88.8c6.9-19.7,22.8-34.9,32.3-21.4
									c9.5,13.4,15.3,75.4,8.7,101.8C1606.9,231.3,1597.4,235.5,1592.5,236.7z"/>
							</g>
						</g>
						<g>
							<path class="st4" d="M1586.1,295.3c0,0,1.8-72,1.3-74.4s-6.9-13.5-6.9-13.5s8.2,10,9,5.9s2.3-35.6,2.3-35.6
								s0.5,31.8,2.6,31.5s10.5-12.8,10.5-12.8s-9.8,16.6-9.8,22.8s0.8,76.2,0.8,76.2L1586.1,295.3L1586.1,295.3z"/>
						</g>
					</g>
				</g>
				<g>
					<g>
						<g>
							<g>
								<polygon class="st4" points="248.3,157.2 245.7,157.5 243.2,157.2 238.7,221.9 245.7,221.9 252.7,221.9 								"/>
							</g>
							<g>
								<polygon class="st5" points="278.7,172.2 282.3,172.2 274,153.1 278.7,153.1 271.9,137.9 276.1,137.9 266.6,123.4 
									272.4,123.4 263,104.6 266.6,104.6 259.3,88.1 264.6,88.1 256.2,73.9 261.9,73.9 252,59.8 256.7,59.8 245.7,35.9 
									234.7,59.8 239.4,59.8 229.5,73.9 235.3,73.9 226.9,88.1 232.1,88.1 224.8,104.6 228.5,104.6 219,123.4 224.8,123.4 
									215.4,137.9 219.6,137.9 212.8,153.1 217.5,153.1 209.1,172.2 212.8,172.2 203.9,189.5 245.7,189.5 287.6,189.5 								"/>
							</g>
						</g>
					</g>
					<g>
						<g>
							<g>
								<polygon class="st4" points="178.9,167.8 175.8,168.2 172.7,167.8 167.2,247 175.8,247 184.3,247 								"/>
							</g>
							<g>
								<polygon class="st5" points="216.1,186.1 220.6,186.1 210.4,162.7 216.1,162.7 207.8,144.2 212.9,144.2 201.4,126.3 
									208.4,126.3 196.9,103.4 201.4,103.4 192.4,83.2 198.8,83.2 188.6,65.7 195.6,65.7 183.5,48.5 189.2,48.5 175.8,19.2 
									162.3,48.5 168.1,48.5 155.9,65.7 162.9,65.7 152.7,83.2 159.1,83.2 150.1,103.4 154.6,103.4 143.1,126.3 150.1,126.3 
									138.6,144.2 143.7,144.2 135.4,162.7 141.2,162.7 130.9,186.1 135.4,186.1 124.5,207.4 175.8,207.4 227,207.4 								"/>
							</g>
						</g>
					</g>
				</g>
				<g>
					<g>
						<g>
							<g>
								<path class="st3" d="M621.9,161c0,0-21.6-2.5-30.7-15.8c-9.1-13.3-10.6-40.6,0-53.9s29.7-23.4,44.3-14.4
									s28.7,44.8,18.6,62.6C644,157.3,629.5,160.1,621.9,161z"/>
							</g>
						</g>
						<g>
							<path class="st6" d="M613.3,225.8c0,0,2.8-78.7,2-81.2s-10.6-13.9-10.6-13.9s12.6,10.3,13.8,6s3.5-36.6,3.5-36.6
								s0.8,32.7,3.9,32.3c3.1-0.4,16.1-13.1,16.1-13.1s-15,17.2-15,23.6s1.2,82.9,1.2,82.9L613.3,225.8L613.3,225.8z"/>
						</g>
					</g>
				</g>
				<g>
					<g>
						<g>
							<polygon class="st4" points="1162.8,420.4 1160.3,420.7 1157.7,420.4 1153.3,485.1 1160.3,485.1 1167.2,485.1 							"/>
						</g>
						<g>
							<polygon class="st5" points="1193.2,435.4 1196.9,435.4 1188.5,416.3 1193.2,416.3 1186.4,401.2 1190.6,401.2 1181.2,386.6 
								1186.9,386.6 1177.5,367.9 1181.2,367.9 1173.9,351.4 1179.1,351.4 1170.7,337.1 1176.5,337.1 1166.5,323.1 1171.2,323.1 
								1160.3,299.1 1149.3,323.1 1154,323.1 1144,337.1 1149.8,337.1 1141.4,351.4 1146.7,351.4 1139.3,367.9 1143,367.9 
								1133.6,386.6 1139.3,386.6 1129.9,401.2 1134.1,401.2 1127.3,416.3 1132,416.3 1123.6,435.4 1127.3,435.4 1118.4,452.8 
								1160.3,452.8 1202.1,452.8 							"/>
						</g>
					</g>
				</g>
				<g>
					<g>
						<g>
							<polygon class="st4" points="1864.6,161.1 1862.1,161.5 1859.6,161.1 1855.1,225.9 1862.1,225.9 1869.1,225.9 							"/>
						</g>
						<g>
							<polygon class="st5" points="1895.1,176.1 1898.7,176.1 1890.3,157 1895.1,157 1888.3,141.9 1892.4,141.9 1883,127.3 
								1888.8,127.3 1879.4,108.6 1883,108.6 1875.7,92.1 1880.9,92.1 1872.6,77.8 1878.3,77.8 1868.4,63.8 1873.1,63.8 
								1862.1,39.8 1851.1,63.8 1855.8,63.8 1845.9,77.8 1851.6,77.8 1843.3,92.1 1848.5,92.1 1841.2,108.6 1844.8,108.6 
								1835.4,127.3 1841.2,127.3 1831.7,141.9 1835.9,141.9 1829.1,157 1833.8,157 1825.5,176.1 1829.1,176.1 1820.2,193.5 
								1862.1,193.5 1904,193.5 							"/>
						</g>
					</g>
				</g>
				<g>
					<g>
						<path class="st7" d="M1364,355.5l-30.2,2.9c-3.2,0.3-6-2-6.3-5.2l-20-208.7c-0.3-3.2,2-6,5.2-6.3l30.3-2.9
							c3.2-0.3,6,2,6.3,5.2l20,208.7C1369.6,352.3,1367.2,355.2,1364,355.5z"/>
						<polygon class="st8" points="1187.3,237.2 1285.4,265.2 1280.2,246.6 1439.2,193.3 1417.4,126.2 1258.3,179.5 1250.9,157.2 
													"/>
					</g>
					<g>
						<path class="st9" d="M1290.1,174.6l1.6-0.6c1.8-0.7,4.4,2.4,7.8,9.4c2.3,7,2.2,11-0.3,12c-2.3,0.9-5.1-2-8.3-8.9l-0.3-0.8
							C1288.5,179.1,1288.4,175.3,1290.1,174.6z M1291.1,175.4c-1,2.3-0.7,5.3,0.7,8.9l1.1,2.6c2.1,4.6,4,7,5.8,7.2l0.7-0.2
							c0.5-2.8,0.2-6.1-1.3-9.6l-0.5-1.3C1295.6,178.5,1293.5,175.9,1291.1,175.4z"/>
						<path class="st9" d="M1303.6,168.7c1.3-0.5,2.5-0.1,3.4,1.3c0.1,0.4,0,0.6-0.5,0.8l-2.5-0.8l-0.7,0.2
							c-1.3,0.6-0.9,3.8,0.8,9.4l0.5,1.3c2.5,6.1,4.5,8.9,6.2,8.3c0.2-0.1,0.8-0.8,1.7-2.2l0.3-0.1c0.5-0.2,0.7,0,0.8,0.3
							c-0.2,1.4-0.9,2.4-2.1,2.9l-0.3,0.1c-2.7,1.1-5.4-1.7-8-8.1l-0.6-1.6C1300.2,173.9,1300.5,170,1303.6,168.7z"/>
						<path class="st9" d="M1306.9,167.9l8.2-3.3c0.5-0.2,0.7,0,0.8,0.3l0.1,0.3c0.1,0.4,0,0.6-0.5,0.8l-3.4,1.4
							c1.9,4.2,3.4,7.6,4.4,10.1l3.6,9.2l-1.2,0.5c-1.3-2.5-2.1-4.4-2.6-5.6l-5.5-13.9l-3.4,1.4c-0.5,0.2-0.7,0.1-0.8-0.3l-0.1-0.3
							C1306.4,168.4,1306.6,168.1,1306.9,167.9z"/>
						<path class="st9" d="M1321,162.4c0.8-0.4,3,2.8,6.6,9.3c0.3-0.1,2.3,2.9,5.8,9.2l-0.6,0.5c-0.8,0.3-2.3-1.9-4.8-6.4l-2.8,1.1
							c-0.4,0.1,0,2.8,1,7.9l-0.7,0.2c-0.5,0.2-0.7,0.1-0.8-0.3c-2.8-13-4.1-20.1-4.2-21.5L1321,162.4z M1323,167.3
							c0.4,0.9,0.9,3.5,1.7,8l2.8-1.1c-2.4-3.6-3.8-6-4.2-6.9L1323,167.3z"/>
						<path class="st9" d="M1330.2,158.8c0.5-0.2,0.7,0,0.8,0.3l3.3,8.2l3.2-1.3l-3.3-8.2c-0.1-0.4,0.1-0.7,0.5-0.8l1.1,0.2
							c0.9,3,1.6,5.2,2.2,6.5l5.3,13.3c0.1,0.4,0,0.6-0.4,0.8l-0.3,0.1c-0.4,0.1-0.7,0.1-0.8-0.3l-2.6-6.4c-0.4-0.8-0.7-2.2-1.2-4
							l-3.2,1.3l4.1,10.2c0.1,0.4,0,0.6-0.5,0.8l-0.3,0.1c-0.5,0.2-0.7,0.1-0.8-0.3l-4.3-10.8c-0.1-0.2,0-0.3,0.2-0.4
							c-0.1-0.2-0.2-0.3-0.4-0.2l-0.2-1.4l-2.8-7.2C1329.6,159.1,1329.8,158.9,1330.2,158.8z"/>
						<path class="st9" d="M1343.3,153.5l1.6-0.6c1.8-0.7,4.4,2.4,7.8,9.4c2.3,7,2.2,11-0.3,12c-2.3,0.9-5.1-2-8.3-8.9l-0.3-0.8
							C1341.7,157.9,1341.6,154.2,1343.3,153.5z M1344.3,154.3c-1,2.3-0.7,5.3,0.7,8.9l1.1,2.6c2.1,4.6,4,7,5.8,7.2l0.7-0.2
							c0.5-2.8,0.2-6.1-1.3-9.6l-0.5-1.3C1348.8,157.4,1346.7,154.8,1344.3,154.3z"/>
						<path class="st9" d="M1354,149.3c2.5-1,4.8,0,7,2.8l0.6,1.6c0.4,1-0.1,2.8-1.5,5.3c2.4,0,4,1,4.7,2.8l0.6,1.6
							c0.8,2.1-0.5,4.3-3.9,6.6c-0.5,0.2-0.7,0.1-0.8-0.3l-7.6-19.3C1352.8,150.1,1353.2,149.7,1354,149.3z M1354.8,150.5l3.4,8.5
							c1.8-2.1,2.5-4,1.8-5.8C1358,150.8,1356.3,149.9,1354.8,150.5z M1358.6,160.2l3.2,7.9l0.3-0.1c1.8-1.6,2.2-3.4,1.5-5.3
							C1363,161.2,1361.4,160.4,1358.6,160.2z"/>
						<path class="st9" d="M1364,145l0.3-0.1c0.5-0.2,0.7,0,0.8,0.3l2.5,6.1l0.3-0.1c0.3-5.3,0.7-8,1.2-8.2l0.3-0.1
							c0.5-0.2,0.7,0,0.9,0.5c-0.7,5.6-1.2,9.3-1.6,10.8c6.1,5.6,9.2,8.6,9.5,9.1l-0.6,0.5l-0.7,0.2c-4.2-3.8-6.4-5.9-6.6-6.3
							l-0.3,0.1c1.5,4.5,2.4,7,2.6,7.6l-0.6,0.5c-0.5,0.2-0.7,0.1-0.8-0.3l-7.9-19.7C1363.5,145.3,1363.6,145.1,1364,145z"/>
						<path class="st9" d="M1376.3,140.4c0.8-0.4,3,2.8,6.6,9.3c0.3-0.1,2.3,2.9,5.8,9.2l-0.6,0.5c-0.8,0.3-2.3-1.9-4.8-6.4
							l-2.8,1.1c-0.4,0.1,0,2.8,1,7.9l-0.7,0.2c-0.5,0.2-0.7,0.1-0.8-0.3c-2.8-13-4.1-20.1-4.2-21.5L1376.3,140.4z M1378.3,145.3
							c0.4,0.9,0.9,3.5,1.7,8l2.8-1.1c-2.4-3.6-3.8-6-4.2-6.9L1378.3,145.3z"/>
						<path class="st9" d="M1387.5,143.4l0.9-0.4c0.4-0.1,0.7,0,0.8,0.3l0.2,0.6c0.2,0.6-0.1,1-0.9,1.3c-0.4-0.1-0.8,0.1-1,0.1
							l-0.4-1C1387,143.8,1387.2,143.5,1387.5,143.4z M1391.2,151.7l0.3-0.1c0.3-0.1,0.7,0,1.3,0.4l0.2,0.5c0.1,0.4,0,0.6-0.4,0.8
							l-0.9,0.4c-0.5,0.2-0.7,0.1-0.8-0.3l-0.2-0.5C1390.5,152.6,1390.7,152.2,1391.2,151.7z"/>
						<path class="st9" d="M1279.9,212.7l6.5-2.6l0.5,1.3l-1.9,1.2l-3.3,1.3c1.1,3.4,1.9,5.9,2.5,7.4l0.9,2.3l5.7-2.2l0.5,1.3
							l-1.9,1.2l-3.6,1.4l5.3,13.2c0.2,0.5-0.1,0.8-0.5,1l-0.4,0.1c-0.6,0.2-0.9,0.1-1.1-0.4l-4-10c-0.1-0.2,0-0.4,0.3-0.5
							c-0.1-0.2-0.3-0.2-0.5-0.2l-0.5-2.5l-5-12.6C1279.2,213.1,1279.4,212.8,1279.9,212.7z"/>
						<path class="st9" d="M1293.6,207.5c1.1-0.5,3.9,3.5,8.6,12c0.4-0.1,2.9,3.9,7.6,11.9l-0.7,0.7c-0.9,0.4-3-2.4-6.2-8.3
							l-3.6,1.4c-0.5,0.2-0.1,3.6,1.2,10.2l-0.9,0.3c-0.6,0.2-0.9,0.1-1.1-0.4c-3.5-16.8-5.3-26-5.4-27.8L1293.6,207.5z
							 M1296.1,213.9c0.5,1.1,1.2,4.6,2.2,10.2l3.6-1.4c-3.2-4.7-4.9-7.7-5.4-8.9L1296.1,213.9z"/>
						<path class="st9" d="M1304.4,203.6l1.6-0.6c6.6,8.6,10.3,13.8,11.4,15.8l0.4-0.1l-6.7-16.9c-0.1-0.5,0.2-0.8,0.5-0.9l1.2-0.5
							l10.4,26.2c0.2,0.5-0.1,0.8-0.5,1c-1,0.4-4.3-3.8-10.1-12.5c-0.4,0.1-1.3-1.1-3-3.9l-0.4,0.1l7.2,17.9c0.2,0.5,0,0.7-0.5,1
							c-0.6,0.2-0.9,0.1-1.1-0.4L1304.4,203.6z"/>
						<path class="st9" d="M1316.7,198.4l10.5-4.2c0.6-0.2,0.9,0,1.1,0.4l0.1,0.4c0.2,0.5-0.1,0.8-0.5,1l-4.5,1.8
							c2.5,5.5,4.4,9.8,5.7,13.1l4.7,11.9l-1.6,0.6c-1.6-3.3-2.7-5.6-3.3-7.1l-7.2-17.9l-4.5,1.8c-0.6,0.2-0.9,0.1-1.1-0.4l-0.1-0.4
							C1316,198.9,1316.2,198.6,1316.7,198.4z"/>
						<path class="st9" d="M1334.8,191.2c1.1-0.5,3.9,3.5,8.6,12c0.4-0.1,2.9,3.9,7.6,11.9l-0.7,0.7c-0.9,0.4-3-2.4-6.2-8.3
							l-3.6,1.4c-0.5,0.2-0.1,3.6,1.2,10.2l-0.9,0.3c-0.6,0.2-0.9,0.1-1.1-0.4c-3.5-16.8-5.3-26-5.4-27.8L1334.8,191.2z
							 M1337.3,197.5c0.5,1.1,1.2,4.6,2.2,10.2l3.6-1.4c-3.2-4.7-4.9-7.7-5.4-8.9L1337.3,197.5z"/>
						<path class="st9" d="M1348,186.6l2.1-0.8c1.9-0.1,3,0.5,3.5,1.7l0.1,0.4l-1.7,0.7c-0.4-0.8-1.4-1.1-3.1-0.7
							c-1.3,0.5-1.7,1.8-1.2,3.9c0.4,0.9,3.6,3.6,9.8,8c1.2,1.4,2.1,2.9,2.7,4.3l0.1,0.4c1.6,4,0.8,6.6-2.1,7.8l-1.2,0.5
							c-1.6,0-2.6-0.6-3-1.8c-0.1-0.5,0.2-0.8,0.5-1l0.9-0.3c0.2,0.7,0.9,1.2,2,1.5c1.6-0.6,2-2.2,1.3-4.8l-0.8-2
							c-1.1-2.7-4.5-5.8-10.3-9.3l-1.1-1.8l-0.7-1.7C1345.1,189.1,1345.8,187.6,1348,186.6z"/>
						<path class="st9" d="M1355.3,183.4l1.2-0.5c0.7,0,3.1,1.9,7,5.7l0.4-0.1c0.1-5.4,0.6-8.4,1.1-8.9l0.4-0.1
							c0.6-0.2,0.9,0,1.1,0.4c-0.7,6.9-1,10.7-0.8,11l5.9,14.9c0.2,0.5,0,0.7-0.5,0.9l-0.4,0.1c-0.6,0.2-0.9,0.1-1.1-0.4l-5.8-14.6
							l-8.4-8.1L1355.3,183.4z"/>
						<path class="st9" d="M1384.1,170.4c2.1-0.8,3.7-0.2,5,1.9l-1.2,0.5l-2.7-0.9l-0.9,0.3c-1.8,1-1.4,5.6,1.2,13.7
							c3.6,7.8,6,11.4,7.6,10.7l1.6-0.6c0.2-0.1,0.7-0.9,1.4-2.5c0.6-0.2,0.9,0,1.1,0.4l0.2,0.7c-0.4,1.7-1.4,2.9-2.8,3.5
							c-3.5,1.4-6.8-1.7-9.9-9.5l-1.6-4c-2.5-8.2-2.5-12.8,0.1-13.9L1384.1,170.4z"/>
						<path class="st9" d="M1391.7,168.5l0.9-0.3c0.6-0.2,0.9,0,1.1,0.4l1.6,4c2,5.1,4.9,12.6,8.5,22.4l-1.6,0.6l-10-25.2
							L1391.7,168.5z"/>
						<path class="st9" d="M1397,166.4l10.5-4.2c0.6-0.2,0.9,0,1.1,0.4l0.1,0.4c0.2,0.5-0.1,0.8-0.5,1l-4.5,1.8
							c2.5,5.5,4.4,9.8,5.7,13.1l4.7,11.9l-1.6,0.6c-1.6-3.3-2.7-5.6-3.3-7.1l-7.2-17.9l-4.5,1.8c-0.6,0.2-0.9,0.1-1.1-0.4l-0.1-0.4
							C1396.4,166.9,1396.6,166.6,1397,166.4z"/>
						<path class="st9" d="M1409.2,162l1.2-0.5c0.7,0,3.1,1.9,7,5.7l0.4-0.1c0.1-5.4,0.6-8.4,1.1-8.9l0.4-0.1c0.6-0.2,0.9,0,1.1,0.4
							c-0.7,6.9-1,10.7-0.8,11l5.9,14.9c0.2,0.5,0,0.7-0.5,0.9l-0.4,0.1c-0.6,0.2-0.9,0.1-1.1-0.4l-5.8-14.6l-8.4-8.1L1409.2,162z"
							/>
					</g>
				</g>
				<g>
					<g>
						<polygon class="st10" points="1445.4,446.7 1434.9,428.3 1445.4,409.8 1450.7,415.1 1450.7,441.5 						"/>
						<g>
							<polygon class="st11" points="1468.4,407.2 1464.2,383.4 1464.2,378.1 1489,378.1 1489,383.4 1484.8,407.2 							"/>
							<path class="st10" d="M1461.3,415.1v-7.5c0-1.7,1.4-3,3-3h24.5c1.7,0,3,1.4,3,3v7.5H1461.3z"/>
							<polygon class="st12" points="1461.6,383.4 1467.3,367.6 1485.8,367.6 1491.6,383.4 							"/>
						</g>
						<polygon class="st13" points="1572.1,388.7 1572.1,430.9 1564.2,438.8 1529.9,438.8 1529.9,388.7 						"/>
						<polygon class="st13" points="1445.4,430.9 1445.4,409.8 1551,409.8 1551,438.8 1453.4,438.8 						"/>
						<g>
							<path class="st14" d="M1544.8,399.2h13.7c1.7,0,3,1.4,3,3v15c0,1.7-1.4,3-3,3h-13.7c-1.7,0-3-1.4-3-3v-15
								C1541.8,400.6,1543.1,399.2,1544.8,399.2z"/>
						</g>
						<rect x="1527.3" y="388.7" class="st10" width="47.5" height="5.3"/>
						<path class="st15" d="M1566.8,438.8v18.5c-5.8,0-10.6,4.7-10.6,10.6h-105.6v-29h116.2V438.8z"/>
						<rect x="1529.9" y="430.9" class="st16" width="42.2" height="26.4"/>
						<rect x="1445.4" y="430.9" class="st16" width="105.6" height="15.8"/>
						<rect x="1445.4" y="452" class="st15" width="10.6" height="15.8"/>
						<polygon class="st10" points="1424.3,473.1 1445.4,452 1445.4,477.9 1424.3,477.9 						"/>
						<g>
							<g>
								<path class="st17" d="M1461.3,483.7L1461.3,483.7c5.8,0,10.6-4.7,10.6-10.6c0-5.8-4.7-10.6-10.6-10.6
									c-5.8,0-10.6,4.7-10.6,10.6C1450.7,479,1455.5,483.7,1461.3,483.7"/>
								<path class="st16" d="M1461.3,465.8c4.1,0,7.4,3.3,7.4,7.4s-3.3,7.4-7.4,7.4s-7.4-3.3-7.4-7.4
									C1453.9,469.1,1457.2,465.8,1461.3,465.8"/>
								<path class="st17" d="M1461.3,471c1.2,0,2.1,0.9,2.1,2.1s-0.9,2.1-2.1,2.1s-2.1-0.9-2.1-2.1
									C1459.2,472,1460.1,471,1461.3,471"/>
							</g>
							<g>
								<path class="st17" d="M1485.6,483.7L1485.6,483.7c5.8,0,10.6-4.7,10.6-10.6c0-5.8-4.7-10.6-10.6-10.6
									c-5.8,0-10.6,4.7-10.6,10.6S1479.7,483.7,1485.6,483.7"/>
								<path class="st16" d="M1485.6,465.8c4.1,0,7.4,3.3,7.4,7.4s-3.3,7.4-7.4,7.4s-7.4-3.3-7.4-7.4
									C1478.2,469.1,1481.5,465.8,1485.6,465.8"/>
								<path class="st17" d="M1485.6,471c1.2,0,2.1,0.9,2.1,2.1s-0.9,2.1-2.1,2.1s-2.1-0.9-2.1-2.1
									C1483.5,472,1484.4,471,1485.6,471"/>
							</g>
							<g>
								<path class="st17" d="M1529.9,483.7L1529.9,483.7c11.7,0,21.1-9.5,21.1-21.1c0-11.7-9.5-21.1-21.1-21.1
									c-11.7,0-21.1,9.5-21.1,21.1S1518.2,483.7,1529.9,483.7"/>
								<g>
									<path class="st16" d="M1529.9,445.7c9.3,0,16.9,7.6,16.9,16.9s-7.6,16.9-16.9,16.9s-16.9-7.6-16.9-16.9
										C1513,453.3,1520.6,445.7,1529.9,445.7"/>
								</g>
								<path class="st17" d="M1529.9,460.5c1.2,0,2.1,0.9,2.1,2.1s-0.9,2.1-2.1,2.1s-2.1-0.9-2.1-2.1S1528.7,460.5,1529.9,460.5"/>
							</g>
							<g>
								<g>
									<polygon class="st18" points="1528.8,474.5 1531,469.7 1496.7,454.7 1473.4,454.7 1473.4,459.9 1495.6,459.9 									"/>
								</g>
								<g>
									<path class="st10" d="M1529.9,467.9c2.3,0,4.2,1.9,4.2,4.2c0,2.3-1.9,4.2-4.2,4.2c-2.3,0-4.2-1.9-4.2-4.2
										C1525.7,469.8,1527.6,467.9,1529.9,467.9L1529.9,467.9z"/>
									<path class="st17" d="M1529.9,470c1.2,0,2.1,0.9,2.1,2.1s-0.9,2.1-2.1,2.1s-2.1-0.9-2.1-2.1S1528.7,470,1529.9,470"/>
								</g>
								<g>
									<path class="st10" d="M1496.1,453.1c2.3,0,4.2,1.9,4.2,4.2c0,2.3-1.9,4.2-4.2,4.2s-4.2-1.9-4.2-4.2
										S1493.8,453.1,1496.1,453.1L1496.1,453.1z"/>
									<path class="st17" d="M1496.1,455.2c1.2,0,2.1,0.9,2.1,2.1s-0.9,2.1-2.1,2.1s-2.1-0.9-2.1-2.1S1495,455.2,1496.1,455.2"/>
								</g>
								<path class="st19" d="M1485.6,452.4v9.8c0,1.7-1.4,3-3,3h-18.2c-1.7,0-3-1.4-3-3v-9.8c0-1.7,1.4-3,3-3h18.2
									C1484.2,449.4,1485.6,450.7,1485.6,452.4z"/>
							</g>
						</g>
					</g>
					<g>
						<rect x="1554.9" y="461.8" class="st17" width="28.4" height="5"/>
						<g>
							<rect x="1582.8" y="449.6" class="st12" width="100.5" height="20.1"/>
							<g>
								<path class="st17" d="M1668.9,484.8L1668.9,484.8c-5.6,0-10.1-4.5-10.1-10.1s4.5-10.1,10.1-10.1s10.1,4.5,10.1,10.1
									C1678.9,480.3,1674.4,484.8,1668.9,484.8"/>
								<path class="st16" d="M1668.9,467.7c3.9,0,7,3.2,7,7c0,3.9-3.2,7-7,7c-3.9,0-7-3.2-7-7
									C1661.8,470.9,1665,467.7,1668.9,467.7"/>
								<path class="st17" d="M1668.9,472.8c1.1,0,2,0.9,2,2s-0.9,2-2,2s-2-0.9-2-2C1666.9,473.7,1667.8,472.8,1668.9,472.8"/>
							</g>
							<g>
								<path class="st17" d="M1597.3,484.8L1597.3,484.8c-5.6,0-10-4.5-10-10.1s4.5-10.1,10-10.1c5.6,0,10.1,4.5,10.1,10.1
									C1607.3,480.3,1602.8,484.8,1597.3,484.8"/>
								<path class="st16" d="M1597.3,467.7c3.9,0,7,3.2,7,7c0,3.9-3.2,7-7,7c-3.9,0-7-3.2-7-7
									C1590.2,470.9,1593.4,467.7,1597.3,467.7"/>
								<path class="st17" d="M1597.3,472.8c1.1,0,2,0.9,2,2s-0.9,2-2,2s-2-0.9-2-2C1595.3,473.7,1596.2,472.8,1597.3,472.8"/>
							</g>
							<polygon class="st11" points="1688.4,434.6 1688.4,394.4 1577.8,394.4 1577.8,434.6 1590.4,447.1 1675.8,447.1 							"/>
							<rect x="1575.3" y="394.4" class="st12" width="115.6" height="5"/>
							<g>
								<path class="st14" d="M1651.5,404.4h-13.1c-1.6,0-2.9,1.3-2.9,2.9v14.3c0,1.6,1.3,2.9,2.9,2.9h13.1c1.6,0,2.9-1.3,2.9-2.9
									v-14.3C1654.4,405.7,1653.1,404.4,1651.5,404.4z"/>
								<path class="st14" d="M1614.6,424.5h13.1c1.6,0,2.9-1.3,2.9-2.9v-14.3c0-1.6-1.3-2.9-2.9-2.9h-13.1c-1.6,0-2.9,1.3-2.9,2.9
									v14.3C1611.7,423.2,1613,424.5,1614.6,424.5z"/>
								<path class="st14" d="M1659.5,407.3v14.3c0,1.6,1.3,2.9,2.9,2.9h13.1c1.6,0,2.9-1.3,2.9-2.9v-14.3c0-1.6-1.3-2.9-2.9-2.9
									h-13.1C1660.8,404.4,1659.5,405.7,1659.5,407.3z"/>
								<path class="st14" d="M1603.8,404.4h-13.1c-1.6,0-2.9,1.3-2.9,2.9v14.3c0,1.6,1.3,2.9,2.9,2.9h13.1c1.6,0,2.9-1.3,2.9-2.9
									v-14.3C1606.7,405.7,1605.4,404.4,1603.8,404.4z"/>
							</g>
							<rect x="1577.8" y="434.6" class="st13" width="110.6" height="25.1"/>
						</g>
					</g>
				</g>
			</g>
		</g>
	</g>
</g>
</svg>
