<?xml version="1.0" encoding="utf-8"?>
<!-- Generator: Adobe Illustrator 22.0.1, SVG Export Plug-In . SVG Version: 6.00 Build 0)  -->
<svg version="1.1" id="Слой_1" xmlns="http://www.w3.org/2000/svg" xmlns:xlink="http://www.w3.org/1999/xlink" x="0px" y="0px"
	 viewBox="0 0 313 410.9" style="enable-background:new 0 0 313 410.9;" xml:space="preserve">
<style type="text/css">
	.st0{clip-path:url(#SVGID_2_);}
	.st1{fill:#009C53;}
	.st2{fill-rule:evenodd;clip-rule:evenodd;fill:#303030;}
	.st3{fill:#CAE977;}
	.st4{fill:#635128;}
	.st5{fill:#6B8C46;}
	.st6{fill:#063035;}
	.st7{fill:#DBC95D;}
	.st8{fill:#856037;}
	.st9{fill:#B48B59;}
	.st10{fill:#FFFFFF;}
	.st11{fill:#3E3E3D;}
	.st12{fill:#6D6D6C;}
	.st13{fill:#585857;}
	.st14{fill:#F49045;}
	.st15{fill:#FFF2E7;}
	.st16{fill:#2CBAE5;}
	.st17{fill:#FAFDEB;}
	.st18{fill:#473332;}
	.st19{fill:#A289B0;}
	.st20{fill:#FF743F;}
	.st21{fill:#E8C1BC;}
	.st22{fill:#F4CCC6;}
	.st23{fill:#693132;}
	.st24{fill:#009400;}
	.st25{fill:#6E5737;}
	.st26{fill:#564428;}
	.st27{fill:#FFF79B;}
	.st28{fill:#FFA38B;}
	.st29{fill:none;stroke:#BD1E13;stroke-width:1.6667;stroke-miterlimit:10;}
	.st30{fill:#91532D;}
	.st31{fill:#B5793F;}
	.st32{fill:#FBAB1D;}
	.st33{fill:#0066A3;}
	.st34{fill:#EF3B25;}
	.st35{fill:#1EA249;}
	.st36{fill:#E59076;}
	.st37{fill:#362829;}
	.st38{fill:#FF9E8B;}
	.st39{fill:#443435;}
	.st40{fill:none;}
	.st41{opacity:0.5;fill:#E28A86;}
	.st42{fill:#8E744F;}
	.st43{fill:#5B452C;}
	.st44{fill:#E5B3AC;}
	.st45{fill:#7B6F61;}
	.st46{fill:#37292A;}
	.st47{fill:#C2AA4A;}
	.st48{fill:#DFBE44;}
	.st49{fill:#FFE13B;}
	.st50{fill:#D8938F;}
	.st51{fill:#4E4E4E;}
	.st52{fill:#3763DD;}
	.st53{fill:#F8743B;}
</style>
<g>
	<ellipse class="st17" cx="156.5" cy="254.5" rx="156.5" ry="156.3"/>
	<g>
		<g>
			<path class="st18" d="M184.9,368.2h-9.6l-13.4-57.8l48.4,1.5l1.3,56.4h-12.8l-3.1-35.8c0,0-4.9,1.9-11.6-0.7L184.9,368.2z"/>
			<path class="st19" d="M176.6,241.8c0,0-16.1,29.6-20,74.2c0,0,35.1,3.5,59.9,0l-13.8-76.9L176.6,241.8z"/>
			<path class="st20" d="M175.3,368.2c0,0-6.7,4.5-8.5,7.1h18.3l-0.2-7.1H175.3z"/>
			<path class="st20" d="M198.7,368.2c0,0-3.7,4.5-5.5,7.1h18.3l-0.2-7.1H198.7z"/>
		</g>
		<g>
			<path class="st21" d="M112.3,244.7l4.7,6.6c0,0,0,5.4,5.5,5.2c7.7-0.3,4.3-9.8,4.3-9.8l-8.1-3.4L112.3,244.7z"/>
			<path class="st19" d="M175.6,249c0,0-29.9,17.6-47.5-1.8l-5.5,9.2c0,0,21.9,29.2,53.8,5.4C176.3,261.9,187.2,244.8,175.6,249z"/>
			<path class="st22" d="M128,247.3c0,0-6.2-9.5-11.4-8.2c-5.2,1.3-15.5,1.3-15.5,2.7c0,1.4,2.8,6.4,8,4.9c5.2-1.5,10.3,0,10.3,0
				S126.3,251.4,128,247.3z"/>
			<path class="st22" d="M110.5,242.7l2.2,5.1l2.9,4.5c0,0,4.9-2.6,2.5-4.5c-2.5-1.9-3.1-1-2.5-3.7L110.5,242.7z"/>
			<path class="st23" d="M110.1,248.2c-1,0.6-2.3,0.4-3-0.6l0,0c-0.6-1-0.4-2.3,0.6-3l31.7-20.5c1-0.6,2.3-0.4,3,0.6l0,0
				c0.6,1,0.4,2.3-0.6,3L110.1,248.2z"/>
			<path class="st24" d="M106.3,246.3c0,0-11.8-2.1-12.1,7.8c0,0-0.2,5-3.3,4.7c0,0,9.9,3.7,14.1-4.1
				C109.3,246.9,108.7,246.5,106.3,246.3z"/>
			<path class="st22" d="M117,243.3c0,0,0.1-4.8,1.7-4.2c1.6,0.6,6,0.8,9.3,8.2l-1.7,2.8C126.3,250.1,117.4,247.4,117,243.3z"/>
		</g>
		<g>
			<path class="st19" d="M200,241.4c0,0,11.6-0.3,21,7.3c5.1,4.1,19,25.2,19,25.2l-2.3,12.8l-31-27.5"/>
			<path class="st19" d="M237.7,286.7c0,0-5.9-16.7-5.1-23.8c0.8-7.2,0-21.1,0-21.1l13.1,2.5c0,0,4.6,21.2,2.2,33.3
				C246.8,282.7,237.7,286.7,237.7,286.7z"/>
		</g>
		<g>
			<path class="st25" d="M184.6,252.1L198,292c0,0,26,4.5,34.6-25.9c0,0-3.7-14.4-14.6-19.4c-10.9-5-21.2,0-21.2,0L184.6,252.1z"/>
			<path class="st25" d="M137.9,252.1c0,0,4.9,36.3,39.9,39.9l6.8-39.9l-9.9-5.3L137.9,252.1z"/>
			<g>
				<g>
					<path class="st26" d="M181.2,251.9c-3.7,2.7-10.1,9.6-5.1,14.2c3.6,3.3,8-1.1,8.7-4.7c-1-0.1-2-0.3-2.9-0.4
						c0.3,6.5,10.8,14.7,16,7.7c5.9-8-8.6-19.5-16.1-17.7c-1.9,0.4-1.1,3.3,0.8,2.9c3.6-0.8,7.2,1.7,9.6,4.1c1.8,1.8,5.2,6,3.4,8.8
						c-3.1,4.9-10.5-1.9-10.7-5.7c-0.1-1.6-2.6-2.1-2.9-0.4c-0.4,2-3.5,5.8-4.4,1.8c-0.8-3.2,2.9-6.2,5.1-7.8
						C184.2,253.4,182.7,250.8,181.2,251.9L181.2,251.9z"/>
				</g>
			</g>
		</g>
		<g>
			<path class="st27" d="M198.3,241.3c0,0,0.3,11-13.7,10.8c-14-0.2-10.2-10-10.2-10L198.3,241.3z"/>
			<path class="st28" d="M198.3,239.3c0,0,0.3,11-13.7,10.8c-14-0.2-10.2-10-10.2-10L198.3,239.3z"/>
		</g>
		<g>
			<path class="st30" d="M262.5,231.2c-9.7-2.1-24.7,3-32.6,10.2c-22,16-10.8,35,10.5,25.9c15.8-9,25.2-5.3,30.8-13.9
				C276.4,244.2,272.4,233.8,262.5,231.2z M238,247c-2.7,0.9-5.2,0.7-5.5-0.3c-0.3-1,1.6-2.6,4.3-3.4c2.7-0.9,5.2-0.7,5.5,0.3
				C242.6,244.5,240.7,246.1,238,247z"/>
			<path class="st31" d="M261.9,230.1c-9.7-2.1-24.7,3-32.6,10.2c-22,16-10.8,35,10.5,25.9c15.8-9,25.2-5.3,30.8-13.9
				C275.9,243.1,271.8,232.7,261.9,230.1z M237.5,245.9c-2.7,0.9-5.2,0.7-5.5-0.3c-0.3-1,1.6-2.6,4.3-3.4c2.7-0.9,5.2-0.7,5.5,0.3
				C242.1,243.4,240.2,245,237.5,245.9z"/>
			<path class="st22" d="M233.6,246.2c0,0,0.8-6.2,3-6.1c2.2,0.1,14.8-1.8,12.2,3.1c-2.6,4.9-7.3,3.5-11,1.8
				C237.8,245.1,237.7,247.4,233.6,246.2z"/>
			<g>
				<path class="st32" d="M251.3,236.5c-0.5-0.1-1.3-0.1-1.8-0.4c-2.3-1.2,0.4-0.3,1.2-0.9c1.1-0.9-0.2-1.9,0.9-2.9
					c0.8-0.6,2.9-1.4,3.8-0.8c1.9,1.4-1.4,1.2-0.4,2.6c0.6,1,2.8,0.4,3.3,1.7c0.6,1.6-0.8,1.7-1.8,1.5c-0.6-0.1-1-1-1.7-0.5
					c-0.1,0.1,0,1.3-0.4,1.7c-1.7,1.6-3-0.6-3.2-2.2"/>
			</g>
			<g>
				<path class="st33" d="M261.2,243.7c-0.9-1.4-0.3-2.6,0.9-3.8c0.6,4.2,6.6,3.6,6,6.6c0,2.4-4.2,3-4.8,6c-0.6,0.6-1.8,0.6-2.4,1.2
					c0-3-5.4-8.9,0.4-10.3"/>
			</g>
			<g>
				<path class="st34" d="M246.2,256.3c-0.7,0.2-1.6,0.5-2.4,0.4c-3.3-0.2,0.3-0.6,0.9-1.6c0.8-1.6-1.3-2.2-0.5-3.8
					c0.5-1.1,2.7-3.1,4-2.8c3,0.6-1,2.1,0.8,3.2c1.3,0.8,3.5-0.9,4.8,0.3c1.6,1.6,0,2.4-1.4,2.7c-0.8,0.2-1.6-0.6-2.3,0.3
					c-0.1,0.2,0.7,1.5,0.4,2.2c-1.2,2.8-3.9,0.8-4.9-0.9"/>
			</g>
			<g>
				<path class="st35" d="M231,255.4c0.7,0.1,1.7,0,2.4,0.4c3,1.3-0.5,0.5-1.4,1.2c-1.3,1.2,0.5,2.4-0.8,3.8
					c-0.9,0.9-3.6,2.1-4.7,1.4c-2.6-1.6,1.7-1.7,0.3-3.3c-0.9-1.2-3.6-0.3-4.4-1.9c-1-2,0.8-2.3,2.2-2.1c0.8,0.1,1.3,1.1,2.3,0.5
					c0.1-0.1-0.1-1.6,0.4-2.2c2-2.2,3.9,0.5,4.3,2.4"/>
			</g>
		</g>
		<g>
			<path class="st22" d="M153.5,186.7c-4.1,25.9-14.8,53.8,32.5,59.6c42.6,5.2,51.4-20.8,55.5-46.7c4.1-25.9,5.2-58.9-37.9-65.6
				C155.2,126.5,157.5,160.8,153.5,186.7z"/>
			<path class="st36" d="M241.6,154.1c0,0,20.1,4.3,17.5,20.8c-2.6,16.5-13.5,28.1-13.5,28.1l-22,9.6c0,0-8.1,4.1-10.1-1.6
				c-1.9-5.7,16.3-22.6,16.3-22.6s-9.3,9.2-13.6,5.1c-4.3-4.1,17.2-29.8,17.2-29.8l-1.8-2.8"/>
			<path class="st37" d="M154.9,176.4c0,0,32.2-3.8,50.5,10.4c18.3,14.2,30.9,22.7,30.9,22.7l16.7-12c0,0-42.2-45.6-89-36.2
				c-2.3,0.5-4.7,1-7.1,1.7C156.9,163,155.5,171,154.9,176.4z"/>
			<path class="st22" d="M244.4,215.8c-2.5,6-8.1,9.5-12.5,7.7c-4.3-1.8-5.8-8.2-3.3-14.2c2.5-6.1,8.1-9.5,12.5-7.7
				C245.5,203.4,247,209.8,244.4,215.8z"/>
			<g>
				<g>
					<path class="st38" d="M241.8,211.3c0,0-2.8-0.7-4.5,1.9c-1,1.5,0.6,3.2,0.6,3.2s-2-2.6-4.9,0.3
						C233.1,216.7,234.7,208.3,241.8,211.3z"/>
				</g>
				<g>
					<path class="st38" d="M232.5,220.3C232.5,220.3,232.5,220.3,232.5,220.3c2.8,0.4,5.3-1.2,5.8-2.8c0.3-0.9-0.1-1.7-1-2.1
						c-1.7-0.8-2.9-0.2-3.7,0.4c0.8-2.4,2.1-4,3.6-4.6c2.2-0.9,4.4,0.3,4.5,0.3c0.1,0.1,0.3,0,0.3-0.1c0.1-0.1,0-0.3-0.1-0.3
						c-0.1-0.1-2.4-1.4-4.9-0.3c-1.9,0.8-3.3,2.8-4.2,5.9c0,0.1,0,0.2,0.1,0.3c0.1,0.1,0.2,0,0.3-0.1c0.1-0.1,1.5-2.1,3.8-1
						c0.7,0.3,0.9,0.9,0.7,1.5c-0.4,1.2-2.5,2.8-5.2,2.4c-0.1,0-0.3,0.1-0.3,0.2C232.3,220.2,232.4,220.3,232.5,220.3z"/>
				</g>
			</g>
			<path class="st39" d="M166,167.7c0,0-32.1-4.2-10.7-33.4c21.4-29.2,77.5-5.4,98.4,16.7c20.9,22.1,13.3,56.9-13.8,43.6
				C212.8,181.4,184.5,165.3,166,167.7z"/>
			<path class="st37" d="M236.6,142.3c0,0,4.1-16.3,9.1-16.3c5,0,7.3,12.3,7.3,12.3s-11,1.2-13,7.6
				C240,145.8,235.4,146.4,236.6,142.3z"/>
			<g>
				<g>
					<g>
						<path class="st28" d="M169.9,231.6c4.6,6.3,13.2,7.2,19,2c0.8-0.7-0.4-1.8-1.1-1.1c-5,4.4-12.5,3.7-16.4-1.7
							C170.7,230,169.3,230.8,169.9,231.6L169.9,231.6z"/>
					</g>
				</g>
				<path class="st36" d="M189.1,201.1c0,0,7.3-2.9,10.9,2.6l2.3-2.6c0,0-3.4-8-14-2.3L189.1,201.1z"/>
				<path class="st36" d="M160.7,200.1c0,0,7.3-2.9,10.9,2.6l2.3-2.6c0,0-3.4-8-14-2.3L160.7,200.1z"/>
				<g>
					<path class="st40" d="M203.5,134c-48.3-7.5-46,26.8-50,52.7c-1.5,9.7-4,19.6-4,28.6c1.5-1,3.3-1.7,5.3-1.7c5,0,9.1,3.9,9.1,8.7
						c0,4.8-4.1,8.7-9.1,8.7c-0.6,0-1.1-0.1-1.6-0.1c4.6,7.6,14.2,13.2,32.7,15.5c42.6,5.2,51.4-20.8,55.5-46.7
						C245.5,173.7,246.6,140.7,203.5,134z M203.9,238.2c-5,0-9.1-3.9-9.1-8.7c0-4.8,4.1-8.7,9.1-8.7c5,0,9.1,3.9,9.1,8.7
						C213,234.4,208.9,238.2,203.9,238.2z"/>
					<path class="st41" d="M203.9,220.9c-5,0-9.1,3.9-9.1,8.7c0,4.8,4.1,8.7,9.1,8.7c5,0,9.1-3.9,9.1-8.7
						C213,224.8,208.9,220.9,203.9,220.9z"/>
					<path class="st41" d="M163.9,222.3c0-4.8-4.1-8.7-9.1-8.7c-2,0-3.8,0.6-5.3,1.7c0,5.7,1,10.9,3.7,15.5c0.5,0.1,1.1,0.1,1.6,0.1
						C159.9,231,163.9,227.1,163.9,222.3z"/>
				</g>
				<path class="st36" d="M194.8,180.9c0,0-21.6,2.3-24.3-9.2c-2.6-11.5,17.8-17.2,19.9-10.4c0,0-13.3,4.1-9.6,8.4
					C184.7,174.1,195.5,172.6,194.8,180.9z"/>
				<g>
					<path class="st10" d="M204.2,214.9c0,0-8.5-18.4-18.6-0.9C185.5,214,193.2,221.3,204.2,214.9z"/>
					<g>
						<path class="st42" d="M188.9,211.7c0,1.9,1.5,3.5,3.4,3.6c1.9,0,3.5-1.5,3.6-3.4c0-1.9-1.1-3.3-3.1-3.3
							C190.9,208.5,188.9,209.7,188.9,211.7z"/>
						<path class="st43" d="M191.6,213c0.6,0.4,1.4,0.2,1.8-0.4c0.4-0.6,0.2-1.4-0.4-1.8c-0.6-0.4-1.3-0.2-1.6,0.4
							C191,211.8,191,212.6,191.6,213z"/>
						<path class="st10" d="M193.1,211.5c0.4,0.3,1,0.1,1.2-0.3c0.3-0.4,0.1-1-0.3-1.2c-0.4-0.3-0.9-0.2-1.1,0.3
							C192.7,210.6,192.7,211.2,193.1,211.5z"/>
						<path class="st10" d="M191.9,212.9c0-0.3-0.3-0.5-0.6-0.5c-0.3,0-0.5,0.3-0.5,0.6c0,0.3,0.2,0.5,0.5,0.4
							C191.7,213.4,191.9,213.2,191.9,212.9z"/>
					</g>
					<path class="st44" d="M204.2,214.9c0,0-4.1-6.7-9.4-7c-5.8-0.3-6.1,1.8-9.3,6.1c0,0,0.8-4,3.3-6.6c2.7-2.8,8.3-4.1,12.7,1.3
						C202.8,210.2,203.7,212.8,204.2,214.9z"/>
				</g>
				<g>
					<path class="st10" d="M155.6,208.7c0,0,12.5-16,18.4,3.3C173.9,212,164.8,217.4,155.6,208.7z"/>
					<g>
						<path class="st42" d="M167,209.1c-0.4,1.9-2.3,3.1-4.2,2.7c-1.9-0.4-3.1-2.3-2.7-4.2c0.4-1.9,1.8-2.9,3.7-2.5
							C165.8,205.5,167.4,207.2,167,209.1z"/>
						<path class="st43" d="M164.1,209.8c-0.7,0.2-1.4-0.2-1.6-0.8c-0.2-0.7,0.2-1.4,0.8-1.6c0.7-0.2,1.3,0.1,1.5,0.7
							C165,208.8,164.7,209.6,164.1,209.8z"/>
						<path class="st10" d="M162.9,208c-0.5,0.2-1-0.1-1.1-0.6c-0.2-0.5,0.1-1,0.6-1.1c0.5-0.2,0.9,0,1.1,0.5
							C163.6,207.3,163.4,207.8,162.9,208z"/>
						<path class="st10" d="M163.8,209.6c0.1-0.3,0.4-0.4,0.7-0.3c0.3,0.1,0.4,0.4,0.3,0.7c-0.1,0.3-0.3,0.4-0.6,0.3
							C163.9,210.2,163.7,209.9,163.8,209.6z"/>
					</g>
					<path class="st44" d="M155.6,208.7c0,0,5.5-5.6,10.7-4.7c5.7,1,5.5,3.2,7.7,8.1c0,0,0.1-4.1-1.7-7.2c-2-3.4-7.2-5.9-12.7-1.5
						C158,204.5,156.5,206.7,155.6,208.7z"/>
				</g>
			</g>
		</g>
		<g>
			<polygon class="st45" points="35.7,220.3 42,294.6 108,312.6 101.4,232.6 			"/>
			<polygon class="st46" points="41.3,227.4 46.6,290.3 102.5,305.5 96.9,237.8 			"/>
			<polygon class="st47" points="45.6,219.2 46.7,229.3 88,236.6 87,226.6 			"/>
			<polygon class="st47" points="51.8,293.4 52.9,303.5 94.8,314.9 93.8,304.8 			"/>
			
				<rect x="66.1" y="223.3" transform="matrix(0.999 -4.374334e-02 4.374334e-02 0.999 -11.4562 3.2695)" class="st47" width="5.8" height="80.1"/>
			<polygon class="st47" points="70.1,223.3 93.8,304.8 88.7,303.4 66.5,225.9 			"/>
			<polygon class="st47" points="64.3,223.5 51.8,293.4 55.2,294.3 70.2,226.2 			"/>
			<polygon class="st47" points="88.7,303.4 111.3,374.8 118.3,371.8 93.8,304.8 			"/>
			<polygon class="st47" points="39.5,351.5 51.8,293.4 55.2,294.3 47,350.3 			"/>
			<polygon class="st48" points="65.3,232.7 38.6,395.1 46.6,392.8 70.7,231.8 			"/>
			<path class="st49" d="M38.6,395.1l-5.8-2.5l30.7-160.1c0,0-0.6-0.6,1.8,0.1C67.6,233.4,38.6,395.1,38.6,395.1z"/>
		</g>
		<g>
			<path class="st50" d="M179.6,223.5c0.2,0.7,1.1,2.5,2.5,2.7c2.4,0.4,1.8-3.4,1.8-4.2c0-2.4-0.6-5.1-1.3-7.9
				c-0.1-0.5-0.8-2.7-2.2-2.8c-1.1-0.1-1.9,2.4-2.1,2.8c-1,2.1-2.1,4.1-3.6,6.1c-0.5,0.6-2.7,3.5-1.8,4.2c0.9,0.6,2.3-1,2.6-1.4
				c0.3,0.8-1.4,3.4,1.3,3.5C178.7,226.4,179.4,224.3,179.6,223.5"/>
		</g>
	</g>
	<g>
		<g>
			<path class="st51" d="M228.1,59.4c-9.2,1.9-17.4,10.6-17.4,20.2c0,3.1,0.3,6.3,1.1,9.3c0.4,1.6,1,3,1.6,4.5
				c0.9,2.2,0.8,3.7,0.6,6c-0.1,0.9,0,1.6,0.2,2.2c-0.9,0.5-1.5,1.4-1.3,2.5c-1.9,1.2-1.7,2.5-0.6,3.6c-3.4,2.5,0.9,4.8,5.1,6.4
				c-0.2,0.7-0.3,1.4-0.3,2c0.1,1,1.2,1.5,2,1.8c0.9,0.3,2.3,0.7,3.3,0.5c0.9-0.2,1.5-1.2,1.9-2.1c2.4,0.9,5.9,2.5,7.7,1.4
				c1.1-0.7,1-1.7,0.6-2.6c1.4-0.2,2.2-1,1.8-2.9c0.8-0.6,0.9-1.8,0.4-2.9c0.2-0.1,0.5-0.3,0.7-0.5c1-0.9,1.1-2.3,1.8-3.4
				c1.1-1.7,2.6-2.1,4.1-3.2c2.2-1.6,5-3,7-4.8c6.5-6.2,8.9-17.3,5.2-25.5C249.3,61.9,238.7,57.2,228.1,59.4z M232.4,78.3
				c0.7-1.2,1.6-1.6,2.8-1.4c0.6,1,0.6,1.9-0.1,2.9c-0.4,1.2-1.3,2-2.5,2.6C232.1,80.9,231.8,79.4,232.4,78.3z M231.8,84.2
				c0.8,1.3,1.8,2.5,2.8,3.3c-3.8,5.2-6,12.3-7.8,18.2c-0.7-0.3-1.4-0.6-2-0.8c-0.9-0.3-1.9-0.7-2.8-1.1c0.9-2.5,4.6-12,5.6-19.2
				C229.1,84.7,230.6,84.5,231.8,84.2z M224.1,107c2.5,0.9,5,1.7,7.5,2.4c0.6,0.2,1.2,0.3,1.7,0.3c0.9,2.1-3.5,0.8-4.6,0.4
				c-1.7-0.5-3.3-1.2-5-1.9c-1.5-0.6-3-1.2-4.5-1.9c-1-0.4-6.2-3.1-3.9-3.6c0.2,0.1,0.4,0.2,0.6,0.4
				C218.5,104.7,221.4,105.9,224.1,107z M231.4,113.7c-0.6-0.1-1.3-0.3-1.9-0.4c-0.8-0.2-1.6-0.5-2.3-0.7c-1.7-0.6-3.4-1.3-5.1-1.9
				c-1.4-0.5-2.7-1-4.1-1.6c-0.4-0.2-5.5-2.2-4.3-3.5c1.8,1.9,6,2.9,7.9,3.7c3.2,1.3,7.2,3.5,10.8,3.6
				C232.1,113,231.7,113.4,231.4,113.7z M221.8,116.7c-0.6,0-1.5-0.2-2-0.4c-0.3-0.1-0.6-0.2-0.8-0.4c-0.2-0.2-0.1,0-0.1-0.3
				c-0.1-0.3,0-0.7,0.1-1.1c1.8,0.6,3.3,1,3.9,1.2C222.7,116.2,222.3,116.7,221.8,116.7z M230.9,115.1c-0.9,0.9-1.8,1-2.8,0.5
				c-0.8-0.2-1.6-0.5-2.4-0.7c-1.4-0.4-2.7-0.8-4.1-1.3c-1.1-0.3-10.3-3.4-8-4.9c0,0,0.1-0.1,0.1-0.1c2.6,1.7,6.7,3,7.9,3.5
				C222.8,112.6,227.4,114.6,230.9,115.1C230.8,115.1,230.9,115.1,230.9,115.1z M250,91.7c-1.6,2.5-2.8,4-5.4,5.7
				c-2.1,1.3-4.3,2.7-6.3,4.2c-1,0.7-1.9,1.5-2.6,2.6c-1,1.4-0.9,3.1-3.4,3.2c-1.1,0-2.6-0.4-4-1c1.8-5.9,4-12.8,7.7-17.9
				c2.8,1.3,7.6,1.6,8.1-2.1c0.7-5.3-5.1-3.5-7.4-1.2c-0.4,0.4-0.7,0.7-1,1.1c-0.6-0.4-1-0.9-1.4-1.3c-0.3-0.3-0.6-0.7-0.9-1.2
				c2.9-1.2,4.7-3.4,3.5-6.8c-1-2.8-4.2-2.3-5.7,0.1c-1.1,1.7-0.9,3.9-0.1,5.8c-1.1,0.3-2.3,0.3-3.4,0.2c0.3-4.3-0.7-7.5-4.5-7
				c-2.2,0.3-2.9,2.9-2.2,4.8c0.8,2.1,2.8,3.2,5.1,3.6c-0.4,2.9-1.5,5.8-2.3,8.6c-1.1,3.4-2.1,6.8-3.2,10.2
				c-0.9-0.4-1.8-0.9-2.6-1.4c-1.3-0.8-1.6-0.9-1.6-2.7c0-1.1,0.4-2.2,0.3-3.4c-0.4-2.8-2.2-5.5-2.9-8.3c-0.7-3.1-1.2-6.7-0.8-9.9
				c0.7-5,4-9.4,8-12.3c5.7-4.2,12.4-5,19.2-3c6.2,1.8,11.2,7.2,12.7,13.5C254.1,81.2,253,86.9,250,91.7z M237.1,87.1
				c0.1-0.1,0.1-0.1,0.2-0.2c0.8-1,1.8-1.8,2.9-2.3c3,0.1,3.2,1.1,0.6,3.1C239.6,88.1,238.3,87.7,237.1,87.1z M226.2,82.8
				c-0.5-0.1-0.9-0.3-1.3-0.4c-1-0.5-4-2.8-2.2-4.3c2.5-2.1,3.5,2.9,3.5,4.2C226.2,82.4,226.2,82.6,226.2,82.8z"/>
			<path class="st51" d="M267.3,75c-2.6,0.2-5.1,0.3-7.6,1c-1.3,0.4-1,2.5,0.4,2.1c2.5-0.7,5.1-0.8,7.6-1
				C269.1,77,268.7,74.9,267.3,75z"/>
			<path class="st51" d="M254.4,64.8c2.2-1.4,4.1-3,6.1-4.7c1.1-0.9-0.3-2.6-1.4-1.7c-1.8,1.6-3.6,3.2-5.6,4.4
				C252.3,63.6,253.2,65.6,254.4,64.8z"/>
			<path class="st51" d="M243.1,55.8c1-2.2,1.9-4.5,2.7-6.8c0.5-1.3-1.6-2.1-2-0.7c-0.8,2.3-1.7,4.5-2.7,6.8
				C240.5,56.4,242.5,57.1,243.1,55.8z"/>
			<path class="st51" d="M227.3,54.8c0.3,1.3,2.5,1,2.1-0.4c-0.6-2.5-1.4-5.1-1.4-7.8c0-1.4-2.2-1.6-2.2-0.2
				C225.8,49.3,226.6,52.1,227.3,54.8z"/>
			<path class="st51" d="M216,59.6c-1.5-2.2-3.2-4.2-5.2-5.9c-1-0.9-2.3,0.8-1.3,1.8c1.8,1.6,3.4,3.5,4.7,5.6
				C215.1,62.1,216.7,60.8,216,59.6z"/>
			<path class="st51" d="M231.9,63.7c-5.2-0.4-11.4,3.1-13.8,7.8c-0.5,0.9,0.8,1.9,1.3,0.9c2.2-4.1,7.7-7.4,12.4-7.1
				C232.8,65.4,233,63.8,231.9,63.7z"/>
			<path class="st51" d="M231.9,66.7c-1.5-0.3-3.3,0.2-4.6,1c-0.9,0.5-0.2,2,0.7,1.5c1.1-0.7,2.4-1.1,3.7-0.8
				C232.8,68.5,232.9,66.9,231.9,66.7z"/>
		</g>
		<polygon class="st52" points="187.1,79.2 189.6,84.3 195.2,85.1 191.1,89.1 192.1,94.6 187.1,92 182.1,94.6 183,89.1 179,85.1 
			184.6,84.3 		"/>
		<polygon class="st1" points="169.6,67.5 171.1,70.5 174.4,71 172,73.3 172.6,76.5 169.6,75 166.7,76.5 167.3,73.3 164.9,71 
			168.2,70.5 		"/>
		<polygon class="st53" points="230.7,13.5 230.9,21.3 237.4,25.6 230,28.2 228,35.7 223.2,29.5 215.4,29.9 219.9,23.5 217.1,16.2 
			224.6,18.4 		"/>
		<polygon class="st1" points="202.5,18.7 204,21.7 207.3,22.2 204.9,24.5 205.5,27.7 202.5,26.2 199.6,27.7 200.2,24.5 197.8,22.2 
			201.1,21.7 		"/>
		<polygon class="st52" points="238.9,0.3 240.4,3.2 243.6,3.7 241.3,6 241.8,9.3 238.9,7.7 236,9.3 236.5,6 234.1,3.7 237.4,3.2 		
			"/>
		<polygon class="st1" points="283.1,93.3 283.3,101.2 289.8,105.4 282.4,108 280.4,115.6 275.6,109.4 267.8,109.8 272.3,103.3 
			269.5,96 277,98.3 		"/>
		<polygon class="st53" points="282.8,69.5 284.3,72.5 287.5,73 285.2,75.3 285.7,78.5 282.8,77 279.9,78.5 280.4,75.3 278.1,73 
			281.3,72.5 		"/>
	</g>
</g>
</svg>
