<?xml version="1.0" encoding="utf-8"?>
<!-- Generator: Adobe Illustrator 22.0.1, SVG Export Plug-In . SVG Version: 6.00 Build 0)  -->
<svg version="1.1" id="Слой_1" xmlns="http://www.w3.org/2000/svg" xmlns:xlink="http://www.w3.org/1999/xlink" x="0px" y="0px"
	 viewBox="0 0 346.3 500.2" style="enable-background:new 0 0 346.3 500.2;" xml:space="preserve">
<style type="text/css">
	.st0{clip-path:url(#SVGID_1_);}
	.st1{clip-path:url(#SVGID_2_);}
	.st2{fill-rule:evenodd;clip-rule:evenodd;fill:#FFFFFF;}
	.st3{opacity:0.17;fill-rule:evenodd;clip-rule:evenodd;fill:url(#SVGID_3_);}
	.st4{fill:#F4CCC6;}
	.st5{fill:#663B3B;}
	.st6{opacity:0.5;fill:#E28A86;}
	.st7{fill:#C6C4BD;}
	.st8{fill:#999999;}
	.st9{fill:#808080;}
	.st10{fill:#D3D1C7;}
	.st11{fill:#E5B3AC;}
	.st12{fill:#D19893;}
	.st13{fill:#C96A65;}
	.st14{fill:#D67B72;}
	.st15{fill:#EAC0BB;}
	.st16{fill:#DDACA6;}
	.st17{fill:#C6918D;}
	.st18{fill:#D19B95;}
	.st19{fill:#914C49;}
	.st20{fill:#AF6161;}
	.st21{fill:#D8938F;}
	.st22{fill:#FFFFFF;}
	.st23{fill:#8E744F;}
	.st24{fill:#5B452C;}
	.st25{fill:#C46762;}
	.st26{opacity:0.4;fill:#F4CCC6;}
	.st27{fill:#BA5A58;}
	.st28{fill:#464747;}
	.st29{fill:#E2E0D7;}
	.st30{fill:#AFACA3;}
	.st31{fill:#F9F8F4;}
	.st32{fill:#844F4F;}
	.st33{fill:#512B2B;}
	.st34{fill:#B55654;}
	.st35{fill:#508785;}
	.st36{fill:#E9F4F4;}
	.st37{fill:#85BCC1;}
	.st38{fill:#5F9B9B;}
	.st39{fill:#F8743B;}
	.st40{fill:#009C53;}
	.st41{fill:#3763DD;}
	.st42{fill:#2D2D2D;}
</style>
<g>
	<g>
		<defs>
			<circle id="SVGID_5_" cx="171.4" cy="325.6" r="170.4"/>
		</defs>
		<clipPath id="SVGID_1_">
			<use xlink:href="#SVGID_5_"  style="overflow:visible;"/>
		</clipPath>
		<g class="st0">
			<defs>
				<rect id="SVGID_6_" x="-188.2" y="140.9" width="528.4" height="352.3"/>
			</defs>
			<clipPath id="SVGID_2_">
				<use xlink:href="#SVGID_6_"  style="overflow:visible;"/>
			</clipPath>
			<g class="st1">
				<rect x="-93.4" y="140.9" class="st2" width="433.6" height="352.3"/>
				
					<radialGradient id="SVGID_3_" cx="1510.059" cy="198.4178" r="326.7114" gradientTransform="matrix(-0.9823 0.1875 -0.1875 -0.9823 1264.5159 276.1921)" gradientUnits="userSpaceOnUse">
					<stop  offset="0" style="stop-color:#9078D1"/>
					<stop  offset="1" style="stop-color:#485DAA"/>
				</radialGradient>
				<path class="st3" d="M-259.7,293.3c7.5,9.2,63,27.7,84,20.6c20.9-7.1,14.5-41.6,33.5-47.3c19-5.7,45.8,5.9,73.1-0.9
					c27.3-6.8,27.3-42,34.8-62s60.2-5.5,87.1-26.5c27-21,12.9-55,25.3-73.8c12.4-18.8,28.5-5.5,47.9-24.2
					c19.4-18.7,25.3-70.7,25.3-70.7l-448.3,89.2L-259.7,293.3z"/>
			</g>
		</g>
	</g>
	<g>
		<g>
			<g>
				<path class="st4" d="M90.9,273.3c-0.8-1.7-1.6-2.6-2.6-4.3c-0.4-0.5-1.7-2.4-1.7-3.1c0-0.9,1.3-2.8,1.9-3.6
					c1.2-1.6,2.5-2.6,2.9-4.6c0.5-2.1-0.3-3.3-2.3-1.6c-1.4,1.2-1.9,1.8-3.2,4c-0.9-2.9-1.5-5.4-3.1-8.1c-0.5-0.9-1.7-3.7-2.7-2.9
					c-2.5,2,0.3,6.7,1.5,9.7c-0.4-0.7-4.9-10.6-7.1-7.8c-1.1,1.3,4.1,8.1,4.7,9.5c-2.1-2.4-5.5-8.7-8.3-6.6
					c-1.5,1.1,4.8,7.9,6.1,9.1c-1.9-0.9-4.6-4.1-6.9-3.6c-1.8,0.4-1.1,1.6-0.2,2.8c3.1,3.7,7.1,4,11,6.3c1.5,0.9,4,5.1,4.3,5.8
					c0.5,1.2,0.3,2.4,1.6,3.2c1.1,0.8,5.9-2.2,4.3-3.9"/>
			</g>
			<g>
				<g>
					<path class="st5" d="M156.6,456.9c-2.5,3.9-12.4,10.7-10,12.3c3.2,2.1,12.4-4.5,15-8.9c1.5-2.6,1-5.1-0.1-5.7
						c-1.1-0.6-2.7,0.7-4.3,0.9L156.6,456.9z"/>
				</g>
				<g>
					<path class="st4" d="M150.1,399.9l6.5,57c0,0-0.1,4.2,5.9-0.3l4-56.7L150.1,399.9z"/>
					<path class="st6" d="M161.7,428.8c0.1,2-1.4,3.8-3.5,3.9c-2,0.1-3.8-1.4-3.9-3.5c-0.1-2,1.1-3.9,3.1-4
						C159.5,425.1,161.6,426.8,161.7,428.8z"/>
				</g>
				<path class="st7" d="M156.6,456.9l-2.5-18.5c0,0,5.9,2.4,10.2-0.7l-1.7,18.9c0,0-2.5,3.3-5.2,2.6
					C156.5,458.9,156.6,456.9,156.6,456.9z"/>
			</g>
			<g>
				<g>
					<path class="st5" d="M178.6,456.9c-2.5,3.9-12.4,10.7-10,12.3c3.2,2.1,12.4-4.5,15-8.9c1.5-2.6,1-5.1-0.1-5.7
						c-1.1-0.6-2.7,0.7-4.3,0.9L178.6,456.9z"/>
				</g>
				<g>
					<path class="st4" d="M172.1,399.9l6.5,57c0,0-0.1,4.2,5.9-0.3l4-56.7L172.1,399.9z"/>
					<path class="st6" d="M183.7,428.8c0.1,2-1.4,3.8-3.5,3.9c-2,0.1-3.8-1.4-3.9-3.5c-0.1-2,1.1-3.9,3.1-4
						C181.5,425.1,183.6,426.8,183.7,428.8z"/>
				</g>
				<path class="st7" d="M178.6,456.9l-2.5-18.5c0,0,5.9,2.4,10.2-0.7l-1.7,18.9c0,0-2.5,3.3-5.2,2.6
					C178.5,458.9,178.6,456.9,178.6,456.9z"/>
			</g>
			<g>
				<path class="st8" d="M139.2,349.3L127,410.7c0,0,30.2,17.5,84.4,1.2l-16.8-66.4L139.2,349.3z"/>
				<polygon class="st9" points="142.3,343.7 185.3,341.5 188.1,349.6 141.7,354.6 				"/>
				<polygon class="st9" points="139.4,415.4 148,362.5 143.2,416.3 				"/>
				<path class="st9" d="M154,418.1c0,0,2,0.2,2.6,0.3c0.7,0.1,1.9,0.2,1.9,0.2l-0.9-56L154,418.1z"/>
				<polygon class="st9" points="170,418.8 174.7,418.6 169.6,363.9 				"/>
				<polygon class="st9" points="186.9,417.4 191.1,416.7 179.4,365.4 				"/>
				<polygon class="st9" points="200.4,414.8 203.7,414 188.7,361.4 				"/>
			</g>
			<polygon class="st7" points="143.2,346.5 192.5,342.1 176.3,283.5 164.8,277.7 153.8,286.6 			"/>
			<polyline class="st10" points="161.1,282.3 161.1,300.7 167.5,300.7 168.4,282.1 164.4,278.7 160.9,281.4 			"/>
			<g>
				<g>
					<path class="st11" d="M176,253.2l-5.4,24.1c0,0-5,2.5-9.6-0.8l-2.1-19.1L176,253.2z"/>
					<path class="st12" d="M176.9,257.9c0,0-4,6.6-16.9,8.5l-0.9-7.9l2,0.2L176.9,257.9z"/>
				</g>
				<path class="st13" d="M213.9,160.3c0,0,15,8.3,12.3,44.9c-2.7,36.6-27.2,35.9-27.2,35.9S204.9,168.4,213.9,160.3z"/>
				<path class="st14" d="M144.9,147.2c0,0-21.6,16.1-26.2,54c-4.4,36.4,16.6,36.2,16.6,36.2L144.9,147.2z"/>
				<g>
					<path class="st15" d="M131.1,209.7c0,8-5.5,14.4-12.2,14.4c-6.8,0-13.7-10-13.7-18c0-7.9,6.2-13,13-13
						C124.9,193.1,131.1,201.7,131.1,209.7z"/>
					<path class="st16" d="M123.8,210.5c0,3.8-2.6,6.9-5.8,6.9c-3.2,0-6.5-4.8-6.5-8.6c0-3.8,3-6.2,6.2-6.2S123.8,206.7,123.8,210.5
						z"/>
					<path class="st17" d="M123.8,210.5c0,3.8-2.6,6.9-5.8,6.9C113.1,211,122.6,208,123.8,210.5z"/>
				</g>
				<g>
					<path class="st4" d="M209.9,216.3c-2.4,8.9,1.7,17.7,9.3,19.7c7.5,2,18.3-7,20.7-15.9c2.4-8.9-3-16.3-10.5-18.4
						C221.8,199.7,212.3,207.4,209.9,216.3z"/>
					<path class="st11" d="M217.8,219.4c-1.1,4.2,0.8,8.4,4.4,9.4c3.6,1,8.7-3.4,9.9-7.6c1.1-4.2-1.4-7.8-5-8.7
						C223.5,211.5,219,215.2,217.8,219.4z"/>
					<path class="st18" d="M217.8,219.4c-1.1,4.2,0.8,8.4,4.4,9.4C229.6,223.2,219.9,217.1,217.8,219.4z"/>
				</g>
				<path class="st4" d="M130.3,178.4c0,0-23.9,61.5,21.2,78.6c45,17.1,67.8-27,66-72.5C215.6,139,151.8,120.7,130.3,178.4z"/>
				<g>
					<path class="st19" d="M162.8,241.1c-7.8,0.6-10.8-5.9-12-9.7c-0.6-2-2.5-8.5-1-10.1c0.8-1,4.6-1.1,5.9-1.3
						c3.4-0.4,7-0.5,10.3-0.7c2.3,0,7.4-1,9.3,0.2c2.3,1.6,1.9,6.7,1.5,9.1c-0.4,3.8-2.9,7.2-5.7,9.2
						C168.9,239.7,166.8,240.5,162.8,241.1"/>
				</g>
				<g>
					<path class="st20" d="M162.8,241.1c-2.7,0.2-4.8-0.4-6.4-1.5c3.3-7.9,15.2-8,18.8-6c-1,1.7-2.4,3.2-3.9,4.2
						C168.9,239.7,166.8,240.5,162.8,241.1"/>
				</g>
				<path class="st11" d="M169.5,243.8c0,0-6.6,4.5-13.3-0.2C156.2,243.6,162.2,252.6,169.5,243.8z"/>
				<g>
					<path class="st21" d="M157.4,208.1c-0.9,1.4-3,3.8-4.5,3.1c-4.4-2.1,3.9-9.3,6.2-12.2c3.3-3.7,6.2-10.1,8.1-2.3
						c0.8,3.7,3.1,12.5,0.9,16c-1.7,2.8-3.7-0.3-4.4-2.5c-1.1,1.4-2.2,5-4.8,4.1c-2.2-0.8-1.7-3.7-1.7-5.6"/>
				</g>
				<g>
					<path class="st22" d="M199.7,197.3c0,0-10.6-22.9-23.2-1.1C176.5,196.2,186,205.2,199.7,197.3z"/>
					<g>
						<path class="st23" d="M180.6,193.2c0,2.4,1.9,4.4,4.3,4.4c2.4,0,4.4-1.9,4.4-4.3c0-2.4-1.4-4.1-3.8-4.1
							C183.1,189.2,180.7,190.8,180.6,193.2z"/>
						<path class="st24" d="M184,194.9c0.8,0.5,1.8,0.2,2.2-0.6c0.5-0.8,0.2-1.8-0.6-2.2c-0.8-0.5-1.6-0.3-2,0.5
							C183.2,193.3,183.3,194.4,184,194.9z"/>
						<path class="st22" d="M185.9,193c0.5,0.3,1.2,0.1,1.5-0.4c0.3-0.5,0.1-1.2-0.4-1.6c-0.5-0.3-1.1-0.2-1.4,0.3
							C185.3,191.9,185.4,192.7,185.9,193z"/>
						<path class="st22" d="M184.4,194.7c0-0.4-0.4-0.6-0.7-0.6c-0.4,0-0.6,0.4-0.6,0.8c0,0.4,0.3,0.6,0.7,0.5
							C184.1,195.4,184.4,195.1,184.4,194.7z"/>
					</g>
					<path class="st11" d="M199.7,197.3c0,0-12-16.2-23.2-1.1c0,0,1-5,4.1-8.2c3.4-3.5,10.4-5.2,15.8,1.7
						C197.9,191.4,199.1,194.6,199.7,197.3z"/>
				</g>
				<g>
					<path class="st22" d="M133.8,195c0,0,11.1-22.7,23.2-0.6C157,194.3,147.3,203.2,133.8,195z"/>
					<g>
						<path class="st23" d="M139,190.7c-0.2,2.4,1.5,4.5,3.9,4.8c2.4,0.2,4.5-1.5,4.8-3.9c0.2-2.4-1.1-4.2-3.5-4.4
							C141.8,186.9,139.3,188.3,139,190.7z"/>
						<path class="st24" d="M142.3,192.6c0.7,0.5,1.7,0.4,2.3-0.4c0.5-0.7,0.4-1.7-0.4-2.3c-0.7-0.5-1.5-0.4-2.1,0.3
							C141.6,191,141.5,192.1,142.3,192.6z"/>
						<path class="st22" d="M144.3,190.9c0.5,0.4,1.2,0.3,1.6-0.3c0.4-0.5,0.3-1.2-0.2-1.6c-0.5-0.4-1.1-0.3-1.4,0.2
							C143.8,189.8,143.8,190.5,144.3,190.9z"/>
						<path class="st22" d="M142.6,192.5c0-0.4-0.3-0.7-0.7-0.7c-0.4,0-0.7,0.3-0.7,0.7c0,0.4,0.2,0.6,0.6,0.6
							C142.3,193.2,142.6,192.9,142.6,192.5z"/>
					</g>
					<path class="st11" d="M133.8,195c0,0,12.3-16,23.2-0.6c0,0-0.9-5.1-4-8.3c-3.3-3.6-10.3-5.4-15.9,1.4
						C135.7,189.2,134.4,192.3,133.8,195z"/>
				</g>
				<g>
					<path class="st25" d="M141.7,176c2.7,0.1,14.1,0.8,9.6-2.6c-3.3-2.3-10.8-2.1-11.7,1.6C139.8,176,141.3,176,141.7,176"/>
				</g>
				<g>
					<path class="st25" d="M192.3,177.3c-2.7,0.1-14.1,0.8-9.6-2.6c3.3-2.3,10.8-2.1,11.7,1.6C194.3,177.2,192.7,177.3,192.3,177.3"
						/>
				</g>
				<path class="st6" d="M181.8,221.5c0,6.6,5.4,12,12,12c6.6,0,12-5.4,12-12s-4.3-12.5-10.9-12.5
					C188.3,209.1,181.8,214.9,181.8,221.5z"/>
				<g>
					<path class="st26" d="M144.7,218.6c0-6.6-4.3-12.5-10.9-12.5c-3.7,0-7.3,1.8-9.8,4.5c-0.2,5.8,0.3,11.9,1.8,17.8
						c2,1.4,4.3,2.2,6.9,2.2C139.4,230.6,144.7,225.3,144.7,218.6z"/>
					<path class="st6" d="M144.7,218.6c0-6.6-4.3-12.5-10.9-12.5c-3.7,0-7.3,1.8-9.8,4.5c-0.2,5.8,0.3,11.9,1.8,17.8
						c2,1.4,4.3,2.2,6.9,2.2C139.4,230.6,144.7,225.3,144.7,218.6z"/>
				</g>
				<g>
					<g>
						<path class="st27" d="M217.4,159.5c1.9-7.8,22.4-26.2,31.5-20.9c7.8,4.4-2.2,13.4-4.7,17.5c4.4-0.3,22.7-6.2,24.6,0.6
							c1.6,5.6-12.2,5.9-15.6,5.9c3.4,0.3,15,5.3,11.8,10.9c-2.5,4.7-14,2.5-17.8,0.3c0.9,2.5,4.7,8.4,1.6,10.6
							c-3.1,2.2-10.9-2.2-13.7-3.7c-5-3.4-15.3-12.8-16.8-19"/>
					</g>
					<g>
						<path class="st27" d="M134.2,155.1c-0.9-5.9-14.6-28.4-23.7-25.2c-5.3,2.2,4.4,12.2,6.9,14.6c-5.3-1.2-20.9-6.9-21.5,3.1
							c-0.3,7.2,8.7,6.9,14,6.9c-5,0.9-18.1,3.7-16.8,11.5c1.6,8.4,17.5-0.6,20.9-4.1c-2.8,2.2-11.8,9.3-10,14
							c2.5,5.9,12.8,0,15.3-2.2c5.9-5,11.2-10,15.9-15.9"/>
					</g>
					<path class="st28" d="M137.4,153.5c1.5,1.2,0.2,5.5-2.9,9.6c-3.2,4.1-6.3,7.9-7.8,6.7c-1.5-1.2-0.9-6.9,2.2-11
						C132,154.6,135.8,152.3,137.4,153.5z"/>
					<path class="st28" d="M224.8,174.9c-1.8,0.8-5-2.2-7.2-6.9c-2.2-4.7-4.2-9.1-2.5-10c1.8-0.8,7.6,0.9,9.8,5.6
						C227.1,168.2,226.5,174,224.8,174.9z"/>
					<path class="st13" d="M216.4,205.6c0,0-12.7-19.1-8.1-44l4.8-3.3C213,158.3,232.8,182.8,216.4,205.6z"/>
					<path class="st14" d="M125.5,196.4c0,0,8.8-57,71.8-36.7c4.1,1.3,16.2,7.7,17.8,1.8c1.7-5.8-16.1-33.9-55.2-21.8
						S125.5,196.4,125.5,196.4z"/>
				</g>
			</g>
			<path class="st29" d="M160.5,274c0,0,1.5,3.5,4.4,3.7c0,0,0.6,15.2-13.3,13.9C151.5,291.6,153.4,278.3,160.5,274z"/>
			<path class="st29" d="M171.5,273.1c0,0-0.2,4.2-6.6,4.6c0,0-1,14.8,13.9,13.1C178.7,290.8,178.1,278.1,171.5,273.1z"/>
			<path class="st30" d="M165.9,288.9c0,0.7-0.6,1.3-1.2,1.3c-0.7,0-1.2-0.6-1.2-1.3s0.6-1.3,1.2-1.3
				C165.3,287.7,165.9,288.2,165.9,288.9z"/>
			<path class="st30" d="M165.6,296.7c0,0.7-0.6,1.3-1.2,1.3c-0.7,0-1.2-0.6-1.2-1.3s0.6-1.3,1.2-1.3
				C165,295.4,165.6,296,165.6,296.7z"/>
			<path class="st31" d="M165.7,288.1c0,0.7-0.6,1.3-1.2,1.3c-0.7,0-1.2-0.6-1.2-1.3s0.6-1.3,1.2-1.3
				C165.2,286.8,165.7,287.4,165.7,288.1z"/>
			<path class="st31" d="M165.4,295.9c0,0.7-0.6,1.3-1.2,1.3c-0.7,0-1.2-0.6-1.2-1.3s0.6-1.3,1.2-1.3
				C164.9,294.6,165.4,295.2,165.4,295.9z"/>
			<path class="st5" d="M160.5,274c0,0-7.4,22.5-22,118.9c0,0-1.7,2-5.3,1.8c-4.2-0.2-5.4-1.9-5.4-1.9s7.9-40.3,17.5-91
				c0,0-37.4,25.8-60.2-24.1l6.6-7.1C91.7,270.6,117,311.8,160.5,274z"/>
			<polygon class="st32" points="84.6,279.8 95.2,271.8 91.6,266.7 80.4,273.6 			"/>
			<path class="st5" d="M171.5,273.1c0,0,41.2,19.4,48.4,69l-10,2.8c0,0-6.2-30.2-24-43.9c0,0,25.6,59.8,31.8,89.1c0,0-15,6-29,2.9
				C188.7,393,176,312.9,171.5,273.1z"/>
			<g>
				<path class="st33" d="M179.6,295.4c0,1-0.8,1.8-1.7,1.8c-0.9,0-1.7-0.8-1.7-1.8c0-1,0.8-1.8,1.7-1.8
					C178.9,293.6,179.6,294.4,179.6,295.4z"/>
				<g>
					<path class="st13" d="M179.4,294.5c0,1-0.8,1.8-1.7,1.8c-0.9,0-1.7-0.8-1.7-1.8c0-1,0.7-1.8,1.6-1.8
						C178.6,292.7,179.4,293.5,179.4,294.5z"/>
					<path class="st34" d="M178.3,295.5c-0.6,0.3-1.4,0.1-1.7-0.5c-0.3-0.6-0.1-1.4,0.5-1.7c0.6-0.3,1.3-0.2,1.7,0.4
						C179.1,294.4,178.9,295.2,178.3,295.5z"/>
					<g>
						<path class="st5" d="M177.4,293.9c0.1,0.1,0.1,0.3,0,0.4c-0.1,0.1-0.3,0.1-0.4,0c-0.1-0.1-0.1-0.3,0.1-0.4
							C177.1,293.7,177.3,293.8,177.4,293.9z"/>
						<path class="st5" d="M178.4,293.9c0.1,0.1,0.1,0.3,0,0.4c-0.1,0.1-0.3,0.1-0.4,0c-0.1-0.1-0.1-0.3,0.1-0.4
							C178.2,293.7,178.3,293.7,178.4,293.9z"/>
						<path class="st5" d="M177.4,294.8c0.1,0.1,0.1,0.3,0,0.4c-0.1,0.1-0.3,0.1-0.4,0c-0.1-0.1-0.1-0.3,0.1-0.4
							C177.1,294.6,177.3,294.7,177.4,294.8z"/>
						<path class="st5" d="M178.3,294.8c0.1,0.1,0.1,0.3,0,0.4c-0.1,0.1-0.3,0.1-0.4,0c-0.1-0.1-0.1-0.3,0.1-0.4
							C178.1,294.6,178.2,294.6,178.3,294.8z"/>
					</g>
				</g>
			</g>
			<g>
				<path class="st33" d="M183.5,315.9c0,1-0.8,1.8-1.7,1.8c-0.9,0-1.7-0.8-1.7-1.8c0-1,0.8-1.8,1.7-1.8
					C182.7,314.2,183.5,315,183.5,315.9z"/>
				<g>
					<path class="st13" d="M183.3,315c0,1-0.8,1.8-1.7,1.8c-0.9,0-1.7-0.8-1.7-1.8c0-1,0.7-1.8,1.6-1.8
						C182.4,313.3,183.3,314.1,183.3,315z"/>
					<path class="st34" d="M182.2,316.1c-0.6,0.3-1.4,0.1-1.7-0.5c-0.3-0.6-0.1-1.4,0.5-1.7c0.6-0.3,1.3-0.2,1.7,0.4
						C183,314.9,182.8,315.8,182.2,316.1z"/>
					<g>
						<path class="st5" d="M181.2,314.5c0.1,0.1,0.1,0.3,0,0.4c-0.1,0.1-0.3,0.1-0.4,0c-0.1-0.1-0.1-0.3,0.1-0.4
							C181,314.3,181.2,314.3,181.2,314.5z"/>
						<path class="st5" d="M182.3,314.4c0.1,0.1,0.1,0.3,0,0.4c-0.1,0.1-0.3,0.1-0.4,0c-0.1-0.1-0.1-0.3,0.1-0.4
							C182,314.3,182.2,314.3,182.3,314.4z"/>
						<path class="st5" d="M181.2,315.4c0.1,0.1,0.1,0.3,0,0.4c-0.1,0.1-0.3,0.1-0.4,0c-0.1-0.1-0.1-0.3,0.1-0.4
							C181,315.2,181.2,315.2,181.2,315.4z"/>
						<path class="st5" d="M182.2,315.3c0.1,0.1,0.1,0.3,0,0.4c-0.1,0.1-0.3,0.1-0.4,0c-0.1-0.1-0.1-0.3,0.1-0.4
							C181.9,315.2,182.1,315.2,182.2,315.3z"/>
					</g>
				</g>
			</g>
			<g>
				<path class="st33" d="M193.9,380.5c0,1-0.8,1.8-1.7,1.8c-0.9,0-1.7-0.8-1.7-1.8c0-1,0.8-1.8,1.7-1.8
					C193.1,378.8,193.9,379.6,193.9,380.5z"/>
				<g>
					<path class="st13" d="M193.7,379.6c0,1-0.8,1.8-1.7,1.8c-0.9,0-1.7-0.8-1.7-1.8c0-1,0.7-1.8,1.6-1.8
						C192.8,377.9,193.7,378.7,193.7,379.6z"/>
					<path class="st34" d="M192.6,380.7c-0.6,0.3-1.4,0.1-1.7-0.5c-0.3-0.6-0.1-1.4,0.5-1.7c0.6-0.3,1.3-0.2,1.7,0.4
						C193.4,379.6,193.2,380.4,192.6,380.7z"/>
					<g>
						<path class="st5" d="M191.6,379.1c0.1,0.1,0.1,0.3,0,0.4c-0.1,0.1-0.3,0.1-0.4,0c-0.1-0.1-0.1-0.3,0.1-0.4
							C191.4,378.9,191.5,378.9,191.6,379.1z"/>
						<path class="st5" d="M192.6,379c0.1,0.1,0.1,0.3,0,0.4c-0.1,0.1-0.3,0.1-0.4,0c-0.1-0.1-0.1-0.3,0.1-0.4
							C192.4,378.9,192.6,378.9,192.6,379z"/>
						<path class="st5" d="M191.6,380c0.1,0.1,0.1,0.3,0,0.4c-0.1,0.1-0.3,0.1-0.4,0c-0.1-0.1-0.1-0.3,0.1-0.4
							C191.4,379.8,191.6,379.8,191.6,380z"/>
						<path class="st5" d="M192.6,379.9c0.1,0.1,0.1,0.3,0,0.4c-0.1,0.1-0.3,0.1-0.4,0c-0.1-0.1-0.1-0.3,0.1-0.4
							C192.3,379.8,192.5,379.8,192.6,379.9z"/>
					</g>
				</g>
			</g>
			<g>
				<path class="st33" d="M190.1,360.9c0,1-0.8,1.8-1.7,1.8c-0.9,0-1.7-0.8-1.7-1.8c0-1,0.8-1.8,1.7-1.8
					C189.3,359.2,190.1,359.9,190.1,360.9z"/>
				<g>
					<path class="st13" d="M189.9,360c0,1-0.8,1.8-1.7,1.8c-0.9,0-1.7-0.8-1.7-1.8c0-1,0.7-1.8,1.6-1.8
						C189,358.2,189.9,359,189.9,360z"/>
					<path class="st34" d="M188.8,361.1c-0.6,0.3-1.4,0.1-1.7-0.5c-0.3-0.6-0.1-1.4,0.5-1.7s1.3-0.2,1.7,0.4
						C189.6,359.9,189.4,360.8,188.8,361.1z"/>
					<g>
						<path class="st5" d="M187.8,359.4c0.1,0.1,0.1,0.3,0,0.4c-0.1,0.1-0.3,0.1-0.4,0c-0.1-0.1-0.1-0.3,0.1-0.4
							C187.6,359.3,187.8,359.3,187.8,359.4z"/>
						<path class="st5" d="M188.9,359.4c0.1,0.1,0.1,0.3,0,0.4c-0.1,0.1-0.3,0.1-0.4,0c-0.1-0.1-0.1-0.3,0.1-0.4
							C188.6,359.3,188.8,359.3,188.9,359.4z"/>
						<path class="st5" d="M187.8,360.3c0.1,0.1,0.1,0.3,0,0.4c-0.1,0.1-0.3,0.1-0.4,0c-0.1-0.1-0.1-0.3,0.1-0.4
							C187.6,360.2,187.8,360.2,187.8,360.3z"/>
						<path class="st5" d="M188.8,360.3c0.1,0.1,0.1,0.3,0,0.4c-0.1,0.1-0.3,0.1-0.4,0c-0.1-0.1-0.1-0.3,0.1-0.4
							C188.5,360.2,188.7,360.2,188.8,360.3z"/>
					</g>
				</g>
			</g>
			<g>
				<path class="st33" d="M187.4,340.5c0,1-0.8,1.8-1.7,1.8s-1.7-0.8-1.7-1.8c0-1,0.8-1.8,1.7-1.8S187.4,339.6,187.4,340.5z"/>
				<g>
					<path class="st13" d="M187.2,339.6c0,1-0.8,1.8-1.7,1.8c-0.9,0-1.7-0.8-1.7-1.8c0-1,0.7-1.8,1.6-1.8
						C186.3,337.9,187.2,338.7,187.2,339.6z"/>
					<path class="st34" d="M186.1,340.7c-0.6,0.3-1.4,0.1-1.7-0.5c-0.3-0.6-0.1-1.4,0.5-1.7c0.6-0.3,1.3-0.2,1.7,0.4
						C186.9,339.5,186.7,340.4,186.1,340.7z"/>
					<g>
						<path class="st5" d="M185.1,339.1c0.1,0.1,0.1,0.3,0,0.4c-0.1,0.1-0.3,0.1-0.4,0c-0.1-0.1-0.1-0.3,0.1-0.4
							C184.9,338.9,185,338.9,185.1,339.1z"/>
						<path class="st5" d="M186.2,339c0.1,0.1,0.1,0.3,0,0.4c-0.1,0.1-0.3,0.1-0.4,0c-0.1-0.1-0.1-0.3,0.1-0.4
							C185.9,338.9,186.1,338.9,186.2,339z"/>
						<path class="st5" d="M185.1,340c0.1,0.1,0.1,0.3,0,0.4c-0.1,0.1-0.3,0.1-0.4,0c-0.1-0.1-0.1-0.3,0.1-0.4
							C184.9,339.8,185.1,339.8,185.1,340z"/>
						<path class="st5" d="M186.1,339.9c0.1,0.1,0.1,0.3,0,0.4c-0.1,0.1-0.3,0.1-0.4,0c-0.1-0.1-0.1-0.3,0.1-0.4
							C185.8,339.8,186,339.8,186.1,339.9z"/>
					</g>
				</g>
			</g>
			<g>
				<g>
					<polygon class="st35" points="236.5,310.7 182.1,322.9 191.4,370.2 245.4,354.7 					"/>
					<polygon class="st36" points="197.9,370.6 193.5,368.7 183.6,323.1 188.6,324.3 					"/>
					<polygon class="st37" points="241.9,312.6 187.5,324.8 197.7,372.5 250.8,356.6 					"/>
					<polygon class="st38" points="182.1,322.9 187.5,324.8 241.9,312.6 236.5,310.7 					"/>
				</g>
				<g>
					<path class="st5" d="M171.5,273.1c0,0,42.4,17,49.5,73.5l-10,2.8c0,0-7.3-34.7-25.1-48.5L171.5,273.1z"/>
					<g>
						<g>
							<path class="st4" d="M219.2,349.4c1.6,2.6,9.1,13.2,8.5,16.8c-0.3,1.7-1,2.7-3.1,0.3c0.6,3-1.7,4.4-3.7,0.7
								c-0.2,3.7-1.5,4.4-3.5,1c-0.1,1.3-0.4,3.5-1.8,3.1c-3.2-0.9-1.7-5.8-1.1-8.8c-2,3.7-6.2,5.9-6.5,3.4c-0.2-1.7,4.3-4.3,5.5-7
								c0.7-1.7,0.2-3.1,0.4-4.7c0.1-1.1-0.2-1.5,0.4-2.6c0.5-0.9,2.6-1.6,3.4-2.1L219.2,349.4z"/>
						</g>
						<polygon class="st32" points="207.9,348 224.1,344.3 225.6,350.2 210.4,354.9 						"/>
					</g>
				</g>
			</g>
		</g>
	</g>
	<polygon class="st39" points="173.4,21.4 179,15.9 177.5,8.2 184.5,11.7 191.3,7.9 190.2,15.7 195.9,21 188.1,22.3 184.8,29.4 
		181.2,22.4 	"/>
	<polygon class="st40" points="182.9,57.8 184.1,54.7 182.1,52 185.4,52.2 187.4,49.5 188.3,52.7 191.5,53.7 188.7,55.6 188.7,58.9 
		186.1,56.9 	"/>
	<polygon class="st41" points="260.9,29.8 262.1,26.7 260.1,24 263.4,24.2 265.4,21.5 266.3,24.7 269.5,25.7 266.7,27.6 266.7,30.9 
		264.1,28.9 	"/>
	<g>
		<path class="st42" d="M271.1,78.3c-2.3-3.6-7.8-4.8-11.7-5.5c0.4-0.6,0.8-1.2,1.1-1.8c0.3-0.5,0.1-1-0.2-1.3
			c1.2,0.6,2.4,1.2,3.7,1.6c5.2,1.8,5.3-2.7,3.4-6.3c-0.2-0.4-0.6-0.5-1-0.5c4-2.1,0.8-9.3-1.3-11.6c-3.9-4.4-11.7-10.5-17.8-10.9
			c-0.7,0-1.2,0.6-1.2,1.3c-0.2,0-0.5,0-0.7,0c-0.5,0-0.9,0.3-1,0.7c-1-1.1-2.4-2-4-1.6c-1.8,0.5-2.9,2.2-2.5,4
			c0.3,1.3,0.9,2.7,1.6,4c-0.6,0.3-1.2,0.6-1.8,1c-2.2-4.1-5.9-15.5-12-11.6c-3.9,2.5-5.6,8.8-6.5,12.9c-1,4.7-2.1,11.5,0.3,16.1
			c-3.2,5.8-3.7,12.2,1.3,17.9c-1,0.4-1.9,1-2.7,1.8c-1.5-0.9-4.2-2.2-5.9-1.7c-1.8-1-3.7-1.5-5.7-1.9c-0.8-0.2-1.6,0.4-1.7,1.2
			c-0.7,0.6-1.3,1.4-1.9,2.2c-0.6,0.7-1.1,1.3-1.7,2c-1.9-0.9-3.8-1.2-5.9-1.6c-0.9-0.1-1.6,0.3-1.8,1.2
			c-5,17.1,10.8,28.9,26.6,29.3c1,0,1.6-0.9,1.6-1.7c0.1-2.8-0.1-5.3-1-7.7c1.8-1.1,3.3-2.7,4.4-4.6c0.2-0.4,0.2-0.8,0-1.1
			c0-0.2,0.1-0.4,0-0.6c-0.6-2.8-1.1-5.5-2.9-7.6c0-1.1-0.3-2.2-0.6-3c0.1,0,0.2-0.1,0.3-0.1c0.9-0.5,2.1-1.5,2.5-2.6
			c5.3,3.6,11.1,3,16.7,0.3l0,0c4.8,0.5,9.7,0.6,14.6,0.6c4.4-0.1,10.3-0.3,13.8-3.2C272.2,85.1,273.1,81.5,271.1,78.3z M234.6,53.2
			c-1.6-3.3-3.3-6.5-6.6-8.3c-0.4-0.2-0.9-0.1-1.2,0.2c-4.8,4.7-5,11.7-4.7,18c0,0.5,0.9,0.6,0.9,0.1c0.6-5.5,0.7-11.8,4.6-16.1
			c2.6,1.8,3.9,4.6,5.4,7.3c-4.3,3.1-8.7,7.1-11.8,11.5c-0.1-3.3-0.4-6.5,0-9.9c0.6-4.6,2.1-9.4,5-13.1c2.5-3.2,4.8,1.3,6.1,3.3
			c1.3,2.1,2.6,4,4.2,5.9C235.9,52.4,235.2,52.8,234.6,53.2z M248.1,45.2c2.7,1.7,6.1,2.9,8.8,4.6c2.5,1.6,4.8,3.5,6.6,5.8
			c1,1.3,3.5,7,0,6.4c-4-0.6-7.9-4.7-10.6-7.5c-1.6-1.6-3-3.4-4.3-5.3c-0.6-0.8-1.1-1.8-1.5-2.7C246.5,45.2,247,45.1,248.1,45.2z
			 M241.1,48c-1.6-2.7,1.2-3.1,3.1-2.3c0.7,4.7,5.1,9.2,8.3,12.3c2.9,2.9,8.3,8,12.9,6.7c-0.3,0.3-0.5,0.7-0.3,1.1
			c1.8,5-2.5,2.1-5,0.6c-3-1.8-5.9-3.9-8.7-6.1c-1.9-1.5-3.5-3.4-5.1-5.2c-1.4-1.6-2.7-3.3-3.9-5.1C242,49.5,241.5,48.8,241.1,48z
			 M203.9,90c0.5-0.5,1-0.9,1.6-1.4c1.3,3.6,2.7,7.1,5.4,9.9c-2,1.6-3.7,3.5-5.3,5.6c-2.7-3-4.4-7.1-5-11
			C201.7,92.1,202.8,91.1,203.9,90z M218.3,115.5c-6.4-0.5-12.2-2.7-17.1-7c-4.4-3.8-10.1-17.5-1.1-17.1c-0.2,0.3-0.4,0.5-0.6,0.8
			c-0.3,0.1-0.5,0.3-0.6,0.7c-0.1,0.2-0.3,0.3-0.4,0.5c-0.4,0.5,0,1.1,0.5,1.1c0.5,4.5,2.4,8.8,5.5,12c0.1,0.2,0.2,0.3,0.4,0.4
			c1.2,1.2,2.6,2.3,4.1,3.1c2.8,1.6,5.8,1.7,8.5,0.9C217.9,112.4,218.2,113.9,218.3,115.5z M219.3,106.9c-0.2-0.2-0.3-0.5-0.5-0.7
			c-0.8-1.1-2.7-0.4-2.3,1c0.1,0.3,0.2,0.6,0.3,1c-2.1,0.7-4.5,0.5-7.3-0.9c-0.8-0.4-1.5-0.9-2.2-1.5c1.6-2.1,3.5-3.9,5.5-5.6
			c2.7,2,6.2,3.1,9.4,4.2C221.2,105.3,220.3,106.2,219.3,106.9z M220,98.3c0.3,0,0.6,0,0.8-0.1c0.4,1.1,0.8,2.2,1.1,3.3
			c-2.9-1.1-5.8-2.3-8.3-4.1c-3-2.2-4.4-6.1-5.5-9.7c0.9,0.1,1.8,0.2,2.7,0.3c-0.1,0.2-0.1,0.4-0.1,0.6c-0.1,1.1,0.6,2.2,1.1,3.1
			c0.8,1.2,1.7,2.3,2.7,3.3C216,96.4,217.9,98.2,220,98.3z M219.8,94.9C219.8,95,219.8,95,219.8,94.9c0,0.2,0,0.3,0,0.4
			c0,0.1,0,0.3,0,0.4c0,0.1,0,0.1,0,0.2c0,0,0,0,0,0c-0.1,0-0.2,0-0.3-0.1c-0.1,0-0.1,0-0.1-0.1c-0.1-0.1-0.3-0.1-0.4-0.2
			c-0.2-0.1-0.5-0.3-0.7-0.4c-0.1,0-0.1-0.1-0.2-0.1l0,0c-0.1-0.1-0.3-0.2-0.4-0.3c-0.5-0.4-1-0.9-1.5-1.4c-0.5-0.5-1-1-1.4-1.5
			c0,0,0,0,0,0c0,0,0,0,0,0c-0.1-0.1-0.1-0.1-0.2-0.2c-0.1-0.1-0.2-0.3-0.3-0.4c-0.2-0.3-0.4-0.5-0.6-0.8c-0.2-0.3-0.4-0.6-0.5-0.9
			c0-0.1-0.1-0.1-0.1-0.2c0-0.1-0.1-0.3-0.1-0.4c0,0,0,0,0,0c0,0,0,0,0,0c0,0,0,0,0.1,0c0.2,0,0.3,0,0.5,0c0.1,0,0.3,0,0.3,0
			c-0.3,0,0.1,0,0.1,0c1,0.1,2,0.4,3,0.7c-0.3,0.5-0.5,1.1-0.6,1.8c-0.1,0.6,0.2,1.1,0.8,1.3c0.6,0.2,1.3,0.3,1.9,0.3c0,0,0,0,0,0
			c0.1,0.4,0.2,0.9,0.4,1.3C219.7,94.6,219.7,94.8,219.8,94.9z M221.7,87.6c0.4,0.4,0.9,0.8,1.3,1.2c-0.6,0.5-1.1,1.3-1.7,1.7
			c-0.7,0.5-1.5,0.6-2.3,0.4c0.5-1.3,1.5-2.2,2.6-3.2C221.6,87.7,221.6,87.6,221.7,87.6z M223.4,85.5c-12.5-10.8,7.8-27.7,16.7-34.1
			c2.3,3.8,5.8,7.4,8.7,10.1c3.1,2.8,6.9,5.8,10.8,7.9c-0.5-0.1-1,0-1.3,0.6C252.1,80.8,236,96.4,223.4,85.5z M263.1,87.4
			c-5.9,1.4-11.9,0.5-17.9,0.3c1.8-1.2,3.5-2.6,5.1-4.1c1.4,1.7,5,1.8,6.8,1.9c3.5,0.2,7.9-0.8,9.9-3.9c0.3-0.5,0-1.2-0.5-1.5
			c-3.1-2.1-6.6-4.2-10.3-2.4c-0.7,0.4-0.1,1.3,0.5,1.2c3-0.5,5.3,0.7,7.6,2.4c-1.8,1.5-4.8,1.3-6.9,1.3c-1.4,0-3.6-0.2-5.1-1
			c2.6-2.6,4.9-5.5,6.6-8.1c0,0,0,0.1,0.1,0.1c3.3,1.2,6.4,2.6,9.1,4.9C272.9,82.7,266.9,86.5,263.1,87.4z"/>
		<path class="st42" d="M250.6,70.5c0.4-0.3,0.4-1.1,0.2-1.5c-1.7-2.5-3.2-5.1-5.8-6.9c-1.5-1-6.1,1.6-7.9,2.9
			c-0.7-0.3-1.7,0.4-1.1,1.2c0.8,1.3,1.9,2.8,3.1,4c-3.1,2.5-6.5,4.6-9.6,7c-0.5,0.3-0.9,1-0.6,1.6c1,2.3,2.7,4.2,5.4,3.7
			c0.5-0.1,0.8-0.4,1-0.7c2.4-0.9,4.4-2.9,6.4-4.3C244.6,75.2,247.6,72.9,250.6,70.5z M240.1,75.2c-2,1.5-4.6,2.8-6.2,4.8
			c-0.8-0.4-1.5-0.7-2-1.3c2.9-2.3,5.7-4.7,8.2-7.5c0.1,0.1,0.2,0.2,0.3,0.3c1.1,0.9,2.5-0.6,1.5-1.6c-0.7-0.7-1.5-1.3-2.3-2
			c-0.4-0.4-0.8-0.8-1.2-1.3c1.7-0.8,3.5-1.3,5.3-1.9c1.4-0.4,3.2,2.8,4.3,4.6C245.4,71.3,242.7,73.3,240.1,75.2z"/>
	</g>
	<polygon class="st40" points="244.5,116.7 245.6,113.6 243.7,110.9 247,111 248.9,108.4 249.8,111.5 253,112.6 250.2,114.4 
		250.2,117.8 247.6,115.7 	"/>
	<polygon class="st41" points="165,116.4 166.2,113.3 164.2,110.6 167.5,110.7 169.5,108 170.4,111.2 173.6,112.2 170.8,114.1 
		170.8,117.4 168.2,115.4 	"/>
</g>
</svg>
