<?xml version="1.0" encoding="utf-8"?>
<!-- Generator: Adobe Illustrator 22.0.1, SVG Export Plug-In . SVG Version: 6.00 Build 0)  -->
<svg version="1.1" id="Слой_1" xmlns="http://www.w3.org/2000/svg" xmlns:xlink="http://www.w3.org/1999/xlink" x="0px" y="0px"
	 viewBox="0 0 1900 877.3" style="enable-background:new 0 0 1900 877.3;" xml:space="preserve">
<style type="text/css">
	.st0{clip-path:url(#SVGID_2_);}
	.st1{fill:#009C53;}
	.st2{fill:#CAE977;}
	.st3{fill:#063035;}
	.st4{fill:#80BA9C;}
	.st5{fill:#635128;}
	.st6{fill:#007439;}
	.st7{fill:#005621;}
	.st8{fill:#303030;}
	.st9{fill:#CD5351;}
	.st10{fill:#F49045;}
	.st11{fill:#6D6D6C;}
	.st12{fill:#2CBAE5;}
	.st13{fill:#FFF2E7;}
	.st14{fill:#313130;}
	.st15{fill:#585857;}
	.st16{fill:#3E3E3D;}
	.st17{fill:#6F6F6E;}
	.st18{fill:#AEAEAE;}
	.st19{fill:#856037;}
	.st20{fill:#B48B59;}
	.st21{fill:#FFFFFF;}
	.st22{clip-path:url(#SVGID_4_);fill:#009C53;}
	.st23{clip-path:url(#SVGID_6_);fill:#009C53;}
</style>
<g>
	<g>
		<defs>
			<rect id="SVGID_1_" x="-11" y="31.6" width="1922" height="894"/>
		</defs>
		<clipPath id="SVGID_2_">
			<use xlink:href="#SVGID_1_"  style="overflow:visible;"/>
		</clipPath>
		<g class="st0">
			<rect x="-28.1" y="67.7" class="st1" width="1960" height="924"/>
			<g>
				<g>
					<g>
						<g>
							<path class="st2" d="M162.4,403.4c0,0-30.1-3.6-42.9-22.1c-12.8-18.6-14.8-56.8,0-75.4s41.5-32.8,61.9-20.1
								c20.4,12.6,40.1,62.8,26,87.6C193.3,398.3,172.9,402.2,162.4,403.4z"/>
						</g>
					</g>
					<g>
						<path class="st3" d="M150.3,494.2c0,0,3.9-110.1,2.7-113.6c-1.1-3.5-14.8-19.4-14.8-19.4s17.6,14.4,19.2,8.5
							c1.6-6,4.9-51.2,4.9-51.2s1.1,45.8,5.5,45.3s22.5-18.4,22.5-18.4s-20.9,23.9-20.9,32.8s1.7,116.1,1.7,116.1L150.3,494.2
							L150.3,494.2z"/>
					</g>
				</g>
			</g>
			<g>
				<g>
					<g>
						<g>
							<path class="st4" d="M1080.5,164.7c0,0-11.2,8.1-18.7-2.8c0,0-12.5,3.1-15.3-8.4c0,0-14.9-1.2-14.3-12.7
								c0,0-18.1-8.7-6.2-25.2c0,0-11.5-10.2,1.6-21.7c0,0-10-14.9,7.5-19.3c0,0,1.6-17.7,19-13.7c0,0,4.7-14.9,21.5-9.3
								c0,0,15.1-11.2,23.7,3.7c0,0,16.5-2.2,19.6,11.5c0,0,15.9,2.2,14.3,18c0,0,12.2,11.2,4.4,24.5c0,0,7.8,22.2-9.1,24.2
								c0,0,0.5,9.8-9.4,14.2c0,0-1.8,11.9-12.4,10c0,0-8.1,9-14,4L1080.5,164.7z"/>
						</g>
					</g>
					<g>
						<path class="st5" d="M1061.8,136c0,0,17.4,1.8,18.7,10.8c1.2,9-1.9,81.8-1.9,81.8h18.7c0,0-8.1-81.8-5.3-87.8
							c2.8-5.9,11.8-9.3,11.8-9.3s-10.3-0.3-13.7,2.8c-3.4,3.1-7.8,3.9-12.5,3.1C1073,136.8,1068.3,135.5,1061.8,136z"/>
					</g>
				</g>
			</g>
			<g>
				<path class="st6" d="M1831,119c-17.7-6.9-37.5-7.5-51.9,0.5c-23,12.8-32.8,33.5-24.3,52.5c0.3,0.7,0.4,1.5,0.2,2.2
					c-1.3,3.5-8.6,0.6-11.8,0c-4.7-0.9-9.7-1.3-14.5-1.2c-9.7,0.2-19.3,2.3-26.4,6.1c-7.6,4.1-12.5,9.7-15.8,15.6
					c-11.4,19.9-3.8,45.5,20.4,62.2c5,3.4,10.6,6.5,16.7,9.2c14.5,6.3,25.3,15.1,32.1,25c1.8,2.6,4.2,5,7.3,7.1
					c9.4,6.3,23.7,9.8,37.2,9.1c14.9-0.8,29.5-6.7,38.5-13.5c4.4-3.3,6.6-7.9,7.5-12.9c0.1-0.8,0.3-1.7,0.5-2.5
					c-0.1-1.5-0.2-3.1,0-4.6s0.6-2.9,1.2-4.3c-2-9.1,23.1-12.6,27-15.7c5.6-4.6,8.6-13.1,8.3-21.7c-0.3-8.6-3.7-17-8.6-23.5
					c-3.9-5.1-9-9.7-10.2-16.4c-1.6-8.4,3.5-15.7,5-23.9c2-11-3.2-23.1-10.5-30.9C1851.3,129.4,1841.5,123.1,1831,119z"/>
				<path class="st7" d="M1815.8,210.2c-0.1-0.1-0.3-0.2-0.7-0.2c-1.3,0.1-2.5,2.3-3.4,3.2c-1.4,1.4-2.8,2.8-4.2,4.2
					c-3.5,3.5-7,7.1-10.5,10.6c0.3-0.7,0.5-1.4,0.8-2.1c1.2-3.2,2.3-6.4,3.5-9.6c0.5-1.5,1.3-3,1.7-4.5c0.2-0.8-0.4-1.3-1.2-0.7
					c-0.5,0.4-0.7,1.3-1,1.9c-0.5,1.2-0.9,2.4-1.4,3.6c-1.1,2.7-2.2,5.5-3.3,8.2c-3.2,7.9-6.4,15.8-9.7,23.7l-0.5-39.6
					c0-0.9-0.8-1.7-1.7-1.6c-0.9,0-1.6,0.7-1.6,1.6l-3,89.6l-21.1-28.2c0-0.1,0-0.1,0-0.2c-1-4.8-2-9.6-3-14.4
					c-0.7-3.3-1.4-6.5-2-9.8c-0.3-1.3-0.5-2.6-0.8-3.9c-0.1-0.5-0.1-1.1-0.3-1.6c-0.2-0.5-1.4-1.5-1.6-0.4c-0.1,0.3,0.1,0.8,0.2,1.1
					c0.2,1,0.3,2.1,0.5,3.1c0.5,2.7,0.9,5.4,1.4,8.1c0.7,4.4,1.5,8.8,2.2,13.2c-3.1-4.1-6.1-8.2-9.2-12.3c-1.3-1.7-2.6-3.4-3.8-5.2
					c-0.5-0.7-1-1.4-1.6-2.1c-0.2-0.3-0.5-0.8-0.9-0.9c-1.5-0.3-0.2,1.6,0.1,2.1c0.4,0.6,0.8,1.2,1.3,1.9c1.2,1.7,2.3,3.4,3.5,5.1
					c3.2,4.7,6.4,9.4,9.7,14.1c3.6,5.3,7.2,10.5,10.9,15.8c3.1,4.5,6.2,9,9.3,13.5c1.7,2.4,3.3,4.8,5,7.2c0.1,0.1,0.2,0.2,0.2,0.3
					l-3.3,96.5l12.2-0.4l-1.8-144.4l9.5-25.9l0,0c3.6-3.6,7.1-7.1,10.7-10.7c2.4-2.4,4.8-4.8,7.2-7.2
					C1814.2,212.5,1816.2,210.8,1815.8,210.2z"/>
			</g>
			<g>
				<g>
					<g>
						<g>
							<polygon class="st8" points="254,191.5 254.4,198 327.5,196.1 327.1,189.7 							"/>
							<polygon class="st8" points="258.6,214.3 260.6,220.6 332.3,211.4 330.4,205.2 							"/>
							<polygon class="st8" points="270.9,237.8 275.9,243.3 339.5,220.2 334.5,214.7 							"/>
							<polygon class="st8" points="291.9,258 299,262.6 351.1,229.9 344,225.3 							"/>
							<polygon class="st8" points="319.1,273.7 327.1,277.6 371.3,240.6 363.3,236.7 							"/>
							<polygon class="st8" points="352.7,286.3 362.1,288.7 389,245.3 379.6,243 							"/>
							<polygon class="st8" points="389.4,293 399.4,293.9 409.9,247.8 399.9,246.9 							"/>
							<polygon class="st8" points="425.7,295.5 435.8,295.7 438.1,249.2 428,248.9 							"/>
							<polygon class="st8" points="461.5,295.5 471.6,295.3 470.3,248.8 460.2,248.9 							"/>
							<path class="st8" d="M312,255.4c50.8,32.9,103.9,28.6,168.9,29l-0.1,6.4c-68.2-0.4-122.7,3.6-176-30.9
								c-40.4-26.2-45.6-53.2-45.6-83.4c3.3,0,6.7,0.1,10,0C269.1,205.1,274,230.8,312,255.4z"/>
							<path class="st8" d="M481.3,258.8c-51.3-0.3-100.9,4.4-140.6-21.3c-27.1-17.6-31.1-38.7-31.2-60.8c3.3-0.1,6.7,0.1,10,0.2
								c0.2,20.6,3.9,40.3,28.3,56.1c36.8,23.8,85.8,19.1,133.5,19.4L481.3,258.8z"/>
						</g>
						<g>
							<polygon class="st8" points="252.9,177.6 252.8,171.2 326,170.8 326.1,177.2 							"/>
							<polygon class="st8" points="252.6,156.5 252.6,150.1 325.7,149.7 325.8,156.1 							"/>
							<polygon class="st8" points="252.4,135.4 252.3,129 325.4,128.6 325.5,134.9 							"/>
							<path class="st8" d="M259.5,185.9l10-0.1l-0.7-78.7c-5.4-0.8-10-1.8-10-1.8L259.5,185.9z"/>
							<polygon class="st8" points="308.9,115.2 309.8,185.7 319.8,185.6 319.1,117.1 							"/>
						</g>
					</g>
				</g>
				<g>
					<g>
						<g>
							<rect x="526.6" y="248.3" class="st8" width="10.1" height="46.6"/>
							<rect x="493.4" y="248.3" class="st8" width="10.1" height="46.6"/>
							<rect x="460.2" y="248.3" class="st8" width="10" height="46.6"/>
							<rect x="427" y="248.3" class="st8" width="10.1" height="46.6"/>
							<path class="st8" d="M549.8,252.4v6.4H413.3c0-2.1,0-4.2,0-6.4H549.8z"/>
							<path class="st8" d="M414.7,284.4h135v6.4h-135C414.8,288.7,414.8,286.6,414.7,284.4z"/>
						</g>
					</g>
				</g>
				<g>
					<polygon class="st8" points="325.6,114.4 325.6,107.9 252.5,108.2 252.5,114.6 					"/>
					<polygon class="st8" points="325.7,93.2 325.7,86.8 252.6,87.1 252.5,93.5 					"/>
					<polygon class="st8" points="319.2,122.7 309,122.8 308.9,114.5 309.1,67.7 319.2,67.7 					"/>
					<polygon class="st8" points="267.9,67.7 268.9,123 258.9,122.9 258.9,121.3 258.8,105.5 258.7,67.7 					"/>
				</g>
			</g>
			<g>
				<g>
					<polygon class="st9" points="572.9,259.3 583.4,240.8 572.9,222.5 567.6,227.6 567.6,254.1 					"/>
					<g>
						<polygon class="st10" points="549.9,219.8 554.1,196.1 554.1,190.8 529.3,190.8 529.3,196.1 533.5,219.8 						"/>
						<path class="st9" d="M557,227.6v-7.5c0-1.7-1.4-3-3-3h-24.5c-1.7,0-3,1.4-3,3v7.5H557z"/>
						<polygon class="st11" points="556.7,196.1 551,180.1 532.5,180.1 526.7,196.1 						"/>
					</g>
					<polygon class="st12" points="446.2,201.3 446.2,243.6 454.1,251.5 488.4,251.5 488.4,201.3 					"/>
					<polygon class="st12" points="572.9,243.6 572.9,222.5 467.3,222.5 467.3,251.5 564.9,251.5 					"/>
					<g>
						<path class="st13" d="M473.5,211.8h-13.7c-1.7,0-3,1.4-3,3v15c0,1.7,1.4,3,3,3h13.7c1.7,0,3-1.4,3-3v-15
							C476.5,213.3,475.2,211.8,473.5,211.8z"/>
					</g>
					<rect x="443.5" y="201.3" class="st9" width="47.5" height="5.3"/>
					<path class="st14" d="M451.5,251.5V270c5.8,0,10.6,4.7,10.6,10.6h105.6v-29L451.5,251.5L451.5,251.5z"/>
					<rect x="446.2" y="243.6" class="st15" width="42.2" height="26.4"/>
					<rect x="467.3" y="243.6" class="st15" width="105.6" height="15.8"/>
					<rect x="562.3" y="264.6" class="st14" width="10.6" height="15.8"/>
					<polygon class="st9" points="594,285.8 572.9,264.6 572.9,290.5 594,290.5 					"/>
					<g>
						<g>
							<path class="st16" d="M557,296.3L557,296.3c-5.8,0-10.6-4.7-10.6-10.6c0-5.8,4.7-10.6,10.6-10.6c5.8,0,10.6,4.7,10.6,10.6
								C567.6,291.5,562.9,296.3,557,296.3"/>
							<path class="st15" d="M557,278.3c4.1,0,7.4,3.3,7.4,7.4c0,4.1-3.3,7.4-7.4,7.4s-7.4-3.3-7.4-7.4S553,278.3,557,278.3"/>
							<path class="st16" d="M557,283.6c1.2,0,2.1,0.9,2.1,2.1c0,1.2-0.9,2.1-2.1,2.1c-1.2,0-2.1-0.9-2.1-2.1
								C554.9,284.5,555.9,283.6,557,283.6"/>
						</g>
						<g>
							<path class="st16" d="M532.8,296.3L532.8,296.3c-5.8,0-10.6-4.7-10.6-10.6c0-5.8,4.7-10.6,10.6-10.6
								c5.8,0,10.6,4.7,10.6,10.6C543.3,291.5,538.6,296.3,532.8,296.3"/>
							<path class="st15" d="M532.8,278.3c4.1,0,7.4,3.3,7.4,7.4c0,4.1-3.3,7.4-7.4,7.4s-7.4-3.3-7.4-7.4S528.7,278.3,532.8,278.3"
								/>
							<path class="st16" d="M532.8,283.6c1.2,0,2.1,0.9,2.1,2.1c0,1.2-0.9,2.1-2.1,2.1c-1.2,0-2.1-0.9-2.1-2.1
								C530.6,284.5,531.6,283.6,532.8,283.6"/>
						</g>
						<g>
							<path class="st16" d="M488.4,296.3L488.4,296.3c-11.7,0-21.1-9.5-21.1-21.1c0-11.7,9.5-21.1,21.1-21.1s21.1,9.5,21.1,21.1
								C509.5,286.8,500.1,296.3,488.4,296.3"/>
							<g>
								<path class="st15" d="M488.4,258.3c9.3,0,16.9,7.6,16.9,16.9c0,9.3-7.6,16.9-16.9,16.9s-16.9-7.6-16.9-16.9
									C471.5,265.8,479.1,258.3,488.4,258.3"/>
							</g>
							<path class="st16" d="M488.4,273c1.2,0,2.1,0.9,2.1,2.1c0,1.2-0.9,2.1-2.1,2.1s-2.1-0.9-2.1-2.1
								C486.3,274,487.2,273,488.4,273"/>
						</g>
						<g>
							<g>
								<polygon class="st17" points="489.5,287.1 487.4,282.3 521.6,267.3 544.9,267.3 544.9,272.5 522.7,272.5 								"/>
							</g>
							<g>
								<path class="st9" d="M488.4,280.5c-2.3,0-4.2,1.9-4.2,4.2s1.9,4.2,4.2,4.2c2.3,0,4.2-1.9,4.2-4.2S490.7,280.5,488.4,280.5
									L488.4,280.5z"/>
								<path class="st16" d="M488.4,282.5c1.2,0,2.1,0.9,2.1,2.1c0,1.2-0.9,2.1-2.1,2.1s-2.1-0.9-2.1-2.1
									C486.3,283.5,487.2,282.5,488.4,282.5"/>
							</g>
							<g>
								<path class="st9" d="M522.2,265.6c-2.3,0-4.2,1.9-4.2,4.2s1.9,4.2,4.2,4.2s4.2-1.9,4.2-4.2S524.5,265.6,522.2,265.6
									L522.2,265.6z"/>
								<path class="st16" d="M522.2,267.8c1.2,0,2.1,0.9,2.1,2.1c0,1.2-0.9,2.1-2.1,2.1c-1.2,0-2.1-0.9-2.1-2.1
									S521,267.8,522.2,267.8"/>
							</g>
							<path class="st18" d="M532.8,265v9.8c0,1.7,1.4,3,3,3H554c1.7,0,3-1.4,3-3V265c0-1.7-1.4-3-3-3h-18.2
								C534.1,262,532.8,263.3,532.8,265z"/>
						</g>
					</g>
				</g>
				<g>
					<rect x="435" y="274.3" class="st16" width="28.4" height="5"/>
					<g>
						<rect x="335" y="262.3" class="st11" width="100.5" height="20.1"/>
						<g>
							<path class="st16" d="M349.4,297.5L349.4,297.5c5.6,0,10.1-4.5,10.1-10.1s-4.5-10.1-10.1-10.1s-10.1,4.5-10.1,10.1
								C339.4,293,343.9,297.5,349.4,297.5"/>
							<path class="st15" d="M349.4,280.3c3.9,0,7,3.2,7,7c0,3.9-3.2,7-7,7c-3.9,0-7-3.2-7-7S345.6,280.3,349.4,280.3"/>
							<path class="st16" d="M349.4,285.3c1.1,0,2,0.9,2,2s-0.9,2-2,2s-2-0.9-2-2S348.3,285.3,349.4,285.3"/>
						</g>
						<g>
							<path class="st16" d="M421,297.5L421,297.5c5.6,0,10-4.5,10-10.1s-4.5-10.1-10-10.1c-5.6,0-10.1,4.5-10.1,10.1
								C411,293,415.5,297.5,421,297.5"/>
							<path class="st15" d="M421,280.3c3.9,0,7,3.2,7,7c0,3.9-3.2,7-7,7c-3.9,0-7-3.2-7-7S417.2,280.3,421,280.3"/>
							<path class="st16" d="M421,285.3c1.1,0,2,0.9,2,2s-0.9,2-2,2s-2-0.9-2-2S419.9,285.3,421,285.3"/>
						</g>
						<polygon class="st10" points="330,247.1 330,207 440.5,207 440.5,247.1 428,259.8 342.5,259.8 						"/>
						<rect x="327.4" y="207" class="st11" width="115.6" height="5"/>
						<g>
							<path class="st13" d="M366.8,217.1h13.1c1.6,0,2.9,1.3,2.9,2.9v14.3c0,1.6-1.3,2.9-2.9,2.9h-13.1c-1.6,0-2.9-1.3-2.9-2.9V220
								C363.9,218.3,365.2,217.1,366.8,217.1z"/>
							<path class="st13" d="M403.7,237.1h-13.1c-1.6,0-2.9-1.3-2.9-2.9v-14.3c0-1.6,1.3-2.9,2.9-2.9h13.1c1.6,0,2.9,1.3,2.9,2.9
								v14.3C406.6,235.8,405.3,237.1,403.7,237.1z"/>
							<path class="st13" d="M358.9,220v14.3c0,1.6-1.3,2.9-2.9,2.9h-13.1c-1.6,0-2.9-1.3-2.9-2.9V220c0-1.6,1.3-2.9,2.9-2.9H356
								C357.6,217.1,358.9,218.3,358.9,220z"/>
							<path class="st13" d="M414.5,217.1h13.1c1.6,0,2.9,1.3,2.9,2.9v14.3c0,1.6-1.3,2.9-2.9,2.9h-13.1c-1.6,0-2.9-1.3-2.9-2.9V220
								C411.6,218.3,412.9,217.1,414.5,217.1z"/>
						</g>
						<rect x="330" y="247.1" class="st12" width="110.6" height="25.1"/>
					</g>
				</g>
			</g>
			<g>
				<g>
					<g>
						<path class="st19" d="M704.7,323.7H735c3.2,0,5.8-2.6,5.8-5.8V108.1c0-3.2-2.6-5.8-5.8-5.8h-30.3c-3.2,0-5.8,2.6-5.8,5.8
							v209.7C698.9,321.1,701.5,323.7,704.7,323.7z"/>
						<polygon class="st20" points="868.1,192 772.4,226.8 776.2,207.9 614,165.8 631.2,97.3 793.4,139.4 799.2,116.7 						"/>
					</g>
					<g>
						<path class="st21" d="M672.8,113.1l1.6,0.5c1.8,0.5,2,4.5,0.4,12.1c-2.4,6.9-4.9,10-7.5,9.3c-2.4-0.7-2.8-4.7-1.1-12l0.2-0.8
							C669,115.6,671.1,112.6,672.8,113.1z M673.1,114.3c-2.2,1.2-3.8,3.7-4.9,7.4l-0.7,2.6c-1.1,4.8-1.1,7.9,0.2,9.2l0.6,0.2
							c2.2-1.9,3.8-4.7,4.8-8.3l0.4-1.3C674.8,119.4,674.7,116.1,673.1,114.3z"/>
						<path class="st21" d="M687,116.5c1.4,0.4,2,1.4,1.9,3.1c-0.1,0.3-0.4,0.5-0.8,0.3l-1.5-2.1l-0.7-0.2c-1.4-0.2-3.1,2.4-5,8
							l-0.4,1.3c-1.8,6.3-1.8,9.7-0.1,10.2c0.2,0.1,1.1-0.2,2.6-0.7l0.3,0.1c0.4,0.2,0.6,0.4,0.5,0.7c-1,1.1-2.1,1.4-3.4,1l-0.3-0.1
							c-2.8-0.8-3.2-4.5-1.4-11.2l0.4-1.6C681.2,118.6,683.8,115.6,687,116.5z"/>
						<path class="st21" d="M690,118l8.4,2.4c0.4,0.2,0.6,0.4,0.5,0.7l-0.1,0.3c-0.1,0.4-0.4,0.5-0.8,0.3l-3.5-1
							c-1,4.5-1.9,8-2.7,10.6l-2.7,9.5l-1.3-0.4c0.5-2.7,1-4.7,1.3-5.9l4-14.2l-3.5-1c-0.4-0.1-0.6-0.4-0.5-0.7l0.1-0.3
							C689.4,118,689.7,117.8,690,118z"/>
						<path class="st21" d="M704.5,122c0.9,0.3,0.8,4-0.4,11.3c0.3,0.1,0,3.7-1,10.8l-0.7,0.1c-0.8-0.2-0.7-2.9,0.1-7.9l-2.9-0.8
							c-0.4-0.1-1.7,2.2-4,6.8l-0.6-0.2c-0.4-0.1-0.6-0.4-0.5-0.7c5.7-11.8,8.9-18.3,9.7-19.4L704.5,122z M703,127
							c-0.3,0.9-1.4,3.3-3.4,7.3l2.9,0.8c0.3-4.3,0.6-7,0.9-8L703,127z"/>
						<path class="st21" d="M713.8,124.7c0.4,0.2,0.6,0.4,0.5,0.7l-2.4,8.4l3.2,0.9l2.4-8.4c0.2-0.3,0.4-0.5,0.8-0.3l0.8,0.8
							c-1,2.8-1.8,5-2.2,6.5L713,147c-0.1,0.4-0.4,0.5-0.8,0.4l-0.3-0.1c-0.4-0.1-0.6-0.4-0.5-0.7l1.9-6.6c0.2-0.9,0.7-2.2,1.4-3.9
							l-3.2-0.9l-3,10.5c-0.1,0.4-0.4,0.5-0.8,0.3l-0.3-0.1c-0.4-0.1-0.6-0.4-0.5-0.7l3.1-11.1c0.1-0.2,0.2-0.2,0.4-0.2
							c0-0.2,0-0.3-0.2-0.3l0.7-1.2l2.1-7.4C713.2,124.7,713.5,124.6,713.8,124.7z"/>
						<path class="st21" d="M727.3,128.5l1.6,0.5c1.8,0.5,2,4.5,0.4,12.1c-2.4,6.9-4.9,10-7.5,9.3c-2.4-0.7-2.8-4.7-1.1-12l0.2-0.8
							C723.4,131,725.5,128,727.3,128.5z M727.6,129.7c-2.2,1.2-3.8,3.7-4.9,7.4l-0.7,2.6c-1.1,4.8-1.1,7.9,0.2,9.2l0.6,0.2
							c2.2-1.9,3.8-4.7,4.8-8.3l0.4-1.3C729.3,134.8,729.2,131.5,727.6,129.7z"/>
						<path class="st21" d="M738.2,131.6c2.6,0.7,3.8,2.9,3.8,6.5l-0.4,1.6c-0.3,1-1.8,2.1-4.4,3.3c1.9,1.5,2.6,3.2,2,5.1l-0.4,1.6
							c-0.6,2.1-3,3.1-7.1,2.8c-0.4-0.1-0.6-0.4-0.5-0.7l5.6-19.7C736.8,131.6,737.3,131.4,738.2,131.6z M738.2,133l-2.5,8.7
							c2.7-0.5,4.3-1.7,4.8-3.5C740.5,135.1,739.7,133.4,738.2,133z M735.3,143l-2.3,8.2l0.3,0.1c2.4-0.2,3.8-1.3,4.4-3.3
							C738.2,146.4,737.4,144.8,735.3,143z"/>
						<path class="st21" d="M748.7,134.3l0.3,0.1c0.4,0.2,0.6,0.4,0.5,0.7l-1.8,6.3l0.3,0.1c3.4-4,5.3-5.9,5.8-5.8l0.3,0.1
							c0.4,0.1,0.6,0.4,0.4,1c-3.9,4-6.5,6.5-7.7,7.5c1.4,8,2.1,12.3,2,12.8l-0.7,0.1l-0.6-0.2c-1-5.5-1.4-8.5-1.3-8.9l-0.3-0.1
							c-1.5,4.4-2.3,7-2.5,7.5l-0.7,0.1c-0.4-0.1-0.6-0.4-0.5-0.7l5.7-20.3C748.1,134.3,748.3,134.1,748.7,134.3z"/>
						<path class="st21" d="M761.2,138.1c0.9,0.3,0.8,4-0.4,11.3c0.3,0.1,0,3.7-1,10.8l-0.7,0.1c-0.8-0.2-0.7-2.9,0.1-7.9l-2.9-0.8
							c-0.4-0.1-1.7,2.2-4,6.8l-0.6-0.2c-0.4-0.1-0.6-0.4-0.5-0.7c5.7-11.8,8.9-18.3,9.7-19.4L761.2,138.1z M759.7,143.1
							c-0.3,0.9-1.4,3.3-3.4,7.3l2.9,0.8c0.3-4.3,0.6-7,0.9-8L759.7,143.1z"/>
						<path class="st21" d="M768.2,147.1l1,0.3c0.4,0.2,0.6,0.4,0.5,0.7l-0.1,0.5c-0.1,0.5-0.7,0.7-1.5,0.4
							c-0.4-0.3-0.7-0.5-0.9-0.5l0.3-1.1C767.5,147.2,767.8,147,768.2,147.1z M766,155.9l0.3,0.1c0.3,0.1,0.6,0.4,0.7,1.1l-0.1,0.5
							c-0.1,0.4-0.4,0.5-0.8,0.4l-1-0.3c-0.4-0.1-0.6-0.4-0.5-0.7l0.1-0.5C764.9,156.2,765.3,156,766,155.9z"/>
						<path class="st21" d="M679.8,147.5l0.8,0.2c-0.1,0.5-0.1,0.7,0.2,0.8c-1.6,4.4-2.6,7.8-3.3,10.1l-4.5,16
							c-0.1,0.5-0.5,0.6-1,0.4l-0.4-0.1c-0.6-0.2-0.8-0.5-0.6-0.9l2.9-10.2c0.1-0.2,0.2-0.3,0.5-0.2c0.1-0.2,0-0.4-0.3-0.5l0.9-1.6
							l3.8-13.6C679,147.5,679.3,147.3,679.8,147.5z"/>
						<path class="st21" d="M683.9,148.6l11.2,3.2c0.5,0.2,0.7,0.5,0.6,0.9c-0.1,0.3-0.6,0.5-1.5,0.7l-4.2-1.2l-0.1,0.3
							c-1.3,4.6-3.5,13.1-6.7,25.3l-0.9,0.1l-0.4-0.1c-0.5-0.2-0.8-0.5-0.6-0.9l2.3-8.2c1-3.5,2.4-9.2,4.4-17.1l-4.2-1.2
							c-0.4-0.1-0.7-0.6-1-1.4C683.1,148.6,683.4,148.5,683.9,148.6z"/>
						<path class="st21" d="M713.6,156.3c2.1,0.6,3,2.1,2.8,4.5l-1.2-0.4l-1.6-2.3l-0.8-0.2c-2-0.3-4.5,3.6-7.3,11.5
							c-1.9,8.3-2.1,12.6-0.5,13.1l1.7,0.5c0.2,0.1,1-0.3,2.6-1.1c0.5,0.2,0.7,0.5,0.6,0.9l-0.2,0.7c-1.3,1.1-2.8,1.4-4.3,1
							c-3.6-1-4.3-5.5-2-13.4l1.2-4.1c2.9-8,5.7-11.6,8.5-10.8L713.6,156.3z"/>
						<path class="st21" d="M721,159.1l0.8,0.2c-0.1,0.5-0.1,0.7,0.2,0.8c-1.6,4.4-2.7,7.8-3.3,10.1l-4.5,16c-0.1,0.5-0.5,0.6-1,0.4
							l-0.4-0.1c-0.6-0.2-0.8-0.5-0.6-0.9l2.9-10.2c0.1-0.2,0.2-0.3,0.5-0.2c0.1-0.2,0-0.4-0.3-0.5l0.9-1.6l3.8-13.6
							C720.1,159.1,720.5,159,721,159.1z"/>
						<path class="st21" d="M725,160.3l11.2,3.2c0.5,0.2,0.7,0.5,0.6,0.9c-0.1,0.3-0.6,0.5-1.5,0.7l-4.2-1.2l-0.1,0.3
							c-1.3,4.6-3.5,13.1-6.7,25.3l-0.9,0.1l-0.4-0.1c-0.5-0.2-0.8-0.5-0.6-0.9l2.3-8.2c1-3.5,2.4-9.2,4.4-17.1l-4.2-1.2
							c-0.4-0.1-0.7-0.6-1-1.4C724.2,160.3,724.6,160.1,725,160.3z"/>
						<path class="st21" d="M737.6,163.8c0.7,0.5,1.4,3.4,2,8.6l0.8,0.2c3.3-4.2,5.4-6.3,6.3-6.3c0.6,0.2,0.7,0.6,0.6,1.3
							c-4.8,5.4-7.4,8.5-7.6,9.2l-4,14.3c-0.1,0.5-0.5,0.6-1,0.4c-0.5-0.2-0.8-0.5-0.6-0.9l4-14.3c0.1-0.5-0.4-4.5-1.5-12.2l0.1-0.3
							H737.6z"/>
					</g>
				</g>
			</g>
			<g>
				<g>
					<g>
						<g>
							<path class="st4" d="M308.6,710.7c0,0-11.2,8.1-18.7-2.8c0,0-12.5,3.1-15.3-8.4c0,0-14.9-1.2-14.3-12.7
								c0,0-18.1-8.7-6.2-25.2c0,0-11.5-10.2,1.6-21.7c0,0-10-14.9,7.5-19.3c0,0,1.6-17.7,19-13.7c0,0,4.7-14.9,21.5-9.3
								c0,0,15.1-11.2,23.7,3.7c0,0,16.5-2.2,19.6,11.5c0,0,15.9,2.2,14.3,18c0,0,12.2,11.2,4.4,24.5c0,0,7.8,22.2-9.1,24.2
								c0,0,0.5,9.8-9.4,14.2c0,0-1.8,11.9-12.4,10c0,0-8.1,9-14,4L308.6,710.7z"/>
						</g>
					</g>
					<g>
						<path class="st5" d="M289.9,682c0,0,17.4,1.8,18.7,10.8c1.2,9-1.9,81.8-1.9,81.8h18.7c0,0-8.1-81.8-5.3-87.8
							c2.8-5.9,11.8-9.3,11.8-9.3s-10.3-0.3-13.7,2.8c-3.4,3.1-7.8,3.9-12.5,3.1C301.1,682.8,296.4,681.5,289.9,682z"/>
					</g>
				</g>
			</g>
		</g>
	</g>
	<g>
		<defs>
			<rect id="SVGID_3_" x="-11" y="31.6" width="1922" height="894"/>
		</defs>
		<clipPath id="SVGID_4_">
			<use xlink:href="#SVGID_3_"  style="overflow:visible;"/>
		</clipPath>
		<polygon class="st22" points="1010.2,348.8 1011.4,345.7 1009.4,343 1012.7,343.1 1014.7,340.5 1015.6,343.6 1018.8,344.7 
			1016,346.5 1016,349.8 1013.4,347.8 		"/>
	</g>
	<g>
		<defs>
			<rect id="SVGID_5_" x="-11" y="31.6" width="1922" height="894"/>
		</defs>
		<clipPath id="SVGID_6_">
			<use xlink:href="#SVGID_5_"  style="overflow:visible;"/>
		</clipPath>
		<polygon class="st23" points="1071.8,407.7 1072.9,404.6 1071,401.9 1074.3,402 1076.2,399.3 1077.2,402.5 1080.3,403.5 
			1077.6,405.4 1077.5,408.7 1074.9,406.7 		"/>
	</g>
</g>
</svg>
