<?xml version="1.0" encoding="utf-8"?>
<!-- Generator: Adobe Illustrator 22.0.1, SVG Export Plug-In . SVG Version: 6.00 Build 0)  -->
<svg version="1.1" id="Слой_1" xmlns="http://www.w3.org/2000/svg" xmlns:xlink="http://www.w3.org/1999/xlink" x="0px" y="0px"
	 viewBox="0 0 1900 877.3" style="enable-background:new 0 0 1900 877.3;" xml:space="preserve">
<style type="text/css">
	.st0{fill:#009C53;}
	.st1{fill:#303030;}
	.st2{fill:#635128;}
	.st3{fill:#6B8C46;}
	.st4{fill:#DBC95D;}
	.st5{fill:#856037;}
	.st6{fill:#B48B59;}
	.st7{fill:#FFFFFF;}
	.st8{fill:#CD5351;}
	.st9{fill:#F49045;}
	.st10{fill:#6D6D6C;}
	.st11{fill:#2CBAE5;}
	.st12{fill:#FFF2E7;}
	.st13{fill:#313130;}
	.st14{fill:#585857;}
	.st15{fill:#3E3E3D;}
	.st16{fill:#6F6F6E;}
	.st17{fill:#AEAEAE;}
</style>
<g>
	<rect x="-42.2" y="125.2" class="st0" width="1998.9" height="752.9"/>
	<g>
		<g>
			<g>
				<g>
					<polygon class="st1" points="239.2,226.7 239.6,233.6 312.7,231.6 312.3,224.7 					"/>
					<polygon class="st1" points="243.9,250.9 245.8,257.7 317.5,247.9 315.6,241.3 					"/>
					<polygon class="st1" points="256.1,275.9 261.1,281.9 324.7,257.3 319.7,251.3 					"/>
					<polygon class="st1" points="277.1,297.5 284.2,302.4 336.3,267.6 329.2,262.7 					"/>
					<polygon class="st1" points="304.3,314.2 312.3,318.4 356.5,278.9 348.5,274.8 					"/>
					<polygon class="st1" points="337.9,327.7 347.3,330.2 374.2,284 364.8,281.5 					"/>
					<polygon class="st1" points="374.6,334.7 384.6,335.7 395.1,286.7 385.1,285.7 					"/>
					<polygon class="st1" points="410.9,337.4 421,337.6 423.3,288.1 413.3,287.8 					"/>
					<polygon class="st1" points="446.7,337.4 456.8,337.3 455.6,287.8 445.5,287.8 					"/>
					<path class="st1" d="M297.2,294.7c50.8,35,103.9,30.5,168.9,30.9l-0.1,6.8c-68.2-0.4-122.7,3.9-176-32.9
						c-40.4-27.9-45.6-56.6-45.6-88.8c3.3,0,6.7,0.1,10,0C254.4,241.2,259.3,268.6,297.2,294.7z"/>
					<path class="st1" d="M466.5,298.3c-51.3-0.3-100.9,4.7-140.6-22.7c-27.1-18.7-31.1-41.2-31.2-64.7c3.3-0.1,6.7,0.1,10,0.2
						c0.2,21.9,3.9,42.9,28.3,59.8c36.8,25.3,85.8,20.3,133.5,20.6L466.5,298.3z"/>
				</g>
				<g>
					<polygon class="st1" points="238.2,211.9 238.1,205.1 311.2,204.7 311.3,211.5 					"/>
					<polygon class="st1" points="237.9,189.5 237.8,182.6 310.9,182.2 311,189 					"/>
					<polygon class="st1" points="237.6,166.9 237.5,160.1 310.6,159.7 310.7,166.5 					"/>
					<polygon class="st1" points="237.3,144.4 237.2,140.1 310.3,137.2 310.4,144 					"/>
					<path class="st1" d="M244.7,220.8l10-0.1l-1-95.5c0,0-6.5,0-9.8,0L244.7,220.8z"/>
					<path class="st1" d="M294.1,125.2l0.9,95.3l10-0.1l-1.1-95.2C300.6,125.3,294.1,125.2,294.1,125.2z"/>
				</g>
			</g>
		</g>
		<g>
			<g>
				<g>
					<rect x="508.6" y="560.1" class="st1" width="10.1" height="49.6"/>
					<path class="st1" d="M559.2,564.5h-63.8v6.8h63.7C559.1,569,559.2,566.7,559.2,564.5z"/>
					<path class="st1" d="M561.1,598.6h-65.6v6.8h65.2C561,603.1,561.2,600.8,561.1,598.6z"/>
				</g>
				<g>
					<polygon class="st1" points="271,670.1 271.4,663.2 344.5,665.2 344.1,672.1 					"/>
					<polygon class="st1" points="275.6,645.9 277.6,639.1 349.3,648.9 347.3,655.5 					"/>
					<polygon class="st1" points="287.9,620.9 292.8,614.9 356.4,639.5 351.5,645.5 					"/>
					<polygon class="st1" points="308.8,599.3 316,594.4 368,629.2 360.9,634.1 					"/>
					<polygon class="st1" points="336.1,582.6 344.1,578.4 388.3,617.9 380.3,622 					"/>
					<polygon class="st1" points="369.7,569.1 379,566.7 406,612.8 396.6,615.3 					"/>
					<polygon class="st1" points="406.3,562.1 416.3,561.1 426.9,610.1 416.9,611.1 					"/>
					<polygon class="st1" points="442.7,559.4 452.8,559.2 455.1,608.7 445,609 					"/>
					<polygon class="st1" points="478.5,559.4 488.6,559.5 487.3,609.1 477.2,609 					"/>
					<path class="st1" d="M329,602.1c50.8-35,103.9-30.5,168.9-30.9l-0.1-6.8c-68.2,0.4-122.7-3.9-176,32.9
						c-33.8,23.3-43.4,47.2-45.6,73.2c-0.4,5.1,0,10.2,0,15.5c3.3,0,6.7-0.1,10,0C286.1,655.5,291,628.3,329,602.1z"/>
					<path class="st1" d="M498.2,598.5c-51.3,0.3-100.9-4.7-140.6,22.7c-20.7,14.3-28.9,30.9-31.2,48.4c-0.7,5.4,0.3,10.9,0.3,16.5
						c3.3,0.1,6.7,0.1,10,0c0.2-21.9,3.6-43.2,28-60.1c36.8-25.3,85.8-20.3,133.5-20.6L498.2,598.5z"/>
				</g>
				<g>
					<polygon class="st1" points="271.1,757.8 271,750.9 344.1,750.5 344.2,757.3 					"/>
					<polygon class="st1" points="270.8,735.3 270.7,728.5 343.8,728 343.9,734.9 					"/>
					<polygon class="st1" points="270.5,712.7 270.4,706 343.5,705.5 343.6,712.3 					"/>
					<polygon class="st1" points="270.2,690.3 270.1,683.4 343.2,683 343.3,689.8 					"/>
					<path class="st1" d="M277.6,766.6l10-0.1l-1.2-92.5c-3.3,0-6.7,0.1-10,0.1L277.6,766.6z"/>
					<path class="st1" d="M326.7,674.8l1.2,91.5l10-0.1l-1.2-91.5C333.4,674.8,330.1,674.8,326.7,674.8z"/>
				</g>
				<g>
					<polygon class="st1" points="272.2,845.7 272.1,838.8 345.3,838.4 345.4,845.2 					"/>
					<polygon class="st1" points="271.9,823.2 271.8,816.3 345,815.9 345.1,822.7 					"/>
					<polygon class="st1" points="271.6,800.6 271.5,793.9 344.7,793.4 344.8,800.2 					"/>
					<polygon class="st1" points="271.3,778.1 271.2,771.3 344.4,770.9 344.5,777.7 					"/>
					<path class="st1" d="M278.7,854.5l10-0.1l-1.2-92.5c-3.3,0-6.7,0.1-10,0.1L278.7,854.5z"/>
					<path class="st1" d="M327.9,762.7l1.2,91.5l10-0.1l-1.2-91.5C334.6,762.7,331.2,762.7,327.9,762.7z"/>
				</g>
				<g>
					<polygon class="st1" points="272.4,863 272.3,856.2 345.5,855.7 345.6,862.6 					"/>
					<path class="st1" d="M279.1,878.7h9.8l-0.3-31.9c-3.3,0-6.7,0.1-10,0.1L279.1,878.7z"/>
					<path class="st1" d="M329,847.6l0.5,31.2h9.8l-0.3-31.2C335.6,847.5,332.3,847.6,329,847.6z"/>
				</g>
			</g>
			<g>
				<g>
					<rect x="511.8" y="287.2" class="st1" width="10.1" height="49.6"/>
					<rect x="478.6" y="287.2" class="st1" width="10.1" height="49.6"/>
					<rect x="445.5" y="287.2" class="st1" width="10" height="49.6"/>
					<rect x="412.2" y="287.2" class="st1" width="10.1" height="49.6"/>
					<path class="st1" d="M535,291.5v6.8H398.5c0-2.3,0-4.5,0-6.8H535z"/>
					<path class="st1" d="M400,325.7h135v6.8H400C400,330.2,400,327.9,400,325.7z"/>
				</g>
				<g>
					<polygon class="st1" points="759.5,397.2 759.1,390.3 686,392.3 686.4,399.1 					"/>
					<polygon class="st1" points="754.9,372.9 752.9,366.2 681.2,376 683.1,382.6 					"/>
					<polygon class="st1" points="742.6,347.9 737.6,342 674,366.6 679,372.5 					"/>
					<polygon class="st1" points="721.6,326.4 714.5,321.5 662.4,356.3 669.6,361.2 					"/>
					<polygon class="st1" points="694.4,309.6 686.4,305.5 642.2,345 650.2,349.1 					"/>
					<polygon class="st1" points="660.8,296.2 651.4,293.7 624.5,339.9 633.9,342.3 					"/>
					<polygon class="st1" points="624.1,289.2 614.2,288.2 603.6,337.2 613.6,338.2 					"/>
					<polygon class="st1" points="587.8,286.5 577.7,286.2 575.4,335.8 585.5,336.1 					"/>
					<polygon class="st1" points="552,286.5 541.9,286.6 543.2,336.1 553.3,336.1 					"/>
					<path class="st1" d="M701.5,329.2c-50.8-35-103.9-30.5-168.9-30.9l0.1-6.8c68.2,0.4,122.7-3.9,176,32.9
						c33.8,23.3,43.4,47.2,45.6,73.2c0.4,5.1,0,10.2,0,15.5c-3.3,0-6.7-0.1-10,0C744.4,382.6,739.5,355.3,701.5,329.2z"/>
					<path class="st1" d="M532.3,325.5c51.3,0.3,100.9-4.7,140.6,22.7c20.7,14.3,28.9,30.9,31.2,48.4c0.7,5.4-0.3,10.9-0.3,16.5
						c-3.3,0.1-6.7,0.1-10,0c-0.2-21.9-3.6-43.2-28-60.1c-36.8-25.3-85.8-20.3-133.5-20.6L532.3,325.5z"/>
				</g>
				<g>
					<polygon class="st1" points="758.4,499.6 758,506.5 684.9,504.5 685.3,497.7 					"/>
					<polygon class="st1" points="753.7,523.9 751.8,530.6 680,520.8 682,514.2 					"/>
					<polygon class="st1" points="741.5,548.9 736.5,554.8 672.9,530.2 677.9,524.3 					"/>
					<polygon class="st1" points="720.5,570.4 713.4,575.3 661.3,540.5 668.4,535.6 					"/>
					<polygon class="st1" points="693.3,587.2 685.3,591.3 641.1,551.8 649.1,547.7 					"/>
					<polygon class="st1" points="659.7,600.6 650.3,603.1 623.4,556.9 632.8,554.5 					"/>
					<polygon class="st1" points="623,607.6 613,608.6 602.5,559.6 612.4,558.6 					"/>
					<polygon class="st1" points="586.6,610.3 576.6,610.6 574.2,561 584.3,560.7 					"/>
					<polygon class="st1" points="550.8,610.3 540.8,610.2 542,560.7 552.1,560.7 					"/>
					<path class="st1" d="M700.4,567.7c-50.8,35-103.9,30.5-168.9,30.9l0.1,6.8c68.2-0.4,122.7,3.9,176-32.9
						c40.4-27.9,45.6-56.6,45.6-88.8c-3.3,0-6.7,0.1-10,0C743.2,514.1,738.3,541.5,700.4,567.7z"/>
					<path class="st1" d="M531.1,571.3c51.3-0.3,100.9,4.7,140.6-22.7c27.1-18.7,31.1-41.2,31.2-64.7c-3.3-0.1-6.7,0.1-10,0.2
						c-0.2,21.9-3.9,42.9-28.3,59.8c-36.8,25.3-85.8,20.3-133.5,20.6V571.3z"/>
				</g>
				<g>
					<polygon class="st1" points="759.4,484.9 759.5,478 686.4,477.6 686.3,484.4 					"/>
					<polygon class="st1" points="759.7,462.4 759.8,455.5 686.7,455.1 686.6,461.9 					"/>
					<polygon class="st1" points="760,439.8 760.1,433.1 686.9,432.6 686.9,439.4 					"/>
					<polygon class="st1" points="760.3,417.3 760.4,410.5 687.2,410.1 687.2,416.9 					"/>
					<path class="st1" d="M752.9,493.7l-10-0.1l1.2-92.5c3.3,0,6.7,0.1,10,0.1L752.9,493.7z"/>
					<path class="st1" d="M703.7,401.9l-1.2,91.5l-10-0.1l1.2-91.5C697.1,401.9,700.4,401.9,703.7,401.9z"/>
				</g>
			</g>
		</g>
	</g>
	<g>
		<g>
			<g>
				<g>
					<polygon class="st2" points="682.2,158.4 679.6,158.8 677.1,158.4 672.7,223.2 679.6,223.2 686.6,223.2 					"/>
				</g>
				<g>
					<polygon class="st3" points="712.6,173.4 716.2,173.4 707.9,154.3 712.6,154.3 705.8,139.2 709.9,139.2 700.5,124.6 
						706.3,124.6 696.9,105.9 700.5,105.9 693.2,89.4 698.5,89.4 690.1,75.2 695.8,75.2 685.9,61.1 690.6,61.1 679.6,37.1 
						668.7,61.1 673.4,61.1 663.4,75.2 669.2,75.2 660.8,89.4 666,89.4 658.7,105.9 662.4,105.9 653,124.6 658.7,124.6 649.3,139.2 
						653.5,139.2 646.7,154.3 651.4,154.3 643.1,173.4 646.7,173.4 637.8,190.8 679.6,190.8 721.4,190.8 					"/>
				</g>
			</g>
		</g>
		<g>
			<g>
				<g>
					<polygon class="st2" points="612.9,169 609.8,169.4 606.7,169 601.2,248.3 609.8,248.3 618.3,248.3 					"/>
				</g>
				<g>
					<polygon class="st3" points="650.1,187.4 654.6,187.4 644.3,164 650.1,164 641.8,145.5 646.9,145.5 635.4,127.6 642.4,127.6 
						630.9,104.6 635.4,104.6 626.4,84.4 632.8,84.4 622.6,67 629.6,67 617.4,49.8 623.2,49.8 609.8,20.4 596.3,49.8 602.1,49.8 
						589.9,67 597,67 586.7,84.4 593.1,84.4 584.2,104.6 588.6,104.6 577.1,127.6 584.2,127.6 572.6,145.5 577.8,145.5 569.4,164 
						575.2,164 564.9,187.4 569.4,187.4 558.5,208.6 609.8,208.6 661,208.6 					"/>
				</g>
			</g>
		</g>
	</g>
	<g>
		<g>
			<g>
				<g>
					<path class="st4" d="M168.6,501.3c0,0-25-6.1-35.6-37.7c-10.6-31.7-12.2-110.8,0-142.5s40.5-55.9,57.4-34.4
						c16.9,21.6,27.1,120.9,15.5,163.3C194.2,492.5,177.3,499.2,168.6,501.3z"/>
				</g>
			</g>
			<g>
				<path class="st2" d="M157.3,595.2c0,0,3.2-115.5,2.3-119.4s-12.3-21.6-12.3-21.6s14.6,16.1,16,9.4s4.1-57.1,4.1-57.1
					s0.9,51,4.6,50.5c3.6-0.6,18.7-20.5,18.7-20.5s-17.3,26.6-17.3,36.6s1.4,122.2,1.4,122.2L157.3,595.2L157.3,595.2z"/>
			</g>
		</g>
	</g>
	<g>
		<g>
			<g>
				<polygon class="st2" points="726.1,758.7 723.6,759 721.1,758.7 716.6,823.4 723.6,823.4 730.6,823.4 				"/>
			</g>
			<g>
				<polygon class="st3" points="756.5,773.7 760.2,773.7 751.8,754.6 756.5,754.6 749.7,739.5 753.9,739.5 744.5,724.9 
					750.3,724.9 740.9,706.2 744.5,706.2 737.2,689.7 742.4,689.7 734.1,675.4 739.8,675.4 729.9,661.4 734.6,661.4 723.6,637.4 
					712.6,661.4 717.3,661.4 707.4,675.4 713.2,675.4 704.8,689.7 710,689.7 702.7,706.2 706.4,706.2 697,724.9 702.7,724.9 
					693.3,739.5 697.5,739.5 690.7,754.6 695.4,754.6 687,773.7 690.7,773.7 681.8,791.1 723.6,791.1 765.4,791.1 				"/>
			</g>
		</g>
	</g>
	<g>
		<g>
			<g>
				<path class="st5" d="M843.3,367.8h30.3c3.2,0,5.8-2.6,5.8-5.8V152.1c0-3.2-2.6-5.8-5.8-5.8h-30.3c-3.2,0-5.8,2.6-5.8,5.8v209.7
					C837.5,365.1,840.1,367.8,843.3,367.8z"/>
				<polygon class="st6" points="999.9,244.5 902.9,275.4 907.5,256.7 747.1,208.2 767,140.5 927.4,188.9 934.1,166.6 				"/>
			</g>
		</g>
		<g>
			<path class="st7" d="M805.3,156.9l1.6,0.5c1.8,0.5,1.9,4.6,0.2,12.1c-2.6,6.9-5.1,9.9-7.7,9.1c-2.4-0.8-2.7-4.8-0.9-12l0.3-0.8
				C801.3,159.3,803.5,156.4,805.3,156.9z M805.5,158.2c-2.2,1.2-3.9,3.6-5,7.3l-0.8,2.6c-1.3,4.8-1.3,7.9,0,9.1l0.7,0.2
				c2.2-1.8,3.9-4.6,5-8.3l0.4-1.3C807.1,163.3,807.1,160,805.5,158.2z"/>
			<path class="st7" d="M819.4,160.7c1.3,0.4,2,1.5,1.8,3.1c-0.1,0.4-0.4,0.4-0.8,0.3l-1.4-2.2l-0.7-0.2c-1.4-0.2-3.1,2.3-5.2,7.9
				l-0.4,1.3c-1.9,6.3-2,9.7-0.3,10.2c0.2,0,1.1-0.2,2.6-0.6l0.3,0.1c0.4,0.2,0.6,0.5,0.4,0.7c-1,1-2.2,1.3-3.4,0.9l-0.3-0.1
				c-2.8-0.9-3.1-4.6-1.1-11.3l0.5-1.5C813.5,162.7,816.2,159.7,819.4,160.7z"/>
			<path class="st7" d="M822.4,162.2l8.3,2.5c0.4,0.2,0.6,0.5,0.4,0.7l-0.1,0.3c-0.1,0.4-0.4,0.4-0.8,0.3l-3.6-1.1
				c-1.2,4.4-2.1,8-3,10.6l-2.9,9.5l-1.2-0.4c0.6-2.7,1.1-4.7,1.4-5.9l4.3-14.2l-3.6-1.1c-0.5-0.1-0.6-0.4-0.4-0.7l0.1-0.3
				C821.8,162.2,822,162,822.4,162.2z"/>
			<path class="st7" d="M836.8,166.6c0.9,0.3,0.7,4.1-0.6,11.3c0.3,0.1-0.1,3.7-1.3,10.8l-0.7,0c-0.8-0.2-0.7-2.8,0.4-7.9l-2.9-0.9
				c-0.4-0.1-1.7,2.2-4.2,6.7l-0.7-0.2c-0.5-0.1-0.6-0.4-0.4-0.7c5.9-11.7,9.3-18.1,10.2-19.3L836.8,166.6z M835.2,171.6
				c-0.3,0.9-1.5,3.3-3.6,7.3l2.9,0.9c0.4-4.3,0.8-7,1.1-8L835.2,171.6z"/>
			<path class="st7" d="M846.1,169.5c0.4,0.2,0.6,0.5,0.4,0.7l-2.5,8.4l3.2,1l2.5-8.4c0.2-0.4,0.4-0.4,0.8-0.3l0.8,0.8
				c-1.1,2.8-1.9,5-2.4,6.4l-4.2,13.6c-0.1,0.4-0.4,0.4-0.8,0.3l-0.3-0.1c-0.4-0.1-0.5-0.3-0.4-0.7l2-6.6c0.3-0.9,0.8-2.2,1.5-3.8
				l-3.2-1l-3.2,10.5c-0.1,0.4-0.4,0.4-0.8,0.3l-0.3-0.1c-0.5-0.1-0.6-0.4-0.4-0.7l3.4-11c0-0.2,0.2-0.3,0.4-0.2
				c0-0.2,0-0.3-0.2-0.4l0.7-1.3l2.3-7.4C845.5,169.5,845.8,169.4,846.1,169.5z"/>
			<path class="st7" d="M859.5,173.6l1.6,0.5c1.8,0.5,1.9,4.6,0.2,12.1c-2.6,6.9-5.1,9.9-7.7,9.1c-2.4-0.8-2.7-4.8-0.9-12l0.3-0.8
				C855.6,176.1,857.7,173.1,859.5,173.6z M859.8,174.8c-2.2,1.2-3.9,3.6-5,7.3l-0.8,2.6c-1.3,4.8-1.3,7.9,0,9.1l0.7,0.2
				c2.2-1.8,3.9-4.6,5-8.3l0.4-1.3C861.4,180,861.4,176.7,859.8,174.8z"/>
			<path class="st7" d="M870.4,176.9c2.6,0.8,3.7,2.9,3.7,6.5l-0.5,1.5c-0.4,1-1.8,2.1-4.5,3.2c1.9,1.5,2.5,3.2,1.9,5.2l-0.5,1.5
				c-0.6,2.1-3,3-7.1,2.7c-0.5-0.1-0.6-0.4-0.4-0.7l6-19.6C869,176.9,869.5,176.7,870.4,176.9z M870.3,178.4l-2.7,8.6
				c2.7-0.5,4.4-1.5,4.9-3.3C872.6,180.5,871.9,178.8,870.3,178.4z M867.2,188.3l-2.5,8.1l0.3,0.1c2.4-0.1,3.9-1.2,4.5-3.2
				C870.1,191.9,869.3,190.1,867.2,188.3z"/>
			<path class="st7" d="M880.9,179.9l0.3,0.1c0.4,0.2,0.6,0.5,0.4,0.7l-1.9,6.3l0.3,0.1c3.5-3.9,5.5-5.8,6-5.7l0.3,0.1
				c0.5,0.1,0.6,0.5,0.4,1c-4,4-6.7,6.4-7.8,7.4c1.2,8.1,1.9,12.4,1.7,12.8l-0.7,0.2l-0.7-0.2c-0.8-5.5-1.2-8.5-1.2-8.9l-0.3-0.1
				c-1.6,4.5-2.5,6.9-2.6,7.5l-0.7,0c-0.5-0.1-0.6-0.4-0.4-0.7l6.2-20.2C880.2,179.9,880.5,179.8,880.9,179.9z"/>
			<path class="st7" d="M893.3,184c0.9,0.3,0.7,4.1-0.6,11.3c0.3,0.1-0.1,3.7-1.3,10.8l-0.7,0c-0.8-0.2-0.7-2.8,0.4-7.9l-2.9-0.9
				c-0.4-0.1-1.7,2.2-4.2,6.7l-0.7-0.2c-0.5-0.1-0.6-0.4-0.4-0.7c5.9-11.7,9.3-18.1,10.2-19.3L893.3,184z M891.8,188.9
				c-0.3,0.9-1.5,3.3-3.6,7.3l2.9,0.9c0.4-4.3,0.8-7,1.1-8L891.8,188.9z"/>
			<path class="st7" d="M900.1,193.2l0.9,0.3c0.4,0.2,0.5,0.4,0.4,0.7l-0.1,0.6c-0.1,0.5-0.7,0.7-1.5,0.4c-0.3-0.3-0.7-0.5-0.9-0.5
				l0.4-1C899.5,193.3,899.8,193.1,900.1,193.2z M897.8,202l0.3,0.1c0.3,0.1,0.5,0.4,0.8,1.1l-0.1,0.5c-0.1,0.4-0.4,0.4-0.8,0.3
				l-0.9-0.3c-0.5-0.1-0.6-0.4-0.4-0.7l0.1-0.5C896.7,202.3,897.1,202,897.8,202z"/>
			<path class="st7" d="M783.3,183.3c1,0.4,2,1.5,3,3.5l-0.1,0.3c-0.1,0.5-0.5,0.6-1,0.5l-0.4-0.1c-0.7-1.4-1.7-2.4-2.7-2.7
				c-1.4-0.1-2.4,0.6-2.9,2.1c-0.4,1.4,0.4,5.6,2.4,12.5c-0.3,3-0.5,4.7-0.6,5c-1.8,4.1-4,5.7-6.9,4.9l-0.9-0.3
				c-0.4-0.1-0.9-0.9-1.5-2.3l0.5-1.7l1.6,0.5c-0.4,1.1-0.2,1.8,0.4,1.9l1.2,0.4c1.1,0.4,2.5-1.3,3.7-4.8c0.8-2.7,0.1-6.9-2.1-12.4
				c-0.4-1.9-0.3-3.6,0.1-4.8C778.7,183.3,780.7,182.5,783.3,183.3z"/>
			<path class="st7" d="M797.8,186.6c2.1,0.6,3,2.2,2.7,4.6l-1.2-0.4l-1.6-2.3l-0.9-0.3c-2-0.3-4.5,3.4-7.6,11.4
				c-2.1,8.2-2.4,12.6-0.9,13.1l1.6,0.5c0.2,0,1-0.3,2.6-1c0.6,0.2,0.7,0.6,0.6,0.9l-0.2,0.7c-1.4,1-2.8,1.4-4.3,0.9
				c-3.6-1.1-4.1-5.6-1.7-13.5l1.3-4c3.1-7.9,6-11.4,8.7-10.7L797.8,186.6z"/>
			<path class="st7" d="M805.1,189.6l0.9,0.3c-0.1,0.5-0.1,0.7,0.2,0.8c-1.7,4.4-2.8,7.8-3.5,10l-4.8,15.8c-0.1,0.5-0.5,0.6-1,0.5
				l-0.4-0.1c-0.6-0.1-0.8-0.5-0.6-1l3.2-10.1c0-0.2,0.3-0.2,0.5-0.2c0-0.2,0-0.4-0.3-0.5l0.9-1.5l4.2-13.5
				C804.3,189.6,804.6,189.4,805.1,189.6z"/>
			<path class="st7" d="M813,192l6.6,2l-0.4,1c-0.1,0.5-0.5,0.6-1,0.5l-4.6-1.4l-1.7,5.4l-1.7,3.9l0.7,0.6l5,1.5l-0.4,1.3l-2.2-0.3
				l-3.7-1.1l-3.8,12.5l3.7,1.1l1.9,1l-0.4,1.3l-7-2.2l-0.7-0.6c2.1-5.9,3.7-10.6,4.7-14.1l3.7-12.2C812.2,192,812.5,191.8,813,192z
				"/>
			<path class="st7" d="M823.4,195.6l1.2,0.4l-1.1,19.6l0.4,0.1l5.6-18.2l1.2,0.4c0.6,0.2,0.7,0.6,0.6,1l-7.9,25.7
				c-0.1,0.5-0.5,0.6-1,0.5l-1.2-0.4l1-19.6l-0.4-0.1l-5.6,18.2l-1.2-0.4c-0.6-0.1-0.8-0.5-0.6-1l7.9-25.7
				C822.6,195.6,823,195.4,823.4,195.6z"/>
			<path class="st7" d="M843.1,200.5c2.1,0.6,3,2.2,2.7,4.6l-1.2-0.4l-1.6-2.3l-0.9-0.3c-2-0.3-4.5,3.4-7.6,11.4
				c-2.1,8.2-2.4,12.6-0.9,13.1l1.6,0.5c0.2,0,1-0.3,2.6-1c0.6,0.2,0.7,0.6,0.6,0.9l-0.2,0.7c-1.4,1-2.8,1.4-4.3,0.9
				c-3.6-1.1-4.1-5.6-1.7-13.5l1.3-4c3.1-7.9,6-11.4,8.7-10.7L843.1,200.5z"/>
			<path class="st7" d="M850.4,203.5l6.6,2l-0.4,1c-0.1,0.5-0.5,0.6-1,0.5l-4.6-1.4l-1.7,5.4l-1.7,3.9l0.7,0.6l5,1.5l-0.4,1.3
				l-2.2-0.3l-3.7-1.1l-3.8,12.5l3.7,1.1l1.9,1l-0.4,1.3l-7-2.2l-0.7-0.6c2.1-5.9,3.7-10.6,4.7-14.1l3.7-12.2
				C849.6,203.5,850,203.3,850.4,203.5z"/>
			<path class="st7" d="M875.5,210.4c2.1,0.6,3,2.2,2.7,4.6l-1.2-0.4l-1.6-2.3l-0.9-0.3c-2-0.3-4.5,3.4-7.6,11.4
				c-2.1,8.2-2.4,12.6-0.9,13.1l1.6,0.5c0.2,0,1-0.3,2.6-1c0.6,0.2,0.7,0.6,0.6,0.9l-0.2,0.7c-1.4,1-2.8,1.4-4.3,0.9
				c-3.6-1.1-4.1-5.6-1.7-13.5l1.3-4c3.1-7.9,6-11.4,8.7-10.7L875.5,210.4z"/>
			<path class="st7" d="M882.8,213.4l0.9,0.3c-0.1,0.5-0.1,0.7,0.2,0.8c-1.7,4.4-2.8,7.8-3.5,10l-4.8,15.8c-0.1,0.5-0.5,0.6-1,0.5
				l-0.4-0.1c-0.6-0.1-0.8-0.5-0.6-1l3.2-10.1c0-0.2,0.3-0.2,0.5-0.2c0-0.2,0-0.4-0.3-0.5l0.9-1.5l4.2-13.5
				C882,213.4,882.3,213.3,882.8,213.4z"/>
			<path class="st7" d="M886.8,214.7l11.1,3.4c0.6,0.2,0.7,0.6,0.6,1c-0.1,0.3-0.6,0.6-1.6,0.6l-4.1-1.3l-0.1,0.3
				c-1.4,4.6-3.8,13-7.3,25.1l-0.9,0.1l-0.4-0.1c-0.6-0.1-0.7-0.5-0.6-1l2.5-8.1c1-3.5,2.6-9.1,4.8-17l-4.1-1.3
				c-0.4-0.1-0.7-0.6-0.9-1.3C886,214.6,886.4,214.5,886.8,214.7z"/>
			<path class="st7" d="M899.3,218.5c0.7,0.5,1.3,3.4,1.8,8.7l0.9,0.3c3.4-4.1,5.5-6.2,6.4-6.2c0.6,0.1,0.7,0.6,0.5,1.3
				c-5,5.3-7.5,8.3-7.7,9l-4.3,14.2c-0.1,0.5-0.5,0.6-1,0.5c-0.6-0.1-0.7-0.5-0.6-1l4.3-14.2c0.1-0.5-0.2-4.6-1.2-12.2l0.1-0.4
				L899.3,218.5z"/>
		</g>
	</g>
	<g>
		<g>
			<polygon class="st8" points="607.5,294 618,275.5 607.5,257 602.2,262.3 602.2,288.7 			"/>
			<g>
				<polygon class="st9" points="584.5,254.4 588.7,230.6 588.7,225.4 563.9,225.4 563.9,230.6 568.1,254.4 				"/>
				<path class="st8" d="M591.6,262.3v-7.5c0-1.7-1.4-3-3-3h-24.5c-1.7,0-3,1.4-3,3v7.5H591.6z"/>
				<polygon class="st10" points="591.3,230.6 585.6,214.8 567.1,214.8 561.3,230.6 				"/>
			</g>
			<polygon class="st11" points="480.8,235.9 480.8,278.2 488.7,286.1 523,286.1 523,235.9 			"/>
			<polygon class="st11" points="607.5,278.2 607.5,257 501.9,257 501.9,286.1 599.5,286.1 			"/>
			<g>
				<path class="st12" d="M508.1,246.5h-13.7c-1.7,0-3,1.4-3,3v15c0,1.7,1.4,3,3,3h13.7c1.7,0,3-1.4,3-3v-15
					C511.1,247.8,509.8,246.5,508.1,246.5z"/>
			</g>
			<rect x="478.1" y="235.9" class="st8" width="47.5" height="5.3"/>
			<path class="st13" d="M486.1,286.1v18.5c5.8,0,10.6,4.7,10.6,10.6h105.6v-29H486.1V286.1z"/>
			<rect x="480.8" y="278.2" class="st14" width="42.2" height="26.4"/>
			<rect x="501.9" y="278.2" class="st14" width="105.6" height="15.8"/>
			<rect x="596.9" y="299.3" class="st13" width="10.6" height="15.8"/>
			<polygon class="st8" points="628.6,320.4 607.5,299.3 607.5,325.1 628.6,325.1 			"/>
			<g>
				<g>
					<path class="st15" d="M591.6,330.9L591.6,330.9c-5.8,0-10.6-4.7-10.6-10.6c0-5.8,4.7-10.6,10.6-10.6c5.8,0,10.6,4.7,10.6,10.6
						C602.2,326.2,597.5,330.9,591.6,330.9"/>
					<path class="st14" d="M591.6,313c4.1,0,7.4,3.3,7.4,7.4s-3.3,7.4-7.4,7.4c-4.1,0-7.4-3.3-7.4-7.4
						C584.2,316.3,587.6,313,591.6,313"/>
					<path class="st15" d="M591.6,318.3c1.2,0,2.1,0.9,2.1,2.1s-0.9,2.1-2.1,2.1c-1.2,0-2.1-0.9-2.1-2.1
						C589.5,319.2,590.5,318.3,591.6,318.3"/>
				</g>
				<g>
					<path class="st15" d="M567.3,330.9L567.3,330.9c-5.8,0-10.6-4.7-10.6-10.6c0-5.8,4.7-10.6,10.6-10.6c5.8,0,10.6,4.7,10.6,10.6
						C577.9,326.2,573.2,330.9,567.3,330.9"/>
					<path class="st14" d="M567.3,313c4.1,0,7.4,3.3,7.4,7.4s-3.3,7.4-7.4,7.4c-4.1,0-7.4-3.3-7.4-7.4
						C560,316.3,563.3,313,567.3,313"/>
					<path class="st15" d="M567.3,318.3c1.2,0,2.1,0.9,2.1,2.1s-0.9,2.1-2.1,2.1c-1.2,0-2.1-0.9-2.1-2.1
						C565.2,319.2,566.2,318.3,567.3,318.3"/>
				</g>
				<g>
					<path class="st15" d="M523,330.9L523,330.9c-11.7,0-21.1-9.5-21.1-21.1c0-11.7,9.5-21.1,21.1-21.1c11.7,0,21.1,9.5,21.1,21.1
						C544.1,321.5,534.7,330.9,523,330.9"/>
					<g>
						<path class="st14" d="M523,292.9c9.3,0,16.9,7.6,16.9,16.9s-7.6,16.9-16.9,16.9c-9.3,0-16.9-7.6-16.9-16.9
							S513.7,292.9,523,292.9"/>
					</g>
					<path class="st15" d="M523,307.7c1.2,0,2.1,0.9,2.1,2.1s-0.9,2.1-2.1,2.1c-1.2,0-2.1-0.9-2.1-2.1
						C520.9,308.7,521.8,307.7,523,307.7"/>
				</g>
				<g>
					<g>
						<polygon class="st16" points="524.1,321.7 522,316.9 556.2,301.9 579.5,301.9 579.5,307.2 557.3,307.2 						"/>
					</g>
					<g>
						<path class="st8" d="M523,315.1c-2.3,0-4.2,1.9-4.2,4.2c0,2.3,1.9,4.2,4.2,4.2s4.2-1.9,4.2-4.2S525.3,315.1,523,315.1
							L523,315.1z"/>
						<path class="st15" d="M523,317.2c1.2,0,2.1,0.9,2.1,2.1s-0.9,2.1-2.1,2.1c-1.2,0-2.1-0.9-2.1-2.1
							C520.9,318.2,521.8,317.2,523,317.2"/>
					</g>
					<g>
						<path class="st8" d="M556.8,300.3c-2.3,0-4.2,1.9-4.2,4.2c0,2.3,1.9,4.2,4.2,4.2s4.2-1.9,4.2-4.2
							C561,302.2,559.1,300.3,556.8,300.3L556.8,300.3z"/>
						<path class="st15" d="M556.8,302.4c1.2,0,2.1,0.9,2.1,2.1s-0.9,2.1-2.1,2.1c-1.2,0-2.1-0.9-2.1-2.1
							C554.7,303.4,555.6,302.4,556.8,302.4"/>
					</g>
					<path class="st17" d="M567.3,299.7v9.8c0,1.7,1.4,3,3,3h18.2c1.7,0,3-1.4,3-3v-9.8c0-1.7-1.4-3-3-3h-18.2
						C568.7,296.6,567.3,298,567.3,299.7z"/>
				</g>
			</g>
		</g>
		<g>
			<rect x="469.6" y="309" class="st15" width="28.4" height="5"/>
			<g>
				<rect x="369.6" y="296.9" class="st10" width="100.5" height="20.1"/>
				<g>
					<path class="st15" d="M384,332.1L384,332.1c5.6,0,10.1-4.5,10.1-10.1s-4.5-10.1-10.1-10.1s-10,4.6-10,10.1
						C374,327.6,378.5,332.1,384,332.1"/>
					<path class="st14" d="M384,315c3.9,0,7,3.2,7,7c0,3.9-3.2,7-7,7c-3.9,0-7-3.2-7-7C377,318.1,380.2,315,384,315"/>
					<path class="st15" d="M384,320c1.1,0,2,0.9,2,2s-0.9,2-2,2s-2-0.9-2-2S382.9,320,384,320"/>
				</g>
				<g>
					<path class="st15" d="M455.6,332.1L455.6,332.1c5.6,0,10-4.5,10-10.1s-4.5-10.1-10-10.1c-5.6,0-10.1,4.5-10.1,10.1
						C445.6,327.6,450.1,332.1,455.6,332.1"/>
					<path class="st14" d="M455.6,315c3.9,0,7,3.2,7,7c0,3.9-3.2,7-7,7c-3.9,0-7-3.2-7-7C448.6,318.1,451.8,315,455.6,315"/>
					<path class="st15" d="M455.6,320c1.1,0,2,0.9,2,2s-0.9,2-2,2s-2-0.9-2-2S454.5,320,455.6,320"/>
				</g>
				<polygon class="st9" points="364.6,281.8 364.6,241.6 475.1,241.6 475.1,281.8 462.5,294.4 377.1,294.4 				"/>
				<rect x="362" y="241.6" class="st10" width="115.6" height="5"/>
				<g>
					<path class="st12" d="M401.4,251.7h13.1c1.6,0,2.9,1.3,2.9,2.9v14.3c0,1.6-1.3,2.9-2.9,2.9h-13.1c-1.6,0-2.9-1.3-2.9-2.9v-14.3
						C398.5,253,399.8,251.7,401.4,251.7z"/>
					<path class="st12" d="M438.3,271.8h-13.1c-1.6,0-2.9-1.3-2.9-2.9v-14.3c0-1.6,1.3-2.9,2.9-2.9h13.1c1.6,0,2.9,1.3,2.9,2.9v14.3
						C441.2,270.5,439.9,271.8,438.3,271.8z"/>
					<path class="st12" d="M393.5,254.6v14.3c0,1.6-1.3,2.9-2.9,2.9h-13.1c-1.6,0-2.9-1.3-2.9-2.9v-14.3c0-1.6,1.3-2.9,2.9-2.9h13.1
						C392.2,251.7,393.5,253,393.5,254.6z"/>
					<path class="st12" d="M449.1,251.7h13.1c1.6,0,2.9,1.3,2.9,2.9v14.3c0,1.6-1.3,2.9-2.9,2.9h-13.1c-1.6,0-2.9-1.3-2.9-2.9v-14.3
						C446.2,253,447.5,251.7,449.1,251.7z"/>
				</g>
				<rect x="364.6" y="281.8" class="st11" width="110.6" height="25.1"/>
			</g>
		</g>
	</g>
</g>
</svg>
