<?xml version="1.0" encoding="utf-8"?>
<!-- Generator: Adobe Illustrator 22.0.1, SVG Export Plug-In . SVG Version: 6.00 Build 0)  -->
<svg version="1.1" id="Слой_1" xmlns="http://www.w3.org/2000/svg" xmlns:xlink="http://www.w3.org/1999/xlink" x="0px" y="0px"
	 viewBox="0 0 313 443.4" style="enable-background:new 0 0 313 443.4;" xml:space="preserve">
<style type="text/css">
	.st0{fill:#2D3A3F;}
	.st1{fill:#F8743B;}
	.st2{fill:#009C53;}
	.st3{fill:#3763DD;}
	.st4{fill:#C4E8E8;}
	.st5{fill:#A8423D;}
	.st6{fill:#F4CCC6;}
	.st7{fill:#FFFFFF;}
	.st8{opacity:0.5;fill:#E28A86;}
	.st9{fill:#D6B838;}
	.st10{fill:#E5C641;}
	.st11{fill:#E6E6E6;}
	.st12{fill:#F2F2F2;}
	.st13{fill:#4E5B63;}
	.st14{fill:#CC6358;}
	.st15{fill:#85BCC1;}
	.st16{fill:#B3B3B3;}
	.st17{fill:#999999;}
	.st18{fill:#808080;}
	.st19{opacity:0.2;fill:#F2F2F2;}
	.st20{fill:#C9AC32;}
	.st21{opacity:0.4;fill:#F2F2F2;}
	.st22{fill:#3D4A51;}
	.st23{fill:#BC534B;}
	.st24{fill:#E5B3AC;}
	.st25{fill:#D19893;}
	.st26{fill:#8E744F;}
	.st27{fill:#D19B95;}
	.st28{fill:#464747;}
	.st29{fill:#7C6140;}
	.st30{fill:#D8938F;}
	.st31{fill:#914C49;}
	.st32{fill:#AF6161;}
	.st33{fill:#CCCCCC;}
	.st34{fill:#3A484F;}
</style>
<g>
	<g>
		<g>
			<g>
				<path class="st0" d="M192.7,15.3c-1.6,0.4-2.1,2.6-1.5,3.9c0.7,1.6,2.8,1.9,4.2,1.1c1.3-0.7,2-2.4,1.3-3.7
					c-0.8-1.6-3.1-2.3-4.6-1.2c-0.5,0.4,0,1.2,0.5,0.9c1-0.7,2.8-0.3,3.2,0.9c0.3,0.8-0.1,1.8-0.8,2.2c-0.8,0.5-2.2,0.5-2.8-0.3
					c-0.6-0.8-0.4-2.6,0.7-2.8C193.6,16.2,193.3,15.2,192.7,15.3L192.7,15.3z"/>
				<path class="st0" d="M211.4,5.4c-1.9,0-3.2,1.8-3,3.6c0.3,1.9,2.2,3,4,2.4c1.6-0.5,2.9-2.3,2.5-4c-0.4-1.7-2.9-3.1-4.3-1.6
					c-0.5,0.5,0.2,1.2,0.7,0.7c0.5-0.5,1.5-0.2,1.9,0.1c0.5,0.3,0.8,1,0.7,1.5c-0.1,1.1-1,2.1-2,2.4c-2.9,0.8-3.6-4.1-0.6-4.1
					C212,6.4,212,5.4,211.4,5.4L211.4,5.4z"/>
				<path class="st0" d="M199.9,34.1c-1.6-0.6-3.5,0.8-4,2.3c-0.6,1.7,0.6,3.3,2.3,3.7c1.8,0.4,3.5-0.6,4-2.4
					c0.2-0.8,0.2-1.7-0.2-2.4c-0.5-0.7-1.4-0.9-2.1-1.3c-0.6-0.3-1.1,0.6-0.5,0.9c1,0.5,2,0.7,2,2.1c-0.1,1.3-1.1,2.4-2.4,2.3
					c-1.2-0.1-2.4-1-2.1-2.3c0.3-1.1,1.7-2.2,2.8-1.8C200.2,35.2,200.5,34.3,199.9,34.1L199.9,34.1z"/>
				<path class="st0" d="M182.4,21c-1.2-1.3-2.8,0.7-3.3,1.7c-0.9,1.6-0.1,3.5,1.7,4.1c2,0.6,4.1-0.8,4.4-2.8
					c0.3-2.3-1.7-3.5-3.7-3.6c-0.6,0-0.6,1,0,1c1.3,0,2.7,0.6,2.7,2.2c0,1.5-1.5,2.6-2.9,2.3c-1.2-0.2-2-1.4-1.5-2.5
					c0.2-0.4,1.4-2.2,1.9-1.7C182.1,22.1,182.8,21.4,182.4,21L182.4,21z"/>
				<path class="st0" d="M183.6,5c-1.7-1-3.2,1.4-2.9,2.9c0.3,1.8,2.4,3.2,4.2,2.4c1.6-0.7,2.4-2.7,1.7-4.3
					c-0.6-1.4-2.8-2.4-4.1-1.3c-0.5,0.4,0.2,1.1,0.7,0.7c0.8-0.7,2.3,0.4,2.5,1.2c0.3,0.9,0,1.9-0.8,2.5c-0.9,0.7-2.1,0.4-2.8-0.4
					c-0.5-0.5-0.7-1.2-0.5-1.9c0.2-0.5,0.8-1.3,1.4-1C183.7,6.1,184.2,5.3,183.6,5L183.6,5z"/>
				<path class="st0" d="M185.4,9.7c2.5,1.9,5.1,3.6,7,6.1c0.4,0.5,1.1-0.2,0.7-0.7c-2-2.5-4.7-4.3-7.2-6.2
					C185.4,8.5,184.9,9.3,185.4,9.7L185.4,9.7z"/>
				<path class="st0" d="M196.6,17.3c4.2-2.3,8.5-4.6,12.7-6.9c0.6-0.3,0.1-1.2-0.5-0.9c-4.2,2.3-8.4,4.6-12.7,6.9
					C195.6,16.7,196.1,17.6,196.6,17.3L196.6,17.3z"/>
				<path class="st0" d="M194.3,20.7c1.1,2.2,1.4,5,2.1,7.4c0.7,2.4,1.6,4.7,2.1,7.2c0.1,0.3,0.4,0.4,0.6,0.3c0,0,0,0,0.1,0
					c0.4-0.1,0.5-0.6,0.2-0.8c0,0,0,0-0.1-0.1c-0.5-0.4-1.2,0.3-0.7,0.7c0,0,0,0,0.1,0.1c0.1-0.3,0.1-0.6,0.2-0.8
					c1-0.2-1.6-7.1-1.8-7.9c-0.6-2.1-0.9-4.5-1.9-6.5C194.8,19.6,194,20.1,194.3,20.7L194.3,20.7z"/>
				<path class="st0" d="M184.2,22.2c1.2-0.3,2.4-0.9,3.6-1.3c1.4-0.5,2.8-0.9,4.2-1.3c0.6-0.2,0.4-1.1-0.3-1
					c-1.4,0.4-2.8,0.8-4.2,1.3c-1.2,0.4-2.4,1.1-3.6,1.3C183.3,21.4,183.6,22.3,184.2,22.2L184.2,22.2z"/>
			</g>
		</g>
		<g>
			<path class="st0" d="M276.8,35.8c-4.6,0.8-9.1,1.6-13.7,2.4c-2.6-4.3-4.9-8.8-6.9-13.5c-0.2-0.4-0.8-0.3-0.9,0.1
				c-1.7,5-3.1,10.2-3.4,15.5c-2.8,0-5.7,0.2-8.5,0.4c-2,0.2-4.2,0.1-5.9,1.2c-0.4,0.3-0.4,0.8,0,1.1c3.5,2.6,7.1,5.2,11.2,6.9
				c-3.3,3.2-6.1,7.1-8.7,10.9c-0.3,0.4,0.2,0.9,0.6,0.8c4.4-0.7,8.7-1.9,12.8-3.6c0.7,3.9,1.8,7.7,2.8,11.5
				c0.1,0.3,0.5,0.5,0.8,0.3c1.6-1.1,2-3.4,2.7-5.1c1-2.7,2-5.4,2.9-8.2c0-0.1,0-0.1,0-0.1c4.8-0.2,9.6-0.4,14.5-0.1
				c0.3,0,0.6-0.3,0.6-0.6c-0.1-1.5-1.5-2.4-2.6-3.4c-2-1.9-3.9-3.9-6-5.8c0,0-0.1-0.1-0.1-0.1c2.8-3.2,5.6-6.4,8.4-9.7
				C277.7,36.3,277.4,35.7,276.8,35.8z M273.1,51.9c0.8,0.8,1.7,1.5,2.4,2.3c1.2,1.4,0.4,0.8-1,0.7c-4.1-0.1-8.2,0.1-12.2,0.8
				c-0.1,0-0.1,0-0.2,0.1c-0.2,0-0.4,0.1-0.5,0.4c-0.7,2-1.4,4-2.1,6c-0.6,1.5-1.2,4.6-2.4,6.1c-0.9-3.6-1.8-7.2-2.9-10.7
				c0.3-0.4-0.2-1-0.7-0.8c-3.8,1.6-7.6,2.8-11.6,3.5c2.5-3.4,5.2-6.7,7.7-10.1c0.3,0,0.4-0.3,0.4-0.5c0,0,0,0,0.1-0.1
				c0.2-0.3-0.2-0.6-0.5-0.4c0,0,0,0,0,0c-3.5-2.2-7-4.3-10.3-6.7c1.9-0.8,4.5-0.7,6.5-0.8c2.1-0.2,4.3-0.3,6.4-0.5
				c0.4,0,0.5-0.4,0.5-0.6c0.1,0,0.1-0.1,0.1-0.2c1-4.8,1.9-9.5,3.4-14.1c1.9,4.4,4,8.6,6.5,12.7c0.2,0.3,0.5,0.3,0.8,0.2
				c0.1,0,0.1,0,0.2,0c4.1-0.7,8.2-1.4,12.2-2.1c-2.6,3.1-5.1,6.1-7.5,9.3c-0.2,0.3,0,0.7,0.3,0.7c0,0.1,0.1,0.1,0.1,0.2
				C269.9,48.9,271.5,50.4,273.1,51.9z"/>
			<path class="st0" d="M243.6,48.4c-11.5-2.7-25.1,2.5-35.1,7.9c-10.9,5.9-20.6,14.4-28,24.3c-0.3,0.3,0.3,0.8,0.6,0.5
				c15.6-18.4,37.3-33.6,62.5-32.1C243.9,49.1,244,48.5,243.6,48.4z"/>
			<path class="st0" d="M245.1,50.4c-13.7,10.7-21,29.1-20.8,46.2c0,0.6,1,0.7,1,0c0.1-18,7.8-33.2,20.2-45.8
				C245.8,50.6,245.4,50.2,245.1,50.4z"/>
			<path class="st0" d="M243.1,50.4c-4.8,0.5-9.3,5-12.8,8.2c-4.4,4-8.3,8.5-11.6,13.4c-6.5,9.6-10.9,20.8-12.3,32.3
				c-0.1,0.4,0.7,0.6,0.8,0.1c1.8-10.6,5.3-20.7,11.1-29.9c2.9-4.6,6.3-8.9,10.1-12.7c3.8-3.9,9.3-9.8,14.8-10.9
				C243.4,50.8,243.4,50.4,243.1,50.4z"/>
			<path class="st0" d="M240.3,49.5c-21.3,6.7-39.2,25.8-47.5,46.1c-0.2,0.5,0.6,0.8,0.8,0.4c4.5-10.3,10.8-19.7,18.9-27.6
				c8.3-8,17.7-13.4,28-18.3C240.8,49.9,240.6,49.4,240.3,49.5z"/>
			<path class="st0" d="M235.3,49.5c-19.7,4.3-37.5,17.5-48.5,34.2c-0.3,0.5,0.4,0.9,0.8,0.5c11.8-16.9,28.3-28,47.9-34.1
				C235.7,49.9,235.6,49.4,235.3,49.5z"/>
		</g>
		<g>
			<g>
				<path class="st0" d="M257.4,103.6c0.2,1.2,1.8,1.6,2.8,1.2c1.2-0.4,1.5-1.9,1-3c-0.5-1-1.6-1.5-2.6-1.1
					c-1.2,0.5-1.8,2.2-1.1,3.3c0.3,0.4,0.9,0.1,0.6-0.3c-0.5-0.8-0.1-2,0.8-2.3c0.6-0.2,1.3,0.1,1.6,0.7c0.4,0.6,0.3,1.6-0.4,2
					c-0.6,0.4-1.9,0.2-2-0.6C258,103,257.3,103.2,257.4,103.6L257.4,103.6z"/>
				<path class="st0" d="M250.9,89.7c-0.1,1.4,1.1,2.4,2.5,2.3c1.4-0.1,2.2-1.5,1.9-2.8c-0.3-1.2-1.5-2.2-2.8-2
					c-1.3,0.2-2.3,2-1.4,3.1c0.3,0.3,0.8-0.1,0.5-0.5c-0.3-0.3-0.1-1.1,0.1-1.4c0.3-0.3,0.7-0.5,1.1-0.5c0.8,0.1,1.5,0.8,1.7,1.6
					c0.5,2.2-3.1,2.4-3,0.3C251.6,89.2,250.9,89.2,250.9,89.7L250.9,89.7z"/>
				<path class="st0" d="M271.2,99.1c-0.5,1.1,0.4,2.5,1.5,3c1.2,0.5,2.4-0.3,2.7-1.5c0.4-1.3-0.3-2.5-1.6-3
					c-0.5-0.2-1.2-0.2-1.8,0.1c-0.6,0.3-0.7,1-1,1.5c-0.2,0.4,0.4,0.8,0.6,0.4c0.4-0.7,0.6-1.4,1.6-1.3c1,0.1,1.7,0.9,1.6,1.8
					c-0.1,0.8-0.8,1.7-1.7,1.4c-0.8-0.2-1.6-1.3-1.2-2.1C272.1,98.9,271.4,98.7,271.2,99.1L271.2,99.1z"/>
				<path class="st0" d="M261.1,111.3c-1,0.8,0.4,2.1,1.1,2.5c1.1,0.7,2.6,0.2,3-1.1c0.5-1.4-0.4-3-1.9-3.3
					c-1.7-0.3-2.6,1.1-2.7,2.5c0,0.5,0.7,0.5,0.7,0c0.1-1,0.5-2,1.7-1.9c1.1,0.1,1.8,1.2,1.6,2.2c-0.2,0.9-1.1,1.4-1.9,1
					c-0.3-0.1-1.5-1.1-1.1-1.4C261.9,111.6,261.4,111,261.1,111.3L261.1,111.3z"/>
				<path class="st0" d="M249.5,109.8c-0.8,1.2,0.9,2.4,2,2.2c1.3-0.2,2.4-1.7,1.9-3c-0.4-1.2-1.9-1.8-3-1.4c-1,0.4-1.8,1.9-1.1,2.9
					c0.3,0.4,0.8-0.1,0.5-0.5c-0.4-0.6,0.4-1.6,1-1.8c0.6-0.2,1.4,0.1,1.8,0.6c0.5,0.7,0.2,1.5-0.4,2c-0.4,0.3-0.9,0.5-1.4,0.3
					c-0.3-0.1-0.9-0.6-0.7-1C250.4,109.8,249.8,109.4,249.5,109.8L249.5,109.8z"/>
				<path class="st0" d="M253,108.7c1.4-1.7,2.8-3.5,4.7-4.9c0.4-0.3-0.1-0.8-0.5-0.5c-1.9,1.3-3.3,3.2-4.8,5
					C252.1,108.7,252.7,109,253,108.7L253,108.7z"/>
				<path class="st0" d="M258.9,100.8c-1.5-3.2-3-6.3-4.5-9.5c-0.2-0.4-0.8-0.1-0.6,0.3c1.5,3.1,3,6.3,4.5,9.5
					C258.5,101.6,259.1,101.2,258.9,100.8L258.9,100.8z"/>
				<path class="st0" d="M261.3,102.7c1.6-0.7,3.7-0.8,5.4-1.3c1.8-0.4,3.5-1,5.3-1.2c0.2,0,0.3-0.3,0.3-0.4c0,0,0,0,0,0
					c0-0.3-0.4-0.4-0.6-0.2c0,0,0,0,0,0c-0.3,0.3,0.1,0.8,0.5,0.5c0,0,0,0,0,0c-0.2-0.1-0.4-0.1-0.6-0.2c-0.1-0.7-5.2,0.9-5.8,1
					c-1.6,0.4-3.3,0.5-4.8,1.1C260.5,102.2,260.9,102.8,261.3,102.7L261.3,102.7z"/>
				<path class="st0" d="M262,110c-0.2-0.9-0.6-1.8-0.8-2.7c-0.3-1-0.6-2-0.8-3.1c-0.1-0.5-0.8-0.3-0.7,0.2c0.2,1.1,0.5,2.1,0.8,3.1
					c0.2,0.9,0.7,1.8,0.8,2.7C261.4,110.6,262.1,110.5,262,110L262,110z"/>
			</g>
		</g>
	</g>
	<g>
		<polygon class="st1" points="134.6,75.9 137.8,69.2 134.2,62.7 141.6,63.7 146.6,58.2 147.9,65.6 154.7,68.7 148.1,72.2 
			147.3,79.6 141.9,74.4 		"/>
		<polygon class="st2" points="137.1,46.9 137.2,43.7 134.6,41.9 137.7,41 138.6,38 140.4,40.6 143.6,40.5 141.7,43.1 142.7,46.1 
			139.7,45 		"/>
		<polygon class="st3" points="158.3,53.6 158.4,50.4 155.8,48.6 158.9,47.7 159.8,44.7 161.6,47.3 164.8,47.2 162.9,49.8 
			163.9,52.8 160.9,51.7 		"/>
		<polygon class="st3" points="288,75.8 288,72.6 285.5,70.8 288.5,69.9 289.5,66.9 291.3,69.4 294.4,69.4 292.5,72 293.5,75 
			290.5,73.9 		"/>
		<polygon class="st2" points="253.6,134.4 253.6,131.2 251.1,129.4 254.1,128.5 255.1,125.4 256.9,128 260,128 258.1,130.5 
			259.1,133.5 256.1,132.5 		"/>
		<polygon class="st1" points="253.3,11.7 253.3,8.5 250.8,6.7 253.8,5.8 254.7,2.8 256.5,5.4 259.7,5.4 257.8,7.9 258.8,10.9 
			255.8,9.8 		"/>
	</g>
	<g>
		<g>
			<circle class="st4" cx="155.8" cy="291.1" r="151.9"/>
			<g>
				<path class="st5" d="M219.1,271.3c0,0,24.6,65-22.2,54.1c-4.7-1.1-18.7-5.2-18.7-5.2l13.2-59.3L219.1,271.3z"/>
				<g>
					<g>
						<g>
							<g>
								<path class="st6" d="M172.9,417.7l-0.2-4.5l-5.5-0.5l-0.7,4C166.5,416.7,165.2,422.4,172.9,417.7z"/>
								<path class="st7" d="M166.5,416.7c-3.9,0.3-13.1,1.6-16.3,3.7c-3.9,2.7-0.5,3.7,2.9,3.7c4.4,0,20.5-0.6,19.8-6.5
									C169.3,419.2,166.2,418.6,166.5,416.7"/>
								<g>
									<path class="st7" d="M164,417.5c0-1.1,0.2-2.1,0.2-3.2c0-0.5-0.1-1-0.3-1.5c-0.1-0.2-0.2-0.4-0.3-0.6
										c-0.7-0.1-1,0.1-0.9,0.6c-0.3,1.7,0.7,3.1,1.4,4.7c0.1,0.3-0.4,0.5-0.6,0.2c-0.9-1.6-2.8-3.3-4.5-4.4
										c-0.4-0.2-1.1-0.6-1.2,0c-0.1,0.7,0.9,1.6,1.4,2c1.3,1.1,2.6,1.8,4.5,1.9c0.4,0,0.4,0.5,0,0.5c-2.2-0.2-3.7-1-5.2-2.3
										c-0.6-0.6-2.3-2.4-0.9-3c1-0.5,2.5,1,3.1,1.5c1.2,1,2.5,2.2,3.2,3.4c-0.2,0.1-0.4,0.1-0.6,0.2c-0.7-1.6-2.8-4.8-0.6-6.2
										c0.7-0.5,1.3,0.6,1.5,1c0.8,1.6,0.1,3.4,0.2,5.1C164.6,417.8,164,417.8,164,417.5L164,417.5z"/>
								</g>
							</g>
							<path class="st6" d="M171.6,344.4c0,0,3,49.4,1.3,73.3c0,0-3.9,1.2-6.4-1c0,0-3-53.6-13.1-64.5L171.6,344.4z"/>
						</g>
						<g>
							<path class="st6" d="M165.1,388.9c1.7,0,2.8,1.3,2.8,2.8c0,1.5-1.4,2.6-3.1,2.6c-0.1,0-0.2,0-0.4,0c-0.2-1.7-0.4-3.4-0.6-5.1
								C164.3,389,164.7,388.9,165.1,388.9z"/>
							<path class="st8" d="M165.1,388.9c1.7,0,2.8,1.3,2.8,2.8c0,1.5-1.4,2.6-3.1,2.6c-0.1,0-0.2,0-0.4,0c-0.2-1.7-0.4-3.4-0.6-5.1
								C164.3,389,164.7,388.9,165.1,388.9z"/>
						</g>
					</g>
					<g>
						<g>
							<g>
								<path class="st6" d="M154.8,411.4l-0.2-4.5l-5.5-0.5l-0.7,4C148.4,410.4,147.1,416.1,154.8,411.4z"/>
								<path class="st7" d="M148.4,410.4c-3.9,0.3-13.1,1.6-16.3,3.7c-3.9,2.7-0.5,3.7,2.9,3.7c4.4,0,20.5-0.6,19.8-6.5
									C151.1,412.9,148,412.2,148.4,410.4"/>
								<g>
									<path class="st7" d="M145.8,411.5c0-1.1,0.2-2.1,0.2-3.2c0-0.5-0.1-1-0.3-1.5c-0.1-0.2-0.2-0.4-0.3-0.6
										c-0.7-0.1-1,0.1-0.9,0.6c-0.3,1.7,0.7,3.1,1.4,4.7c0.1,0.3-0.4,0.5-0.6,0.2c-0.9-1.6-2.8-3.3-4.5-4.4
										c-0.4-0.2-1.1-0.6-1.2,0c-0.1,0.7,0.9,1.6,1.4,2c1.3,1.1,2.6,1.8,4.5,1.9c0.4,0,0.4,0.5,0,0.5c-2.2-0.2-3.7-1-5.2-2.3
										c-0.6-0.6-2.3-2.4-0.9-3c1-0.5,2.5,1,3.1,1.5c1.2,1,2.5,2.2,3.2,3.4c-0.2,0.1-0.4,0.1-0.6,0.2c-0.7-1.6-2.8-4.8-0.6-6.2
										c0.7-0.5,1.3,0.6,1.5,1c0.8,1.6,0.1,3.4,0.2,5.1C146.4,411.8,145.8,411.8,145.8,411.5L145.8,411.5z"/>
								</g>
							</g>
							<path class="st6" d="M153.4,338.1c0,0,3,49.4,1.3,73.3c0,0-3.9,1.2-6.4-1c0,0-3-53.6-13.1-64.5L153.4,338.1z"/>
						</g>
						<g>
							<path class="st6" d="M147,382.6c1.7,0,2.8,1.3,2.8,2.8c0,1.5-1.4,2.6-3.1,2.6c-0.1,0-0.2,0-0.4,0c-0.2-1.7-0.4-3.4-0.6-5.1
								C146.1,382.7,146.6,382.6,147,382.6z"/>
							<path class="st8" d="M147,382.6c1.7,0,2.8,1.3,2.8,2.8c0,1.5-1.4,2.6-3.1,2.6c-0.1,0-0.2,0-0.4,0c-0.2-1.7-0.4-3.4-0.6-5.1
								C146.1,382.7,146.6,382.6,147,382.6z"/>
						</g>
					</g>
					<path class="st9" d="M152.8,373.8c0,0-9.1,2-15.5-0.3c0,0-1.7-24.2,2.4-44.9l12.4,5.5L152.8,373.8z"/>
					<path class="st10" d="M180.3,331.7l-0.3,49.5c0,0-10.7,6.3-26.5,1.2c0,0-10.7-26.5-11.1-51.3L180.3,331.7z"/>
					<g>
						<path class="st0" d="M180.8,326c0,0,3.2,6.2-8.1,9.8c-10.9,3.4-38.3,4-38.6-16.4L180.8,326z"/>
						<g>
							<g>
								<path class="st11" d="M92.4,257.1c0,0,20.2-43.5,5.8-70.1c0,0-21.3,11.1-27.9,62.1C70.2,249.1,76.5,258.6,92.4,257.1"/>
								<path class="st11" d="M77.2,218.4c1.7,2,4.2,3.3,7.1,3.3c5.1,0,9.2-4.1,9.2-9.2c0-5.1-3.3-9.6-8.4-9.6c-0.3,0-0.6,0-0.9,0
									c7.1-12.3,13.9-15.9,13.9-15.9c14.4,26.6-5.8,70.1-5.8,70.1c-15.8,1.4-22.2-8.1-22.2-8.1C71.8,236.6,74.3,226.5,77.2,218.4z
									"/>
								<path class="st12" d="M97.1,201.8c0,0-1,32.1-11.1,47.4l4.6,0.6c0,0,8.5-12,9.1-49.1L97.1,201.8z"/>
								<g>
									<g>
										<path class="st6" d="M96.5,220.9c3.2-1.1,9.9-1.6,10.8,2.4c0.9,4.5-1.9,7.6-4.8,10.7c0.9,1.4,2.2,2.9,3.3,4.2l0.9,1
											c-1,1.9-2.4,3.6-3.9,5.3c-1.7-0.7-3.3-2.2-4.6-3.6c-1.3-1.4-1.2-2.9-1.2-2.9s1.2-7.2,3.3-10.4
											C95.4,230.2,82.7,225.6,96.5,220.9z"/>
									</g>
									<g>
										<path class="st13" d="M107.1,251.2c0,0-7.8-3.1-6-8.1c1.8-5.1,5.8-7.9,9.3-3.9C113.8,243.3,107.1,251.2,107.1,251.2z"/>
										<path class="st0" d="M156.3,249.4c0,0-18.8,10.5-45.8-9.8c-2-1.5-8.1,0.1-6.9,7.2c1.7,10.2,19.6,26.8,35.4,27.6
											C139,274.4,163.2,261.2,156.3,249.4z"/>
									</g>
								</g>
								<path class="st14" d="M90.9,256.7l-1.2,3.9c0,0-14.5,1.6-19.7-7.2l1.3-3.6L90.9,256.7z"/>
								<g>
									<path class="st15" d="M72.3,243.8c-3.5-2.6-9.2-1.3-11.9,1.6c-0.7,0.7-2,2.3-2,3.3c-0.1,1.4,0.9,1,2.4,1.2
										c2.4,0.1,4.8,0.2,7.2,0.3c1.1,0,3,0.4,3.9,0c1.7-0.7,1.2-3.9,1.2-5.9"/>
								</g>
								<g>
									<path class="st15" d="M92.7,249.8c2,0.2,3.4,0.1,5,1.4c1.6,1.2,2.9,3,3.7,4.8c1.2,2.2,1.9,5,1.2,7.5
										c-3.6-2.1-7.5-3.6-10.9-6.1c-0.9-0.7-1.9-1.2-2.1-2.3c-0.2-1.5,1.4-4,2.5-5.2"/>
								</g>
								<g>
									<g>
										<g>
											<path class="st16" d="M93.5,212.4c0,5.1-4.1,9.2-9.2,9.2c-2.8,0-5.4-1.3-7.1-3.3c0.3-0.9,0.6-1.7,0.9-2.5
												c1.5,2.7,4.6,4.1,7.8,3.4c3.8-0.9,6.2-4.7,5.4-8.5c-0.9-3.8-4.1-6.6-7.9-5.8c-0.1,0-0.2,0.1-0.4,0.1
												c0.4-0.8,0.8-1.5,1.3-2.3c0.3,0,0.6,0,0.9,0C90.2,202.8,93.5,207.3,93.5,212.4z"/>
											<path class="st17" d="M83.3,205c3.8-0.9,7.1,1.9,7.9,5.8c0.9,3.8-1.5,7.6-5.4,8.5c-3.1,0.7-6.3-0.8-7.8-3.4
												c1.6-4.1,3.2-7.7,4.8-10.7C83.1,205.1,83.2,205.1,83.3,205z"/>
										</g>
										<path class="st18" d="M91.2,210.8c0.3,1.2,0.2,2.4-0.1,3.5c-0.7,2.4-2.6,4.4-5.3,5c-1.6,0.4-3.1,0.2-4.5-0.4
											C81.4,215.5,83.6,208.3,91.2,210.8z"/>
									</g>
									<path class="st12" d="M89.7,206.3c0,0.2,0.2,0.4,0.4,0.4c0.2,0,0.5-0.2,0.5-0.4c0-0.2-0.2-0.4-0.5-0.4
										C89.9,205.9,89.7,206,89.7,206.3z"/>
									<path class="st12" d="M89.3,218.4c0,0.2,0.2,0.4,0.4,0.4c0.2,0,0.5-0.2,0.5-0.4c0-0.2-0.2-0.4-0.5-0.4
										C89.4,218,89.3,218.2,89.3,218.4z"/>
									<path class="st12" d="M86,220.2c0,0.2,0.2,0.4,0.4,0.4c0.2,0,0.5-0.2,0.5-0.4s-0.2-0.4-0.5-0.4C86.2,219.8,86,220,86,220.2
										z"/>
									<path class="st12" d="M82.1,220.3c0,0.2,0.2,0.4,0.4,0.4c0.2,0,0.5-0.2,0.5-0.4c0-0.2-0.2-0.4-0.5-0.4
										C82.3,219.9,82.1,220,82.1,220.3z"/>
									<path class="st12" d="M78.7,218.3c0,0.2,0.2,0.4,0.4,0.4c0.2,0,0.5-0.2,0.5-0.4c0-0.2-0.2-0.4-0.5-0.4
										C78.9,217.9,78.7,218.1,78.7,218.3z"/>
									<path class="st12" d="M91.5,209.6c0.2,0.1,0.5,0.1,0.6-0.1c0.1-0.2,0.1-0.5-0.1-0.6c-0.2-0.1-0.5-0.1-0.6,0.1
										C91.3,209.2,91.3,209.5,91.5,209.6z"/>
									<path class="st12" d="M92.3,213c0.2,0.1,0.5,0.1,0.6-0.1c0.1-0.2,0.1-0.5-0.1-0.6c-0.2-0.1-0.4-0.1-0.6,0.1
										C92,212.6,92.1,212.8,92.3,213z"/>
									<path class="st12" d="M91.5,216.1c0.2,0.1,0.5,0.1,0.6-0.1c0.1-0.2,0.1-0.5-0.1-0.6c-0.2-0.1-0.4-0.1-0.6,0.1
										C91.3,215.7,91.3,216,91.5,216.1z"/>
									<path class="st19" d="M83.2,211.4c0,2,1.5,3.7,3.2,3.7c1.8,0,3.4-2.4,3.4-4.4c0-2-1.6-3-3.4-3
										C84.6,207.8,83.2,209.4,83.2,211.4z"/>
								</g>
								<g>
									<path class="st6" d="M72.9,218.1c-0.7,1.1,1,3.5,3.8,5.4c2.8,1.8,5.7,2.4,6.5,1.3c0.7-1.1-1-3.5-3.8-5.4
										C76.5,217.5,73.7,217,72.9,218.1z"/>
									<path class="st6" d="M70.8,223.4c-0.5,1.3,0.5,2.7,3.6,4c3.1,1.2,7.3,1.8,7.8,0.5c0.5-1.3-1.7-3.3-4.8-4.5
										C74.2,222.1,71.2,222.1,70.8,223.4z"/>
									<path class="st6" d="M69.3,228.5c-0.3,1.3,2.2,3,5.5,3.7c3.3,0.7,6.2,0.2,6.5-1.1c0.3-1.3-2.2-3-5.5-3.7
										C72.5,226.7,69.5,227.2,69.3,228.5z"/>
									<path class="st6" d="M69.5,233c-0.1,1.1,1.4,2.6,4.2,2.9c2.9,0.3,6-0.7,6.2-1.9c0.1-1.1-2.1-2.3-5-2.6
										C72,231.2,69.6,231.9,69.5,233z"/>
								</g>
								<path class="st12" d="M84.4,203.9c0,0.2,0.2,0.4,0.4,0.4c0.2,0,0.5-0.2,0.5-0.4c0-0.2-0.2-0.4-0.5-0.4
									C84.5,203.5,84.4,203.7,84.4,203.9z"/>
								<path class="st12" d="M87.1,204.5c0,0.2,0.2,0.4,0.4,0.4c0.2,0,0.5-0.2,0.5-0.4c0-0.2-0.2-0.4-0.5-0.4
									C87.3,204.1,87.1,204.2,87.1,204.5z"/>
								<path class="st10" d="M92.7,257.9c0,0-15.9,2.5-23.2-8.3l2-10.2c0,0,10.9,11,25.2,7.6L92.7,257.9"/>
								<path class="st10" d="M87.8,197.3c5.6-7.8,10.3-10.2,10.3-10.2c2.4,4.4,3.8,9.3,4.6,14.4C95.9,205.7,88.2,200,87.8,197.3z"
									/>
								<path class="st20" d="M100.7,200.8c0,0.2,0.2,0.4,0.4,0.4c0.2,0,0.5-0.2,0.5-0.4c0-0.2-0.2-0.4-0.5-0.4
									C100.9,200.4,100.7,200.6,100.7,200.8z"/>
								<path class="st20" d="M93.2,249.5c0,0.2,0.2,0.4,0.4,0.4c0.2,0,0.5-0.2,0.5-0.4c0-0.2-0.2-0.4-0.5-0.4
									C93.4,249,93.2,249.2,93.2,249.5z"/>
								<path class="st20" d="M89.8,249.8c0,0.2,0.2,0.4,0.4,0.4s0.5-0.2,0.5-0.4c0-0.2-0.2-0.4-0.5-0.4S89.8,249.6,89.8,249.8z"/>
								<path class="st20" d="M85.1,249.2c0,0.2,0.2,0.4,0.4,0.4c0.2,0,0.5-0.2,0.5-0.4c0-0.2-0.2-0.4-0.5-0.4
									C85.3,248.8,85.1,249,85.1,249.2z"/>
								<path class="st20" d="M80.9,248.2c0,0.2,0.2,0.4,0.4,0.4c0.2,0,0.5-0.2,0.5-0.4c0-0.2-0.2-0.4-0.5-0.4
									C81.1,247.8,80.9,248,80.9,248.2z"/>
								<path class="st20" d="M76.9,246.2c0,0.2,0.2,0.4,0.4,0.4c0.2,0,0.5-0.2,0.5-0.4c0-0.2-0.2-0.4-0.5-0.4
									C77.1,245.8,76.9,246,76.9,246.2z"/>
								<path class="st20" d="M72.8,244c0,0.2,0.2,0.4,0.4,0.4c0.2,0,0.5-0.2,0.5-0.4c0-0.2-0.2-0.4-0.5-0.4
									C73,243.6,72.8,243.8,72.8,244z"/>
								<path class="st20" d="M97.7,201.5c0,0.2,0.2,0.4,0.4,0.4c0.2,0,0.5-0.2,0.5-0.4c0-0.2-0.2-0.4-0.5-0.4
									C97.9,201.1,97.7,201.3,97.7,201.5z"/>
								<path class="st20" d="M94.5,201.1c0,0.2,0.2,0.4,0.4,0.4c0.2,0,0.5-0.2,0.5-0.4c0-0.2-0.2-0.4-0.5-0.4
									C94.7,200.7,94.5,200.9,94.5,201.1z"/>
								<path class="st20" d="M91.4,199.9c0,0.2,0.2,0.4,0.4,0.4c0.2,0,0.5-0.2,0.5-0.4c0-0.2-0.2-0.4-0.5-0.4
									C91.6,199.5,91.4,199.7,91.4,199.9z"/>
								<path class="st20" d="M89.2,198c0,0.2,0.2,0.4,0.4,0.4c0.2,0,0.5-0.2,0.5-0.4c0-0.2-0.2-0.4-0.5-0.4
									C89.4,197.5,89.2,197.7,89.2,198z"/>
								<g>
									<path class="st15" d="M78.8,252.7c1.5-2.4,4.1-1.8,6,0c2.3,2.4,1.6,4.5,1,7.5c-0.6,3-1.6,6.4-3.7,8.8
										c-1.1,1.2-1.5,1.1-2.4-0.2c-1.2-1.6-1.9-4.2-2-6.1C77.5,260.1,77.2,254.9,78.8,252.7z"/>
								</g>
							</g>
							<path class="st21" d="M100.1,194.9c-0.2-2-1.2-3.5-2.1-3.4c-1,0.1-1.6,2.5-1.4,4.5c0.2,2,1.2,2.8,2.1,2.7
								C99.6,198.6,100.3,196.9,100.1,194.9z"/>
						</g>
						<path class="st22" d="M183.5,305.9c0,0,10.8,25-14.2,26.5c-25,1.5-50.7-6.5-37.6-44.9c13.1-38.4,34.6-49.2,34.6-49.2
							s0.5,3.3,7.4,3.6l10.4,9.8l2.6,36.9L183.5,305.9z"/>
						<path class="st23" d="M181.4,240.7c0,0,23.6,0,38,19.3c14.4,19.3-17,19.9-26.8,16.1L181.4,240.7z"/>
						<g>
							<path class="st24" d="M178.2,217.1l-2.5,22.7c0,0-7.2,5.2-9.5-1.5l-3.2-15.7L178.2,217.1z"/>
							<path class="st25" d="M177.9,220c0,0-2.6,8.4-12.8,12.8l-1.2-6.1l1.2-3.1L177.9,220z"/>
							<path class="st6" d="M199.4,170.8c0,0-0.4,57.1-42,56.6c-41.7-0.6-46-43.3-30.1-79.3C143.2,112,200.4,117.5,199.4,170.8z"/>
							<path class="st8" d="M156.8,201.9c0,4.3,3.5,7.8,7.8,7.8c4.3,0,7.8-3.5,7.8-7.8c0-4.3-2.8-8.1-7.1-8.1
								C161,193.8,156.8,197.6,156.8,201.9z"/>
							<path class="st26" d="M180.8,188c0,0-12.7-14.6-8.1-29.2c0,0,16.9-27.1,31.5,3.8c14.6,30.9,7.5,58.6,0.2,41.1
								c0,0-2.9,30-8.1,8.1c0,0-15.3,27.9-12.7-11.1L180.8,188z"/>
							<g>
								<path class="st6" d="M178.6,184.6c-3.2,7.8-0.5,16.4,6.2,19.2c6.7,2.8,17.6-4.3,20.8-12.2c3.2-7.8-0.8-15.3-7.5-18.1
									C191.4,170.8,181.8,176.7,178.6,184.6z"/>
								<path class="st24" d="M185.5,188.3c-1.5,3.7-0.2,7.8,2.9,9.1c3.2,1.3,8.4-2.1,9.9-5.8c1.5-3.7-0.4-7.3-3.6-8.6
									C191.6,181.7,187,184.6,185.5,188.3z"/>
								<path class="st27" d="M185.5,188.3c-1.5,3.7-0.2,7.8,2.9,9.1C195.8,193.2,187.7,186.4,185.5,188.3z"/>
							</g>
							<path class="st28" d="M160.2,185.1c0,0-3.2-19.1-12.7-2.2c0,0,0.7-4.2,2.9-6.8C153.6,172.4,159.9,171.2,160.2,185.1z"/>
							<path class="st28" d="M131.8,179.8c0,0-2.1-19.1-9.6-2c0,0,0.6-4.2,2.4-6.9C127,167.2,131.8,165.9,131.8,179.8z"/>
							<g>
								<path class="st29" d="M162,169.1c-2.5-0.3-13-1-8.5-3.6c3.3-1.7,10.1-0.6,10.5,2.9C163.9,169.3,162.4,169.2,162,169.1"/>
							</g>
							<g>
								<path class="st29" d="M133.8,164.9c-2.5-0.3-13-1-8.5-3.6c3.3-1.7,10.1-0.6,10.5,2.9C135.6,165.1,134.2,165,133.8,164.9"/>
							</g>
							<g>
								<path class="st30" d="M138.2,191.2c0.2,1,1.1,3.3,3,3.7c3,0.7,2.6-4.3,2.8-5.3c0.3-3.1-0.3-6.7-1-10.4
									c-0.1-0.7-0.8-3.6-2.6-3.9c-1.4-0.2-2.7,2.9-3,3.5c-1.5,2.7-3,5.1-5.2,7.6c-0.7,0.7-3.8,4.3-2.8,5.3c1.1,0.9,3-1.1,3.5-1.6
									c0.3,1-2.1,4.3,1.4,4.6C136.7,194.9,137.9,192.1,138.2,191.2"/>
							</g>
							<path class="st24" d="M143.1,209.3c0,0-4.8,4-9.8,1.6C133.3,211,139.1,217.1,143.1,209.3z"/>
							<path class="st31" d="M132.5,202.8c0,2.3,1.6,4.1,3.5,4.1c1.9,0,3.5-1.8,3.5-4.1c0-2.3-2.5-4-4.5-4
								C133.2,198.8,132.5,200.5,132.5,202.8z"/>
							<path class="st32" d="M136.1,206.9c1.9,0,3.5-1.8,3.5-4.1C136.7,200.5,134.3,205.2,136.1,206.9z"/>
							<g>
								<path class="st26" d="M175.4,159.4c-17.3,0.5-34.3,0.2-51.2-5.5c-5.8-2.3-24.9-10-19-15.5c4.4-4.1,12.1,2.4,17.7,3.5
									c-2.9-1-15.3-9.7-10.6-13.5c2.3-1.9,10.8,2.9,13.8,3.5c-2.2-2.8-7.9-7.4-5.9-11.7c2.2-5,8.9-1.4,13-0.5
									c10.5,2.5,27.6,3.9,37.4,7.8c10.2,4,15.4,6.3,15.8,18.1c0.3,10.2-5,11.2-12,15.2"/>
							</g>
							<g>
								<path class="st6" d="M118.8,181.4c0.3,0,0.6-0.1,0.9-0.1c4.3,0,7.1,3.8,7.1,8.1c0,4-3.1,7.3-7,7.7
									C118.8,192.2,118.5,186.9,118.8,181.4z"/>
								<path class="st8" d="M118.8,181.4c0.3,0,0.6-0.1,0.9-0.1c4.3,0,7.1,3.8,7.1,8.1c0,4-3.1,7.3-7,7.7
									C118.8,192.2,118.5,186.9,118.8,181.4z"/>
							</g>
							<path class="st14" d="M160.4,124.7c0,0,13.4,58.4,57.2,64.9c7.5,1.1,25.3-1.9-4.2-30C183.9,131.6,160.4,124.7,160.4,124.7z"
								/>
							<path class="st15" d="M160.4,124.7c0,0,4.6,34.2,49.5,46.1c0,0,22.7-32.7-1.9-48C185.8,108.9,179.3,112,160.4,124.7z"/>
							<path class="st10" d="M166.6,140.4c4.5,7.6,12.1,16.4,25.1,23.3c12.2-10.8,18.8-31.6,16.4-41
								C195.5,112.3,178.5,126.4,166.6,140.4z"/>
							<path class="st14" d="M202.5,118.3c-1.3,1.3,0.8,4.1,3.1,6.3c2.3,2.2,5.2,2.9,6.4,1.6c1.3-1.3,0.4-4.2-1.8-6.4
								C207.9,117.6,203.8,117,202.5,118.3z"/>
						</g>
						<path class="st14" d="M186.8,245.1c0,0-2.1-9.7-13.2-5.4c-11.7,4.5-53.3,75.1,14.7,77.7V311c0,0-29.1-0.7-31.1-20.8
							C155.2,270,174.8,234.5,186.8,245.1z"/>
						<polygon class="st26" points="186.5,308.7 185.7,318.5 192,318.5 194,310.1 						"/>
						<g>
							<path class="st14" d="M186.5,245.1c3,0.6,6.9-2.1,8.9-4c2.4-2.3,3.7-4.9,3.8-8.3c0.2-5.5-7.1-5.7-10.7-3.3
								c-3.1,1.9-6.4,6.1-7.9,9.3c-1.1,2.1,0.2,1.2,1.7,2.8c0.9-0.8,2.2-2.8,2.9-3.7c1.2-1.5,2.8-3.8,4.5-4.8
								c3.2-1.9,5.2,0.9,3.9,3.8c-0.8,1.9-5.4,4.7-6.5,5.4C185.5,243.3,185.2,243.3,186.5,245.1"/>
						</g>
						<g>
							<path class="st6" d="M164.6,301.2c-2.8,0-14.8,0.5-17.3-1.7c-1.2-1-1.6-2.1,1.3-2.5c-2.6-1-2.6-3.5,1.3-3.2
								c-2.8-2-2.7-3.4,1-3.2c-1-0.7-2.5-2.1-1.6-3c2.3-2,5.4,1.6,7.4,3.5c-1.9-3.4-1.5-7.8,0.6-6.7c1.4,0.7,1.2,5.4,2.7,7.7
								c0.9,1.4,2.3,1.7,3.5,2.6c0.8,0.6,1.3,0.6,1.8,1.6c0.5,0.8,0,2.8-0.1,3.7L164.6,301.2z"/>
						</g>
						<polygon class="st12" points="176.1,322.5 175.6,323.3 174.7,323.5 175.4,324 175.2,325.1 176,324.4 176.9,325.1 176.7,324 
							177.4,323.5 176.5,323.4 						"/>
						<polygon class="st12" points="176.1,283.2 175.7,284 174.7,284.2 175.5,284.8 175.2,285.8 176,285.2 176.9,285.8 176.7,284.7 
							177.5,284.2 176.5,284.1 						"/>
						<polygon class="st12" points="166.4,281.4 165.9,282.2 165,282.4 165.7,283 165.5,284 166.3,283.4 167.2,284 167,282.9 
							167.7,282.4 166.7,282.3 						"/>
						<polygon class="st12" points="171,270.2 170.5,271 169.6,271.2 170.3,271.7 170.1,272.8 170.9,272.1 171.8,272.8 171.6,271.7 
							172.3,271.2 171.4,271 						"/>
						<polygon class="st12" points="168.3,258.2 167.8,259 166.9,259.2 167.6,259.8 167.4,260.8 168.2,260.2 169.1,260.8 
							168.9,259.7 169.6,259.2 168.6,259.1 						"/>
						<polygon class="st12" points="161.9,272.7 161.5,273.6 160.5,273.7 161.3,274.3 161.1,275.4 161.8,274.7 162.8,275.4 
							162.6,274.3 163.3,273.7 162.3,273.6 						"/>
						<polygon class="st12" points="163.2,242.6 162.8,243.5 161.8,243.6 162.6,244.2 162.4,245.3 163.1,244.6 164.1,245.3 
							163.9,244.2 164.6,243.6 163.6,243.5 						"/>
						<polygon class="st12" points="156.8,250.7 156.4,251.5 155.4,251.7 156.2,252.3 155.9,253.3 156.7,252.7 157.6,253.3 
							157.4,252.3 158.2,251.7 157.2,251.6 						"/>
						<polygon class="st12" points="152.8,261.2 152.4,262 151.5,262.2 152.2,262.7 152,263.8 152.8,263.1 153.7,263.8 153.5,262.7 
							154.2,262.2 153.2,262 						"/>
						<polygon class="st12" points="144.2,267.5 143.8,268.3 142.8,268.5 143.6,269.1 143.3,270.1 144.1,269.5 145,270.1 144.8,269 
							145.6,268.5 144.6,268.4 						"/>
						<polygon class="st12" points="145.6,279.3 145.2,280.1 144.3,280.3 145,280.9 144.8,281.9 145.6,281.3 146.5,281.9 
							146.3,280.9 147,280.3 146,280.2 						"/>
						<polygon class="st12" points="136.7,285.9 136.3,286.7 135.3,286.9 136.1,287.5 135.9,288.5 136.6,287.9 137.6,288.5 
							137.3,287.5 138.1,286.9 137.1,286.8 						"/>
						<polygon class="st12" points="142.8,290.5 142.3,291.4 141.4,291.5 142.1,292.1 141.9,293.1 142.7,292.5 143.6,293.1 
							143.4,292.1 144.1,291.5 143.1,291.4 						"/>
						<polygon class="st12" points="133.3,302.1 132.8,302.9 131.9,303.1 132.6,303.6 132.4,304.7 133.2,304 134.1,304.7 
							133.9,303.6 134.6,303.1 133.6,302.9 						"/>
						<polygon class="st12" points="162.3,317.6 161.9,318.4 161,318.6 161.7,319.2 161.5,320.2 162.3,319.6 163.2,320.2 163,319.2 
							163.7,318.6 162.7,318.5 						"/>
						<polygon class="st12" points="151.7,323.4 151.3,324.2 150.3,324.4 151.1,324.9 150.8,326 151.6,325.3 152.5,326 152.3,324.9 
							153.1,324.4 152.1,324.3 						"/>
						<polygon class="st12" points="150.5,307.2 150.1,308.1 149.2,308.2 149.9,308.8 149.7,309.9 150.5,309.2 151.4,309.9 
							151.2,308.8 151.9,308.2 150.9,308.1 						"/>
						<polygon class="st12" points="136.1,311.9 135.7,312.7 134.8,312.8 135.5,313.4 135.3,314.5 136.1,313.8 137,314.5 
							136.8,313.4 137.5,312.8 136.5,312.7 						"/>
						<polygon class="st12" points="143.6,320.5 143.2,321.3 142.2,321.5 143,322.1 142.8,323.1 143.5,322.5 144.5,323.1 144.3,322 
							145,321.5 144,321.4 						"/>
						<polygon class="st33" points="139.3,257.1 138.9,257.9 137.9,258.1 138.7,258.7 138.5,259.7 139.2,259.1 140.1,259.7 
							139.9,258.7 140.7,258.1 139.7,258 						"/>
						<polygon class="st33" points="132.8,266.1 132.3,266.9 131.4,267.1 132.1,267.7 131.9,268.7 132.7,268.1 133.6,268.7 
							133.4,267.7 134.1,267.1 133.2,267 						"/>
						<polygon class="st33" points="128,254.7 127.6,255.6 126.7,255.7 127.4,256.3 127.2,257.3 127.9,256.7 128.9,257.3 
							128.7,256.3 129.4,255.7 128.4,255.6 						"/>
						<polygon class="st33" points="118.8,258.8 118.4,259.6 117.4,259.8 118.2,260.3 118,261.4 118.7,260.7 119.7,261.4 
							119.4,260.3 120.2,259.8 119.2,259.7 						"/>
						<polygon class="st33" points="116.5,249.6 116.1,250.4 115.1,250.5 115.9,251.1 115.7,252.2 116.4,251.5 117.4,252.2 
							117.1,251.1 117.9,250.5 116.9,250.4 						"/>
						<polygon class="st33" points="109,245.5 108.6,246.3 107.6,246.5 108.4,247.1 108.2,248.1 108.9,247.5 109.9,248.1 
							109.7,247.1 110.4,246.5 109.4,246.4 						"/>
						<polygon class="st12" points="165.9,291.9 165.4,292.7 164.5,292.9 165.2,293.5 165,294.5 165.8,293.9 166.7,294.5 
							166.5,293.4 167.2,292.9 166.2,292.8 						"/>
						<g>
							<path class="st34" d="M166.6,305.3c0,0-6.3,1-6.3-4.4s2.9-9.4,7.5-6.7C172.3,296.9,166.6,305.3,166.6,305.3z"/>
							<path class="st13" d="M178.5,242.4c0,0,6-3.6,11.5,6.4c5.5,10.1,25.8,51.9-10.8,62.3c0,0-10.4,2.9-15-4.6
								c0,0-5.7-12.2,5-13.3c0,0,18.7,0,11.2-16.1C173,260.9,168.1,248.1,178.5,242.4z"/>
							<polygon class="st12" points="167.3,297.5 166.9,298.3 165.9,298.5 166.7,299.1 166.5,300.1 167.2,299.5 168.1,300.1 
								167.9,299 168.7,298.5 167.7,298.4 							"/>
							<polygon class="st12" points="175.2,303 174.8,303.8 173.8,303.9 174.6,304.5 174.4,305.6 175.1,304.9 176.1,305.6 
								175.9,304.5 176.6,303.9 175.6,303.8 							"/>
							<polygon class="st12" points="184,292.9 183.6,293.7 182.6,293.9 183.4,294.4 183.2,295.5 183.9,294.8 184.9,295.5 
								184.6,294.4 185.4,293.9 184.4,293.8 							"/>
							<polygon class="st12" points="194.4,291.4 193.9,292.3 193,292.4 193.7,293 193.5,294 194.3,293.4 195.2,294 195,293 
								195.7,292.4 194.8,292.3 							"/>
							<polygon class="st12" points="194.2,274 193.8,274.8 192.9,275 193.6,275.6 193.4,276.6 194.2,276 195.1,276.6 194.9,275.6 
								195.6,275 194.6,274.9 							"/>
							<polygon class="st12" points="184,269 183.6,269.8 182.6,270 183.4,270.5 183.2,271.6 183.9,270.9 184.9,271.6 184.6,270.5 
								185.4,270 184.4,269.9 							"/>
							<polygon class="st12" points="188.9,258.6 188.5,259.4 187.5,259.6 188.3,260.1 188,261.2 188.8,260.5 189.7,261.2 
								189.5,260.1 190.3,259.6 189.3,259.5 							"/>
							<polygon class="st12" points="178.8,249.6 178.4,250.5 177.4,250.6 178.2,251.2 178,252.2 178.7,251.6 179.7,252.2 
								179.5,251.2 180.2,250.6 179.2,250.5 							"/>
						</g>
					</g>
					<polygon class="st9" points="170.8,349.7 156.6,349.7 157,365.2 171.6,364.1 					"/>
				</g>
			</g>
		</g>
	</g>
</g>
</svg>
