<?xml version="1.0" encoding="utf-8"?>
<!-- Generator: Adobe Illustrator 22.0.1, SVG Export Plug-In . SVG Version: 6.00 Build 0)  -->
<svg version="1.1" id="Слой_1" xmlns="http://www.w3.org/2000/svg" xmlns:xlink="http://www.w3.org/1999/xlink" x="0px" y="0px"
	 viewBox="0 0 324.6 370.2" style="enable-background:new 0 0 324.6 370.2;" xml:space="preserve">
<style type="text/css">
	.st0{clip-path:url(#SVGID_1_);}
	.st1{clip-path:url(#SVGID_3_);}
	.st2{fill-rule:evenodd;clip-rule:evenodd;fill:#FAFDEB;}
	.st3{opacity:0.17;fill-rule:evenodd;clip-rule:evenodd;fill:url(#SVGID_4_);}
	.st4{fill:#F4CCC6;}
	.st5{opacity:0.5;}
	.st6{fill:#E28A86;}
	.st7{fill:#EBECEC;}
	.st8{fill:#77343D;}
	.st9{fill:#B54C5A;}
	.st10{fill:#E5B3AC;}
	.st11{fill:#D7D8D9;}
	.st12{fill:#B77327;}
	.st13{fill:#C54A46;}
	.st14{fill:#FFFFFF;}
	.st15{fill:#C4C5C6;}
	.st16{fill:#D8938F;}
	.st17{fill:#4E5B63;}
	.st18{fill:#283338;}
	.st19{opacity:0.5;fill:#E28A86;}
	.st20{fill:#8ABBBA;}
	.st21{fill:#214461;}
	.st22{fill:#152D41;}
	.st23{fill:#CFAD91;}
	.st24{fill:#EAC2A1;}
	.st25{fill:#142B3F;}
	.st26{fill:#642A27;}
	.st27{fill:#9A9B9C;}
	.st28{fill:#1F2228;}
	.st29{fill:#434953;}
	.st30{opacity:0.2;fill:#FFFFFF;}
	.st31{fill:#353A42;}
	.st32{fill:#333333;}
	.st33{fill:#F8743B;}
	.st34{fill:#009C53;}
	.st35{fill:#3763DD;}
</style>
<g>
	<g>
		<defs>
			<circle id="SVGID_2_" cx="161.4" cy="209.6" r="160.6"/>
		</defs>
		<clipPath id="SVGID_1_">
			<use xlink:href="#SVGID_2_"  style="overflow:visible;"/>
		</clipPath>
		<g class="st0">
			<defs>
				<rect id="SVGID_8_" x="-238.6" y="-43.6" width="622.8" height="415.2"/>
			</defs>
			<clipPath id="SVGID_3_">
				<use xlink:href="#SVGID_8_"  style="overflow:visible;"/>
			</clipPath>
			<g class="st1">
				<rect x="-126.8" y="-43.6" class="st2" width="511" height="415.2"/>
				
					<radialGradient id="SVGID_4_" cx="1559.3025" cy="93.579" r="385.0506" gradientTransform="matrix(-0.9823 0.1875 -0.1875 -0.9823 1230.7422 19.3821)" gradientUnits="userSpaceOnUse">
					<stop  offset="0" style="stop-color:#9078D1"/>
					<stop  offset="1" style="stop-color:#485DAA"/>
				</radialGradient>
				<path class="st3" d="M-322.9,136c8.8,10.8,74.3,32.6,98.9,24.3c24.7-8.3,17.1-49,39.5-55.8c22.4-6.7,54,7,86.1-1
					c32.1-8,32.1-49.5,41-73.1S13.5,23.9,45.3-0.8c31.8-24.8,15.2-64.8,29.8-87c14.6-22.1,33.6-6.5,56.5-28.5
					c22.8-22,29.8-83.4,29.8-83.4L-366.9-94.6L-322.9,136z"/>
				<g>
					<g>
						<g>
							<g>
								<g>
									<path class="st4" d="M222.6,209.7v-25.6c4-49.8-43.8-56.5-53.2-56c-9.4-0.5-59.2,6.2-53.2,56v25.6c0,0,10.6,31,32.2,32.7
										h19h4h19C211.2,240,222.6,209.7,222.6,209.7z"/>
									<g>
										<path class="st4" d="M235.7,204.4c0,5.1-4.1,9.2-9.2,9.2c-5.1,0-9.2-4.1-9.2-9.2c0-5.1,4.1-9.2,9.2-9.2
											C231.6,195.2,235.7,199.3,235.7,204.4z"/>
										<g class="st5">
											<path class="st6" d="M227.2,209.3c0.2-0.1,0.4-0.2,0.7-0.3c0.3-0.1,0.5-0.3,0.8-0.5c0.3-0.2,0.5-0.5,0.8-0.7
												c0.3-0.3,0.5-0.6,0.6-0.9c0.2-0.3,0.3-0.7,0.4-1.1c0-0.2,0.1-0.4,0.1-0.6c0-0.1,0-0.5,0-0.6c0-0.8-0.2-1.6-0.6-2.3
												c-0.2-0.3-0.4-0.7-0.6-0.9c-0.2-0.3-0.5-0.5-0.8-0.7c-0.3-0.2-0.5-0.4-0.8-0.5c-0.3-0.1-0.5-0.2-0.7-0.3
												c-0.2-0.1-0.4-0.1-0.5-0.2c-0.1,0-0.2-0.1-0.2-0.1s0.1,0,0.2,0c0.1,0,0.3-0.1,0.5-0.1c0.2,0,0.5,0,0.9,0
												c0.3,0,0.7,0.1,1.1,0.3c0.4,0.2,0.8,0.3,1.2,0.6c0.4,0.3,0.8,0.7,1.1,1.1c0.3,0.4,0.6,1,0.8,1.5c0.2,0.6,0.3,1.1,0.3,1.7
												c0,0.4,0,0.5-0.1,0.9c0,0.3-0.1,0.6-0.2,0.9c-0.2,0.6-0.5,1.1-0.8,1.5c-0.3,0.4-0.7,0.8-1.1,1.1
												c-0.4,0.3-0.8,0.5-1.2,0.6c-0.4,0.1-0.8,0.2-1.1,0.3c-0.3,0-0.6,0-0.9,0c-0.2,0-0.4-0.1-0.5-0.1c-0.1,0-0.2,0-0.2,0
												s0.1,0,0.2-0.1C226.8,209.4,227,209.3,227.2,209.3z"/>
											<path class="st6" d="M225.3,201.5c1.7,0,3.2,1.4,3.2,3.2c0,1.7-1.4,3.2-3.2,3.2c-1.7,0-3.2-1.4-3.2-3.2
												C222.1,203,223.5,201.5,225.3,201.5z"/>
										</g>
									</g>
									<g>
										<path class="st4" d="M103.9,204.4c0,5.1,4.1,9.2,9.2,9.2c5.1,0,9.2-4.1,9.2-9.2c0-5.1-4.1-9.2-9.2-9.2
											C108.1,195.2,103.9,199.3,103.9,204.4z"/>
										<g class="st5">
											<path class="st6" d="M112.5,209.3c-0.2-0.1-0.4-0.2-0.7-0.3c-0.3-0.1-0.5-0.3-0.8-0.5c-0.3-0.2-0.5-0.5-0.8-0.7
												c-0.3-0.3-0.5-0.6-0.6-0.9c-0.2-0.3-0.3-0.7-0.4-1.1c0-0.2-0.1-0.4-0.1-0.6c0-0.1,0-0.5,0-0.6c0-0.8,0.2-1.6,0.6-2.3
												c0.2-0.3,0.4-0.7,0.6-0.9c0.2-0.3,0.5-0.5,0.8-0.7c0.3-0.2,0.5-0.4,0.8-0.5c0.3-0.1,0.5-0.2,0.7-0.3
												c0.2-0.1,0.4-0.1,0.5-0.2c0.1,0,0.2-0.1,0.2-0.1s-0.1,0-0.2,0c-0.1,0-0.3-0.1-0.5-0.1c-0.2,0-0.5,0-0.9,0
												c-0.3,0-0.7,0.1-1.1,0.3c-0.4,0.2-0.8,0.3-1.2,0.6c-0.4,0.3-0.8,0.7-1.1,1.1c-0.3,0.4-0.6,1-0.8,1.5
												c-0.2,0.6-0.3,1.1-0.3,1.7c0,0.4,0,0.5,0.1,0.9c0,0.3,0.1,0.6,0.2,0.9c0.2,0.6,0.5,1.1,0.8,1.5c0.3,0.4,0.7,0.8,1.1,1.1
												c0.4,0.3,0.8,0.5,1.2,0.6c0.4,0.1,0.8,0.2,1.1,0.3c0.3,0,0.6,0,0.8,0c0.2,0,0.4-0.1,0.5-0.1c0.1,0,0.2,0,0.2,0
												s-0.1,0-0.2-0.1C112.8,209.4,112.7,209.3,112.5,209.3z"/>
											<path class="st6" d="M114.4,201.5c-1.7,0-3.2,1.4-3.2,3.2c0,1.7,1.4,3.2,3.2,3.2c1.7,0,3.2-1.4,3.2-3.2
												C117.6,203,116.2,201.5,114.4,201.5z"/>
										</g>
									</g>
									<path class="st4" d="M154.6,235.3c2.2,5.9,8,10.1,14.7,10.1c6.7,0,12.4-4.2,14.7-10.1H154.6z"/>
									<path class="st7" d="M153,134.4c0.5-0.1,0.9,0,1.2,0.1c8-2.4,16.4-3.4,24.4-2.2c-1.5-1.4-3.1-2.8-4.8-4
										c-1.9-0.2-3.4-0.2-4.5-0.2c-2.5-0.1-7.8,0.3-14.2,1.8c-1.5,1.6-3,3.2-4.5,4.8c0.1,0,0.2,0.1,0.3,0.1
										C151.6,134.6,152.3,134.5,153,134.4z"/>
									<path class="st8" d="M151.6,216.1c0,0,22,1.7,32.4,0c0,0,0,11.2-16.2,13C167.8,229.1,156,229.1,151.6,216.1z"/>
									<path class="st9" d="M168.2,222.6c-4.3,0-8.5,1.6-9.2,3.5c4.4,3,8.9,3,8.9,3c4.8-0.5,8.1-1.9,10.5-3.5
										C177,224.6,175.7,222.6,168.2,222.6z"/>
									<path class="st10" d="M164.5,233.4c0,0,6.4,0.5,9.5,0c0,0,0,3.3-4.7,3.8C169.2,237.2,165.8,237.2,164.5,233.4z"/>
									<g>
										<path class="st11" d="M147,216.1c0,0,2.6-0.3,6.6-0.6c2-0.1,4.3-0.2,6.8-0.3c1.2,0,2.5-0.1,3.8-0.1c1.3,0,2.6,0,3.9,0
											c1.3,0,2.6,0,3.9,0c1.3,0,2.6,0.1,3.8,0.1c2.5,0.1,4.8,0.2,6.8,0.3c4,0.2,6.6,0.6,6.6,0.6s-2.6,0.3-6.6,0.6
											c-2,0.1-4.3,0.2-6.8,0.3c-1.2,0-2.5,0.1-3.8,0.1c-1.3,0-2.6,0-3.9,0c-1.3,0-2.6,0-3.9,0c-1.3,0-2.6-0.1-3.8-0.1
											c-2.5-0.1-4.8-0.2-6.8-0.3C149.6,216.4,147,216.1,147,216.1z"/>
									</g>
									<path class="st12" d="M113.1,195.2l4.4,9.5c0,0,2.4-30.1,3.4-33.4c8.8-28.3,29.5-28.6,29.5-28.6l11.1-21.3
										c-20-5.4-39.2,8-39.2,8s-21.8,13.9-12.9,66.5C109.5,196,111.5,195.2,113.1,195.2z"/>
									<g>
										<g>
											<g>
												<path class="st12" d="M135.3,174.4c3.2-3.3,8-4.6,12.4-3.2c0.6,0.2,1.1,0.5,1.4,0.9c0.4-0.8-0.3-2.2-1.8-2.6
													c-4.4-1.3-9.2-0.1-12.4,3.2c-1.1,1.1-1.1,2.5-0.4,3.1C134.7,175.3,134.9,174.8,135.3,174.4z"/>
											</g>
										</g>
									</g>
									<g>
										<g>
											<g>
												<path class="st12" d="M200.1,174.5c-3.2-3.3-8-4.6-12.4-3.2c-0.6,0.2-1.1,0.5-1.4,0.9c-0.4-0.8,0.3-2.2,1.8-2.6
													c4.4-1.3,9.2-0.1,12.4,3.2c1.1,1.1,1.1,2.5,0.4,3.1C200.8,175.4,200.6,174.9,200.1,174.5z"/>
											</g>
										</g>
									</g>
									<g>
										<path class="st11" d="M137.6,200.1c0,0.4-0.4,0.8-0.8,0.8c-0.4,0-0.8-0.4-0.8-0.8c0-0.4,0.4-0.8,0.8-0.8
											C137.2,199.3,137.6,199.6,137.6,200.1z"/>
										<path class="st11" d="M142.1,195.7c0,0.4-0.4,0.8-0.8,0.8c-0.4,0-0.8-0.4-0.8-0.8s0.4-0.8,0.8-0.8
											C141.7,194.9,142.1,195.3,142.1,195.7z"/>
										<path class="st11" d="M144.2,200.1c0,0.4-0.4,0.8-0.8,0.8c-0.4,0-0.8-0.4-0.8-0.8c0-0.4,0.4-0.8,0.8-0.8
											C143.8,199.3,144.2,199.6,144.2,200.1z"/>
										<path class="st11" d="M134.5,197.3c0,0.4-0.4,0.8-0.8,0.8c-0.4,0-0.8-0.4-0.8-0.8s0.4-0.8,0.8-0.8
											C134.1,196.5,134.5,196.9,134.5,197.3z"/>
										<path class="st11" d="M147.6,197.3c0,0.4-0.4,0.8-0.8,0.8c-0.4,0-0.8-0.4-0.8-0.8s0.4-0.8,0.8-0.8
											C147.3,196.5,147.6,196.9,147.6,197.3z"/>
									</g>
									<g>
										<path class="st11" d="M199.6,199.5c0,0.4,0.4,0.8,0.8,0.8c0.4,0,0.8-0.4,0.8-0.8c0-0.4-0.4-0.8-0.8-0.8
											C200,198.7,199.6,199.1,199.6,199.5z"/>
										<path class="st11" d="M195.1,195.2c0,0.4,0.4,0.8,0.8,0.8c0.4,0,0.8-0.4,0.8-0.8s-0.4-0.8-0.8-0.8
											C195.4,194.4,195.1,194.7,195.1,195.2z"/>
										<path class="st11" d="M193,199.5c0,0.4,0.4,0.8,0.8,0.8c0.4,0,0.8-0.4,0.8-0.8c0-0.4-0.4-0.8-0.8-0.8
											C193.3,198.7,193,199.1,193,199.5z"/>
										<path class="st11" d="M202.7,196.8c0,0.4,0.4,0.8,0.8,0.8c0.4,0,0.8-0.4,0.8-0.8c0-0.4-0.4-0.8-0.8-0.8
											C203,196,202.7,196.3,202.7,196.8z"/>
										<path class="st11" d="M189.5,196.8c0,0.4,0.4,0.8,0.8,0.8c0.4,0,0.8-0.4,0.8-0.8c0-0.4-0.4-0.8-0.8-0.8
											C189.9,196,189.5,196.3,189.5,196.8z"/>
									</g>
									<path class="st12" d="M222.6,196.2l-4.4,8.5l-0.8-29.7c0-32-32.1-32.3-32.1-32.3l-11.1-21.3c20-5.4,39.2,9.7,39.2,9.7
										s20.7,9.4,13.1,64.1C226.5,195.2,224,195.2,222.6,196.2z"/>
									<path class="st12" d="M221.2,166.8l6.9,11.5c13.8-66.7-46.7-72.1-46.7-72.1c-20-0.4-44.6,8.2-38.4,33.2
										c0,0,11.2,18,42.5,23.2c0,0-6.1-3.3-5.4-11C180,151.5,194.2,174.9,221.2,166.8z"/>
									<g>
										<path class="st12" d="M103.9,117.6c0,0-39.4,11.8-7.5,104.6c0,0,4.9,18.4-5.3,24.6c0,0,11.3-1,13.7-13.3
											c0,0,5.8,3.8,2.4,13.3c0,0,13.3-13.9-0.5-52.4c0,0-15.7-46.1,3.8-57.6l10.4-14.3C121,122.5,117.6,111.2,103.9,117.6z"/>
									</g>
									<g>
										<path class="st13" d="M124.7,120.8c2.8,1.9,3.9,5.1,2.5,7.3l-9,13.4c-1.4,2.2-4.9,2.4-7.7,0.5l0,0
											c-2.8-1.9-3.9-5.1-2.5-7.3l9-13.4C118.4,119.2,121.9,119,124.7,120.8L124.7,120.8z"/>
										<path class="st14" d="M126.7,122.8c-0.1,0.1-0.2,0.2-0.4,0.2c-2.5,1.1-4.4,3.6-4.2,6.5c0.1,1.2,0.5,1.4,1.4,1.6
											c0.3,0.1,1.1,0,1.8-0.3l1.8-2.7C128.2,126.6,127.9,124.5,126.7,122.8z"/>
										<path class="st15" d="M118.7,120c-0.7,0.3-1.3,0.7-1.7,1.4l-9,13.4c-1.4,2.2-0.3,5.4,2.5,7.3c2.8,1.9,6.3,1.7,7.7-0.5
											l2.7-4C113.4,134.5,114,125.2,118.7,120z"/>
									</g>
									<g>
										<path class="st12" d="M241.2,128.8c0,0,39.4,11.8,7.5,104.6c0,0-4.9,18.4,5.3,24.6c0,0-11.3-1-13.7-13.3
											c0,0-5.8,3.8-2.4,13.3c0,0-13.3-13.9,0.5-52.4c0,0,15.7-46.1-3.8-57.6l-10.4-14.3C224.2,133.7,227.6,122.5,241.2,128.8z"
											/>
									</g>
									<g>
										<path class="st13" d="M220.5,132.1c-2.8,1.9-3.9,5.1-2.5,7.3l9,13.4c1.4,2.2,4.9,2.4,7.7,0.5l0,0c2.8-1.9,3.9-5.1,2.5-7.3
											l-9-13.4C226.8,130.4,223.3,130.2,220.5,132.1L220.5,132.1z"/>
										<path class="st14" d="M218.5,134c0.1,0.1,0.2,0.2,0.4,0.2c2.5,1.1,4.4,3.6,4.2,6.5c-0.1,1.2-0.5,1.4-1.4,1.6
											c-0.3,0.1-1.1,0-1.8-0.2l-1.8-2.7C217,137.9,217.3,135.8,218.5,134z"/>
										<path class="st15" d="M226.5,131.2c0.7,0.3,1.3,0.7,1.7,1.4l9,13.4c1.4,2.2,0.3,5.4-2.5,7.3c-2.8,1.9-6.3,1.7-7.7-0.5
											l-2.7-4C231.8,145.8,231.2,136.5,226.5,131.2z"/>
									</g>
									<g>
										<path class="st16" d="M165.3,202.9c-0.4,1.5-1.7,4.3-3.2,4.1c-4.6-0.6,0.9-9.5,2.2-12.7c1.9-4.3,3.8-9.6,6.8-2.7
											c3.4,7.8,5.9,12.9,4.7,14c-2.3,2.1-3.7-0.3-4.1-2.5c-0.6,1.6-0.5,5.1-3.2,5c-2.2-0.1-2.6-2.9-3.1-4.6"/>
									</g>
									<g>
										<path class="st14" d="M158.5,186.4c0,0-5.2-9.2-12.7-9.2c-4,0-9.3,0.9-13.3,10.3C132.4,187.4,144.1,197.3,158.5,186.4z"/>
										<g>
											<path class="st17" d="M140.6,184.5c0.2,2.9,2.7,5.1,5.6,4.8c2.9-0.2,5.1-2.7,4.8-5.6c-0.2-2.9-2.1-4.7-5-4.5
												C143.1,179.4,140.4,181.6,140.6,184.5z"/>
											<path class="st18" d="M144.8,186.1c1,0.5,2.1,0.1,2.6-0.9c0.5-1,0.1-2.1-0.9-2.6c-1-0.5-1.9-0.2-2.4,0.8
												C143.7,184.3,143.9,185.6,144.8,186.1z"/>
											<path class="st14" d="M145.2,183.3c0.7,0.3,1.5,0,1.8-0.6c0.3-0.7,0-1.5-0.6-1.8c-0.7-0.3-1.3-0.1-1.7,0.5
												C144.4,182.1,144.5,183,145.2,183.3z"/>
											<path class="st14" d="M145.9,185.9c-0.1-0.4-0.5-0.7-0.9-0.6c-0.4,0.1-0.7,0.5-0.6,1c0.1,0.4,0.4,0.7,0.9,0.6
												C145.6,186.7,146,186.3,145.9,185.9z"/>
										</g>
									</g>
									<path class="st19" d="M142.1,216.4c0,5.1-4.1,9.2-9.2,9.2c-5.1,0-9.2-4.1-9.2-9.2c0-5.1,3.3-9.6,8.4-9.6
										C137.1,206.9,142.1,211.3,142.1,216.4z"/>
									<path class="st19" d="M213.3,216.8c0,5.1-4.1,9.2-9.2,9.2s-9.2-4.1-9.2-9.2c0-5.1,3.3-9.6,8.4-9.6
										C208.3,207.2,213.3,211.7,213.3,216.8z"/>
									<g>
										<path class="st14" d="M177.9,185.7c0,0,5.2-9.2,12.7-9.2c4,0,9.3,0.9,13.3,10.3C203.9,186.7,192.3,196.6,177.9,185.7z"/>
										<g>
											<path class="st17" d="M195.8,183.8c-0.2,2.9-2.7,5.1-5.6,4.8c-2.9-0.2-5.1-2.7-4.8-5.6c0.2-2.9,2.1-4.7,5-4.5
												C193.2,178.7,196,180.9,195.8,183.8z"/>
											<path class="st18" d="M191.5,185.4c-1,0.5-2.1,0.1-2.6-0.9c-0.5-1-0.1-2.1,0.9-2.6c1-0.5,1.9-0.2,2.4,0.8
												C192.7,183.6,192.5,184.9,191.5,185.4z"/>
											<path class="st14" d="M191.2,182.6c-0.7,0.3-1.5,0-1.8-0.6c-0.3-0.7,0-1.5,0.6-1.8c0.7-0.3,1.3-0.1,1.7,0.5
												C192,181.3,191.8,182.3,191.2,182.6z"/>
											<path class="st14" d="M190.4,185.1c0.1-0.4,0.5-0.7,0.9-0.6c0.4,0.1,0.7,0.5,0.6,1c-0.1,0.4-0.4,0.7-0.9,0.6
												C190.7,186,190.3,185.6,190.4,185.1z"/>
										</g>
									</g>
								</g>
								<path class="st4" d="M228.7,270.9l17.3,18.8c0,0,4.6,15.3-10.6,12.2l-18.2-12L228.7,270.9z"/>
								<path class="st4" d="M103.9,269.4l-17.3,18.8c0,0-4.6,15.3,10.6,12.2l18.2-12L103.9,269.4z"/>
								<path class="st4" d="M184.4,242.4h3.8l13.4,2.6c0,0,9.5,3.5,12.6,6.5l18.6,15.5l-16.1,25l-15.1-4.2c0,0,2.8,23.3,0,38.8
									h-23.7h-22.2H132c-2.8-15.5,0-38.8,0-38.8l-15.1,4.2l-16.1-25l18.6-15.5c3.1-3,12.6-6.5,12.6-6.5l13.4-2.6h3.8H184.4z"/>
								<path class="st11" d="M156.8,249c4.5,1.4,8.9,2.5,13.7,1.9c7-0.8,13.6-3.8,18.5-8.5h-43.7
									C147.9,245.8,153.2,247.8,156.8,249z"/>
								<path class="st20" d="M184.4,242.4h3.8l13.4,2.6c0,0,9.5,3.5,12.6,6.5l18.6,15.5l-16.1,25l-15.1-4.2c0,0,2.8,23.3,0,38.8
									h-23.7h-22.2H132c-2.8-15.5,0-38.8,0-38.8l-15.1,4.2l-16.1-25l18.6-15.5c3.1-3,12.6-6.5,12.6-6.5l13.4-2.6h3.8
									c0,0-2.7,15.1,17.6,16.5C166.8,259,184.7,258.7,184.4,242.4z"/>
								<path class="st7" d="M165.1,322.8c-17.6-2.3-31.3-12.5-33.6-30c-0.7,7.7-1.5,22.7,0.5,33.8h69.6c0.4-2.5,0.8-5.1,1-7.9
									C191.1,324.1,175.7,324.2,165.1,322.8z"/>
								<path class="st7" d="M186.4,246.1c-0.2,4.8,7.2,2.8,9.9,3.3c2.5,0.5,4.1,2.3,5.1,4.5c1.7,3.6,1.2,6.1,4.9,8.4
									c2.2,1.4,4.6,2.6,6.7,4.3c5,4.1,5.2,10.8,5.4,16.9c0.1,2.1,0,4.2-0.2,6.2l14.6-22.7l-18.6-15.5c-3.1-3-12.6-6.5-12.6-6.5
									l-13.4-2.6h-3.8c0,0.2,0,0.4,0,0.7C185.5,243.5,186.4,244.5,186.4,246.1z"/>
								<path class="st7" d="M119.5,264.7c6.8-11.6,18.5-15.3,29-22.3h-3.1L132,245c0,0-9.5,3.5-12.6,6.5L100.9,267l16.1,25l1.8-0.5
									C115.1,283,114.6,273.2,119.5,264.7z"/>
								<g>
									<g>
										<path class="st14" d="M133,250.6c0,2.8-2.3,5.2-5,5.2s-5-2.3-5-5.2c0-2.8,2.3-5.2,5-5.2S133,247.8,133,250.6z"/>
										<path class="st14" d="M134,259.4c0,2.6-2,4.7-4.6,4.7c-2.5,0-4.5-2.1-4.5-4.7c0-2.6,2-4.7,4.5-4.7
											C132,254.8,134,256.9,134,259.4z"/>
										<path class="st14" d="M135.3,267.7c0,2.6-2,4.7-4.6,4.7c-2.5,0-4.5-2.1-4.5-4.7c0-2.6,2-4.7,4.5-4.7
											C133.3,263.1,135.3,265.2,135.3,267.7z"/>
										<path class="st14" d="M135.3,276.1c0,2.6-2,4.6-4.6,4.6c-2.5,0-4.5-2.1-4.5-4.6c0-2.6,2-4.7,4.5-4.7
											C133.3,271.5,135.3,273.6,135.3,276.1z"/>
										<path class="st14" d="M135.3,283.6c0,2.6-2,4.7-4.6,4.7c-2.5,0-4.5-2.1-4.5-4.7s2-4.7,4.5-4.7
											C133.3,278.9,135.3,281,135.3,283.6z"/>
									</g>
									<g>
										<path class="st11" d="M134.7,250.1c0,2.8-2.3,5-5,5c-2.8,0-5-2.2-5-5c0-2.8,2.3-5,5-5
											C132.4,245.1,134.7,247.4,134.7,250.1z"/>
										<path class="st11" d="M135.7,258.7c0,2.5-2,4.5-4.5,4.5c-2.5,0-4.5-2-4.5-4.5c0-2.5,2-4.5,4.5-4.5
											C133.7,254.2,135.7,256.2,135.7,258.7z"/>
										<ellipse class="st11" cx="132.5" cy="266.8" rx="4.5" ry="4.5"/>
										<ellipse class="st11" cx="132.5" cy="274.9" rx="4.5" ry="4.5"/>
										<ellipse class="st11" cx="132.5" cy="282.2" rx="4.5" ry="4.5"/>
									</g>
								</g>
								<g>
									<g>
										<path class="st14" d="M198.5,250.1c0,2.8,2.3,5.2,5,5.2c2.8,0,5-2.3,5-5.2c0-2.8-2.3-5.2-5-5.2
											C200.7,244.9,198.5,247.2,198.5,250.1z"/>
										<path class="st14" d="M197.4,258.8c0,2.6,2,4.7,4.5,4.7c2.5,0,4.5-2.1,4.5-4.7c0-2.6-2-4.6-4.5-4.6
											C199.5,254.2,197.4,256.3,197.4,258.8z"/>
										<path class="st14" d="M196.1,267.1c0,2.6,2,4.6,4.5,4.6c2.5,0,4.5-2.1,4.5-4.6c0-2.6-2-4.7-4.5-4.7
											C198.1,262.5,196.1,264.6,196.1,267.1z"/>
										<ellipse class="st14" cx="200.7" cy="275.6" rx="4.5" ry="4.7"/>
										<path class="st14" d="M196.1,283c0,2.6,2,4.6,4.5,4.6c2.5,0,4.5-2.1,4.5-4.6c0-2.6-2-4.7-4.5-4.7
											C198.1,278.4,196.1,280.4,196.1,283z"/>
									</g>
									<g>
										<path class="st11" d="M196.8,249.6c0,2.8,2.3,5,5,5c2.8,0,5-2.2,5-5c0-2.8-2.3-5-5-5C199,244.5,196.8,246.8,196.8,249.6z"
											/>
										<path class="st11" d="M195.7,258.1c0,2.5,2,4.5,4.6,4.5c2.5,0,4.5-2,4.5-4.5c0-2.5-2-4.5-4.5-4.5
											C197.8,253.6,195.7,255.6,195.7,258.1z"/>
										<path class="st11" d="M194.4,266.2c0,2.5,2,4.5,4.6,4.5c2.5,0,4.5-2,4.5-4.5c0-2.5-2-4.5-4.5-4.5
											C196.5,261.7,194.4,263.7,194.4,266.2z"/>
										<path class="st11" d="M194.4,274.4c0,2.5,2,4.5,4.6,4.5c2.5,0,4.5-2,4.5-4.5c0-2.5-2-4.5-4.5-4.5
											C196.5,269.8,194.4,271.9,194.4,274.4z"/>
										<path class="st11" d="M194.4,281.6c0,2.5,2,4.5,4.6,4.5c2.5,0,4.5-2,4.5-4.5c0-2.5-2-4.5-4.5-4.5
											C196.5,277.1,194.4,279.1,194.4,281.6z"/>
									</g>
								</g>
								<path class="st21" d="M137.6,243.9c0,0-2.9,28.5,27.5,31.5c0,0,27.6,2.5,29.4-31.5l7.2,1.1c0,0-4.7,15.2,0,42.9
									c0,0,3.6,21.7,0,38.8l-1.2,3h-68.8c0,0-3.2-28.9,0.4-41.8c0,0,3.3-31-2.6-42.4L137.6,243.9z"/>
								<path class="st15" d="M194.7,318.3c-7,0.2-13.5,3-20.5,3.1c-9.3,0.1-25.7-4.8-19.5-17.5c1.3-2.6,5.3-7.5,3.2-10.4
									c-1.9-2.6-5.2-4.3-7.7-6.2c-4.7-3.6-8.6-8.5-10.7-14.1c-2.6-6.8-2.8-13.8-1.3-20.6c-1-4.9-0.6-8.7-0.6-8.7l-8.1,1.5
									c5.9,11.4,2.6,42.4,2.6,42.4c-3.7,12.9-0.4,41.8-0.4,41.8h68.8l1.2-3c0.5-2.5,0.9-5,1.1-7.6
									C200.1,318.6,197.4,318.2,194.7,318.3z"/>
								<path class="st22" d="M137.6,243.9c0,0-2.9,28.5,27.5,31.5c0,0,27.6,2.5,29.4-31.5l3.6,0.5c0,0,1.5,37.1-33,35
									c0,0-30.2,1.8-31.3-34.6L137.6,243.9z"/>
								<g>
									<path class="st4" d="M86.8,300.1c4.6,2.2,9.8,3,14.8,3.3c4.1,0.3,8.2,0.4,12.3,0.3c4-0.1,8-0.8,12-0.8
										c0.5,0,8.7,0.3,8.6,0.7c0,0,0.7-9.9,0.7-9.9c-10,1-13.4-1.1-13.4-1.1c-20.3-7-34.2-5.1-34.2-5.1s-3.4,1.3-4.1,6.3
										C83.5,293.8,83.5,298.5,86.8,300.1z"/>
									<g>
										<g>
											<path class="st23" d="M121.8,292.6c0,0-0.4-0.1-1.2-0.3c-0.8-0.2-1.9-0.4-3.1-0.8c-1.3-0.3-2.8-0.6-4.4-1
												c-0.8-0.2-1.7-0.4-2.5-0.5c-0.9-0.2-1.7-0.4-2.6-0.5c-0.9-0.2-1.7-0.3-2.6-0.5c-0.9-0.1-1.7-0.3-2.5-0.4
												c-0.8-0.1-1.6-0.2-2.4-0.4c-0.8-0.1-1.5-0.2-2.1-0.3c-1.3-0.1-2.4-0.3-3.2-0.4c-0.8-0.1-1.2-0.1-1.2-0.1s0.4,0,1.2-0.1
												c0.8,0,1.9-0.1,3.3,0c0.7,0,1.4,0.1,2.2,0.1c0.8,0.1,1.6,0.1,2.4,0.2c0.8,0.1,1.7,0.2,2.6,0.3c0.9,0.2,1.8,0.3,2.6,0.5
												c1.8,0.3,3.5,0.8,5.1,1.2c1.6,0.5,3.1,1,4.4,1.4c1.3,0.5,2.3,0.9,3,1.2C121.4,292.5,121.8,292.6,121.8,292.6z"/>
										</g>
									</g>
									<path class="st24" d="M135.3,293.7c0,0,14.2,0.5,16.8,10.5c0,0,1.1,2.4-1.6,2c0,0-1.9-3.7-3.9-4.4c0,0,2.4,4.5,2,9.3
										c0,0-2,1.5-3.2-0.5c0,0,0-3.5-1.7-6.1c0,0,1.3,5.1-0.1,6.4c0,0-2.1,0.7-2.5-1.2l-0.8-4.2l-2.5,3c0,0-2.4,1.2-2.3-1.4
										l1.3-2.6c0,0-2,0-4.2-1.3L135.3,293.7z"/>
								</g>
								<g>
									<path class="st4" d="M245.8,301.6c-4.6,2.2-9.8,3-14.8,3.3c-4.1,0.3-8.2,0.4-12.3,0.3c-4-0.1-8-0.8-12-0.8
										c-0.5,0-8.7,0.3-8.6,0.7c0,0-0.7-9.9-0.7-9.9c10,1,13.4-1.1,13.4-1.1c20.3-7,34.2-5.1,34.2-5.1s3.4,1.3,4.1,6.3
										C249.1,295.3,249.1,300,245.8,301.6z"/>
									<g>
										<g>
											<path class="st23" d="M210.8,294.1c0,0,0.4-0.2,1.1-0.5c0.7-0.3,1.8-0.7,3-1.2c1.3-0.4,2.8-0.9,4.4-1.4
												c1.6-0.4,3.4-0.9,5.1-1.2c0.9-0.2,1.8-0.3,2.6-0.5c0.9-0.1,1.7-0.2,2.6-0.3c0.8-0.1,1.7-0.2,2.4-0.2
												c0.8-0.1,1.5-0.1,2.2-0.1c1.3-0.1,2.5,0,3.3,0c0.8,0,1.2,0.1,1.2,0.1s-0.4,0.1-1.2,0.1c-0.8,0.1-1.9,0.2-3.2,0.4
												c-0.7,0.1-1.4,0.2-2.1,0.3c-0.8,0.1-1.6,0.2-2.4,0.4c-0.8,0.1-1.7,0.3-2.5,0.4c-0.9,0.2-1.7,0.3-2.6,0.5
												c-0.9,0.1-1.7,0.3-2.6,0.5c-0.9,0.2-1.7,0.4-2.5,0.5c-1.6,0.4-3.1,0.7-4.4,1c-1.3,0.4-2.4,0.6-3.1,0.8
												C211.3,294,210.8,294.1,210.8,294.1z"/>
										</g>
									</g>
									<path class="st24" d="M197.4,295.2c0,0-14.2,0.5-16.8,10.5c0,0-1.1,2.4,1.6,2c0,0,1.9-3.7,3.9-4.4c0,0-2.4,4.5-2,9.3
										c0,0,2,1.5,3.2-0.5c0,0,0-3.5,1.7-6.1c0,0-1.3,5.1,0.1,6.4c0,0,2.1,0.7,2.5-1.2l0.8-4.2l2.5,3c0,0,2.4,1.2,2.3-1.4
										l-1.3-2.6c0,0,2,0,4.2-1.3L197.4,295.2z"/>
								</g>
							</g>
							<polygon class="st24" points="118.1,364.1 125,423.7 143.7,423.7 148.5,362.7 							"/>
							<path class="st25" d="M114.4,344.7c0,0-2.9,15.7,12.5,18V338C126.9,338,116.5,340.8,114.4,344.7z"/>
							<path class="st24" d="M126.9,338.8c0,0-11.6,2-8.8,25.4l30.4-1.5C148.5,362.7,158.3,333.1,126.9,338.8z"/>
							<polygon class="st24" points="213.7,364.1 206.8,423.7 188.1,423.7 183.3,362.7 							"/>
							<path class="st25" d="M217.4,344.7c0,0,2.9,15.7-12.5,18V338C204.9,338,215.2,340.8,217.4,344.7z"/>
							<path class="st24" d="M204.9,338.8c0,0,11.6,2,8.8,25.4l-30.4-1.5C183.3,362.7,173.5,333.1,204.9,338.8z"/>
							<path class="st21" d="M214.6,338.5l-19-11.8h-28.8l0,0h-30.7l-19,11.8c-6.5,3.3-2.3,14.1-2.3,14.1
								c2.3-14.1,17.7-11.6,17.7-11.6c16.1,1.9,16,21.7,16,21.7l17.4-9l17.4,9c0,0-0.1-19.8,16-21.7c0,0,15.3-2.5,17.7,11.6
								C217,352.5,221.2,341.8,214.6,338.5z"/>
							<g>
								<path class="st14" d="M123,350.4c0,2.5-2,4.5-4.5,4.5c-2.5,0-4.5-2-4.5-4.5c0-2.5,2-4.5,4.5-4.5
									C121,345.9,123,347.9,123,350.4z"/>
								<path class="st14" d="M129.3,348.2c0,2.5-2,4.5-4.5,4.5c-2.5,0-4.5-2-4.5-4.5c0-2.5,2-4.5,4.5-4.5
									C127.3,343.7,129.3,345.7,129.3,348.2z"/>
								<path class="st14" d="M136.9,350.4c0,2.5-2,4.5-4.5,4.5c-2.5,0-4.5-2-4.5-4.5c0-2.5,2-4.5,4.5-4.5
									C134.9,345.9,136.9,347.9,136.9,350.4z"/>
								<path class="st14" d="M142.9,354.8c0,2.5-2,4.5-4.5,4.5c-2.5,0-4.5-2-4.5-4.5c0-2.5,2-4.5,4.5-4.5
									C140.9,350.4,142.9,352.4,142.9,354.8z"/>
								<path class="st14" d="M147.4,359.3c0,2.5-2,4.5-4.5,4.5c-2.5,0-4.5-2-4.5-4.5c0-2.5,2-4.5,4.5-4.5
									C145.4,354.8,147.4,356.8,147.4,359.3z"/>
								<path class="st14" d="M151,365.3c0,2.5-2,4.5-4.5,4.5s-4.5-2-4.5-4.5c0-2.5,2-4.5,4.5-4.5S151,362.8,151,365.3z"/>
							</g>
							<g>
								<path class="st14" d="M208.5,352.7c0,2.5,2,4.5,4.5,4.5c2.5,0,4.5-2,4.5-4.5c0-2.5-2-4.5-4.5-4.5
									C210.5,348.2,208.5,350.2,208.5,352.7z"/>
								<circle class="st14" cx="206.3" cy="350.4" r="4.5"/>
								<path class="st14" d="M194.6,352.7c0,2.5,2,4.5,4.5,4.5c2.5,0,4.5-2,4.5-4.5c0-2.5-2-4.5-4.5-4.5
									C196.6,348.2,194.6,350.2,194.6,352.7z"/>
								<path class="st14" d="M188.6,355.4c0,2.5,2,4.5,4.5,4.5c2.5,0,4.5-2,4.5-4.5c0-2.5-2-4.5-4.5-4.5
									C190.6,351,188.6,352.9,188.6,355.4z"/>
								<path class="st14" d="M184.1,359.9c0,2.5,2,4.5,4.5,4.5c2.5,0,4.5-2,4.5-4.5c0-2.5-2-4.5-4.5-4.5
									C186.1,355.4,184.1,357.4,184.1,359.9z"/>
								<path class="st14" d="M180.5,365.9c0,2.5,2,4.5,4.5,4.5c2.5,0,4.5-2,4.5-4.5c0-2.5-2-4.5-4.5-4.5
									C182.5,361.4,180.5,363.4,180.5,365.9z"/>
							</g>
							<path class="st21" d="M214.6,338.5l-19-11.8h-28.8l0,0h-30.7l-19,11.8c-6.5,3.3-2.3,14.1-2.3,14.1
								c2.3-14.1,20.8-1.5,20.8-1.5c11.3,8.5,12.9,18.7,12.9,18.7l16.6-0.1l18.2,0.1c0,0,0.2-16.8,16.3-18.7c0,0,10.2-2.9,17.4,1.5
								C217,352.5,221.2,341.8,214.6,338.5z"/>
							<path class="st27" d="M174.9,361.2c-9.7-3.6-20.1-1.4-30.2-0.5c3.2,5,3.8,9,3.8,9l16.6-0.1l18.2,0.1c0,0,0-1.3,0.4-3.3
								C181,364.2,178.1,362.4,174.9,361.2z"/>
						</g>
						<g>
							<path class="st28" d="M223,337.3c-0.9,1.4-2.6,1.3-5.6,1.3H115.5c-3,0-5.4-0.6-5.4-1.3l-6.3-13.6c0-0.7-2.2-6.9,3.8-6.9
								h118.4c6.7,0.6,3.5,6.3,3.5,7L223,337.3z"/>
							<g>
								<path class="st29" d="M222.6,332.7c0,2.3-2.4,4.2-5.4,4.2H116.1c-3,0-5.4-1.9-5.4-4.2l-5.4-60c0-2.3,2.4-4.2,5.4-4.2h112.8
									c3,0,5.4,1.9,5.4,4.2L222.6,332.7z"/>
								<path class="st30" d="M136.6,283.5c-0.4,8.2,1.4,16.7,7,23.1c8.6,10,22,13.7,34.7,14.4c13.1,0.8,26.5-0.9,37.2-9.2
									c2.9-2.2,5.4-4.7,7.6-7.5l3-28.8c0-2.2-2.3-3.9-5-3.9h-82.1C137.4,275.7,136.7,280.6,136.6,283.5z"/>
							</g>
							<path class="st31" d="M223.6,336.3c0,2-1.6,3.7-3.6,3.7H113.3c-2,0-3.6-1.6-3.6-3.7l0,0c0-2,1.6-3.7,3.6-3.7H220
								C222,332.7,223.6,334.3,223.6,336.3L223.6,336.3z"/>
						</g>
					</g>
				</g>
			</g>
		</g>
	</g>
	<g>
		<path class="st32" d="M269,38.9l-0.3,0.1c0,0,0,0,0-0.1c0-0.2-0.1-0.4-0.2-0.6c-0.2-0.3-0.6-0.5-0.9-0.5
			c-24.8,0.1-50,0.5-74.9,1.3c-0.4-0.4-0.9-0.4-1.3-0.1c-0.3,0.2-0.5,0.6-0.5,1c0,0.3,0,0.6,0.2,0.8c0.2,0.2,0.4,0.4,0.7,0.4
			L207.3,57c-2.1,5-3.5,10-4.3,15.4c-0.1,0.4,0.1,0.8,0.5,1.1c0.3,0.2,0.7,0.2,1.1,0c2.9-1.7,5.7-3.4,8.6-5l1.5,12.9
			c0.1,0.4,0.4,0.8,0.8,0.9c0.1,0,0.2,0,0.3,0c0.3,0,0.6-0.1,0.8-0.4c7.3-9.3,15.8-17.4,25.1-24.1c4.3-3.1,9.1-6,14.1-8.7l0.4-0.2
			c4.4-2.3,9-4.7,12.4-8.7c0.2-0.2,0.3-0.5,0.3-0.8c0-0.1,0-0.2-0.1-0.3L269,38.9z M192,40.9l0-0.2L192,40.9L192,40.9z M205.4,70.5
			c0.8-4.2,2-8.4,3.7-12.3c0.1,0,0.3-0.1,0.4-0.1c5.8-3.1,12.6-4.3,19.2-5.4c3.3-0.6,6.7-1.2,9.9-2c2.9-0.7,5.8-1.6,8.7-2.5
			C233,55,219,62.5,205.4,70.5z M255.2,47.1c-0.8,0.4-1.6,0.9-2.5,1.3c-4.9,2.7-9.7,5.7-14.2,9.1c-8.1,6-15.6,13.2-22.2,21.2
			l-1.4-11.3c14.8-8.3,30-16.1,45.4-23.2C258.8,45.2,257.1,46.1,255.2,47.1z M225.2,51.3l-0.7,0.1c-2.8,0.5-5.6,1-8.4,1.8
			c-0.6,0.2-1.3,0.5-2.2,0.8c-1.7,0.7-4.3,1.8-5.3,1.3c-0.8-0.4-1.7-1.5-2.5-2.4c-0.4-0.5-0.8-0.9-1.1-1.3l-10.2-10.3
			c22.4-0.6,45.2-1.1,67.8-1.2C250.8,45.2,238.2,49,225.2,51.3z"/>
		<path class="st32" d="M199.9,60.9c-0.3,0.1-0.5,0.4-0.6,0.8c-1,7.1-5.3,13.6-12.2,18.3c-6.3,4.2-15.7,7.8-23.1,5.1
			c-1.1-0.4-2.2-1-3.2-1.9c0.2-0.1,0.4-0.2,0.7-0.3c4.9-2.5,9-8.2,9.4-13.3c0.3-3.6-1-6.6-3.8-8.9c-3.1-2.5-7.7-2.1-10.8,0.9
			c-3.6,3.5-3.9,9.2-3,13.4c0.6,2.8,1.9,5.4,3.7,7.6c-14.8,5.5-33-1.1-39.4-14.4c-1-2-1.7-4.3-2.1-6.7c4,0.6,7.9,0.2,11.4-1.3
			c1.7-0.7,7.5-3.5,8.3-8.5c0.6-3.6-1.6-7.5-5.2-9.1c-4.4-2-9.4-0.1-12.2,2.6c-3.2,3.1-5,8.1-4.8,13.7c-4.5-1.3-8.5-3.9-11.4-7.4
			c-5.4-6.7-7.4-16.5-5.4-26.7c0.1-0.4-0.1-0.7-0.3-1c-0.3-0.3-0.7-0.3-1.1-0.2c-0.3,0.1-0.6,0.4-0.6,0.8
			c-2.2,11.4,0.2,22.2,6.6,29.4c3.2,3.6,7.6,6.3,12.4,7.5c1,8.3,5.8,15.4,13.5,20.1c9.4,5.7,21.8,6.9,31.7,3c1.2,1,2.4,1.9,3.8,2.5
			c2.1,0.9,4.5,1.4,7.1,1.4c3.2,0,6.8-0.7,10.8-2.2c9.1-3.4,19.5-11.5,21.2-23.8c0.1-0.4-0.1-0.8-0.4-1
			C200.7,60.9,200.3,60.8,199.9,60.9z M121.9,44.8c2.4-1.2,5.3-1.3,7.5-0.2c1.3,0.6,3.1,1.9,3.7,4.5c1.2,5.2-5,8.6-8.5,9.7
			c-2.9,0.9-6.1,1.1-9.3,0.5C115.1,55.7,115.4,48.1,121.9,44.8z M154.8,68.8c0.4-2.9,1.8-5.2,4.2-6.6h0c2.5-1.5,4.5-1,5.8-0.3
			c2.4,1.4,4,4.5,3.9,7.6c-0.1,4.3-2.8,8.5-7.4,11.1c-0.7,0.4-1.4,0.8-2.1,1.1C156,78.1,154.3,73,154.8,68.8z"/>
	</g>
	<polygon class="st33" points="253.3,86.8 253.5,94.6 260,98.9 252.6,101.5 250.6,109 245.8,102.8 238,103.2 242.5,96.8 239.7,89.5 
		247.2,91.7 	"/>
	<polygon class="st34" points="225.1,92 226.6,95 229.9,95.5 227.5,97.8 228.1,101 225.1,99.5 222.2,101 222.8,97.8 220.4,95.5 
		223.7,95 	"/>
	<polygon class="st35" points="261.5,73.6 262.9,76.5 266.2,77 263.9,79.3 264.4,82.6 261.5,81 258.6,82.6 259.1,79.3 256.7,77 
		260,76.5 	"/>
	<polygon class="st35" points="96.7,80.6 98.2,83.5 101.5,84 99.1,86.3 99.7,89.6 96.7,88 93.8,89.6 94.4,86.3 92,84 95.3,83.5 	"/>
	<polygon class="st14" points="138.1,19.8 139.6,22.7 142.9,23.2 140.5,25.5 141.1,28.8 138.1,27.2 135.2,28.8 135.8,25.5 
		133.4,23.2 136.7,22.7 	"/>
	<polygon class="st33" points="174.3,3.8 174.5,11.6 181,15.9 173.6,18.5 171.6,26 166.8,19.8 159,20.2 163.5,13.8 160.7,6.5 
		168.2,8.7 	"/>
	<polygon class="st14" points="235,6.7 235.6,10 238.6,11.4 235.6,12.9 235.3,16.2 232.9,13.9 229.6,14.5 231.1,11.6 229.5,8.7 
		232.8,9.2 	"/>
</g>
</svg>
