<?xml version="1.0" encoding="utf-8"?>
<!-- Generator: Adobe Illustrator 22.0.1, SVG Export Plug-In . SVG Version: 6.00 Build 0)  -->
<svg version="1.1" id="Слой_1" xmlns="http://www.w3.org/2000/svg" xmlns:xlink="http://www.w3.org/1999/xlink" x="0px" y="0px"
	 viewBox="0 0 1900 877.3" style="enable-background:new 0 0 1900 877.3;" xml:space="preserve">
<style type="text/css">
	.st0{clip-path:url(#SVGID_2_);}
	.st1{fill:#009C53;}
	.st2{fill:#303030;}
	.st3{fill:#CAE977;}
	.st4{fill:#063035;}
	.st5{fill:#DBC95D;}
	.st6{fill:#005621;}
	.st7{fill:#635128;}
	.st8{fill:#6B8C46;}
	.st9{fill:#856037;}
	.st10{fill:#B48B59;}
	.st11{fill:#FFFFFF;}
	.st12{fill:#80BA9C;}
	.st13{fill:#CD5351;}
	.st14{fill:#F49045;}
	.st15{fill:#6D6D6C;}
	.st16{fill:#2CBAE5;}
	.st17{fill:#FFF2E7;}
	.st18{fill:#313130;}
	.st19{fill:#585857;}
	.st20{fill:#3E3E3D;}
	.st21{fill:#6F6F6E;}
	.st22{fill:#AEAEAE;}
</style>
<g>
	<g>
		<g>
			<g>
				<defs>
					<rect id="SVGID_1_" x="-11.8" y="-13.7" width="1922" height="894"/>
				</defs>
				<clipPath id="SVGID_2_">
					<use xlink:href="#SVGID_1_"  style="overflow:visible;"/>
				</clipPath>
				<g class="st0">
					<rect x="-101.1" y="131.6" class="st1" width="2091.2" height="783.4"/>
					<g>
						<g>
							<rect x="1468.5" y="450.7" class="st2" width="10.1" height="50.8"/>
							<path class="st2" d="M1519.2,455.2h-63.8v6.9h63.7C1519.1,459.8,1519.1,457.5,1519.2,455.2z"/>
							<path class="st2" d="M1521.1,490.2h-65.6v6.9h65.2C1521,494.8,1521.1,492.5,1521.1,490.2z"/>
						</g>
						<g>
							<polygon class="st2" points="1230.9,563.5 1231.3,556.5 1304.4,558.5 1304,565.5 							"/>
							<polygon class="st2" points="1235.5,538.6 1237.5,531.8 1309.2,541.8 1307.3,548.6 							"/>
							<polygon class="st2" points="1247.8,513 1252.8,506.9 1316.4,532.1 1311.4,538.2 							"/>
							<polygon class="st2" points="1268.8,490.9 1275.9,485.9 1328,521.6 1320.9,526.6 							"/>
							<polygon class="st2" points="1296,473.8 1304,469.5 1348.2,510 1340.2,514.2 							"/>
							<polygon class="st2" points="1329.6,460 1339,457.4 1365.9,504.7 1356.5,507.3 							"/>
							<polygon class="st2" points="1366.3,452.8 1376.3,451.7 1386.8,502 1376.8,503 							"/>
							<polygon class="st2" points="1402.6,450 1412.7,449.8 1415,500.6 1404.9,500.8 							"/>
							<polygon class="st2" points="1438.4,450 1448.5,450.1 1447.2,500.9 1437.2,500.8 							"/>
							<path class="st2" d="M1288.9,493.8c50.8-35.9,103.9-31.3,168.9-31.7l-0.1-7c-68.2,0.4-122.7-3.9-176,33.7
								c-33.8,23.9-43.4,48.4-45.6,75.1c-0.4,5.2,0,10.5,0,15.9c3.3,0,6.7-0.1,10,0C1246,548.5,1251,520.6,1288.9,493.8z"/>
							<path class="st2" d="M1458.2,490.1c-51.3,0.3-100.9-4.8-140.6,23.3c-20.7,14.6-28.9,31.7-31.2,49.6
								c-0.7,5.6,0.3,11.2,0.3,16.9c3.3,0.1,6.7,0.1,10,0c0.2-22.4,3.6-44.3,28-61.6c36.8-26,85.8-20.8,133.5-21.1L1458.2,490.1z"/>
						</g>
						<g>
							<polygon class="st2" points="1232.1,668.6 1232.5,675.6 1305.5,673.5 1305.2,666.5 							"/>
							<polygon class="st2" points="1236.7,693.4 1238.6,700.3 1310.4,690.3 1308.4,683.5 							"/>
							<polygon class="st2" points="1249,719 1253.9,725.1 1317.5,699.9 1312.6,693.8 							"/>
							<polygon class="st2" points="1269.9,741.1 1277,746.2 1329.1,710.4 1322,705.5 							"/>
							<polygon class="st2" points="1297.2,758.3 1305.2,762.5 1349.3,722.1 1341.4,717.9 							"/>
							<polygon class="st2" points="1330.7,772.1 1340.1,774.6 1367,727.3 1357.7,724.8 							"/>
							<polygon class="st2" points="1367.4,779.3 1377.4,780.3 1388,730 1378,729 							"/>
							<polygon class="st2" points="1403.8,782 1413.9,782.3 1416.2,731.5 1406.1,731.2 							"/>
							<polygon class="st2" points="1439.6,782 1449.7,781.9 1448.4,731.1 1438.3,731.2 							"/>
							<path class="st2" d="M1290.1,738.3c50.8,35.9,103.9,31.3,168.9,31.7l-0.1,7c-68.2-0.4-122.7,3.9-176-33.7
								c-40.4-28.6-45.6-58-45.6-91.1c3.3,0,6.7,0.1,10,0C1247.2,683.4,1252.1,711.4,1290.1,738.3z"/>
							<path class="st2" d="M1459.3,742c-51.3-0.3-100.9,4.8-140.6-23.3c-27.1-19.2-31.1-42.2-31.2-66.4c3.3-0.1,6.7,0.1,10,0.2
								c0.2,22.4,3.9,44,28.3,61.3c36.8,26,85.8,20.8,133.5,21.1L1459.3,742z"/>
						</g>
						<g>
							<polygon class="st2" points="1231,653.4 1230.9,646.4 1304.1,646 1304.1,653 							"/>
							<polygon class="st2" points="1230.7,630.4 1230.6,623.3 1303.8,622.9 1303.9,629.9 							"/>
							<polygon class="st2" points="1230.4,607.2 1230.3,600.3 1303.5,599.8 1303.6,606.8 							"/>
							<polygon class="st2" points="1230.1,584.2 1230,577.2 1303.2,576.7 1303.3,583.7 							"/>
							<path class="st2" d="M1237.5,662.5l10-0.1l-1.2-94.8c-3.3,0-6.7,0.1-10,0.1L1237.5,662.5z"/>
							<path class="st2" d="M1286.7,568.3l1.2,93.8l10-0.1l-1.2-93.8C1293.3,568.3,1290,568.4,1286.7,568.3z"/>
						</g>
					</g>
					<g>
						<g>
							<polygon class="st2" points="1718.3,388.7 1717.9,395.7 1644.8,393.7 1645.2,386.7 							"/>
							<polygon class="st2" points="1713.7,413.6 1711.7,420.5 1640,410.5 1641.9,403.6 							"/>
							<polygon class="st2" points="1701.4,439.2 1696.4,445.3 1632.8,420.1 1637.8,414 							"/>
							<polygon class="st2" points="1680.4,461.3 1673.3,466.3 1621.2,430.6 1628.4,425.6 							"/>
							<polygon class="st2" points="1653.2,478.5 1645.2,482.7 1601,442.3 1609,438 							"/>
							<polygon class="st2" points="1619.6,492.2 1610.2,494.8 1583.3,447.5 1592.7,444.9 							"/>
							<polygon class="st2" points="1582.9,499.5 1573,500.5 1562.4,450.2 1572.4,449.2 							"/>
							<polygon class="st2" points="1546.6,502.2 1536.5,502.5 1534.2,451.6 1544.3,451.4 							"/>
							<polygon class="st2" points="1510.8,502.2 1500.7,502.1 1502,451.3 1512.1,451.4 							"/>
							<path class="st2" d="M1660.3,458.5c-50.8,35.9-103.9,31.3-168.9,31.7l0.1,7c68.2-0.4,122.7,3.9,176-33.7
								c40.4-28.6,45.6-58,45.6-91.1c-3.3,0-6.7,0.1-10,0C1703.2,403.6,1698.3,431.6,1660.3,458.5z"/>
							<path class="st2" d="M1491.1,462.2c51.3-0.3,100.9,4.8,140.6-23.3c27.1-19.2,31.1-42.2,31.2-66.4c-3.3-0.1-6.7,0.1-10,0.2
								c-0.2,22.4-3.9,44-28.3,61.3c-36.8,26-85.8,20.8-133.5,21.1L1491.1,462.2z"/>
						</g>
						<g>
							<polygon class="st2" points="1719.4,373.6 1719.5,366.6 1646.3,366.1 1646.2,373.1 							"/>
							<polygon class="st2" points="1719.7,350.5 1719.7,343.5 1646.6,343.1 1646.5,350.1 							"/>
							<polygon class="st2" points="1720,327.4 1720,320.5 1646.9,320 1646.8,327 							"/>
							<polygon class="st2" points="1720.2,304.4 1720.3,297.3 1647.2,296.9 1647.1,303.9 							"/>
							<path class="st2" d="M1712.9,382.6l-10-0.1l1.2-94.8c3.3,0,6.7,0.1,10,0.1L1712.9,382.6z"/>
							<path class="st2" d="M1663.7,288.5l-1.2,93.8l-10-0.1l1.2-93.8C1657,288.5,1660.4,288.5,1663.7,288.5z"/>
						</g>
						<g>
							<polygon class="st2" points="1720.6,282.1 1720.6,275.1 1647.5,274.6 1647.4,281.6 							"/>
							<polygon class="st2" points="1720.8,259 1720.9,252 1647.8,251.6 1647.7,258.6 							"/>
							<polygon class="st2" points="1721.1,235.9 1721.2,229 1648.1,228.5 1648,235.5 							"/>
							<polygon class="st2" points="1721.4,212.9 1721.5,205.8 1648.4,205.4 1648.3,212.4 							"/>
							<path class="st2" d="M1714,291.1l-10-0.1l1.2-101.1c3.3,0,7,0.5,10.3,0.5L1714,291.1z"/>
							<path class="st2" d="M1665.2,187.4l-1.5,103.4l-10-0.1l1-104.3C1658.1,186.5,1661.9,187.5,1665.2,187.4z"/>
						</g>
						<g>
							<polygon class="st2" points="1722.1,194 1722.2,187 1648.5,186.5 1648.4,193.5 							"/>
							<polygon class="st2" points="1722.4,170.9 1722.5,163.9 1648.8,163.4 1648.7,170.5 							"/>
							<polygon class="st2" points="1722.7,147.8 1722.8,140.8 1649,140.4 1649,147.3 							"/>
							<polygon class="st2" points="1715.5,203 1705.5,203 1706.4,131.7 1716.8,131.7 							"/>
							<polygon class="st2" points="1665.7,131.7 1664.8,202.7 1654.7,202.7 1655.5,131.6 							"/>
						</g>
					</g>
					<g>
						<g>
							<g>
								<rect x="1504.7" y="730.6" class="st2" width="10.1" height="50.8"/>
								<rect x="1471.5" y="730.6" class="st2" width="10.1" height="50.8"/>
								<rect x="1438.3" y="730.6" class="st2" width="10" height="50.8"/>
								<rect x="1405" y="730.6" class="st2" width="10.1" height="50.8"/>
								<path class="st2" d="M1527.8,735v6.9h-136.5c0-2.3,0-4.6,0-6.9H1527.8z"/>
								<path class="st2" d="M1392.8,770h135v6.9h-135C1392.9,774.6,1392.9,772.3,1392.8,770z"/>
							</g>
							<g>
								<polygon class="st2" points="1752.3,843.3 1751.9,836.3 1678.9,838.3 1679.3,845.3 								"/>
								<polygon class="st2" points="1747.7,818.5 1745.8,811.6 1674,821.6 1676,828.4 								"/>
								<polygon class="st2" points="1735.4,792.8 1730.5,786.8 1666.9,812 1671.8,818.1 								"/>
								<polygon class="st2" points="1714.5,770.7 1707.4,765.7 1655.3,801.4 1662.4,806.4 								"/>
								<polygon class="st2" points="1687.2,753.6 1679.2,749.4 1635.1,789.8 1643,794 								"/>
								<polygon class="st2" points="1653.7,739.8 1644.3,737.3 1617.4,784.6 1626.7,787.1 								"/>
								<polygon class="st2" points="1617,732.6 1607,731.6 1596.4,781.9 1606.4,782.9 								"/>
								<polygon class="st2" points="1580.6,729.9 1570.5,729.6 1568.2,780.4 1578.3,780.7 								"/>
								<polygon class="st2" points="1544.8,729.8 1534.7,730 1536,780.7 1546.1,780.7 								"/>
								<path class="st2" d="M1694.3,773.6c-50.8-35.9-103.9-31.3-168.9-31.7l0.1-7c68.2,0.4,122.7-3.9,176,33.7
									c33.8,23.9,43.4,48.4,45.6,75.1c0.4,5.2,0,10.5,0,15.9c-3.3,0-6.7-0.1-10,0C1737.2,828.4,1732.3,800.4,1694.3,773.6z"/>
								<path class="st2" d="M1525.1,769.9c51.3,0.3,100.9-4.8,140.6,23.3c20.7,14.6,28.9,31.7,31.2,49.6c0.7,5.6-0.3,11.2-0.3,16.9
									c-3.3,0.1-6.7,0.1-10,0c-0.2-22.4-3.6-44.3-28-61.6c-36.8-26-85.8-20.8-133.5-21.1L1525.1,769.9z"/>
							</g>
							<g>
								<polygon class="st2" points="1753.1,864 1753.2,857 1680.1,856.6 1680,863.6 								"/>
								<path class="st2" d="M1745.7,942.3l-10-0.1l1.2-94.8c3.3,0,6.7,0.1,10,0.1L1745.7,942.3z"/>
								<path class="st2" d="M1696.6,848.2l-1.2,93.8l-10-0.1l1.2-93.8C1689.9,848.2,1693.2,848.2,1696.6,848.2z"/>
							</g>
						</g>
					</g>
					<g>
						<g>
							<g>
								<g>
									<path class="st3" d="M1405.3,302.8c0,0-30.1-3.6-42.9-22.1c-12.8-18.6-14.8-56.8,0-75.4s41.5-32.8,61.9-20.1
										c20.4,12.6,40.1,62.8,26,87.6C1436.3,297.7,1415.9,301.7,1405.3,302.8z"/>
								</g>
							</g>
							<g>
								<path class="st4" d="M1393.3,393.7c0,0,3.9-110.1,2.7-113.6c-1.1-3.5-14.8-19.4-14.8-19.4s17.6,14.4,19.2,8.5
									c1.6-6,4.9-51.2,4.9-51.2s1.1,45.8,5.5,45.3s22.5-18.4,22.5-18.4s-20.9,23.9-20.9,32.8s1.7,116.1,1.7,116.1h-20.8
									L1393.3,393.7L1393.3,393.7z"/>
							</g>
						</g>
					</g>
					<g>
						<path class="st5" d="M207.6,9.3c-17-4.9-36.2-4.8-50.5,2.1c-22.8,10.9-33,27.7-25.3,42.5c0.3,0.6,0.4,1.2,0.1,1.8
							c-1.4,2.8-8.4,0.8-11.5,0.4c-4.6-0.6-9.4-0.7-14.1-0.5C96.8,56,87.5,58,80.4,61.3C73,64.6,68.1,69.2,64.7,74
							c-11.7,16.1-5.1,36.2,17.9,48.7c4.7,2.6,10.1,4.8,16,6.8c13.9,4.6,24.1,11.2,30.4,18.9c1.6,2,3.9,3.8,6.9,5.4
							c8.9,4.7,22.7,7.1,35.9,6.1c14.5-1.1,28.8-6.2,37.9-11.9c4.3-2.7,6.7-6.5,7.7-10.5c0.2-0.7,0.4-1.3,0.6-2
							c-0.1-1.2-0.1-2.4,0.1-3.7c0.2-1.2,0.6-2.3,1.3-3.5c-1.6-7.2,22.9-10.7,26.7-13.3c5.6-3.8,8.8-10.7,8.7-17.5
							c0-6.8-3-13.4-7.6-18.4c-3.6-4-8.4-7.4-9.4-12.7c-1.3-6.6,3.9-12.6,5.6-19.1c2.2-8.8-2.4-18.2-9.2-24.2
							C227,16.9,217.7,12.2,207.6,9.3z"/>
						<path class="st6" d="M187.1,64.7c-0.1-0.1-0.3-0.2-0.7-0.2c-1.3,0.1-2.5,2.3-3.3,3.1c-1.4,1.4-2.7,2.7-4.1,4.1
							c-3.4,3.5-6.8,6.9-10.3,10.4c0.3-0.7,0.5-1.4,0.8-2.1c1.1-3.1,2.3-6.3,3.4-9.4c0.5-1.4,1.3-2.9,1.6-4.4
							c0.2-0.8-0.4-1.3-1.1-0.7c-0.5,0.4-0.7,1.3-0.9,1.8c-0.5,1.2-0.9,2.3-1.4,3.5c-1.1,2.7-2.2,5.4-3.3,8.1
							c-3.1,7.7-6.3,15.4-9.4,23.2l-0.5-38.7c0-0.9-0.8-1.6-1.7-1.6s-1.5,0.7-1.6,1.6l-3,87.6L131,123.5c0-0.1,0-0.1,0-0.2
							c-1-4.7-2-9.4-2.9-14.1c-0.7-3.2-1.3-6.4-2-9.6c-0.3-1.3-0.5-2.5-0.8-3.8c-0.1-0.5-0.1-1.1-0.3-1.6c-0.2-0.5-1.3-1.4-1.6-0.4
							c-0.1,0.3,0.1,0.8,0.2,1.1c0.2,1,0.3,2,0.5,3c0.4,2.6,0.9,5.3,1.3,7.9c0.7,4.3,1.4,8.6,2.1,12.9c-3-4-6-8-9-12
							c-1.3-1.7-2.5-3.4-3.8-5c-0.5-0.7-1-1.4-1.5-2.1c-0.2-0.3-0.5-0.8-0.9-0.9c-1.5-0.3-0.2,1.6,0.1,2.1c0.4,0.6,0.8,1.2,1.2,1.8
							c1.1,1.7,2.3,3.3,3.4,5c3.1,4.6,6.3,9.2,9.4,13.7c3.5,5.2,7.1,10.3,10.6,15.5c3,4.4,6.1,8.8,9.1,13.2c1.6,2.3,3.2,4.7,4.8,7
							c0.1,0.1,0.2,0.2,0.2,0.3l-3.2,94.3l11.9-0.4L158,110.1l9.2-25.3l0,0c3.5-3.5,6.9-7,10.4-10.5c2.3-2.3,4.7-4.7,7-7
							C185.5,67,187.4,65.3,187.1,64.7z"/>
					</g>
					<g>
						<g>
							<g>
								<polygon class="st7" points="1533.2,140.3 1530.7,140.7 1528.2,140.3 1523.7,205.1 1530.7,205.1 1537.7,205.1 								"/>
							</g>
							<g>
								<polygon class="st8" points="1563.6,155.3 1567.3,155.3 1558.9,136.2 1563.6,136.2 1556.8,121.1 1561,121.1 1551.6,106.5 
									1557.3,106.5 1547.9,87.8 1551.6,87.8 1544.3,71.3 1549.5,71.3 1541.1,57 1546.9,57 1537,43 1541.7,43 1530.7,19 1519.7,43 
									1524.4,43 1514.5,57 1520.2,57 1511.9,71.3 1517.1,71.3 1509.8,87.8 1513.4,87.8 1504,106.5 1509.8,106.5 1500.4,121.1 
									1504.6,121.1 1497.8,136.2 1502.5,136.2 1494.1,155.3 1497.8,155.3 1488.9,172.7 1530.7,172.7 1572.5,172.7 								"/>
							</g>
						</g>
					</g>
					<g>
						<g>
							<g>
								<polygon class="st7" points="1732.3,644.2 1729.1,644.6 1726,644.2 1720.5,724.2 1729.1,724.2 1737.7,724.2 								"/>
							</g>
							<g>
								<polygon class="st8" points="1769.8,662.7 1774.4,662.7 1764,639.1 1769.8,639.1 1761.4,620.4 1766.6,620.4 1755,602.4 
									1762.1,602.4 1750.5,579.2 1755,579.2 1745.9,558.8 1752.4,558.8 1742.1,541.2 1749.2,541.2 1736.9,523.8 1742.7,523.8 
									1729.1,494.2 1715.6,523.8 1721.4,523.8 1709.1,541.2 1716.2,541.2 1705.9,558.8 1712.3,558.8 1703.3,579.2 1707.8,579.2 
									1696.2,602.4 1703.3,602.4 1691.6,620.4 1696.8,620.4 1688.4,639.1 1694.2,639.1 1683.9,662.7 1688.4,662.7 1677.4,684.2 
									1729.1,684.2 1780.8,684.2 								"/>
							</g>
						</g>
					</g>
					<g>
						<g>
							<path class="st9" d="M1130.6,372.8h-30.3c-3.2,0-5.8-2.6-5.8-5.8V157.2c0-3.2,2.6-5.8,5.8-5.8h30.3c3.2,0,5.8,2.6,5.8,5.8
								v209.7C1136.4,370.2,1133.8,372.8,1130.6,372.8z"/>
							<polygon class="st10" points="970.3,253.6 1069,278.6 1063.2,260.2 1220.5,202.1 1196.5,135.7 1039.4,193.8 1031.3,171.8 
															"/>
						</g>
						<g>
							<path class="st11" d="M1068.7,187.8l1.6-0.6c1.8-0.7,4.4,2.6,7.7,9.8c2.2,7.3,2,11.3-0.6,12.4c-2.5,0.9-5.2-2.1-8.2-9.3
								l-0.2-0.8C1067,192.3,1066.9,188.4,1068.7,187.8z M1069.7,188.6c-1.1,2.3-0.9,5.4,0.5,9.2l0.9,2.6c2,4.7,4,7.2,5.7,7.5
								l0.7-0.2c0.7-2.9,0.3-6.2-1.1-9.8l-0.5-1.3C1074.3,191.8,1072.1,189.2,1069.7,188.6z"/>
							<path class="st11" d="M1082.7,182c1.4-0.5,2.6-0.1,3.5,1.4c0.1,0.4,0,0.6-0.5,0.8l-2.6-0.9l-0.7,0.2
								c-1.3,0.6-1.1,3.9,0.6,9.8l0.5,1.3c2.4,6.4,4.4,9.2,6.1,8.6c0.2-0.1,0.8-0.8,1.8-2.1l0.3-0.1c0.5-0.1,0.7,0,0.8,0.3
								c-0.2,1.5-0.9,2.5-2.2,2.9l-0.4,0.1c-2.8,1.1-5.5-1.7-7.9-8.5l-0.6-1.6C1079.1,187.2,1079.4,183.3,1082.7,182z"/>
							<path class="st11" d="M1086,181.4l8.4-3.2c0.5-0.1,0.7,0,0.8,0.3l0.1,0.3c0.1,0.4,0,0.6-0.5,0.8l-3.6,1.3
								c1.9,4.3,3.3,7.9,4.2,10.5l3.5,9.6l-1.3,0.5c-1.2-2.6-2-4.5-2.5-5.7l-5.3-14.3l-3.6,1.3c-0.5,0.1-0.7,0-0.8-0.3l-0.1-0.3
								C1085.5,181.8,1085.7,181.5,1086,181.4z"/>
							<path class="st11" d="M1100.6,176c1-0.3,3.1,2.9,6.6,9.7c0.3-0.1,2.2,3.1,5.7,9.6l-0.6,0.5c-0.8,0.2-2.3-2-4.7-6.7l-2.9,1.1
								c-0.4,0.1-0.1,2.9,0.8,8.1l-0.7,0.2c-0.5,0.1-0.7,0-0.8-0.3c-2.5-13.4-3.8-20.7-3.8-22.1L1100.6,176z M1102.4,180.9
								c0.4,0.9,0.8,3.6,1.5,8.2l2.9-1.1c-2.3-3.8-3.7-6.2-4.1-7.2L1102.4,180.9z"/>
							<path class="st11" d="M1110,172.4c0.5-0.1,0.7,0,0.8,0.3l3.2,8.4l3.3-1.2l-3.2-8.4c-0.1-0.4,0.1-0.7,0.5-0.8l1.2,0.1
								c0.8,3,1.6,5.3,2.1,6.8l5.2,13.8c0.1,0.4,0,0.6-0.5,0.8l-0.4,0.1c-0.5,0.1-0.7,0-0.8-0.3l-2.5-6.7c-0.3-0.9-0.7-2.3-1.2-4.1
								l-3.3,1.2l4,10.6c0.1,0.4,0,0.6-0.5,0.8l-0.3,0.1c-0.5,0.1-0.7,0-0.8-0.3l-4.1-11.2c-0.1-0.2,0-0.3,0.2-0.4
								c-0.1-0.2-0.2-0.3-0.5-0.2l-0.1-1.4l-2.7-7.4C1109.5,172.9,1109.7,172.6,1110,172.4z"/>
							<path class="st11" d="M1123.6,167.4l1.6-0.6c1.8-0.7,4.4,2.6,7.7,9.8c2.2,7.3,2,11.3-0.6,12.4c-2.5,0.9-5.2-2.1-8.2-9.3
								l-0.2-0.8C1121.9,171.8,1121.9,168,1123.6,167.4z M1124.6,168.2c-1.1,2.3-0.9,5.4,0.5,9.2l0.9,2.6c2,4.7,4,7.2,5.7,7.5
								l0.7-0.2c0.7-2.9,0.3-6.2-1.1-9.8l-0.5-1.3C1129.1,171.4,1127,168.8,1124.6,168.2z"/>
							<path class="st11" d="M1134.5,163.3c2.5-0.9,5,0.1,7.1,3.1l0.6,1.6c0.4,1-0.1,2.9-1.6,5.4c2.5,0,4.1,1,4.8,3l0.6,1.6
								c0.8,2.2-0.6,4.4-4.2,6.7c-0.5,0.1-0.7,0-0.8-0.3l-7.4-19.9C1133.4,164.1,1133.7,163.7,1134.5,163.3z M1135.4,164.5l3.3,8.7
								c2-2.1,2.5-3.9,1.8-5.8C1138.7,164.9,1136.9,163.9,1135.4,164.5z M1139.1,174.6l3.1,8.2l0.3-0.1c1.9-1.6,2.4-3.4,1.6-5.4
								C1143.6,175.7,1141.9,174.8,1139.1,174.6z"/>
							<path class="st11" d="M1145,159.1l0.3-0.1c0.5-0.1,0.7,0,0.8,0.3l2.4,6.4l0.3-0.1c0.4-5.4,0.9-8.1,1.4-8.4l0.3-0.1
								c0.5-0.1,0.7,0,0.9,0.6c-0.8,5.8-1.4,9.5-1.8,10.9c6.1,5.8,9.2,9,9.5,9.5l-0.6,0.5l-0.7,0.2c-4.2-4-6.3-6.2-6.5-6.7l-0.3,0.1
								c1.4,4.6,2.3,7.3,2.6,7.8l-0.6,0.5c-0.5,0.1-0.7,0-0.8-0.3l-7.5-20.4C1144.5,159.6,1144.6,159.2,1145,159.1z"/>
							<path class="st11" d="M1157.7,154.7c1-0.3,3.1,2.9,6.6,9.7c0.3-0.1,2.2,3.1,5.7,9.6l-0.6,0.5c-0.8,0.2-2.3-2-4.7-6.7
								l-2.9,1.1c-0.4,0.1-0.1,2.9,0.8,8.1l-0.7,0.2c-0.5,0.1-0.7,0-0.8-0.3c-2.5-13.4-3.8-20.7-3.8-22.1L1157.7,154.7z
								 M1159.6,159.8c0.4,0.9,0.8,3.6,1.5,8.2l2.9-1.1c-2.3-3.8-3.7-6.2-4.1-7.2L1159.6,159.8z"/>
							<path class="st11" d="M1169.1,158l0.9-0.4c0.5-0.1,0.7,0,0.8,0.3l0.2,0.6c0.2,0.6-0.1,1-1,1.2c-0.5,0-0.8,0-1.1,0.1l-0.4-1
								C1168.6,158.4,1168.8,158.2,1169.1,158z M1172.7,166.7l0.3-0.1c0.3-0.1,0.7,0,1.3,0.4l0.2,0.6c0.1,0.4,0,0.6-0.5,0.8
								l-0.9,0.4c-0.5,0.1-0.7,0-0.8-0.3l-0.2-0.6C1171.9,167.5,1172.1,167.2,1172.7,166.7z"/>
							<path class="st11" d="M1055.5,227c4-1.5,7.4-0.1,10.1,4.1l0.2,0.7c0.7,1.9,0.1,4.6-1.8,8c1.9-0.7,4,0.7,6.3,4.2l0.2,0.7
								c0.5,5-1.3,8.3-5.4,9.8l-0.7-0.5l-9.6-25.9C1054.8,227.5,1055,227.3,1055.5,227z M1057.4,228.3l4,10.9l0.4-0.1
								c2-2.3,2.6-4.5,1.8-6.5l-0.2-0.7C1062.6,229.6,1060.6,228.3,1057.4,228.3z M1062.2,241.3l4,10.6c2.4-2,3.3-3.9,2.6-5.6
								l-0.8-2.1C1067.3,242.5,1065.5,241.5,1062.2,241.3z"/>
							<path class="st11" d="M1068.9,222.8l0.9-0.3c0.6-0.2,0.9,0,1.1,0.4l7.4,19.8c1.4,3.1,2.6,4.4,3.9,4l0.9-0.3
								c1.4-0.5,1.5-2.9,0.2-7.1l-3.6-9.9c-0.8-2.3-2-4.9-3.5-8c0.1-0.6,0.1-1,0.1-1.2l0.9-0.3c0.6-0.2,0.9,0,1.1,0.4l0.2,0.7
								c1.9,5.2,4.4,11.3,7.3,18.3c1.2,5,0.3,8.1-2.8,9.2c-3,0.3-5.3-1.5-6.8-5.6l-6.7-18L1068.9,222.8z"/>
							<path class="st11" d="M1087.1,215.8c1-0.4,2.6-0.1,4.6,1l0.1,0.4c0.1,0.5-0.1,0.8-0.6,1l-0.4,0.1c-1.5-0.8-2.8-0.9-4-0.4
								c-1.3,0.7-1.6,2-1.1,3.5c0.6,1.5,3.9,4.3,9.9,8.7c1.7,2.6,2.5,4.2,2.6,4.4c1.1,4.5,0.3,7.2-2.6,8.4l-0.9,0.3
								c-0.4,0.1-1.3-0.1-2.7-0.9l-0.6-1.7l1.7-0.6c0.5,1.1,0.9,1.6,1.5,1.4l1.2-0.5c1.2-0.5,1.2-2.5,0-6.2c-1-2.7-4.2-5.7-9.5-8.9
								c-1.5-1.4-2.4-2.7-2.9-4C1083.1,218.7,1084.3,216.7,1087.1,215.8z"/>
							<path class="st11" d="M1096.9,211.6l0.9-0.3c0.1,0.5,0.4,0.6,0.7,0.5c1.4,4.6,2.5,8.1,3.4,10.4l6,16c0.1,0.5-0.1,0.8-0.6,1
								l-0.4,0.1c-0.6,0.2-0.9,0.1-1.1-0.4l-3.8-10.2c-0.1-0.2,0-0.4,0.3-0.5c-0.1-0.2-0.3-0.3-0.6-0.1l-0.3-1.8l-5.1-13.6
								C1096.2,212.1,1096.4,211.9,1096.9,211.6z"/>
							<path class="st11" d="M1104.7,209.2l1.2-0.5l11.4,16.7l0.5-0.1l-6.8-18.4l1.2-0.5c0.6-0.1,0.9,0,1.1,0.4l9.6,25.9
								c0.1,0.5-0.1,0.8-0.5,1l-1.2,0.5l-11.4-16.7l-0.4,0.1l6.8,18.4l-1.2,0.5c-0.6,0.2-0.9,0.1-1.1-0.4l-9.6-25.9
								C1104,209.7,1104.2,209.3,1104.7,209.2z"/>
							<path class="st11" d="M1119.8,203.2l6.7-2.5l0.4,1c0.1,0.5-0.1,0.8-0.5,1l-4.6,1.8l2,5.4l1.1,4.3l0.9,0l5-1.9l0.5,1.4
								l-1.9,1.1l-3.8,1.4l4.7,12.6l3.8-1.4l2.2-0.4l0.5,1.3l-7,2.6l-0.9,0c-1.9-6.2-3.7-11-5-14.5l-4.6-12.3
								C1119.2,203.7,1119.3,203.3,1119.8,203.2z"/>
							<path class="st11" d="M1133.1,198.6c1-0.4,2.6-0.1,4.6,1l0.1,0.4c0.1,0.5-0.1,0.8-0.6,1l-0.4,0.1c-1.5-0.8-2.8-0.9-4-0.4
								c-1.3,0.7-1.6,2-1.1,3.5c0.6,1.5,3.9,4.3,9.9,8.7c1.7,2.6,2.5,4.2,2.6,4.4c1.1,4.5,0.3,7.2-2.6,8.4l-0.9,0.3
								c-0.4,0.1-1.3-0.1-2.7-0.9l-0.6-1.7l1.7-0.6c0.5,1.1,0.9,1.6,1.5,1.4l1.2-0.5c1.2-0.5,1.2-2.5,0-6.2c-1-2.7-4.2-5.7-9.5-8.9
								c-1.5-1.4-2.4-2.7-2.9-4C1129.2,201.6,1130.4,199.6,1133.1,198.6z"/>
							<path class="st11" d="M1145.3,194c1-0.4,2.6-0.1,4.6,1l0.1,0.4c0.1,0.5-0.1,0.8-0.6,1l-0.4,0.1c-1.5-0.8-2.8-0.9-4-0.4
								c-1.3,0.7-1.6,2-1.1,3.5c0.6,1.5,3.9,4.3,9.9,8.7c1.7,2.6,2.5,4.2,2.6,4.4c1.1,4.5,0.3,7.2-2.6,8.4l-0.9,0.3
								c-0.4,0.1-1.3-0.1-2.7-0.9l-0.6-1.7l1.7-0.6c0.5,1.1,0.9,1.6,1.5,1.4l1.2-0.5c1.2-0.5,1.2-2.5,0-6.2c-1-2.7-4.2-5.7-9.5-8.9
								c-1.5-1.4-2.4-2.7-2.9-4C1141.4,197,1142.6,195.1,1145.3,194z"/>
							<path class="st11" d="M1169,184.1c2.2-0.8,3.8-0.2,5,2l-1.2,0.5l-2.7-0.9l-0.9,0.3c-1.9,1-1.6,5.7,0.9,14
								c3.4,8.1,5.9,11.8,7.5,11.2l1.7-0.6c0.2-0.1,0.6-0.9,1.4-2.4c0.6-0.2,0.9,0,1.1,0.4l0.2,0.7c-0.5,1.7-1.5,2.9-3,3.5
								c-3.7,1.4-6.9-1.9-9.8-9.9l-1.5-4.1c-2.4-8.4-2.2-13.1,0.5-14.1L1169,184.1z"/>
							<path class="st11" d="M1176.8,181.9l0.9-0.3c0.1,0.5,0.4,0.6,0.7,0.5c1.4,4.6,2.5,8.1,3.4,10.4l6,16c0.1,0.5-0.1,0.8-0.6,1
								l-0.4,0.1c-0.6,0.2-0.9,0.1-1.1-0.4l-3.8-10.2c-0.1-0.2,0-0.4,0.3-0.5c-0.1-0.2-0.3-0.3-0.6-0.1l-0.3-1.8l-5.1-13.6
								C1176.2,182.4,1176.4,182.1,1176.8,181.9z"/>
							<path class="st11" d="M1181,180.4l11.3-4.2c0.6-0.2,0.9,0,1.1,0.4c0.1,0.3-0.2,0.8-0.9,1.5l-4.1,1.5l0.1,0.4
								c1.8,4.6,5,13,9.7,25l-0.7,0.7l-0.5,0.1c-0.6,0.2-0.9,0.1-1.1-0.4l-3.1-8.2c-1.3-3.5-3.6-9.1-6.8-16.9l-4.1,1.5
								c-0.4,0.1-0.9,0-1.6-0.5C1180.3,180.9,1180.5,180.6,1181,180.4z"/>
							<path class="st11" d="M1193.6,175.7c0.9-0.1,3.2,1.9,7,6l0.9-0.3c0.2-5.5,0.7-8.5,1.4-9c0.6-0.2,0.9,0,1.3,0.7
								c-0.7,7.5-1,11.5-0.7,12.3l5.3,14.3c0.1,0.5-0.1,0.8-0.6,1c-0.6,0.2-0.9,0.1-1.1-0.4l-5.3-14.3c-0.1-0.5-3.1-3.5-8.7-9.2
								l-0.1-0.4L1193.6,175.7z"/>
						</g>
					</g>
					<g>
						<g>
							<g>
								<g>
									<path class="st12" d="M647.4,186.8c0,0-20-4.9-28.5-30.2c-8.5-25.4-9.8-88.7,0-114.1s32.4-44.8,46-27.5
										c13.5,17.3,21.7,96.8,12.4,130.8C667.9,179.8,654.4,185.2,647.4,186.8z"/>
								</g>
							</g>
							<g>
								<path class="st7" d="M638.4,262c0,0,2.6-92.5,1.8-95.6c-0.7-3.1-9.9-17.3-9.9-17.3s11.7,12.9,12.8,7.6
									c1.1-5.3,3.3-45.7,3.3-45.7s0.7,40.9,3.6,40.4c2.9-0.4,15-16.4,15-16.4s-13.9,21.3-13.9,29.3s1.1,97.8,1.1,97.8h-13.8
									L638.4,262L638.4,262z"/>
							</g>
						</g>
					</g>
					<g>
						<g>
							<polygon class="st13" points="1339.5,741.5 1329,723 1339.5,704.6 1344.8,709.8 1344.8,736.2 							"/>
							<g>
								<polygon class="st14" points="1362.5,701.9 1358.3,678.2 1358.3,672.9 1383,672.9 1383,678.2 1378.8,701.9 								"/>
								<path class="st13" d="M1355.3,709.8v-7.5c0-1.7,1.4-3,3-3h24.5c1.7,0,3,1.4,3,3v7.5H1355.3z"/>
								<polygon class="st15" points="1355.6,678.2 1361.4,662.3 1379.9,662.3 1385.7,678.2 								"/>
							</g>
							<polygon class="st16" points="1466.2,683.5 1466.2,725.7 1458.3,733.6 1424,733.6 1424,683.5 							"/>
							<polygon class="st16" points="1339.5,725.7 1339.5,704.6 1445.1,704.6 1445.1,733.6 1347.4,733.6 							"/>
							<g>
								<path class="st17" d="M1438.9,694h13.7c1.7,0,3,1.4,3,3v15c0,1.7-1.4,3-3,3h-13.7c-1.7,0-3-1.4-3-3v-15
									C1435.8,695.4,1437.2,694,1438.9,694z"/>
							</g>
							<rect x="1421.3" y="683.5" class="st13" width="47.5" height="5.3"/>
							<path class="st18" d="M1460.9,733.6v18.5c-5.8,0-10.6,4.7-10.6,10.6h-105.6v-29L1460.9,733.6L1460.9,733.6z"/>
							<rect x="1424" y="725.7" class="st19" width="42.2" height="26.4"/>
							<rect x="1339.5" y="725.7" class="st19" width="105.6" height="15.8"/>
							<rect x="1339.5" y="746.8" class="st18" width="10.6" height="15.8"/>
							<polygon class="st13" points="1318.4,767.9 1339.5,746.8 1339.5,772.7 1318.4,772.7 							"/>
							<g>
								<g>
									<path class="st20" d="M1355.3,778.5L1355.3,778.5c5.8,0,10.6-4.7,10.6-10.6c0-5.8-4.7-10.6-10.6-10.6
										c-5.8,0-10.6,4.7-10.6,10.6C1344.8,773.7,1349.5,778.5,1355.3,778.5"/>
									<path class="st19" d="M1355.3,760.5c4.1,0,7.4,3.3,7.4,7.4c0,4.1-3.3,7.4-7.4,7.4s-7.4-3.3-7.4-7.4
										C1348,763.8,1351.3,760.5,1355.3,760.5"/>
									<path class="st20" d="M1355.3,765.8c1.2,0,2.1,0.9,2.1,2.1c0,1.2-0.9,2.1-2.1,2.1s-2.1-0.9-2.1-2.1
										C1353.2,766.7,1354.2,765.8,1355.3,765.8"/>
								</g>
								<g>
									<path class="st20" d="M1379.6,778.5L1379.6,778.5c5.8,0,10.6-4.7,10.6-10.6c0-5.8-4.7-10.6-10.6-10.6
										c-5.8,0-10.6,4.7-10.6,10.6C1369.1,773.7,1373.8,778.5,1379.6,778.5"/>
									<path class="st19" d="M1379.6,760.5c4.1,0,7.4,3.3,7.4,7.4c0,4.1-3.3,7.4-7.4,7.4s-7.4-3.3-7.4-7.4
										S1375.5,760.5,1379.6,760.5"/>
									<path class="st20" d="M1379.6,765.8c1.2,0,2.1,0.9,2.1,2.1c0,1.2-0.9,2.1-2.1,2.1s-2.1-0.9-2.1-2.1
										S1378.5,765.8,1379.6,765.8"/>
								</g>
								<g>
									<path class="st20" d="M1424,778.5L1424,778.5c11.7,0,21.1-9.5,21.1-21.1c0-11.7-9.5-21.1-21.1-21.1
										c-11.7,0-21.1,9.5-21.1,21.1C1402.8,769,1412.3,778.5,1424,778.5"/>
									<g>
										<path class="st19" d="M1424,740.5c9.3,0,16.9,7.6,16.9,16.9c0,9.3-7.6,16.9-16.9,16.9s-16.9-7.6-16.9-16.9
											C1407.1,748,1414.6,740.5,1424,740.5"/>
									</g>
									<path class="st20" d="M1424,755.2c1.2,0,2.1,0.9,2.1,2.1c0,1.2-0.9,2.1-2.1,2.1s-2.1-0.9-2.1-2.1
										C1421.8,756.2,1422.8,755.2,1424,755.2"/>
								</g>
								<g>
									<g>
										<polygon class="st21" points="1422.9,769.3 1425,764.4 1390.7,749.4 1367.5,749.4 1367.5,754.7 1389.6,754.7 										
											"/>
									</g>
									<g>
										<path class="st13" d="M1424,762.6c2.3,0,4.2,1.9,4.2,4.2s-1.9,4.2-4.2,4.2c-2.3,0-4.2-1.9-4.2-4.2
											S1421.6,762.6,1424,762.6L1424,762.6z"/>
										<path class="st20" d="M1424,764.7c1.2,0,2.1,0.9,2.1,2.1c0,1.2-0.9,2.1-2.1,2.1s-2.1-0.9-2.1-2.1
											C1421.8,765.7,1422.8,764.7,1424,764.7"/>
									</g>
									<g>
										<path class="st13" d="M1390.2,747.8c2.3,0,4.2,1.9,4.2,4.2s-1.9,4.2-4.2,4.2c-2.3,0-4.2-1.9-4.2-4.2
											S1387.9,747.8,1390.2,747.8L1390.2,747.8z"/>
										<path class="st20" d="M1390.2,750c1.2,0,2.1,0.9,2.1,2.1c0,1.2-0.9,2.1-2.1,2.1s-2.1-0.9-2.1-2.1S1389,750,1390.2,750"/>
									</g>
									<path class="st22" d="M1379.6,747.2v9.8c0,1.7-1.4,3-3,3h-18.2c-1.7,0-3-1.4-3-3v-9.8c0-1.7,1.4-3,3-3h18.2
										C1378.3,744.2,1379.6,745.5,1379.6,747.2z"/>
								</g>
							</g>
						</g>
						<g>
							<rect x="1449" y="756.5" class="st20" width="28.4" height="5"/>
							<g>
								<rect x="1476.9" y="744.4" class="st15" width="100.5" height="20.1"/>
								<g>
									<path class="st20" d="M1562.9,779.6L1562.9,779.6c-5.6,0-10.1-4.5-10.1-10.1s4.5-10.1,10.1-10.1s10.1,4.5,10.1,10.1
										S1568.5,779.6,1562.9,779.6"/>
									<path class="st19" d="M1562.9,762.5c3.9,0,7,3.2,7,7c0,3.9-3.2,7-7,7c-3.9,0-7-3.2-7-7S1559.1,762.5,1562.9,762.5"/>
									<path class="st20" d="M1562.9,767.5c1.1,0,2,0.9,2,2s-0.9,2-2,2s-2-0.9-2-2S1561.8,767.5,1562.9,767.5"/>
								</g>
								<g>
									<path class="st20" d="M1491.3,779.6L1491.3,779.6c-5.6,0-10-4.5-10-10.1s4.5-10.1,10-10.1c5.6,0,10.1,4.5,10.1,10.1
										S1496.9,779.6,1491.3,779.6"/>
									<path class="st19" d="M1491.3,762.5c3.9,0,7,3.2,7,7c0,3.9-3.2,7-7,7c-3.9,0-7-3.2-7-7S1487.5,762.5,1491.3,762.5"/>
									<path class="st20" d="M1491.3,767.5c1.1,0,2,0.9,2,2s-0.9,2-2,2s-2-0.9-2-2S1490.2,767.5,1491.3,767.5"/>
								</g>
								<polygon class="st14" points="1582.4,729.3 1582.4,689.1 1471.9,689.1 1471.9,729.3 1484.4,741.9 1569.8,741.9 								"/>
								<rect x="1469.3" y="689.1" class="st15" width="115.6" height="5"/>
								<g>
									<path class="st17" d="M1545.6,699.2h-13.1c-1.6,0-2.9,1.3-2.9,2.9v14.3c0,1.6,1.3,2.9,2.9,2.9h13.1c1.6,0,2.9-1.3,2.9-2.9
										v-14.3C1548.5,700.5,1547.2,699.2,1545.6,699.2z"/>
									<path class="st17" d="M1508.7,719.3h13.1c1.6,0,2.9-1.3,2.9-2.9v-14.3c0-1.6-1.3-2.9-2.9-2.9h-13.1c-1.6,0-2.9,1.3-2.9,2.9
										v14.3C1505.8,718,1507.1,719.3,1508.7,719.3z"/>
									<path class="st17" d="M1553.5,702.1v14.3c0,1.6,1.3,2.9,2.9,2.9h13.1c1.6,0,2.9-1.3,2.9-2.9v-14.3c0-1.6-1.3-2.9-2.9-2.9
										h-13.1C1554.8,699.2,1553.5,700.5,1553.5,702.1z"/>
									<path class="st17" d="M1497.9,699.2h-13.1c-1.6,0-2.9,1.3-2.9,2.9v14.3c0,1.6,1.3,2.9,2.9,2.9h13.1c1.6,0,2.9-1.3,2.9-2.9
										v-14.3C1500.8,700.5,1499.5,699.2,1497.9,699.2z"/>
								</g>
								<rect x="1471.9" y="729.3" class="st16" width="110.6" height="25.1"/>
							</g>
						</g>
					</g>
				</g>
			</g>
		</g>
	</g>
</g>
</svg>
