<?xml version="1.0" encoding="utf-8"?>
<!-- Generator: Adobe Illustrator 21.1.0, SVG Export Plug-In . SVG Version: 6.00 Build 0)  -->
<svg version="1.1" id="Слой_1" xmlns="http://www.w3.org/2000/svg" xmlns:xlink="http://www.w3.org/1999/xlink" x="0px" y="0px"
	 viewBox="0 0 1198 877.3" style="enable-background:new 0 0 1198 877.3;" xml:space="preserve">
<style type="text/css">
	.st0{clip-path:url(#SVGID_2_);}
	.st1{fill:#009C53;}
	.st2{fill:#CAE977;}
	.st3{fill:#063035;}
	.st4{fill:#635128;}
	.st5{fill:#6B8C46;}
	.st6{fill:#856037;}
	.st7{fill:#B48B59;}
	.st8{fill:#FFFFFF;}
</style>
<g>
	<g>
		<g>
			<g>
				<defs>
					<rect id="SVGID_1_" x="-405.8" y="6.6" width="1924.3" height="894"/>
				</defs>
				<clipPath id="SVGID_2_">
					<use xlink:href="#SVGID_1_"  style="overflow:visible;"/>
				</clipPath>
				<g class="st0">
					<rect x="-243.5" y="189.1" class="st1" width="1602.9" height="714"/>
					<g>
						<g>
							<g>
								<g>
									<path class="st2" d="M216.6,176c0,0-21.6-2.5-30.7-15.8s-10.6-40.6,0-53.9s29.7-23.4,44.3-14.4s28.7,44.8,18.6,62.6
										C238.7,172.3,224.2,175.1,216.6,176z"/>
								</g>
							</g>
							<g>
								<path class="st3" d="M208,240.8c0,0,2.8-78.7,2-81.2s-10.6-13.9-10.6-13.9s12.6,10.3,13.8,6s3.5-36.6,3.5-36.6
									s0.8,32.7,3.9,32.3c3.1-0.4,16.1-13.1,16.1-13.1s-15,17.2-15,23.6s1.2,82.9,1.2,82.9L208,240.8L208,240.8z"/>
							</g>
						</g>
					</g>
					<g>
						<g>
							<g>
								<polygon class="st4" points="955.7,784.6 953.2,784.9 950.6,784.6 946.2,849.3 953.2,849.3 960.1,849.3 								"/>
							</g>
							<g>
								<polygon class="st5" points="986.1,799.6 989.8,799.6 981.4,780.5 986.1,780.5 979.3,765.4 983.5,765.4 974.1,750.8 
									979.8,750.8 970.4,732.1 974.1,732.1 966.8,715.6 972,715.6 963.6,701.3 969.4,701.3 959.4,687.3 964.1,687.3 953.2,663.3 
									942.2,687.3 946.9,687.3 936.9,701.3 942.7,701.3 934.3,715.6 939.6,715.6 932.2,732.1 935.9,732.1 926.5,750.8 
									932.2,750.8 922.8,765.4 927,765.4 920.2,780.5 924.9,780.5 916.5,799.6 920.2,799.6 911.3,817 953.2,817 995,817 								
									"/>
							</g>
						</g>
					</g>
					<g>
						<g>
							<g>
								<polygon class="st4" points="1067.1,178.4 1064.6,178.8 1062.1,178.4 1057.6,243.2 1064.6,243.2 1071.6,243.2 								"/>
							</g>
							<g>
								<polygon class="st5" points="1097.6,193.4 1101.2,193.4 1092.8,174.3 1097.6,174.3 1090.8,159.2 1094.9,159.2 1085.5,144.6 
									1091.3,144.6 1081.9,125.9 1085.5,125.9 1078.2,109.4 1083.4,109.4 1075.1,95.1 1080.8,95.1 1070.9,81.1 1075.6,81.1 
									1064.6,57.1 1053.6,81.1 1058.3,81.1 1048.4,95.1 1054.1,95.1 1045.8,109.4 1051,109.4 1043.7,125.9 1047.3,125.9 
									1037.9,144.6 1043.7,144.6 1034.2,159.2 1038.4,159.2 1031.6,174.3 1036.3,174.3 1028,193.4 1031.6,193.4 1022.7,210.8 
									1064.6,210.8 1106.5,210.8 								"/>
							</g>
						</g>
					</g>
					<g>
						<g>
							<path class="st6" d="M894.7,319.2h-26.7c-2.8,0-5.1-2.3-5.1-5.1V129c0-2.8,2.3-5.1,5.1-5.1h26.8c2.8,0,5.1,2.3,5.1,5.1v185.1
								C899.8,316.9,897.5,319.2,894.7,319.2z"/>
							<polygon class="st7" points="748.7,196.8 831.4,232.3 828.9,215.5 974.2,186.8 962.7,125.6 817.3,154.3 813.4,134 							"/>
						</g>
						<g>
							<path class="st8" d="M846.9,153.1l1.5-0.3c1.6-0.3,3.4,2.8,5.3,9.4c0.9,6.5,0.2,9.9-2.1,10.4c-2.2,0.4-4.1-2.5-5.8-9.1
								l-0.1-0.7C844.8,156.7,845.3,153.4,846.9,153.1z M847.6,154c-1.2,1.9-1.5,4.5-0.8,7.9l0.5,2.4c1.1,4.3,2.4,6.7,3.9,7.2
								l0.6-0.1c0.9-2.4,1.1-5.2,0.4-8.5l-0.3-1.2C851,157.3,849.6,154.8,847.6,154z"/>
							<path class="st8" d="M859.5,150.1c1.2-0.3,2.2,0.3,2.7,1.6c0.1,0.3-0.1,0.5-0.5,0.6l-2-1l-0.6,0.1c-1.2,0.4-1.4,3.2-0.7,8.3
								l0.3,1.2c1.2,5.7,2.5,8.5,4.1,8.1c0.2,0,0.8-0.6,1.8-1.6l0.3,0c0.4-0.1,0.6,0.1,0.7,0.3c-0.4,1.2-1.1,2-2.3,2.2l-0.3,0
								c-2.5,0.5-4.4-2.3-5.7-8.3l-0.3-1.5C855.7,154,856.6,150.7,859.5,150.1z"/>
							<path class="st8" d="M862.4,149.9l7.6-1.6c0.4-0.1,0.6,0.1,0.7,0.3l0,0.3c0.1,0.3-0.1,0.5-0.5,0.6l-3.2,0.6
								c1,4,1.8,7.1,2.2,9.5l1.7,8.6l-1.1,0.3c-0.7-2.4-1.1-4.1-1.4-5.2l-2.6-12.9l-3.2,0.6c-0.4,0.1-0.6,0-0.7-0.3l0-0.3
								C862,150.3,862.2,150.1,862.4,149.9z"/>
							<path class="st8" d="M875.6,147.3c0.8-0.2,2.2,2.9,4.3,9.1c0.3,0,1.5,2.9,3.6,8.9l-0.6,0.4c-0.7,0.1-1.7-2-3.2-6.3l-2.6,0.6
								c-0.3,0.1-0.5,2.4-0.4,7l-0.6,0.1c-0.4,0.1-0.6,0-0.7-0.3c-0.4-11.7-0.4-18.1-0.3-19.3L875.6,147.3z M876.6,151.9
								c0.2,0.9,0.2,3.2,0.3,7.2l2.6-0.6c-1.5-3.5-2.4-5.8-2.6-6.7L876.6,151.9L876.6,151.9z"/>
							<path class="st8" d="M884.1,145.6c0.4-0.1,0.6,0.1,0.7,0.3l1.6,7.6l2.9-0.6l-1.6-7.6c-0.1-0.3,0.2-0.6,0.5-0.6l0.9,0.3
								c0.3,2.7,0.6,4.7,0.9,6l2.5,12.4c0.1,0.3-0.1,0.5-0.4,0.6l-0.3,0c-0.3,0.1-0.6,0-0.7-0.3l-1.2-6c-0.2-0.8-0.3-2-0.5-3.7
								l-2.9,0.6l1.9,9.5c0.1,0.3-0.1,0.5-0.5,0.6l-0.3,0c-0.4,0.1-0.6,0-0.7-0.3l-2-10.1c0-0.2,0-0.3,0.2-0.3
								c0-0.2-0.1-0.2-0.3-0.2l0.1-1.3l-1.3-6.7C883.6,145.8,883.8,145.6,884.1,145.6z"/>
							<path class="st8" d="M896.3,143.1l1.5-0.3c1.6-0.3,3.4,2.8,5.3,9.4c0.9,6.5,0.2,9.9-2.1,10.4c-2.2,0.4-4.1-2.5-5.8-9.1
								l-0.1-0.7C894.3,146.7,894.8,143.4,896.3,143.1z M897.1,144c-1.2,1.9-1.5,4.5-0.8,7.9l0.5,2.4c1.1,4.3,2.4,6.7,3.9,7.2
								l0.6-0.1c0.9-2.4,1.1-5.2,0.4-8.5l-0.3-1.2C900.5,147.3,899.1,144.7,897.1,144z"/>
							<path class="st8" d="M906.3,141.1c2.3-0.4,4.2,0.7,5.6,3.5l0.3,1.5c0.2,0.9-0.5,2.4-2.1,4.4c2.1,0.4,3.3,1.5,3.7,3.2l0.3,1.5
								c0.4,1.9-1.1,3.6-4.4,5.1c-0.4,0.1-0.6,0-0.7-0.3l-3.6-17.9C905.1,141.6,905.5,141.3,906.3,141.1z M906.8,142.3l1.6,7.9
								c1.9-1.5,2.8-3.1,2.4-4.7C909.5,143,908.2,142,906.8,142.3z M908.6,151.3l1.5,7.4l0.3,0c1.8-1.1,2.5-2.6,2.1-4.4
								C912.3,152.9,911,151.9,908.6,151.3z"/>
							<path class="st8" d="M915.7,138.9l0.3,0c0.4-0.1,0.6,0.1,0.7,0.3l1.2,5.7l0.3,0c1.1-4.5,1.8-6.9,2.3-6.9l0.3,0
								c0.4-0.1,0.6,0.1,0.7,0.6c-1.4,4.8-2.5,7.9-3,9.1c4.4,5.8,6.7,8.9,6.8,9.3l-0.6,0.4l-0.6,0.1c-3.1-3.9-4.6-6.1-4.7-6.5
								l-0.3,0c0.6,4.1,1,6.4,1.1,7l-0.6,0.4c-0.4,0.1-0.6,0-0.7-0.3l-3.8-18.4C915.2,139.2,915.3,139,915.7,138.9z"/>
							<path class="st8" d="M927.1,136.9c0.8-0.2,2.2,2.9,4.3,9.1c0.3,0,1.5,2.9,3.6,8.9l-0.6,0.4c-0.7,0.1-1.7-2-3.2-6.3l-2.6,0.6
								c-0.3,0.1-0.5,2.4-0.4,7l-0.6,0.1c-0.4,0.1-0.6,0-0.7-0.3c-0.4-11.7-0.4-18.1-0.3-19.3L927.1,136.9z M928,141.4
								c0.2,0.9,0.2,3.2,0.3,7.2l2.6-0.6c-1.5-3.5-2.4-5.8-2.6-6.7L928,141.4L928,141.4z"/>
							<path class="st8" d="M936.4,141.2l0.9-0.2c0.3-0.1,0.6,0.1,0.7,0.3l0.1,0.5c0.1,0.5-0.2,0.8-1,1c-0.4-0.1-0.7-0.1-0.9,0
								l-0.2-0.9C935.9,141.5,936,141.3,936.4,141.2z M938.2,149l0.3,0c0.3,0,0.6,0.1,1.1,0.6l0.1,0.4c0.1,0.3-0.1,0.5-0.4,0.6
								l-0.9,0.2c-0.4,0.1-0.6,0-0.7-0.3l-0.1-0.4C937.5,149.7,937.8,149.4,938.2,149z"/>
							<path class="st8" d="M832,184.6l6.1-1.2l0.3,1.2l-1.9,0.7l-3,0.6c0.4,3.2,0.7,5.4,1,6.8l0.4,2.2l5.3-1l0.3,1.2l-1.9,0.7
								l-3.4,0.7l2.5,12.3c0.1,0.4-0.2,0.6-0.6,0.8l-0.3,0.1c-0.5,0.1-0.8-0.1-0.9-0.5l-1.9-9.3c0-0.2,0-0.4,0.3-0.4
								c0-0.2-0.2-0.2-0.4-0.2l-0.1-2.2l-2.3-11.7C831.4,184.8,831.6,184.6,832,184.6z"/>
							<path class="st8" d="M844.7,182.2c1-0.2,2.9,3.7,5.6,11.8c0.3-0.1,1.9,3.8,4.7,11.5l-0.7,0.5c-0.9,0.2-2.2-2.5-4.1-8.1
								l-3.4,0.7c-0.4,0.1-0.6,3.1-0.5,9.1l-0.8,0.1c-0.5,0.1-0.8-0.1-0.9-0.5c-0.4-15.1-0.6-23.4-0.4-25L844.7,182.2z M845.9,188.1
								c0.2,1,0.3,4.1,0.3,9.2l3.4-0.7c-2-4.6-3.1-7.5-3.3-8.6L845.9,188.1z"/>
							<path class="st8" d="M854.7,180.5l1.5-0.3c4.4,8.5,6.8,13.6,7.5,15.5l0.3-0.1l-3.2-15.8c0-0.4,0.3-0.7,0.6-0.7l1.1-0.3
								l4.9,24.3c0.1,0.4-0.2,0.6-0.6,0.8c-0.9,0.2-3.2-4-6.8-12.5c-0.3,0.1-1-1.2-2-3.8l-0.3,0.1l3.4,16.6c0.1,0.4-0.1,0.6-0.6,0.8
								c-0.5,0.1-0.8-0.1-0.9-0.5L854.7,180.5z"/>
							<path class="st8" d="M866.2,177.9l9.8-2c0.5-0.1,0.8,0.1,0.9,0.5l0.1,0.3c0.1,0.4-0.2,0.6-0.6,0.8l-4.2,0.9
								c1.3,5.2,2.2,9.2,2.9,12.2l2.3,11.1l-1.5,0.3c-0.9-3.1-1.5-5.3-1.8-6.7l-3.4-16.6l-4.2,0.9c-0.5,0.1-0.8-0.1-0.9-0.5
								l-0.1-0.3C865.5,178.2,865.8,178,866.2,177.9z"/>
							<path class="st8" d="M883.1,174.5c1-0.2,2.9,3.7,5.6,11.8c0.3-0.1,1.9,3.8,4.7,11.5l-0.7,0.5c-0.9,0.2-2.2-2.5-4.1-8.1
								l-3.4,0.7c-0.4,0.1-0.6,3.1-0.5,9.1l-0.8,0.1c-0.5,0.1-0.8-0.1-0.9-0.5c-0.4-15.1-0.6-23.4-0.4-25L883.1,174.5z M884.3,180.4
								c0.2,1,0.3,4.1,0.3,9.2l3.4-0.7c-2-4.6-3.1-7.5-3.3-8.6L884.3,180.4z"/>
							<path class="st8" d="M895.2,172.6l1.9-0.4c1.6,0.2,2.5,0.9,2.8,2l0.1,0.3l-1.6,0.3c-0.2-0.8-1.1-1.2-2.6-1.1
								c-1.2,0.3-1.8,1.3-1.7,3.2c0.2,0.9,2.6,3.7,7.2,8.5c0.8,1.4,1.4,2.8,1.7,4.1l0.1,0.3c0.7,3.7-0.3,5.8-3.1,6.4l-1.1,0.3
								c-1.4-0.2-2.2-0.9-2.4-2.1c0-0.4,0.3-0.7,0.6-0.8l0.8-0.1c0.1,0.6,0.6,1.2,1.5,1.7c1.5-0.3,2.1-1.6,1.9-3.9l-0.4-1.8
								c-0.5-2.5-3-5.7-7.5-9.7l-0.7-1.8l-0.3-1.6C892.3,174.3,893.2,173.1,895.2,172.6z"/>
							<path class="st8" d="M902.1,171l1.1-0.3c0.6,0.1,2.4,2.1,5.2,6l0.3-0.1c0.9-4.7,1.8-7.2,2.4-7.6l0.3-0.1
								c0.5-0.1,0.8,0.1,0.9,0.5c-1.7,5.9-2.5,9.1-2.4,9.5l2.8,13.9c0.1,0.4-0.1,0.6-0.6,0.7l-0.3,0.1c-0.5,0.1-0.8-0.1-0.9-0.5
								l-2.8-13.6l-6-8.4L902.1,171z"/>
							<path class="st8" d="M929.1,164.1c1.9-0.4,3.3,0.4,4,2.4l-1.1,0.3l-2.2-1.2l-0.8,0.1c-1.7,0.6-2.1,4.7-1.1,12.1
								c1.9,7.3,3.5,10.8,4.9,10.5l1.5-0.3c0.2,0,0.7-0.6,1.6-1.9c0.5-0.1,0.8,0.1,0.9,0.5l0.1,0.6c-0.6,1.4-1.6,2.3-3,2.6
								c-3.3,0.7-5.6-2.6-7.2-9.8l-0.7-3.7c-0.9-7.5-0.2-11.5,2.2-12L929.1,164.1z"/>
							<path class="st8" d="M936.1,163.6l0.8-0.1c0.5-0.1,0.8,0.1,0.9,0.5l0.7,3.7c1,4.8,2.3,11.7,3.9,20.8l-1.5,0.3l-4.8-23.5
								L936.1,163.6z"/>
							<path class="st8" d="M941,162.7l9.8-2c0.5-0.1,0.8,0.1,0.9,0.5l0.1,0.3c0.1,0.4-0.2,0.6-0.6,0.8l-4.2,0.9
								c1.3,5.2,2.2,9.2,2.9,12.2l2.3,11.1l-1.5,0.3c-0.9-3.1-1.5-5.3-1.8-6.7l-3.4-16.6l-4.2,0.9c-0.5,0.1-0.8-0.1-0.9-0.5
								l-0.1-0.3C940.4,163,940.6,162.8,941,162.7z"/>
							<path class="st8" d="M952.3,160.7l1.1-0.3c0.6,0.1,2.4,2.1,5.2,6l0.3-0.1c0.9-4.7,1.8-7.2,2.4-7.6l0.3-0.1
								c0.5-0.1,0.8,0.1,0.9,0.5c-1.7,5.9-2.5,9.1-2.4,9.5l2.8,13.9c0.1,0.4-0.1,0.6-0.6,0.7l-0.3,0.1c-0.5,0.1-0.8-0.1-0.9-0.5
								l-2.8-13.6l-6-8.4L952.3,160.7z"/>
						</g>
					</g>
				</g>
			</g>
		</g>
	</g>
</g>
</svg>
