<?xml version="1.0" encoding="utf-8"?>
<!-- Generator: Adobe Illustrator 22.0.1, SVG Export Plug-In . SVG Version: 6.00 Build 0)  -->
<svg version="1.1" id="Слой_1" xmlns="http://www.w3.org/2000/svg" xmlns:xlink="http://www.w3.org/1999/xlink" x="0px" y="0px"
	 viewBox="0 0 1600 877.3" style="enable-background:new 0 0 1600 877.3;" xml:space="preserve">
<style type="text/css">
	.st0{clip-path:url(#SVGID_2_);}
	.st1{fill:#009C53;}
	.st2{fill:#CAE977;}
	.st3{fill:#635128;}
	.st4{fill:#6B8C46;}
	.st5{fill:#063035;}
	.st6{fill:#303030;}
	.st7{fill:#CD5351;}
	.st8{fill:#F49045;}
	.st9{fill:#6D6D6C;}
	.st10{fill:#2CBAE5;}
	.st11{fill:#FFF2E7;}
	.st12{fill:#313130;}
	.st13{fill:#585857;}
	.st14{fill:#3E3E3D;}
	.st15{fill:#6F6F6E;}
	.st16{fill:#AEAEAE;}
	.st17{fill:#856037;}
	.st18{fill:#B48B59;}
	.st19{fill:#FFFFFF;}
</style>
<g>
	<g>
		<defs>
			<rect id="SVGID_1_" x="-162.3" y="-8.4" width="1924.3" height="894"/>
		</defs>
		<clipPath id="SVGID_2_">
			<use xlink:href="#SVGID_1_"  style="overflow:visible;"/>
		</clipPath>
		<g class="st0">
			<rect y="174.1" class="st1" width="1602.9" height="714"/>
			<g>
				<g>
					<g>
						<g>
							<path class="st2" d="M1479.3,348.3c0,0-14.1-3.8-20-23.5c-6-19.7-6.9-69,0-88.8c6.9-19.7,22.8-34.9,32.3-21.4
								c9.5,13.4,15.3,75.4,8.7,101.8C1493.7,342.9,1484.2,347.1,1479.3,348.3z"/>
						</g>
					</g>
					<g>
						<path class="st3" d="M1472.9,406.9c0,0,1.8-72,1.3-74.4s-6.9-13.5-6.9-13.5s8.2,10,9,5.9s2.3-35.6,2.3-35.6s0.5,31.8,2.6,31.5
							s10.5-12.8,10.5-12.8s-9.8,16.6-9.8,22.8c0,6.2,0.8,76.2,0.8,76.2L1472.9,406.9L1472.9,406.9z"/>
					</g>
				</g>
			</g>
			<g>
				<g>
					<g>
						<g>
							<polygon class="st3" points="200.7,185.5 198.1,185.8 195.6,185.5 191.1,250.2 198.1,250.2 205.1,250.2 							"/>
						</g>
						<g>
							<polygon class="st4" points="231.1,200.5 234.7,200.5 226.4,181.4 231.1,181.4 224.3,166.2 228.5,166.2 219,151.7 
								224.8,151.7 215.4,132.9 219,132.9 211.7,116.4 217,116.4 208.6,102.2 214.3,102.2 204.4,88.1 209.1,88.1 198.1,64.2 
								187.1,88.1 191.8,88.1 181.9,102.2 187.7,102.2 179.3,116.4 184.5,116.4 177.2,132.9 180.9,132.9 171.4,151.7 177.2,151.7 
								167.8,166.2 172,166.2 165.2,181.4 169.9,181.4 161.5,200.5 165.2,200.5 156.3,217.8 198.1,217.8 240,217.8 							"/>
						</g>
					</g>
				</g>
				<g>
					<g>
						<g>
							<polygon class="st3" points="131.3,196.1 128.2,196.5 125.1,196.1 119.6,275.3 128.2,275.3 136.7,275.3 							"/>
						</g>
						<g>
							<polygon class="st4" points="168.5,214.4 173,214.4 162.8,191 168.5,191 160.2,172.5 165.3,172.5 153.8,154.6 160.8,154.6 
								149.3,131.7 153.8,131.7 144.8,111.5 151.2,111.5 141,94 148,94 135.9,76.8 141.6,76.8 128.2,47.5 114.7,76.8 120.5,76.8 
								108.3,94 115.3,94 105.1,111.5 111.5,111.5 102.5,131.7 107,131.7 95.5,154.6 102.5,154.6 91,172.5 96.1,172.5 87.8,191 
								93.6,191 83.3,214.4 87.8,214.4 76.9,235.7 128.2,235.7 179.4,235.7 							"/>
						</g>
					</g>
				</g>
			</g>
			<g>
				<g>
					<g>
						<g>
							<path class="st2" d="M460.1,161c0,0-21.6-2.5-30.7-15.8s-10.6-40.6,0-53.9s29.7-23.4,44.3-14.4s28.7,44.8,18.6,62.6
								C482.2,157.3,467.7,160.1,460.1,161z"/>
						</g>
					</g>
					<g>
						<path class="st5" d="M451.5,225.8c0,0,2.8-78.7,2-81.2s-10.6-13.9-10.6-13.9s12.6,10.3,13.8,6s3.5-36.6,3.5-36.6
							s0.8,32.7,3.9,32.3c3.1-0.4,16.1-13.1,16.1-13.1s-15,17.2-15,23.6s1.2,82.9,1.2,82.9L451.5,225.8L451.5,225.8z"/>
					</g>
				</g>
			</g>
			<g>
				<g>
					<g>
						<polygon class="st3" points="1061,631.6 1058.5,631.9 1055.9,631.6 1051.5,696.3 1058.5,696.3 1065.4,696.3 						"/>
					</g>
					<g>
						<polygon class="st4" points="1091.4,646.6 1095.1,646.6 1086.7,627.5 1091.4,627.5 1084.6,612.4 1088.8,612.4 1079.4,597.8 
							1085.1,597.8 1075.7,579.1 1079.4,579.1 1072.1,562.6 1077.3,562.6 1068.9,548.3 1074.7,548.3 1064.7,534.3 1069.4,534.3 
							1058.5,510.3 1047.5,534.3 1052.2,534.3 1042.2,548.3 1048,548.3 1039.6,562.6 1044.9,562.6 1037.5,579.1 1041.2,579.1 
							1031.8,597.8 1037.5,597.8 1028.1,612.4 1032.3,612.4 1025.5,627.5 1030.2,627.5 1021.8,646.6 1025.5,646.6 1016.6,664 
							1058.5,664 1100.3,664 						"/>
					</g>
				</g>
			</g>
			<g>
				<g>
					<g>
						<polygon class="st3" points="1366.4,600.7 1363.9,601.1 1361.4,600.7 1356.9,665.5 1363.9,665.5 1370.9,665.5 						"/>
					</g>
					<g>
						<polygon class="st4" points="1396.9,615.7 1400.5,615.7 1392.1,596.6 1396.9,596.6 1390.1,581.5 1394.2,581.5 1384.8,566.9 
							1390.6,566.9 1381.2,548.2 1384.8,548.2 1377.5,531.7 1382.7,531.7 1374.4,517.4 1380.1,517.4 1370.2,503.4 1374.9,503.4 
							1363.9,479.4 1352.9,503.4 1357.6,503.4 1347.7,517.4 1353.4,517.4 1345.1,531.7 1350.3,531.7 1343,548.2 1346.6,548.2 
							1337.2,566.9 1343,566.9 1333.5,581.5 1337.7,581.5 1330.9,596.6 1335.6,596.6 1327.3,615.7 1330.9,615.7 1322,633.1 
							1363.9,633.1 1405.8,633.1 						"/>
					</g>
				</g>
			</g>
			<g>
				<g>
					<g>
						<g>
							<g>
								<rect x="1097.4" y="440.3" class="st6" width="10.1" height="50.8"/>
								<path class="st6" d="M1148.2,444.8h-63.8v6.9h63.7C1148,449.4,1148.1,447.1,1148.2,444.8z"/>
								<path class="st6" d="M1150,479.8h-65.7v6.9h65.3C1150,484.4,1150.1,482.1,1150,479.8z"/>
							</g>
							<g>
								<polygon class="st6" points="859.6,553.1 860,546.1 933.1,548.1 932.7,555.1 								"/>
								<polygon class="st6" points="864.2,528.2 866.2,521.4 938,531.4 936,538.2 								"/>
								<polygon class="st6" points="876.5,502.6 881.5,496.5 945.1,521.7 940.2,527.8 								"/>
								<polygon class="st6" points="897.5,480.5 904.6,475.5 956.7,511.2 949.6,516.2 								"/>
								<polygon class="st6" points="924.7,463.4 932.8,459.1 977,499.6 969,503.8 								"/>
								<polygon class="st6" points="958.4,449.6 967.8,447 994.7,494.3 985.3,496.9 								"/>
								<polygon class="st6" points="995.1,442.3 1005.1,441.3 1015.6,491.6 1005.7,492.6 								"/>
								<polygon class="st6" points="1031.5,439.6 1041.6,439.4 1043.9,490.2 1033.8,490.4 								"/>
								<polygon class="st6" points="1067.3,439.6 1077.4,439.7 1076.1,490.5 1066,490.4 								"/>
								<path class="st6" d="M917.6,483.3c50.8-35.9,104-31.3,169.1-31.7l-0.1-7c-68.3,0.4-122.8-3.9-176.3,33.7
									c-33.8,23.9-43.4,48.4-45.6,75.1c-0.4,5.2,0,10.5,0,15.9c3.3,0,6.7-0.1,10,0C874.7,538.1,879.6,510.2,917.6,483.3z"/>
								<path class="st6" d="M1087.1,479.7c-51.4,0.3-101-4.8-140.7,23.3c-20.7,14.6-29,31.7-31.2,49.6c-0.7,5.6,0.3,11.2,0.3,16.9
									c3.3,0.1,6.7,0.1,10,0c0.2-22.4,3.6-44.3,28.1-61.6c36.9-26,85.9-20.8,133.7-21.1L1087.1,479.7z"/>
							</g>
							<g>
								<polygon class="st6" points="860.7,658.2 861.1,665.2 934.3,663.1 933.9,656.1 								"/>
								<polygon class="st6" points="865.3,683 867.3,689.9 939.1,679.9 937.2,673.1 								"/>
								<polygon class="st6" points="877.6,708.6 882.6,714.7 946.3,689.5 941.3,683.4 								"/>
								<polygon class="st6" points="898.6,730.7 905.7,735.8 957.9,700 950.8,695.1 								"/>
								<polygon class="st6" points="925.9,747.9 933.9,752.1 978.1,711.7 970.1,707.4 								"/>
								<polygon class="st6" points="959.5,761.7 968.9,764.2 995.8,716.9 986.5,714.4 								"/>
								<polygon class="st6" points="996.2,768.9 1006.2,769.9 1016.8,719.6 1006.8,718.6 								"/>
								<polygon class="st6" points="1032.6,771.6 1042.7,771.9 1045,721.1 1034.9,720.8 								"/>
								<polygon class="st6" points="1068.5,771.6 1078.6,771.5 1077.3,720.7 1067.2,720.8 								"/>
								<path class="st6" d="M918.8,727.9c50.8,35.9,104,31.3,169.1,31.7l-0.1,7c-68.3-0.4-122.8,3.9-176.3-33.7
									c-40.4-28.6-45.6-58-45.6-91.1c3.3,0,6.7,0.1,10,0C875.9,673,880.8,701,918.8,727.9z"/>
								<path class="st6" d="M1088.2,731.6c-51.4-0.3-101,4.8-140.7-23.3c-27.1-19.2-31.1-42.2-31.2-66.4c3.3-0.1,6.7,0.1,10,0.2
									c0.2,22.4,3.9,44,28.3,61.3c36.9,26,85.9,20.8,133.7,21.1L1088.2,731.6z"/>
							</g>
							<g>
								<polygon class="st6" points="859.6,643 859.6,636 932.8,635.5 932.9,642.6 								"/>
								<polygon class="st6" points="859.4,620 859.3,612.9 932.5,612.5 932.6,619.5 								"/>
								<polygon class="st6" points="859.1,596.8 859,589.9 932.2,589.4 932.3,596.4 								"/>
								<polygon class="st6" points="858.8,573.8 858.7,566.8 931.9,566.3 932,573.3 								"/>
								<path class="st6" d="M866.2,652.1l10-0.1l-1.2-94.8c-3.3,0-6.7,0.1-10,0.1L866.2,652.1z"/>
								<path class="st6" d="M915.4,557.9l1.2,93.8l10-0.1l-1.2-93.8C922.1,557.9,918.7,558,915.4,557.9z"/>
							</g>
						</g>
						<g>
							<g>
								<polygon class="st6" points="1347.5,378.3 1347.1,385.3 1274,383.3 1274.3,376.3 								"/>
								<polygon class="st6" points="1342.9,403.2 1340.9,410.1 1269.1,400.1 1271.1,393.2 								"/>
								<polygon class="st6" points="1330.6,428.8 1325.6,434.9 1262,409.7 1266.9,403.6 								"/>
								<polygon class="st6" points="1309.6,450.9 1302.5,455.9 1250.3,420.2 1257.5,415.2 								"/>
								<polygon class="st6" points="1282.3,468.1 1274.3,472.3 1230.1,431.9 1238.1,427.6 								"/>
								<polygon class="st6" points="1248.7,481.8 1239.3,484.4 1212.4,437.1 1221.8,434.5 								"/>
								<polygon class="st6" points="1212,489.1 1202,490.1 1191.4,439.8 1201.4,438.8 								"/>
								<polygon class="st6" points="1175.6,491.8 1165.5,492.1 1163.2,441.2 1173.3,441 								"/>
								<polygon class="st6" points="1139.8,491.8 1129.7,491.7 1130.9,440.9 1141,441 								"/>
								<path class="st6" d="M1289.5,448.1c-50.8,35.9-104,31.3-169.1,31.7l0.1,7c68.3-0.4,122.8,3.9,176.3-33.7
									c40.4-28.6,45.6-58,45.6-91.1c-3.3,0-6.7,0.1-10,0C1332.4,393.2,1327.5,421.2,1289.5,448.1z"/>
								<path class="st6" d="M1120,451.8c51.4-0.3,101,4.8,140.7-23.3c27.1-19.2,31.1-42.2,31.2-66.4c-3.3-0.1-6.7,0.1-10,0.2
									c-0.2,22.4-3.9,44-28.3,61.3c-36.9,26-85.9,20.8-133.7,21.1L1120,451.8z"/>
							</g>
							<g>
								<polygon class="st6" points="1348.6,363.2 1348.7,356.2 1275.4,355.7 1275.4,362.7 								"/>
								<polygon class="st6" points="1348.9,340.1 1349,333.1 1275.7,332.7 1275.6,339.7 								"/>
								<polygon class="st6" points="1349.2,317 1349.3,310.1 1276,309.6 1275.9,316.6 								"/>
								<polygon class="st6" points="1349.5,293.9 1349.6,286.9 1276.3,286.5 1276.2,293.5 								"/>
								<path class="st6" d="M1342.1,372.2l-10-0.1l1.2-94.8c3.3,0,6.7,0.1,10,0.1L1342.1,372.2z"/>
								<path class="st6" d="M1292.8,278.1l-1.2,93.8l-10-0.1l1.2-93.8C1286.2,278.1,1289.5,278.1,1292.8,278.1z"/>
							</g>
							<g>
								<polygon class="st6" points="1349.8,271.7 1349.9,264.7 1276.6,264.2 1276.5,271.2 								"/>
								<polygon class="st6" points="1350.1,248.6 1350.2,241.6 1276.9,241.2 1276.8,248.2 								"/>
								<polygon class="st6" points="1350.4,225.5 1350.5,218.6 1277.2,218.1 1277.1,225.1 								"/>
								<polygon class="st6" points="1350.7,202.4 1350.7,195.4 1277.5,195 1277.4,202 								"/>
								<polygon class="st6" points="1343.3,280.7 1333.3,280.7 1334.5,175.5 1344.7,175.6 								"/>
								<polygon class="st6" points="1294.4,175.5 1292.8,280.4 1282.8,280.4 1283.9,175.6 								"/>
							</g>
						</g>
					</g>
					<g>
						<g>
							<g>
								<rect x="1133.6" y="720.2" class="st6" width="10.1" height="50.8"/>
								<rect x="1100.4" y="720.2" class="st6" width="10.1" height="50.8"/>
								<rect x="1067.2" y="720.2" class="st6" width="10" height="50.8"/>
								<rect x="1033.9" y="720.2" class="st6" width="10.1" height="50.8"/>
								<path class="st6" d="M1156.8,724.6v6.9h-136.6c0-2.3,0-4.6,0-6.9H1156.8z"/>
								<path class="st6" d="M1021.6,759.6h135.2v6.9h-135.2C1021.7,764.2,1021.7,761.9,1021.6,759.6z"/>
							</g>
							<g>
								<polygon class="st6" points="1381.6,832.9 1381.2,825.9 1308,827.9 1308.4,834.9 								"/>
								<polygon class="st6" points="1377,808.1 1375,801.2 1303.2,811.2 1305.1,818 								"/>
								<polygon class="st6" points="1364.7,782.4 1359.7,776.3 1296,801.6 1301,807.7 								"/>
								<polygon class="st6" points="1343.7,760.3 1336.6,755.3 1284.4,791 1291.5,796 								"/>
								<polygon class="st6" points="1316.4,743.2 1308.4,738.9 1264.2,779.4 1272.2,783.6 								"/>
								<polygon class="st6" points="1282.8,729.4 1273.4,726.9 1246.5,774.2 1255.9,776.7 								"/>
								<polygon class="st6" points="1246.1,722.2 1236.1,721.2 1225.5,771.5 1235.5,772.5 								"/>
								<polygon class="st6" points="1209.7,719.5 1199.6,719.2 1197.3,770 1207.4,770.3 								"/>
								<polygon class="st6" points="1173.8,719.4 1163.7,719.6 1165,770.3 1175.1,770.3 								"/>
								<path class="st6" d="M1323.5,763.2c-50.8-35.9-104-31.3-169.1-31.7l0.1-7c68.3,0.4,122.8-3.9,176.3,33.7
									c33.8,23.9,43.4,48.4,45.6,75.1c0.4,5.2,0,10.5,0,15.9c-3.3,0-6.7-0.1-10,0C1366.4,817.9,1361.5,790,1323.5,763.2z"/>
								<path class="st6" d="M1154.1,759.5c51.4,0.3,101-4.8,140.7,23.3c20.7,14.6,29,31.7,31.2,49.6c0.7,5.6-0.3,11.2-0.3,16.9
									c-3.3,0.1-6.7,0.1-10,0c-0.2-22.4-3.6-44.3-28.1-61.6c-36.9-26-85.9-20.8-133.7-21.1L1154.1,759.5z"/>
							</g>
							<g>
								<polygon class="st6" points="1382.1,876.7 1382.2,869.7 1309,869.3 1308.9,876.2 								"/>
								<polygon class="st6" points="1382.4,853.6 1382.5,846.6 1309.3,846.1 1309.2,853.2 								"/>
								<path class="st6" d="M1375,931.9l-10-0.1l1.2-94.8c3.3,0,6.7,0.1,10,0.1L1375,931.9z"/>
								<path class="st6" d="M1325.8,837.8l-1.2,93.8l-10-0.1l1.2-93.8C1319.1,837.8,1322.4,837.8,1325.8,837.8z"/>
							</g>
						</g>
					</g>
				</g>
				<g>
					<g>
						<polygon class="st7" points="1014.9,449.5 1004.3,431 1014.9,412.5 1020.1,417.8 1020.1,444.2 						"/>
						<g>
							<polygon class="st8" points="1037.8,409.9 1033.6,386.2 1033.6,380.9 1058.4,380.9 1058.4,386.2 1054.2,409.9 							"/>
							<path class="st7" d="M1030.7,417.8v-7.5c0-1.7,1.4-3,3-3h24.5c1.7,0,3,1.4,3,3v7.5H1030.7z"/>
							<polygon class="st9" points="1031,386.2 1036.8,370.3 1055.3,370.3 1061,386.2 							"/>
						</g>
						<polygon class="st10" points="1141.5,391.4 1141.5,433.7 1133.6,441.6 1099.3,441.6 1099.3,391.4 						"/>
						<polygon class="st10" points="1014.9,433.7 1014.9,412.5 1120.4,412.5 1120.4,441.6 1022.8,441.6 						"/>
						<g>
							<path class="st11" d="M1114.2,402h13.7c1.7,0,3,1.4,3,3v15c0,1.7-1.4,3-3,3h-13.7c-1.7,0-3-1.4-3-3v-15
								C1111.2,403.3,1112.6,402,1114.2,402z"/>
						</g>
						<rect x="1096.7" y="391.4" class="st7" width="47.5" height="5.3"/>
						<path class="st12" d="M1136.3,441.6V460c-5.8,0-10.6,4.7-10.6,10.6h-105.6v-29H1136.3z"/>
						<rect x="1099.3" y="433.7" class="st13" width="42.2" height="26.4"/>
						<rect x="1014.9" y="433.7" class="st13" width="105.6" height="15.8"/>
						<rect x="1014.9" y="454.8" class="st12" width="10.6" height="15.8"/>
						<polygon class="st7" points="993.7,475.9 1014.9,454.8 1014.9,480.6 993.7,480.6 						"/>
						<g>
							<g>
								<path class="st14" d="M1030.7,486.4L1030.7,486.4c5.8,0,10.6-4.7,10.6-10.6c0-5.8-4.7-10.6-10.6-10.6
									c-5.8,0-10.6,4.7-10.6,10.6C1020.1,481.7,1024.9,486.4,1030.7,486.4"/>
								<path class="st13" d="M1030.7,468.5c4.1,0,7.4,3.3,7.4,7.4s-3.3,7.4-7.4,7.4s-7.4-3.3-7.4-7.4
									C1023.3,471.8,1026.6,468.5,1030.7,468.5"/>
								<path class="st14" d="M1030.7,473.8c1.2,0,2.1,0.9,2.1,2.1s-0.9,2.1-2.1,2.1s-2.1-0.9-2.1-2.1
									C1028.6,474.7,1029.5,473.8,1030.7,473.8"/>
							</g>
							<g>
								<path class="st14" d="M1055,486.4L1055,486.4c5.8,0,10.6-4.7,10.6-10.6c0-5.8-4.7-10.6-10.6-10.6s-10.6,4.7-10.6,10.6
									C1044.4,481.7,1049.1,486.4,1055,486.4"/>
								<path class="st13" d="M1055,468.5c4.1,0,7.4,3.3,7.4,7.4s-3.3,7.4-7.4,7.4s-7.4-3.3-7.4-7.4S1050.9,468.5,1055,468.5"/>
								<path class="st14" d="M1055,473.8c1.2,0,2.1,0.9,2.1,2.1s-0.9,2.1-2.1,2.1s-2.1-0.9-2.1-2.1
									C1052.9,474.7,1053.8,473.8,1055,473.8"/>
							</g>
							<g>
								<path class="st14" d="M1099.3,486.4L1099.3,486.4c11.7,0,21.1-9.5,21.1-21.1c0-11.7-9.5-21.1-21.1-21.1s-21.1,9.5-21.1,21.1
									C1078.2,477,1087.7,486.4,1099.3,486.4"/>
								<g>
									<path class="st13" d="M1099.3,448.4c9.3,0,16.9,7.6,16.9,16.9s-7.6,16.9-16.9,16.9s-16.9-7.6-16.9-16.9
										S1090,448.4,1099.3,448.4"/>
								</g>
								<path class="st14" d="M1099.3,463.2c1.2,0,2.1,0.9,2.1,2.1s-0.9,2.1-2.1,2.1s-2.1-0.9-2.1-2.1
									C1097.2,464.2,1098.2,463.2,1099.3,463.2"/>
							</g>
							<g>
								<g>
									<polygon class="st15" points="1098.3,477.2 1100.4,472.4 1066.1,457.4 1042.8,457.4 1042.8,462.7 1065,462.7 									"/>
								</g>
								<g>
									<path class="st7" d="M1099.3,470.6c2.3,0,4.2,1.9,4.2,4.2c0,2.3-1.9,4.2-4.2,4.2c-2.3,0-4.2-1.9-4.2-4.2
										C1095.1,472.5,1097,470.6,1099.3,470.6L1099.3,470.6z"/>
									<path class="st14" d="M1099.3,472.7c1.2,0,2.1,0.9,2.1,2.1s-0.9,2.1-2.1,2.1s-2.1-0.9-2.1-2.1
										C1097.2,473.7,1098.2,472.7,1099.3,472.7"/>
								</g>
								<g>
									<path class="st7" d="M1065.5,455.8c2.3,0,4.2,1.9,4.2,4.2c0,2.3-1.9,4.2-4.2,4.2c-2.3,0-4.2-1.9-4.2-4.2
										C1061.3,457.7,1063.2,455.8,1065.5,455.8L1065.5,455.8z"/>
									<path class="st14" d="M1065.5,457.9c1.2,0,2.1,0.9,2.1,2.1s-0.9,2.1-2.1,2.1s-2.1-0.9-2.1-2.1
										C1063.4,458.9,1064.4,457.9,1065.5,457.9"/>
								</g>
								<path class="st16" d="M1055,455.2v9.8c0,1.7-1.4,3-3,3h-18.2c-1.7,0-3-1.4-3-3v-9.8c0-1.7,1.4-3,3-3h18.2
									C1053.6,452.1,1055,453.5,1055,455.2z"/>
							</g>
						</g>
					</g>
					<g>
						<rect x="1124.3" y="464.5" class="st14" width="28.4" height="5"/>
						<g>
							<rect x="1152.2" y="452.4" class="st9" width="100.5" height="20.1"/>
							<g>
								<path class="st14" d="M1238.3,487.6L1238.3,487.6c-5.6,0-10.1-4.5-10.1-10.1s4.5-10.1,10.1-10.1s10.1,4.5,10.1,10.1
									C1248.3,483.1,1243.8,487.6,1238.3,487.6"/>
								<path class="st13" d="M1238.3,470.5c3.9,0,7,3.2,7,7c0,3.9-3.2,7-7,7c-3.9,0-7-3.2-7-7
									C1231.3,473.6,1234.4,470.5,1238.3,470.5"/>
								<path class="st14" d="M1238.3,475.5c1.1,0,2,0.9,2,2s-0.9,2-2,2s-2-0.9-2-2S1237.2,475.5,1238.3,475.5"/>
							</g>
							<g>
								<path class="st14" d="M1166.7,487.6L1166.7,487.6c-5.6,0-10-4.5-10-10.1s4.5-10.1,10-10.1c5.6,0,10.1,4.5,10.1,10.1
									C1176.7,483.1,1172.2,487.6,1166.7,487.6"/>
								<path class="st13" d="M1166.7,470.5c3.9,0,7,3.2,7,7c0,3.9-3.2,7-7,7c-3.9,0-7-3.2-7-7
									C1159.7,473.6,1162.8,470.5,1166.7,470.5"/>
								<path class="st14" d="M1166.7,475.5c1.1,0,2,0.9,2,2s-0.9,2-2,2s-2-0.9-2-2S1165.6,475.5,1166.7,475.5"/>
							</g>
							<polygon class="st8" points="1257.8,437.3 1257.8,397.1 1147.2,397.1 1147.2,437.3 1159.8,449.9 1245.2,449.9 							"/>
							<rect x="1144.7" y="397.1" class="st9" width="115.6" height="5"/>
							<g>
								<path class="st11" d="M1221,407.2h-13.1c-1.6,0-2.9,1.3-2.9,2.9v14.3c0,1.6,1.3,2.9,2.9,2.9h13.1c1.6,0,2.9-1.3,2.9-2.9
									v-14.3C1223.8,408.5,1222.6,407.2,1221,407.2z"/>
								<path class="st11" d="M1184,427.3h13.1c1.6,0,2.9-1.3,2.9-2.9v-14.3c0-1.6-1.3-2.9-2.9-2.9H1184c-1.6,0-2.9,1.3-2.9,2.9
									v14.3C1181.1,426,1182.4,427.3,1184,427.3z"/>
								<path class="st11" d="M1228.9,410.1v14.3c0,1.6,1.3,2.9,2.9,2.9h13.1c1.6,0,2.9-1.3,2.9-2.9v-14.3c0-1.6-1.3-2.9-2.9-2.9
									h-13.1C1230.2,407.2,1228.9,408.5,1228.9,410.1z"/>
								<path class="st11" d="M1173.2,407.2h-13.1c-1.6,0-2.9,1.3-2.9,2.9v14.3c0,1.6,1.3,2.9,2.9,2.9h13.1c1.6,0,2.9-1.3,2.9-2.9
									v-14.3C1176.1,408.5,1174.8,407.2,1173.2,407.2z"/>
							</g>
							<rect x="1147.2" y="437.3" class="st10" width="110.6" height="25.1"/>
						</g>
					</g>
				</g>
			</g>
			<g>
				<g>
					<path class="st17" d="M995.9,377.4l-30.2,2.9c-3.2,0.3-6-2-6.3-5.2l-20-208.7c-0.3-3.2,2-6,5.2-6.3l30.3-2.9
						c3.2-0.3,6,2,6.3,5.2l20,208.7C1001.4,374.3,999.1,377.1,995.9,377.4z"/>
					<polygon class="st18" points="819.1,259.1 917.2,287.1 912,268.5 1071.1,215.2 1049.2,148.1 890.1,201.4 882.7,179.2 					"/>
				</g>
				<g>
					<path class="st19" d="M922,196.5l1.6-0.6c1.8-0.7,4.4,2.4,7.8,9.4c2.3,7,2.2,11-0.3,12c-2.3,0.9-5.1-2-8.3-8.9l-0.3-0.8
						C920.4,201,920.3,197.2,922,196.5z M923,197.4c-1,2.3-0.7,5.3,0.7,8.9l1.1,2.6c2.1,4.6,4,7,5.8,7.2l0.7-0.2
						c0.5-2.8,0.2-6.1-1.3-9.6l-0.5-1.3C927.5,200.4,925.3,197.8,923,197.4z"/>
					<path class="st19" d="M935.5,190.6c1.3-0.5,2.5-0.1,3.4,1.3c0.1,0.4,0,0.6-0.5,0.8l-2.5-0.8l-0.7,0.2c-1.3,0.6-0.9,3.8,0.8,9.4
						l0.5,1.3c2.5,6.1,4.5,8.9,6.2,8.3c0.2-0.1,0.8-0.8,1.7-2.2l0.3-0.1c0.5-0.2,0.7,0,0.8,0.3c-0.2,1.4-0.9,2.4-2.1,2.9l-0.3,0.1
						c-2.7,1.1-5.4-1.7-8-8.1l-0.6-1.6C932,195.8,932.3,191.9,935.5,190.6z"/>
					<path class="st19" d="M938.7,189.9l8.2-3.3c0.5-0.2,0.7,0,0.8,0.3l0.1,0.3c0.1,0.4,0,0.6-0.5,0.8l-3.4,1.4
						c1.9,4.2,3.4,7.6,4.4,10.1l3.6,9.2l-1.2,0.5c-1.3-2.5-2.1-4.4-2.6-5.6l-5.5-13.9l-3.4,1.4c-0.5,0.2-0.7,0.1-0.8-0.3l-0.1-0.3
						C938.2,190.3,938.4,190.1,938.7,189.9z"/>
					<path class="st19" d="M952.9,184.3c0.8-0.4,3,2.8,6.6,9.3c0.3-0.1,2.3,2.9,5.8,9.2l-0.6,0.5c-0.8,0.3-2.3-1.9-4.8-6.4l-2.8,1.1
						c-0.4,0.1,0,2.8,1,7.9l-0.7,0.2c-0.5,0.2-0.7,0.1-0.8-0.3c-2.8-13-4.1-20.1-4.2-21.5L952.9,184.3z M954.8,189.2
						c0.4,0.9,0.9,3.5,1.7,8l2.8-1.1c-2.4-3.6-3.8-6-4.2-6.9L954.8,189.2z"/>
					<path class="st19" d="M962,180.7c0.5-0.2,0.7,0,0.8,0.3l3.3,8.2l3.2-1.3l-3.3-8.2c-0.1-0.4,0.1-0.7,0.5-0.8l1.1,0.2
						c0.9,3,1.6,5.2,2.2,6.5l5.3,13.3c0.1,0.4,0,0.6-0.4,0.8l-0.3,0.1c-0.4,0.1-0.7,0.1-0.8-0.3l-2.6-6.4c-0.4-0.8-0.7-2.2-1.2-4
						l-3.2,1.3l4.1,10.2c0.1,0.4,0,0.6-0.5,0.8l-0.3,0.1c-0.5,0.2-0.7,0.1-0.8-0.3l-4.3-10.8c-0.1-0.2,0-0.3,0.2-0.4
						c-0.1-0.2-0.2-0.3-0.4-0.2l-0.2-1.4l-2.8-7.2C961.5,181.1,961.6,180.8,962,180.7z"/>
					<path class="st19" d="M975.1,175.4l1.6-0.6c1.8-0.7,4.4,2.4,7.8,9.4c2.3,7,2.2,11-0.3,12c-2.3,0.9-5.1-2-8.3-8.9l-0.3-0.8
						C973.5,179.9,973.4,176.1,975.1,175.4z M976.1,176.3c-1,2.3-0.7,5.3,0.7,8.9l1.1,2.6c2.1,4.6,4,7,5.8,7.2l0.7-0.2
						c0.5-2.8,0.2-6.1-1.3-9.6l-0.5-1.3C980.6,179.3,978.5,176.7,976.1,176.3z"/>
					<path class="st19" d="M985.8,171.2c2.5-1,4.8,0,7,2.8l0.6,1.6c0.4,1-0.1,2.8-1.5,5.3c2.4,0,4,1,4.7,2.8l0.6,1.6
						c0.8,2.1-0.5,4.3-3.9,6.6c-0.5,0.2-0.7,0.1-0.8-0.3l-7.6-19.3C984.6,172,985,171.6,985.8,171.2z M986.6,172.4l3.4,8.5
						c1.8-2.1,2.5-4,1.8-5.8C989.8,172.7,988.1,171.8,986.6,172.4z M990.4,182.1l3.2,7.9l0.3-0.1c1.8-1.6,2.2-3.4,1.5-5.3
						C994.9,183.1,993.2,182.3,990.4,182.1z"/>
					<path class="st19" d="M995.9,166.9l0.3-0.1c0.5-0.2,0.7,0,0.8,0.3l2.5,6.1l0.3-0.1c0.3-5.3,0.7-8,1.2-8.2l0.3-0.1
						c0.5-0.2,0.7,0,0.9,0.5c-0.7,5.6-1.2,9.3-1.6,10.8c6.1,5.6,9.2,8.6,9.5,9.1l-0.6,0.5l-0.7,0.2c-4.2-3.8-6.4-5.9-6.6-6.3
						l-0.3,0.1c1.5,4.5,2.4,7,2.6,7.6l-0.6,0.5c-0.5,0.2-0.7,0.1-0.8-0.3l-7.9-19.7C995.4,167.3,995.5,167,995.9,166.9z"/>
					<path class="st19" d="M1008.1,162.3c0.8-0.4,3,2.8,6.6,9.3c0.3-0.1,2.3,2.9,5.8,9.2l-0.6,0.5c-0.8,0.3-2.3-1.9-4.8-6.4
						l-2.8,1.1c-0.4,0.1,0,2.8,1,7.9l-0.7,0.2c-0.5,0.2-0.7,0.1-0.8-0.3c-2.8-13-4.1-20.1-4.2-21.5L1008.1,162.3z M1010.1,167.2
						c0.4,0.9,0.9,3.5,1.7,8l2.8-1.1c-2.4-3.6-3.8-6-4.2-6.9L1010.1,167.2z"/>
					<path class="st19" d="M1019.4,165.3l0.9-0.4c0.4-0.1,0.7,0,0.8,0.3l0.2,0.6c0.2,0.6-0.1,1-0.9,1.3c-0.4-0.1-0.8,0.1-1,0.1
						l-0.4-1C1018.9,165.7,1019,165.4,1019.4,165.3z M1023,173.6l0.3-0.1c0.3-0.1,0.7,0,1.3,0.4l0.2,0.5c0.1,0.4,0,0.6-0.4,0.8
						l-0.9,0.4c-0.5,0.2-0.7,0.1-0.8-0.3l-0.2-0.5C1022.4,174.5,1022.6,174.2,1023,173.6z"/>
					<path class="st19" d="M911.7,234.6l6.5-2.6l0.5,1.3l-1.9,1.2l-3.3,1.3c1.1,3.4,1.9,5.9,2.5,7.4l0.9,2.3l5.7-2.2l0.5,1.3
						l-1.9,1.2l-3.6,1.4l5.3,13.2c0.2,0.5-0.1,0.8-0.5,1l-0.4,0.1c-0.6,0.2-0.9,0.1-1.1-0.4l-4-10c-0.1-0.2,0-0.4,0.3-0.5
						c-0.1-0.2-0.3-0.2-0.5-0.2l-0.5-2.5l-5-12.6C911,235,911.2,234.7,911.7,234.6z"/>
					<path class="st19" d="M925.4,229.5c1.1-0.5,3.9,3.5,8.6,12c0.4-0.1,2.9,3.9,7.6,11.9l-0.7,0.7c-0.9,0.4-3-2.4-6.2-8.3l-3.6,1.4
						c-0.5,0.2-0.1,3.6,1.2,10.2l-0.9,0.3c-0.6,0.2-0.9,0.1-1.1-0.4c-3.5-16.8-5.3-26-5.4-27.8L925.4,229.5z M927.9,235.8
						c0.5,1.1,1.2,4.6,2.2,10.2l3.6-1.4c-3.2-4.7-4.9-7.7-5.4-8.9L927.9,235.8z"/>
					<path class="st19" d="M936.2,225.5l1.6-0.6c6.6,8.6,10.3,13.8,11.4,15.8l0.4-0.1l-6.7-16.9c-0.1-0.5,0.2-0.8,0.5-0.9l1.2-0.5
						l10.4,26.2c0.2,0.5-0.1,0.8-0.5,1c-1,0.4-4.3-3.8-10.1-12.5c-0.4,0.1-1.3-1.1-3-3.9l-0.4,0.1l7.2,17.9c0.2,0.5,0,0.7-0.5,1
						c-0.6,0.2-0.9,0.1-1.1-0.4L936.2,225.5z"/>
					<path class="st19" d="M948.5,220.3l10.5-4.2c0.6-0.2,0.9,0,1.1,0.4l0.1,0.4c0.2,0.5-0.1,0.8-0.5,1l-4.5,1.8
						c2.5,5.5,4.4,9.8,5.7,13.1l4.7,11.9l-1.6,0.6c-1.6-3.3-2.7-5.6-3.3-7.1l-7.2-17.9l-4.5,1.8c-0.6,0.2-0.9,0.1-1.1-0.4l-0.1-0.4
						C947.8,220.8,948,220.5,948.5,220.3z"/>
					<path class="st19" d="M966.6,213.1c1.1-0.5,3.9,3.5,8.6,12c0.4-0.1,2.9,3.9,7.6,11.9l-0.7,0.7c-0.9,0.4-3-2.4-6.2-8.3l-3.6,1.4
						c-0.5,0.2-0.1,3.6,1.2,10.2l-0.9,0.3c-0.6,0.2-0.9,0.1-1.1-0.4c-3.5-16.8-5.3-26-5.4-27.8L966.6,213.1z M969.2,219.4
						c0.5,1.1,1.2,4.6,2.2,10.2l3.6-1.4c-3.2-4.7-4.9-7.7-5.4-8.9L969.2,219.4z"/>
					<path class="st19" d="M979.8,208.6l2.1-0.8c1.9-0.1,3,0.5,3.5,1.7l0.1,0.4l-1.7,0.7c-0.4-0.8-1.4-1.1-3.1-0.7
						c-1.3,0.5-1.7,1.8-1.2,3.9c0.4,0.9,3.6,3.6,9.8,8c1.2,1.4,2.1,2.9,2.7,4.3l0.1,0.4c1.6,4,0.8,6.6-2.1,7.8l-1.2,0.5
						c-1.6,0-2.6-0.6-3-1.8c-0.1-0.5,0.2-0.8,0.5-1l0.9-0.3c0.2,0.7,0.9,1.2,2,1.5c1.6-0.6,2-2.2,1.3-4.8l-0.8-2
						c-1.1-2.7-4.5-5.8-10.3-9.3l-1.1-1.8l-0.7-1.7C976.9,211,977.7,209.5,979.8,208.6z"/>
					<path class="st19" d="M987.1,205.4l1.2-0.5c0.7,0,3.1,1.9,7,5.7l0.4-0.1c0.1-5.4,0.6-8.4,1.1-8.9l0.4-0.1
						c0.6-0.2,0.9,0,1.1,0.4c-0.7,6.9-1,10.7-0.8,11l5.9,14.9c0.2,0.5,0,0.7-0.5,0.9l-0.4,0.1c-0.6,0.2-0.9,0.1-1.1-0.4l-5.8-14.6
						l-8.4-8.1L987.1,205.4z"/>
					<path class="st19" d="M1015.9,192.3c2.1-0.8,3.7-0.2,5,1.9l-1.2,0.5l-2.7-0.9l-0.9,0.3c-1.8,1-1.4,5.6,1.2,13.7
						c3.6,7.8,6,11.4,7.6,10.7l1.6-0.6c0.2-0.1,0.7-0.9,1.4-2.5c0.6-0.2,0.9,0,1.1,0.4l0.2,0.7c-0.4,1.7-1.4,2.9-2.8,3.5
						c-3.5,1.4-6.8-1.7-9.9-9.5l-1.6-4c-2.5-8.2-2.5-12.8,0.1-13.9L1015.9,192.3z"/>
					<path class="st19" d="M1023.6,190.4l0.9-0.3c0.6-0.2,0.9,0,1.1,0.4l1.6,4c2,5.1,4.9,12.6,8.5,22.4l-1.6,0.6l-10-25.2
						L1023.6,190.4z"/>
					<path class="st19" d="M1028.9,188.3l10.5-4.2c0.6-0.2,0.9,0,1.1,0.4l0.1,0.4c0.2,0.5-0.1,0.8-0.5,1l-4.5,1.8
						c2.5,5.5,4.4,9.8,5.7,13.1l4.7,11.9l-1.6,0.6c-1.6-3.3-2.7-5.6-3.3-7.1l-7.2-17.9l-4.5,1.8c-0.6,0.2-0.9,0.1-1.1-0.4l-0.1-0.4
						C1028.2,188.8,1028.4,188.5,1028.9,188.3z"/>
					<path class="st19" d="M1041,183.9l1.2-0.5c0.7,0,3.1,1.9,7,5.7l0.4-0.1c0.1-5.4,0.6-8.4,1.1-8.9l0.4-0.1c0.6-0.2,0.9,0,1.1,0.4
						c-0.7,6.9-1,10.7-0.8,11l5.9,14.9c0.2,0.5,0,0.7-0.5,0.9l-0.4,0.1c-0.6,0.2-0.9,0.1-1.1-0.4l-5.8-14.6l-8.4-8.1L1041,183.9z"/>
				</g>
			</g>
		</g>
	</g>
</g>
</svg>
