<?xml version="1.0" encoding="utf-8"?>
<!-- Generator: Adobe Illustrator 22.0.1, SVG Export Plug-In . SVG Version: 6.00 Build 0)  -->
<svg version="1.1" id="Слой_1" xmlns="http://www.w3.org/2000/svg" xmlns:xlink="http://www.w3.org/1999/xlink" x="0px" y="0px"
	 viewBox="0 0 1200 877.3" style="enable-background:new 0 0 1200 877.3;" xml:space="preserve">
<style type="text/css">
	.st0{clip-path:url(#SVGID_2_);}
	.st1{fill:#009C53;}
	.st2{fill:#80BA9C;}
	.st3{fill:#635128;}
	.st4{fill:#856037;}
	.st5{fill:#B48B59;}
	.st6{fill:#FFFFFF;}
</style>
<g>
	<g>
		<defs>
			<rect id="SVGID_1_" x="-364" y="-10.7" width="1922" height="894"/>
		</defs>
		<clipPath id="SVGID_2_">
			<use xlink:href="#SVGID_1_"  style="overflow:visible;"/>
		</clipPath>
		<g class="st0">
			<rect x="-382" y="52.4" class="st1" width="1960" height="924"/>
			<g>
				<g>
					<g>
						<g>
							<path class="st2" d="M576,129.2c0,0-11.2,8.1-18.7-2.8c0,0-12.5,3.1-15.3-8.4c0,0-14.9-1.2-14.3-12.7c0,0-18.1-8.7-6.2-25.2
								c0,0-11.5-10.2,1.6-21.7c0,0-10-14.9,7.5-19.3c0,0,1.6-17.7,19-13.7c0,0,4.7-14.9,21.5-9.3c0,0,15.1-11.2,23.7,3.7
								c0,0,16.5-2.2,19.6,11.5c0,0,15.9,2.2,14.3,18c0,0,12.2,11.2,4.4,24.5c0,0,7.8,22.2-9.1,24.2c0,0,0.5,9.8-9.4,14.2
								c0,0-1.8,11.9-12.4,10c0,0-8.1,9-14,4L576,129.2z"/>
						</g>
					</g>
					<g>
						<path class="st3" d="M557.3,100.5c0,0,17.4,1.8,18.7,10.8c1.2,9-1.9,81.8-1.9,81.8h18.7c0,0-8.1-81.8-5.3-87.8
							c2.8-5.9,11.8-9.3,11.8-9.3s-10.3-0.3-13.7,2.8c-3.4,3.1-7.8,3.9-12.5,3.1C568.5,101.3,563.8,100,557.3,100.5z"/>
					</g>
				</g>
			</g>
			<g>
				<g>
					<g>
						<path class="st4" d="M126.4,213.6h21.9c3.2,0,5.8-2.6,5.8-5.8v-165c0-3.2-2.6-5.8-5.8-5.8h-21.9c-3.2,0-5.8,2.6-5.8,5.8v165
							C120.6,211,123.2,213.6,126.4,213.6z"/>
						<polygon class="st5" points="255.6,108.6 179.2,136.3 182.3,121.2 52.8,87.6 66.5,33 196,66.6 200.6,48.5 						"/>
					</g>
					<g>
						<path class="st6" d="M99.8,45.6l1.3,0.4c1.4,0.4,1.6,3.6,0.3,9.6c-1.9,5.5-3.9,8-6,7.4c-1.9-0.5-2.2-3.7-0.9-9.6l0.2-0.6
							C96.7,47.6,98.4,45.2,99.8,45.6z M100,46.6c-1.8,1-3,3-3.9,5.9l-0.6,2.1c-0.9,3.9-0.9,6.3,0.2,7.3l0.5,0.1
							c1.7-1.5,3-3.7,3.8-6.6l0.3-1.1C101.4,50.6,101.3,48,100,46.6z"/>
						<path class="st6" d="M111.1,48.3c1.1,0.3,1.6,1.1,1.5,2.5c-0.1,0.3-0.3,0.4-0.6,0.3l-1.2-1.7l-0.5-0.1c-1.1-0.2-2.5,1.9-4,6.4
							l-0.3,1.1c-1.4,5-1.5,7.8-0.1,8.1c0.2,0,0.9-0.1,2.1-0.5l0.3,0.1c0.3,0.1,0.5,0.3,0.4,0.6c-0.8,0.8-1.7,1.1-2.7,0.8l-0.3-0.1
							c-2.2-0.6-2.6-3.6-1.1-8.9l0.4-1.3C106.5,50,108.5,47.6,111.1,48.3z"/>
						<path class="st6" d="M113.5,49.5l6.7,1.9c0.3,0.1,0.5,0.3,0.4,0.6l-0.1,0.2c-0.1,0.3-0.3,0.4-0.6,0.3l-2.8-0.8
							c-0.8,3.6-1.5,6.4-2.1,8.5l-2.1,7.6l-1-0.3c0.4-2.2,0.8-3.7,1-4.7l3.2-11.3l-2.8-0.8c-0.3-0.1-0.5-0.3-0.4-0.6l0.1-0.2
							C113,49.5,113.2,49.4,113.5,49.5z"/>
						<path class="st6" d="M125,52.7c0.7,0.2,0.6,3.2-0.3,9c0.2,0.1,0,2.9-0.8,8.6l-0.6,0.1c-0.6-0.2-0.6-2.3,0.1-6.3l-2.3-0.7
							c-0.3-0.1-1.4,1.7-3.2,5.4l-0.5-0.1c-0.3-0.1-0.5-0.3-0.4-0.6c4.5-9.4,7.1-14.6,7.7-15.5L125,52.7z M123.9,56.7
							c-0.2,0.7-1.1,2.7-2.7,5.8l2.3,0.7c0.2-3.5,0.5-5.6,0.7-6.4L123.9,56.7z"/>
						<path class="st6" d="M132.5,54.8c0.3,0.1,0.5,0.3,0.4,0.6l-1.9,6.7l2.6,0.7l1.9-6.7c0.1-0.3,0.3-0.4,0.6-0.3l0.7,0.6
							c-0.8,2.3-1.4,4-1.7,5.2L132,72.5c-0.1,0.3-0.3,0.4-0.6,0.3l-0.3-0.1c-0.3-0.1-0.5-0.3-0.4-0.6l1.5-5.3
							c0.2-0.7,0.6-1.7,1.1-3.1l-2.6-0.7l-2.4,8.4c-0.1,0.3-0.3,0.4-0.6,0.3l-0.3-0.1c-0.3-0.1-0.5-0.3-0.4-0.6l2.5-8.8
							c0-0.1,0.1-0.2,0.3-0.1c0-0.1,0-0.2-0.2-0.3l0.6-1l1.7-5.9C132,54.8,132.2,54.8,132.5,54.8z"/>
						<path class="st6" d="M143.2,57.9l1.3,0.4c1.4,0.4,1.6,3.6,0.3,9.6c-1.9,5.5-3.9,8-6,7.4c-1.9-0.5-2.2-3.7-0.9-9.6l0.2-0.6
							C140.1,59.9,141.8,57.5,143.2,57.9z M143.5,58.8c-1.8,1-3,3-3.9,5.9l-0.6,2.1c-0.9,3.9-0.9,6.3,0.2,7.3l0.5,0.1
							c1.7-1.5,3-3.7,3.8-6.6l0.3-1.1C144.8,62.9,144.7,60.3,143.5,58.8z"/>
						<path class="st6" d="M152,60.3c2,0.6,3,2.3,3,5.2l-0.4,1.3c-0.2,0.8-1.4,1.7-3.5,2.6c1.5,1.2,2.1,2.5,1.6,4.1l-0.4,1.3
							c-0.5,1.7-2.4,2.5-5.6,2.3c-0.3-0.1-0.5-0.3-0.4-0.6l4.5-15.7C150.8,60.3,151.2,60.2,152,60.3z M151.9,61.5l-2,6.9
							c2.1-0.4,3.4-1.3,3.8-2.8C153.8,63.2,153.2,61.8,151.9,61.5z M149.7,69.4l-1.8,6.5l0.3,0.1c1.9-0.1,3.1-1,3.5-2.6
							C151.9,72.2,151.3,70.9,149.7,69.4z"/>
						<path class="st6" d="M160.3,62.5l0.3,0.1c0.3,0.1,0.5,0.3,0.4,0.6l-1.4,5l0.3,0.1c2.7-3.2,4.3-4.7,4.6-4.6l0.3,0.1
							c0.3,0.1,0.5,0.4,0.3,0.8c-3.1,3.2-5.2,5.2-6.1,6c1.1,6.4,1.7,9.8,1.6,10.2l-0.6,0.1l-0.5-0.1c-0.8-4.4-1.1-6.8-1.1-7.1
							l-0.3-0.1c-1.2,3.5-1.9,5.5-2,6l-0.6,0.1c-0.3-0.1-0.5-0.3-0.4-0.6l4.6-16.2C159.8,62.5,160,62.4,160.3,62.5z"/>
						<path class="st6" d="M170.3,65.5c0.7,0.2,0.6,3.2-0.3,9c0.2,0.1,0,2.9-0.8,8.6l-0.6,0.1c-0.6-0.2-0.6-2.3,0.1-6.3l-2.3-0.7
							c-0.3-0.1-1.4,1.7-3.2,5.4l-0.5-0.1c-0.3-0.1-0.5-0.3-0.4-0.6c4.5-9.4,7.1-14.6,7.7-15.5L170.3,65.5z M169.1,69.5
							c-0.2,0.7-1.1,2.7-2.7,5.8l2.3,0.7c0.2-3.5,0.5-5.6,0.7-6.4L169.1,69.5z"/>
						<path class="st6" d="M175.9,72.8l0.8,0.2c0.3,0.1,0.5,0.3,0.4,0.6L177,74c-0.1,0.4-0.5,0.5-1.2,0.3c-0.3-0.2-0.5-0.4-0.7-0.4
							l0.2-0.8C175.4,72.8,175.6,72.7,175.9,72.8z M174.2,79.8l0.3,0.1c0.2,0.1,0.4,0.4,0.6,0.8l-0.1,0.4c-0.1,0.3-0.3,0.4-0.6,0.3
							l-0.8-0.2c-0.3-0.1-0.5-0.3-0.4-0.6l0.1-0.4C173.3,80,173.6,79.8,174.2,79.8z"/>
						<path class="st6" d="M105.4,73l0.7,0.2c-0.1,0.4,0,0.6,0.2,0.6c-1.2,3.5-2.1,6.2-2.6,8L100,94.6c-0.1,0.4-0.4,0.5-0.8,0.4
							l-0.3-0.1c-0.4-0.1-0.6-0.4-0.5-0.7l2.3-8.1c0.1-0.2,0.2-0.2,0.4-0.2c0.1-0.2,0-0.3-0.3-0.4l0.7-1.3l3.1-10.8
							C104.7,73,105,72.9,105.4,73z"/>
						<path class="st6" d="M108.6,73.9l9,2.5c0.4,0.2,0.6,0.4,0.5,0.7c-0.1,0.3-0.5,0.4-1.2,0.5l-3.3-0.9l-0.1,0.3
							c-1,3.7-2.8,10.4-5.3,20.2l-0.7,0.1l-0.3-0.1c-0.4-0.1-0.6-0.4-0.5-0.7l1.8-6.5c0.8-2.8,1.9-7.3,3.5-13.7l-3.3-0.9
							c-0.3-0.1-0.6-0.5-0.8-1.1C108,74,108.2,73.8,108.6,73.9z"/>
						<path class="st6" d="M132.3,80.1c1.7,0.5,2.4,1.7,2.2,3.6l-1-0.3l-1.3-1.8l-0.7-0.2c-1.6-0.2-3.6,2.8-5.8,9.2
							c-1.5,6.6-1.7,10.1-0.4,10.4l1.3,0.4c0.1,0,0.8-0.3,2-0.9c0.4,0.2,0.6,0.4,0.5,0.7l-0.2,0.5c-1.1,0.9-2.2,1.1-3.4,0.8
							c-2.9-0.8-3.4-4.4-1.6-10.7l0.9-3.3c2.3-6.4,4.6-9.2,6.7-8.6L132.3,80.1z"/>
						<path class="st6" d="M138.2,82.3l0.7,0.2c-0.1,0.4,0,0.6,0.2,0.6c-1.2,3.5-2.1,6.2-2.6,8l-3.6,12.7c-0.1,0.4-0.4,0.5-0.8,0.4
							l-0.3-0.1c-0.4-0.1-0.6-0.4-0.5-0.7l2.3-8.1c0.1-0.2,0.2-0.2,0.4-0.2c0.1-0.2,0-0.3-0.3-0.4l0.7-1.3l3.1-10.8
							C137.5,82.3,137.8,82.2,138.2,82.3z"/>
						<path class="st6" d="M141.5,83.2l9,2.5c0.4,0.2,0.6,0.4,0.5,0.7c-0.1,0.3-0.5,0.4-1.2,0.5l-3.3-0.9l-0.1,0.3
							c-1,3.7-2.8,10.4-5.3,20.2l-0.7,0.1l-0.3-0.1c-0.4-0.1-0.6-0.4-0.5-0.7l1.8-6.5c0.8-2.8,1.9-7.3,3.5-13.7l-3.3-0.9
							c-0.3-0.1-0.6-0.5-0.8-1.1C140.8,83.2,141.1,83.1,141.5,83.2z"/>
						<path class="st6" d="M151.5,86.1c0.6,0.4,1.1,2.7,1.6,6.9l0.7,0.2c2.6-3.3,4.3-5,5-5c0.4,0.1,0.6,0.5,0.4,1
							c-3.9,4.3-5.9,6.8-6,7.4L150,108c-0.1,0.4-0.4,0.5-0.8,0.4c-0.4-0.1-0.6-0.4-0.5-0.7l3.2-11.4c0.1-0.4-0.3-3.6-1.2-9.7
							l0.1-0.3L151.5,86.1z"/>
					</g>
				</g>
			</g>
		</g>
	</g>
</g>
</svg>
