<?xml version="1.0" encoding="utf-8"?>
<!-- Generator: Adobe Illustrator 22.0.1, SVG Export Plug-In . SVG Version: 6.00 Build 0)  -->
<svg version="1.1" id="Слой_1" xmlns="http://www.w3.org/2000/svg" xmlns:xlink="http://www.w3.org/1999/xlink" x="0px" y="0px"
	 viewBox="0 0 1600 877.3" style="enable-background:new 0 0 1600 877.3;" xml:space="preserve">
<style type="text/css">
	.st0{clip-path:url(#SVGID_2_);}
	.st1{fill:#009C53;}
	.st2{fill:#CAE977;}
	.st3{fill:#063035;}
	.st4{fill:#80BA9C;}
	.st5{fill:#635128;}
	.st6{fill-rule:evenodd;clip-rule:evenodd;fill:#303030;}
	.st7{fill:#CD5351;}
	.st8{fill:#F49045;}
	.st9{fill:#6D6D6C;}
	.st10{fill:#2CBAE5;}
	.st11{fill:#FFF2E7;}
	.st12{fill:#313130;}
	.st13{fill:#585857;}
	.st14{fill:#3E3E3D;}
	.st15{fill:#6F6F6E;}
	.st16{fill:#AEAEAE;}
	.st17{fill:#856037;}
	.st18{fill:#B48B59;}
	.st19{fill:#FFFFFF;}
	.st20{clip-path:url(#SVGID_2_);fill:#009C53;}
</style>
<g>
	<defs>
		<rect id="SVGID_1_" x="-240" y="35.6" width="1922" height="894"/>
	</defs>
	<clipPath id="SVGID_2_">
		<use xlink:href="#SVGID_1_"  style="overflow:visible;"/>
	</clipPath>
	<g class="st0">
		<rect x="-257.1" y="71.7" class="st1" width="1960" height="924"/>
		<g>
			<g>
				<g>
					<g>
						<path class="st4" d="M851.5,168.7c0,0-11.2,8.1-18.7-2.8c0,0-12.5,3.1-15.3-8.4c0,0-14.9-1.2-14.3-12.7c0,0-18.1-8.7-6.2-25.2
							c0,0-11.5-10.2,1.6-21.7c0,0-10-14.9,7.5-19.3c0,0,1.6-17.7,19-13.7c0,0,4.7-14.9,21.5-9.3c0,0,15.1-11.2,23.7,3.7
							c0,0,16.5-2.2,19.6,11.5c0,0,15.9,2.2,14.3,18c0,0,12.2,11.2,4.4,24.5c0,0,7.8,22.2-9.1,24.2c0,0,0.5,9.8-9.4,14.2
							c0,0-1.8,11.9-12.4,10c0,0-8.1,9-14,4L851.5,168.7z"/>
					</g>
				</g>
				<g>
					<path class="st5" d="M832.7,140c0,0,17.4,1.8,18.7,10.8c1.2,9-1.9,81.8-1.9,81.8h18.7c0,0-8.1-81.8-5.3-87.8
						c2.8-5.9,11.8-9.3,11.8-9.3s-10.3-0.3-13.7,2.8c-3.4,3.1-7.8,3.9-12.5,3.1C844,140.8,839.3,139.5,832.7,140z"/>
				</g>
			</g>
		</g>
		<g>
			<g>
				<g>
					<g>
						<polygon class="st6" points="25,203.6 25.4,210.4 98.5,208.4 98.1,201.6 						"/>
						<polygon class="st6" points="29.6,227.8 31.6,234.5 103.3,224.7 101.4,218.1 						"/>
						<polygon class="st6" points="41.9,252.8 46.9,258.7 110.5,234.1 105.5,228.2 						"/>
						<polygon class="st6" points="62.9,274.3 70,279.2 122.1,244.4 114.9,239.5 						"/>
						<polygon class="st6" points="90.1,291.1 98.1,295.2 142.3,255.8 134.3,251.6 						"/>
						<polygon class="st6" points="123.7,304.5 133.1,307 160,260.9 150.6,258.4 						"/>
						<polygon class="st6" points="160.4,311.6 170.3,312.5 180.9,263.5 170.9,262.5 						"/>
						<polygon class="st6" points="196.7,314.2 206.8,314.5 209.1,264.9 199,264.6 						"/>
						<polygon class="st6" points="232.5,314.2 242.6,314.1 241.3,264.6 231.2,264.6 						"/>
						<path class="st6" d="M83,271.6c50.8,35,103.9,30.5,168.9,30.9l-0.1,6.8c-68.2-0.4-122.7,3.9-176-32.9
							c-40.4-27.9-45.6-56.6-45.6-88.8c3.3,0,6.7,0.1,10,0C40.1,218.1,45,245.4,83,271.6z"/>
						<path class="st6" d="M252.2,275.2c-51.3-0.3-100.9,4.7-140.6-22.7c-27.1-18.7-31.1-41.2-31.2-64.7c3.3-0.1,6.7,0.1,10,0.2
							c0.2,21.9,3.9,42.9,28.3,59.8c36.8,25.3,85.8,20.3,133.5,20.6L252.2,275.2z"/>
					</g>
					<g>
						<polygon class="st6" points="23.9,188.8 23.8,181.9 97,181.5 97.1,188.3 						"/>
						<polygon class="st6" points="23.6,166.3 23.6,159.5 96.7,159 96.8,165.9 						"/>
						<polygon class="st6" points="23.3,143.7 23.3,137 96.4,136.5 96.5,143.3 						"/>
						<path class="st6" d="M30.4,197.6l10-0.1l-0.7-83.8c-5.4-0.8-10-1.9-10-1.9L30.4,197.6z"/>
						<polygon class="st6" points="79.9,122.3 80.8,197.3 90.8,197.3 90.1,124.3 						"/>
					</g>
				</g>
			</g>
			<g>
				<g>
					<g>
						<rect x="294.3" y="536.9" class="st6" width="10.1" height="49.6"/>
						<path class="st6" d="M345,541.3h-63.8v6.8h63.7C344.9,545.8,344.9,543.5,345,541.3z"/>
						<path class="st6" d="M346.9,575.4h-65.6v6.8h65.2C346.8,579.9,346.9,577.7,346.9,575.4z"/>
					</g>
					<g>
						<polygon class="st6" points="56.8,646.9 57.1,640.1 130.2,642.1 129.8,648.9 						"/>
						<polygon class="st6" points="61.4,622.7 63.3,616 135.1,625.7 133.1,632.4 						"/>
						<polygon class="st6" points="73.7,597.7 78.6,591.7 142.2,616.3 137.2,622.3 						"/>
						<polygon class="st6" points="94.6,576.1 101.7,571.2 153.8,606.1 146.7,610.9 						"/>
						<polygon class="st6" points="121.9,559.4 129.9,555.3 174,594.7 166,598.8 						"/>
						<polygon class="st6" points="155.4,546 164.8,543.5 191.7,589.6 182.3,592.1 						"/>
						<polygon class="st6" points="192.1,538.9 202.1,537.9 212.6,587 202.7,588 						"/>
						<polygon class="st6" points="228.5,536.3 238.6,536 240.9,585.6 230.8,585.8 						"/>
						<polygon class="st6" points="264.3,536.2 274.4,536.4 273.1,585.9 263,585.8 						"/>
						<path class="st6" d="M114.7,578.9c50.8-35,103.9-30.5,168.9-30.9l-0.1-6.8c-68.2,0.4-122.7-3.9-176,32.9
							c-33.8,23.3-43.4,47.2-45.6,73.2c-0.4,5.1,0,10.2,0,15.5c3.3,0,6.7-0.1,10,0C71.9,632.3,76.8,605.1,114.7,578.9z"/>
						<path class="st6" d="M284,575.3c-51.3,0.3-100.9-4.7-140.6,22.7c-20.7,14.3-28.9,30.9-31.2,48.4c-0.7,5.4,0.3,10.9,0.3,16.5
							c3.3,0.1,6.7,0.1,10,0c0.2-21.9,3.6-43.2,28-60.1c36.8-25.3,85.8-20.3,133.5-20.6L284,575.3z"/>
					</g>
					<g>
						<polygon class="st6" points="57.9,749.4 58.3,756.2 131.4,754.2 131,747.4 						"/>
						<polygon class="st6" points="62.5,773.6 64.5,780.3 136.2,770.6 134.3,763.9 						"/>
						<polygon class="st6" points="74.8,798.6 79.8,804.6 143.4,780 138.4,774 						"/>
						<polygon class="st6" points="95.8,820.2 102.9,825.1 155,790.2 147.8,785.4 						"/>
						<polygon class="st6" points="123,836.9 131,841 175.2,801.6 167.2,797.5 						"/>
						<polygon class="st6" points="156.6,850.3 166,852.8 192.9,806.7 183.5,804.2 						"/>
						<polygon class="st6" points="193.3,857.4 203.2,858.4 213.8,809.3 203.8,808.3 						"/>
						<polygon class="st6" points="229.6,860 239.7,860.3 242,810.7 231.9,810.5 						"/>
						<polygon class="st6" points="265.4,860.1 275.5,859.9 274.2,810.4 264.1,810.5 						"/>
						<path class="st6" d="M115.9,817.4c50.8,35,103.9,30.5,168.9,30.9l-0.1,6.8c-68.2-0.4-122.7,3.9-176-32.9
							c-40.4-27.9-45.6-56.6-45.6-88.8c3.3,0,6.7,0.1,10,0C73,763.9,77.9,791.2,115.9,817.4z"/>
						<path class="st6" d="M285.1,821c-51.3-0.3-100.9,4.7-140.6-22.7c-27.1-18.7-31.1-41.2-31.2-64.7c3.3-0.1,6.7,0.1,10,0.2
							c0.2,21.9,3.9,42.9,28.3,59.8c36.8,25.3,85.8,20.3,133.5,20.6L285.1,821z"/>
					</g>
					<g>
						<polygon class="st6" points="56.8,734.6 56.7,727.8 129.9,727.3 130,734.2 						"/>
						<polygon class="st6" points="56.5,712.1 56.4,705.3 129.6,704.9 129.7,711.7 						"/>
						<polygon class="st6" points="56.2,689.6 56.2,682.8 129.3,682.4 129.4,689.1 						"/>
						<polygon class="st6" points="56,667.1 55.9,660.3 129,659.8 129.1,666.7 						"/>
						<path class="st6" d="M63.3,743.4l10-0.1l-1.2-92.5c-3.3,0-6.7,0.1-10,0.1L63.3,743.4z"/>
						<path class="st6" d="M112.5,651.6l1.2,91.5l10-0.1l-1.2-91.5C119.2,651.6,115.8,651.7,112.5,651.6z"/>
					</g>
				</g>
				<g>
					<g>
						<rect x="297.6" y="264" class="st6" width="10.1" height="49.6"/>
						<rect x="264.4" y="264" class="st6" width="10.1" height="49.6"/>
						<rect x="231.2" y="264" class="st6" width="10" height="49.6"/>
						<rect x="198" y="264" class="st6" width="10.1" height="49.6"/>
						<path class="st6" d="M320.8,268.4v6.8H184.3c0-2.3,0-4.5,0-6.8H320.8z"/>
						<path class="st6" d="M185.7,302.5h135v6.8h-135C185.8,307,185.8,304.7,185.7,302.5z"/>
					</g>
					<g>
						<polygon class="st6" points="545.3,374 544.9,367.2 471.8,369.1 472.2,376 						"/>
						<polygon class="st6" points="540.7,349.8 538.7,343 467,352.8 468.9,359.5 						"/>
						<polygon class="st6" points="528.4,324.8 523.4,318.8 459.8,343.4 464.8,349.4 						"/>
						<polygon class="st6" points="507.4,303.2 500.3,298.3 448.2,333.2 455.3,338 						"/>
						<polygon class="st6" points="480.2,286.5 472.2,282.3 428,321.8 436,325.9 						"/>
						<polygon class="st6" points="446.6,273.1 437.2,270.6 410.3,316.7 419.7,319.2 						"/>
						<polygon class="st6" points="409.9,266 399.9,265 389.4,314.1 399.4,315 						"/>
						<polygon class="st6" points="373.6,263.3 363.5,263.1 361.2,312.6 371.3,312.9 						"/>
						<polygon class="st6" points="337.8,263.3 327.7,263.4 328.9,313 339,312.9 						"/>
						<path class="st6" d="M487.3,306c-50.8-35-103.9-30.5-168.9-30.9l0.1-6.8c68.2,0.4,122.7-3.9,176,32.9
							c33.8,23.3,43.4,47.2,45.6,73.2c0.4,5.1,0,10.2,0,15.5c-3.3,0-6.7-0.1-10,0C530.1,359.4,525.2,332.2,487.3,306z"/>
						<path class="st6" d="M318,302.4c51.3,0.3,100.9-4.7,140.6,22.7c20.7,14.3,28.9,30.9,31.2,48.4c0.7,5.4-0.3,10.9-0.3,16.5
							c-3.3,0.1-6.7,0.1-10,0c-0.2-21.9-3.6-43.2-28-60.1c-36.8-25.3-85.8-20.3-133.5-20.6L318,302.4z"/>
					</g>
					<g>
						<polygon class="st6" points="544.1,476.5 543.7,483.3 470.7,481.3 471,474.5 						"/>
						<polygon class="st6" points="539.5,500.7 537.6,507.4 465.8,497.7 467.8,491 						"/>
						<polygon class="st6" points="527.2,525.7 522.3,531.6 458.7,507 463.6,501.1 						"/>
						<polygon class="st6" points="506.3,547.3 499.2,552.2 447.1,517.3 454.2,512.5 						"/>
						<polygon class="st6" points="479,564 471,568.1 426.8,528.7 434.8,524.5 						"/>
						<polygon class="st6" points="445.4,577.4 436.1,579.9 409.2,533.8 418.5,531.3 						"/>
						<polygon class="st6" points="408.8,584.5 398.8,585.5 388.2,536.4 398.2,535.4 						"/>
						<polygon class="st6" points="372.4,587.1 362.3,587.4 360,537.8 370.1,537.6 						"/>
						<polygon class="st6" points="336.6,587.2 326.5,587 327.8,537.5 337.9,537.6 						"/>
						<path class="st6" d="M486.1,544.5c-50.8,35-103.9,30.5-168.9,30.9l0.1,6.8c68.2-0.4,122.7,3.9,176-32.9
							c40.4-27.9,45.6-56.6,45.6-88.8c-3.3,0-6.7,0.1-10,0C529,491,524.1,518.3,486.1,544.5z"/>
						<path class="st6" d="M316.9,548.1c51.3-0.3,100.9,4.7,140.6-22.7c27.1-18.7,31.1-41.2,31.2-64.7c-3.3-0.1-6.7,0.1-10,0.2
							c-0.2,21.9-3.9,42.9-28.3,59.8c-36.8,25.3-85.8,20.3-133.5,20.6L316.9,548.1z"/>
					</g>
					<g>
						<polygon class="st6" points="545.2,461.7 545.3,454.9 472.1,454.4 472.1,461.3 						"/>
						<polygon class="st6" points="545.5,439.2 545.6,432.4 472.4,431.9 472.3,438.8 						"/>
						<polygon class="st6" points="545.8,416.7 545.9,409.9 472.7,409.5 472.6,416.2 						"/>
						<polygon class="st6" points="546.1,394.2 546.2,387.3 473,386.9 472.9,393.7 						"/>
						<path class="st6" d="M538.7,470.5l-10-0.1l1.2-92.5c3.3,0,6.7,0.1,10,0.1L538.7,470.5z"/>
						<path class="st6" d="M489.5,378.7l-1.2,91.5l-10-0.1l1.2-91.5C482.9,378.7,486.2,378.8,489.5,378.7z"/>
					</g>
				</g>
			</g>
			<g>
				<polygon class="st6" points="96.6,121.4 96.6,114.5 23.5,114.8 23.5,121.7 				"/>
				<polygon class="st6" points="96.7,98.9 96.7,92.1 23.6,92.3 23.5,99.2 				"/>
				<polygon class="st6" points="90.2,130.3 80,130.3 79.9,121.5 80.1,71.7 90.2,71.7 				"/>
				<polygon class="st6" points="38.9,71.7 39.9,130.6 29.9,130.5 29.9,128.8 29.8,112 29.7,71.7 				"/>
			</g>
		</g>
		<g>
			<g>
				<polygon class="st7" points="356.2,827 366.7,808.5 356.2,790 350.9,795.3 350.9,821.7 				"/>
				<g>
					<polygon class="st8" points="333.2,787.4 337.4,763.6 337.4,758.3 312.6,758.3 312.6,763.6 316.8,787.4 					"/>
					<path class="st7" d="M340.3,795.3v-7.5c0-1.7-1.4-3-3-3h-24.5c-1.7,0-3,1.4-3,3v7.5H340.3z"/>
					<polygon class="st9" points="340,763.6 334.3,747.8 315.8,747.8 310,763.6 					"/>
				</g>
				<polygon class="st10" points="229.5,768.9 229.5,811.1 237.4,819 271.7,819 271.7,768.9 				"/>
				<polygon class="st10" points="356.2,811.1 356.2,790 250.6,790 250.6,819 348.2,819 				"/>
				<g>
					<path class="st11" d="M256.8,779.5h-13.7c-1.7,0-3,1.4-3,3v15c0,1.7,1.4,3,3,3h13.7c1.7,0,3-1.4,3-3v-15
						C259.8,780.8,258.5,779.5,256.8,779.5z"/>
				</g>
				<rect x="226.8" y="768.9" class="st7" width="47.5" height="5.3"/>
				<path class="st12" d="M234.8,819v18.5c5.8,0,10.6,4.7,10.6,10.6h105.6v-29H234.8z"/>
				<rect x="229.5" y="811.1" class="st13" width="42.2" height="26.4"/>
				<rect x="250.6" y="811.1" class="st13" width="105.6" height="15.8"/>
				<rect x="345.6" y="832.2" class="st12" width="10.6" height="15.8"/>
				<polygon class="st7" points="377.3,853.4 356.2,832.2 356.2,858.1 377.3,858.1 				"/>
				<g>
					<g>
						<path class="st14" d="M340.3,863.9L340.3,863.9c-5.8,0-10.6-4.7-10.6-10.6c0-5.8,4.7-10.6,10.6-10.6c5.8,0,10.6,4.7,10.6,10.6
							C350.9,859.2,346.2,863.9,340.3,863.9"/>
						<path class="st13" d="M340.3,846c4.1,0,7.4,3.3,7.4,7.4c0,4.1-3.3,7.4-7.4,7.4c-4.1,0-7.4-3.3-7.4-7.4
							C332.9,849.3,336.3,846,340.3,846"/>
						<path class="st14" d="M340.3,851.2c1.2,0,2.1,0.9,2.1,2.1c0,1.2-0.9,2.1-2.1,2.1c-1.2,0-2.1-0.9-2.1-2.1
							C338.2,852.2,339.2,851.2,340.3,851.2"/>
					</g>
					<g>
						<path class="st14" d="M316.1,863.9L316.1,863.9c-5.8,0-10.6-4.7-10.6-10.6c0-5.8,4.7-10.6,10.6-10.6c5.8,0,10.6,4.7,10.6,10.6
							C326.6,859.2,321.9,863.9,316.1,863.9"/>
						<path class="st13" d="M316.1,846c4.1,0,7.4,3.3,7.4,7.4c0,4.1-3.3,7.4-7.4,7.4c-4.1,0-7.4-3.3-7.4-7.4
							C308.7,849.3,312,846,316.1,846"/>
						<path class="st14" d="M316.1,851.2c1.2,0,2.1,0.9,2.1,2.1c0,1.2-0.9,2.1-2.1,2.1c-1.2,0-2.1-0.9-2.1-2.1
							C313.9,852.2,314.9,851.2,316.1,851.2"/>
					</g>
					<g>
						<path class="st14" d="M271.7,863.9L271.7,863.9c-11.7,0-21.1-9.5-21.1-21.1c0-11.7,9.5-21.1,21.1-21.1s21.1,9.5,21.1,21.1
							C292.8,854.5,283.4,863.9,271.7,863.9"/>
						<g>
							<path class="st13" d="M271.7,825.9c9.3,0,16.9,7.6,16.9,16.9c0,9.3-7.6,16.9-16.9,16.9s-16.9-7.6-16.9-16.9
								C254.8,833.5,262.4,825.9,271.7,825.9"/>
						</g>
						<path class="st14" d="M271.7,840.7c1.2,0,2.1,0.9,2.1,2.1c0,1.2-0.9,2.1-2.1,2.1c-1.2,0-2.1-0.9-2.1-2.1
							C269.6,841.6,270.5,840.7,271.7,840.7"/>
					</g>
					<g>
						<g>
							<polygon class="st15" points="272.8,854.7 270.7,849.9 304.9,834.9 328.2,834.9 328.2,840.2 306,840.2 							"/>
						</g>
						<g>
							<path class="st7" d="M271.7,848.1c-2.3,0-4.2,1.9-4.2,4.2s1.9,4.2,4.2,4.2c2.3,0,4.2-1.9,4.2-4.2S274,848.1,271.7,848.1
								L271.7,848.1z"/>
							<path class="st14" d="M271.7,850.2c1.2,0,2.1,0.9,2.1,2.1c0,1.2-0.9,2.1-2.1,2.1c-1.2,0-2.1-0.9-2.1-2.1
								C269.6,851.1,270.5,850.2,271.7,850.2"/>
						</g>
						<g>
							<path class="st7" d="M305.5,833.3c-2.3,0-4.2,1.9-4.2,4.2c0,2.3,1.9,4.2,4.2,4.2s4.2-1.9,4.2-4.2
								C309.7,835.2,307.8,833.3,305.5,833.3L305.5,833.3z"/>
							<path class="st14" d="M305.5,835.4c1.2,0,2.1,0.9,2.1,2.1c0,1.2-0.9,2.1-2.1,2.1c-1.2,0-2.1-0.9-2.1-2.1
								C303.4,836.4,304.3,835.4,305.5,835.4"/>
						</g>
						<path class="st16" d="M316.1,832.6v9.8c0,1.7,1.4,3,3,3h18.2c1.7,0,3-1.4,3-3v-9.8c0-1.7-1.4-3-3-3h-18.2
							C317.4,829.6,316.1,831,316.1,832.6z"/>
					</g>
				</g>
			</g>
			<g>
				<rect x="218.3" y="842" class="st14" width="28.4" height="5"/>
				<g>
					<rect x="118.3" y="829.9" class="st9" width="100.5" height="20.1"/>
					<g>
						<path class="st14" d="M132.7,865L132.7,865c5.6,0,10.1-4.5,10.1-10.1c0-5.6-4.5-10.1-10.1-10.1c-5.6,0-10.1,4.5-10.1,10.1
							C122.7,860.5,127.2,865,132.7,865"/>
						<path class="st13" d="M132.7,848c3.9,0,7,3.2,7,7c0,3.9-3.2,7-7,7c-3.9,0-7-3.2-7-7C125.7,851.1,128.9,848,132.7,848"/>
						<path class="st14" d="M132.7,853c1.1,0,2,0.9,2,2c0,1.1-0.9,2-2,2c-1.1,0-2-0.9-2-2C130.7,853.9,131.6,853,132.7,853"/>
					</g>
					<g>
						<path class="st14" d="M204.3,865L204.3,865c5.6,0,10-4.5,10-10.1c0-5.6-4.5-10.1-10-10.1c-5.6,0-10.1,4.5-10.1,10.1
							C194.3,860.5,198.8,865,204.3,865"/>
						<path class="st13" d="M204.3,848c3.9,0,7,3.2,7,7c0,3.9-3.2,7-7,7c-3.9,0-7-3.2-7-7C197.3,851.1,200.5,848,204.3,848"/>
						<path class="st14" d="M204.3,853c1.1,0,2,0.9,2,2c0,1.1-0.9,2-2,2c-1.1,0-2-0.9-2-2C202.3,853.9,203.2,853,204.3,853"/>
					</g>
					<polygon class="st8" points="113.3,814.8 113.3,774.6 223.8,774.6 223.8,814.8 211.3,827.3 125.8,827.3 					"/>
					<rect x="110.7" y="774.6" class="st9" width="115.6" height="5"/>
					<g>
						<path class="st11" d="M150.1,784.6h13.1c1.6,0,2.9,1.3,2.9,2.9v14.3c0,1.6-1.3,2.9-2.9,2.9h-13.1c-1.6,0-2.9-1.3-2.9-2.9
							v-14.3C147.2,785.9,148.5,784.6,150.1,784.6z"/>
						<path class="st11" d="M187,804.7h-13.1c-1.6,0-2.9-1.3-2.9-2.9v-14.3c0-1.6,1.3-2.9,2.9-2.9H187c1.6,0,2.9,1.3,2.9,2.9v14.3
							C189.9,803.4,188.6,804.7,187,804.7z"/>
						<path class="st11" d="M142.2,787.5v14.3c0,1.6-1.3,2.9-2.9,2.9h-13.1c-1.6,0-2.9-1.3-2.9-2.9v-14.3c0-1.6,1.3-2.9,2.9-2.9
							h13.1C140.9,784.6,142.2,785.9,142.2,787.5z"/>
						<path class="st11" d="M197.8,784.6h13.1c1.6,0,2.9,1.3,2.9,2.9v14.3c0,1.6-1.3,2.9-2.9,2.9h-13.1c-1.6,0-2.9-1.3-2.9-2.9
							v-14.3C194.9,785.9,196.2,784.6,197.8,784.6z"/>
					</g>
					<rect x="113.3" y="814.8" class="st10" width="110.6" height="25.1"/>
				</g>
			</g>
		</g>
		<g>
			<g>
				<g>
					<path class="st17" d="M574.1,324.2h30.3c3.2,0,5.8-2.6,5.8-5.8V108.6c0-3.2-2.6-5.8-5.8-5.8h-30.3c-3.2,0-5.8,2.6-5.8,5.8
						v209.7C568.3,321.6,570.9,324.2,574.1,324.2z"/>
					<polygon class="st18" points="737.5,192.5 641.7,227.3 645.6,208.4 483.4,166.3 500.5,97.8 662.7,139.9 668.6,117.2 					"/>
				</g>
				<g>
					<path class="st19" d="M542.2,113.6l1.6,0.5c1.8,0.5,2,4.5,0.4,12.1c-2.4,6.9-4.9,10-7.5,9.3c-2.4-0.7-2.8-4.7-1.1-12l0.2-0.8
						C538.3,116.1,540.5,113.1,542.2,113.6z M542.5,114.8c-2.2,1.2-3.8,3.7-4.9,7.4l-0.7,2.6c-1.1,4.8-1.1,7.9,0.2,9.2l0.6,0.2
						c2.2-1.9,3.8-4.7,4.8-8.3l0.4-1.3C544.2,119.9,544.1,116.6,542.5,114.8z"/>
					<path class="st19" d="M556.4,117c1.4,0.4,2,1.4,1.9,3.1c-0.1,0.3-0.4,0.5-0.8,0.3l-1.5-2.1l-0.7-0.2c-1.4-0.2-3.1,2.4-5,8
						l-0.4,1.3c-1.8,6.3-1.8,9.7-0.1,10.2c0.2,0.1,1.1-0.2,2.6-0.7l0.3,0.1c0.4,0.2,0.6,0.4,0.5,0.7c-1,1.1-2.1,1.4-3.4,1l-0.3-0.1
						c-2.8-0.8-3.2-4.5-1.4-11.2l0.4-1.6C550.6,119.1,553.2,116.1,556.4,117z"/>
					<path class="st19" d="M559.4,118.5l8.4,2.4c0.4,0.2,0.6,0.4,0.5,0.7l-0.1,0.3c-0.1,0.4-0.4,0.5-0.8,0.3l-3.5-1
						c-1,4.5-1.9,8-2.7,10.6l-2.7,9.5l-1.3-0.4c0.5-2.7,1-4.7,1.3-5.9l4-14.2l-3.5-1c-0.4-0.1-0.6-0.4-0.5-0.7l0.1-0.3
						C558.8,118.5,559.1,118.3,559.4,118.5z"/>
					<path class="st19" d="M573.8,122.5c0.9,0.3,0.8,4-0.4,11.3c0.3,0.1,0,3.7-1,10.8l-0.7,0.1c-0.8-0.2-0.7-2.9,0.1-7.9l-2.9-0.8
						c-0.4-0.1-1.7,2.2-4,6.8l-0.6-0.2c-0.4-0.1-0.6-0.4-0.5-0.7c5.7-11.8,8.9-18.3,9.7-19.4L573.8,122.5z M572.4,127.5
						c-0.3,0.9-1.4,3.3-3.4,7.3l2.9,0.8c0.3-4.3,0.6-7,0.9-8L572.4,127.5z"/>
					<path class="st19" d="M583.2,125.2c0.4,0.2,0.6,0.4,0.5,0.7l-2.4,8.4l3.2,0.9l2.4-8.4c0.2-0.3,0.4-0.5,0.8-0.3l0.8,0.8
						c-1,2.8-1.8,5-2.2,6.5l-3.9,13.7c-0.1,0.4-0.4,0.5-0.8,0.4l-0.3-0.1c-0.4-0.1-0.6-0.4-0.5-0.7l1.9-6.6c0.2-0.9,0.7-2.2,1.4-3.9
						l-3.2-0.9l-3,10.5c-0.1,0.4-0.4,0.5-0.8,0.3l-0.3-0.1c-0.4-0.1-0.6-0.4-0.5-0.7l3.1-11.1c0.1-0.2,0.2-0.2,0.4-0.2
						c0-0.2,0-0.3-0.2-0.3l0.7-1.2l2.1-7.4C582.6,125.2,582.9,125.1,583.2,125.2z"/>
					<path class="st19" d="M596.7,129l1.6,0.5c1.8,0.5,2,4.5,0.4,12.1c-2.4,6.9-4.9,10-7.5,9.3c-2.4-0.7-2.8-4.7-1.1-12l0.2-0.8
						C592.8,131.5,594.9,128.5,596.7,129z M597,130.2c-2.2,1.2-3.8,3.7-4.9,7.4l-0.7,2.6c-1.1,4.8-1.1,7.9,0.2,9.2l0.6,0.2
						c2.2-1.9,3.8-4.7,4.8-8.3l0.4-1.3C598.7,135.3,598.6,132,597,130.2z"/>
					<path class="st19" d="M607.6,132.1c2.6,0.7,3.8,2.9,3.8,6.5l-0.4,1.6c-0.3,1-1.8,2.1-4.4,3.3c1.9,1.5,2.6,3.2,2,5.1l-0.4,1.6
						c-0.6,2.1-3,3.1-7.1,2.8c-0.4-0.1-0.6-0.4-0.5-0.7l5.6-19.7C606.2,132.1,606.7,131.9,607.6,132.1z M607.6,133.5l-2.5,8.7
						c2.7-0.5,4.3-1.7,4.8-3.5C609.9,135.7,609.1,133.9,607.6,133.5z M604.7,143.5l-2.3,8.2l0.3,0.1c2.4-0.2,3.8-1.3,4.4-3.3
						C607.6,146.9,606.8,145.3,604.7,143.5z"/>
					<path class="st19" d="M618.1,134.8l0.3,0.1c0.4,0.2,0.6,0.4,0.5,0.7l-1.8,6.3l0.3,0.1c3.4-4,5.3-5.9,5.8-5.8l0.3,0.1
						c0.4,0.1,0.6,0.4,0.4,1c-3.9,4-6.5,6.5-7.7,7.5c1.4,8,2.1,12.3,2,12.8l-0.7,0.1l-0.6-0.2c-1-5.5-1.4-8.5-1.3-8.9l-0.3-0.1
						c-1.5,4.4-2.3,7-2.5,7.5l-0.7,0.1c-0.4-0.1-0.6-0.4-0.5-0.7l5.7-20.3C617.5,134.8,617.7,134.6,618.1,134.8z"/>
					<path class="st19" d="M630.6,138.6c0.9,0.3,0.8,4-0.4,11.3c0.3,0.1,0,3.7-1,10.8l-0.7,0.1c-0.8-0.2-0.7-2.9,0.1-7.9l-2.9-0.8
						c-0.4-0.1-1.7,2.2-4,6.8l-0.6-0.2c-0.4-0.1-0.6-0.4-0.5-0.7c5.7-11.8,8.9-18.3,9.7-19.4L630.6,138.6z M629.1,143.6
						c-0.3,0.9-1.4,3.3-3.4,7.3l2.9,0.8c0.3-4.3,0.6-7,0.9-8L629.1,143.6z"/>
					<path class="st19" d="M637.6,147.6l1,0.3c0.4,0.2,0.6,0.4,0.5,0.7l-0.1,0.5c-0.1,0.5-0.7,0.7-1.5,0.4c-0.4-0.3-0.7-0.5-0.9-0.5
						l0.3-1.1C636.9,147.7,637.2,147.5,637.6,147.6z M635.4,156.4l0.3,0.1c0.3,0.1,0.6,0.4,0.7,1.1l-0.1,0.5
						c-0.1,0.4-0.4,0.5-0.8,0.4l-1-0.3c-0.4-0.1-0.6-0.4-0.5-0.7l0.1-0.5C634.3,156.7,634.7,156.5,635.4,156.4z"/>
					<path class="st19" d="M549.2,148l0.8,0.2c-0.1,0.5-0.1,0.7,0.2,0.8c-1.6,4.4-2.6,7.8-3.3,10.1l-4.5,16c-0.1,0.5-0.5,0.6-1,0.4
						l-0.4-0.1c-0.6-0.2-0.8-0.5-0.6-0.9l2.9-10.2c0.1-0.2,0.2-0.3,0.5-0.2c0.1-0.2,0-0.4-0.3-0.5l0.9-1.6l3.8-13.6
						C548.4,148,548.7,147.8,549.2,148z"/>
					<path class="st19" d="M553.3,149.1l11.2,3.2c0.5,0.2,0.7,0.5,0.6,0.9c-0.1,0.3-0.6,0.5-1.5,0.7l-4.2-1.2l-0.1,0.3
						c-1.3,4.6-3.5,13.1-6.7,25.3l-0.9,0.1l-0.4-0.1c-0.5-0.2-0.8-0.5-0.6-0.9l2.3-8.2c1-3.5,2.4-9.2,4.4-17.1l-4.2-1.2
						c-0.4-0.1-0.7-0.6-1-1.4C552.5,149.1,552.8,149,553.3,149.1z"/>
					<path class="st19" d="M583,156.8c2.1,0.6,3,2.1,2.8,4.5l-1.2-0.4l-1.6-2.3l-0.8-0.2c-2-0.3-4.5,3.6-7.3,11.5
						c-1.9,8.3-2.1,12.6-0.5,13.1l1.7,0.5c0.2,0.1,1-0.3,2.6-1.1c0.5,0.2,0.7,0.5,0.6,0.9l-0.2,0.7c-1.3,1.1-2.8,1.4-4.3,1
						c-3.6-1-4.3-5.5-2-13.4l1.2-4.1c2.9-8,5.7-11.6,8.5-10.8L583,156.8z"/>
					<path class="st19" d="M590.4,159.6l0.8,0.2c-0.1,0.5-0.1,0.7,0.2,0.8c-1.6,4.4-2.7,7.8-3.3,10.1l-4.5,16
						c-0.1,0.5-0.5,0.6-1,0.4l-0.4-0.1c-0.6-0.2-0.8-0.5-0.6-0.9l2.9-10.2c0.1-0.2,0.2-0.3,0.5-0.2c0.1-0.2,0-0.4-0.3-0.5l0.9-1.6
						l3.8-13.6C589.5,159.6,589.9,159.5,590.4,159.6z"/>
					<path class="st19" d="M594.4,160.8l11.2,3.2c0.5,0.2,0.7,0.5,0.6,0.9c-0.1,0.3-0.6,0.5-1.5,0.7l-4.2-1.2l-0.1,0.3
						c-1.3,4.6-3.5,13.1-6.7,25.3l-0.9,0.1l-0.4-0.1c-0.5-0.2-0.8-0.5-0.6-0.9l2.3-8.2c1-3.5,2.4-9.2,4.4-17.1l-4.2-1.2
						c-0.4-0.1-0.7-0.6-1-1.4C593.6,160.8,594,160.6,594.4,160.8z"/>
					<path class="st19" d="M607,164.3c0.7,0.5,1.4,3.4,2,8.6l0.8,0.2c3.3-4.2,5.4-6.3,6.3-6.3c0.6,0.2,0.7,0.6,0.6,1.3
						c-4.8,5.4-7.4,8.5-7.6,9.2l-4,14.3c-0.1,0.5-0.5,0.6-1,0.4c-0.5-0.2-0.8-0.5-0.6-0.9l4-14.3c0.1-0.5-0.4-4.5-1.5-12.2l0.1-0.3
						L607,164.3z"/>
				</g>
			</g>
		</g>
	</g>
	<polygon class="st20" points="781.2,352.8 782.4,349.7 780.4,347 783.7,347.1 785.7,344.5 786.6,347.6 789.8,348.7 787,350.5 
		787,353.8 784.4,351.8 	"/>
	<polygon class="st20" points="842.8,411.7 843.9,408.6 842,405.9 845.3,406 847.2,403.3 848.1,406.5 851.3,407.6 848.5,409.4 
		848.5,412.7 845.9,410.7 	"/>
</g>
</svg>
