<?xml version="1.0" encoding="utf-8"?>
<!-- Generator: Adobe Illustrator 22.0.1, SVG Export Plug-In . SVG Version: 6.00 Build 0)  -->
<svg version="1.1" id="Слой_1" xmlns="http://www.w3.org/2000/svg" xmlns:xlink="http://www.w3.org/1999/xlink" x="0px" y="0px"
	 viewBox="0 0 1198 877.3" style="enable-background:new 0 0 1198 877.3;" xml:space="preserve">
<style type="text/css">
	.st0{clip-path:url(#SVGID_2_);}
	.st1{fill:#009C53;}
	.st2{fill:#DBC95D;}
	.st3{fill:#635128;}
	.st4{fill:#6B8C46;}
	.st5{fill:#856037;}
	.st6{fill:#B48B59;}
	.st7{fill:#FFFFFF;}
</style>
<g>
	<g>
		<g>
			<g>
				<g>
					<defs>
						<rect id="SVGID_1_" x="-264.3" y="-14.5" width="1922" height="894"/>
					</defs>
					<clipPath id="SVGID_2_">
						<use xlink:href="#SVGID_1_"  style="overflow:visible;"/>
					</clipPath>
					<g class="st0">
						<rect x="-263.7" y="126" class="st1" width="1998.9" height="752.9"/>
						<g>
							<g>
								<g>
									<g>
										<path class="st2" d="M338.5,808.2c0,0-25-6.1-35.6-37.7c-10.6-31.7-12.2-110.8,0-142.5s40.5-55.9,57.4-34.4
											c16.9,21.6,27.1,120.9,15.5,163.3C364.2,799.5,347.3,806.2,338.5,808.2z"/>
									</g>
								</g>
								<g>
									<path class="st3" d="M327.3,902.2c0,0,3.2-115.5,2.3-119.4c-0.9-3.9-12.3-21.6-12.3-21.6s14.6,16.1,16,9.4
										c1.4-6.7,4.1-57.1,4.1-57.1s0.9,51,4.6,50.5c3.6-0.6,18.7-20.5,18.7-20.5S343.3,770,343.3,780s1.4,122.2,1.4,122.2H327.3z"
										/>
								</g>
							</g>
						</g>
						<g>
							<g>
								<g>
									<polygon class="st3" points="1118.4,133.7 1115.9,134 1113.4,133.7 1108.9,198.4 1115.9,198.4 1122.9,198.4 									"/>
								</g>
								<g>
									<polygon class="st4" points="1148.8,148.7 1152.5,148.7 1144.1,129.6 1148.8,129.6 1142,114.5 1146.2,114.5 1136.8,99.9 
										1142.6,99.9 1133.2,81.2 1136.8,81.2 1129.5,64.7 1134.7,64.7 1126.4,50.4 1132.1,50.4 1122.2,36.4 1126.9,36.4 
										1115.9,12.4 1104.9,36.4 1109.6,36.4 1099.7,50.4 1105.5,50.4 1097.1,64.7 1102.3,64.7 1095,81.2 1098.7,81.2 1089.3,99.9 
										1095,99.9 1085.6,114.5 1089.8,114.5 1083,129.6 1087.7,129.6 1079.3,148.7 1083,148.7 1074.1,166.1 1115.9,166.1 
										1157.7,166.1 									"/>
								</g>
							</g>
						</g>
					</g>
				</g>
				<g>
					<g>
						<g>
							<path class="st5" d="M117,352.3h30.3c3.2,0,5.8-2.6,5.8-5.8V136.7c0-3.2-2.6-5.8-5.8-5.8H117c-3.2,0-5.8,2.6-5.8,5.8v209.7
								C111.2,349.7,113.8,352.3,117,352.3z"/>
							<polygon class="st6" points="273.7,229 176.7,259.9 181.2,241.2 20.8,192.7 40.7,125 201.1,173.4 207.8,151.1 							"/>
						</g>
					</g>
					<g>
						<path class="st7" d="M79,141.4l1.6,0.5c1.8,0.5,1.9,4.6,0.2,12.1c-2.6,6.9-5.1,9.9-7.7,9.1c-2.4-0.8-2.7-4.8-0.9-12l0.3-0.8
							C75,143.8,77.3,140.9,79,141.4z M79.2,142.7c-2.2,1.2-3.9,3.6-5,7.3l-0.8,2.6c-1.3,4.8-1.3,7.9,0,9.1l0.7,0.2
							c2.2-1.8,3.9-4.6,5-8.3l0.4-1.3C80.8,147.8,80.8,144.5,79.2,142.7z"/>
						<path class="st7" d="M93.1,145.2c1.3,0.4,2,1.5,1.8,3.1c-0.1,0.4-0.4,0.4-0.8,0.3l-1.4-2.2l-0.7-0.2c-1.4-0.2-3.1,2.3-5.2,7.9
							l-0.4,1.3c-1.9,6.3-2,9.7-0.3,10.2c0.2,0,1.1-0.2,2.6-0.6l0.3,0.1c0.4,0.2,0.6,0.5,0.4,0.7c-1,1-2.2,1.3-3.4,0.9l-0.3-0.1
							c-2.8-0.9-3.1-4.6-1.1-11.3l0.5-1.5C87.3,147.2,89.9,144.2,93.1,145.2z"/>
						<path class="st7" d="M96.1,146.7l8.3,2.5c0.4,0.2,0.6,0.5,0.4,0.7l-0.1,0.3c-0.1,0.4-0.4,0.4-0.8,0.3l-3.6-1.1
							c-1.2,4.4-2.1,8-3,10.6l-2.9,9.5l-1.2-0.4c0.6-2.7,1.1-4.7,1.4-5.9l4.3-14.2l-3.6-1.1c-0.5-0.1-0.6-0.4-0.4-0.7l0.1-0.3
							C95.5,146.7,95.7,146.5,96.1,146.7z"/>
						<path class="st7" d="M110.5,151.1c0.9,0.3,0.7,4.1-0.6,11.3c0.3,0.1-0.1,3.7-1.3,10.8l-0.7,0c-0.8-0.2-0.7-2.8,0.4-7.9
							l-2.9-0.9c-0.4-0.1-1.7,2.2-4.2,6.7l-0.7-0.2c-0.5-0.1-0.6-0.4-0.4-0.7c5.9-11.7,9.3-18.1,10.2-19.3L110.5,151.1z M109,156.1
							c-0.3,0.9-1.5,3.3-3.6,7.3l2.9,0.9c0.4-4.3,0.8-7,1.1-8L109,156.1z"/>
						<path class="st7" d="M119.9,154c0.4,0.2,0.6,0.5,0.4,0.7l-2.5,8.4l3.2,1l2.5-8.4c0.2-0.4,0.4-0.4,0.8-0.3l0.8,0.8
							c-1.1,2.8-1.9,5-2.4,6.4l-4.2,13.6c-0.1,0.4-0.4,0.4-0.8,0.3l-0.3-0.1c-0.4-0.1-0.5-0.3-0.4-0.7l2-6.6
							c0.3-0.9,0.8-2.2,1.5-3.8l-3.2-1l-3.2,10.5c-0.1,0.4-0.4,0.4-0.8,0.3l-0.3-0.1c-0.5-0.1-0.6-0.4-0.4-0.7l3.4-11
							c0-0.2,0.2-0.3,0.4-0.2c0-0.2,0-0.3-0.2-0.4l0.7-1.3l2.3-7.4C119.3,154,119.5,153.9,119.9,154z"/>
						<path class="st7" d="M133.2,158.1l1.6,0.5c1.8,0.5,1.9,4.6,0.2,12.1c-2.6,6.9-5.1,9.9-7.7,9.1c-2.4-0.8-2.7-4.8-0.9-12
							l0.3-0.8C129.3,160.6,131.5,157.6,133.2,158.1z M133.5,159.3c-2.2,1.2-3.9,3.6-5,7.3l-0.8,2.6c-1.3,4.8-1.3,7.9,0,9.1l0.7,0.2
							c2.2-1.8,3.9-4.6,5-8.3l0.4-1.3C135.1,164.5,135.1,161.2,133.5,159.3z"/>
						<path class="st7" d="M144.1,161.4c2.6,0.8,3.7,2.9,3.7,6.5l-0.5,1.5c-0.4,1-1.8,2.1-4.5,3.2c1.9,1.5,2.5,3.2,1.9,5.2l-0.5,1.5
							c-0.6,2.1-3,3-7.1,2.7c-0.5-0.1-0.6-0.4-0.4-0.7l6-19.6C142.8,161.4,143.2,161.2,144.1,161.4z M144.1,162.9l-2.7,8.6
							c2.7-0.5,4.4-1.5,4.9-3.3C146.3,165,145.6,163.3,144.1,162.9z M141,172.8l-2.5,8.1l0.3,0.1c2.4-0.1,3.9-1.2,4.5-3.2
							C143.8,176.4,143,174.6,141,172.8z"/>
						<path class="st7" d="M154.6,164.4l0.3,0.1c0.4,0.2,0.6,0.5,0.4,0.7l-1.9,6.3l0.3,0.1c3.5-3.9,5.5-5.8,6-5.7l0.3,0.1
							c0.5,0.1,0.6,0.5,0.4,1c-4,4-6.7,6.4-7.8,7.4c1.2,8.1,1.9,12.4,1.7,12.8l-0.7,0.2l-0.7-0.2c-0.8-5.5-1.2-8.5-1.2-8.9l-0.3-0.1
							c-1.6,4.5-2.5,6.9-2.6,7.5l-0.7,0c-0.5-0.1-0.6-0.4-0.4-0.7l6.2-20.2C154,164.4,154.2,164.3,154.6,164.4z"/>
						<path class="st7" d="M167,168.5c0.9,0.3,0.7,4.1-0.6,11.3c0.3,0.1-0.1,3.7-1.3,10.8l-0.7,0c-0.8-0.2-0.7-2.8,0.4-7.9l-2.9-0.9
							c-0.4-0.1-1.7,2.2-4.2,6.7l-0.7-0.2c-0.5-0.1-0.6-0.4-0.4-0.7c5.9-11.7,9.3-18.1,10.2-19.3L167,168.5z M165.5,173.4
							c-0.3,0.9-1.5,3.3-3.6,7.3l2.9,0.9c0.4-4.3,0.8-7,1.1-8L165.5,173.4z"/>
						<path class="st7" d="M173.8,177.7l0.9,0.3c0.4,0.2,0.5,0.4,0.4,0.7l-0.1,0.6c-0.1,0.5-0.7,0.7-1.5,0.4
							c-0.3-0.3-0.7-0.5-0.9-0.5l0.4-1C173.2,177.8,173.5,177.6,173.8,177.7z M171.5,186.5l0.3,0.1c0.3,0.1,0.5,0.4,0.8,1.1
							l-0.1,0.5c-0.1,0.4-0.4,0.4-0.8,0.3l-0.9-0.3c-0.5-0.1-0.6-0.4-0.4-0.7l0.1-0.5C170.4,186.8,170.8,186.5,171.5,186.5z"/>
						<path class="st7" d="M57,167.8c1,0.4,2,1.5,3,3.5l-0.1,0.3c-0.1,0.5-0.5,0.6-1,0.5l-0.4-0.1c-0.7-1.4-1.7-2.4-2.7-2.7
							c-1.4-0.1-2.4,0.6-2.9,2.1c-0.4,1.4,0.4,5.6,2.4,12.5c-0.3,3-0.5,4.7-0.6,5c-1.8,4.1-4,5.7-6.9,4.9l-0.9-0.3
							c-0.4-0.1-0.9-0.9-1.5-2.3l0.5-1.7l1.6,0.5c-0.4,1.1-0.2,1.8,0.4,1.9l1.2,0.4c1.1,0.4,2.5-1.3,3.7-4.8
							c0.8-2.7,0.1-6.9-2.1-12.4c-0.4-1.9-0.3-3.6,0.1-4.8C52.4,167.8,54.4,167,57,167.8z"/>
						<path class="st7" d="M71.6,171.1c2.1,0.6,3,2.2,2.7,4.6l-1.2-0.4l-1.6-2.3l-0.9-0.3c-2-0.3-4.5,3.4-7.6,11.4
							c-2.1,8.2-2.4,12.6-0.9,13.1l1.6,0.5c0.2,0,1-0.3,2.6-1c0.6,0.2,0.7,0.6,0.6,0.9l-0.2,0.7c-1.4,1-2.8,1.4-4.3,0.9
							c-3.6-1.1-4.1-5.6-1.7-13.5l1.3-4c3.1-7.9,6-11.4,8.7-10.7L71.6,171.1z"/>
						<path class="st7" d="M78.9,174.1l0.9,0.3c-0.1,0.5-0.1,0.7,0.2,0.8c-1.7,4.4-2.8,7.8-3.5,10l-4.8,15.8c-0.1,0.5-0.5,0.6-1,0.5
							l-0.4-0.1c-0.6-0.1-0.8-0.5-0.6-1l3.2-10.1c0-0.2,0.3-0.2,0.5-0.2c0-0.2,0-0.4-0.3-0.5l0.9-1.5l4.2-13.5
							C78,174.1,78.4,173.9,78.9,174.1z"/>
						<path class="st7" d="M86.7,176.5l6.6,2l-0.4,1c-0.1,0.5-0.5,0.6-1,0.5l-4.6-1.4l-1.7,5.4l-1.7,3.9l0.7,0.6l5,1.5l-0.4,1.3
							l-2.2-0.3l-3.7-1.1l-3.8,12.5l3.7,1.1l1.9,1l-0.4,1.3l-7-2.2l-0.7-0.6c2.1-5.9,3.7-10.6,4.7-14.1l3.7-12.2
							C85.9,176.5,86.2,176.3,86.7,176.5z"/>
						<path class="st7" d="M97.2,180.1l1.2,0.4l-1.1,19.6l0.4,0.1l5.6-18.2l1.2,0.4c0.6,0.2,0.7,0.6,0.6,1L97.2,209
							c-0.1,0.5-0.5,0.6-1,0.5l-1.2-0.4l1-19.6l-0.4-0.1L90,207.6l-1.2-0.4c-0.6-0.1-0.8-0.5-0.6-1l7.9-25.7
							C96.3,180.1,96.7,179.9,97.2,180.1z"/>
						<path class="st7" d="M116.9,185c2.1,0.6,3,2.2,2.7,4.6l-1.2-0.4l-1.6-2.3l-0.9-0.3c-2-0.3-4.5,3.4-7.6,11.4
							c-2.1,8.2-2.4,12.6-0.9,13.1l1.6,0.5c0.2,0,1-0.3,2.6-1c0.6,0.2,0.7,0.6,0.6,0.9l-0.2,0.7c-1.4,1-2.8,1.4-4.3,0.9
							c-3.6-1.1-4.1-5.6-1.7-13.5l1.3-4c3.1-7.9,6-11.4,8.7-10.7L116.9,185z"/>
						<path class="st7" d="M124.2,188l6.6,2l-0.4,1c-0.1,0.5-0.5,0.6-1,0.5l-4.6-1.4l-1.7,5.4l-1.7,3.9l0.7,0.6l5,1.5l-0.4,1.3
							l-2.2-0.3l-3.7-1.1l-3.8,12.5l3.7,1.1l1.9,1l-0.4,1.3l-7-2.2l-0.7-0.6c2.1-5.9,3.7-10.6,4.7-14.1l3.7-12.2
							C123.3,188,123.7,187.8,124.2,188z"/>
						<path class="st7" d="M149.2,194.9c2.1,0.6,3,2.2,2.7,4.6l-1.2-0.4l-1.6-2.3l-0.9-0.3c-2-0.3-4.5,3.4-7.6,11.4
							c-2.1,8.2-2.4,12.6-0.9,13.1l1.6,0.5c0.2,0,1-0.3,2.6-1c0.6,0.2,0.7,0.6,0.6,0.9l-0.2,0.7c-1.4,1-2.8,1.4-4.3,0.9
							c-3.6-1.1-4.1-5.6-1.7-13.5l1.3-4c3.1-7.9,6-11.4,8.7-10.7L149.2,194.9z"/>
						<path class="st7" d="M156.5,197.9l0.9,0.3c-0.1,0.5-0.1,0.7,0.2,0.8c-1.7,4.4-2.8,7.8-3.5,10l-4.8,15.8
							c-0.1,0.5-0.5,0.6-1,0.5l-0.4-0.1c-0.6-0.1-0.8-0.5-0.6-1l3.2-10.1c0-0.2,0.3-0.2,0.5-0.2c0-0.2,0-0.4-0.3-0.5l0.9-1.5
							l4.2-13.5C155.7,197.9,156.1,197.8,156.5,197.9z"/>
						<path class="st7" d="M160.6,199.2l11.1,3.4c0.6,0.2,0.7,0.6,0.6,1c-0.1,0.3-0.6,0.6-1.6,0.6l-4.1-1.3l-0.1,0.3
							c-1.4,4.6-3.8,13-7.3,25.1l-0.9,0.1l-0.4-0.1c-0.6-0.1-0.7-0.5-0.6-1l2.5-8.1c1-3.5,2.6-9.1,4.8-17l-4.1-1.3
							c-0.4-0.1-0.7-0.6-0.9-1.3C159.8,199.1,160.1,199,160.6,199.2z"/>
						<path class="st7" d="M173,203c0.7,0.5,1.3,3.4,1.8,8.7l0.9,0.3c3.4-4.1,5.5-6.2,6.4-6.2c0.6,0.1,0.7,0.6,0.5,1.3
							c-5,5.3-7.5,8.3-7.7,9l-4.3,14.2c-0.1,0.5-0.5,0.6-1,0.5c-0.6-0.1-0.7-0.5-0.6-1l4.3-14.2c0.1-0.5-0.2-4.6-1.2-12.2l0.1-0.4
							L173,203z"/>
					</g>
				</g>
			</g>
		</g>
	</g>
</g>
</svg>
