<?xml version="1.0" encoding="utf-8"?>
<!-- Generator: Adobe Illustrator 22.0.1, SVG Export Plug-In . SVG Version: 6.00 Build 0)  -->
<svg version="1.1" id="Слой_1" xmlns="http://www.w3.org/2000/svg" xmlns:xlink="http://www.w3.org/1999/xlink" x="0px" y="0px"
	 viewBox="0 0 1600 877.3" style="enable-background:new 0 0 1600 877.3;" xml:space="preserve">
<style type="text/css">
	.st0{fill:#009C53;}
	.st1{fill:#303030;}
	.st2{fill:#635128;}
	.st3{fill:#6B8C46;}
	.st4{fill:#CD5351;}
	.st5{fill:#F49045;}
	.st6{fill:#6D6D6C;}
	.st7{fill:#2CBAE5;}
	.st8{fill:#FFF2E7;}
	.st9{fill:#313130;}
	.st10{fill:#585857;}
	.st11{fill:#3E3E3D;}
	.st12{fill:#6F6F6E;}
	.st13{fill:#AEAEAE;}
	.st14{fill:#856037;}
	.st15{fill:#B48B59;}
	.st16{fill:#FFFFFF;}
</style>
<g>
	<rect x="-262.5" y="126" class="st0" width="1998.9" height="752.9"/>
	<g>
		<g>
			<g>
				<g>
					<polygon class="st1" points="18.9,227.5 19.3,234.3 92.4,232.3 92,225.5 					"/>
					<polygon class="st1" points="23.6,251.7 25.5,258.4 97.2,248.7 95.3,242 					"/>
					<polygon class="st1" points="35.8,276.7 40.8,282.6 104.4,258.1 99.4,252.1 					"/>
					<polygon class="st1" points="56.8,298.3 63.9,303.2 116,268.3 108.9,263.5 					"/>
					<polygon class="st1" points="84,315 92,319.1 136.2,279.7 128.2,275.6 					"/>
					<polygon class="st1" points="117.6,328.4 127,330.9 153.9,284.8 144.5,282.3 					"/>
					<polygon class="st1" points="154.3,335.5 164.3,336.5 174.8,287.4 164.9,286.4 					"/>
					<polygon class="st1" points="190.7,338.1 200.7,338.4 203,288.8 193,288.6 					"/>
					<polygon class="st1" points="226.5,338.2 236.5,338 235.3,288.5 225.2,288.6 					"/>
					<path class="st1" d="M76.9,295.5c50.8,35,103.9,30.5,168.9,30.9l-0.1,6.8c-68.2-0.4-122.7,3.9-176-32.9
						c-40.4-27.9-45.6-56.6-45.6-88.8c3.3,0,6.7,0.1,10,0C34.1,242,39,269.3,76.9,295.5z"/>
					<path class="st1" d="M246.2,299.1c-51.3-0.3-100.9,4.7-140.6-22.7c-27.1-18.7-31.1-41.2-31.2-64.7c3.3-0.1,6.7,0.1,10,0.2
						c0.2,21.9,3.9,42.9,28.3,59.8c36.8,25.3,85.8,20.3,133.5,20.6V299.1z"/>
				</g>
				<g>
					<polygon class="st1" points="17.9,212.7 17.8,205.9 90.9,205.4 91,212.3 					"/>
					<polygon class="st1" points="17.6,190.2 17.5,183.4 90.6,182.9 90.7,189.8 					"/>
					<polygon class="st1" points="17.3,167.7 17.2,160.9 90.3,160.5 90.4,167.2 					"/>
					<polygon class="st1" points="17,145.2 16.9,140.8 90.1,137.9 90.1,144.7 					"/>
					<path class="st1" d="M24.4,221.5l10-0.1l-1-95.5c0,0-6.5,0-9.8,0L24.4,221.5z"/>
					<path class="st1" d="M73.8,126l0.9,95.3l10-0.1l-1-95.2C80.3,126,73.8,126,73.8,126z"/>
				</g>
			</g>
		</g>
		<g>
			<g>
				<g>
					<rect x="288.3" y="560.9" class="st1" width="10.1" height="49.6"/>
					<path class="st1" d="M338.9,565.2h-63.8v6.8h63.7C338.8,569.7,338.9,567.5,338.9,565.2z"/>
					<path class="st1" d="M340.8,599.3h-65.6v6.8h65.2C340.7,603.8,340.9,601.6,340.8,599.3z"/>
				</g>
				<g>
					<polygon class="st1" points="50.7,670.8 51.1,664 124.2,666 123.8,672.8 					"/>
					<polygon class="st1" points="55.3,646.6 57.3,639.9 129,649.6 127,656.3 					"/>
					<polygon class="st1" points="67.6,621.6 72.6,615.7 136.1,640.3 131.2,646.2 					"/>
					<polygon class="st1" points="88.6,600.1 95.7,595.1 147.8,630 140.6,634.8 					"/>
					<polygon class="st1" points="115.8,583.3 123.8,579.2 168,618.6 160,622.8 					"/>
					<polygon class="st1" points="149.4,569.9 158.8,567.4 185.7,613.5 176.3,616 					"/>
					<polygon class="st1" points="186.1,562.8 196,561.9 206.6,610.9 196.6,611.9 					"/>
					<polygon class="st1" points="222.4,560.2 232.5,559.9 234.8,609.5 224.7,609.7 					"/>
					<polygon class="st1" points="258.2,560.2 268.3,560.3 267,609.8 256.9,609.7 					"/>
					<path class="st1" d="M108.7,602.8c50.8-35,103.9-30.5,168.9-30.9l-0.1-6.8c-68.2,0.4-122.7-3.9-176,32.9
						c-33.8,23.3-43.4,47.2-45.6,73.2c-0.4,5.1,0,10.2,0,15.5c3.3,0,6.7-0.1,10,0C65.8,656.2,70.7,629,108.7,602.8z"/>
					<path class="st1" d="M277.9,599.2c-51.3,0.3-100.9-4.7-140.6,22.7c-20.7,14.3-28.9,30.9-31.2,48.4c-0.7,5.4,0.3,10.9,0.3,16.5
						c3.3,0.1,6.7,0.1,10,0c0.2-21.9,3.6-43.2,28-60.1c36.8-25.3,85.8-20.3,133.5-20.6V599.2z"/>
				</g>
				<g>
					<polygon class="st1" points="50.8,758.5 50.7,751.7 123.8,751.3 123.9,758.1 					"/>
					<polygon class="st1" points="50.5,736.1 50.4,729.2 123.5,728.8 123.6,735.6 					"/>
					<polygon class="st1" points="50.2,713.5 50.1,706.7 123.2,706.3 123.3,713.1 					"/>
					<polygon class="st1" points="49.9,691 49.8,684.2 122.9,683.7 123,690.6 					"/>
					<path class="st1" d="M57.3,767.4l10-0.1l-1.2-92.5c-3.3,0-6.7,0.1-10,0.1L57.3,767.4z"/>
					<path class="st1" d="M106.4,675.6l1.2,91.5l10-0.1l-1.2-91.5C113.1,675.6,109.8,675.6,106.4,675.6z"/>
				</g>
				<g>
					<polygon class="st1" points="51.9,846.4 51.8,839.6 125,839.1 125.1,846 					"/>
					<polygon class="st1" points="51.6,823.9 51.5,817.1 124.7,816.7 124.8,823.5 					"/>
					<polygon class="st1" points="51.3,801.4 51.2,794.6 124.4,794.2 124.5,800.9 					"/>
					<polygon class="st1" points="51,778.9 51,772.1 124.1,771.6 124.2,778.5 					"/>
					<path class="st1" d="M58.4,855.3l10-0.1l-1.2-92.5c-3.3,0-6.7,0.1-10,0.1L58.4,855.3z"/>
					<path class="st1" d="M107.6,763.4l1.2,91.5l10-0.1l-1.2-91.5C114.3,763.4,110.9,763.5,107.6,763.4z"/>
				</g>
				<g>
					<polygon class="st1" points="52.1,863.8 52.1,856.9 125.2,856.5 125.3,863.3 					"/>
					<path class="st1" d="M58.8,879.5h9.8l-0.3-31.9c-3.3,0-6.7,0.1-10,0.1L58.8,879.5z"/>
					<path class="st1" d="M108.7,848.3l0.5,31.2h9.8l-0.3-31.2C115.4,848.3,112,848.4,108.7,848.3z"/>
				</g>
			</g>
			<g>
				<g>
					<rect x="291.5" y="288" class="st1" width="10.1" height="49.6"/>
					<rect x="258.3" y="288" class="st1" width="10.1" height="49.6"/>
					<rect x="225.2" y="288" class="st1" width="10" height="49.6"/>
					<rect x="191.9" y="288" class="st1" width="10.1" height="49.6"/>
					<path class="st1" d="M314.7,292.3v6.8H178.2c0-2.3,0-4.5,0-6.8H314.7z"/>
					<path class="st1" d="M179.7,326.4h135v6.8h-135C179.7,330.9,179.7,328.7,179.7,326.4z"/>
				</g>
				<g>
					<polygon class="st1" points="539.2,397.9 538.8,391.1 465.7,393.1 466.1,399.9 					"/>
					<polygon class="st1" points="534.6,373.7 532.6,367 460.9,376.7 462.9,383.4 					"/>
					<polygon class="st1" points="522.3,348.7 517.3,342.8 453.8,367.3 458.7,373.3 					"/>
					<polygon class="st1" points="501.3,327.1 494.2,322.2 442.1,357.1 449.3,361.9 					"/>
					<polygon class="st1" points="474.1,310.4 466.1,306.3 421.9,345.7 429.9,349.8 					"/>
					<polygon class="st1" points="440.5,297 431.1,294.5 404.2,340.6 413.6,343.1 					"/>
					<polygon class="st1" points="403.8,289.9 393.9,288.9 383.3,338 393.3,339 					"/>
					<polygon class="st1" points="367.5,287.3 357.4,287 355.1,336.6 365.2,336.8 					"/>
					<polygon class="st1" points="331.7,287.2 321.6,287.4 322.9,336.9 333,336.8 					"/>
					<path class="st1" d="M481.2,329.9c-50.8-35-103.9-30.5-168.9-30.9l0.1-6.8c68.2,0.4,122.7-3.9,176,32.9
						c33.8,23.3,43.4,47.2,45.6,73.2c0.4,5.1,0,10.2,0,15.5c-3.3,0-6.7-0.1-10,0C524.1,383.3,519.2,356.1,481.2,329.9z"/>
					<path class="st1" d="M312,326.3c51.3,0.3,100.9-4.7,140.6,22.7c20.7,14.3,28.9,30.9,31.2,48.4c0.7,5.4-0.3,10.9-0.3,16.5
						c-3.3,0.1-6.7,0.1-10,0c-0.2-21.9-3.6-43.2-28-60.1c-36.8-25.3-85.8-20.3-133.5-20.6L312,326.3z"/>
				</g>
				<g>
					<polygon class="st1" points="538.1,500.4 537.7,507.2 464.6,505.3 465,498.4 					"/>
					<polygon class="st1" points="533.4,524.6 531.5,531.3 459.8,521.6 461.7,514.9 					"/>
					<polygon class="st1" points="521.2,549.6 516.2,555.6 452.6,531 457.6,525 					"/>
					<polygon class="st1" points="500.2,571.2 493.1,576.1 441,541.2 448.1,536.4 					"/>
					<polygon class="st1" points="473,587.9 465,592 420.8,552.6 428.8,548.5 					"/>
					<polygon class="st1" points="439.4,601.3 430,603.8 403.1,557.7 412.5,555.2 					"/>
					<polygon class="st1" points="402.7,608.4 392.7,609.4 382.2,560.3 392.2,559.4 					"/>
					<polygon class="st1" points="366.4,611.1 356.3,611.3 354,561.8 364,561.5 					"/>
					<polygon class="st1" points="330.6,611.1 320.5,610.9 321.7,561.4 331.8,561.5 					"/>
					<path class="st1" d="M480.1,568.4c-50.8,35-103.9,30.5-168.9,30.9l0.1,6.8c68.2-0.4,122.7,3.9,176-32.9
						c40.4-27.9,45.6-56.6,45.6-88.8c-3.3,0-6.7,0.1-10,0C522.9,514.9,518,542.2,480.1,568.4z"/>
					<path class="st1" d="M310.8,572c51.3-0.3,100.9,4.7,140.6-22.7c27.1-18.7,31.1-41.2,31.2-64.7c-3.3-0.1-6.7,0.1-10,0.2
						c-0.2,21.9-3.9,42.9-28.3,59.8c-36.8,25.3-85.8,20.3-133.5,20.6L310.8,572z"/>
				</g>
				<g>
					<polygon class="st1" points="539.1,485.6 539.2,478.8 466.1,478.3 466,485.2 					"/>
					<polygon class="st1" points="539.4,463.1 539.5,456.3 466.4,455.9 466.3,462.7 					"/>
					<polygon class="st1" points="539.7,440.6 539.8,433.8 466.7,433.4 466.6,440.2 					"/>
					<polygon class="st1" points="540,418.1 540.1,411.3 467,410.8 466.9,417.7 					"/>
					<path class="st1" d="M532.6,494.5l-10-0.1l1.2-92.5c3.3,0,6.7,0.1,10,0.1L532.6,494.5z"/>
					<path class="st1" d="M483.5,402.6l-1.2,91.5l-10-0.1l1.2-91.5C476.8,402.7,480.1,402.7,483.5,402.6z"/>
				</g>
			</g>
		</g>
	</g>
	<g>
		<g>
			<g>
				<g>
					<polygon class="st2" points="461.9,159.2 459.3,159.5 456.8,159.2 452.4,223.9 459.3,223.9 466.3,223.9 					"/>
				</g>
				<g>
					<polygon class="st3" points="492.3,174.2 495.9,174.2 487.6,155.1 492.3,155.1 485.5,140 489.7,140 480.3,125.4 486,125.4 
						476.6,106.6 480.3,106.6 472.9,90.1 478.2,90.1 469.8,75.9 475.6,75.9 465.6,61.8 470.3,61.8 459.3,37.9 448.4,61.8 
						453.1,61.8 443.1,75.9 448.9,75.9 440.5,90.1 445.8,90.1 438.4,106.6 442.1,106.6 432.7,125.4 438.4,125.4 429,140 433.2,140 
						426.4,155.1 431.1,155.1 422.8,174.2 426.4,174.2 417.5,191.5 459.3,191.5 501.2,191.5 					"/>
				</g>
			</g>
		</g>
		<g>
			<g>
				<g>
					<polygon class="st2" points="392.6,169.8 389.5,170.2 386.4,169.8 380.9,249.1 389.5,249.1 398,249.1 					"/>
				</g>
				<g>
					<polygon class="st3" points="429.8,188.1 434.3,188.1 424,164.7 429.8,164.7 421.5,146.2 426.6,146.2 415.1,128.4 422.1,128.4 
						410.6,105.4 415.1,105.4 406.1,85.2 412.5,85.2 402.3,67.8 409.3,67.8 397.2,50.5 402.9,50.5 389.5,21.2 376,50.5 381.8,50.5 
						369.6,67.8 376.7,67.8 366.4,85.2 372.8,85.2 363.9,105.4 368.3,105.4 356.8,128.4 363.9,128.4 352.3,146.2 357.5,146.2 
						349.1,164.7 354.9,164.7 344.7,188.1 349.1,188.1 338.3,209.4 389.5,209.4 440.7,209.4 					"/>
				</g>
			</g>
		</g>
	</g>
	<g>
		<g>
			<g>
				<polygon class="st2" points="505.9,759.5 503.3,759.8 500.8,759.5 496.4,824.2 503.3,824.2 510.3,824.2 				"/>
			</g>
			<g>
				<polygon class="st3" points="536.2,774.5 539.9,774.5 531.5,755.4 536.2,755.4 529.5,740.3 533.6,740.3 524.2,725.7 530,725.7 
					520.6,706.9 524.2,706.9 516.9,690.4 522.1,690.4 513.8,676.2 519.5,676.2 509.6,662.1 514.3,662.1 503.3,638.2 492.3,662.1 
					497.1,662.1 487.1,676.2 492.9,676.2 484.5,690.4 489.7,690.4 482.4,706.9 486.1,706.9 476.7,725.7 482.4,725.7 473,740.3 
					477.2,740.3 470.4,755.4 475.1,755.4 466.7,774.5 470.4,774.5 461.5,791.8 503.3,791.8 545.1,791.8 				"/>
			</g>
		</g>
	</g>
	<g>
		<g>
			<polygon class="st4" points="387.2,294.7 397.7,276.3 387.2,257.8 381.9,263.1 381.9,289.5 			"/>
			<g>
				<polygon class="st5" points="364.2,255.2 368.4,231.4 368.4,226.1 343.7,226.1 343.7,231.4 347.8,255.2 				"/>
				<path class="st4" d="M371.3,263.1v-7.5c0-1.7-1.4-3-3-3h-24.5c-1.7,0-3,1.4-3,3v7.5H371.3z"/>
				<polygon class="st6" points="371,231.4 365.3,215.6 346.8,215.6 341,231.4 				"/>
			</g>
			<polygon class="st7" points="260.5,236.7 260.5,278.9 268.4,286.8 302.7,286.8 302.7,236.7 			"/>
			<polygon class="st7" points="387.2,278.9 387.2,257.8 281.6,257.8 281.6,286.8 379.3,286.8 			"/>
			<g>
				<path class="st8" d="M287.8,247.2h-13.7c-1.7,0-3,1.4-3,3v15c0,1.7,1.4,3,3,3h13.7c1.7,0,3-1.4,3-3v-15
					C290.8,248.6,289.5,247.2,287.8,247.2z"/>
			</g>
			<rect x="257.9" y="236.7" class="st4" width="47.5" height="5.3"/>
			<path class="st9" d="M265.8,286.8v18.5c5.8,0,10.6,4.7,10.6,10.6H382v-29H265.8V286.8z"/>
			<rect x="260.5" y="278.9" class="st10" width="42.2" height="26.4"/>
			<rect x="281.6" y="278.9" class="st10" width="105.6" height="15.8"/>
			<rect x="376.6" y="300" class="st9" width="10.6" height="15.8"/>
			<polygon class="st4" points="408.3,321.1 387.2,300 387.2,325.9 408.3,325.9 			"/>
			<g>
				<g>
					<path class="st11" d="M371.3,331.7L371.3,331.7c-5.8,0-10.6-4.7-10.6-10.6c0-5.8,4.7-10.6,10.6-10.6c5.8,0,10.6,4.7,10.6,10.6
						S377.2,331.7,371.3,331.7"/>
					<path class="st10" d="M371.3,313.7c4.1,0,7.4,3.3,7.4,7.4s-3.3,7.4-7.4,7.4s-7.4-3.3-7.4-7.4
						C363.9,317.1,367.3,313.7,371.3,313.7"/>
					<path class="st11" d="M371.3,319c1.2,0,2.1,0.9,2.1,2.1s-0.9,2.1-2.1,2.1s-2.1-0.9-2.1-2.1C369.2,320,370.2,319,371.3,319"/>
				</g>
				<g>
					<path class="st11" d="M347.1,331.7L347.1,331.7c-5.8,0-10.6-4.7-10.6-10.6c0-5.8,4.7-10.6,10.6-10.6c5.8,0,10.6,4.7,10.6,10.6
						C357.6,327,352.9,331.7,347.1,331.7"/>
					<path class="st10" d="M347.1,313.7c4.1,0,7.4,3.3,7.4,7.4s-3.3,7.4-7.4,7.4s-7.4-3.3-7.4-7.4
						C339.7,317.1,343,313.7,347.1,313.7"/>
					<path class="st11" d="M347.1,319c1.2,0,2.1,0.9,2.1,2.1s-0.9,2.1-2.1,2.1s-2.1-0.9-2.1-2.1C344.9,320,345.9,319,347.1,319"/>
				</g>
				<g>
					<path class="st11" d="M302.7,331.7L302.7,331.7c-11.7,0-21.1-9.5-21.1-21.1c0-11.7,9.5-21.1,21.1-21.1
						c11.7,0,21.1,9.5,21.1,21.1C323.8,322.2,314.4,331.7,302.7,331.7"/>
					<g>
						<path class="st10" d="M302.7,293.7c9.3,0,16.9,7.6,16.9,16.9s-7.6,16.9-16.9,16.9s-16.9-7.6-16.9-16.9
							C285.8,301.3,293.4,293.7,302.7,293.7"/>
					</g>
					<path class="st11" d="M302.7,308.5c1.2,0,2.1,0.9,2.1,2.1s-0.9,2.1-2.1,2.1s-2.1-0.9-2.1-2.1S301.6,308.5,302.7,308.5"/>
				</g>
				<g>
					<g>
						<polygon class="st12" points="303.8,322.5 301.7,317.7 335.9,302.7 359.2,302.7 359.2,307.9 337.1,307.9 						"/>
					</g>
					<g>
						<path class="st4" d="M302.7,315.9c-2.3,0-4.2,1.9-4.2,4.2c0,2.3,1.9,4.2,4.2,4.2c2.3,0,4.2-1.9,4.2-4.2
							C306.9,317.8,305,315.9,302.7,315.9L302.7,315.9z"/>
						<path class="st11" d="M302.7,318c1.2,0,2.1,0.9,2.1,2.1s-0.9,2.1-2.1,2.1s-2.1-0.9-2.1-2.1S301.6,318,302.7,318"/>
					</g>
					<g>
						<path class="st4" d="M336.5,301.1c-2.3,0-4.2,1.9-4.2,4.2c0,2.3,1.9,4.2,4.2,4.2c2.3,0,4.2-1.9,4.2-4.2
							S338.8,301.1,336.5,301.1L336.5,301.1z"/>
						<path class="st11" d="M336.5,303.2c1.2,0,2.1,0.9,2.1,2.1s-0.9,2.1-2.1,2.1s-2.1-0.9-2.1-2.1S335.3,303.2,336.5,303.2"/>
					</g>
					<path class="st13" d="M347.1,300.4v9.8c0,1.7,1.4,3,3,3h18.2c1.7,0,3-1.4,3-3v-9.8c0-1.7-1.4-3-3-3h-18.2
						C348.4,297.4,347.1,298.7,347.1,300.4z"/>
				</g>
			</g>
		</g>
		<g>
			<rect x="249.3" y="309.8" class="st11" width="28.4" height="5"/>
			<g>
				<rect x="149.3" y="297.6" class="st6" width="100.5" height="20.1"/>
				<g>
					<path class="st11" d="M163.7,332.8L163.7,332.8c5.6,0,10.1-4.5,10.1-10.1s-4.5-10.1-10.1-10.1s-10.1,4.5-10.1,10.1
						C153.7,328.3,158.2,332.8,163.7,332.8"/>
					<path class="st10" d="M163.7,315.7c3.9,0,7,3.2,7,7c0,3.9-3.2,7-7,7c-3.9,0-7-3.2-7-7C156.7,318.9,159.9,315.7,163.7,315.7"/>
					<path class="st11" d="M163.7,320.8c1.1,0,2,0.9,2,2s-0.9,2-2,2s-2-0.9-2-2C161.7,321.7,162.6,320.8,163.7,320.8"/>
				</g>
				<g>
					<path class="st11" d="M235.4,332.8L235.4,332.8c5.6,0,10-4.5,10-10.1s-4.5-10.1-10-10.1c-5.6,0-10.1,4.5-10.1,10.1
						C225.3,328.3,229.8,332.8,235.4,332.8"/>
					<path class="st10" d="M235.4,315.7c3.9,0,7,3.2,7,7c0,3.9-3.2,7-7,7c-3.9,0-7-3.2-7-7C228.3,318.9,231.5,315.7,235.4,315.7"/>
					<path class="st11" d="M235.4,320.8c1.1,0,2,0.9,2,2s-0.9,2-2,2s-2-0.9-2-2C233.3,321.7,234.2,320.8,235.4,320.8"/>
				</g>
				<polygon class="st5" points="144.3,282.6 144.3,242.4 254.8,242.4 254.8,282.6 242.3,295.1 156.8,295.1 				"/>
				<rect x="141.8" y="242.4" class="st6" width="115.6" height="5"/>
				<g>
					<path class="st8" d="M181.1,252.4h13.1c1.6,0,2.9,1.3,2.9,2.9v14.3c0,1.6-1.3,2.9-2.9,2.9h-13.1c-1.6,0-2.9-1.3-2.9-2.9v-14.3
						C178.2,253.7,179.5,252.4,181.1,252.4z"/>
					<path class="st8" d="M218,272.5h-13c-1.6,0-2.9-1.3-2.9-2.9v-14.3c0-1.6,1.3-2.9,2.9-2.9h13c1.6,0,2.9,1.3,2.9,2.9v14.3
						C220.9,271.2,219.6,272.5,218,272.5z"/>
					<path class="st8" d="M173.2,255.3v14.3c0,1.6-1.3,2.9-2.9,2.9h-13.1c-1.6,0-2.9-1.3-2.9-2.9v-14.3c0-1.6,1.3-2.9,2.9-2.9h13.1
						C171.9,252.4,173.2,253.7,173.2,255.3z"/>
					<path class="st8" d="M228.8,252.4h13.1c1.6,0,2.9,1.3,2.9,2.9v14.3c0,1.6-1.3,2.9-2.9,2.9h-13.1c-1.6,0-2.9-1.3-2.9-2.9v-14.3
						C225.9,253.7,227.2,252.4,228.8,252.4z"/>
				</g>
				<rect x="144.3" y="282.6" class="st7" width="110.6" height="25.1"/>
			</g>
		</g>
	</g>
	<g>
		<g>
			<g>
				<path class="st14" d="M631.6,396.2h30.3c3.2,0,5.8-2.6,5.8-5.8V180.6c0-3.2-2.6-5.8-5.8-5.8h-30.3c-3.2,0-5.8,2.6-5.8,5.8v209.7
					C625.8,393.6,628.4,396.2,631.6,396.2z"/>
				<polygon class="st15" points="788.2,273 691.2,303.9 695.8,285.1 535.4,236.7 555.3,169 715.7,217.4 722.4,195 				"/>
			</g>
		</g>
		<g>
			<path class="st16" d="M593.6,185.4l1.6,0.5c1.8,0.5,1.9,4.6,0.2,12.1c-2.6,6.9-5.1,9.9-7.7,9.1c-2.4-0.8-2.7-4.8-0.9-12l0.3-0.8
				C589.6,187.8,591.8,184.9,593.6,185.4z M593.8,186.7c-2.2,1.2-3.9,3.6-5,7.3l-0.8,2.6c-1.3,4.8-1.3,7.9,0,9.1l0.7,0.2
				c2.2-1.8,3.9-4.6,5-8.3l0.4-1.3C595.4,191.8,595.4,188.5,593.8,186.7z"/>
			<path class="st16" d="M607.7,189.2c1.3,0.4,2,1.5,1.8,3.1c-0.1,0.4-0.4,0.4-0.8,0.3l-1.4-2.2l-0.7-0.2c-1.4-0.2-3.1,2.3-5.2,7.9
				l-0.4,1.3c-1.9,6.3-2,9.7-0.3,10.2c0.2,0,1.1-0.2,2.6-0.6l0.3,0.1c0.4,0.2,0.6,0.5,0.4,0.7c-1,1-2.2,1.3-3.4,0.9l-0.3-0.1
				c-2.8-0.9-3.1-4.6-1.1-11.3l0.5-1.5C601.8,191.2,604.5,188.2,607.7,189.2z"/>
			<path class="st16" d="M610.7,190.7l8.3,2.5c0.4,0.2,0.6,0.5,0.4,0.7l-0.1,0.3c-0.1,0.4-0.4,0.4-0.8,0.3l-3.6-1.1
				c-1.2,4.4-2.1,8-3,10.6l-2.9,9.5l-1.2-0.4c0.6-2.7,1.1-4.7,1.4-5.9l4.3-14.2l-3.6-1.1c-0.5-0.1-0.6-0.4-0.4-0.7l0.1-0.3
				C610.1,190.7,610.3,190.5,610.7,190.7z"/>
			<path class="st16" d="M625.1,195.1c0.9,0.3,0.7,4.1-0.6,11.3c0.3,0.1-0.1,3.7-1.3,10.8l-0.7,0c-0.8-0.2-0.7-2.8,0.4-7.9l-2.9-0.9
				c-0.4-0.1-1.7,2.2-4.2,6.7l-0.7-0.2c-0.5-0.1-0.6-0.4-0.4-0.7c5.9-11.7,9.3-18.1,10.2-19.3L625.1,195.1z M623.6,200.1
				c-0.3,0.9-1.5,3.3-3.6,7.3l2.9,0.9c0.4-4.3,0.8-7,1.1-8L623.6,200.1z"/>
			<path class="st16" d="M634.5,198c0.4,0.2,0.6,0.5,0.4,0.7l-2.5,8.4l3.2,1l2.5-8.4c0.2-0.4,0.4-0.4,0.8-0.3l0.8,0.8
				c-1.1,2.8-1.9,5-2.4,6.4l-4.2,13.6c-0.1,0.4-0.4,0.4-0.8,0.3l-0.3-0.1c-0.4-0.1-0.5-0.3-0.4-0.7l2-6.6c0.3-0.9,0.8-2.2,1.5-3.8
				l-3.2-1l-3.2,10.5c-0.1,0.4-0.4,0.4-0.8,0.3l-0.3-0.1c-0.5-0.1-0.6-0.4-0.4-0.7l3.4-11c0-0.2,0.2-0.3,0.4-0.2
				c0-0.2,0-0.3-0.2-0.4l0.7-1.3l2.3-7.4C633.8,198,634.1,197.9,634.5,198z"/>
			<path class="st16" d="M647.8,202.1l1.6,0.5c1.8,0.5,1.9,4.6,0.2,12.1c-2.6,6.9-5.1,9.9-7.7,9.1c-2.4-0.8-2.7-4.8-0.9-12l0.3-0.8
				C643.9,204.5,646,201.6,647.8,202.1z M648.1,203.3c-2.2,1.2-3.9,3.6-5,7.3l-0.8,2.6c-1.3,4.8-1.3,7.9,0,9.1l0.7,0.2
				c2.2-1.8,3.9-4.6,5-8.3l0.4-1.3C649.7,208.5,649.7,205.2,648.1,203.3z"/>
			<path class="st16" d="M658.7,205.4c2.6,0.8,3.7,2.9,3.7,6.5l-0.5,1.5c-0.4,1-1.8,2.1-4.5,3.2c1.9,1.5,2.5,3.2,1.9,5.2l-0.5,1.5
				c-0.6,2.1-3,3-7.1,2.7c-0.5-0.1-0.6-0.4-0.4-0.7l6-19.6C657.4,205.4,657.8,205.2,658.7,205.4z M658.7,206.8l-2.7,8.6
				c2.7-0.5,4.4-1.5,4.9-3.3C660.9,209,660.2,207.3,658.7,206.8z M655.5,216.8l-2.5,8.1l0.3,0.1c2.4-0.1,3.9-1.2,4.5-3.2
				C658.4,220.4,657.6,218.6,655.5,216.8z"/>
			<path class="st16" d="M669.2,208.3l0.3,0.1c0.4,0.2,0.6,0.5,0.4,0.7l-1.9,6.3l0.3,0.1c3.5-3.9,5.5-5.8,6-5.7l0.3,0.1
				c0.5,0.1,0.6,0.5,0.4,1c-4,4-6.7,6.4-7.8,7.4c1.2,8.1,1.9,12.4,1.7,12.8l-0.7,0.2l-0.7-0.2c-0.8-5.5-1.2-8.5-1.2-8.9l-0.3-0.1
				c-1.6,4.5-2.5,6.9-2.6,7.5l-0.7,0c-0.5-0.1-0.6-0.4-0.4-0.7l6.2-20.2C668.6,208.4,668.8,208.3,669.2,208.3z"/>
			<path class="st16" d="M681.6,212.4c0.9,0.3,0.7,4.1-0.6,11.3c0.3,0.1-0.1,3.7-1.3,10.8l-0.7,0c-0.8-0.2-0.7-2.8,0.4-7.9l-2.9-0.9
				c-0.4-0.1-1.7,2.2-4.2,6.7l-0.7-0.2c-0.5-0.1-0.6-0.4-0.4-0.7c5.9-11.7,9.3-18.1,10.2-19.3L681.6,212.4z M680.1,217.4
				c-0.3,0.9-1.5,3.3-3.6,7.3l2.9,0.9c0.4-4.3,0.8-7,1.1-8L680.1,217.4z"/>
			<path class="st16" d="M688.4,221.7l0.9,0.3c0.4,0.2,0.5,0.4,0.4,0.7l-0.1,0.6c-0.1,0.5-0.7,0.7-1.5,0.4c-0.3-0.3-0.7-0.5-0.9-0.5
				l0.4-1C687.8,221.8,688.1,221.6,688.4,221.7z M686.1,230.5l0.3,0.1c0.3,0.1,0.5,0.4,0.8,1.1l-0.1,0.5c-0.1,0.4-0.4,0.4-0.8,0.3
				l-0.9-0.3c-0.5-0.1-0.6-0.4-0.4-0.7l0.1-0.5C685,230.8,685.4,230.5,686.1,230.5z"/>
			<path class="st16" d="M571.6,211.8c1,0.4,2,1.5,3,3.5l-0.1,0.3c-0.1,0.5-0.5,0.6-1,0.5l-0.4-0.1c-0.7-1.4-1.7-2.4-2.7-2.7
				c-1.4-0.1-2.4,0.6-2.9,2.1c-0.4,1.4,0.4,5.6,2.4,12.5c-0.3,3-0.5,4.7-0.6,5c-1.8,4.1-4,5.7-6.9,4.9l-0.9-0.3
				c-0.4-0.1-0.9-0.9-1.5-2.3l0.5-1.7l1.6,0.5c-0.4,1.1-0.2,1.8,0.4,1.9l1.2,0.4c1.1,0.4,2.5-1.3,3.7-4.8c0.8-2.7,0.1-6.9-2.1-12.4
				c-0.4-1.9-0.3-3.6,0.1-4.8C567,211.8,569,211,571.6,211.8z"/>
			<path class="st16" d="M586.1,215.1c2.1,0.6,3,2.2,2.7,4.6l-1.2-0.4l-1.6-2.3l-0.9-0.3c-2-0.3-4.5,3.4-7.6,11.4
				c-2.1,8.2-2.4,12.6-0.9,13.1l1.6,0.5c0.2,0,1-0.3,2.6-1c0.6,0.2,0.7,0.6,0.6,0.9l-0.2,0.7c-1.4,1-2.8,1.4-4.3,0.9
				c-3.6-1.1-4.1-5.6-1.7-13.5l1.3-4c3.1-7.9,6-11.4,8.7-10.7L586.1,215.1z"/>
			<path class="st16" d="M593.4,218.1l0.9,0.3c-0.1,0.5-0.1,0.7,0.2,0.8c-1.7,4.4-2.8,7.8-3.5,10l-4.8,15.8c-0.1,0.5-0.5,0.6-1,0.5
				l-0.4-0.1c-0.6-0.1-0.8-0.5-0.6-1l3.2-10.1c0-0.2,0.3-0.2,0.5-0.2c0-0.2,0-0.4-0.3-0.5l0.9-1.5l4.2-13.5
				C592.6,218.1,593,217.9,593.4,218.1z"/>
			<path class="st16" d="M601.3,220.4l6.6,2l-0.4,1c-0.1,0.5-0.5,0.6-1,0.5l-4.6-1.4l-1.7,5.4l-1.7,3.9l0.7,0.6l5,1.5l-0.4,1.3
				l-2.2-0.3l-3.7-1.1l-3.8,12.5l3.7,1.1l1.9,1l-0.4,1.3l-7-2.2l-0.7-0.6c2.1-5.9,3.7-10.6,4.7-14.1l3.7-12.2
				C600.5,220.5,600.8,220.3,601.3,220.4z"/>
			<path class="st16" d="M611.7,224.1l1.2,0.4l-1.1,19.6l0.4,0.1l5.6-18.2l1.2,0.4c0.6,0.2,0.7,0.6,0.6,1l-7.9,25.7
				c-0.1,0.5-0.5,0.6-1,0.5l-1.2-0.4l1-19.6l-0.4-0.1l-5.6,18.2l-1.2-0.4c-0.6-0.1-0.8-0.5-0.6-1l7.9-25.7
				C610.9,224.1,611.3,223.9,611.7,224.1z"/>
			<path class="st16" d="M631.4,229c2.1,0.6,3,2.2,2.7,4.6l-1.2-0.4l-1.6-2.3l-0.9-0.3c-2-0.3-4.5,3.4-7.6,11.4
				c-2.1,8.2-2.4,12.6-0.9,13.1l1.6,0.5c0.2,0,1-0.3,2.6-1c0.6,0.2,0.7,0.6,0.6,0.9l-0.2,0.7c-1.4,1-2.8,1.4-4.3,0.9
				c-3.6-1.1-4.1-5.6-1.7-13.5l1.3-4c3.1-7.9,6-11.4,8.7-10.7L631.4,229z"/>
			<path class="st16" d="M638.7,232l6.6,2l-0.4,1c-0.1,0.5-0.5,0.6-1,0.5l-4.6-1.4l-1.7,5.4l-1.7,3.9l0.7,0.6l5,1.5l-0.4,1.3
				l-2.2-0.3l-3.7-1.1l-3.8,12.5l3.7,1.1l1.9,1l-0.4,1.3l-7-2.2l-0.7-0.6c2.1-5.9,3.7-10.6,4.7-14.1l3.7-12.2
				C637.9,232,638.3,231.8,638.7,232z"/>
			<path class="st16" d="M663.8,238.9c2.1,0.6,3,2.2,2.7,4.6l-1.2-0.4l-1.6-2.3l-0.9-0.3c-2-0.3-4.5,3.4-7.6,11.4
				c-2.1,8.2-2.4,12.6-0.9,13.1l1.6,0.5c0.2,0,1-0.3,2.6-1c0.6,0.2,0.7,0.6,0.6,0.9l-0.2,0.7c-1.4,1-2.8,1.4-4.3,0.9
				c-3.6-1.1-4.1-5.6-1.7-13.5l1.3-4c3.1-7.9,6-11.4,8.7-10.7L663.8,238.9z"/>
			<path class="st16" d="M671.1,241.9l0.9,0.3c-0.1,0.5-0.1,0.7,0.2,0.8c-1.7,4.4-2.8,7.8-3.5,10l-4.8,15.8c-0.1,0.5-0.5,0.6-1,0.5
				l-0.4-0.1c-0.6-0.1-0.8-0.5-0.6-1L665,258c0-0.2,0.3-0.2,0.5-0.2c0-0.2,0-0.4-0.3-0.5l0.9-1.5l4.2-13.5
				C670.3,241.9,670.6,241.8,671.1,241.9z"/>
			<path class="st16" d="M675.1,243.2l11.1,3.4c0.6,0.2,0.7,0.6,0.6,1c-0.1,0.3-0.6,0.6-1.6,0.6l-4.1-1.3l-0.1,0.3
				c-1.4,4.6-3.8,13-7.3,25.1l-0.9,0.1l-0.4-0.1c-0.6-0.1-0.7-0.5-0.6-1l2.5-8.1c1-3.5,2.6-9.1,4.8-17l-4.1-1.3
				c-0.4-0.1-0.7-0.6-0.9-1.3C674.3,243.1,674.7,243,675.1,243.2z"/>
			<path class="st16" d="M687.6,247c0.7,0.5,1.3,3.4,1.8,8.7l0.9,0.3c3.4-4.1,5.5-6.2,6.4-6.2c0.6,0.1,0.7,0.6,0.5,1.3
				c-5,5.3-7.5,8.3-7.7,9l-4.3,14.2c-0.1,0.5-0.5,0.6-1,0.5c-0.6-0.1-0.7-0.5-0.6-1l4.3-14.2c0.1-0.5-0.2-4.6-1.2-12.2l0.1-0.4
				L687.6,247z"/>
		</g>
	</g>
</g>
</svg>
