<?xml version="1.0" encoding="utf-8"?>
<!-- Generator: Adobe Illustrator 22.0.1, SVG Export Plug-In . SVG Version: 6.00 Build 0)  -->
<svg version="1.1" id="Слой_1" xmlns="http://www.w3.org/2000/svg" xmlns:xlink="http://www.w3.org/1999/xlink" x="0px" y="0px"
	 viewBox="0 0 1600 877.3" style="enable-background:new 0 0 1600 877.3;" xml:space="preserve">
<style type="text/css">
	.st0{clip-path:url(#SVGID_2_);}
	.st1{fill:#009C53;}
	.st2{fill:#DBC95D;}
	.st3{fill:#005621;}
	.st4{fill:#635128;}
	.st5{fill:#6B8C46;}
	.st6{fill:#303030;}
	.st7{fill:#CD5351;}
	.st8{fill:#F49045;}
	.st9{fill:#6D6D6C;}
	.st10{fill:#2CBAE5;}
	.st11{fill:#FFF2E7;}
	.st12{fill:#313130;}
	.st13{fill:#585857;}
	.st14{fill:#3E3E3D;}
	.st15{fill:#6F6F6E;}
	.st16{fill:#AEAEAE;}
	.st17{fill:#80BA9C;}
	.st18{fill:#856037;}
	.st19{fill:#B48B59;}
	.st20{fill:#FFFFFF;}
</style>
<g>
	<defs>
		<rect id="SVGID_1_" x="-161.8" y="-13.7" width="1922" height="894"/>
	</defs>
	<clipPath id="SVGID_2_">
		<use xlink:href="#SVGID_1_"  style="overflow:visible;"/>
	</clipPath>
	<g class="st0">
		<rect x="-251.1" y="131.6" class="st1" width="2091.2" height="783.4"/>
		<g>
			<path class="st2" d="M239.1,35.8c-17-4.9-36.2-4.8-50.5,2.1c-22.8,10.9-33,27.7-25.3,42.5c0.3,0.6,0.4,1.2,0.1,1.8
				C162,85,155,83,151.9,82.6c-4.6-0.6-9.4-0.7-14.1-0.5c-9.5,0.4-18.8,2.4-25.9,5.7c-7.5,3.5-12.4,8.1-15.8,12.9
				c-11.7,16.1-5.1,36.2,17.9,48.7c4.7,2.6,10.1,4.8,16,6.8c13.9,4.6,24.1,11.2,30.4,18.9c1.6,2,3.9,3.8,6.9,5.4
				c8.9,4.7,22.7,7.1,35.9,6.1c14.5-1.1,28.8-6.2,37.9-11.9c4.3-2.7,6.7-6.5,7.7-10.5c0.2-0.7,0.4-1.3,0.6-2
				c-0.1-1.2-0.1-2.4,0.1-3.7c0.2-1.2,0.6-2.3,1.3-3.5c-1.6-7.2,22.9-10.7,26.7-13.3c5.6-3.8,8.8-10.7,8.7-17.5
				c0-6.8-3-13.4-7.6-18.4c-3.6-4-8.4-7.4-9.4-12.7c-1.3-6.6,3.9-12.6,5.6-19.1c2.2-8.8-2.4-18.2-9.2-24.2
				C258.5,43.4,249.2,38.7,239.1,35.8z"/>
			<path class="st3" d="M218.6,91.3c-0.1-0.1-0.3-0.2-0.7-0.2c-1.3,0.1-2.5,2.3-3.3,3.1c-1.4,1.4-2.7,2.7-4.1,4.1
				c-3.4,3.5-6.8,6.9-10.3,10.4c0.3-0.7,0.5-1.4,0.8-2.1c1.1-3.1,2.3-6.3,3.4-9.4c0.5-1.4,1.3-2.9,1.6-4.4c0.2-0.8-0.4-1.3-1.1-0.7
				c-0.5,0.4-0.7,1.3-0.9,1.8c-0.5,1.2-0.9,2.3-1.4,3.5c-1.1,2.7-2.2,5.4-3.3,8.1c-3.1,7.7-6.3,15.4-9.4,23.2L189.4,90
				c0-0.9-0.8-1.6-1.7-1.6s-1.5,0.7-1.6,1.6l-3,87.6l-20.6-27.5c0-0.1,0-0.1,0-0.2c-1-4.7-2-9.4-2.9-14.1c-0.7-3.2-1.3-6.4-2-9.6
				c-0.3-1.3-0.5-2.5-0.8-3.8c-0.1-0.5-0.1-1.1-0.3-1.6s-1.3-1.4-1.6-0.4c-0.1,0.3,0.1,0.8,0.2,1.1c0.2,1,0.3,2,0.5,3
				c0.4,2.6,0.9,5.3,1.3,7.9c0.7,4.3,1.4,8.6,2.1,12.9c-3-4-6-8-9-12c-1.3-1.7-2.5-3.4-3.8-5c-0.5-0.7-1-1.4-1.5-2.1
				c-0.2-0.3-0.5-0.8-0.9-0.9c-1.5-0.3-0.2,1.6,0.1,2.1c0.4,0.6,0.8,1.2,1.2,1.8c1.1,1.7,2.3,3.3,3.4,5c3.1,4.6,6.3,9.2,9.4,13.7
				c3.5,5.2,7.1,10.3,10.6,15.5c3,4.4,6.1,8.8,9.1,13.2c1.6,2.3,3.2,4.7,4.8,7c0.1,0.1,0.2,0.2,0.2,0.3l-3.2,94.3l11.9-0.4
				L190,136.7l9.2-25.3l0,0c3.5-3.5,6.9-7,10.4-10.5c2.3-2.3,4.7-4.7,7-7C217,93.5,218.9,91.9,218.6,91.3z"/>
		</g>
		<g>
			<g>
				<g>
					<polygon class="st4" points="1155.8,262.7 1153.3,263 1150.8,262.7 1146.3,327.4 1153.3,327.4 1160.3,327.4 					"/>
				</g>
				<g>
					<polygon class="st5" points="1186.2,277.7 1189.9,277.7 1181.5,258.6 1186.2,258.6 1179.4,243.5 1183.6,243.5 1174.2,228.9 
						1179.9,228.9 1170.5,210.1 1174.2,210.1 1166.9,193.6 1172.1,193.6 1163.7,179.4 1169.5,179.4 1159.6,165.3 1164.3,165.3 
						1153.3,141.4 1142.3,165.3 1147,165.3 1137.1,179.4 1142.8,179.4 1134.5,193.6 1139.7,193.6 1132.4,210.1 1136,210.1 
						1126.6,228.9 1132.4,228.9 1123,243.5 1127.2,243.5 1120.4,258.6 1125.1,258.6 1116.7,277.7 1120.4,277.7 1111.5,295 
						1153.3,295 1195.1,295 					"/>
				</g>
			</g>
		</g>
		<g>
			<g>
				<g>
					<polygon class="st4" points="1534,625.7 1530.9,626.1 1527.7,625.7 1522.3,705.7 1530.9,705.7 1539.5,705.7 					"/>
				</g>
				<g>
					<polygon class="st5" points="1571.6,644.2 1576.1,644.2 1565.8,620.6 1571.6,620.6 1563.2,601.9 1568.4,601.9 1556.7,583.9 
						1563.8,583.9 1552.2,560.7 1556.7,560.7 1547.7,540.3 1554.1,540.3 1543.8,522.7 1550.9,522.7 1538.6,505.3 1544.4,505.3 
						1530.9,475.7 1517.3,505.3 1523.1,505.3 1510.8,522.7 1517.9,522.7 1507.6,540.3 1514.1,540.3 1505,560.7 1509.5,560.7 
						1497.9,583.9 1505,583.9 1493.4,601.9 1498.6,601.9 1490.2,620.6 1496,620.6 1485.6,644.2 1490.2,644.2 1479.2,665.7 
						1530.9,665.7 1582.6,665.7 					"/>
				</g>
			</g>
		</g>
		<g>
			<g>
				<g>
					<rect x="1162.7" y="450.7" class="st6" width="10.1" height="50.8"/>
					<path class="st6" d="M1213.4,455.1h-63.8v6.9h63.7C1213.3,459.8,1213.3,457.5,1213.4,455.1z"/>
					<path class="st6" d="M1215.3,490.1h-65.6v6.9h65.2C1215.2,494.8,1215.3,492.5,1215.3,490.1z"/>
				</g>
				<g>
					<polygon class="st6" points="925.1,563.5 925.5,556.4 998.6,558.5 998.2,565.5 					"/>
					<polygon class="st6" points="929.8,538.6 931.7,531.7 1003.4,541.7 1001.5,548.5 					"/>
					<polygon class="st6" points="942,513 947,506.9 1010.6,532.1 1005.6,538.2 					"/>
					<polygon class="st6" points="963,490.9 970.1,485.8 1022.2,521.6 1015.1,526.5 					"/>
					<polygon class="st6" points="990.2,473.7 998.2,469.5 1042.4,509.9 1034.4,514.2 					"/>
					<polygon class="st6" points="1023.8,460 1033.2,457.4 1060.1,504.7 1050.7,507.2 					"/>
					<polygon class="st6" points="1060.5,452.7 1070.5,451.7 1081,502 1071,503 					"/>
					<polygon class="st6" points="1096.8,450 1106.9,449.7 1109.2,500.5 1099.2,500.8 					"/>
					<polygon class="st6" points="1132.6,450 1142.7,450.1 1141.5,500.9 1131.4,500.8 					"/>
					<path class="st6" d="M983.1,493.7c50.8-35.9,103.9-31.3,168.9-31.7l-0.1-7c-68.2,0.4-122.7-3.9-176,33.7
						c-33.8,23.9-43.4,48.4-45.6,75.1c-0.4,5.2,0,10.5,0,15.9c3.3,0,6.7-0.1,10,0C940.3,548.5,945.2,520.6,983.1,493.7z"/>
					<path class="st6" d="M1152.4,490c-51.3,0.3-100.9-4.8-140.6,23.3c-20.7,14.6-28.9,31.7-31.2,49.6c-0.7,5.6,0.3,11.2,0.3,16.9
						c3.3,0.1,6.7,0.1,10,0c0.2-22.4,3.6-44.3,28-61.6c36.8-26,85.8-20.8,133.5-21.1V490z"/>
				</g>
				<g>
					<polygon class="st6" points="926.3,668.5 926.7,675.5 999.8,673.5 999.4,666.5 					"/>
					<polygon class="st6" points="930.9,693.4 932.9,700.3 1004.6,690.3 1002.6,683.4 					"/>
					<polygon class="st6" points="943.2,719 948.1,725.1 1011.7,699.9 1006.8,693.8 					"/>
					<polygon class="st6" points="964.1,741.1 971.3,746.1 1023.3,710.4 1016.2,705.4 					"/>
					<polygon class="st6" points="991.4,758.3 999.4,762.5 1043.6,722 1035.6,717.8 					"/>
					<polygon class="st6" points="1025,772 1034.3,774.6 1061.2,727.3 1051.9,724.7 					"/>
					<polygon class="st6" points="1061.6,779.3 1071.6,780.3 1082.2,730 1072.2,729 					"/>
					<polygon class="st6" points="1098,782 1108.1,782.2 1110.4,731.4 1100.3,731.2 					"/>
					<polygon class="st6" points="1133.8,782 1143.9,781.9 1142.6,731.1 1132.5,731.2 					"/>
					<path class="st6" d="M984.3,738.3c50.8,35.9,103.9,31.3,168.9,31.7l-0.1,7c-68.2-0.4-122.7,3.9-176-33.7
						c-40.4-28.6-45.6-58-45.6-91.1c3.3,0,6.7,0.1,10,0C941.4,683.4,946.3,711.4,984.3,738.3z"/>
					<path class="st6" d="M1153.5,742c-51.3-0.3-100.9,4.8-140.6-23.3c-27.1-19.2-31.1-42.2-31.2-66.4c3.3-0.1,6.7,0.1,10,0.2
						c0.2,22.4,3.9,44,28.3,61.3c36.8,26,85.8,20.8,133.5,21.1V742z"/>
				</g>
				<g>
					<polygon class="st6" points="925.2,653.4 925.1,646.4 998.3,645.9 998.4,652.9 					"/>
					<polygon class="st6" points="924.9,630.3 924.8,623.3 998,622.9 998.1,629.9 					"/>
					<polygon class="st6" points="924.6,607.2 924.5,600.3 997.7,599.8 997.8,606.8 					"/>
					<polygon class="st6" points="924.3,584.1 924.2,577.1 997.4,576.7 997.5,583.7 					"/>
					<path class="st6" d="M931.7,662.4l10-0.1l-1.2-94.8c-3.3,0-6.7,0.1-10,0.1L931.7,662.4z"/>
					<path class="st6" d="M980.9,568.3l1.2,93.8l10-0.1l-1.2-93.8C987.6,568.3,984.2,568.3,980.9,568.3z"/>
				</g>
			</g>
			<g>
				<g>
					<polygon class="st6" points="1412.5,388.7 1412.1,395.7 1339,393.7 1339.4,386.7 					"/>
					<polygon class="st6" points="1407.9,413.5 1405.9,420.4 1334.2,410.4 1336.2,403.6 					"/>
					<polygon class="st6" points="1395.6,439.2 1390.6,445.3 1327.1,420 1332,413.9 					"/>
					<polygon class="st6" points="1374.6,461.3 1367.5,466.3 1315.4,430.6 1322.6,425.6 					"/>
					<polygon class="st6" points="1347.4,478.4 1339.4,482.7 1295.2,442.2 1303.2,438 					"/>
					<polygon class="st6" points="1313.8,492.2 1304.4,494.7 1277.5,447.5 1286.9,444.9 					"/>
					<polygon class="st6" points="1277.1,499.4 1267.2,500.4 1256.6,450.1 1266.6,449.1 					"/>
					<polygon class="st6" points="1240.8,502.2 1230.7,502.4 1228.4,451.6 1238.5,451.3 					"/>
					<polygon class="st6" points="1205,502.2 1194.9,502 1196.2,451.3 1206.3,451.3 					"/>
					<path class="st6" d="M1354.5,458.4c-50.8,35.9-103.9,31.3-168.9,31.7l0.1,7c68.2-0.4,122.7,3.9,176-33.7
						c40.4-28.6,45.6-58,45.6-91.1c-3.3,0-6.7,0.1-10,0C1397.4,403.6,1392.5,431.6,1354.5,458.4z"/>
					<path class="st6" d="M1185.3,462.1c51.3-0.3,100.9,4.8,140.6-23.3c27.1-19.2,31.1-42.2,31.2-66.4c-3.3-0.1-6.7,0.1-10,0.2
						c-0.2,22.4-3.9,44-28.3,61.3c-36.8,26-85.8,20.8-133.5,21.1L1185.3,462.1z"/>
				</g>
				<g>
					<polygon class="st6" points="1413.6,373.5 1413.7,366.5 1340.5,366.1 1340.4,373.1 					"/>
					<polygon class="st6" points="1413.9,350.5 1414,343.5 1340.8,343 1340.7,350 					"/>
					<polygon class="st6" points="1414.2,327.4 1414.3,320.4 1341.1,320 1341,326.9 					"/>
					<polygon class="st6" points="1414.5,304.3 1414.5,297.3 1341.4,296.9 1341.3,303.9 					"/>
					<path class="st6" d="M1407.1,382.6l-10-0.1l1.2-94.8c3.3,0,6.7,0.1,10,0.1L1407.1,382.6z"/>
					<path class="st6" d="M1357.9,288.5l-1.2,93.8l-10-0.1l1.2-93.8C1351.2,288.5,1354.6,288.5,1357.9,288.5z"/>
				</g>
				<g>
					<polygon class="st6" points="1414.8,282 1414.9,275 1341.7,274.6 1341.6,281.6 					"/>
					<polygon class="st6" points="1415.1,259 1415.1,252 1342,251.5 1341.9,258.5 					"/>
					<polygon class="st6" points="1415.4,235.9 1415.4,228.9 1342.3,228.5 1342.2,235.4 					"/>
					<polygon class="st6" points="1415.6,212.8 1415.7,205.8 1342.6,205.4 1342.5,212.4 					"/>
					<path class="st6" d="M1408.3,291.1l-10-0.1l1.2-101.1c3.3,0,7,0.5,10.3,0.5L1408.3,291.1z"/>
					<path class="st6" d="M1359.4,187.4l-1.5,103.4l-10-0.1l1-104.3C1352.3,186.4,1356.1,187.4,1359.4,187.4z"/>
				</g>
				<g>
					<polygon class="st6" points="1416.3,193.9 1416.4,186.9 1342.7,186.5 1342.6,193.5 					"/>
					<polygon class="st6" points="1416.6,170.9 1416.7,163.9 1343,163.4 1342.9,170.4 					"/>
					<polygon class="st6" points="1416.9,147.8 1417,140.8 1343.3,140.4 1343.2,147.3 					"/>
					<polygon class="st6" points="1409.8,203 1399.7,202.9 1400.6,131.6 1411,131.6 					"/>
					<polygon class="st6" points="1359.9,131.7 1359,202.7 1348.9,202.6 1349.7,131.6 					"/>
				</g>
			</g>
			<g>
				<g>
					<g>
						<rect x="1198.9" y="730.5" class="st6" width="10.1" height="50.8"/>
						<rect x="1165.7" y="730.5" class="st6" width="10.1" height="50.8"/>
						<rect x="1132.5" y="730.5" class="st6" width="10" height="50.8"/>
						<rect x="1099.2" y="730.5" class="st6" width="10.1" height="50.8"/>
						<path class="st6" d="M1222.1,735v6.9h-136.5c0-2.3,0-4.6,0-6.9H1222.1z"/>
						<path class="st6" d="M1087,770h135v6.9h-135C1087.1,774.6,1087.1,772.3,1087,770z"/>
					</g>
					<g>
						<polygon class="st6" points="1446.5,843.3 1446.2,836.3 1373.1,838.3 1373.5,845.3 						"/>
						<polygon class="st6" points="1441.9,818.4 1440,811.6 1368.2,821.6 1370.2,828.4 						"/>
						<polygon class="st6" points="1429.6,792.8 1424.7,786.7 1361.1,811.9 1366.1,818 						"/>
						<polygon class="st6" points="1408.7,770.7 1401.6,765.7 1349.5,801.4 1356.6,806.4 						"/>
						<polygon class="st6" points="1381.4,753.5 1373.5,749.3 1329.3,789.8 1337.3,794 						"/>
						<polygon class="st6" points="1347.9,739.8 1338.5,737.2 1311.6,784.5 1321,787.1 						"/>
						<polygon class="st6" points="1311.2,732.5 1301.2,731.5 1290.7,781.8 1300.6,782.8 						"/>
						<polygon class="st6" points="1274.8,729.8 1264.7,729.6 1262.4,780.4 1272.5,780.6 						"/>
						<polygon class="st6" points="1239,729.8 1228.9,729.9 1230.2,780.7 1240.3,780.6 						"/>
						<path class="st6" d="M1388.6,773.5c-50.8-35.9-103.9-31.3-168.9-31.7l0.1-7c68.2,0.4,122.7-3.9,176,33.7
							c33.8,23.9,43.4,48.4,45.6,75.1c0.4,5.2,0,10.5,0,15.9c-3.3,0-6.7-0.1-10,0C1431.4,828.3,1426.5,800.4,1388.6,773.5z"/>
						<path class="st6" d="M1219.3,769.9c51.3,0.3,100.9-4.8,140.6,23.3c20.7,14.6,28.9,31.7,31.2,49.6c0.7,5.6-0.3,11.2-0.3,16.9
							c-3.3,0.1-6.7,0.1-10,0c-0.2-22.4-3.6-44.3-28-61.6c-36.8-26-85.8-20.8-133.5-21.1L1219.3,769.9z"/>
					</g>
					<g>
						<polygon class="st6" points="1447.4,864 1447.4,857 1374.3,856.5 1374.2,863.5 						"/>
						<path class="st6" d="M1440,942.3l-10-0.1l1.2-94.8c3.3,0,6.7,0.1,10,0.1L1440,942.3z"/>
						<path class="st6" d="M1390.8,848.1l-1.2,93.8l-10-0.1l1.2-93.8C1384.1,848.1,1387.5,848.2,1390.8,848.1z"/>
					</g>
				</g>
			</g>
			<g>
				<g>
					<polygon class="st7" points="1055.6,462.5 1045,444 1055.6,425.6 1060.9,430.8 1060.9,457.2 					"/>
					<g>
						<polygon class="st8" points="1078.5,422.9 1074.4,399.2 1074.4,393.9 1099.1,393.9 1099.1,399.2 1094.9,422.9 						"/>
						<path class="st7" d="M1071.4,430.8v-7.5c0-1.7,1.4-3,3-3h24.5c1.7,0,3,1.4,3,3v7.5H1071.4z"/>
						<polygon class="st9" points="1071.7,399.2 1077.5,383.3 1096,383.3 1101.8,399.2 						"/>
					</g>
					<polygon class="st10" points="1182.3,404.5 1182.3,446.7 1174.4,454.6 1140.1,454.6 1140.1,404.5 					"/>
					<polygon class="st10" points="1055.6,446.7 1055.6,425.6 1161.2,425.6 1161.2,454.6 1063.5,454.6 					"/>
					<g>
						<path class="st11" d="M1155,415h13.7c1.7,0,3,1.4,3,3v15c0,1.7-1.4,3-3,3H1155c-1.7,0-3-1.4-3-3v-15
							C1151.9,416.4,1153.3,415,1155,415z"/>
					</g>
					<rect x="1137.4" y="404.5" class="st7" width="47.5" height="5.3"/>
					<path class="st12" d="M1177,454.6v18.5c-5.8,0-10.6,4.7-10.6,10.6h-105.6v-29H1177V454.6z"/>
					<rect x="1140.1" y="446.7" class="st13" width="42.2" height="26.4"/>
					<rect x="1055.6" y="446.7" class="st13" width="105.6" height="15.8"/>
					<rect x="1055.6" y="467.8" class="st12" width="10.6" height="15.8"/>
					<polygon class="st7" points="1034.5,488.9 1055.6,467.8 1055.6,493.7 1034.5,493.7 					"/>
					<g>
						<g>
							<path class="st14" d="M1071.4,499.5L1071.4,499.5c5.8,0,10.6-4.7,10.6-10.6c0-5.8-4.7-10.6-10.6-10.6
								c-5.8,0-10.6,4.7-10.6,10.6C1060.9,494.7,1065.6,499.5,1071.4,499.5"/>
							<path class="st13" d="M1071.4,481.5c4.1,0,7.4,3.3,7.4,7.4s-3.3,7.4-7.4,7.4s-7.4-3.3-7.4-7.4S1067.4,481.5,1071.4,481.5"/>
							<path class="st14" d="M1071.4,486.8c1.2,0,2.1,0.9,2.1,2.1s-0.9,2.1-2.1,2.1s-2.1-0.9-2.1-2.1
								C1069.3,487.7,1070.3,486.8,1071.4,486.8"/>
						</g>
						<g>
							<path class="st14" d="M1095.7,499.5L1095.7,499.5c5.8,0,10.6-4.7,10.6-10.6c0-5.8-4.7-10.6-10.6-10.6
								c-5.8,0-10.6,4.7-10.6,10.6C1085.2,494.7,1089.9,499.5,1095.7,499.5"/>
							<path class="st13" d="M1095.7,481.5c4.1,0,7.4,3.3,7.4,7.4s-3.3,7.4-7.4,7.4s-7.4-3.3-7.4-7.4
								C1088.3,484.8,1091.6,481.5,1095.7,481.5"/>
							<path class="st14" d="M1095.7,486.8c1.2,0,2.1,0.9,2.1,2.1s-0.9,2.1-2.1,2.1s-2.1-0.9-2.1-2.1
								C1093.6,487.7,1094.5,486.8,1095.7,486.8"/>
						</g>
						<g>
							<path class="st14" d="M1140.1,499.5L1140.1,499.5c11.7,0,21.1-9.5,21.1-21.1c0-11.7-9.5-21.1-21.1-21.1
								c-11.7,0-21.1,9.5-21.1,21.1C1118.9,490,1128.4,499.5,1140.1,499.5"/>
							<g>
								<path class="st13" d="M1140.1,461.5c9.3,0,16.9,7.6,16.9,16.9s-7.6,16.9-16.9,16.9s-16.9-7.6-16.9-16.9
									C1123.2,469,1130.7,461.5,1140.1,461.5"/>
							</g>
							<path class="st14" d="M1140.1,476.2c1.2,0,2.1,0.9,2.1,2.1s-0.9,2.1-2.1,2.1s-2.1-0.9-2.1-2.1
								C1137.9,477.2,1138.9,476.2,1140.1,476.2"/>
						</g>
						<g>
							<g>
								<polygon class="st15" points="1139,490.3 1141.1,485.4 1106.8,470.4 1083.6,470.4 1083.6,475.7 1105.7,475.7 								"/>
							</g>
							<g>
								<path class="st7" d="M1140.1,483.6c2.3,0,4.2,1.9,4.2,4.2c0,2.3-1.9,4.2-4.2,4.2c-2.3,0-4.2-1.9-4.2-4.2
									C1135.8,485.5,1137.7,483.6,1140.1,483.6L1140.1,483.6z"/>
								<path class="st14" d="M1140.1,485.7c1.2,0,2.1,0.9,2.1,2.1s-0.9,2.1-2.1,2.1s-2.1-0.9-2.1-2.1
									C1137.9,486.7,1138.9,485.7,1140.1,485.7"/>
							</g>
							<g>
								<path class="st7" d="M1106.3,468.9c2.3,0,4.2,1.9,4.2,4.2s-1.9,4.2-4.2,4.2c-2.3,0-4.2-1.9-4.2-4.2
									S1103.9,468.9,1106.3,468.9L1106.3,468.9z"/>
								<path class="st14" d="M1106.3,471c1.2,0,2.1,0.9,2.1,2.1s-0.9,2.1-2.1,2.1s-2.1-0.9-2.1-2.1
									C1104.2,471.9,1105.1,471,1106.3,471"/>
							</g>
							<path class="st16" d="M1095.7,468.2v9.8c0,1.7-1.4,3-3,3h-18.2c-1.7,0-3-1.4-3-3v-9.8c0-1.7,1.4-3,3-3h18.2
								C1094.4,465.2,1095.7,466.5,1095.7,468.2z"/>
						</g>
					</g>
				</g>
				<g>
					<rect x="1165.1" y="477.6" class="st14" width="28.4" height="5"/>
					<g>
						<rect x="1193" y="465.4" class="st9" width="100.5" height="20.1"/>
						<g>
							<path class="st14" d="M1279,500.6L1279,500.6c-5.6,0-10.1-4.5-10.1-10.1s4.5-10.1,10.1-10.1s10.1,4.5,10.1,10.1
								S1284.6,500.6,1279,500.6"/>
							<path class="st13" d="M1279,483.5c3.9,0,7,3.2,7,7c0,3.9-3.2,7-7,7c-3.9,0-7-3.2-7-7S1275.2,483.5,1279,483.5"/>
							<path class="st14" d="M1279,488.5c1.1,0,2,0.9,2,2s-0.9,2-2,2s-2-0.9-2-2S1277.9,488.5,1279,488.5"/>
						</g>
						<g>
							<path class="st14" d="M1207.4,500.6L1207.4,500.6c-5.6,0-10-4.5-10-10.1s4.5-10.1,10-10.1c5.6,0,10.1,4.5,10.1,10.1
								S1213,500.6,1207.4,500.6"/>
							<path class="st13" d="M1207.4,483.5c3.9,0,7,3.2,7,7c0,3.9-3.2,7-7,7c-3.9,0-7-3.2-7-7S1203.5,483.5,1207.4,483.5"/>
							<path class="st14" d="M1207.4,488.5c1.1,0,2,0.9,2,2s-0.9,2-2,2s-2-0.9-2-2S1206.3,488.5,1207.4,488.5"/>
						</g>
						<polygon class="st8" points="1298.5,450.3 1298.5,410.1 1187.9,410.1 1187.9,450.3 1200.5,462.9 1285.9,462.9 						"/>
						<rect x="1185.4" y="410.1" class="st9" width="115.6" height="5"/>
						<g>
							<path class="st11" d="M1261.7,420.2h-13.1c-1.6,0-2.9,1.3-2.9,2.9v14.3c0,1.6,1.3,2.9,2.9,2.9h13.1c1.6,0,2.9-1.3,2.9-2.9
								v-14.3C1264.6,421.5,1263.3,420.2,1261.7,420.2z"/>
							<path class="st11" d="M1224.8,440.3h13.1c1.6,0,2.9-1.3,2.9-2.9v-14.3c0-1.6-1.3-2.9-2.9-2.9h-13.1c-1.6,0-2.9,1.3-2.9,2.9
								v14.3C1221.9,439,1223.2,440.3,1224.8,440.3z"/>
							<path class="st11" d="M1269.6,423.1v14.3c0,1.6,1.3,2.9,2.9,2.9h13.1c1.6,0,2.9-1.3,2.9-2.9v-14.3c0-1.6-1.3-2.9-2.9-2.9
								h-13.1C1270.9,420.2,1269.6,421.5,1269.6,423.1z"/>
							<path class="st11" d="M1213.9,420.2h-13.1c-1.6,0-2.9,1.3-2.9,2.9v14.3c0,1.6,1.3,2.9,2.9,2.9h13.1c1.6,0,2.9-1.3,2.9-2.9
								v-14.3C1216.8,421.5,1215.5,420.2,1213.9,420.2z"/>
						</g>
						<rect x="1187.9" y="450.3" class="st10" width="110.6" height="25.1"/>
					</g>
				</g>
			</g>
		</g>
		<g>
			<g>
				<g>
					<g>
						<path class="st17" d="M658.5,163.6c0,0-15.3-3.7-21.8-23.1s-7.5-67.9,0-87.3s24.8-34.3,35.2-21.1s16.6,74.1,9.5,100.2
							C674.3,158.2,663.9,162.4,658.5,163.6z"/>
					</g>
				</g>
				<g>
					<path class="st4" d="M651.6,221.2c0,0,2-70.8,1.4-73.2s-7.5-13.3-7.5-13.3s8.9,9.9,9.8,5.8c0.8-4.1,2.5-35,2.5-35
						s0.6,31.3,2.8,31s11.5-12.6,11.5-12.6s-10.6,16.3-10.6,22.4s0.8,74.9,0.8,74.9L651.6,221.2L651.6,221.2z"/>
				</g>
			</g>
		</g>
		<g>
			<g>
				<path class="st18" d="M959.4,373.8h-30.3c-3.2,0-5.8-2.6-5.8-5.8V158.2c0-3.2,2.6-5.8,5.8-5.8h30.3c3.2,0,5.8,2.6,5.8,5.8v209.7
					C965.2,371.2,962.6,373.8,959.4,373.8z"/>
				<polygon class="st19" points="799.1,254.6 897.8,279.6 892.1,261.2 1049.3,203.1 1025.3,136.7 868.2,194.9 860.1,172.9 				"/>
			</g>
			<g>
				<path class="st20" d="M897.6,188.8l1.6-0.6c1.8-0.7,4.4,2.6,7.7,9.8c2.2,7.3,2,11.3-0.6,12.4c-2.5,0.9-5.2-2.1-8.2-9.3l-0.2-0.8
					C895.8,193.3,895.8,189.4,897.6,188.8z M898.6,189.6c-1.1,2.3-0.9,5.4,0.5,9.2l0.9,2.6c2,4.7,4,7.2,5.7,7.5l0.7-0.2
					c0.7-2.9,0.3-6.2-1.1-9.8l-0.5-1.3C903.1,192.8,900.9,190.2,898.6,189.6z"/>
				<path class="st20" d="M911.5,183c1.4-0.5,2.6-0.1,3.5,1.4c0.1,0.4,0,0.6-0.5,0.8l-2.6-0.9l-0.7,0.2c-1.3,0.6-1.1,3.9,0.6,9.8
					l0.5,1.3c2.4,6.4,4.4,9.2,6.1,8.6c0.2-0.1,0.8-0.8,1.8-2.1l0.3-0.1c0.5-0.1,0.7,0,0.8,0.3c-0.2,1.5-0.9,2.5-2.2,2.9l-0.4,0.1
					c-2.8,1.1-5.5-1.7-7.9-8.5l-0.6-1.6C907.9,188.3,908.2,184.3,911.5,183z"/>
				<path class="st20" d="M914.8,182.4l8.4-3.2c0.5-0.1,0.7,0,0.8,0.3l0.1,0.3c0.1,0.4,0,0.6-0.5,0.8l-3.6,1.3
					c1.9,4.3,3.3,7.9,4.2,10.5l3.5,9.6l-1.3,0.5c-1.2-2.6-2-4.5-2.5-5.7l-5.3-14.3l-3.6,1.3c-0.5,0.1-0.7,0-0.8-0.3l-0.1-0.3
					C914.3,182.8,914.6,182.5,914.8,182.4z"/>
				<path class="st20" d="M929.4,177c1-0.3,3.1,2.9,6.6,9.7c0.3-0.1,2.2,3.1,5.7,9.6l-0.6,0.5c-0.8,0.2-2.3-2-4.7-6.7l-2.9,1.1
					c-0.4,0.1-0.1,2.9,0.8,8.1l-0.7,0.2c-0.5,0.1-0.7,0-0.8-0.3c-2.5-13.4-3.8-20.7-3.8-22.1L929.4,177z M931.3,182
					c0.4,0.9,0.8,3.6,1.5,8.2l2.9-1.1c-2.3-3.8-3.7-6.2-4.1-7.2L931.3,182z"/>
				<path class="st20" d="M938.9,173.4c0.5-0.1,0.7,0,0.8,0.3l3.2,8.4l3.3-1.2l-3.2-8.4c-0.1-0.4,0.1-0.7,0.5-0.8l1.2,0.1
					c0.8,3,1.6,5.3,2.1,6.8l5.2,13.8c0.1,0.4,0,0.6-0.5,0.8l-0.4,0.1c-0.5,0.1-0.7,0-0.8-0.3l-2.5-6.7c-0.3-0.9-0.7-2.3-1.2-4.1
					l-3.3,1.2l4,10.6c0.1,0.4,0,0.6-0.5,0.8l-0.3,0.1c-0.5,0.1-0.7,0-0.8-0.3l-4.1-11.2c-0.1-0.2,0-0.3,0.2-0.4
					c-0.1-0.2-0.2-0.3-0.5-0.2l-0.1-1.4l-2.7-7.4C938.4,173.9,938.5,173.6,938.9,173.4z"/>
				<path class="st20" d="M952.4,168.4l1.6-0.6c1.8-0.7,4.4,2.6,7.7,9.8c2.2,7.3,2,11.3-0.6,12.4c-2.5,0.9-5.2-2.1-8.2-9.3l-0.2-0.8
					C950.7,172.8,950.7,169.1,952.4,168.4z M953.4,169.3c-1.1,2.3-0.9,5.4,0.5,9.2l0.9,2.6c2,4.7,4,7.2,5.7,7.5l0.7-0.2
					c0.7-2.9,0.3-6.2-1.1-9.8l-0.5-1.3C957.9,172.4,955.9,169.8,953.4,169.3z"/>
				<path class="st20" d="M963.4,164.4c2.5-0.9,5,0.1,7.1,3.1l0.6,1.6c0.4,1-0.1,2.9-1.6,5.4c2.5,0,4.1,1,4.8,3l0.6,1.6
					c0.8,2.2-0.6,4.4-4.2,6.7c-0.5,0.1-0.7,0-0.8-0.3l-7.4-19.9C962.2,165.1,962.5,164.7,963.4,164.4z M964.3,165.5l3.3,8.7
					c2-2.1,2.5-3.9,1.8-5.8C967.5,165.9,965.8,165,964.3,165.5z M967.9,175.6l3.1,8.2l0.3-0.1c1.9-1.6,2.4-3.4,1.6-5.4
					C972.5,176.7,970.8,175.9,967.9,175.6z"/>
				<path class="st20" d="M973.8,160.1l0.3-0.1c0.5-0.1,0.7,0,0.8,0.3l2.4,6.4l0.3-0.1c0.4-5.4,0.9-8.1,1.4-8.4l0.3-0.1
					c0.5-0.1,0.7,0,0.9,0.6c-0.8,5.8-1.4,9.5-1.8,10.9c6.1,5.8,9.2,9,9.5,9.5l-0.6,0.5l-0.7,0.2c-4.2-4-6.3-6.2-6.5-6.7l-0.3,0.1
					c1.4,4.6,2.3,7.3,2.6,7.8l-0.6,0.5c-0.5,0.1-0.7,0-0.8-0.3l-7.5-20.4C973.3,160.6,973.4,160.3,973.8,160.1z"/>
				<path class="st20" d="M986.5,155.7c1-0.3,3.1,2.9,6.6,9.7c0.3-0.1,2.2,3.1,5.7,9.6l-0.6,0.5c-0.8,0.2-2.3-2-4.7-6.7l-2.9,1.1
					c-0.4,0.1-0.1,2.9,0.8,8.1l-0.7,0.2c-0.5,0.1-0.7,0-0.8-0.3c-2.5-13.4-3.8-20.7-3.8-22.1L986.5,155.7z M988.4,160.8
					c0.4,0.9,0.8,3.6,1.5,8.2l2.9-1.1c-2.3-3.8-3.7-6.2-4.1-7.2L988.4,160.8z"/>
				<path class="st20" d="M998,159l0.9-0.4c0.5-0.1,0.7,0,0.8,0.3l0.2,0.6c0.2,0.6-0.1,1-1,1.2c-0.5,0-0.8,0-1.1,0.1l-0.4-1
					C997.5,159.4,997.6,159.2,998,159z M1001.5,167.7l0.3-0.1c0.3-0.1,0.7,0,1.3,0.4l0.2,0.6c0.1,0.4,0,0.6-0.5,0.8l-0.9,0.4
					c-0.5,0.1-0.7,0-0.8-0.3l-0.2-0.6C1000.7,168.6,1000.9,168.2,1001.5,167.7z"/>
				<path class="st20" d="M884.3,228c4-1.5,7.4-0.1,10.1,4.1l0.2,0.7c0.7,1.9,0.1,4.6-1.8,8c1.9-0.7,4,0.7,6.3,4.2l0.2,0.7
					c0.5,5-1.3,8.3-5.4,9.8l-0.7-0.5l-9.6-25.9C883.6,228.6,883.9,228.3,884.3,228z M886.2,229.3l4,10.9l0.4-0.1
					c2-2.3,2.6-4.5,1.8-6.5l-0.2-0.7C891.4,230.6,889.4,229.4,886.2,229.3z M891,242.3l4,10.6c2.4-2,3.3-3.9,2.6-5.6l-0.8-2.1
					C896.2,243.5,894.3,242.5,891,242.3z"/>
				<path class="st20" d="M897.8,223.8l0.9-0.3c0.6-0.2,0.9,0,1.1,0.4l7.4,19.8c1.4,3.1,2.6,4.4,3.9,4l0.9-0.3
					c1.4-0.5,1.5-2.9,0.2-7.1l-3.6-9.9c-0.8-2.3-2-4.9-3.5-8c0.1-0.6,0.1-1,0.1-1.2l0.9-0.3c0.6-0.2,0.9,0,1.1,0.4l0.2,0.7
					c1.9,5.2,4.4,11.3,7.3,18.3c1.2,5,0.3,8.1-2.8,9.2c-3,0.3-5.3-1.5-6.8-5.6l-6.7-18L897.8,223.8z"/>
				<path class="st20" d="M915.9,216.8c1-0.4,2.6-0.1,4.6,1l0.1,0.4c0.1,0.5-0.1,0.8-0.6,1l-0.4,0.1c-1.5-0.8-2.8-0.9-4-0.4
					c-1.3,0.7-1.6,2-1.1,3.5c0.6,1.5,3.9,4.3,9.9,8.7c1.7,2.6,2.5,4.2,2.6,4.4c1.1,4.5,0.3,7.2-2.6,8.4l-0.9,0.3
					c-0.4,0.1-1.3-0.1-2.7-0.9l-0.6-1.7l1.7-0.6c0.5,1.1,0.9,1.6,1.5,1.4l1.2-0.5c1.2-0.5,1.2-2.5,0-6.2c-1-2.7-4.2-5.7-9.5-8.9
					c-1.5-1.4-2.4-2.7-2.9-4C912,219.7,913.1,217.7,915.9,216.8z"/>
				<path class="st20" d="M925.7,212.6l0.9-0.3c0.1,0.5,0.4,0.6,0.7,0.5c1.4,4.6,2.5,8.1,3.4,10.4l6,16c0.1,0.5-0.1,0.8-0.6,1
					l-0.4,0.1c-0.6,0.2-0.9,0.1-1.1-0.4l-3.8-10.2c-0.1-0.2,0-0.4,0.3-0.5c-0.1-0.2-0.3-0.3-0.6-0.1l-0.3-1.8l-5.1-13.6
					C925,213.2,925.2,212.9,925.7,212.6z"/>
				<path class="st20" d="M933.5,210.2l1.2-0.5l11.4,16.7l0.5-0.1l-6.8-18.4l1.2-0.5c0.6-0.1,0.9,0,1.1,0.4l9.6,25.9
					c0.1,0.5-0.1,0.8-0.5,1l-1.2,0.5l-11.4-16.7l-0.4,0.1L945,237l-1.2,0.5c-0.6,0.2-0.9,0.1-1.1-0.4l-9.6-25.9
					C932.8,210.7,933,210.3,933.5,210.2z"/>
				<path class="st20" d="M948.6,204.2l6.7-2.5l0.4,1c0.1,0.5-0.1,0.8-0.5,1l-4.6,1.8l2,5.4l1.1,4.3l0.9,0l5-1.9l0.5,1.4l-1.9,1.1
					l-3.8,1.4l4.7,12.6l3.8-1.4l2.2-0.4l0.5,1.3l-7,2.6l-0.9,0c-1.9-6.2-3.7-11-5-14.5l-4.6-12.3C948,204.7,948.1,204.3,948.6,204.2
					z"/>
				<path class="st20" d="M962,199.6c1-0.4,2.6-0.1,4.6,1l0.1,0.4c0.1,0.5-0.1,0.8-0.6,1l-0.4,0.1c-1.5-0.8-2.8-0.9-4-0.4
					c-1.3,0.7-1.6,2-1.1,3.5c0.6,1.5,3.9,4.3,9.9,8.7c1.7,2.6,2.5,4.2,2.6,4.4c1.1,4.5,0.3,7.2-2.6,8.4l-0.9,0.3
					c-0.4,0.1-1.3-0.1-2.7-0.9l-0.6-1.7l1.7-0.6c0.5,1.1,0.9,1.6,1.5,1.4l1.2-0.5c1.2-0.5,1.2-2.5,0-6.2c-1-2.7-4.2-5.7-9.5-8.9
					c-1.5-1.4-2.4-2.7-2.9-4C958.1,202.6,959.2,200.6,962,199.6z"/>
				<path class="st20" d="M974.1,195c1-0.4,2.6-0.1,4.6,1l0.1,0.4c0.1,0.5-0.1,0.8-0.6,1l-0.4,0.1c-1.5-0.8-2.8-0.9-4-0.4
					c-1.3,0.7-1.6,2-1.1,3.5c0.6,1.5,3.9,4.3,9.9,8.7c1.7,2.6,2.5,4.2,2.6,4.4c1.1,4.5,0.3,7.2-2.6,8.4l-0.9,0.3
					c-0.4,0.1-1.3-0.1-2.7-0.9l-0.6-1.7l1.7-0.6c0.5,1.1,0.9,1.6,1.5,1.4l1.2-0.5c1.2-0.5,1.2-2.5,0-6.2c-1-2.7-4.2-5.7-9.5-8.9
					c-1.5-1.4-2.4-2.7-2.9-4C970.3,198,971.4,196.1,974.1,195z"/>
				<path class="st20" d="M997.9,185.1c2.2-0.8,3.8-0.2,5,2l-1.2,0.5l-2.7-0.9l-0.9,0.3c-1.9,1-1.6,5.7,0.9,14
					c3.4,8.1,5.9,11.8,7.5,11.2l1.7-0.6c0.2-0.1,0.6-0.9,1.4-2.4c0.6-0.2,0.9,0,1.1,0.4l0.2,0.7c-0.5,1.7-1.5,2.9-3,3.5
					c-3.7,1.4-6.9-1.9-9.8-9.9l-1.5-4.1c-2.4-8.4-2.2-13.1,0.5-14.1L997.9,185.1z"/>
				<path class="st20" d="M1005.7,182.9l0.9-0.3c0.1,0.5,0.4,0.6,0.7,0.5c1.4,4.6,2.5,8.1,3.4,10.4l6,16c0.1,0.5-0.1,0.8-0.6,1
					l-0.4,0.1c-0.6,0.2-0.9,0.1-1.1-0.4l-3.8-10.2c-0.1-0.2,0-0.4,0.3-0.5c-0.1-0.2-0.3-0.3-0.6-0.1l-0.3-1.8l-5.1-13.6
					C1005,183.5,1005.2,183.1,1005.7,182.9z"/>
				<path class="st20" d="M1009.8,181.4l11.3-4.2c0.6-0.2,0.9,0,1.1,0.4c0.1,0.3-0.2,0.8-0.9,1.5l-4.1,1.5l0.1,0.4
					c1.8,4.6,5,13,9.7,25l-0.7,0.7l-0.5,0.1c-0.6,0.2-0.9,0.1-1.1-0.4l-3.1-8.2c-1.3-3.5-3.6-9.1-6.8-16.9l-4.1,1.5
					c-0.4,0.1-0.9,0-1.6-0.5C1009.1,182,1009.3,181.6,1009.8,181.4z"/>
				<path class="st20" d="M1022.4,176.8c0.9-0.1,3.2,1.9,7,6l0.9-0.3c0.2-5.5,0.7-8.5,1.4-9c0.6-0.2,0.9,0,1.3,0.7
					c-0.7,7.5-1,11.5-0.7,12.3l5.3,14.3c0.1,0.5-0.1,0.8-0.6,1c-0.6,0.2-0.9,0.1-1.1-0.4l-5.3-14.3c-0.1-0.5-3.1-3.5-8.7-9.2
					l-0.1-0.4L1022.4,176.8z"/>
			</g>
		</g>
	</g>
</g>
</svg>
