<?xml version="1.0" encoding="utf-8"?>
<!-- Generator: Adobe Illustrator 22.0.1, SVG Export Plug-In . SVG Version: 6.00 Build 0)  -->
<svg version="1.1" id="Слой_1" xmlns="http://www.w3.org/2000/svg" xmlns:xlink="http://www.w3.org/1999/xlink" x="0px" y="0px"
	 viewBox="0 0 1200 877.3" style="enable-background:new 0 0 1200 877.3;" xml:space="preserve">
<style type="text/css">
	.st0{clip-path:url(#SVGID_2_);}
	.st1{fill:#009C53;}
	.st2{fill:#CAE977;}
	.st3{fill:#063035;}
	.st4{fill:#DBC95D;}
	.st5{fill:#005621;}
	.st6{fill:#635128;}
	.st7{fill:#6B8C46;}
	.st8{fill:#856037;}
	.st9{fill:#B48B59;}
	.st10{fill:#FFFFFF;}
	.st11{fill:#80BA9C;}
	.st12{clip-path:url(#SVGID_4_);}
	.st13{fill:#FAFDEB;}
	.st14{fill-rule:evenodd;clip-rule:evenodd;fill:#303030;}
	.st15{fill:#3E3E3D;}
	.st16{fill:#6D6D6C;}
	.st17{fill:#585857;}
	.st18{fill:#F49045;}
	.st19{fill:#FFF2E7;}
	.st20{fill:#2CBAE5;}
	.st21{clip-path:url(#SVGID_9_);}
	.st22{fill:#F3FFFF;}
	.st23{fill:#007439;}
	.st24{fill:#CD5351;}
	.st25{fill:#313130;}
	.st26{fill:#6F6F6E;}
	.st27{fill:#AEAEAE;}
	.st28{opacity:5.000000e-02;fill:#08BF5F;}
	.st29{clip-path:url(#SVGID_11_);}
	.st30{clip-path:url(#SVGID_12_);}
	.st31{fill-rule:evenodd;clip-rule:evenodd;fill:#FFFFFF;}
	.st32{opacity:0.17;fill-rule:evenodd;clip-rule:evenodd;fill:url(#SVGID_13_);}
	.st33{fill:#F4CCC6;}
	.st34{fill:#663B3B;}
	.st35{opacity:0.5;fill:#E28A86;}
	.st36{fill:#C6C4BD;}
	.st37{fill:#999999;}
	.st38{fill:#808080;}
	.st39{fill:#D3D1C7;}
	.st40{fill:#E5B3AC;}
	.st41{fill:#D19893;}
	.st42{fill:#C96A65;}
	.st43{fill:#D67B72;}
	.st44{fill:#EAC0BB;}
	.st45{fill:#DDACA6;}
	.st46{fill:#C6918D;}
	.st47{fill:#D19B95;}
	.st48{fill:#914C49;}
	.st49{fill:#AF6161;}
	.st50{fill:#D8938F;}
	.st51{fill:#8E744F;}
	.st52{fill:#5B452C;}
	.st53{fill:#C46762;}
	.st54{opacity:0.4;fill:#F4CCC6;}
	.st55{fill:#BA5A58;}
	.st56{fill:#464747;}
	.st57{fill:#E2E0D7;}
	.st58{fill:#AFACA3;}
	.st59{fill:#F9F8F4;}
	.st60{fill:#844F4F;}
	.st61{fill:#512B2B;}
	.st62{fill:#B55654;}
	.st63{fill:#508785;}
	.st64{fill:#E9F4F4;}
	.st65{fill:#85BCC1;}
	.st66{fill:#5F9B9B;}
	.st67{clip-path:url(#SVGID_9_);fill:#F8743B;}
	.st68{clip-path:url(#SVGID_9_);fill:#009C53;}
	.st69{clip-path:url(#SVGID_9_);fill:#3763DD;}
	.st70{fill:#2D2D2D;}
	.st71{clip-path:url(#SVGID_15_);}
	.st72{fill:#473332;}
	.st73{fill:#A289B0;}
	.st74{fill:#FF743F;}
	.st75{fill:#E8C1BC;}
	.st76{fill:#693132;}
	.st77{fill:#009400;}
	.st78{fill:#6E5737;}
	.st79{fill:#564428;}
	.st80{fill:#FFF79B;}
	.st81{fill:#FFA38B;}
	.st82{fill:none;stroke:#BD1E13;stroke-width:1.6667;stroke-miterlimit:10;}
	.st83{fill:#91532D;}
	.st84{fill:#B5793F;}
	.st85{fill:#FBAB1D;}
	.st86{fill:#0066A3;}
	.st87{fill:#EF3B25;}
	.st88{fill:#1EA249;}
	.st89{fill:#E59076;}
	.st90{fill:#362829;}
	.st91{fill:#FF9E8B;}
	.st92{fill:#443435;}
	.st93{fill:none;}
	.st94{fill:#7B6F61;}
	.st95{fill:#37292A;}
	.st96{fill:#C2AA4A;}
	.st97{fill:#DFBE44;}
	.st98{fill:#FFE13B;}
	.st99{fill:#4E4E4E;}
	.st100{fill:#3763DD;}
	.st101{fill:#F8743B;}
</style>
<g>
	<g>
		<defs>
			<rect id="SVGID_1_" x="-358.3" y="-7.7" width="1922" height="894"/>
		</defs>
		<clipPath id="SVGID_2_">
			<use xlink:href="#SVGID_1_"  style="overflow:visible;"/>
		</clipPath>
		<g class="st0">
			<rect x="-447.7" y="137.6" class="st1" width="2091.2" height="783.4"/>
			<g>
				<g>
					<g>
						<g>
							<path class="st2" d="M1072.3,538.3c0,0-30.1-3.6-42.9-22.1c-12.8-18.6-14.8-56.8,0-75.4c14.8-18.6,41.5-32.8,61.9-20.1
								c20.4,12.6,40.1,62.8,26,87.6C1103.2,533.2,1082.8,537.1,1072.3,538.3z"/>
						</g>
					</g>
					<g>
						<path class="st3" d="M1060.2,629.1c0,0,3.9-110.1,2.7-113.6c-1.1-3.5-14.8-19.4-14.8-19.4s17.6,14.4,19.2,8.5
							c1.6-6,4.9-51.2,4.9-51.2s1.1,45.8,5.5,45.3c4.4-0.5,22.5-18.4,22.5-18.4s-20.9,23.9-20.9,32.8c0,8.9,1.7,116.1,1.7,116.1
							H1060.2z"/>
					</g>
				</g>
			</g>
			<g>
				<g>
					<g>
						<polygon class="st6" points="977.1,176.9 974.6,177.3 972.1,176.9 967.6,241.6 974.6,241.6 981.6,241.6 						"/>
					</g>
					<g>
						<polygon class="st7" points="1007.5,191.9 1011.2,191.9 1002.8,172.8 1007.5,172.8 1000.7,157.7 1004.9,157.7 995.5,143.1 
							1001.3,143.1 991.8,124.4 995.5,124.4 988.2,107.9 993.4,107.9 985.1,93.6 990.8,93.6 980.9,79.6 985.6,79.6 974.6,55.6 
							963.6,79.6 968.3,79.6 958.4,93.6 964.1,93.6 955.8,107.9 961,107.9 953.7,124.4 957.4,124.4 947.9,143.1 953.7,143.1 
							944.3,157.7 948.5,157.7 941.7,172.8 946.4,172.8 938,191.9 941.7,191.9 932.8,209.3 974.6,209.3 1016.4,209.3 						"/>
					</g>
				</g>
			</g>
			<g>
				<g>
					<g>
						<polygon class="st6" points="884.2,745.2 881.1,745.6 877.9,745.2 872.5,825.2 881.1,825.2 889.7,825.2 						"/>
					</g>
					<g>
						<polygon class="st7" points="921.8,763.7 926.3,763.7 916,740.1 921.8,740.1 913.4,721.4 918.6,721.4 906.9,703.4 914,703.4 
							902.4,680.2 906.9,680.2 897.9,659.8 904.3,659.8 894,642.2 901.1,642.2 888.8,624.8 894.7,624.8 881.1,595.2 867.5,624.8 
							873.3,624.8 861,642.2 868.2,642.2 857.8,659.8 864.3,659.8 855.2,680.2 859.8,680.2 848.1,703.4 855.2,703.4 843.6,721.4 
							848.8,721.4 840.4,740.1 846.2,740.1 835.8,763.7 840.4,763.7 829.4,785.2 881.1,785.2 932.8,785.2 						"/>
					</g>
				</g>
			</g>
			<g>
				<g>
					<path class="st8" d="M770.2,217.3h-25.3c-3.2,0-5.8-2.6-5.8-5.8V28.5c0-3.2,2.6-5.8,5.8-5.8h25.3c3.2,0,5.8,2.6,5.8,5.8v183.1
						C776,214.8,773.4,217.3,770.2,217.3z"/>
					<polygon class="st9" points="630.8,105.7 714.5,137.7 711.4,121 854.6,86.4 840.6,26 697.3,60.6 692.5,40.5 					"/>
				</g>
				<g>
					<path class="st10" d="M721.4,59.3l1.5-0.4c1.7-0.5,3.6,2.6,6,9.2c1.3,6.5,0.8,10.1-1.5,10.7c-2.2,0.6-4.4-2.3-6.5-8.8l-0.2-0.7
						C719.6,63,719.8,59.7,721.4,59.3z M722.3,60.1c-1.1,2-1.2,4.7-0.3,8.1l0.7,2.4c1.4,4.3,2.9,6.7,4.4,7l0.6-0.2
						c0.8-2.5,0.7-5.4-0.2-8.7l-0.3-1.2C726,63.2,724.3,60.8,722.3,60.1z"/>
					<path class="st10" d="M734.1,55.3c1.3-0.3,2.2,0.2,2.9,1.5c0.1,0.3-0.1,0.5-0.5,0.6l-2.2-1l-0.6,0.2c-1.2,0.5-1.3,3.3-0.2,8.6
						l0.3,1.2c1.6,5.8,3.1,8.4,4.7,8c0.2-0.1,0.8-0.6,1.7-1.8l0.3-0.1c0.4-0.1,0.7,0.1,0.7,0.3c-0.3,1.3-1,2.1-2.2,2.4l-0.3,0.1
						c-2.5,0.7-4.6-2-6.3-8.1l-0.4-1.4C730.5,59.6,731.2,56.1,734.1,55.3z"/>
					<path class="st10" d="M737.1,55l7.6-2.1c0.4-0.1,0.7,0.1,0.7,0.3l0.1,0.2c0.1,0.3-0.1,0.5-0.5,0.6l-3.2,0.9
						c1.3,4,2.3,7.2,2.9,9.5l2.4,8.6l-1.2,0.3c-0.9-2.4-1.4-4.1-1.7-5.2l-3.5-13l-3.2,0.9c-0.4,0.1-0.6,0-0.7-0.3l-0.1-0.2
						C736.6,55.3,736.8,55.1,737.1,55z"/>
					<path class="st10" d="M750.3,51.4c0.8-0.2,2.5,2.8,5,9c0.3-0.1,1.7,2.9,4.3,8.9l-0.5,0.4c-0.7,0.2-1.9-1.9-3.6-6.2l-2.6,0.7
						c-0.3,0.1-0.3,2.5,0.1,7.2l-0.6,0.2c-0.4,0.1-0.6,0-0.7-0.3c-1.1-11.9-1.7-18.4-1.6-19.7L750.3,51.4z M751.5,56
						c0.2,0.8,0.5,3.3,0.7,7.3l2.6-0.7c-1.8-3.5-2.8-5.7-3.1-6.6L751.5,56z"/>
					<path class="st10" d="M758.8,49.1c0.4-0.1,0.7,0.1,0.7,0.3l2.1,7.7l2.9-0.8l-2.1-7.7c0-0.3,0.1-0.6,0.5-0.6l1,0.2
						c0.5,2.7,1,4.7,1.3,6.1l3.4,12.5c0.1,0.3-0.1,0.5-0.4,0.6l-0.3,0.1c-0.4,0.1-0.6,0-0.7-0.3l-1.6-6c-0.2-0.8-0.4-2-0.7-3.7
						l-2.9,0.8l2.6,9.6c0.1,0.3-0.1,0.5-0.5,0.6l-0.3,0.1c-0.4,0.1-0.6,0-0.7-0.3l-2.7-10.1c0-0.2,0-0.3,0.2-0.3
						c0-0.2-0.2-0.2-0.4-0.2l0-1.3l-1.8-6.7C758.4,49.4,758.5,49.2,758.8,49.1z"/>
					<path class="st10" d="M771.1,45.7l1.5-0.4c1.7-0.5,3.6,2.6,6,9.2c1.3,6.5,0.8,10.1-1.5,10.7c-2.2,0.6-4.4-2.3-6.5-8.8l-0.2-0.7
						C769.2,49.5,769.5,46.2,771.1,45.7z M771.9,46.5c-1.1,2-1.2,4.7-0.3,8.1l0.7,2.4c1.4,4.3,2.9,6.7,4.4,7l0.6-0.2
						c0.8-2.5,0.7-5.4-0.2-8.7l-0.3-1.2C775.6,49.7,774,47.2,771.9,46.5z"/>
					<path class="st10" d="M781,43c2.3-0.6,4.3,0.5,6,3.3l0.4,1.4c0.3,0.9-0.4,2.5-1.9,4.6c2.2,0.2,3.5,1.2,4,3l0.4,1.4
						c0.5,1.9-0.9,3.8-4.2,5.5c-0.4,0.1-0.6,0-0.7-0.3l-4.9-18C780,43.7,780.3,43.3,781,43z M781.7,44.1l2.2,7.9
						c1.9-1.6,2.6-3.3,2.1-5C784.5,44.7,783.1,43.8,781.7,44.1z M784.2,53.3l2,7.4l0.3-0.1c1.8-1.3,2.4-2.8,1.9-4.6
						C788,54.6,786.6,53.7,784.2,53.3z"/>
					<path class="st10" d="M790.5,40.2l0.3-0.1c0.4-0.1,0.6,0,0.7,0.3l1.6,5.8l0.3-0.1c0.8-4.7,1.4-7.1,1.8-7.2l0.3-0.1
						c0.4-0.1,0.7,0.1,0.8,0.6c-1.2,5-2,8.1-2.5,9.4c4.9,5.6,7.4,8.6,7.5,9l-0.5,0.4l-0.6,0.2c-3.4-3.8-5.1-5.9-5.2-6.3l-0.3,0.1
						c0.9,4.2,1.4,6.5,1.6,7l-0.5,0.4c-0.4,0.1-0.6,0-0.7-0.3l-5-18.5C790,40.5,790.2,40.3,790.5,40.2z"/>
					<path class="st10" d="M802,37.3c0.8-0.2,2.5,2.8,5,9c0.3-0.1,1.7,2.9,4.3,8.9l-0.5,0.4c-0.7,0.2-1.9-1.9-3.6-6.2l-2.6,0.7
						c-0.3,0.1-0.3,2.5,0.1,7.2l-0.6,0.2c-0.4,0.1-0.6,0-0.7-0.3c-1.1-11.9-1.7-18.4-1.6-19.7L802,37.3z M803.2,41.9
						c0.2,0.8,0.5,3.3,0.7,7.3l2.6-0.7c-1.8-3.5-2.8-5.7-3.1-6.6L803.2,41.9z"/>
					<path class="st10" d="M811.7,41.1l0.9-0.2c0.4-0.1,0.6,0,0.7,0.3l0.1,0.5c0.1,0.5-0.2,0.8-1,1c-0.4-0.1-0.7-0.1-0.9,0l-0.3-1
						C811.2,41.4,811.4,41.2,811.7,41.1z M814.2,48.9l0.3-0.1c0.3-0.1,0.6,0.1,1.1,0.5l0.1,0.5c0.1,0.3-0.1,0.5-0.4,0.6l-0.9,0.2
						c-0.4,0.1-0.6,0-0.7-0.3l-0.1-0.5C813.4,49.7,813.6,49.4,814.2,48.9z"/>
					<path class="st10" d="M706.7,92.6c3.7-1,6.5,0.4,8.5,4.3l0.2,0.6c0.5,1.7-0.3,4-2.2,6.9c1.7-0.5,3.4,0.9,5.2,4.2l0.2,0.6
						c0.1,4.4-1.8,7.1-5.5,8.1l-0.5-0.5l-6.4-23.4C706.1,93,706.3,92.7,706.7,92.6z M708.3,93.8l2.7,9.9l0.4-0.1
						c1.9-1.9,2.6-3.7,2.1-5.6l-0.2-0.6C712.8,95.4,711.1,94.2,708.3,93.8z M711.5,105.6l2.6,9.6c2.3-1.6,3.2-3.1,2.8-4.7l-0.5-1.9
						C715.9,107,714.3,106,711.5,105.6z"/>
					<path class="st10" d="M718.8,90l0.8-0.2c0.5-0.1,0.8,0.1,0.9,0.4l4.9,17.9c1,2.8,2,4.1,3.1,3.8l0.8-0.2
						c1.3-0.3,1.5-2.4,0.8-6.2l-2.4-8.9c-0.6-2-1.4-4.5-2.4-7.3c0.1-0.5,0.2-0.8,0.1-1L726,88c0.5-0.1,0.8,0.1,0.9,0.4l0.2,0.6
						c1.3,4.7,2.9,10.2,4.9,16.6c0.7,4.5-0.4,7.1-3.2,7.8c-2.7,0.1-4.5-1.7-5.5-5.5l-4.5-16.4L718.8,90z"/>
					<path class="st10" d="M735.2,85.2c0.9-0.3,2.3,0.2,4,1.2l0.1,0.3c0.1,0.4-0.1,0.7-0.6,0.8l-0.4,0.1c-1.3-0.8-2.4-1-3.5-0.7
						c-1.2,0.6-1.6,1.6-1.2,3c0.4,1.3,3,4.1,8,8.4c1.2,2.5,1.9,3.8,1.9,4.1c0.6,4-0.4,6.4-2.9,7.1l-0.8,0.2c-0.3,0.1-1.1-0.2-2.3-1
						l-0.4-1.5l1.5-0.4c0.3,1,0.7,1.5,1.2,1.3l1.1-0.3c1.1-0.3,1.3-2.1,0.5-5.5c-0.7-2.5-3.2-5.3-7.6-8.5c-1.2-1.3-1.9-2.6-2.2-3.7
						C731.6,87.5,732.8,85.8,735.2,85.2z"/>
					<path class="st10" d="M744.2,82.4l0.8-0.2c0.1,0.4,0.3,0.6,0.5,0.5c0.9,4.2,1.6,7.3,2.1,9.4l3.9,14.5c0.1,0.4-0.1,0.7-0.6,0.8
						l-0.4,0.1c-0.5,0.1-0.8,0-0.9-0.4l-2.5-9.3c-0.1-0.2,0-0.3,0.3-0.4c-0.1-0.2-0.2-0.3-0.5-0.2l0-1.6l-3.4-12.3
						C743.6,82.8,743.8,82.5,744.2,82.4z"/>
					<path class="st10" d="M751.2,80.8l1.1-0.3l8.7,15.5l0.4-0.1l-4.5-16.7L758,79c0.5-0.1,0.8,0.1,0.9,0.4l6.4,23.4
						c0.1,0.4-0.1,0.7-0.6,0.8l-1.1,0.3l-8.7-15.5l-0.4,0.1l4.5,16.7l-1.1,0.3c-0.5,0.1-0.8,0-0.9-0.4l-6.4-23.4
						C750.6,81.2,750.8,80.9,751.2,80.8z"/>
					<path class="st10" d="M765,76.7l6-1.6l0.3,0.9c0.1,0.4-0.1,0.7-0.6,0.8l-4.2,1.1l1.3,4.9l0.6,3.8l0.8,0.1l4.5-1.2l0.3,1.2
						l-1.8,0.8l-3.4,0.9l3.1,11.4l3.4-0.9l2-0.2l0.3,1.2l-6.4,1.7l-0.8-0.1c-1.2-5.6-2.3-9.9-3.2-13.1l-3-11.1
						C764.4,77.1,764.6,76.9,765,76.7z"/>
					<path class="st10" d="M777,73.8c0.9-0.3,2.3,0.2,4,1.2l0.1,0.3c0.1,0.4-0.1,0.7-0.6,0.8l-0.4,0.1c-1.3-0.8-2.4-1-3.5-0.7
						c-1.2,0.6-1.6,1.6-1.2,3c0.4,1.3,3,4.1,8,8.4c1.2,2.5,1.9,3.8,1.9,4.1c0.6,4-0.4,6.4-2.9,7.1l-0.8,0.2c-0.3,0.1-1.1-0.2-2.3-1
						l-0.4-1.5l1.5-0.4c0.3,1,0.7,1.5,1.2,1.3l1.1-0.3c1.1-0.3,1.3-2.1,0.5-5.5c-0.7-2.5-3.2-5.3-7.6-8.5c-1.2-1.3-1.9-2.6-2.2-3.7
						C773.4,76.1,774.6,74.5,777,73.8z"/>
					<path class="st10" d="M788,70.8c0.9-0.3,2.3,0.2,4,1.2l0.1,0.3c0.1,0.4-0.1,0.7-0.6,0.8l-0.4,0.1c-1.3-0.8-2.4-1-3.5-0.7
						c-1.2,0.6-1.6,1.6-1.2,3c0.4,1.3,3,4.1,8,8.4c1.2,2.5,1.9,3.8,1.9,4.1c0.6,4-0.4,6.4-2.9,7.1l-0.8,0.2c-0.3,0.1-1.1-0.2-2.3-1
						l-0.4-1.5l1.5-0.4c0.3,1,0.7,1.5,1.2,1.3l1.1-0.3c1.1-0.3,1.3-2.1,0.5-5.5c-0.7-2.5-3.2-5.3-7.6-8.5c-1.2-1.3-1.9-2.6-2.2-3.7
						C784.4,73.1,785.6,71.5,788,70.8z"/>
					<path class="st10" d="M809.6,63.9c1.9-0.5,3.3,0.2,4.2,2.2l-1.1,0.3l-2.3-1l-0.8,0.2c-1.7,0.7-1.8,4.8-0.3,12.3
						c2.4,7.3,4.2,10.8,5.7,10.4l1.5-0.4c0.2,0,0.7-0.7,1.5-2.1c0.5-0.1,0.8,0.1,0.9,0.4l0.2,0.6c-0.5,1.5-1.5,2.4-2.9,2.8
						c-3.3,0.9-5.9-2.3-7.9-9.5l-1-3.7c-1.5-7.6-1-11.7,1.5-12.3L809.6,63.9z"/>
					<path class="st10" d="M816.6,62.7l0.8-0.2c0.1,0.4,0.3,0.6,0.5,0.5c0.9,4.2,1.6,7.3,2.1,9.4l3.9,14.5c0.1,0.4-0.1,0.7-0.6,0.8
						l-0.4,0.1c-0.5,0.1-0.8,0-0.9-0.4l-2.5-9.3c-0.1-0.2,0-0.3,0.3-0.4c-0.1-0.2-0.2-0.3-0.5-0.2l0-1.6L816,63.5
						C816,63.1,816.2,62.8,816.6,62.7z"/>
					<path class="st10" d="M820.3,61.7l10.2-2.8c0.5-0.1,0.8,0.1,0.9,0.4c0.1,0.3-0.2,0.7-0.9,1.2l-3.8,1l0.1,0.3
						c1.1,4.2,3.3,11.8,6.6,22.7l-0.7,0.5l-0.4,0.1c-0.5,0.1-0.8,0-0.9-0.4l-2-7.4c-0.9-3.2-2.4-8.3-4.6-15.3l-3.8,1
						c-0.4,0.1-0.8-0.1-1.4-0.6C819.7,62.1,819.9,61.8,820.3,61.7z"/>
					<path class="st10" d="M831.7,58.6c0.8,0,2.7,1.9,5.6,5.8l0.8-0.2c0.6-4.8,1.2-7.4,1.9-7.8c0.5-0.1,0.8,0.1,1,0.7
						c-1.2,6.5-1.7,10-1.6,10.7l3.5,13c0.1,0.4-0.1,0.7-0.6,0.8c-0.5,0.1-0.8,0-0.9-0.4l-3.5-13c-0.1-0.4-2.4-3.4-6.9-8.7l-0.1-0.3
						L831.7,58.6z"/>
				</g>
			</g>
			<g>
				<g>
					<g>
						<g>
							<path class="st11" d="M300.8,192.8c0,0-20-4.9-28.5-30.2c-8.5-25.4-9.8-88.7,0-114.1c9.8-25.4,32.4-44.8,46-27.5
								c13.5,17.3,21.7,96.8,12.4,130.8C321.4,185.8,307.8,191.2,300.8,192.8z"/>
						</g>
					</g>
					<g>
						<path class="st6" d="M291.9,268c0,0,2.6-92.5,1.8-95.6c-0.7-3.1-9.9-17.3-9.9-17.3s11.7,12.9,12.8,7.6
							c1.1-5.3,3.3-45.7,3.3-45.7s0.7,40.9,3.6,40.4c2.9-0.4,15-16.4,15-16.4s-13.9,21.3-13.9,29.3s1.1,97.8,1.1,97.8H291.9z"/>
					</g>
				</g>
			</g>
		</g>
	</g>
</g>
</svg>
