<svg xmlns="http://www.w3.org/2000/svg" viewBox="0 0 411.3 131.13"><defs><style>.cls-1,.cls-2{fill:#fff;}.cls-1{stroke:#fff;stroke-miterlimit:10;stroke-width:3.86px;}</style></defs><title>back</title><g id="Слой_2" data-name="Слой 2"><g id="section-2_о_лагере" data-name="section-2 о лагере"><path class="cls-1" d="M365.57,102.79l-287.38,20c-17.9,1.25-33.5-13.49-34.66-32.75L41.68,59.31C40.52,40.05,54.22,23.27,72.12,22L359.5,2C377.4.75,393,15.49,394.16,34.75L396,65.5C397.17,84.76,383.47,101.54,365.57,102.79Z" transform="translate(-7.33)"/><path class="cls-2" d="M53.91,24.64,13.43,39.06c-9,3.21-7.86,16.81,2.31,17L62.1,57.16l-2.31-17a147.33,147.33,0,0,0-47,24.72c-6.14,4.75-.8,14.93,6.14,14.81a171.17,171.17,0,0,0,40.2-5.49L52.42,58.3A67.7,67.7,0,0,1,29.05,69.11,8.8,8.8,0,0,0,23,79.79c1.37,5,6,6.73,10.67,6.06A129.59,129.59,0,0,1,50,84.6q3.73-.06,7.47.07c1.55.06,3.12.08,4.66.25,2.26.25.53.16.5.12l-2.23-3.83q1-2.7,0-1.16A21.48,21.48,0,0,1,58.8,81.6c-1.19,1.09-2.42,2.13-3.69,3.11a72.15,72.15,0,0,1-8.94,5.82,71.3,71.3,0,0,1-19.65,7.26l6.69,15.86a44.78,44.78,0,0,1,21.88-3.29l-8.37-11-5,12.58c-2.56,6.48,4.84,12.11,10.67,10.67a157.32,157.32,0,0,1,40-4.54L84.91,105c-2.28,4.62-5.37,7.33-10.48,8.34-10.12,2-6.92,16.37,2.31,17,12.57.92,25.63,1.65,37.82-2.26,6.19-2,11.92-5.22,18.23-6.87,5.78-1.51,11.86-1.25,17.78-1.2l84.77.72-8.68-8.68,0,.58,4.3-7.49-.4.29,4.38-1.18,1,.09,3.83,2.23-.46-.47,2.54,6.14-.06-.68L240.69,116l.57-.95-3.11,3.11q-2.61.51.84.26l1.94,0q2.91,0,5.82-.13,5.82-.17,11.64-.54,11.15-.7,22.25-2.08A388.54,388.54,0,0,0,326,107.29a8.75,8.75,0,0,0,5.19-12.75,9.77,9.77,0,0,0-15.42-1.93,10.43,10.43,0,0,0,2,16.1c4.79,2.92,11.23,1.94,16.59,1.91l20.81-.12V93.15c-2.52.23-5.2,0-6.89-2.24L340.73,104q34.72-2.25,69.52-1.33V85.28a52.94,52.94,0,0,1-30.41-8.6l4,9.8,2.93-7.26c2.71-6.73-4.95-11.73-10.67-10.67l-5,.92,6.69,15.86A123.76,123.76,0,0,1,395,78.57l-9.8-4q.23-2.08-.76-1.23l16.17,4.38C400.13,73,397.88,69,393,67.79c-4.37-1.11-9.58.76-11.49,5-2.59,5.77.37,13.12,7.49,13.06a30,30,0,0,0,21.47-9.14c4.87-4.91,2.19-12.33-3.83-14.5-2.43-.88-8.53-2.59-7.52-6.12A8.84,8.84,0,0,0,393,45.43,14.28,14.28,0,0,0,380.65,47l10.52,13.63A105.34,105.34,0,0,1,409,44.13c7-5.06,4.51-15.52-4.38-16.17l-24-1.77L385,42.36l8.76-6.14c7-4.93,4.52-15.69-4.38-16.17-2.06-.11-2.38-2.72-2.6-4.23l-.87,6.69,4.84-6.75c3-4.2.11-12-5.19-12.75C364.79,0,343.71.78,322.79.74c-20.73,0-41.49-.32-62.22.36-41.78,1.38-83.43,8-124.88,13.07L64.75,22.78c-4.65.56-8.68,3.58-8.68,8.68,0,4.25,4,9.25,8.68,8.68L188.9,25.07c20.24-2.46,40.49-5.07,60.87-6.16,20.67-1.1,41.38-.89,62.08-.85,22.8,0,46.47-1.62,69.09,1.69L375.75,7c-1.9,2.66-4.83,5.63-5.71,8.82-1,3.6.57,8.31,2.38,11.42a20.31,20.31,0,0,0,17,10.16L385,21.24l-8.76,6.14c-7.14,5-4.43,15.52,4.38,16.17l24,1.77-4.38-16.17a124,124,0,0,0-21.38,19.26c-6.16,7.08,1.72,19.15,10.52,13.63l-1,.13-6.06-10.67c-4.11,14.33,7.81,23.19,19.64,27.46l-3.83-14.5A12.33,12.33,0,0,1,389,68.5l7.49,13.06.31-.69L393.66,84l.62-.33-4.38,1.18-.83,0-3.83-2.23.49.54L383.18,77l.08.76c.89,8.65,11,11.69,16.17,4.38,3.58-5.1,3.09-10.82.76-16.28-1.44-3.38-6.48-5-9.8-4A154.44,154.44,0,0,0,369,70.34c-9.39,4.55-2.38,17.54,6.69,15.86l5-.92L370,74.6l-2.93,7.26c-1.46,3.61,1,7.9,4,9.8a69.51,69.51,0,0,0,39.17,11c11.17-.28,11.18-17.06,0-17.35q-34.78-.92-69.52,1.33c-5.79.38-11.82,7.39-7.49,13.06,5.32,7,12.8,11.65,21.87,10.84,10.93-1,11.36-17.42,0-17.35l-15.85.09-7.93,0-4,0q-3.49-.33-.89.42l3.11,3.11-.67-.88,1.18,4.38,0-.86-1.18,4.38.48-.73-3.11,3.11.72-.44L322.6,107h.69l-7.49-4.3.38.61,5.19-12.75a353.15,353.15,0,0,1-68.78,10.15c-8.82.41-26.07-2.62-27.9,9.76-2,13.39,20.31,15.06,19.34,1.66-.34-4.71-3.7-8.63-8.68-8.68l-84.77-.72a104.51,104.51,0,0,0-19,1.09c-6.17,1.08-11.71,3.79-17.48,6.07-12.12,4.8-24.59,4.09-37.36,3.16l2.31,17A30.16,30.16,0,0,0,99.9,113.78c2.89-5.84-.59-13-7.49-13.06a176.6,176.6,0,0,0-44.6,5.16l10.67,10.67,5-12.58c2.24-5.67-3.34-10.58-8.37-11-10.71-.85-20.87,1.36-30.64,5.66-9.38,4.13-2.44,17.86,6.69,15.86a86.66,86.66,0,0,0,26-10.27C64.38,99.87,74.53,93.58,77.21,85a13.19,13.19,0,0,0-3.15-13.23c-3.45-3.41-8.32-3.94-12.9-4.25a153.18,153.18,0,0,0-32.1,1.61l4.61,16.73A81.16,81.16,0,0,0,61.18,73.28c7.74-5.48,3.32-18.46-6.69-15.86a150.52,150.52,0,0,1-35.59,4.87L25,77.11A124.13,124.13,0,0,1,64.41,56.85C73.74,54,72,40,62.1,39.81L15.73,38.75,18,55.8,58.52,41.38c10.45-3.72,5.94-20.5-4.61-16.73Z" transform="translate(-7.33)"/></g></g></svg>