<?xml version="1.0" encoding="utf-8"?>
<!-- Generator: Adobe Illustrator 21.1.0, SVG Export Plug-In . SVG Version: 6.00 Build 0)  -->
<svg version="1.1" id="Layer_1" xmlns="http://www.w3.org/2000/svg" xmlns:xlink="http://www.w3.org/1999/xlink" x="0px" y="0px"
	 viewBox="0 0 182 117" style="enable-background:new 0 0 182 117;" xml:space="preserve">
<style type="text/css">
	.st0{fill:#5E9F3B;}
	.st1{fill:#DB921A;}
	.st2{fill:#0069AE;}
</style>
<g>
	<g>
		<path class="st0" d="M70.2,48.4c-0.1,0-0.2,0.1-0.4,0.2c-0.2,0.1-0.3,0.1-0.3,0.1c-0.1,0-0.3,0.1-0.7,0.2
			c-0.4,0.1-0.6,0.2-0.7,0.2c-0.2,0.2-0.3,0.3-0.3,0.3c-0.1,0-0.4,0.1-0.9,0.2c-0.5,0.1-0.8,0.1-0.9,0.1c-0.1,0-0.3,0.1-0.6,0.2
			c-0.3,0.1-0.4,0.1-0.5,0.1c0,0-0.1,0.1-0.2,0.2c-0.1,0.1-0.2,0.2-0.2,0.2c0,0-0.2,0-0.4,0.1c-0.2,0.1-0.5,0.1-0.8,0.2
			c-0.3,0.1-0.5,0.2-0.8,0.2c-0.3,0.1-0.4,0.1-0.5,0.1c0,0-0.2,0.1-0.3,0.2c-0.2,0.1-0.4,0.2-0.6,0.3c-0.2,0.1-0.5,0.2-0.7,0.3
			c-0.2,0.1-0.4,0.2-0.5,0.2c-0.1,0.1-0.3,0.2-0.6,0.4c-0.3,0.2-0.4,0.3-0.5,0.3c0,0.3-0.1,0.4-0.1,0.5c0,0.1,0,0.3,0.1,0.5
			c0,0.1,0.1-0.2,0.3,0c0.2,0.2,0.3,0,0.3,0c0-0.1,0.1,0.6,0.2,0.5c0.1-0.1,0.2-0.1,0.2-0.2c0,0,0.2,0,0.4-0.1
			c0.2,0,0.4-0.1,0.7-0.1c0.2,0,0.4-0.1,0.7-0.1c0.2,0,0.4-0.1,0.4-0.1c0.1,0,0.3-0.1,0.5-0.2c0.3-0.1,0.4-0.2,0.5-0.2
			c0.1,0,0.3-0.1,0.5,0c0.3,0,0.4,0,0.5,0c0,0,0.1-0.1,0.2-0.2c0.1-0.1,0.1-0.2,0.1-0.2c0.1,0-1.3,2.3-1.6,2.4
			c-0.3,0.1-0.6,0.2-0.9,0.3c-0.3,0.1-0.6,0.2-0.9,0.3c-0.3,0.1-0.4,0.2-0.5,0.2c-0.1,0.1-0.2,0.3-0.4,0.7c-0.2,0.4-0.3,0.6-0.4,0.7
			c-0.1,0.1-0.2,0.3-0.4,0.6c-0.2,0.3-0.3,0.4-0.3,0.5c0,0-0.2,0.1-0.4,0.2c-0.2,0.1-0.3,0.2-0.4,0.2c-0.1,0-0.3,0.2-0.7,0.5
			c-0.4,0.3-0.6,0.5-0.7,0.6c0,0-0.2,0-0.4,0.1c-0.2,0.1-0.3,0.2-0.4,0.2c0,0.1,0,0.2,0.1,0.4c0.1,0.2,0.1,0.3,0.1,0.4h4.7
			c0,0.1-0.2,0.3-0.5,0.5c-0.3,0.3-0.4,0.4-0.5,0.5c-0.1,0-0.3,0-0.6,0.1c-0.3,0.1-0.5,0.2-0.5,0.2c0,0-0.1,0.1-0.2,0.2
			c-0.1,0.1-0.2,0.2-0.2,0.2c-0.1,0-0.4,0.2-0.9,0.3c-0.5,0.2-0.8,0.3-0.9,0.4c-0.1,0-0.2,0.1-0.4,0.3c-0.2,0.1-0.4,0.3-0.7,0.4
			c-0.2,0.2-0.5,0.3-0.7,0.4c-0.2,0.1-0.3,0.2-0.4,0.3c-0.1,0-0.3,0.1-0.7,0.2c-0.4,0.1-0.6,0.1-0.7,0.1c0,0-0.2,0.2-0.5,0.4
			c-0.3,0.2-0.5,0.3-0.5,0.4c-0.1,0-0.2,0-0.4,0.1c-0.2,0.1-0.4,0.2-0.7,0.2c-0.2,0.1-0.5,0.1-0.7,0.2c-0.2,0.1-0.3,0.1-0.4,0.1
			c-0.1,0-0.2,0-0.4,0.1c-0.2,0.1-0.3,0.2-0.4,0.2H50c0-0.1-0.1-0.2-0.3-0.4c-0.2-0.2-0.3-0.3-0.4-0.3c-0.1,0-0.3-0.1-0.7-0.1
			c-0.4,0-0.6-0.1-0.7-0.2c-0.1-0.5-0.1-0.8-0.1-0.9c0-0.1,0-0.2,0.1-0.5c0-0.2,0.1-0.4,0.1-0.4l2.1-2.5v-0.2c-0.1,0-0.3,0-0.5-0.1
			c-0.3-0.1-0.4-0.1-0.5,0l-4.2,1.4c0,0-0.2,0-0.3,0.1c-0.2,0-0.4,0.1-0.6,0.1c-0.2,0-0.4,0.1-0.6,0.1c-0.2,0-0.3,0.1-0.3,0.1
			c-0.1,0-0.4,0.2-0.9,0.5c-0.5,0.3-0.8,0.5-0.9,0.5c-0.1,0-0.3,0.1-0.7,0.2c-0.4,0.1-0.6,0.2-0.7,0.2l-2.8,1.4
			c-0.1,0-0.3,0.1-0.7,0.2c-0.4,0.1-0.6,0.1-0.8,0.1c-0.2,0-0.3,0.1-0.4,0.1c0,0-0.1,0-0.3-0.1c0,0-0.1-0.1-0.2-0.3
			c-0.1-0.2-0.2-0.3-0.2-0.4c0-0.1,0-0.3,0.1-0.7c0-0.4,0.1-0.6,0.1-0.7c0,0-0.2,0-0.4,0c-0.2,0-0.4,0-0.4,0c-0.1,0-0.3,0.1-0.7,0.2
			c-0.4,0.1-0.6,0.2-0.7,0.2c-0.1,0-0.2,0.1-0.4,0.2c-0.2,0.1-0.3,0.2-0.3,0.2c-0.2,0.1-0.6,0.2-1,0.4c-0.4,0.2-0.7,0.3-0.8,0.3
			c0,0-0.2,0-0.3,0c-0.2,0-0.3,0-0.3,0c0,0-0.2,0.1-0.4,0.2c-0.2,0.1-0.3,0.2-0.4,0.2H28h-0.3c-0.4-0.6-0.6-0.9-0.7-1.1
			c0,0-0.1-0.2-0.2-0.4c-0.1-0.2-0.1-0.3-0.2-0.4h-0.4h-0.6c-0.2,0-0.5,0.1-1.1,0.2c-0.6,0.1-0.9,0.2-1,0.2c-0.1,0-0.3,0.1-0.6,0.2
			c-0.3,0.1-0.5,0.2-0.5,0.2c-0.1,0-0.2,0.1-0.5,0.1c-0.2,0-0.4,0-0.5,0c0-0.1,0-0.5-0.1-1.1c0-0.6-0.1-1-0.1-1.1c0,0,0-0.1-0.1-0.2
			C21.1,63.1,21,63,20.9,63h-0.3h-0.3c-0.1,0-0.3,0.1-0.7,0.2c-0.4,0.1-0.6,0.2-0.7,0.2h-0.1h-0.2c-0.2-0.1-0.4-0.2-0.8-0.4
			c-0.4-0.2-0.6-0.3-0.6-0.3c0,0,0-0.1,0-0.2c0-0.1,0-0.2,0-0.3c0-0.1,0-0.3,0.1-0.5c0-0.1,0.2-0.3,0.4-0.6c0.2-0.3,0.3-0.5,0.4-0.5
			c0,0,0-0.2,0-0.3c0-0.2,0-0.4,0.1-0.6c0-0.2,0.1-0.4,0.1-0.6c0-0.2,0.1-0.3,0.1-0.3c0-0.1,0.2-0.3,0.4-0.6
			c0.2-0.2,0.5-0.5,0.7-0.8c0.3-0.3,0.5-0.5,0.8-0.7c0.2-0.2,0.4-0.3,0.6-0.4v-0.7c0,0-0.1,0-0.2,0c-0.1,0-0.1,0-0.2,0L19.8,56
			c-0.1,0-0.3,0.1-0.7,0.2c-0.4,0.1-0.6,0.1-0.7,0.1h-1.3H16c-0.1,0-0.2,0-0.4-0.1c-0.2-0.1-0.3-0.2-0.4-0.2v-0.2v-0.2
			c0,0,0.1,0,0.2-0.1c0.1-0.1,0.1-0.2,0.2-0.2c0.1-0.1,0.3-0.2,0.5-0.4c0.3-0.2,0.4-0.3,0.5-0.3c0,0,0.2,0,0.4-0.1
			c0.2-0.1,0.4-0.1,0.7-0.2c0.2-0.1,0.4-0.2,0.6-0.2c0.2-0.1,0.3-0.1,0.4-0.1c0,0,0.1-0.2,0.2-0.3c0.1-0.2,0.2-0.3,0.2-0.4v-0.3
			v-0.4l-0.7,0.4v-0.4c-0.1,0.1-0.3,0.2-0.5,0.4c-0.3,0.2-0.4,0.3-0.5,0.3c0,0-0.2,0.1-0.5,0.2c-0.3,0.1-0.5,0.1-0.6,0.1
			c0,0-0.2,0.1-0.3,0.2c-0.2,0.1-0.3,0.2-0.3,0.2h-1.5h-1.4c0-0.1-0.1-0.4-0.3-0.8c-0.2-0.4-0.3-0.6-0.4-0.7c0,0-0.2,0-0.6-0.1
			c-0.3-0.1-0.6-0.2-0.8-0.2H9.6c0,0-0.1,0-0.2-0.1c-0.1-0.1-0.1-0.2-0.2-0.2v-0.2v-0.2c0.1-0.1,0.2-0.3,0.4-0.5
			c0.2-0.3,0.3-0.4,0.4-0.5c0,0,0.2-0.1,0.4-0.3c0.2-0.1,0.4-0.3,0.7-0.4c0.2-0.2,0.5-0.3,0.7-0.4c0.2-0.1,0.3-0.2,0.4-0.3
			c0.2-0.1,0.5-0.4,0.8-0.7c0.3-0.4,0.5-0.6,0.6-0.7v-0.5v-0.6c-0.1-0.2-0.3-0.3-0.4-0.3c0,0-0.2,0.1-0.5,0.2
			c-0.3,0.1-0.5,0.2-0.6,0.2h-0.1h-0.2c-0.1-0.1-0.2-0.3-0.3-0.7c-0.1-0.4-0.1-0.6-0.1-0.7c0,0,0.1-0.2,0.3-0.3
			c0.2-0.2,0.3-0.3,0.4-0.4c0.1,0,0.3-0.2,0.7-0.3c0.4-0.2,0.6-0.3,0.8-0.4c0,0,0.2,0,0.5-0.1c0.3-0.1,0.5-0.2,0.6-0.2
			c0.2-0.2,0.3-0.3,0.3-0.3c0.1-0.1,0.4-0.2,0.9-0.4c0.4-0.2,0.8-0.3,0.9-0.3v-0.5V41c-0.1-0.1-0.2-0.3-0.4-0.5
			c-0.2-0.2-0.3-0.3-0.4-0.3h-3.2c0,0-0.1-0.1-0.2-0.3c-0.1-0.2-0.1-0.4-0.2-0.5v-0.4v-0.3c0-0.1,0-0.3,0.1-0.6
			c0.1-0.3,0.2-0.5,0.2-0.5c0-0.1,0.2-0.3,0.5-0.5c0.3-0.3,0.5-0.4,0.5-0.5c0-0.1,0.1-0.2,0.1-0.2L13.8,36c0,0-0.2-0.1-0.5-0.2
			c-0.3-0.1-0.5-0.1-0.5-0.2c0,0,0-0.2,0-0.3c0-0.2,0-0.3,0-0.4c0-0.1,0-0.2,0-0.4c0-0.2,0-0.3,0-0.4c0.1,0,0.3-0.1,0.5-0.3
			c0.3-0.1,0.6-0.3,0.9-0.4c0.3-0.2,0.6-0.3,0.9-0.4c0.3-0.1,0.5-0.2,0.6-0.3c0,0,0.2-0.1,0.5-0.2c0.3-0.1,0.5-0.1,0.6-0.1
			c0,0,0-0.1,0.1-0.2c0.1-0.1,0.2-0.2,0.2-0.2c0.1,0,0.4-0.2,0.9-0.3c0.5-0.2,0.8-0.3,0.9-0.3c0.1,0,0.3-0.2,0.7-0.4
			c0.4-0.2,0.6-0.3,0.7-0.4c0,0,0.2-0.1,0.5-0.2c0.3-0.1,0.5-0.1,0.6-0.2c0.1,0,0.2-0.2,0.4-0.3c0.2-0.2,0.3-0.3,0.3-0.4h-0.1h-0.2
			c-0.1,0-0.4,0.1-0.7,0.2c-0.4,0.1-0.6,0.1-0.7,0.1c0,0-0.2,0.1-0.4,0.2c-0.2,0.1-0.3,0.2-0.4,0.2c-0.1,0-0.3,0-0.7,0.1
			c-0.4,0.1-0.6,0.2-0.7,0.2c-0.1,0-0.3,0.2-0.7,0.4c-0.4,0.2-0.6,0.3-0.7,0.4c-0.2,0.1-0.5,0.2-1,0.4c-0.5,0.2-0.7,0.3-0.8,0.3
			c-0.2,0.1-0.6,0.2-1.3,0.4c-0.6,0.2-1,0.3-1.2,0.3h-0.3h-0.4c-0.1,0-0.4-0.1-0.7-0.2c-0.4-0.1-0.6-0.1-0.7-0.2
			c0,0-0.1-0.1-0.2-0.2C10,32.2,10,32.1,10,32.1c-0.1-0.2-0.2-0.6-0.2-1.1c-0.1-0.6-0.1-1-0.2-1.1H8.2v-4.1c0-0.1,0.1-0.3,0.4-0.5
			C8.8,25,9,24.8,9.2,24.7c0.1,0,0.3-0.1,0.5-0.3c0.2-0.1,0.5-0.3,0.8-0.4c0.3-0.2,0.6-0.3,0.9-0.4c0.3-0.1,0.5-0.2,0.6-0.3
			c0.1,0,0.3,0,0.7-0.1c0.4-0.1,0.6-0.2,0.7-0.2c0.2-0.2,0.3-0.3,0.3-0.3c0,0,0.2-0.1,0.4-0.2c0.2-0.1,0.3-0.1,0.4-0.1
			c0,0,0.1-0.1,0.2-0.2c0.1-0.1,0.1-0.2,0.1-0.2c0,0,0-0.1,0-0.3c-0.1-0.1-0.1-0.2-0.1-0.3c0,0-0.1,0-0.3-0.1
			c-0.1-0.1-0.2-0.1-0.3,0c-0.1,0-0.3,0.1-0.5,0.2c-0.3,0.1-0.6,0.3-0.9,0.5c-0.3,0.2-0.6,0.3-0.9,0.5c-0.3,0.1-0.5,0.2-0.5,0.3
			c0,0-0.2,0-0.4,0c-0.2,0-0.3,0-0.4,0c-0.2,0.2-0.3,0.3-0.3,0.3c-0.1,0-0.3,0.1-0.7,0.2c-0.4,0.1-0.6,0.1-0.7,0.1
			c-0.1,0-0.2,0.1-0.5,0.1c-0.2,0-0.4,0-0.5,0C8,23.2,8,23,8,22.7c0-0.3,0.1-0.4,0.1-0.5c0,0,0.1-0.2,0.3-0.3
			c0.2-0.2,0.3-0.3,0.4-0.4c0,0,0.2-0.2,0.4-0.3c0.2-0.2,0.4-0.4,0.7-0.6c0.2-0.2,0.5-0.4,0.7-0.6c0.2-0.2,0.3-0.3,0.4-0.3
			c0.2-0.2,0.3-0.3,0.3-0.3c0.1-0.1,0.4-0.3,0.8-0.5c0.4-0.3,0.8-0.4,0.9-0.5c0.1,0,0.2-0.1,0.4-0.2c0.2-0.1,0.3-0.1,0.3-0.1
			c0.1,0,0.3-0.1,0.7-0.2c0.4-0.1,0.6-0.2,0.7-0.2c0.1,0,0.3-0.1,0.6-0.3c0.3-0.2,0.5-0.3,0.5-0.4c0,0,0.2-0.1,0.5-0.2
			c0.3-0.1,0.5-0.2,0.8-0.3c0.3-0.1,0.5-0.2,0.8-0.3c0.2-0.1,0.4-0.2,0.4-0.2c0,0,0.2-0.1,0.4-0.2c0.2-0.1,0.5-0.2,0.7-0.3
			c0.2-0.1,0.5-0.2,0.7-0.3c0.2-0.1,0.3-0.2,0.4-0.2c0.1,0,0.3-0.1,0.6-0.2c0.3-0.1,0.5-0.1,0.5-0.1l0.4-0.4c0,0,0.2,0,0.4-0.1
			c0.2-0.1,0.4-0.1,0.7-0.2c0.2-0.1,0.5-0.2,0.7-0.2c0.2-0.1,0.3-0.1,0.4-0.1c0.1,0,0.3-0.2,0.7-0.4c0.4-0.2,0.6-0.3,0.7-0.4
			c0.1,0,0.4-0.1,0.9-0.2c0.5-0.1,0.8-0.1,0.9-0.1c0.1,0,0.2-0.1,0.4-0.2c0.2-0.1,0.3-0.2,0.3-0.2c0,0,0.2,0,0.5,0
			c0.3,0,0.6-0.1,0.9-0.1c0.3,0,0.6-0.1,0.9-0.1c0.3,0,0.5-0.1,0.6-0.1c0,0,0.2-0.1,0.5-0.4c0.3-0.2,0.5-0.4,0.6-0.4
			c0.4,0,0.6,0,0.7,0c0,0,0.2-0.1,0.4-0.2c0.2-0.1,0.3-0.2,0.4-0.2c0.1,0,0.4-0.1,0.9-0.2c0.5-0.1,0.8-0.1,0.9-0.1
			c0,0,0.2-0.1,0.4-0.2c0.2-0.1,0.3-0.2,0.4-0.2c0.1,0,0.3-0.1,0.5-0.2c0.3-0.1,0.4-0.1,0.5-0.2c0,0,0.2,0,0.4-0.1
			c0.2,0,0.4-0.1,0.7-0.1c0.2,0,0.4-0.1,0.7-0.1c0.2,0,0.4-0.1,0.4-0.1c0,0,0.2-0.1,0.3-0.2c0.2-0.1,0.3-0.2,0.3-0.2
			c0,0,0.1,0.1,0.2,0.2c0.1,0.1,0.2,0.2,0.2,0.2h0.3c0,0,0.1,0,0.2,0.1c0.1,0.1,0.1,0.1,0.1,0.2c0.1,0.1,0.2,0.4,0.2,0.9
			c0.1,0.5,0.1,0.8,0.2,0.9h0.3h0.3c0.2,0,0.5-0.1,1-0.2c0.5-0.1,0.7-0.2,0.8-0.2c0,0,0.2-0.1,0.3-0.2c0.2-0.1,0.3-0.2,0.4-0.2
			c0.1,0,0.4-0.1,0.9-0.2c0.5-0.1,0.8-0.1,0.9-0.1c0.1,0,0.3-0.1,0.5-0.2c0.3-0.1,0.4-0.2,0.5-0.2c0,0,0.2,0,0.4,0
			c0.2,0,0.3,0,0.4,0c0,0,0.2-0.1,0.5-0.2c0.3-0.1,0.5-0.2,0.6-0.2h1.9h1.9c0.1,0,0.3,0,0.5,0.1c0.3,0.1,0.4,0.1,0.5,0.2
			c0.1,0.1,0.2,0.2,0.4,0.4c0.2,0.2,0.3,0.3,0.3,0.4c-0.1,0-0.2,0.1-0.4,0.2c-0.2,0.1-0.3,0.1-0.4,0.1c0,0-0.2,0.1-0.5,0.2
			c-0.3,0.1-0.5,0.2-0.6,0.2c-0.1,0-0.3,0.2-0.7,0.4c0,0-0.1,0-0.1,0.1c0,0.1,0,0.2,0,0.2c0,0,0,0.1,0,0.2c0,0.1,0,0.2,0.1,0.2
			c0,0,0,0.1,0.1,0.2c0.1,0.1,0.2,0.1,0.2,0.1h0.3c0.4,0,0.8-0.1,1.1-0.2c0.3-0.2,0.7-0.3,1-0.5c0.1,0,0.4-0.2,0.9-0.4
			c0.5-0.2,0.8-0.3,0.9-0.4c0,0,0.2-0.1,0.3-0.2c0.2-0.1,0.3-0.2,0.3-0.2c0.1,0,0.4-0.1,0.8-0.2c0.4-0.1,0.6-0.1,0.7-0.1
			c0,0,0.2,0,0.5,0c0.3,0,0.5,0,0.6,0c0.1,0,0.3,0,0.7,0l0.3,0.7l0.4-0.4h0.3h0.3c0.1,0,0.2,0.2,0.4,0.4c0.2,0.2,0.3,0.3,0.3,0.4
			c0,0.2,0.1,0.3,0.1,0.4c0,0,0,0.2-0.1,0.3c0,0-0.2,0.1-0.5,0.2c-0.3,0.1-0.5,0.1-0.6,0.2c-0.7,0.3-1.2,0.7-1.7,1
			c0,0.1,0.1,0.2,0.3,0.4c0.2,0.2,0.3,0.3,0.4,0.3h0.5h0.5c0,0,0.1-0.1,0.2-0.2c0.1-0.1,0.1-0.2,0.1-0.2c0.1,0,0.3-0.1,0.5-0.2
			c0.3-0.1,0.4-0.1,0.5-0.2c0.1,0,0.4-0.1,0.9-0.2c0.5-0.1,0.8-0.1,0.9-0.1c0,0,0.2-0.1,0.3-0.2c0.2-0.1,0.3-0.2,0.4-0.2
			c0.1,0,0.3-0.1,0.6-0.2c0.3-0.1,0.5-0.1,0.5-0.1c0.1,0,0.3,0,0.6,0c0.3,0,0.6-0.1,0.9-0.1c0.3,0,0.6,0,0.9,0c0.3,0,0.5,0,0.7,0
			v1.9c0,0,0.1,0,0.2,0c0.1,0,0.2,0,0.2,0c0,0,0.2-0.1,0.3-0.2c0.2-0.1,0.3-0.2,0.3-0.2h0.5h0.5c0.1,0,0.2,0.1,0.4,0.2
			c0.2,0.1,0.3,0.1,0.3,0.2c-0.1,0.1-0.3,0.3-0.5,0.5c-0.3,0.2-0.4,0.4-0.5,0.5c-0.1,0.1-0.3,0.2-0.5,0.4C71.2,16,71,16.1,71,16.1
			c-0.1,0-0.3,0.1-0.5,0.2c-0.3,0.1-0.6,0.2-0.9,0.3c-0.3,0.1-0.6,0.2-0.9,0.3c-0.3,0.1-0.5,0.2-0.6,0.2l-0.3,0.3
			c0,0.1,0,0.2,0.1,0.2c0.1,0.1,0.2,0.1,0.2,0.2c0.1,0,0.3,0,0.7,0c0.4,0,0.6,0,0.7,0c0,0,0.2,0.2,0.3,0.5c0.2,0.3,0.3,0.5,0.3,0.6
			 M70.2,43.8c-0.1,0.1-0.3,0.2-0.6,0.4c-0.3,0.2-0.4,0.3-0.5,0.3c0,0.1-0.1,0.3-0.2,0.6c-0.1,0.3-0.1,0.5-0.2,0.5
			c0,0-0.1,0.1-0.2,0.2c-0.1,0.1-0.2,0.2-0.2,0.2c0,0,0,0.1,0,0.1c0,0,0.1,0.1,0.1,0.1c0.1,0,0.2,0,0.3,0.1c0.1,0.1,0.2,0.1,0.3,0
			c0.1,0,0.3-0.2,0.7-0.4 M70.2,39.9c-0.1,0-0.3,0.1-0.7,0.2c-0.4,0.1-0.6,0.2-0.7,0.2c-0.1,0-0.4,0.2-0.7,0.5
			c-0.4,0.3-0.6,0.5-0.7,0.6h0.1h0.2c0,0,0.2,0,0.4-0.1c0.2,0,0.4-0.1,0.7-0.1c0.2,0,0.4-0.1,0.7-0.1c0.2,0,0.4-0.1,0.4-0.1
			c0,0,0.1,0,0.2,0c0.1,0,0.1,0,0.1,0 M69.7,31.9c-0.5,0.1-0.8,0.1-0.9,0.1c0,0-0.2,0.1-0.3,0.2c-0.2,0.1-0.3,0.2-0.4,0.2
			c0,0-0.2,0-0.4,0.1c-0.2,0.1-0.4,0.1-0.7,0.2c-0.2,0.1-0.5,0.2-0.7,0.2c-0.2,0.1-0.3,0.1-0.4,0.1c-0.1,0.1-0.5,0.3-1,0.5
			c-0.6,0.3-0.9,0.4-1.1,0.5c-0.1,0.1-0.3,0.2-0.6,0.4c-0.3,0.2-0.4,0.3-0.5,0.3l-0.1,0.1c0,0,0,0.1,0.1,0.2c0,0,0,0.1,0.1,0.2
			c0.1,0.1,0.2,0.2,0.2,0.2h0.2h0.1c0,0,0.2-0.1,0.4-0.2c0.2-0.1,0.3-0.2,0.4-0.2h0.3c0.1,0,0.4-0.1,0.8-0.3c0.5-0.2,0.8-0.3,1-0.4
			c0.1,0,0.3-0.2,0.7-0.4c0.4-0.2,0.6-0.3,0.7-0.3c0.1,0,0.5-0.1,1-0.1c0.5,0,0.9-0.1,1-0.1c0,0.1,0,0.2-0.1,0.5
			c0,0.2-0.1,0.4-0.1,0.5c0,0-0.2,0.1-0.5,0.3c-0.3,0.2-0.5,0.3-0.6,0.4c-0.1,0-0.3,0.2-0.7,0.4c-0.4,0.2-0.6,0.3-0.7,0.4
			c-0.1,0.1-0.5,0.3-1,0.7c-0.6,0.4-0.9,0.6-1.1,0.7c0,0-0.1,0.1-0.2,0.2c-0.1,0.1-0.2,0.1-0.2,0.1c-0.1,0.1-0.3,0.2-0.7,0.4
			c-0.4,0.2-0.6,0.3-0.7,0.3c0,0-0.1,0.1-0.2,0.2c-0.1,0.1-0.1,0.1-0.1,0.2c0,0,0,0.1,0,0.1c0,0,0.1,0.1,0.1,0.1
			c0.1,0,0.4,0,0.8,0.1c0.4,0,0.7,0.1,0.8,0.1c0.1,0,0.3-0.1,0.5-0.2c0.3-0.1,0.4-0.1,0.5-0.2c0,0,0.1,0,0.2-0.1
			c0.1-0.1,0.2-0.2,0.2-0.2l3.5-0.7c0,0,0-0.1,0.1-0.2c0.1-0.1,0.2-0.1,0.2-0.2c0,0,0.2,0,0.4-0.1 M70.2,23.6c0,0-0.1,0.2-0.2,0.3
			c-0.1,0.2-0.1,0.3-0.1,0.3c0,0,0.2,0,0.3,0.1 M33.6,53.9c0.1,0.1,0.1,0.2,0.2,0.2c0,0,0.1,0.2,0.2,0.5c0.1,0.3,0.1,0.5,0.2,0.6
			c0,0.1,0.1,0.2,0.2,0.4c0.1,0.2,0.1,0.3,0.2,0.4c0.1,0.1,0.2,0.3,0.4,0.6c0.2,0.3,0.3,0.4,0.3,0.5c0,0,0.3,0,0.8,0.1
			c0.5,0.1,0.8,0.2,1,0.2h0.5H38c0.1,0,0.3-0.1,0.6-0.2C38.9,57,39,57,39.1,57c0,0,0-0.2,0.1-0.3c0.1-0.2,0.1-0.4,0.2-0.6
			c0.1-0.2,0.2-0.4,0.2-0.6c0.1-0.2,0.1-0.3,0.1-0.3c0,0,0.2-0.2,0.4-0.3c0.2-0.2,0.3-0.3,0.4-0.4v-0.7c0-0.4,0-1,0.1-1.7
			c0-0.7,0.1-1.4,0.1-2.1c0-0.7,0.1-1.3,0.1-1.8c0-0.5,0-0.8,0-0.8c0-0.1,0-0.4,0.1-0.8c0.1-0.4,0.1-0.8,0.2-1.2
			c0.1-0.4,0.1-0.8,0.2-1.2c0.1-0.4,0.2-0.6,0.2-0.8c0,0,0.1,0,0.2-0.1c0.1-0.1,0.1-0.2,0.1-0.2V43c0-0.3-0.1-0.4-0.2-0.4
			c-0.1,0-0.2-0.1-0.2-0.5c0-0.1,0-0.2,0.1-0.4c0-0.1,0.1-0.3,0.2-0.5c0.1-0.3,0.2-0.4,0.2-0.5c0-0.1,0.1-0.4,0.2-0.9
			c0.1-0.4,0.1-0.8,0.1-0.9c0,0,0-0.2,0.1-0.5c0-0.3,0.1-0.6,0.1-0.9c0-0.3,0.1-0.6,0.1-0.9c0-0.3,0.1-0.4,0.1-0.5
			c0,0,0-0.2,0.1-0.5c0-0.3,0.1-0.5,0.1-0.8c0-0.3,0.1-0.5,0.1-0.8c0-0.2,0.1-0.4,0.1-0.4l1.3-7.3v-1.4c0-0.1,0-0.3-0.1-0.7
			c-0.1-0.4,0.5-5.1,0.4-5.2c0-0.1-0.2-0.3-0.3-0.7c-0.2-0.4-0.3-0.6-0.4-0.7c-0.1-0.2-0.2-0.4-0.4-0.7c-0.2-0.3-0.3-0.4-0.3-0.4
			c0-0.1-0.2-0.2-0.5-0.2c-0.3-0.1-0.5-0.1-0.6-0.2h-1.1h-1c0,0-0.2,0-0.3,0.1c-0.2,0.1-0.3,0.2-0.4,0.3c-0.1,0.1-0.3,0.2-0.6,0.4
			c-0.3,0.2-0.4,0.3-0.5,0.3c-0.1,0.1-0.2,0.3-0.4,0.5c-0.2,0.3-0.3,0.4-0.4,0.5c0,0.1,0,0.3-0.1,0.5c-0.1,0.3-0.2,0.4-0.2,0.5
			c0,0.2-0.8,5-0.8,5.5c-0.1,0.5-0.1,0.7-0.1,0.8c0,0.1-0.1,0.3,0,0.7c0,0.4,0,0.6,0,0.7c0,0.1-1.4,6.2-1.5,6.7
			c-0.1,0.5-0.1,0.8-0.2,0.9c0,0-0.1,0.2-0.2,0.3c-0.1,0.2-0.2,0.3-0.2,0.3v1.4c0,0.1,0,0.3,0,0.6c0,0.3-0.1,0.6-0.1,0.9
			c0,0.3-0.1,0.6-0.1,0.8c0,0.3-0.1,0.4-0.1,0.5c0,0.1,0,0.3-0.1,0.6c-0.1,0.3-0.2,0.6-0.2,1c-0.1,0.4-0.1,0.7-0.2,1
			C33,42.5,33,42.7,33,42.8c0,0.1,0,0.4-0.1,0.8c0,0.4-0.1,0.8-0.1,1.2c0,0.4-0.1,0.9-0.1,1.3c0,0.4,0,0.8,0,0.9c0,0,0,0.3,0,0.7
			c0,0.4,0,0.8,0,1c0,0.2,0,0.6,0.1,1.4c0,0.1,0,0.4,0.1,0.7c0.1,0.4,0.1,0.7,0.2,1.1c0.1,0.4,0.1,0.7,0.2,1.1
			c0.1,0.3,0.1,0.6,0.2,0.7C33.4,53.8,33.5,53.8,33.6,53.9z M66,42c0,0.1,0.1,0.2,0.3,0.2c0.2,0.1,0.3,0.1,0.4,0.2v-0.7h-0.9
			C65.8,41.8,65.9,41.9,66,42z"/>
		<path class="st1" d="M57.6,46.7c0-0.1,0.2-0.3,0.6-0.7c0.4-0.4,0.6-0.6,0.8-0.8c0.1-0.1,0.3-0.2,0.5-0.4c0.3-0.2,0.4-0.3,0.5-0.3
			c0.1,0,0.3-0.1,0.6-0.2c0.3-0.1,0.5-0.2,0.5-0.2c0.1,0,0.2,0,0.2-0.1c0.1-0.1,0.1-0.2,0.2-0.2c0-0.2,0-0.5-0.1-1
			c-0.1-0.5-0.1-0.9-0.1-1c0,0-0.1,0-0.1,0c0,0-0.1,0-0.1,0C61,41.9,60.9,42,60.8,42c-0.1,0-0.3,0.1-0.6,0.2
			c-0.3,0.1-0.5,0.2-0.5,0.2c0,0-0.2,0.2-0.3,0.4c-0.2,0.2-0.3,0.3-0.4,0.3c-0.1,0.1-0.3,0.2-0.6,0.4c-0.3,0.2-0.6,0.3-0.9,0.5
			c-0.3,0.2-0.6,0.3-0.8,0.4c-0.3,0.1-0.4,0.2-0.5,0.2h-1h-1.1c-0.2-0.2-0.3-0.3-0.3-0.4c-0.1,0-0.2-0.2-0.4-0.4
			c-0.2-0.2-0.3-0.4-0.5-0.7c-0.2-0.2-0.4-0.5-0.6-0.7C52.1,42.2,52,42.1,52,42v-0.3v-0.3c0-0.1,0.1-0.2,0.2-0.4
			c0.1-0.2,0.1-0.3,0.2-0.3c0.1,0,0.4-0.2,0.8-0.5c0.4-0.3,0.8-0.5,1-0.6c0.1,0,0.3-0.2,0.7-0.3c0.4-0.2,0.6-0.3,0.7-0.3
			c0.1-0.1,0.3-0.3,0.7-0.5c0.4-0.3,0.6-0.4,0.7-0.5l0.4-0.4c0,0,0.2,0,0.5-0.1c0.3-0.1,0.5-0.2,0.6-0.2c0,0,0.2-0.1,0.3-0.2
			c0.2-0.1,0.3-0.1,0.3-0.2c0.1,0,0.3-0.2,0.6-0.4c0.3-0.2,0.5-0.3,0.5-0.4c0.1,0,0.3-0.1,0.6-0.2c0.3-0.1,0.5-0.1,0.5-0.2
			c0.1,0,0.2-0.2,0.4-0.3c0.2-0.2,0.3-0.3,0.3-0.4h-0.2h-0.1c-0.2,0-0.4,0.1-0.8,0.2c-0.4,0.1-0.6,0.1-0.7,0.1
			c-0.1,0-0.3,0.2-0.7,0.4c-0.4,0.2-0.6,0.3-0.7,0.4h-0.3H58c0,0-0.1,0-0.2-0.1c-0.1-0.1-0.1-0.2-0.1-0.2v-0.6v-0.5
			c0-0.1,0.2-0.2,0.4-0.4c0.2-0.2,0.3-0.3,0.4-0.4c0,0,0-0.2,0-0.4c0-0.2,0-0.4,0-0.7c0-0.2,0-0.4,0-0.7c0-0.2,0-0.4,0.1-0.4
			c0-0.1,0.2-0.3,0.6-0.5c0.3-0.3,0.6-0.4,0.8-0.5c0.1,0,0.3-0.1,0.7-0.2c0.4-0.1,0.6-0.1,0.7-0.2c0.1,0,0.2-0.2,0.4-0.4
			c0.2-0.2,0.3-0.3,0.3-0.4c0.1-0.1,0.3-0.2,0.5-0.4c0.3-0.2,0.4-0.3,0.5-0.3c0.1-0.1,0.4-0.2,0.9-0.4c0.5-0.2,0.8-0.3,0.9-0.4
			c0.1,0,0.2-0.2,0.4-0.3c0.2-0.2,0.3-0.3,0.3-0.4h-0.2h-0.1c-0.1,0-0.3,0-0.5,0.1c-0.2,0.1-0.5,0.2-0.8,0.2
			c-0.3,0.1-0.5,0.1-0.8,0.2c-0.3,0.1-0.4,0.1-0.5,0.1h-0.3h-0.3c-0.1,0-0.2-0.2-0.4-0.3c-0.2-0.2-0.3-0.3-0.4-0.4v-0.1v-0.2
			c0.1-0.2,0.2-0.4,0.4-0.8c0.2-0.4,0.3-0.6,0.3-0.6c0,0,0.3-0.2,0.7-0.3c0.1,0,0.2-0.2,0.4-0.4c0.2-0.2,0.3-0.3,0.3-0.4
			c0.1,0,0.3-0.2,0.7-0.3c0.4-0.2,0.6-0.3,0.7-0.4c0.1,0,0.2-0.2,0.2-0.5c0.1-0.3,0.1-0.5,0.2-0.6v-1.7c0.1,0,0.3-0.1,0.5-0.2
			c0.3-0.1,0.4-0.1,0.5-0.2l0.3-0.3c0,0,0.2-0.1,0.3-0.2c0.2-0.1,0.3-0.1,0.4-0.2c0,0,0.2-0.1,0.5-0.2c0.3-0.1,0.5-0.1,0.6-0.1
			c0,0,0-0.1,0.1-0.2c0.1-0.1,0.2-0.2,0.2-0.2c0.1,0,0.3-0.2,0.7-0.3c0.4-0.2,0.6-0.3,0.7-0.3c0.1,0,0.3-0.1,0.6-0.2
			c0.3-0.1,0.5-0.2,0.5-0.2c0.1,0,0.3-0.2,0.5-0.5c0.3-0.3,0.4-0.5,0.5-0.6c0,0,0.2,0,0.3-0.1c0.2-0.1,0.3-0.2,0.4-0.2
			c0,0,0.2-0.1,0.5-0.2c0.3-0.1,0.5-0.1,0.6-0.1c0,0,0-0.1,0.1-0.2c0.1-0.1,0.2-0.2,0.2-0.2c0,0,0.2-0.2,0.5-0.3
			c0.3-0.2,0.5-0.3,0.6-0.3c0,0,0-0.1,0.1-0.2c0.1-0.1,0.2-0.2,0.2-0.2c0.1,0,0.3,0,0.7-0.1c0.4-0.1,0.6-0.2,0.7-0.2
			c0.1,0,0.2-0.2,0.4-0.5c0.2-0.3,0.3-0.5,0.3-0.5c0,0,0.2-0.1,0.5-0.2c0.3-0.1,0.5-0.1,0.6-0.1c0.1,0,0.4-0.2,0.9-0.4
			c0.5-0.2,0.8-0.3,0.9-0.4c0,0,0.2,0,0.5-0.1c0.3-0.1,0.5-0.1,0.6-0.2c0.2-0.2,0.3-0.3,0.3-0.3c0-0.1,0.1-0.1,0.2-0.1
			c0.1,0,0.2,0,0.3,0c0.1,0,0.2,0,0.3,0c0.1,0,0.2,0,0.3,0.1c0.1,0,0.2,0,0.4,0.1c0.2,0.1,0.3,0.2,0.3,0.2c0,0,0.1,0.2,0.2,0.3
			c0.1,0.2,0.2,0.3,0.2,0.4v0.1v0.2c0,0-0.1,0-0.2,0.1c-0.1,0.1-0.1,0.2-0.2,0.2c-0.1,0.1-0.3,0.2-0.5,0.4c-0.3,0.2-0.4,0.3-0.5,0.3
			c0,0-0.2,0.1-0.5,0.2c-0.3,0.1-0.4,0.1-0.5,0.2c0,0-0.2,0-0.3,0.1c-0.2,0-0.4,0.1-0.6,0.1c-0.2,0-0.4,0.1-0.6,0.1
			c-0.2,0-0.3,0-0.3,0c0,0-0.1,0.1-0.2,0.2c-0.1,0.1-0.1,0.2-0.1,0.2c-0.1,0-0.3,0-0.6,0.1c-0.3,0.1-0.5,0.2-0.5,0.2
			c-0.1,0.1-0.3,0.4-0.7,0.8c-0.4,0.5-0.6,0.8-0.8,1c0,0-0.1,0.2-0.2,0.5c-0.1,0.3-0.1,0.5-0.2,0.6c0,0.2-0.1,0.7-0.2,1.4
			c-0.1,0.7-0.1,1.2-0.1,1.4c0,0-0.1,0.1-0.2,0.2c-0.1,0.1-0.1,0.1-0.2,0.1c-0.1,0.1-0.4,0.2-0.9,0.4c-0.5,0.2-0.8,0.3-0.9,0.3
			c-0.1,0-0.3,0.2-0.5,0.4c-0.3,0.2-0.4,0.3-0.5,0.4c-0.1,0-0.3,0-0.5,0.1c-0.3,0.1-0.4,0.2-0.5,0.2c0,0-0.2,0.1-0.4,0.2
			c-0.2,0.1-0.3,0.2-0.4,0.2c0,0-0.2,0.1-0.5,0.2c-0.3,0.1-0.5,0.1-0.6,0.2c0,0,0,0.1,0.1,0.3c0.1,0.1,0.2,0.2,0.2,0.3
			c0,0,0.1,0,0.2,0.1c0.1,0,0.1,0,0.2,0c0,0,0.2-0.1,0.3-0.3l2.1-1.1c0.1,0,0.4-0.2,0.9-0.3c0.5-0.2,0.8-0.3,0.9-0.4
			c0.1,0,0.3-0.1,0.5-0.3c0.3-0.2,0.4-0.3,0.5-0.4V23v0.9c0,0.1,0,0.3-0.1,0.7c-0.1,0.4-0.2,0.6-0.3,0.8c0,0.1-0.1,0.3-0.2,0.6
			c-0.1,0.3-0.1,0.4-0.2,0.5c-0.1,0.1-0.3,0.3-0.5,0.5c-0.3,0.3-0.4,0.4-0.5,0.5h1.5c0,0.1,0,0.2,0,0.4c0,0.2,0,0.3-0.1,0.3
			c0,0.1,0,0.3,0,0.6c0,0.3-0.1,0.6-0.1,1c0,0.4-0.1,0.7-0.1,1c0,0.3-0.1,0.5-0.1,0.6c0,0.2,0,0.5-0.1,1c0,0.5-0.1,1-0.1,1.5
			c0,0.5-0.1,1-0.1,1.5c0,0.5,0,0.8,0,1c-0.2,0.4-0.4,0.7-0.5,1.1c-0.1,0.4-0.2,0.7-0.3,1.1c0,0.1,0,0.4-0.1,0.9
			c-0.1,0.5-0.2,0.8-0.2,0.9L74,40.9c0,0-0.3,0.2-0.8,0.5c-0.5,0.3-0.8,0.5-1,0.6c0,0-0.2,0.1-0.4,0.2c-0.2,0.1-0.3,0.2-0.4,0.2
			l-0.7,0.7c0,0-0.2,0.1-0.4,0.3c-0.2,0.1-0.4,0.3-0.6,0.4c-0.2,0.2-0.4,0.3-0.7,0.5c-0.2,0.2-0.4,0.3-0.5,0.3c0,0-0.2,0-0.4,0.1
			c-0.2,0.1-0.3,0.2-0.4,0.2c0,0-0.2,0.2-0.5,0.4c-0.3,0.2-0.5,0.3-0.6,0.4c0,0-0.2,0-0.3,0.1c-0.2,0.1-0.3,0.2-0.3,0.2
			c0,0-0.1,0.1-0.2,0.2c-0.1,0.1-0.2,0.2-0.2,0.2c-0.1,0.1-0.4,0.3-0.8,0.5c-0.4,0.3-0.8,0.4-0.9,0.5c-0.1,0-0.2,0.1-0.4,0.2
			c-0.2,0.1-0.3,0.1-0.3,0.1c0,0-0.2,0.1-0.5,0.2c-0.3,0.1-0.5,0.2-0.6,0.2c0,0-0.2,0.1-0.3,0.2c-0.2,0.1-0.3,0.2-0.3,0.2
			c0,0-0.1,0-0.2,0c-0.1,0-0.2,0-0.2,0c0,0-0.2,0-0.3-0.1c0,0-0.2-0.2-0.3-0.4c-0.2-0.2-0.3-0.3-0.4-0.4H60h-0.2
			c-0.3,0.1-0.6,0.2-0.9,0.3c-0.3,0.1-0.6,0.3-0.9,0.4c0,0-0.1-0.2-0.2-0.3c-0.1-0.2-0.1-0.3-0.1-0.4v-0.5V46.7z M62.1,58.2
			c0-0.1,0.1-0.2,0.3-0.4c0.1-0.2,0.3-0.4,0.5-0.6c0.2-0.2,0.3-0.4,0.5-0.6c0.1-0.2,0.2-0.3,0.3-0.3c0,0,0.2,0,0.4-0.1
			c0.2-0.1,0.4-0.2,0.6-0.3c0.2-0.1,0.4-0.2,0.6-0.3c0.2-0.1,0.3-0.1,0.4-0.1c0.1-0.1,0.4-0.4,0.9-0.8c0.5-0.4,0.8-0.7,0.9-0.8
			c0.1,0,0.3-0.2,0.8-0.4c0.4-0.2,0.7-0.3,0.8-0.4c0,0,0.2-0.2,0.3-0.5c0.2-0.3,0.3-0.5,0.4-0.7v-0.2v-0.1c0,0.1,0,0.1-0.1,0.2
			c-0.1,0.1-0.2,0.1-0.2,0.2c-0.1,0.1-0.3,0.2-0.7,0.4c-0.4,0.2-0.6,0.3-0.7,0.4c0,0-0.1,0.1-0.2,0.1c-0.1,0.1-0.2,0.2-0.2,0.2
			c-0.1,0.1-0.3,0.3-0.6,0.4c-0.3,0.2-0.5,0.3-0.5,0.3c0,0.1-0.2,0.1-0.4,0c-0.2,0-0.3,0-0.4,0l-0.4,0.4c0,0-0.2,0.1-0.4,0.2
			c-0.2,0.1-0.3,0.2-0.4,0.2c-0.1,0.1-0.3,0.3-0.6,0.6c-0.3,0.3-0.5,0.5-0.6,0.6c-0.2,0.1-0.6,0.3-1.1,0.4c-0.6,0.2-0.9,0.3-1.1,0.4
			c0-0.1,0-0.2-0.1-0.4c-0.1-0.2-0.2-0.3-0.2-0.4c0,0-0.2-0.1-0.4-0.2c-0.2-0.1-0.3-0.1-0.4-0.2c0-0.1-0.1-0.2-0.2-0.4
			c-0.1-0.2-0.1-0.4-0.2-0.4c-0.1,0-0.4,0-0.8,0c-0.4,0.1-0.7,0.1-0.8,0c0,0-0.1,0-0.2-0.1c-0.1-0.1-0.1-0.2-0.1-0.2
			c0,0,0-0.2,0-0.5c0-0.3,0-0.5,0-0.6c0-0.1,0-0.3,0-0.6c0-0.2,0-0.4,0-0.4c0,0,0.1-0.2,0.3-0.3c0.2-0.2,0.4-0.3,0.5-0.4
			c0-0.1,0.2-0.2,0.5-0.4c0.3-0.2,0.6-0.4,0.9-0.6c0.3-0.2,0.6-0.4,0.9-0.6c0.3-0.2,0.5-0.3,0.6-0.4l0.8-0.8c0,0,0.2,0,0.3-0.1
			c0.2-0.1,0.3-0.2,0.4-0.2c0.1-0.1,0.4-0.3,0.7-0.5c0.3-0.2,0.7-0.5,1-0.7c0.4-0.2,0.7-0.5,1-0.7c0.3-0.2,0.5-0.4,0.7-0.5
			c0,0,0.1-0.1,0.2-0.2c0.1-0.1,0.2-0.2,0.2-0.2c0,0,0.2-0.1,0.4-0.3c0.2-0.1,0.4-0.3,0.7-0.5c0.2-0.2,0.5-0.3,0.7-0.5
			c0.2-0.1,0.4-0.2,0.5-0.3c0,0,0.2-0.1,0.4-0.2c0.2-0.1,0.3-0.2,0.4-0.2c0,0,0.2-0.1,0.4-0.4c0.1-0.1,0.4-0.3,0.9-0.6
			c0.5-0.3,0.9-0.5,0.9-0.6c0,0,0.2-0.1,0.4-0.4c0,0,0.2-0.1,0.4-0.2c0.2-0.1,0.3-0.2,0.4-0.2c0.1,0,0.3-0.2,0.6-0.4
			c0.3-0.2,0.5-0.3,0.6-0.4c0-0.1,0.1-0.1,0.3-0.1c0.1,0,0.2,0,0.3,0c0,0.2,0,0.6-0.1,1.3c0,0.6-0.1,1.1-0.1,1.3
			c0,0.1,0,0.2-0.1,0.5c-0.1,0.3-0.1,0.6-0.2,0.9c-0.1,0.3-0.2,0.6-0.2,0.9c-0.1,0.3-0.1,0.5-0.1,0.5c-0.1,0.1-0.2,0.5-0.2,1
			c-0.1,0.5-0.1,0.8-0.2,0.9c0,0.1,0,0.3,0,0.7c0,0.4-0.1,0.8-0.1,1.3c0,0.4-0.1,0.9-0.1,1.3c0,0.4-0.1,0.6-0.1,0.7
			c0,0.1,0,0.3-0.1,0.6c-0.1,0.3-0.2,0.5-0.2,0.6c0,0-0.1,0.1-0.2,0.1c-0.1,0.1-0.2,0.2-0.2,0.2c-0.2,0.2-0.6,0.5-1.1,0.9
			c-0.5,0.4-0.7,0.6-0.8,0.7c-0.1,0.1-0.3,0.1-0.5,0.3c-0.3,0.2-0.5,0.3-0.8,0.5c-0.3,0.2-0.5,0.3-0.8,0.5c-0.3,0.1-0.4,0.2-0.5,0.3
			l-0.4,0.4c0,0.1-0.2,0.2-0.5,0.4c-0.3,0.2-0.5,0.3-0.6,0.4c0,0.1,0,0.1-0.1,0.2c-0.1,0.1-0.2,0.2-0.2,0.2c-0.1,0-0.3,0.2-0.7,0.4
			c-0.4,0.2-0.6,0.3-0.7,0.4L63.9,59c0,0.1-0.2,0.1-0.4,0.2c-0.2,0.1-0.3,0.1-0.4,0.1h-0.4h-0.4c0-0.1-0.1-0.1-0.2-0.2
			c-0.1-0.1-0.1-0.1-0.1-0.2c0,0,0-0.1,0-0.2c0-0.1,0-0.2,0-0.2C62,58.6,62.1,58.4,62.1,58.2z M64.4,63.7c0.1-0.1,0.3-0.3,0.7-0.7
			c0.4-0.4,0.6-0.6,0.7-0.7c0,0,0.1-0.1,0.2-0.3c0.1-0.2,0.2-0.3,0.2-0.4c0-0.1,0.1-0.4,0.2-0.9c0.1-0.5,0.1-0.8,0.2-0.9
			c0,0,0-0.2,0-0.5c0-0.3,0-0.5,0-0.5c0-0.1,0.3-0.2,0.7-0.4c0.4-0.2,0.6-0.3,0.7-0.3c0,0,0.2-0.2,0.3-0.3c0.2-0.2,0.4-0.4,0.6-0.6
			c0.2-0.2,0.4-0.4,0.6-0.6c0.2-0.2,0.3-0.3,0.3-0.3c0,0,0.2-0.1,0.3-0.2c0.2-0.1,0.3-0.1,0.3-0.1c0.1,0,0.3-0.2,0.6-0.4
			c0.3-0.2,0.5-0.3,0.5-0.4h0.4h0.3c0,0,0.1,0.2,0.2,0.4c0.1,0.2,0.1,0.3,0.1,0.4c0.1,0.1,0.2,0.3,0.4,0.5c0.2,0.3,0.3,0.4,0.3,0.5
			l1.1,1.1c0.1,0.1,0.2,0.3,0.4,0.6c0.2,0.3,0.3,0.5,0.3,0.5c0,0.1-0.1,0.3-0.3,0.5c-0.2,0.3-0.3,0.4-0.4,0.5
			c-0.1,0-0.3,0.2-0.7,0.3c-0.4,0.2-0.6,0.3-0.7,0.3c-0.1,0-0.3,0.2-0.6,0.4c-0.3,0.2-0.6,0.4-1,0.7c-0.4,0.2-0.7,0.4-1,0.7
			c-0.3,0.2-0.5,0.4-0.6,0.4c-0.1,0-0.2,0.1-0.4,0.2c-0.2,0.1-0.3,0.1-0.4,0.1c0,0-0.2,0.1-0.5,0.2c-0.3,0.1-0.5,0.2-0.6,0.2
			c0,0-0.2,0-0.3,0.1c-0.2,0.1-0.3,0.2-0.3,0.2c-0.1,0.1-0.4,0.3-0.9,0.5c-0.5,0.3-0.8,0.4-0.9,0.5c-0.1,0-0.2,0-0.4-0.1
			c-0.2-0.1-0.3-0.2-0.4-0.2c0,0,0-0.2-0.1-0.3c-0.1-0.2-0.2-0.3-0.2-0.4v-0.2V63.7z M91,69.7c0-0.1,0.1-0.3,0.3-0.5
			c0.2-0.3,0.3-0.4,0.4-0.5c0,0,0.1-0.1,0.2-0.2c0.1-0.1,0.2-0.1,0.2-0.1c0.1,0,0.3-0.2,0.7-0.4c0.4-0.2,0.6-0.3,0.7-0.4
			c0,0,0.2-0.1,0.3-0.3l1.5-0.7l0.3-0.3c0-0.1,0.1-0.2,0.2-0.4c0.1-0.2,0.1-0.3,0.1-0.4c0,0,0-0.1,0-0.1c0,0,0-0.1,0-0.1
			c-0.1,0-0.3,0-0.5-0.1c-0.2-0.1-0.4-0.1-0.5,0c0,0-0.1,0.1-0.2,0.2c-0.1,0.1-0.1,0.2-0.2,0.2c-0.1,0-0.3,0.1-0.6,0.2
			c-0.3,0.1-0.5,0.2-0.5,0.2c-0.1,0-0.3,0.1-0.5,0.3c-0.3,0.2-0.4,0.3-0.5,0.4c0,0-0.2,0.1-0.5,0.2c-0.3,0.1-0.5,0.2-0.6,0.2
			c-0.1,0-0.3,0.1-0.5,0.3c-0.3,0.2-0.4,0.3-0.5,0.4c-0.1,0-0.3,0.2-0.7,0.4c-0.4,0.2-0.6,0.3-0.7,0.4c0,0-0.2,0.1-0.3,0.3
			c-0.1,0.1-0.3,0.2-0.7,0.4c-0.4,0.2-0.6,0.3-0.8,0.4c-0.1,0-0.3,0.1-0.5,0.2c-0.3,0.1-0.4,0.1-0.5,0.1h-0.4h-0.3
			c-0.1,0-0.2-0.2-0.4-0.3c-0.2-0.2-0.3-0.3-0.3-0.4c0,0-0.1-0.2-0.2-0.5c-0.1-0.3-0.1-0.5-0.1-0.6c0,0-0.1,0-0.2-0.1
			c-0.1-0.1-0.1-0.2-0.2-0.2c0,0-0.2,0-0.3-0.1c-0.2-0.1-0.3-0.2-0.3-0.2c-0.1-0.1-0.2-0.2-0.4-0.4c-0.2-0.2-0.3-0.3-0.3-0.4v-0.1
			v-0.2c0-0.1,0.2-0.3,0.3-0.5c0.2-0.3,0.3-0.4,0.4-0.5c0,0,0.1-0.1,0.2-0.2c0.1-0.1,0.1-0.1,0.2-0.1c0,0,0.2-0.1,0.4-0.2
			c0.2-0.1,0.3-0.2,0.4-0.2c0,0,0-0.1-0.1-0.2c-0.1-0.1-0.1-0.2-0.1-0.3c-0.1,0-0.3,0-0.6-0.1c-0.3-0.1-0.5-0.1-0.6-0.1
			c0,0-0.2,0.1-0.4,0.2c-0.2,0.1-0.5,0.2-0.8,0.4c-0.3,0.2-0.6,0.3-0.9,0.5c-0.3,0.2-0.5,0.3-0.7,0.4c-0.1,0-0.4,0.2-0.9,0.5
			c-0.5,0.3-0.8,0.5-0.9,0.6c-0.5,0.3-0.9,0.5-1.3,0.6c-0.4,0.1-0.8,0.2-1.4,0.2h-0.9c0,0,0-0.1-0.1-0.2c-0.1-0.1-0.2-0.1-0.2-0.2
			c-0.1-0.1-0.2-0.3-0.4-0.7c-0.2-0.4-0.3-0.6-0.4-0.7c-0.5,0.3-1,0.5-1.5,0.7c-0.5,0.2-1,0.3-1.6,0.3H70c0,0-0.1-0.1-0.2-0.3
			c-0.1-0.2-0.1-0.3-0.2-0.4v-0.1v-0.2c0.1,0,0.3-0.2,0.7-0.3c0.4-0.2,0.6-0.3,0.7-0.4c0,0,0.1-0.1,0.2-0.3c0.1-0.2,0.1-0.3,0.2-0.3
			c0,0,0.2-0.1,0.3-0.2c0.2-0.1,0.4-0.2,0.6-0.3c0.2-0.1,0.4-0.2,0.7-0.3c0.2-0.1,0.4-0.2,0.5-0.2c0.1,0,0.3-0.1,0.6-0.2
			c0.3-0.1,0.5-0.2,0.5-0.2c0,0,0.1-0.1,0.3-0.2c0.1-0.1,0.3-0.3,0.4-0.5c0.2-0.2,0.3-0.3,0.4-0.5c0.1-0.1,0.2-0.2,0.3-0.3
			c0,0,0.2,0,0.3-0.1c0.2-0.1,0.3-0.2,0.4-0.2c0.1,0,0.3-0.1,0.6-0.2c0.3-0.1,0.5-0.1,0.5-0.1c0.1,0,0.3-0.2,0.5-0.4
			c0.3-0.2,0.4-0.3,0.5-0.4c0,0,0.2-0.1,0.4-0.2c0.2-0.1,0.3-0.1,0.4-0.1c0,0,0-0.1,0.1-0.2c0.1-0.1,0.2-0.2,0.2-0.2
			c0,0,0.2,0,0.4-0.1c0.2-0.1,0.4-0.1,0.7-0.2c0.2-0.1,0.4-0.2,0.7-0.2c0.2-0.1,0.4-0.1,0.4-0.1c0,0,0.2-0.1,0.3-0.2
			c0.2-0.1,0.3-0.2,0.3-0.2c0.1,0,0.3-0.1,0.5-0.2c0.3-0.1,0.4-0.1,0.5-0.2h6.4h6.4c0.2,0,0.6,0,1.2,0.1c0.6,0,1.4,0.1,2.1,0.1
			c0.8,0,1.5,0.1,2.1,0.1c0.6,0,1.1,0.1,1.2,0.1h0.4h0.3c0.2,0,0.5,0,1.1-0.1c0.6-0.1,0.9-0.2,1-0.2c0-0.1,0.1-0.2,0.2-0.4
			c0.1-0.2,0.1-0.3,0.2-0.4c0.1-0.1,0.3-0.2,0.5-0.4c0.3-0.2,0.4-0.3,0.5-0.3v-2V52c0-0.1-0.1-0.4-0.2-0.9c-0.1-0.4-0.1-0.7-0.2-0.9
			c0,0,0-0.1-0.1-0.2c-0.1-0.1-0.2-0.2-0.2-0.2c-0.2-0.1-0.6-0.3-1-0.6c-0.4-0.3-0.7-0.4-0.8-0.5c-0.1,0-0.3,0-0.7-0.1
			c-0.4,0-0.8-0.1-1.2-0.1c-0.4,0-0.8-0.1-1.2-0.1c-0.4,0-0.6-0.1-0.7-0.1c-0.1,0-0.2,0-0.4-0.1c-0.2-0.1-0.3-0.2-0.4-0.2h-4.6
			c-0.1,0-0.2,0-0.5-0.1c-0.2,0-0.5-0.1-0.8-0.1c-0.3,0-0.6-0.1-0.8-0.1c-0.2,0-0.4-0.1-0.4-0.1h-9.9c0.1-0.1,0.3-0.3,0.5-0.5
			c0.3-0.2,0.4-0.4,0.5-0.5c0.1-0.1,0.3-0.3,0.7-0.5c0.4-0.3,0.6-0.4,0.7-0.5c0,0,0.1-0.2,0.1-0.4c0-0.2,0-0.3-0.1-0.3
			c-0.1,0-0.3,0.2-0.7,0.3c-0.4,0.2-0.6,0.3-0.7,0.4c-0.1,0-0.3,0.2-0.5,0.3c-0.3,0.2-0.4,0.3-0.5,0.3c-0.2,0.1-0.5,0.3-1.1,0.5
			c-0.5,0.3-0.9,0.4-1.1,0.5V47v-0.3c0-0.1,0-0.3,0.1-0.7c0.1-0.4,0.2-0.7,0.2-1.1c0.1-0.4,0.1-0.8,0.2-1.1c0.1-0.4,0.1-0.6,0.1-0.7
			v-0.7c0-0.1,0.1-0.3,0.2-0.7c0.1-0.4,0.2-0.6,0.2-0.7c0-0.1,0-0.3,0.1-0.7c0.1-0.4,0.1-0.8,0.2-1.2c0.1-0.5,0.2-0.9,0.2-1.3
			c0.1-0.4,0.1-0.7,0.2-1c0,0,0-0.2,0-0.5c0-0.3,0.1-0.5,0.1-0.8c0-0.3,0.1-0.5,0.1-0.8c0-0.2,0.1-0.4,0.1-0.5c0,0,0.1-0.2,0.2-0.3
			c0.1-0.2,0.2-0.3,0.2-0.3c0-0.1,0.1-0.3,0-0.6c0-0.3,0-0.5,0-0.5c0-0.2,0-0.5,0.1-1c0-0.5,0.1-0.9,0.1-1.4c0-0.5,0.1-0.9,0.1-1.4
			c0-0.4,0.1-0.7,0.1-0.8c0-0.1,0-0.3,0-0.5c0-0.3,0.1-0.5,0.1-0.8c0-0.3,0.1-0.6,0.1-0.9c0-0.3,0.1-0.5,0.1-0.6c0,0,0-0.2,0.1-0.4
			c0-0.2,0.1-0.4,0.1-0.7c0-0.2,0.1-0.5,0.1-0.7c0-0.2,0-0.3,0-0.4v-0.3c0-0.2,0-0.5,0-0.8c0-0.3,0-0.6,0-0.9c0-0.3,0-0.6,0-0.7
			c0-0.1,0-0.3,0-0.6c0-0.3,0-0.5,0-0.8c0-0.3,0-0.6,0-0.8c0-0.3,0-0.5,0-0.6c0,0,0-0.1-0.1-0.2c-0.1-0.1-0.2-0.1-0.2-0.2h-0.3
			c-0.1,0-0.3-0.1-0.6-0.2c-0.3-0.1-0.4-0.1-0.5-0.1c-0.1,0-0.2-0.2-0.4-0.3c-0.2-0.2-0.3-0.3-0.4-0.4v-0.2v-0.1
			c0.1-0.1,0.3-0.2,0.5-0.4c0.3-0.2,0.4-0.3,0.5-0.4c0.1,0,0.3-0.1,0.6-0.2c0.3-0.1,0.5-0.1,0.5-0.2c0.1,0,0.3-0.2,0.5-0.4
			c0.3-0.2,0.4-0.3,0.5-0.4c0.1-0.1,0.3-0.2,0.7-0.4c0.4-0.2,0.6-0.3,0.7-0.3c0.1,0,0.3-0.1,0.6-0.2c0.3-0.1,0.5-0.2,0.5-0.2
			c0.2,0,0.5-0.2,0.9-0.4c0.4-0.2,0.8-0.4,1.3-0.7c0.5-0.2,0.9-0.5,1.3-0.7c0.4-0.2,0.7-0.4,0.8-0.4c0,0.1,0,0.2,0.1,0.4
			c0.1,0.2,0.2,0.3,0.2,0.4c0,0,0.2,0.1,0.3,0.2c0.2,0.1,0.3,0.1,0.4,0.2h0.1h0.2c0,0,0.2,0,0.4-0.1c0.2-0.1,0.4-0.1,0.7-0.1
			c0.2,0,0.4-0.1,0.7-0.1c0.2-0.1,0.4-0.1,0.4-0.1h0.7c0.2-0.2,0.3-0.3,0.3-0.3c0.1-0.1,0.2-0.2,0.4-0.2c0.2-0.1,0.3-0.1,0.4-0.2
			h0.3h0.3c0.2,0.1,0.3,0.2,0.4,0.4v0.3v0.4c0,0.1-0.1,0.3-0.2,0.6c-0.1,0.3-0.2,0.4-0.2,0.5c0,0.1,0,0.3,0.1,0.5
			c0,0.3,0.1,0.4,0.1,0.5c0,0,0.1,0,0.3,0.1c0.1,0,0.2,0,0.3,0c0.1,0,0.4-0.2,0.9-0.4c0.5-0.2,0.8-0.3,0.9-0.3c0,0,0.2-0.1,0.4-0.2
			c0.2-0.1,0.4-0.1,0.7-0.2c0.2-0.1,0.5-0.2,0.7-0.2c0.2-0.1,0.3-0.1,0.4-0.1c0.1,0,0.3-0.2,0.7-0.4c0.4-0.2,0.6-0.3,0.7-0.4h0.9
			h0.9c0.1,0,0.2,0,0.2,0.1c0.1,0.1,0.1,0.2,0.2,0.3h2.8c0,0,0,0.1,0.1,0.2c0.1,0.1,0.2,0.1,0.2,0.1h1.1h1.1c0,0,0.1-0.1,0.2-0.2
			c0.1-0.1,0.2-0.2,0.2-0.2c0.1,0,0.3-0.1,0.7-0.2c0.4-0.1,0.6-0.2,0.7-0.2c0.1,0,0.3-0.1,0.5-0.2c0.3-0.1,0.4-0.1,0.5-0.2
			c0,0,0.2-0.1,0.3-0.2c0.2-0.1,0.3-0.2,0.4-0.2l0.1-0.1c0,0,0.1,0,0.2,0.1c0,0,0.1,0,0.2,0.1c0.1,0.1,0.1,0.1,0.2,0.2
			c0.1,0.1,0.2,0.2,0.2,0.4c0.1,0.2,0.1,0.3,0.1,0.4c0,0.1,0.1,0.3,0,0.7c0,0.4,0,0.6,0,0.7c0,0,0.1,0.1,0.2,0.2
			c0.1,0.1,0.2,0.1,0.2,0.2c0.1,0.1,0.2,0.3,0.2,0.6c0.1,0.3,0.1,0.4,0.1,0.5c0,0.1-0.1,0.2-0.3,0.4c-0.2,0.2-0.3,0.3-0.4,0.4
			c0,0-0.3,0.1-0.7,0.2c-0.4,0.1-0.6,0.1-0.7,0.2c0,0-0.2,0.2-0.3,0.4c-0.2,0.2-0.3,0.3-0.3,0.4c-0.2,0.1-0.5,0.3-1.1,0.7
			c-0.5,0.4-0.9,0.6-1.1,0.7h0.7h0.7c0.2,0,0.5-0.1,1-0.2c0.5-0.1,0.7-0.1,0.8-0.2c0,0,0.2-0.2,0.5-0.4c0.3-0.2,0.5-0.3,0.5-0.4
			c0.1,0,0.4-0.1,0.9-0.1c0.4,0,0.7-0.1,0.8-0.1c0,0.1,0,0.2-0.1,0.5c0,0.2-0.1,0.4-0.1,0.5c0,0-0.2,0.1-0.4,0.2
			c-0.2,0.1-0.3,0.1-0.4,0.2c0,0-0.2,0.2-0.3,0.4c-0.2,0.2-0.3,0.3-0.4,0.4c0,0-0.3,0.1-0.7,0.2c-0.4,0.1-0.6,0.1-0.7,0.2
			c0,0-0.2,0-0.3,0.1c-0.2,0.1-0.3,0.2-0.3,0.2l-0.4,0.4c0,0-0.2,0.2-0.5,0.3c-0.3,0.2-0.5,0.3-0.6,0.3c0,0,0,0.1-0.1,0.2
			c-0.1,0.1-0.2,0.1-0.2,0.1c-0.1,0-0.3,0.1-0.7,0.2c-0.4,0.1-0.6,0.2-0.7,0.2c0,0-0.1,0-0.2,0.1c-0.1,0.1-0.2,0.2-0.2,0.2
			c0,0.1-0.1,0.2-0.2,0.4c-0.1,0.2-0.1,0.3-0.2,0.4h0.7h0.7c0.2,0,0.5-0.2,1.1-0.3c0.6-0.2,0.9-0.3,1-0.4l1.1,1.1c0,0,0,0.1-0.1,0.2
			c-0.1,0.1-0.2,0.1-0.2,0.1c0,0-0.2,0.1-0.4,0.2c-0.2,0.1-0.3,0.2-0.4,0.2c-0.1,0.1-0.3,0.3-0.5,0.5c-0.3,0.3-0.4,0.4-0.5,0.5h0.7
			h0.7c0,0,0.2-0.1,0.6-0.2c0.4-0.1,0.8-0.3,1.2-0.4c0.4-0.2,0.9-0.3,1.3-0.5c0.4-0.2,0.8-0.3,1.1-0.4c0,0,0.2-0.1,0.4-0.2
			c0.2-0.1,0.3-0.2,0.4-0.2c0,0,0.2,0,0.4-0.1c0.2-0.1,0.4-0.1,0.7-0.2c0.2-0.1,0.4-0.2,0.7-0.2c0.2-0.1,0.4-0.1,0.4-0.2
			c0,0,0.2-0.1,0.3-0.3c0.1,0,0.3-0.1,0.5-0.2c0.3-0.1,0.4-0.1,0.5-0.1c0,0,0.1,0,0.2,0c0.1,0,0.1,0,0.2,0c0,0,0.2,0,0.3,0.1
			c0,0,0.1,0,0.2,0.1c0.1,0.1,0.1,0.2,0.1,0.2c0,0-0.1,0.1-0.2,0.2c-0.1,0.1-0.1,0.1-0.2,0.1c-0.1,0.1-0.3,0.2-0.6,0.4
			c-0.3,0.2-0.5,0.3-0.5,0.3c0,0-0.2,0.1-0.3,0.3c0,0-0.2,0.1-0.3,0.2c-0.2,0.1-0.4,0.1-0.6,0.2c-0.2,0.1-0.4,0.2-0.6,0.2
			c-0.2,0.1-0.3,0.1-0.3,0.1c0,0-0.2,0.1-0.3,0.3c-0.1,0.1-0.3,0.2-0.7,0.4c-0.4,0.2-0.6,0.3-0.7,0.3l-0.3,0.3c0,0,0,0.1,0,0.2
			c0,0.1,0,0.2,0,0.2h2.4c0.1,0,0.3,0.1,0.4,0.3v0.2v0.1l-1.8,2.1c0.1,0,0.2,0,0.4,0c0.2,0,0.3,0,0.4,0c0.1,0,0.3,0,0.5,0
			c0.2,0,0.4,0,0.4,0c0.2-0.2,0.3-0.3,0.3-0.3c0,0,0.2-0.1,0.4-0.2c0.2-0.1,0.5-0.1,0.8-0.2c0.3-0.1,0.5-0.2,0.8-0.2
			c0.2-0.1,0.4-0.1,0.5-0.1c0,0,0.2-0.1,0.4-0.2c0.2-0.1,0.3-0.2,0.4-0.2h0.3h0.3c0.1,0,0.2,0,0.2,0.1c0.1,0.1,0.1,0.2,0.2,0.2
			c-0.1,0.1-0.3,0.2-0.6,0.4c-0.3,0.2-0.5,0.4-0.8,0.6c-0.3,0.2-0.6,0.4-0.8,0.6c-0.3,0.2-0.5,0.3-0.6,0.4c0,0-0.2,0.2-0.5,0.4
			c-0.3,0.2-0.5,0.3-0.6,0.4c0,0-0.1,0.1-0.2,0.2c-0.1,0.1-0.1,0.1-0.1,0.2c0,0,0,0.2-0.1,0.4c0,0.2-0.1,0.4-0.1,0.7
			c0,0.2-0.1,0.4-0.1,0.7c0,0.2-0.1,0.4-0.1,0.4c-0.1,0.1-0.3,0.2-0.7,0.4c-0.4,0.2-0.6,0.3-0.7,0.4v0.3v0.4c0,0,0.1,0.1,0.2,0.2
			c0.1,0.1,0.1,0.1,0.2,0.1c0,0,0,0.1,0.1,0.1c0.1,0,0.2,0,0.2-0.1c0.1,0,0.3,0,0.7-0.1c0.4-0.1,0.6-0.2,0.7-0.2
			c0.2,0,0.5-0.1,1-0.2c0.5-0.1,0.7-0.1,0.8-0.1h0.3c0,0,0.2-0.1,0.4-0.2c0.2-0.1,0.3-0.1,0.4-0.1c0,0,0.1-0.1,0.3-0.1
			c0.2,0,0.3,0,0.3,0c0,0,0,0.2-0.1,0.4c-0.1,0.2-0.1,0.3-0.2,0.4c0,0-0.2,0.2-0.5,0.3c-0.3,0.2-0.5,0.3-0.6,0.4
			c-0.1,0-0.3,0.2-0.7,0.3c-0.4,0.2-0.6,0.3-0.7,0.3c0,0-0.1,0.1-0.2,0.2c-0.1,0.1-0.1,0.2-0.1,0.2c-0.1,0-0.3,0.2-0.6,0.3
			c-0.3,0.2-0.6,0.4-0.9,0.6c-0.3,0.2-0.6,0.4-0.9,0.5c-0.3,0.2-0.5,0.3-0.5,0.3c0,0-0.1,0.1-0.2,0.2c-0.1,0.1-0.1,0.2-0.1,0.2
			c-0.1,0-0.3,0.2-0.7,0.3c-0.4,0.2-0.6,0.3-0.7,0.3c0,0-0.1,0.1-0.2,0.2c-0.1,0.1-0.1,0.2-0.2,0.2l0.3,0.3h0.2h0.2
			c0.1,0,0.3-0.1,0.5-0.2c0.3-0.1,0.4-0.1,0.5-0.2c0,0,0.2-0.1,0.3-0.2c0.2-0.1,0.3-0.2,0.3-0.2c0,0,0.2,0,0.4-0.1
			c0.2-0.1,0.4-0.1,0.7-0.2c0.2-0.1,0.4-0.2,0.7-0.2c0.2-0.1,0.4-0.1,0.4-0.1c0,0,0.2-0.1,0.4-0.2c0.2-0.1,0.3-0.2,0.4-0.2h0.6h0.5
			c0.1,0,0.2,0.2,0.3,0.3c0.1,0.2,0.1,0.3,0.1,0.4c0,0-0.1,0.2-0.3,0.3c-0.2,0.2-0.3,0.3-0.4,0.4c0,0-0.3,0.2-0.7,0.3
			c-0.4,0.2-0.6,0.3-0.7,0.3c-0.1,0.1-0.3,0.2-0.6,0.4c-0.3,0.2-0.4,0.3-0.4,0.3c0,0.1,0.1,0.3,0.2,0.7c0.1,0.4,0.2,0.6,0.2,0.7v0.8
			v0.6c-0.1,0.2-0.4,0.4-0.8,0.8c-0.5,0.4-0.8,0.6-1,0.7l0.7,1.7c0.2,0,0.3,0.1,0.4,0.1c0.4,0,0.9-0.1,1.2-0.2
			c0.4-0.1-4.8,10.4-4.8,10.4l-0.4,0.4c-0.1,0-0.3,0.2-0.7,0.3c-0.4,0.2-0.6,0.3-0.7,0.3c0,0-0.1,0.1-0.2,0.2
			c-0.1,0.1-0.2,0.2-0.2,0.2c-0.2,0.1-0.4,0.3-0.8,0.6c-0.4,0.3-0.6,0.4-0.6,0.5c-0.1,0-0.3,0-0.6,0.1c-0.3,0.1-0.5,0.2-0.5,0.2
			c-0.1,0-0.3,0.1-0.5,0.2c-0.2,0.1-0.4,0.2-0.7,0.3c-0.2,0.1-0.5,0.2-0.6,0.3c-0.2,0.1-0.3,0.2-0.3,0.2c0,0-0.2,0.2-0.4,0.4
			c-0.2,0.2-0.3,0.3-0.4,0.3c-0.1,0.1-0.4,0.2-0.9,0.4c-0.5,0.2-0.8,0.3-0.9,0.3c-0.1,0-0.2,0.1-0.4,0.3c-0.2,0.1-0.4,0.3-0.7,0.4
			c-0.2,0.2-0.5,0.3-0.7,0.4c-0.2,0.1-0.3,0.2-0.4,0.3c-0.2,0.1-0.6,0.3-1,0.6c-0.4,0.3-0.7,0.4-0.8,0.5c0,0-0.2,0.1-0.5,0.2
			c-0.3,0.1-0.5,0.2-0.6,0.2c-0.1,0-0.2,0.1-0.5,0.2c-0.2,0.1-0.4,0.2-0.7,0.3c-0.2,0.1-0.4,0.2-0.6,0.3c-0.2,0.1-0.3,0.2-0.4,0.2
			c-0.1,0-0.4,0.2-0.9,0.6c-0.5,0.4-0.9,0.6-1.2,0.8c-0.1,0-0.2,0.1-0.4,0.3c-0.2,0.2-0.4,0.3-0.7,0.5c-0.3,0.2-0.5,0.4-0.8,0.5
			c-0.2,0.2-0.4,0.3-0.6,0.4c-0.1,0.1-0.3,0.3-0.7,0.6c-0.4,0.3-0.6,0.5-0.7,0.5c-0.1,0.1-0.4,0.2-0.9,0.4c-0.5,0.2-0.8,0.3-0.9,0.3
			c-0.4,0-0.6,0-0.7,0c-0.1,0-0.3,0-0.7-0.1c0,0-0.1-0.1-0.2-0.3C91.1,70.2,91,70.1,91,70l-0.1-0.1C90.9,69.8,91,69.8,91,69.7z"/>
		<path class="st2" d="M139.8,65.8c-0.1,0-0.2,0-0.2-0.1c-0.1-0.1-0.1-0.2-0.2-0.2v-0.4v-0.3c0,0,0.1-0.1,0.2-0.2
			c0.1-0.1,0.2-0.1,0.2-0.1c0-0.1,0.1-0.2,0.2-0.4c0.1-0.2,0.1-0.3,0.1-0.3c0,0,0-0.1,0-0.3c0-0.1,0-0.2,0-0.3c-0.1,0-0.4,0-0.7-0.1
			c-0.3-0.1-0.5-0.1-0.6,0c-0.1,0-0.2,0-0.4,0.1c-0.2,0.1-0.4,0.1-0.7,0.2c-0.2,0.1-0.5,0.2-0.7,0.2c-0.2,0.1-0.3,0.1-0.4,0.1
			c-0.1,0-0.4,0-0.9,0c-0.4,0-0.8,0-1.3,0c-0.4,0-0.9,0-1.3,0c-0.4,0-0.6,0-0.7,0c-0.1,0-0.5,0-1,0.1c-0.6,0.1-0.9,0.2-1.1,0.2
			c-0.1,0-0.2,0.1-0.4,0.2c-0.2,0.1-0.3,0.2-0.4,0.2l-2.5-2.5c0,0,0-0.1-0.1-0.1h-0.1c-0.1,0-0.2,0-0.2,0.1c0,0-0.2,0.1-0.3,0.3
			c-0.1,0-0.4,0.1-0.9,0.2c-0.4,0.1-0.8,0.1-0.9,0.1c0,0-0.2,0-0.3,0c-0.2,0-0.3,0-0.4,0c-0.1,0-0.3,0-0.7-0.1c0,0-0.1,0-0.2-0.1
			c-0.1-0.1-0.2-0.2-0.2-0.2V62v-0.4c0-0.1,0.1-0.2,0.2-0.4c0.1-0.2,0.2-0.3,0.2-0.3c0.1-0.1,0.3-0.3,0.7-0.7
			c0.4-0.4,0.6-0.6,0.7-0.8c0.1-0.1,0.4-0.3,0.7-0.6c0.4-0.3,0.6-0.5,0.7-0.5c0.1,0,0.3,0,0.7-0.1c0.4-0.1,0.6-0.2,0.7-0.2h0.4h0.3
			c0.2,0,0.4,0.1,0.8,0.2c0.4,0.1,0.6,0.1,0.6,0.1c0.1,0.1,0.2,0.2,0.3,0.4c0.1,0.2,0.1,0.3,0.1,0.4c0.1,0,0.4,0,0.8,0
			c0.4,0,0.8,0.1,1.2,0.1c0.4,0,0.8,0.1,1.2,0.1c0.4,0,0.6,0.1,0.8,0.1c0.1,0,0.3,0.2,0.7,0.4c0.4,0.2,0.6,0.3,0.7,0.3
			c0,0,0.2,0,0.6,0.1c0.3,0,0.7,0.1,1.1,0.1c0.4,0,0.8,0.1,1.3,0.1c0.4,0,0.7,0,1,0c0,0,0.2,0,0.5,0c0.3,0,0.5,0,0.6,0
			c0.1,0,0.3,0,0.6,0c0.3,0,0.4,0,0.5,0c0.3,0,0.6,0,1.1-0.1c0.4,0,0.9-0.1,1.3-0.1c0.4,0,0.8-0.1,1.2-0.1c0.4,0,0.6-0.1,0.7-0.1
			c0,0,0.2,0,0.5-0.1c0.3-0.1,0.6-0.2,0.9-0.3c0.3-0.1,0.7-0.2,1-0.3c0.3-0.1,0.6-0.2,0.8-0.3c0.1,0,0.3-0.2,0.7-0.4
			c0.4-0.2,0.6-0.3,0.7-0.4c0,0,0.2,0,0.5-0.1c0.3-0.1,0.5-0.2,0.6-0.2c0.1,0,0.3-0.2,0.8-0.5c0.4-0.3,0.7-0.5,1-0.6
			c0.3-0.2,0.7-0.4,1.3-0.8c0.5-0.4,0.8-0.6,0.9-0.6c0.2-0.1,0.4-0.4,0.7-0.7c0.3-0.3,0.6-0.6,1-1c0.3-0.3,0.6-0.7,0.9-1
			c0.3-0.3,0.5-0.5,0.6-0.6c0,0,0.2-0.3,0.5-0.9c0.3-0.6,0.5-1,0.6-1.2c0-0.1,0.1-0.3,0.2-0.5c0.1-0.3,0.1-0.4,0.1-0.5
			c0.1-0.2,0.2-0.6,0.2-1.1c0.1-0.5,0.1-0.9,0.2-1v-1.5v-1.3c0,0-0.1-0.2-0.2-0.4c-0.1-0.2-0.2-0.3-0.2-0.4c0-0.1,0-0.4-0.1-0.9
			c-0.1-0.5-0.2-0.8-0.2-0.9c0-0.1-0.1-0.3-0.3-0.5c-0.2-0.3-0.3-0.4-0.4-0.5c0,0,0-0.1-0.1-0.2c-0.1-0.1-0.2-0.2-0.2-0.2
			c0,0-0.2,0-0.4-0.1c-0.2-0.1-0.3-0.2-0.4-0.2c0,0,0-0.2-0.1-0.4c-0.1-0.2-0.2-0.3-0.2-0.4c0,0-0.2,0-0.4-0.1
			c-0.2-0.1-0.3-0.2-0.4-0.2c0,0-0.1-0.1-0.3-0.3c-0.1-0.1-0.3-0.3-0.4-0.5c-0.2-0.2-0.3-0.3-0.4-0.5c-0.1-0.1-0.2-0.2-0.3-0.2
			c-0.1-0.1-0.4-0.2-0.9-0.4c-0.5-0.2-0.8-0.3-0.9-0.3c-0.2,0-0.4-0.1-0.7-0.3c-0.3-0.2-0.6-0.3-0.9-0.5c-0.3-0.2-0.6-0.3-0.8-0.4
			c-0.2-0.1-0.4-0.2-0.4-0.2c-0.1,0-0.3-0.2-0.5-0.5c-0.3-0.3-0.4-0.5-0.5-0.5h-0.1H149c0,0-0.1,0.1-0.2,0.2
			c-0.1,0.1-0.2,0.2-0.2,0.2c-0.2,0-0.4,0.1-0.5,0.1c-0.1,0-0.3,0-0.5-0.1c-0.1,0-0.2-0.1-0.4-0.2c-0.2-0.1-0.3-0.2-0.3-0.2
			c-0.1,0-0.3,0-0.7-0.1c-0.4-0.1-0.7-0.2-1.1-0.2c-0.4-0.1-0.8-0.1-1.1-0.2c-0.3-0.1-0.5-0.1-0.6-0.1c-0.1,0-0.3-0.1-0.6-0.2
			c-0.3-0.1-0.5-0.2-0.5-0.2s-0.2,0-0.4-0.1c-0.2,0-0.4-0.1-0.7-0.1c-0.2,0-0.4-0.1-0.7-0.1c-0.2,0-0.4,0-0.4,0
			c-0.1,0-0.3-0.1-0.7-0.2c-0.4-0.1-0.6-0.2-0.7-0.2c0-0.2-0.1-0.3-0.1-0.3c0,0,0-0.2,0.1-0.3c0-0.1,0-0.2,0.1-0.4
			c0.1-0.2,0.2-0.3,0.2-0.4c0,0,0.1-0.1,0.2-0.2c0.1-0.1,0.1-0.1,0.2-0.1c0.1-0.1,0.2-0.2,0.4-0.2c0.2-0.1,0.3-0.1,0.3-0.2
			c0,0,0.2,0,0.5,0c0.3,0,0.5,0,0.6,0c0,0,0.1-0.1,0.2-0.3c0.1-0.2,0.1-0.3,0.2-0.3c0.1,0,0.3-0.1,0.6,0c0.3,0,0.5,0,0.5,0
			c0.1,0,0.2,0,0.4-0.1c0.2-0.1,0.3-0.2,0.4-0.2c0.1-0.1,0.2-0.2,0.4-0.4c0.2-0.2,0.3-0.3,0.3-0.4c0.1,0,0.4,0,0.7,0
			c0.4,0,0.6,0,0.7,0c0.2,0,0.4,0,0.8,0c0.4,0,0.6,0,0.6,0c0,0,0.2,0,0.3,0.1c0.2,0.1,0.3,0.2,0.4,0.2c0,0,0,0.1,0.1,0.2
			c0.1,0.1,0.2,0.2,0.2,0.2h0.4h0.3c0,0,0.1-0.2,0.2-0.4c0.1-0.2,0.2-0.3,0.2-0.4c0,0,0.2-0.1,0.5-0.2c0.3-0.1,0.5-0.1,0.6-0.2
			c0-0.1,0.1-0.2,0.2-0.4c0.1-0.2,0.1-0.3,0.1-0.4c0.1,0,0.4,0,0.9,0c0.5,0,0.8,0,0.9,0c0.2,0,0.6,0,1,0c0.4,0,0.7,0,0.7,0
			c0.1,0,0.3,0,0.5,0.1c0.3,0.1,0.4,0.2,0.5,0.2c0,0,0.2,0.1,0.4,0.3c0.2,0.1,0.4,0.3,0.7,0.5c0.2,0.2,0.4,0.3,0.7,0.5
			c0.2,0.1,0.4,0.2,0.4,0.3c0,0,0.2,0,0.5,0.1c0.3,0.1,0.5,0.2,0.6,0.2c0.1,0,0.2,0,0.4,0.1c0.2,0.1,0.3,0.2,0.4,0.2l1.4-1.4
			c0,0.1,0.2,0.2,0.3,0.3c0.2,0.1,0.3,0.1,0.4,0.1c0,0,0.2-0.1,0.3-0.3c0.2-0.2,0.3-0.3,0.3-0.4c0.1-0.2,0.2-0.5,0.4-1.1
			c0.2-0.6,0.3-0.9,0.3-1c0-0.1,0-0.3,0-0.6c0-0.3,0-0.6,0-0.8c0-0.1,0-0.3,0-0.6c0-0.3,0-0.5,0-0.5c0-0.1-0.3-0.3-0.7-0.7
			c-0.4-0.4-0.7-0.6-0.7-0.7c-0.1,0-0.2-0.2-0.4-0.5c-0.2-0.3-0.3-0.5-0.3-0.6c0,0-0.2-0.1-0.4-0.2c-0.2-0.1-0.3-0.1-0.4-0.2
			c-0.2-0.2-0.3-0.3-0.3-0.3c-0.1-0.1-0.2-0.2-0.4-0.2c-0.2-0.1-0.3-0.1-0.4-0.2c-0.1,0-0.4,0-0.9-0.1c-0.5-0.1-0.8-0.2-0.9-0.2
			c0,0-0.1-0.1-0.2-0.2c-0.1-0.1-0.2-0.2-0.2-0.2c-0.1,0-0.3-0.1-0.8-0.2c-0.4-0.1-0.7-0.2-1-0.2c-0.1,0-0.3,0-0.6-0.1
			c-0.3,0-0.6-0.1-0.9-0.1c-0.3,0-0.6-0.1-0.8-0.1c-0.3,0-0.4,0-0.5,0h-1.4c0,0-0.2-0.1-0.3-0.2c-0.2-0.1-0.3-0.2-0.4-0.2
			c-0.4,0-0.6-0.1-0.7-0.1c-0.1,0-0.2,0-0.4,0c-0.2,0-0.3,0-0.3,0c0,0-0.2,0.1-0.3,0.2c-0.2,0.1-0.3,0.2-0.3,0.2
			c-0.1,0-0.3,0-0.7,0.1c-0.4,0-0.8,0.1-1.2,0.1c-0.4,0-0.8,0.1-1.2,0.1c-0.4,0-0.6,0-0.7,0c-0.1,0-0.2,0-0.5,0.1
			c-0.2,0-0.4,0.1-0.7,0.1c-0.2,0-0.4,0.1-0.6,0.1c-0.2,0-0.3,0.1-0.4,0.1c-0.1,0-0.3,0-0.5,0.1c-0.3,0.1-0.6,0.2-0.9,0.3
			c-0.3,0.1-0.7,0.2-1,0.4c-0.3,0.1-0.6,0.2-0.8,0.3c0,0-0.2,0-0.3,0.1c-0.2,0.1-0.3,0.2-0.3,0.2c-0.1,0-0.3,0.1-0.6,0.2
			c-0.3,0.1-0.5,0.1-0.5,0.2c-0.1,0-0.2,0.2-0.4,0.4c-0.2,0.2-0.3,0.3-0.3,0.4c-0.1,0-0.3,0.1-0.7,0.2c-0.4,0.1-0.6,0.1-0.7,0.2
			c-0.1,0-0.3,0.2-0.7,0.6c-0.4,0.4-0.6,0.6-0.7,0.8c-0.1,0.1-0.3,0.4-0.6,0.8c-0.3,0.4-0.4,0.6-0.5,0.7c0,0-0.1,0.2-0.2,0.5
			c-0.1,0.3-0.2,0.5-0.2,0.6c0,0-0.1,0.1-0.3,0.2c-0.2,0.1-0.3,0.1-0.4,0.2c-0.1,0.1-0.3,0.3-0.5,0.5c-0.3,0.3-0.4,0.4-0.5,0.5
			c-0.1,0.1-0.2,0.3-0.4,0.5c-0.2,0.3-0.3,0.4-0.3,0.5c0,0.1-0.1,0.3-0.2,0.5c-0.1,0.3-0.1,0.4-0.1,0.5c0,0,0,0.3,0,0.7
			c0,0.4,0,0.7,0,0.9c0,0.1,0,0.3,0,0.8c0,0.4,0,0.7,0,0.8c0,0,0.1,0,0.2,0.1c0.1,0.1,0.1,0.2,0.1,0.2c0,0,0,0.2,0,0.4
			c0,0.2,0,0.4,0,0.7c0,0.2,0,0.4,0,0.7c0,0.2,0,0.4,0,0.4c0,0,0.1,0.2,0.3,0.6c0.2,0.4,0.3,0.6,0.4,0.8c0.1,0.1,0.2,0.3,0.4,0.6
			c0.2,0.3,0.3,0.4,0.3,0.5c0.1,0,0.3,0.1,0.6,0.2c0.3,0.1,0.5,0.1,0.5,0.2c0,0,0.1,0.2,0.2,0.4c0.1,0.2,0.2,0.3,0.2,0.4
			c0,0.1,0.3,0.2,0.7,0.4c0.4,0.2,0.6,0.3,0.7,0.4c0,0,0.1,0.1,0.2,0.3c0.1,0.2,0.1,0.3,0.1,0.4c0.2,0,0.5,0.1,1.1,0.2
			c0.5,0.1,0.9,0.2,1.1,0.2h0.4h0.3c0.1,0,0.3-0.1,0.7-0.2c0.4-0.1,0.6-0.2,0.7-0.2h0.7h0.7c0,0,0.2,0,0.5,0.1
			c0.3,0.1,0.5,0.2,0.6,0.3c0.1,0,0.4,0.2,0.9,0.4c0.5,0.2,0.8,0.3,0.9,0.3c0,0,0.2,0,0.4,0c0.3,0,0.5,0,0.8,0c0.3,0,0.5,0,0.7,0
			c0.3,0,0.4,0,0.5,0c0,0,0.2,0,0.3,0.1c0.2,0.1,0.3,0.2,0.4,0.3c0.2,0.2,0.3,0.3,0.3,0.3c0,0,0.2,0,0.3,0.1c0.2,0,0.4,0.1,0.6,0.1
			c0.2,0,0.4,0.1,0.6,0.1c0.2,0,0.3,0,0.3,0c0.1,0,0.3,0.1,0.5,0.2c0.3,0.1,0.4,0.2,0.5,0.2c0.1,0,0.4,0.2,0.9,0.5
			c0.4,0.3,0.8,0.4,0.9,0.5c0.2,0.1,0.7,0.5,1.4,1.1c0,0,0.1,0.2,0.1,0.3c0,0.2,0,0.3,0,0.4c0,0.1,0,0.2,0,0.4c0,0.2,0,0.3-0.1,0.3
			c0,0-0.1,0.1-0.3,0.2c-0.2,0.1-0.3,0.1-0.3,0.2c0,0-0.1,0.2-0.2,0.4c-0.1,0.2-0.2,0.3-0.2,0.4c-0.1,0.1-0.2,0.3-0.5,0.5
			c-0.2,0.2-0.4,0.4-0.7,0.7c-0.2,0.2-0.4,0.5-0.6,0.6c-0.2,0.2-0.3,0.3-0.4,0.3c-0.1,0.1-0.4,0.3-0.9,0.5c-0.5,0.2-0.9,0.4-1.1,0.5
			c0,0-0.2,0.1-0.6,0.2c-0.4,0.1-0.6,0.2-0.9,0.2c-0.1,0-0.4,0-0.9,0.1c-0.5,0.1-0.8,0.2-0.9,0.2c0,0-0.2,0.1-0.4,0.2
			c-0.2,0.1-0.3,0.2-0.4,0.2c-0.1,0-0.4,0.1-0.8,0.1c-0.4,0-0.8,0.1-1.3,0.1c-0.5,0-0.9,0.1-1.3,0.1c-0.4,0-0.7,0.1-0.9,0.1
			c0,0.1,0,0.2-0.1,0.4s-0.2,0.3-0.2,0.3c0,0-0.1,0.1-0.2,0.1h-0.1c0,0-0.1,0-0.1-0.1c-0.1,0-0.2-0.1-0.4-0.3
			c-0.2-0.2-0.3-0.3-0.3-0.3c-0.1-0.1-0.5-0.2-1-0.4c-0.5-0.2-0.9-0.3-1.1-0.3c0,0-0.2,0-0.4-0.1c-0.2,0-0.5-0.1-0.8-0.1
			c-0.3,0-0.5-0.1-0.8-0.1c-0.3,0-0.4-0.1-0.5-0.1c-0.1,0-0.3-0.1-0.5-0.2c-0.3-0.1-0.4-0.1-0.5-0.2c0,0-0.2-0.1-0.3-0.3
			c-0.1,0-0.2,0.1-0.4,0.2c-0.2,0.1-0.3,0.2-0.3,0.2c-0.1,0-0.4,0-0.7,0c-0.3,0-0.7,0-1.1,0.1c-0.4,0-0.8,0-1.1,0.1
			c-0.3,0-0.6,0-0.7,0c0,0,0-0.1,0-0.3c0-0.1,0-0.2,0.1-0.3c0,0,0-0.1,0.1-0.2c0.1-0.1,0.2-0.1,0.2-0.1c-0.2,0-0.5,0-1.1-0.1
			c-0.5-0.1-0.9-0.2-1.1-0.2c0,0-0.2-0.2-0.3-0.4c-0.2-0.2-0.3-0.3-0.3-0.3c0,0-0.2,0-0.4,0s-0.3,0-0.4,0c-0.1,0-0.3,0-0.6,0
			c-0.2,0-0.4,0-0.4,0c-0.1,0-0.3,0-0.5,0.1c-0.3,0.1-0.4,0.2-0.5,0.2c0,0-0.1,0.2-0.2,0.3c-0.1,0.2-0.1,0.3-0.1,0.4
			c0,0.1-0.1,0.4-0.2,1c-0.1,0.6-0.2,0.9-0.2,1.2v0.4v0.3c0,0,0.1,0.1,0.2,0.2c0.1,0.1,0.1,0.2,0.2,0.2c0,0,0.2,0.2,0.5,0.3
			c0.3,0.2,0.5,0.3,0.5,0.3c0,0.1,0.1,0.3,0.2,0.6c0.1,0.3,0.1,0.5,0.2,0.5c0,0.1,0.2,0.3,0.5,0.5c0.3,0.3,0.5,0.4,0.6,0.5
			c0,0,0.2,0.1,0.4,0.2c0.2,0.1,0.3,0.2,0.4,0.2v0.1v0.2c0,0-0.1,0.1-0.2,0.2c-0.1,0.1-0.2,0.1-0.2,0.1l-5.7,2.9c0,0,0,0.1-0.1,0.2
			c-0.1,0.1-0.2,0.1-0.2,0.2c-0.1,0-0.3,0.1-0.5,0.2c-0.3,0.1-0.4,0.1-0.5,0.1c-0.1,0-0.2,0.1-0.4,0.2c-0.2,0.1-0.3,0.2-0.4,0.2
			c-0.2,0.2-0.3,0.3-0.3,0.3c0,0-0.2,0.1-0.5,0.2c-0.3,0.1-0.5,0.1-0.6,0.1c-0.1,0-0.2,0.1-0.4,0.2c-0.2,0.1-0.3,0.2-0.4,0.2
			l-0.3,0.3c-0.1,0.1-0.3,0.2-0.6,0.4c-0.3,0.2-0.5,0.3-0.5,0.3h-0.3h-0.3c-0.1-0.1-0.2-0.3-0.3-0.7c-0.1-0.4-0.1-0.6-0.1-0.8
			c0.4-0.4,0.6-0.6,0.7-0.7c0-0.1,0.2-0.2,0.5-0.4c0.3-0.2,0.5-0.3,0.6-0.3c0.1-0.1,0.2-0.2,0.4-0.4c0.2-0.2,0.3-0.3,0.3-0.3
			c0,0,0.1,0,0.1-0.1c0-0.1,0-0.2,0-0.2c0-0.2,0-0.3-0.1-0.3c0-0.1-0.2-0.2-0.5-0.2c-0.3-0.1-0.4-0.1-0.5-0.2h-4.7
			c-0.1,0-0.2,0-0.4-0.1c-0.2-0.1-0.3-0.2-0.3-0.3c0-0.3-0.1-0.4-0.1-0.5c0-0.1,0-0.2,0-0.3c0-0.1,0-0.2,0-0.2
			c0-0.1,0.2-0.3,0.5-0.7c0.3-0.4,0.5-0.6,0.6-0.7c0.1-0.1,0.3-0.2,0.7-0.4c0.4-0.2,0.6-0.3,0.7-0.3c0.1,0,0.3-0.2,0.5-0.3
			c0.3-0.2,0.4-0.3,0.5-0.3c0,0,0.2-0.1,0.4-0.2c0.2-0.1,0.3-0.2,0.4-0.2c0.1,0,0.3-0.2,0.5-0.3c0.3-0.2,0.4-0.3,0.5-0.3
			c0,0,0.1-0.1,0.2-0.2c0.1-0.1,0.1-0.2,0.1-0.2c0-0.1,0-0.3,0-0.7c0-0.4,0-0.6,0-0.7c0,0,0.1-0.2,0.3-0.5c0.2-0.3,0.3-0.5,0.4-0.6
			c0,0,0.2-0.2,0.4-0.3c0.2-0.2,0.3-0.3,0.4-0.3c0,0,0-0.1,0-0.1c0,0-0.1-0.1-0.1-0.1c-0.1,0-0.4,0-0.7-0.1c-0.3,0-0.5-0.1-0.6-0.1
			c0,0-0.2,0.1-0.4,0.2c-0.2,0.1-0.3,0.2-0.4,0.2c-0.1,0-0.3,0.1-0.5,0.2c-0.3,0.1-0.4,0.1-0.5,0.2h-0.2H111c0,0-0.1-0.2-0.2-0.3
			c-0.1-0.2-0.1-0.3-0.1-0.4l-0.1-0.1c0,0,0-0.1,0.1-0.2c0.1-0.2,0.4-0.5,0.8-0.9c0.5-0.4,0.8-0.7,0.9-0.9c0.1,0,0.3-0.1,0.6-0.2
			c0.3-0.1,0.5-0.1,0.5-0.2c0,0,0.1-0.1,0.1-0.2c0-0.1,0-0.2,0-0.3c0,0,0-0.1,0-0.3c0-0.1-0.1-0.2-0.1-0.3c-0.1,0.1-0.3,0.2-0.7,0.4
			c-0.4,0.2-0.6,0.3-0.7,0.3c-0.1,0-0.3,0-0.7,0c-0.4,0-0.7,0-0.9,0c-0.1,0-0.4,0-0.7,0c-0.3,0-0.5,0-0.5,0l-0.7-0.7l1.4-1.4
			c0-0.1,0.1-0.2,0.2-0.4c0.1-0.2,0.1-0.3,0.1-0.4c0,0,0-0.1,0-0.2c0-0.1-0.1-0.2-0.1-0.3c-0.1,0-0.3,0-0.5-0.1
			c-0.2-0.1-0.4-0.1-0.5,0c0,0-0.2,0.1-0.5,0.3c-0.3,0.2-0.5,0.3-0.6,0.3c-0.2,0-0.4,0.1-0.5,0.1c-0.1,0-0.2,0-0.3,0
			c-0.1,0-0.2,0-0.3,0l-0.3-0.3v-0.2v-0.1c0.1-0.1,0.2-0.3,0.4-0.6c0.2-0.3,0.3-0.4,0.4-0.5c0.1-0.1,0.3-0.2,0.7-0.4
			c0.4-0.2,0.6-0.3,0.7-0.3c0.1,0,0.3-0.2,0.5-0.3c0.3-0.2,0.4-0.3,0.5-0.4c0.1-0.1,0.4-0.3,0.7-0.5c0.4-0.3,0.6-0.4,0.7-0.5
			c0,0,0.1,0,0.2-0.1c0.1-0.1,0.2-0.2,0.2-0.2h-0.4H111c-0.2,0-0.5,0.1-1,0.2c-0.5,0.1-0.7,0.1-0.8,0.2c0,0-0.1,0-0.3,0.1
			s-0.3,0.2-0.5,0.2c-0.2,0.1-0.4,0.1-0.6,0.2c-0.2,0.1-0.3,0.1-0.3,0.1c0,0-0.1,0-0.3,0c-0.1,0-0.2,0-0.3,0c-0.1,0-0.2,0-0.5-0.1
			c-0.1,0-0.2-0.2-0.4-0.3c-0.2-0.2-0.3-0.3-0.3-0.4c0-0.1,0.1-0.3,0.3-0.7c0.2-0.4,0.4-0.6,0.4-0.7c0,0,0-0.2,0.1-0.5
			c0.1-0.3,0.2-0.5,0.2-0.6c0,0,0.2-0.2,0.3-0.3c0.2-0.2,0.3-0.3,0.4-0.3c0,0,0.2-0.1,0.3-0.2c0.2-0.1,0.3-0.2,0.3-0.2
			c0.1-0.1,0.3-0.2,0.6-0.4c0.3-0.2,0.4-0.3,0.5-0.3l0.7-0.7c0-0.1,0-0.2-0.1-0.4c-0.1-0.2-0.1-0.3-0.1-0.3l-0.1-0.1
			c-0.2,0-0.5,0.1-1,0.2c-0.4,0.1-0.8,0.2-1.3,0.2c-0.4,0.1-0.8,0.1-1.1,0.2c-0.3,0.1-0.5,0.1-0.6,0.1c-0.1,0-0.2,0-0.4,0.1
			c-0.2,0.1-0.3,0.2-0.3,0.2v-3.9c0.1-0.1,0.3-0.3,0.5-0.5c0.3-0.3,0.4-0.4,0.5-0.5v-0.5v-0.6c0-0.1-0.1-0.3-0.2-0.5
			c-0.1-0.3-0.2-0.4-0.2-0.5c0-0.1-0.2-0.2-0.3-0.4c-0.2-0.2-0.3-0.3-0.3-0.3c-0.1,0-0.3,0-0.6,0c-0.3,0-0.5,0-0.5,0
			c0,0-0.1,0-0.2-0.1c-0.1-0.1-0.2-0.2-0.2-0.2c0-0.2,0-0.3,0-0.3c0,0,0-0.1-0.1-0.2c-0.1-0.1-0.2-0.2-0.2-0.2
			c0.1-0.1,0.3-0.3,0.5-0.5c0.3-0.3,0.4-0.4,0.5-0.5c0.1,0,0.2-0.1,0.3-0.1c0.2,0,0.3,0,0.4,0.1c0-0.1,0-0.4,0.1-0.9
			c0.1-0.4,0.1-0.7,0.2-0.9c0,0,0.1-0.2,0.3-0.3c0.2-0.2,0.3-0.3,0.4-0.4c0.1-0.1,0.3-0.2,0.5-0.4c0.3-0.2,0.4-0.3,0.5-0.3
			c0,0,0.2-0.1,0.4-0.2c0.2-0.1,0.5-0.1,0.7-0.2c0.2-0.1,0.5-0.2,0.7-0.2c0.2-0.1,0.3-0.1,0.4-0.1c0,0,0.1-0.1,0.2-0.2
			c0.1-0.1,0.2-0.2,0.2-0.2c0.1-0.1,0.4-0.2,0.9-0.4c0.5-0.2,0.8-0.3,0.9-0.3c0,0,0.2-0.1,0.4-0.2c0.2-0.1,0.3-0.2,0.4-0.2
			c0.1-0.1,0.3-0.2,0.5-0.2c0.3-0.1,0.4-0.1,0.5-0.2c0.2,0,0.7-0.1,1.4-0.2c0.7-0.1,1.2-0.1,1.4-0.1c0-0.1,0.2-0.2,0.3-0.4
			c0.2-0.2,0.3-0.3,0.4-0.3c0,0,0.2,0,0.3-0.1c0.2,0,0.4-0.1,0.6-0.1c0.2,0,0.4-0.1,0.6-0.1c0.2,0,0.3-0.1,0.3-0.1
			c0.1,0,0.3-0.2,0.7-0.4c0.4-0.2,0.6-0.3,0.7-0.4c0,0,0.2,0,0.5-0.1c0.3-0.1,0.5-0.2,0.6-0.2c0.2-0.2,0.3-0.3,0.3-0.3
			c0.1,0,0.3-0.1,0.5-0.2c0.3-0.1,0.4-0.2,0.5-0.2c0,0,0.2,0,0.4,0c0.2,0,0.4-0.1,0.7-0.1c0.2,0,0.4-0.1,0.7-0.1
			c0.2,0,0.4-0.1,0.4-0.1c0,0,0.2-0.1,0.3-0.2c0.2-0.1,0.3-0.2,0.4-0.2c0,0,0.2,0,0.4-0.1c0.2-0.1,0.4-0.2,0.7-0.2
			c0.2-0.1,0.5-0.1,0.7-0.2c0.2-0.1,0.3-0.1,0.4-0.1c0.1,0,0.2-0.1,0.4-0.2c0.2-0.1,0.3-0.2,0.3-0.2c0.1,0,0.3-0.1,0.7-0.2
			c0.4-0.1,0.6-0.1,0.7-0.1c0,0,0.2,0,0.4-0.1c0.2,0,0.5-0.1,0.7-0.1c0.2,0,0.5-0.1,0.7-0.1c0.2,0,0.3-0.1,0.4-0.1
			c0,0,0.2-0.1,0.4-0.2s0.3-0.2,0.4-0.2h0.7h0.7c0,0,0.1,0,0.2,0.1c0.1,0.1,0.1,0.1,0.1,0.2c0.1,0.1,0.2,0.3,0.2,0.7
			c0.1,0.4,0.1,0.6,0.2,0.8h0.1h0.2c0,0,0.2,0,0.4-0.1c0.2-0.1,0.4-0.2,0.7-0.2c0.2-0.1,0.4-0.1,0.7-0.2c0.2-0.1,0.4-0.1,0.4-0.1
			c0.1,0,0.3,0,0.8-0.1c0.4-0.1,0.9-0.1,1.4-0.2c0.5-0.1,0.9-0.2,1.4-0.2c0.4-0.1,0.7-0.1,0.8-0.2c0,0,0.2-0.1,0.3-0.2
			c0.2-0.1,0.3-0.2,0.3-0.2c0.2,0,0.5-0.1,1-0.2c0.5-0.1,0.7-0.1,0.8-0.1c0,0,0.3,0,0.8,0c0.5,0,0.8,0,1,0c0.1,0,0.4,0,0.9,0
			c0.4,0,0.7,0,0.9,0c0,0,0.1,0,0.2,0.1c0.1,0.1,0.2,0.1,0.2,0.2c0,0,0,0.2,0.1,0.4c0.1,0.2,0.2,0.3,0.2,0.4l0.7,0.7
			c0,0,0.1-0.1,0.2-0.2c0.1-0.1,0.2-0.1,0.2-0.2c0.1,0,0.2-0.1,0.4-0.2c0.2-0.1,0.3-0.1,0.3-0.1c0.1,0,0.4-0.1,0.9-0.2
			c0.5-0.1,0.8-0.2,0.9-0.2c0.1,0,0.3-0.1,0.5-0.3c0.3-0.2,0.4-0.3,0.5-0.3c0.4-0.1,0.8-0.1,1.1-0.2c0.3,0,0.6-0.1,0.9-0.1
			c0.3,0,0.6-0.1,0.7-0.1h0.2h0.2c0,0,0.2,0.1,0.3,0.2c0.2,0.1,0.3,0.2,0.3,0.2h4.7c0.1,0.1,0.3,0.3,0.5,0.5
			c0.2,0.3,0.4,0.4,0.5,0.5h0.2h0.2c0.2,0,0.6-0.1,1-0.2c0.4-0.1,0.7-0.2,0.7-0.2c0,0,0.1-0.1,0.2-0.2c0.1-0.1,0.2-0.2,0.2-0.2
			c0.5-0.1,0.8-0.1,0.9-0.1c0.1,0,0.4,0,0.8,0.1c0.1,0,0.2,0.2,0.4,0.5c0.2,0.3,0.3,0.5,0.3,0.6c0,0.1,0.2,0.3,0.5,0.5
			c0.3,0.3,0.5,0.4,0.5,0.5c0,0,0,0.2,0.1,0.5c0.1,0.3,0.2,0.5,0.2,0.6v0.3c0,0,0.1,0.2,0.3,0.3c0,0,0.1,0.1,0.1,0.2
			c0,0.1,0,0.2,0,0.2c0,0,0,0.1,0,0.2c0,0.1,0,0.1-0.1,0.1c0,0.1-0.2,0.3-0.5,0.5c-0.3,0.3-0.4,0.4-0.5,0.5c0,0-0.2,0.1-0.4,0.2
			c-0.2,0.1-0.3,0.1-0.4,0.1c0,0-0.1,0.1-0.2,0.2c-0.1,0.1-0.1,0.2-0.1,0.2c0,0-0.1,0-0.1,0.1v0.1c0,0.1,0,0.2,0.1,0.2
			c0.1,0,0.3-0.1,0.5-0.2c0.3-0.1,0.4-0.1,0.5-0.1c0,0,0.3-0.1,0.7-0.1c0.4,0,0.8,0,1,0c0.1,0,0.3,0,0.6,0c0.3,0,0.5,0,0.5,0.1
			l0.3,0.3c0.1-0.1,0.3-0.2,0.7-0.4c0.4-0.2,0.6-0.3,0.8-0.4h0.3c0.2,0,0.4-0.1,0.8-0.2c0.4-0.1,0.6-0.1,0.6-0.2
			c0,0,0.1-0.1,0.2-0.2c0.1-0.1,0.2-0.2,0.2-0.2c0.1,0,0.3-0.1,0.7-0.1c0.4,0,0.6,0,0.7,0c0,0.3-0.1,0.4-0.1,0.5
			c0,0.1-0.2,0.2-0.3,0.4c-0.2,0.2-0.3,0.3-0.4,0.4c0,0-0.2,0-0.3,0.1c-0.2,0.1-0.3,0.2-0.3,0.2c0,0-0.1,0.1-0.2,0.2
			c-0.1,0.1-0.2,0.2-0.2,0.2c0,0-0.2,0.1-0.3,0.2c-0.2,0.1-0.3,0.2-0.3,0.2c0,0-0.1,0.1-0.2,0.2c-0.1,0.1-0.2,0.2-0.2,0.2
			c-0.1,0-0.4,0.2-0.9,0.3c-0.5,0.2-0.8,0.3-0.9,0.4c0,0-0.1,0-0.2,0.1c-0.1,0.1-0.2,0.2-0.2,0.2c-0.1,0-0.3,0.2-0.7,0.3
			c-0.4,0.2-0.6,0.3-0.7,0.3c-0.1,0.1-0.3,0.2-0.5,0.4c-0.3,0.2-0.4,0.3-0.5,0.4l-0.3,0.3c0,0.1,0,0.2,0,0.4
			c0.1,0.2,0.1,0.3,0.1,0.3c0,0,0.1,0,0.3,0c0.1,0,0.2,0,0.3,0c0.2,0,0.6-0.1,1.2-0.2c0.6-0.1,0.9-0.1,1-0.2c0.1,0,0.2-0.1,0.4-0.2
			c0.2-0.1,0.3-0.2,0.3-0.2c0.1,0,0.2,0.2,0.4,0.3c0.2,0.2,0.3,0.3,0.4,0.4v0.3v0.4c0,0-0.1,0.1-0.2,0.2c-0.1,0.1-0.1,0.1-0.2,0.1
			h4.4c0,0,0,0.1,0,0.2c0,0.1-0.1,0.1-0.1,0.1c0,0.1-0.2,0.2-0.4,0.4c-0.2,0.2-0.3,0.3-0.4,0.3c0,0,0,0.2-0.1,0.4
			c-0.1,0.2-0.2,0.3-0.2,0.4c0,0-0.2,0.1-0.5,0.2c-0.3,0.1-0.5,0.1-0.6,0.2c-0.1,0.1-0.4,0.2-0.7,0.4c-0.4,0.2-0.6,0.3-0.7,0.4
			c0,0-0.1,0-0.2,0.1c-0.1,0.1-0.1,0.2-0.1,0.2s0,0.1,0.1,0.2c0.1,0.1,0.2,0.1,0.2,0.1c0.4,0,0.6,0.1,0.7,0.1c0.1,0,0.3,0,0.7-0.1
			c0.1,0,0.3-0.1,0.7-0.2c0.4-0.1,0.6-0.2,0.7-0.2h0.2h0.2c0,0,0.1,0,0.2,0.1c0.1,0.1,0.1,0.2,0.1,0.2v0.2v0.2
			c-0.1,0.1-0.3,0.3-0.5,0.5c-0.3,0.2-0.4,0.4-0.5,0.5c0,0-0.2,0.1-0.3,0.2c-0.2,0.1-0.3,0.2-0.3,0.2c-0.1,0-0.3,0.2-0.6,0.4
			c-0.3,0.2-0.5,0.3-0.5,0.3c-0.1,0-0.3,0.1-0.7,0.2c-0.4,0.1-0.6,0.2-0.7,0.2c-0.1,0-0.3,0.1-0.6,0.3c-0.3,0.1-0.6,0.3-0.9,0.4
			c-0.3,0.2-0.6,0.3-0.8,0.4c-0.2,0.1-0.4,0.2-0.5,0.3c-0.1,0-0.3,0.2-0.5,0.5c-0.3,0.3-0.4,0.5-0.5,0.6c0,0,0,0.1,0.1,0.2
			c0.1,0,0.3,0,0.6,0.1c0.3,0.1,0.5,0.1,0.6,0c0,0,0.2-0.1,0.4-0.2c0.2-0.1,0.3-0.2,0.4-0.2c0.1-0.1,0.3-0.2,0.6-0.2
			c0.3-0.1,0.5-0.1,0.5-0.1c0.4,0,1.1-0.1,2.3-0.1V35h3.9c0,0,0,0.2-0.1,0.3c0,0.2-0.1,0.3-0.1,0.3c0,0-0.2,0.1-0.3,0.2
			c-0.2,0.1-0.3,0.2-0.4,0.2c0,0-0.2,0-0.3,0c-0.2,0-0.3,0-0.3,0c-0.1,0-0.2,0.1-0.4,0.3c-0.2,0.2-0.3,0.3-0.3,0.4
			c0,0-0.2,0.2-0.5,0.3c-0.3,0.2-0.5,0.3-0.6,0.4c-0.1,0-0.2,0.1-0.4,0.2c-0.2,0.1-0.3,0.1-0.3,0.1c-0.1,0-0.2,0-0.4,0.1
			c-0.2,0.1-0.4,0.1-0.7,0.2c-0.2,0.1-0.5,0.2-0.7,0.2c-0.2,0.1-0.3,0.1-0.4,0.2c-0.1,0-0.2,0.1-0.4,0.3c-0.2,0.2-0.3,0.3-0.4,0.4
			c0,0,0,0.1,0.1,0.2c0,0.1,0.1,0.2,0.1,0.2h4.3c0,0,0,0.2-0.1,0.3c0,0.2-0.1,0.3-0.1,0.3c0,0.1-0.2,0.3-0.4,0.7
			c-0.2,0.4-0.3,0.6-0.4,0.7v0.1v0.2c0,0.1,0.1,0.3,0.2,0.6c0.1,0.3,0.2,0.4,0.2,0.5c0,0,0.1,0.1,0.3,0.3c0.2,0.2,0.3,0.3,0.4,0.4
			c0.1,0.1,0.3,0.2,0.6,0.4c0.3,0.2,0.5,0.3,0.5,0.3c0,0.2,0.1,0.3,0.1,0.3c0,0.1,0,0.2,0,0.2c0,0.1,0,0.1,0,0.2
			c0,0.1-0.2,0.2-0.3,0.4c-0.2,0.2-0.3,0.3-0.4,0.3v2.5c0.1,0,0.2,0,0.4,0.1c0.2,0.1,0.3,0.2,0.3,0.2c0.1,0,0.2,0.2,0.2,0.3
			c0.1,0.2,0.1,0.3,0.1,0.4c-0.1,0.4-0.2,0.6-0.3,0.7c0,0,0,0.1-0.1,0.2c-0.1,0.1-0.2,0.1-0.2,0.1c-0.1,0.1-0.3,0.2-0.5,0.4
			c-0.3,0.2-0.4,0.3-0.5,0.3h0.7c0.1,0,0.3,0.1,0.6,0.2c0.3,0.1,0.5,0.2,0.5,0.2c0,0,0.2,0.1,0.4,0c0.2,0,0.3,0,0.4,0
			c0.1,0,0.2,0.1,0.4,0.2c0.2,0.1,0.3,0.2,0.4,0.2c-0.1,0.1-0.2,0.2-0.4,0.4c-0.2,0.2-0.3,0.3-0.4,0.3c0,0-0.2,0.1-0.4,0.2
			c-0.2,0.1-0.3,0.2-0.4,0.2c0,0-0.1,0.1-0.3,0.2c-0.2,0.1-0.3,0.2-0.5,0.3c-0.2,0.1-0.4,0.2-0.6,0.3c-0.2,0.1-0.3,0.2-0.3,0.2
			c-0.1,0-0.2,0.1-0.4,0.2c-0.2,0.1-0.3,0.1-0.3,0.1c-0.1,0-0.3,0-0.5,0.1c-0.3,0.1-0.6,0.1-0.9,0.2c-0.3,0.1-0.6,0.2-0.9,0.2
			c-0.3,0.1-0.5,0.1-0.5,0.2c0,0-0.2,0.1-0.4,0.2c-0.2,0.1-0.3,0.2-0.4,0.2h-0.3c0,0-0.2,0.1-0.4,0.2c-0.2,0.1-0.3,0.2-0.4,0.2
			c0,0-0.1,0-0.2-0.1c-0.1-0.1-0.1-0.2-0.1-0.2c-0.1,0.1-0.3,0.4-0.7,0.7c-0.4,0.4-0.6,0.6-0.7,0.7c-0.1,0-0.4,0.1-0.9,0.2
			c-0.5,0.1-0.8,0.1-0.9,0.1c-0.1,0-0.3,0.1-0.5,0.2c-0.3,0.1-0.4,0.2-0.5,0.2c0,0-0.2,0.1-0.4,0.2c-0.2,0.1-0.3,0.2-0.4,0.2
			c-0.1,0-0.4,0.2-0.9,0.4c-0.5,0.2-0.8,0.3-0.9,0.4c0,0-0.2,0.1-0.4,0.2c-0.2,0.1-0.3,0.2-0.4,0.2c0,0-0.2,0.1-0.5,0.2
			c-0.3,0.1-0.5,0.1-0.6,0.1c-0.1,0-0.3,0.2-0.7,0.4c-0.4,0.2-0.6,0.3-0.7,0.4c-0.1,0-0.3,0.1-0.5,0.2c-0.3,0.1-0.4,0.1-0.5,0.1
			c-0.1,0-0.3,0.2-0.7,0.4c-0.4,0.2-0.6,0.3-0.7,0.4c-0.1,0-0.4,0.2-0.9,0.3c-0.5,0.2-0.8,0.3-0.9,0.4c0,0-0.2,0.1-0.3,0.3
			c-0.1,0-0.3,0.1-0.6,0.2c-0.3,0.1-0.5,0.1-0.5,0.1c-0.1,0-0.3,0.2-0.7,0.3c-0.4,0.2-0.7,0.4-1.1,0.6c-0.4,0.2-0.8,0.4-1.1,0.6
			c-0.3,0.2-0.5,0.3-0.6,0.3c-0.1,0-0.3,0-0.6,0.1c-0.3,0.1-0.5,0.2-0.5,0.2c-0.6,0.2-1.1,0.5-1.6,0.9c-0.5,0.4-1,0.7-1.6,0.9
			c-0.1,0-0.3,0-0.7,0.1c-0.4,0.1-0.6,0.2-0.7,0.2h-0.2H144l-0.3-0.3c0-0.1-0.1-0.2-0.2-0.4c-0.1-0.2-0.1-0.3-0.1-0.4H139.8z
			 M166,14.4h0.3V14L166,14.4z"/>
	</g>
	<g>
		<g>
			<g>
				<path class="st2" d="M11.9,106.8V91.4h1.5v15.4H11.9z"/>
				<path class="st2" d="M25.6,104.9c-0.5,0.7-1.1,1.2-1.9,1.6c-0.8,0.4-1.6,0.6-2.6,0.6c-1.7,0-3.1-0.6-4.2-1.7
					c-1.1-1.2-1.7-2.6-1.7-4.3c0-1.7,0.6-3.2,1.7-4.4c1.2-1.2,2.6-1.8,4.3-1.8c0.9,0,1.7,0.2,2.5,0.5c0.7,0.4,1.4,0.9,1.9,1.6v-1.9
					H27v11.6h-1.4V104.9z M25.6,100.9c0-1.2-0.4-2.3-1.3-3.2c-0.9-0.9-1.9-1.4-3-1.4c-1.2,0-2.3,0.5-3.2,1.4
					c-0.9,0.9-1.3,2.1-1.3,3.4c0,1.3,0.4,2.4,1.3,3.3c0.9,0.9,1.9,1.3,3.1,1.3c1.2,0,2.2-0.5,3.1-1.4
					C25.1,103.4,25.6,102.2,25.6,100.9z"/>
				<path class="st2" d="M29.4,95.1h1.4v1.3c0.5-0.5,1-0.9,1.6-1.2c0.6-0.3,1.3-0.4,2.1-0.4c0.8,0,1.6,0.2,2.3,0.5
					c0.7,0.3,1.2,0.8,1.6,1.4c0.3,0.4,0.5,0.9,0.6,1.5c0.1,0.6,0.2,1.4,0.2,2.5v6.1h-1.5v-6.5c0-1.4-0.3-2.4-0.8-3
					c-0.5-0.6-1.4-0.9-2.5-0.9c-0.7,0-1.3,0.1-1.8,0.4s-0.9,0.7-1.2,1.2c-0.2,0.3-0.3,0.7-0.4,1.1c-0.1,0.4-0.1,1.1-0.1,2.1v5.7
					h-1.4V95.1z"/>
				<path class="st2" d="M43.4,107.8c0.2,0.7,0.6,1.2,1.2,1.6c0.6,0.4,1.3,0.6,2.1,0.6c1.3,0,2.4-0.4,3.2-1.3
					c0.8-0.9,1.2-2.1,1.2-3.5v-0.3c-0.6,0.8-1.2,1.3-1.9,1.7c-0.7,0.4-1.5,0.6-2.4,0.6c-1.7,0-3.2-0.6-4.3-1.8
					c-1.1-1.2-1.7-2.6-1.7-4.4c0-1.7,0.6-3.2,1.7-4.3c1.1-1.2,2.5-1.7,4.2-1.7c1,0,1.8,0.2,2.5,0.5c0.7,0.4,1.3,0.9,1.9,1.7v-1.9
					h1.5v9.7c0,2-0.5,3.6-1.5,4.8c-1,1.1-2.4,1.7-4.2,1.7c-1.3,0-2.4-0.3-3.4-1c-0.9-0.6-1.5-1.5-1.8-2.6H43.4z M42.3,100.9
					c0,1.4,0.4,2.5,1.3,3.4c0.9,0.9,1.9,1.4,3.1,1.4c1.1,0,2.2-0.5,3-1.4c0.9-0.9,1.3-2,1.3-3.2c0-1.3-0.4-2.5-1.3-3.4
					c-0.9-0.9-1.9-1.4-3-1.4c-1.2,0-2.2,0.4-3.1,1.3C42.8,98.5,42.3,99.6,42.3,100.9z"/>
				<path class="st2" d="M54.8,95.1h1.5v6.2c0,1.6,0.3,2.7,0.8,3.4c0.5,0.7,1.4,1,2.5,1c0.7,0,1.3-0.1,1.8-0.4
					c0.5-0.3,0.9-0.7,1.2-1.2c0.2-0.3,0.3-0.7,0.4-1.1c0.1-0.4,0.1-1.1,0.1-2.2v-5.7h1.5v11.6H63v-1.3c-0.4,0.6-1,0.9-1.5,1.2
					c-0.6,0.2-1.2,0.4-2,0.4c-1.7,0-2.9-0.5-3.6-1.4c-0.7-0.9-1.1-2.4-1.1-4.5V95.1z"/>
				<path class="st2" d="M76.7,104.9c-0.5,0.7-1.1,1.2-1.9,1.6c-0.8,0.4-1.6,0.6-2.6,0.6c-1.7,0-3.1-0.6-4.2-1.7
					c-1.1-1.2-1.7-2.6-1.7-4.3c0-1.7,0.6-3.2,1.7-4.4c1.2-1.2,2.6-1.8,4.3-1.8c0.9,0,1.7,0.2,2.5,0.5c0.7,0.4,1.4,0.9,1.9,1.6v-1.9
					h1.4v11.6h-1.4V104.9z M76.7,100.9c0-1.2-0.4-2.3-1.3-3.2c-0.9-0.9-1.9-1.4-3-1.4c-1.2,0-2.3,0.5-3.2,1.4
					c-0.9,0.9-1.3,2.1-1.3,3.4c0,1.3,0.4,2.4,1.3,3.3c0.9,0.9,1.9,1.3,3.1,1.3c1.2,0,2.2-0.5,3.1-1.4
					C76.2,103.4,76.7,102.2,76.7,100.9z"/>
				<path class="st2" d="M82.4,107.8c0.2,0.7,0.6,1.2,1.2,1.6c0.6,0.4,1.3,0.6,2.1,0.6c1.3,0,2.4-0.4,3.2-1.3
					c0.8-0.9,1.2-2.1,1.2-3.5v-0.3c-0.6,0.8-1.2,1.3-1.9,1.7c-0.7,0.4-1.5,0.6-2.4,0.6c-1.7,0-3.2-0.6-4.3-1.8
					c-1.1-1.2-1.7-2.6-1.7-4.4c0-1.7,0.6-3.2,1.7-4.3c1.1-1.2,2.5-1.7,4.2-1.7c1,0,1.8,0.2,2.5,0.5c0.7,0.4,1.3,0.9,1.9,1.7v-1.9
					h1.5v9.7c0,2-0.5,3.6-1.5,4.8c-1,1.1-2.4,1.7-4.2,1.7c-1.3,0-2.4-0.3-3.4-1c-0.9-0.6-1.5-1.5-1.8-2.6H82.4z M81.4,100.9
					c0,1.4,0.4,2.5,1.3,3.4c0.9,0.9,1.9,1.4,3.1,1.4c1.1,0,2.2-0.5,3-1.4c0.9-0.9,1.3-2,1.3-3.2c0-1.3-0.4-2.5-1.3-3.4
					c-0.9-0.9-1.9-1.4-3-1.4c-1.2,0-2.2,0.4-3.1,1.3C81.8,98.5,81.4,99.6,81.4,100.9z"/>
				<path class="st2" d="M105.3,101.5H94.8c0.1,1.3,0.5,2.3,1.4,3.1c0.8,0.8,1.8,1.2,3.1,1.2c0.9,0,1.7-0.2,2.3-0.7
					c0.7-0.4,1.2-1.1,1.6-1.9h1.7c-0.5,1.3-1.3,2.3-2.2,3c-1,0.7-2.1,1-3.4,1c-1.7,0-3.1-0.6-4.3-1.8c-1.2-1.2-1.7-2.7-1.7-4.3
					c0-1.8,0.6-3.2,1.7-4.4c1.1-1.2,2.6-1.7,4.4-1.7c1.7,0,3.2,0.6,4.3,1.8c1.1,1.2,1.6,2.8,1.6,4.7V101.5z M103.6,100.2
					c-0.3-1.3-0.8-2.3-1.5-2.9c-0.8-0.7-1.7-1-2.9-1c-1.1,0-2.1,0.4-2.9,1.1c-0.8,0.7-1.3,1.7-1.4,2.9H103.6z"/>
				<path class="st2" d="M112.3,103.1h1.5v0c0,0.7,0.2,1.3,0.6,1.8c0.4,0.5,0.9,0.7,1.5,0.7c0.6,0,1.1-0.2,1.4-0.6
					c0.4-0.4,0.6-0.8,0.6-1.4c0-0.6-0.2-1-0.5-1.3c-0.3-0.3-0.8-0.7-1.6-1c-1.3-0.5-2.1-0.9-2.5-1.4c-0.4-0.5-0.6-1.1-0.6-1.9
					c0-0.9,0.3-1.7,1-2.3c0.7-0.6,1.4-1,2.4-1c1,0,1.8,0.3,2.3,0.8c0.6,0.6,0.9,1.4,0.9,2.4h-1.6c0-0.6-0.2-1-0.5-1.3
					c-0.3-0.3-0.7-0.5-1.3-0.5c-0.5,0-0.9,0.2-1.2,0.5c-0.3,0.3-0.5,0.7-0.5,1.2c0,0.3,0.1,0.6,0.2,0.9c0.1,0.2,0.4,0.4,0.7,0.6
					c0.3,0.2,0.7,0.3,1.2,0.5c0.5,0.2,0.9,0.3,1.1,0.4c0.7,0.3,1.2,0.7,1.6,1.2c0.3,0.5,0.5,1.2,0.5,2c0,1-0.3,1.8-1,2.5
					c-0.7,0.7-1.6,1-2.6,1c-1.1,0-2-0.4-2.6-1.1C112.7,105.3,112.4,104.3,112.3,103.1z"/>
				<path class="st2" d="M130.7,98.7c-0.5-0.8-1-1.5-1.7-1.9c-0.7-0.4-1.4-0.6-2.3-0.6c-1.2,0-2.2,0.5-3,1.4c-0.8,0.9-1.2,2-1.2,3.4
					c0,1.3,0.4,2.5,1.2,3.4c0.8,0.9,1.9,1.3,3.1,1.3c0.9,0,1.7-0.2,2.4-0.7c0.7-0.4,1.2-1.1,1.6-1.9h1.6c-0.4,1.3-1.2,2.2-2.1,2.9
					c-1,0.7-2.1,1-3.4,1c-1.7,0-3.1-0.6-4.2-1.8c-1.2-1.2-1.7-2.6-1.7-4.3c0-1.7,0.6-3.2,1.8-4.4c1.2-1.2,2.6-1.8,4.3-1.8
					c1.3,0,2.4,0.3,3.3,1c1,0.7,1.7,1.6,2.2,2.9H130.7z"/>
				<path class="st2" d="M134.5,91.4h1.5v5.1c0.4-0.5,0.9-0.9,1.5-1.2c0.6-0.3,1.3-0.4,2-0.4c1.6,0,2.8,0.5,3.5,1.4
					c0.7,0.9,1.1,2.5,1.1,4.6v5.9h-1.5v-5.9c0-1.7-0.3-2.9-0.8-3.5c-0.5-0.7-1.3-1-2.5-1c-0.7,0-1.3,0.1-1.8,0.4
					c-0.5,0.3-0.9,0.7-1.2,1.2c-0.2,0.3-0.3,0.7-0.4,1.1c-0.1,0.4-0.1,1.1-0.1,2.1v5.7h-1.5V91.4z"/>
				<path class="st2" d="M145.9,101c0-1.7,0.6-3.2,1.7-4.4c1.2-1.2,2.5-1.8,4.1-1.8c1.7,0,3.1,0.6,4.3,1.8c1.2,1.2,1.8,2.6,1.8,4.3
					c0,1.7-0.6,3.2-1.7,4.4c-1.2,1.2-2.6,1.8-4.2,1.8c-1.7,0-3.1-0.6-4.3-1.8C146.5,104.1,145.9,102.7,145.9,101z M147.5,100.9
					c0,1.3,0.4,2.5,1.3,3.4c0.8,0.9,1.9,1.4,3.2,1.4c1.2,0,2.3-0.5,3.1-1.4c0.8-0.9,1.3-2,1.3-3.4c0-1.4-0.4-2.5-1.3-3.4
					c-0.8-0.9-1.9-1.3-3.2-1.3c-1.2,0-2.2,0.5-3,1.4C147.9,98.5,147.5,99.6,147.5,100.9z"/>
				<path class="st2" d="M159,101c0-1.7,0.6-3.2,1.7-4.4c1.2-1.2,2.5-1.8,4.1-1.8c1.7,0,3.1,0.6,4.3,1.8c1.2,1.2,1.8,2.6,1.8,4.3
					c0,1.7-0.6,3.2-1.7,4.4c-1.2,1.2-2.6,1.8-4.2,1.8c-1.7,0-3.1-0.6-4.3-1.8C159.5,104.1,159,102.7,159,101z M160.5,100.9
					c0,1.3,0.4,2.5,1.3,3.4c0.8,0.9,1.9,1.4,3.2,1.4c1.2,0,2.3-0.5,3.1-1.4c0.8-0.9,1.3-2,1.3-3.4c0-1.4-0.4-2.5-1.3-3.4
					c-0.8-0.9-1.9-1.3-3.2-1.3c-1.2,0-2.2,0.5-3,1.4C160.9,98.5,160.5,99.6,160.5,100.9z"/>
				<path class="st2" d="M172.6,106.8V91.4h1.5v15.4H172.6z"/>
			</g>
		</g>
		<g>
			<g>
				<path class="st2" d="M11.9,91.7V75.4h6v16.3H11.9z"/>
				<path class="st2" d="M20.9,91.7V80.1h5.4v1.6c0.5-0.7,1-1.2,1.6-1.5c0.6-0.3,1.2-0.5,2-0.5c1.2,0,2.2,0.4,2.9,1.1
					c0.7,0.7,1.1,1.8,1.1,3.1v7.7h-5.6v-5.8c0-0.6-0.1-1-0.2-1.2c-0.1-0.2-0.3-0.3-0.6-0.3c-0.3,0-0.6,0.1-0.7,0.4
					c-0.2,0.3-0.3,0.6-0.3,1.1v5.8H20.9z"/>
				<path class="st2" d="M37.3,91.7v-7.3h-1.6v-4.2h1.6v-3.8h5.6v3.8h1.6v4.2h-1.6v7.3H37.3z"/>
				<path class="st2" d="M59.2,86.8l-7.9,0V87c0,0.6,0.1,1,0.3,1.3c0.2,0.3,0.5,0.4,1,0.4c0.3,0,0.5-0.1,0.7-0.2
					c0.2-0.2,0.3-0.4,0.5-0.7l5.2,0.4c-0.5,1.3-1.2,2.2-2.3,2.9c-1.1,0.7-2.5,1-4.1,1c-0.9,0-1.7-0.1-2.5-0.4
					c-0.8-0.3-1.5-0.7-2.1-1.2c-0.7-0.6-1.2-1.3-1.6-2.1c-0.4-0.8-0.6-1.6-0.6-2.5c0-0.9,0.2-1.7,0.6-2.5c0.4-0.8,0.9-1.5,1.6-2.1
					c0.6-0.5,1.3-0.9,2.1-1.2s1.6-0.4,2.5-0.4c1.2,0,2.3,0.2,3.3,0.7c1,0.5,1.8,1.2,2.5,2.1c0.3,0.5,0.6,1,0.8,1.6
					c0.2,0.6,0.3,1.2,0.3,1.9c0,0.2,0,0.3,0,0.4S59.2,86.7,59.2,86.8z M51.3,84.3l2.5,0c0-0.4-0.1-0.8-0.3-1
					C53.3,83.1,53,83,52.6,83c-0.4,0-0.6,0.1-0.9,0.3C51.5,83.6,51.4,83.9,51.3,84.3z"/>
				<path class="st2" d="M61.2,91.7V80.1h5.4v1.6c0.5-0.7,1-1.2,1.6-1.5c0.6-0.3,1.3-0.5,2-0.5c0.1,0,0.2,0,0.3,0c0.1,0,0.1,0,0.2,0
					v5.6c-0.3-0.2-0.6-0.3-0.9-0.4c-0.3-0.1-0.5-0.1-0.7-0.1c-0.7,0-1.3,0.2-1.7,0.6c-0.4,0.4-0.6,0.9-0.6,1.6v4.6H61.2z"/>
				<path class="st2" d="M72.6,91.7V80.1H78v1.6c0.5-0.7,1-1.2,1.6-1.5c0.6-0.3,1.2-0.5,2-0.5c1.2,0,2.2,0.4,2.9,1.1
					c0.7,0.7,1.1,1.8,1.1,3.1v7.7H80v-5.8c0-0.6-0.1-1-0.2-1.2c-0.1-0.2-0.3-0.3-0.6-0.3c-0.3,0-0.6,0.1-0.7,0.4
					c-0.2,0.3-0.3,0.6-0.3,1.1v5.8H72.6z"/>
				<path class="st2" d="M96.1,91.7V90c-0.6,0.7-1.1,1.3-1.8,1.6c-0.6,0.4-1.3,0.5-2,0.5c-1.3,0-2.4-0.6-3.3-1.7
					c-0.9-1.1-1.3-2.6-1.3-4.4c0-1.9,0.4-3.4,1.3-4.5c0.9-1.1,2-1.7,3.4-1.7c0.7,0,1.4,0.2,1.9,0.5c0.6,0.3,1.1,0.8,1.6,1.4v-1.5
					h5.4v11.5H96.1z M93.1,85.9c0,0.5,0.1,0.9,0.4,1.2c0.3,0.3,0.6,0.5,1.1,0.5c0.4,0,0.8-0.1,1.1-0.5c0.3-0.3,0.4-0.7,0.4-1.2
					c0-0.5-0.1-0.9-0.4-1.2c-0.3-0.3-0.6-0.5-1.1-0.5c-0.4,0-0.8,0.2-1.1,0.5C93.2,85,93.1,85.4,93.1,85.9z"/>
				<path class="st2" d="M104.6,91.7v-7.3H103v-4.2h1.6v-3.8h5.6v3.8h1.6v4.2h-1.6v7.3H104.6z"/>
				<path class="st2" d="M119.6,76.5c0,0.8-0.3,1.5-0.8,2c-0.5,0.5-1.3,0.7-2.2,0.7c-0.9,0-1.7-0.2-2.2-0.7c-0.5-0.5-0.8-1.1-0.8-2
					c0-0.8,0.3-1.5,0.8-1.9c0.5-0.5,1.3-0.7,2.2-0.7c0.9,0,1.7,0.2,2.2,0.7C119.3,75.1,119.6,75.7,119.6,76.5z M113.7,91.7V80.1h5.6
					v11.5H113.7z"/>
				<path class="st2" d="M135,86c0,0.9-0.2,1.7-0.6,2.5c-0.4,0.8-0.9,1.5-1.6,2.1c-0.6,0.5-1.3,0.9-2.1,1.2
					c-0.8,0.3-1.6,0.4-2.5,0.4c-0.9,0-1.7-0.1-2.5-0.4c-0.8-0.3-1.5-0.7-2.1-1.2c-0.7-0.6-1.2-1.3-1.6-2.1c-0.4-0.8-0.6-1.6-0.6-2.5
					c0-0.9,0.2-1.7,0.6-2.5c0.4-0.8,0.9-1.5,1.6-2.1c0.6-0.5,1.3-0.9,2.1-1.2c0.8-0.3,1.6-0.4,2.5-0.4c0.9,0,1.7,0.1,2.5,0.4
					c0.8,0.3,1.5,0.7,2.1,1.2c0.7,0.6,1.2,1.3,1.6,2.1C134.8,84.2,135,85.1,135,86z M128.3,87.5c0.4,0,0.7-0.1,1-0.4
					c0.3-0.3,0.4-0.7,0.4-1.1c0-0.5-0.1-0.9-0.4-1.2c-0.2-0.3-0.6-0.4-1-0.4c-0.4,0-0.7,0.1-1,0.4c-0.2,0.3-0.4,0.7-0.4,1.2
					c0,0.5,0.1,0.9,0.4,1.2C127.5,87.4,127.9,87.5,128.3,87.5z"/>
				<path class="st2" d="M137.1,91.7V80.1h5.4v1.6c0.5-0.7,1-1.2,1.6-1.5c0.6-0.3,1.2-0.5,2-0.5c1.2,0,2.2,0.4,2.9,1.1
					c0.7,0.7,1.1,1.8,1.1,3.1v7.7h-5.6v-5.8c0-0.6-0.1-1-0.2-1.2c-0.1-0.2-0.3-0.3-0.6-0.3c-0.3,0-0.6,0.1-0.7,0.4
					c-0.2,0.3-0.3,0.6-0.3,1.1v5.8H137.1z"/>
				<path class="st2" d="M160.7,91.7V90c-0.6,0.7-1.1,1.3-1.8,1.6c-0.6,0.4-1.3,0.5-2,0.5c-1.3,0-2.4-0.6-3.3-1.7
					c-0.9-1.1-1.3-2.6-1.3-4.4c0-1.9,0.4-3.4,1.3-4.5c0.9-1.1,2-1.7,3.4-1.7c0.7,0,1.4,0.2,1.9,0.5c0.6,0.3,1.1,0.8,1.6,1.4v-1.5
					h5.4v11.5H160.7z M157.6,85.9c0,0.5,0.1,0.9,0.4,1.2c0.3,0.3,0.6,0.5,1.1,0.5c0.4,0,0.8-0.1,1.1-0.5c0.3-0.3,0.4-0.7,0.4-1.2
					c0-0.5-0.1-0.9-0.4-1.2c-0.3-0.3-0.6-0.5-1.1-0.5c-0.4,0-0.8,0.2-1.1,0.5C157.7,85,157.6,85.4,157.6,85.9z"/>
				<path class="st2" d="M168.5,91.7V74.4h5.6v17.3H168.5z"/>
			</g>
		</g>
	</g>
</g>
</svg>
