<svg xmlns="http://www.w3.org/2000/svg" viewBox="0 0 1920.03 671.57"><defs><style>.cls-1{fill:#009c53;}.cls-2{fill:#635128;}.cls-3{fill:#6b8c46;}.cls-4{fill:#557135;}.cls-5{fill:#dbc95d;}.cls-6{fill:#953c22;}.cls-7{fill:#80ba9c;}.cls-8{fill:#00753d;}.cls-9{fill:#005621;}.cls-10{fill:#8f3d1f;}.cls-11{fill:#2a3e52;}.cls-12{fill:#063035;}.cls-13{fill:#007439;}.cls-14{fill:#cae977;}.cls-15{fill:#7da266;}.cls-16,.cls-40{fill:#f4ccc6;}.cls-17{fill:#663b3b;}.cls-18,.cls-65{fill:#e28a86;}.cls-18{opacity:0.5;}.cls-19{fill:#c6c4bd;}.cls-20{fill:#999;}.cls-21{fill:gray;}.cls-22{fill:#d3d1c7;}.cls-23{fill:#ba5a58;}.cls-24{fill:#464747;}.cls-25{fill:#e5b3ac;}.cls-26{fill:#d19893;}.cls-27{fill:#c96a65;}.cls-28{fill:#d67b72;}.cls-29{fill:#eac0bb;}.cls-30{fill:#ddaca6;}.cls-31{fill:#c6918d;}.cls-32{fill:#d19b95;}.cls-33{fill:#914c49;}.cls-34{fill:#af6161;}.cls-35{fill:#d8938f;}.cls-36{fill:#fff;}.cls-37{fill:#8e744f;}.cls-38{fill:#5b452c;}.cls-39{fill:#c46762;}.cls-40,.cls-75{opacity:0.4;}.cls-41{fill:#e2e0d7;}.cls-42{fill:#afaca3;}.cls-43{fill:#f9f8f4;}.cls-44{fill:#844f4f;}.cls-45{fill:#512b2b;}.cls-46{fill:#b55654;}.cls-47{fill:#508785;}.cls-48{fill:#e9f4f4;}.cls-49{fill:#85bcc1;}.cls-50{fill:#5f9b9b;}.cls-51{fill:#283338;}.cls-52{fill:#edebe4;}.cls-53{fill:#cc6358;}.cls-54{fill:#4e5b63;}.cls-55{fill:#5a7077;}.cls-56{fill:#455860;}.cls-57{fill:#d8d5cb;}.cls-58{fill:#7a5f3f;}.cls-59{fill:#c6a438;}.cls-60{fill:#a0815c;}.cls-61{fill:#efeee8;}.cls-62{fill:#d1cec1;}.cls-63{opacity:0.3;}.cls-64{fill:#bcb8aa;}.cls-66{fill:#a8423d;}.cls-67{fill:#d6b838;}.cls-68{fill:#e5c641;}.cls-69{fill:#2d3a3f;}.cls-70{fill:#e6e6e6;}.cls-71,.cls-73,.cls-75{fill:#f2f2f2;}.cls-72{fill:#b3b3b3;}.cls-73{opacity:0.2;}.cls-74{fill:#c9ac32;}.cls-76{fill:#3d4a51;}.cls-77{fill:#bc534b;}.cls-78{fill:#7c6140;}.cls-79{fill:#ccc;}.cls-80{fill:#3a484f;}</style></defs><title>section_img_1</title><g id="Слой_2" data-name="Слой 2"><g id="Слой_7" data-name="Слой 7"><path class="cls-1" d="M0,235.88S350.3,202.4,1104.74,219,1920,260.37,1920,260.37V671.56a1590,1590,0,0,1-173.32-10.09c-128.61-15-278.53-44.26-480-48-199.65-3.7-442.48,34.5-570,37.5C549.54,654.43,387.38,608,245.28,597,65.35,583,0,593,0,593Z"/><polygon class="cls-2" points="1242 158.38 1238.69 158.81 1235.38 158.38 1229.59 242.89 1238.69 242.89 1247.79 242.89 1242 158.38"/><polygon class="cls-3" points="1281.68 177.94 1286.45 177.94 1275.54 153.01 1281.68 153.01 1272.81 133.29 1278.27 133.29 1265.98 114.25 1273.49 114.25 1261.21 89.76 1265.98 89.76 1256.43 68.23 1263.25 68.23 1252.34 49.64 1259.84 49.64 1246.88 31.28 1253.02 31.28 1238.69 0 1224.36 31.28 1230.5 31.28 1217.54 49.64 1225.04 49.64 1214.12 68.23 1220.95 68.23 1211.39 89.76 1216.17 89.76 1203.89 114.25 1211.39 114.25 1199.11 133.29 1204.57 133.29 1195.7 153.01 1201.84 153.01 1190.92 177.94 1195.7 177.94 1184.1 200.61 1238.69 200.61 1293.28 200.61 1281.68 177.94"/><path class="cls-4" d="M1293.28,200.61l-11.6-22.67h4.78L1275.54,153h6.14l-8.87-19.72h5.46l-12.28-19h7.51l-12.28-24.48H1266l-9.55-21.53h6.82l-10.92-18.59h7.51l-13-18.36H1253L1238.69,0c10.32,95.19,0,158.81-16.12,177.48s-38.47,23.13-38.47,23.13h109.18Z"/><path class="cls-5" d="M585.54,45.79a20.81,20.81,0,0,0-3.76,5c-3.78,7.24-7.16,13.88-8.4,21.56s-1.06,15.39-.62,23a117.14,117.14,0,0,1,.08,16.6c-.58,6.84-4.77,13.29-5.44,20.12-1.52,15.55-1.48,32.3,12.9,44.35a57.67,57.67,0,0,0,42.53,12.36c18.33-2.31,25.69-14.28,27.79-26.71,2.74-16.2-2.34-32.18-.35-48.31.9-7.28,4-14.29,4.63-21.61,1.15-13.31-2.93-26.46-10.21-38.35-4.55-7.43-11.39-15.74-22.16-18.77C609.57,31.39,593.49,37.82,585.54,45.79Z"/><path class="cls-6" d="M639.27,109.67c-1.05-.79-2.8,2-3.14,2.7l-2.22,4.8L628,130l-14.4,31.16c.07-.15,0-.48,0-.63l-.37-8-.69-14.8-.86-18.45-.88-19L610,83.83l-.29-6.25c-.06-1.24.38-4.27-.84-5a1.91,1.91,0,0,0-2.63,0c-1.21.9-.71,1.91-.71,3.13v2.4q0,3,0,5.94,0,9.1-.06,18.19l-.07,19.59-.05,15.66q0,3.2,0,6.41l-2.52-4.3-6-10.22-2.9-4.94c-.39-.67-.81-1.33-1.18-2-.22-.41-.26-.75-.79-.87a1.19,1.19,0,0,0-1.28.57c-.14.41.47,1.14.67,1.5l1.88,3.43,2.26,4.14c-.32-.59-1.58-1.22-2.13-1.64l-9.89-7.63L581,120a22.13,22.13,0,0,0-2.13-1.83c-.92-.51-1.61.1-1.11.91s1.35,1.08,2,1.58L583,123.3l14.69,11.92,7.62,13.92L604.82,284l14.46-.8L614.05,170.7l10.61-24.93,9.58-22.5L638,114.4c.35-.82,2-3.35,1.7-4.05A1.46,1.46,0,0,0,639.27,109.67Z"/><path class="cls-7" d="M689.75,279.28s-8.84,6.35-14.7-2.19c0,0-9.78,2.44-12-6.59,0,0-11.74-1-11.25-10,0,0-14.18-6.83-4.89-19.76,0,0-9.05-8.05,1.22-17.08,0,0-7.83-11.71,5.87-15.13,0,0,1.22-13.91,14.92-10.74,0,0,3.67-11.71,16.88-7.32,0,0,11.86-8.8,18.59,2.93,0,0,13-1.71,15.41,9,0,0,12.47,1.71,11.25,14.15,0,0,9.58,8.78,3.46,19.27,0,0,6.1,17.47-7.13,19A12,12,0,0,1,720,266s-1.4,9.34-9.71,7.88c0,0-6.36,7.08-11,3.17Z"/><path class="cls-2" d="M675,256.77s13.69,1.42,14.67,8.51-1.47,64.29-1.47,64.29h14.67s-6.36-64.29-4.16-69,9.29-7.29,9.29-7.29-8.07-.2-10.76,2.23-6.12,3-9.78,2.43S680.18,256.36,675,256.77Z"/><polygon class="cls-2" points="279.69 171.72 276.38 172.15 273.07 171.72 267.28 256.23 276.38 256.23 285.48 256.23 279.69 171.72"/><polygon class="cls-3" points="319.37 191.28 324.14 191.28 313.23 166.35 319.37 166.35 310.5 146.63 315.96 146.63 303.68 127.58 311.18 127.58 298.9 103.1 303.68 103.1 294.12 81.57 300.95 81.57 290.03 62.98 297.54 62.98 284.57 44.62 290.71 44.62 276.38 13.34 262.05 44.62 268.19 44.62 255.23 62.98 262.73 62.98 251.81 81.57 258.64 81.57 249.09 103.1 253.86 103.1 241.58 127.58 249.09 127.58 236.8 146.63 242.26 146.63 233.39 166.35 239.53 166.35 228.61 191.28 233.39 191.28 221.79 213.95 276.38 213.95 330.97 213.95 319.37 191.28"/><path class="cls-4" d="M331,214l-11.6-22.67h4.78l-10.92-24.93h6.14l-8.87-19.72H316l-12.28-19h7.51L298.9,103.1h4.78l-9.55-21.53h6.82L290,63h7.51l-13-18.36h6.14L276.38,13.34c10.32,95.19,0,158.81-16.12,177.48S221.79,214,221.79,214H331Z"/><path class="cls-8" d="M427.33,255.67a17.34,17.34,0,0,0,16.19-5.15,6.35,6.35,0,0,0,12.37-.79c0-.1,0-.2,0-.29a6.26,6.26,0,0,0,1.68.65,6,6,0,0,0,1.72.09A6.39,6.39,0,1,0,472,252.1a7,7,0,0,0,0-2.19,11.12,11.12,0,0,0,10.84-9.53.2.2,0,0,0,0,0,16.71,16.71,0,0,0,12.83-13.82A17.1,17.1,0,0,0,493.94,216a11.5,11.5,0,0,0,7.49-4.13,11,11,0,0,0,5.71,2.76,11.71,11.71,0,0,0,13.2-10,12.18,12.18,0,0,0-1.78-8.55,7.1,7.1,0,0,0,7.31-6.09,7.33,7.33,0,0,0,0-2l.29.08a7.1,7.1,0,0,0,8-6,7.26,7.26,0,0,0-2.45-6.71A20.14,20.14,0,0,0,543,160.19a19.74,19.74,0,0,0-12.33-21.81,7.52,7.52,0,0,0,.58-1.86,7.16,7.16,0,0,0-3.94-7.66,12.08,12.08,0,0,0,6.61-9,11.7,11.7,0,0,0-9.42-13.6c-.34-.05-.68-.09-1-.11a20.57,20.57,0,0,0,2.63-7.27c1.74-10.87-5.3-21-15.73-22.71a11.84,11.84,0,0,0-7.16-13,7.47,7.47,0,0,0,.25-1,7.09,7.09,0,0,0-5.71-8.24,7,7,0,0,0-7.06,3.45A5.93,5.93,0,0,0,485,55.48c0-.1.05-.19.06-.29a6.36,6.36,0,0,0-11.51-4.61,17.34,17.34,0,0,0-13.77-9.95,18.15,18.15,0,0,0-19.11,13,6.17,6.17,0,0,0-1.68-.46,6.48,6.48,0,0,0-6.32,3.37,5.38,5.38,0,0,0-4.15-3.46,5.56,5.56,0,0,0-6.27,4.74,5.77,5.77,0,0,0,0,1.86,9.47,9.47,0,0,0-9.23,8.11v0a14.21,14.21,0,0,0-10.92,11.77,14.54,14.54,0,0,0,1.41,9,9.81,9.81,0,0,0-6.38,3.51,9.41,9.41,0,0,0-4.86-2.35,10,10,0,0,0-11.23,8.5,10.36,10.36,0,0,0,1.51,7.27,6,6,0,0,0-6.22,5.18,6.35,6.35,0,0,0,0,1.72c-.09,0-.16-.05-.25-.07a6,6,0,0,0-6.81,5.15,6.19,6.19,0,0,0,2.09,5.71,17.13,17.13,0,0,0-9.58,12.88,16.79,16.79,0,0,0,10.49,18.56,6.44,6.44,0,0,0-.5,1.59,6.11,6.11,0,0,0,3.36,6.53,10.28,10.28,0,0,0-5.63,7.67,10,10,0,0,0,8,11.58c.29,0,.57.07.86.09a17.62,17.62,0,0,0-2.24,6.19c-1.48,9.25,4.52,17.91,13.4,19.33a10.07,10.07,0,0,0,6.1,11.06,6.63,6.63,0,0,0-.22.83,6,6,0,0,0,4.86,7,5.8,5.8,0,0,0,5.05-1.71c.09,4.31,4.56,2.73,5.07,2.22.18,2.92-1.81,9.62,1.08,10.23a6.27,6.27,0,0,0,1.74.09A18.15,18.15,0,0,0,427.33,255.67Z"/><path class="cls-9" d="M446.11,308.42s3.19-120.59,2.28-124.4-12.3-21.24-12.3-21.24,14.58,15.79,16,9.26,4.1-56.09,4.1-56.09.91,50.1,4.56,49.56,18.68-20.15,18.68-20.15-17.32,26.14-17.32,35.94,1.37,127.12,1.37,127.12Z"/><polygon class="cls-2" points="63.23 227.72 59.91 228.15 56.61 227.72 50.82 312.22 59.91 312.22 69.01 312.22 63.23 227.72"/><polygon class="cls-3" points="102.91 247.28 107.68 247.28 96.77 222.34 102.91 222.34 94.03 202.63 99.49 202.63 87.21 183.58 94.72 183.58 82.44 159.1 87.21 159.1 77.66 137.57 84.48 137.57 73.56 118.98 81.07 118.98 68.11 100.62 74.25 100.62 59.92 69.34 45.59 100.62 51.73 100.62 38.77 118.98 46.27 118.98 35.35 137.57 42.18 137.57 32.62 159.1 37.4 159.1 25.12 183.58 32.62 183.58 20.34 202.63 25.8 202.63 16.93 222.34 23.07 222.34 12.15 247.28 16.93 247.28 5.33 269.95 59.92 269.95 114.51 269.95 102.91 247.28"/><path class="cls-4" d="M114.51,270l-11.6-22.67h4.78L96.77,222.35h6.14L94,202.62h5.46l-12.28-19h7.51L82.44,159.1h4.78l-9.55-21.53h6.82L73.56,119h7.51l-13-18.36h6.14L59.92,69.34c10.32,95.19,0,158.81-16.12,177.48S5.33,270,5.33,270H114.51Z"/><path class="cls-5" d="M1757.49,256a36.91,36.91,0,0,1-.1-4.79,24.17,24.17,0,0,1,.67-4.52,5.3,5.3,0,0,1,1.24-4.24c7.76-9.41,13.24-20.85,14.65-33a50.36,50.36,0,0,0-.61-15.8c-1-5.08-3.09-9.81-5-14.62a40.37,40.37,0,0,1-3.27-14.35c-.08-6.21,1.91-12.23,2.28-18.42a84.19,84.19,0,0,0-4.47-31.26,58,58,0,0,0-4-9.22c-1.26-1.45-2.47-2.94-3.6-4.5-4.19-5.79-8.77-10.11-15.85-12.35-8.91-2.82-20.88-1.63-27.45,4.93-14.32,14.31-20.18,36.28-14.46,55.64a4.69,4.69,0,0,1,.14,2.3c-.79,3.7-5.43,1-7.46.53a28.51,28.51,0,0,0-25.81,6.87c-4.76,4.54-7.71,10.64-9.72,16.86-6.86,21.15-1.61,47.42,14,63.71a58.28,58.28,0,0,0,10.75,8.81,55.89,55.89,0,0,1,20.71,24.6,24,24,0,0,0,4.74,7,27.84,27.84,0,0,0,23.7,7.85c9.42-1.45,18.5-8.26,24.12-15.69,2.71-3.58,4-8.54,4.49-13.77C1757.27,257.7,1757.37,256.83,1757.49,256Z"/><path class="cls-10" d="M1733.63,183.12l10-11,7.68-8.44c.53-.58,3.25-2.91,3-3.66-.4-1.4-2.32.57-2.75,1.06-.9,1-1.83,2-2.75,3l-6.33,7-7.87,8.71,3.34-10.56c.37-1.16,2.78-6.49,1.58-7.19-1.85-1.09-2.46,3.49-2.78,4.42l-1.82,5.17q-2,5.75-4.06,11.49-3.69,10.4-7.4,20.79c.37-1-.14-3.05-.18-4.12l-.94-21-.52-11.57c-.11-2.4.76-8-1.95-9a1.83,1.83,0,0,0-1.8.2c-.84.7-.45,2.62-.44,3.63,0,12.18,0,24.36,0,36.54q0,21.68,0,43.36,0,10.48,0,21L1692.92,230c-.49-.65-.54-2.31-.72-3.09l-5.12-22-1.25-5.36c-.2-.86-1-4.41-2.15-3s.74,7.16,1.08,8.71c.62,2.88,1.39,5.74,2,8.63l2,10.6-6.69-8.87-5.64-7.49-2.73-3.62c-.15-.2-2.32-3-2.43-2.5-.48,2.27,1.71,4.33,3,6.19l4.81,6.92,24.69,35.51,14,20.13.07,113.67,13.76-.59L1724,213.71Z"/><path class="cls-11" d="M1820.86,205.93s-21.53-2.54-30.64-15.79-10.55-40.6,0-53.85,29.64-23.4,44.2-14.38,28.63,44.83,18.58,62.59S1828.39,205.08,1820.86,205.93Z"/><path class="cls-12" d="M1812.24,270.79s2.75-78.67,2-81.15-10.6-13.86-10.6-13.86,12.57,10.3,13.75,6,3.53-36.59,3.53-36.59.79,32.68,3.93,32.33,16.1-13.14,16.1-13.14S1826,181.47,1826,187.86s1.18,82.93,1.18,82.93Z"/><path class="cls-5" d="M239.14,433.91s-22.6-6.07-32.16-37.78-11.07-110.91,0-142.62,36.6-56,51.89-34.41,24.54,121,14,163.53S247,431.89,239.14,433.91Z"/><path class="cls-2" d="M229,528s2.89-115.67,2.06-119.56-11.12-21.66-11.12-21.66,13.19,16.11,14.42,9.44,3.71-57.2,3.71-57.2.82,51.09,4.12,50.53S259.09,369,259.09,369s-15.66,26.66-15.66,36.65S244.67,528,244.67,528Z"/><path class="cls-7" d="M481,460.53s-19.64,14.1-32.68-4.88c0,0-21.74,5.42-26.64-14.64,0,0-26.09-2.17-25-22.24,0,0-31.52-15.18-10.87-43.93,0,0-20.12-17.9,2.71-38,0,0-17.39-26,13-33.62,0,0,2.72-30.92,33.16-23.87,0,0,8.15-26,37.51-16.27,0,0,26.37-19.56,41.31,6.51,0,0,28.81-3.8,34.25,20.07,0,0,27.72,3.8,25,31.45,0,0,21.28,19.52,7.69,42.84,0,0,13.55,38.84-15.85,42.3a26.65,26.65,0,0,1-16.46,24.79s-3.11,20.76-21.59,17.51c0,0-14.14,15.73-24.46,7.05Z"/><path class="cls-2" d="M448.35,410.5s30.44,3.15,32.61,18.91S477.7,572.3,477.7,572.3h32.61s-14.14-142.9-9.24-153.25,20.66-16.21,20.66-16.21-17.94-.45-23.92,5-13.59,6.75-21.75,5.41S459.77,409.6,448.35,410.5Z"/><path class="cls-13" d="M1807.94,214.55c-27.5-7.93-58.6-7.71-81.66,3.33-36.82,17.62-53.35,44.74-40.9,68.72a3,3,0,0,1,.14,2.85c-2.29,4.57-13.57,1.22-18.55.62a137.49,137.49,0,0,0-22.82-.78c-15.33.73-30.4,3.9-41.84,9.15a63.19,63.19,0,0,0-25.64,20.79c-18.92,26.11-8.27,58.62,28.94,78.84A156.49,156.49,0,0,0,1631.48,409c22.48,7.37,39,18.17,49.16,30.52a36.11,36.11,0,0,0,11.13,8.71c14.38,7.63,36.76,11.41,58.11,9.83,23.51-1.75,46.66-10.11,61.25-19.27a27.25,27.25,0,0,0,12.38-17,32.49,32.49,0,0,1,1-3.21,22.83,22.83,0,0,1,.18-5.93,17.63,17.63,0,0,1,2.07-5.59c-2.62-11.63,37-17.34,43.24-21.6,9.07-6.18,14.19-17.31,14.14-28.29s-4.91-21.63-12.3-29.75c-5.84-6.41-13.59-12.05-15.27-20.55-2.11-10.7,6.34-20.37,9-30.93,3.63-14.24-3.84-29.47-14.9-39.15C1839.34,226.86,1824.28,219.27,1807.94,214.55Z"/><path class="cls-9" d="M1774.66,304.28c-.12-.24-.47-.36-1.13-.32-2.12.14-4,3.65-5.37,5l-6.59,6.67L1745,332.43l1.24-3.39,5.57-15.22a60.07,60.07,0,0,0,2.61-7.14c.29-1.28-.71-2.08-1.85-1.16-.82.67-1.16,2-1.53,3l-2.25,5.62q-2.62,6.52-5.26,13-7.6,18.75-15.27,37.47l-.78-62.63a2.63,2.63,0,0,0-5.25-.06l-4.79,141.75-33.31-44.58-.05-.25L1679.31,376l-3.23-15.5-1.27-6.1c-.17-.82-.22-1.8-.47-2.58s-2.14-2.3-2.56-.67a5.92,5.92,0,0,0,.3,1.78l.82,4.92,2.14,12.86,3.48,20.87L1664,372.2l-6.09-8.15-2.49-3.34c-.38-.5-.81-1.33-1.48-1.48-2.45-.51-.31,2.56.2,3.32l2,2.93,5.55,8.07L1677,395.79l17.18,25,14.7,21.4,7.84,11.41.37.54-5.15,152.53,19.32-.59-2.84-228.37,15-40.9,0,0,16.85-16.92,11.33-11.38C1772.13,307.93,1775.16,305.23,1774.66,304.28Z"/><path class="cls-11" d="M1600.77,227.85s-21.53-2.54-30.64-15.79-10.55-40.6,0-53.85,29.64-23.4,44.2-14.38,28.63,44.83,18.58,62.59S1608.31,227,1600.77,227.85Z"/><path class="cls-12" d="M1592.15,292.72s2.75-78.67,2-81.15-10.6-13.86-10.6-13.86,12.57,10.3,13.75,6,3.53-36.59,3.53-36.59.79,32.68,3.93,32.33,16.1-13.14,16.1-13.14-14.92,17.05-14.92,23.45,1.18,82.93,1.18,82.93Z"/><path class="cls-11" d="M1293.57,332.08s-21.53-2.54-30.64-15.79-10.55-40.6,0-53.85,29.64-23.4,44.2-14.38,28.63,44.83,18.59,62.59S1301.11,331.23,1293.57,332.08Z"/><path class="cls-12" d="M1285,396.95s2.75-78.67,2-81.15-10.6-13.86-10.6-13.86,12.57,10.3,13.75,6,3.53-36.59,3.53-36.59.79,32.68,3.93,32.33,16.1-13.14,16.1-13.14S1298.7,307.62,1298.7,314s1.18,82.93,1.18,82.93Z"/><path class="cls-5" d="M1378.47,165.89a28,28,0,0,1-.08-3.64,18.35,18.35,0,0,1,.51-3.43,4,4,0,0,1,.94-3.22,48.74,48.74,0,0,0,11.12-25,38.24,38.24,0,0,0-.46-12,66.66,66.66,0,0,0-3.8-11.1,30.65,30.65,0,0,1-2.48-10.9c-.06-4.72,1.45-9.29,1.73-14a63.92,63.92,0,0,0-3.39-23.73,44,44,0,0,0-3-7c-1-1.1-1.87-2.24-2.73-3.42-3.18-4.4-6.66-7.68-12-9.38-6.76-2.14-15.85-1.24-20.84,3.75-10.87,10.87-15.32,27.54-11,42.25a3.56,3.56,0,0,1,.11,1.75c-.6,2.81-4.12.76-5.66.4a21.65,21.65,0,0,0-19.59,5.22c-3.61,3.45-5.85,8.08-7.38,12.8-5.21,16.06-1.22,36,10.61,48.37a44.25,44.25,0,0,0,8.16,6.69,42.43,42.43,0,0,1,15.72,18.68,18.18,18.18,0,0,0,3.6,5.33,21.14,21.14,0,0,0,18,6c7.15-1.1,14-6.27,18.31-11.91,2.05-2.72,3.07-6.49,3.41-10.46C1378.3,167.2,1378.38,166.54,1378.47,165.89Z"/><path class="cls-10" d="M1360.36,110.58l7.61-8.36,5.83-6.4c.4-.44,2.47-2.21,2.31-2.78-.31-1.06-1.77.44-2.09.8-.68.78-1.39,1.54-2.09,2.31l-4.81,5.32-6,6.61,2.53-8c.28-.88,2.11-4.93,1.2-5.46-1.41-.83-1.87,2.65-2.11,3.35l-1.38,3.93q-1.54,4.36-3.08,8.73-2.8,7.9-5.62,15.78c.28-.79-.1-2.32-.14-3.13l-.71-15.94-.39-8.78c-.08-1.82.57-6.05-1.48-6.86a1.39,1.39,0,0,0-1.37.15c-.64.53-.34,2-.34,2.76,0,9.25,0,18.49,0,27.74q0,16.46,0,32.92,0,8,0,15.92l-18.86-25a7.71,7.71,0,0,1-.54-2.34L1325,127.11l-.95-4.07c-.15-.65-.78-3.34-1.63-2.27s.56,5.43.82,6.61c.47,2.19,1.06,4.35,1.48,6.55l1.55,8-5.08-6.73-4.29-5.68-2.07-2.75c-.11-.15-1.76-2.27-1.84-1.9-.37,1.73,1.3,3.29,2.28,4.7l3.66,5.26,18.75,27,10.63,15.28.05,86.3,10.44-.45L1353,133.81Z"/><path class="cls-8" d="M1447.61,324.81a22.07,22.07,0,0,0,20.61-6.56,8.09,8.09,0,0,0,15.75-1c0-.12,0-.25,0-.37a8,8,0,0,0,2.14.82,7.57,7.57,0,0,0,2.2.11,8.13,8.13,0,1,0,16.07,2.45,8.85,8.85,0,0,0,0-2.78,14.15,14.15,0,0,0,13.8-12.13.26.26,0,0,0,0-.05,21.27,21.27,0,0,0,16.33-17.6,21.76,21.76,0,0,0-2.11-13.4,14.64,14.64,0,0,0,9.54-5.25,14.06,14.06,0,0,0,7.27,3.52c8,1.27,15.47-4.42,16.8-12.71a15.5,15.5,0,0,0-2.26-10.88,9,9,0,0,0,9.3-7.75,9.34,9.34,0,0,0,0-2.57c.13,0,.25.08.37.1a9,9,0,0,0,10.18-7.7,9.25,9.25,0,0,0-3.12-8.54,25.64,25.64,0,0,0,14.32-19.26c2-12.27-4.87-23.81-15.69-27.76a9.58,9.58,0,0,0,.74-2.37,9.12,9.12,0,0,0-5-9.75,15.38,15.38,0,0,0,8.41-11.47c1.33-8.29-4-16-12-17.31-.44-.07-.86-.11-1.29-.14a26.18,26.18,0,0,0,3.34-9.26c2.22-13.84-6.75-26.78-20-28.91a15.07,15.07,0,0,0-9.12-16.54,9.51,9.51,0,0,0,.32-1.24A9,9,0,0,0,1537.25,68a8.84,8.84,0,0,0-9,4.4A7.55,7.55,0,0,0,1521,70c0-.13.06-.24.08-.37a8.09,8.09,0,0,0-14.65-5.87,22.08,22.08,0,0,0-17.53-12.66c-11-1.21-21.09,6-24.33,16.56a7.86,7.86,0,0,0-2.13-.58,8.25,8.25,0,0,0-8,4.29,6.85,6.85,0,0,0-5.28-4.4,7.08,7.08,0,0,0-8,6,7.34,7.34,0,0,0,0,2.37,12.05,12.05,0,0,0-11.75,10.32s0,0,0,.05a18.09,18.09,0,0,0-13.9,15,18.51,18.51,0,0,0,1.8,11.4,12.48,12.48,0,0,0-8.12,4.47,12,12,0,0,0-6.18-3,12.69,12.69,0,0,0-14.3,10.82,13.19,13.19,0,0,0,1.93,9.26,7.7,7.7,0,0,0-7.92,6.59,8.08,8.08,0,0,0,0,2.18c-.11,0-.21-.07-.32-.08a7.68,7.68,0,0,0-8.66,6.55,7.87,7.87,0,0,0,2.66,7.27,21.81,21.81,0,0,0-12.19,16.39c-1.67,10.44,4.14,20.27,13.35,23.63a8.2,8.2,0,0,0-.64,2,7.78,7.78,0,0,0,4.28,8.31,13.09,13.09,0,0,0-7.17,9.76A12.69,12.69,0,0,0,1384.23,231c.37.06.73.09,1.09.12a22.42,22.42,0,0,0-2.85,7.88c-1.88,11.78,5.75,22.8,17.05,24.61a12.82,12.82,0,0,0,7.76,14.08,8.44,8.44,0,0,0-.28,1.06,7.69,7.69,0,0,0,6.19,8.93,7.38,7.38,0,0,0,6.43-2.17c.11,5.49,5.81,3.48,6.45,2.82.23,3.72-2.31,12.25,1.38,13a8,8,0,0,0,2.21.11C1429.44,312.56,1436.8,322.53,1447.61,324.81Z"/><path class="cls-9" d="M1471.52,392s4.06-153.5,2.9-158.35-15.66-27-15.66-27,18.56,20.1,20.3,11.79,5.22-71.4,5.22-71.4,1.16,63.77,5.8,63.08,23.78-25.65,23.78-25.65-22,33.27-22,45.75S1493.57,392,1493.57,392Z"/><path class="cls-14" d="M139.64,353.73s-20.38-5.48-29-34.07-10-100,0-128.63,33-50.5,46.8-31,22.13,109.16,12.63,147.49S146.77,351.9,139.64,353.73Z"/><path class="cls-15" d="M130.49,438.6s2.6-104.32,1.86-107.83-10-19.54-10-19.54,11.9,14.53,13,8.52,3.35-51.59,3.35-51.59.74,46.08,3.72,45.58,15.24-18.53,15.24-18.53-14.12,24-14.12,33.05,1.12,110.33,1.12,110.33Z"/><path class="cls-14" d="M1335.88,152.43a34.2,34.2,0,0,0-6.18,8.17c-6.21,11.89-11.78,22.8-13.8,35.44s-1.74,25.29-1,37.88a192.53,192.53,0,0,1,.13,27.29c-.95,11.25-7.84,21.84-8.94,33.06-2.49,25.56-2.43,53.09,21.21,72.89,16.8,14.07,43.6,23.62,69.91,20.31,30.13-3.79,42.23-23.47,45.68-43.9,4.5-26.63-3.84-52.89-.58-79.4,1.47-12,6.57-23.49,7.61-35.52,1.89-21.88-4.82-43.49-16.77-63-7.47-12.21-18.72-25.87-36.43-30.85C1375.37,128.76,1348.94,139.33,1335.88,152.43Z"/><path class="cls-15" d="M1424.19,257.42c-1.73-1.3-4.6,3.23-5.16,4.44l-3.65,7.89-9.71,21L1382,342c.11-.25,0-.78,0-1l-.61-13.19-1.13-24.33-1.41-30.33-1.45-31.2-1.25-26.93-.48-10.26c-.09-2,.63-7-1.38-8.29a3.13,3.13,0,0,0-4.32,0c-2,1.48-1.16,3.15-1.17,5.14q0,2,0,4,0,4.88,0,9.77-.05,15-.1,29.9-.06,16.1-.11,32.2,0,12.87-.09,25.74,0,5.26,0,10.53l-4.15-7.07-9.86-16.79-4.76-8.12c-.64-1.1-1.33-2.18-1.93-3.29-.37-.67-.43-1.23-1.29-1.44a2,2,0,0,0-2.11.93c-.23.68.77,1.87,1.09,2.46l3.08,5.63,3.72,6.8c-.53-1-2.6-2-3.5-2.7l-16.25-12.55-4-3.09c-1.1-.85-2.33-2.36-3.5-3-1.51-.84-2.65.17-1.82,1.5.68,1.09,2.21,1.77,3.23,2.59l5.35,4.34,24.15,19.59,12.52,22.87-.77,221.66,23.77-1.31-8.6-184.89,17.44-41,15.74-37,6.2-14.58c.57-1.35,3.23-5.51,2.8-6.66A2.4,2.4,0,0,0,1424.19,257.42Z"/><path class="cls-16" d="M1112.66,411.64c-.6-1.23-1.17-1.93-1.89-3.14-.26-.4-1.27-1.79-1.23-2.31a8.13,8.13,0,0,1,1.39-2.68c.88-1.17,1.82-1.9,2.13-3.36s-.24-2.44-1.67-1.17a8.48,8.48,0,0,0-2.35,3,30.63,30.63,0,0,0-2.26-6c-.38-.7-1.24-2.73-2-2.14-1.85,1.5.23,4.93,1.12,7.13-.28-.52-3.58-7.79-5.22-5.78-.79,1,3,6,3.45,7-1.52-1.77-4-6.38-6.08-4.86-1.08.81,3.57,5.81,4.49,6.73-1.39-.65-3.4-3-5.06-2.68-1.35.3-.82,1.16-.15,2.07,2.26,2.73,5.24,2.92,8.08,4.64,1.12.67,3,3.75,3.18,4.29.35.89.25,1.8,1.17,2.34s4.37-1.59,3.13-2.84"/><path class="cls-17" d="M1161,546.8c-1.83,2.86-9.14,7.89-7.39,9,2.37,1.53,9.14-3.28,11.06-6.59,1.12-1.93.74-3.76-.07-4.19s-2,.53-3.15.68Z"/><path class="cls-16" d="M1156.25,504.81l4.79,42s-.11,3.11,4.35-.19l3-41.72Z"/><path class="cls-18" d="M1164.8,526.13a2.73,2.73,0,1,1-5.44.31,2.62,2.62,0,0,1,2.31-3A3,3,0,0,1,1164.8,526.13Z"/><path class="cls-19" d="M1161,546.8l-1.87-13.58s4.35,1.74,7.48-.51l-1.25,13.9s-1.87,2.46-3.8,1.88C1161,548.29,1161,546.8,1161,546.8Z"/><path class="cls-17" d="M1177.26,546.8c-1.83,2.86-9.14,7.89-7.39,9,2.37,1.53,9.14-3.28,11.06-6.59,1.12-1.93.74-3.76-.07-4.19s-2,.53-3.15.68Z"/><path class="cls-16" d="M1172.47,504.81l4.79,42s-.11,3.11,4.35-.19l3-41.72Z"/><path class="cls-18" d="M1181,526.13a2.73,2.73,0,1,1-5.44.31,2.62,2.62,0,0,1,2.31-3A3,3,0,0,1,1181,526.13Z"/><path class="cls-19" d="M1177.26,546.8l-1.87-13.58s4.35,1.74,7.48-.51l-1.25,13.9s-1.87,2.46-3.8,1.88C1177.17,548.29,1177.26,546.8,1177.26,546.8Z"/><path class="cls-20" d="M1148.23,467.58l-8.95,45.19s22.25,12.85,62.17.92l-12.39-48.86Z"/><polygon class="cls-21" points="1150.52 463.45 1182.18 461.84 1184.24 467.81 1150.06 471.48 1150.52 463.45"/><polygon class="cls-21" points="1148.38 516.23 1154.73 477.29 1151.21 516.9 1148.38 516.23"/><path class="cls-21" d="M1159.12,518.22l1.95.2,1.38.12-.69-41.26Z"/><polygon class="cls-21" points="1170.95 518.75 1174.38 518.58 1170.63 478.36 1170.95 518.75"/><polygon class="cls-21" points="1183.33 517.73 1186.46 517.2 1177.82 479.43 1183.33 517.73"/><polygon class="cls-21" points="1193.29 515.84 1195.71 515.25 1184.7 476.52 1193.29 515.84"/><polygon class="cls-19" points="1151.21 465.51 1187.45 462.3 1175.53 419.17 1167.11 414.89 1159.01 421.47 1151.21 465.51"/><polyline class="cls-22" points="1164.36 418.25 1164.36 431.79 1169.1 431.79 1169.71 418.1 1166.81 415.65 1164.21 417.64"/><path class="cls-23" d="M1205.81,327.87c1.38-5.74,16.52-19.27,23.17-15.37,5.74,3.21-1.61,9.86-3.44,12.85,3.21-.23,16.75-4.59,18.12.46,1.15,4.13-8.95,4.36-11.47,4.36,2.52.23,11,3.9,8.72,8-1.84,3.44-10.32,1.84-13.08.23.69,1.84,3.44,6.19,1.15,7.8s-8-1.61-10.09-2.75c-3.67-2.52-11.24-9.41-12.39-14"/><path class="cls-23" d="M1144.56,324.66c-.69-4.36-10.78-20.88-17.43-18.58-3.9,1.61,3.21,8.95,5,10.78-3.9-.92-15.37-5-15.83,2.29-.23,5.28,6.42,5,10.32,5-3.67.69-13.31,2.75-12.39,8.49,1.15,6.19,12.85-.46,15.37-3-2.06,1.61-8.72,6.88-7.34,10.32,1.84,4.36,9.41,0,11.24-1.61a80.57,80.57,0,0,0,11.7-11.7"/><path class="cls-24" d="M1146.91,323.44c1.14.88.17,4-2.16,7s-4.62,5.81-5.75,4.93-.69-5.11,1.64-8.11S1145.77,322.56,1146.91,323.44Z"/><path class="cls-24" d="M1211.25,339.17c-1.29.62-3.68-1.65-5.32-5.08s-3.12-6.73-1.83-7.35,5.57.68,7.21,4.11S1212.55,338.55,1211.25,339.17Z"/><path class="cls-25" d="M1175.37,396.84l-4,17.74a7.16,7.16,0,0,1-7-.61l-1.53-14.07Z"/><path class="cls-26" d="M1176,400.3s-2.92,4.87-12.44,6.24l-.64-5.78,1.45.13Z"/><path class="cls-27" d="M1203.21,328.48s11,6.12,9,33-20,26.46-20,26.46S1196.63,334.45,1203.21,328.48Z"/><path class="cls-28" d="M1152.43,318.85s-15.9,11.87-19.27,39.76c-3.24,26.78,12.21,26.63,12.21,26.63Z"/><path class="cls-29" d="M1142.29,364.8c0,5.85-4,10.6-9,10.6s-10.07-7.39-10.07-13.25a9.35,9.35,0,0,1,9.54-9.54C1137.73,352.61,1142.29,358.95,1142.29,364.8Z"/><path class="cls-30" d="M1136.9,365.38c0,2.79-1.92,5-4.29,5s-4.8-3.52-4.8-6.31a4.45,4.45,0,0,1,4.54-4.54C1134.72,359.57,1136.9,362.59,1136.9,365.38Z"/><path class="cls-31" d="M1136.9,365.38c0,2.79-1.92,5-4.29,5C1129,365.79,1136,363.61,1136.9,365.38Z"/><path class="cls-16" d="M1200.3,369.67c-1.77,6.52,1.28,13,6.83,14.53s13.45-5.19,15.23-11.71a10.8,10.8,0,0,0-7.74-13.51C1209.08,357.47,1202.08,363.15,1200.3,369.67Z"/><path class="cls-25" d="M1206.14,371.95c-.84,3.11.61,6.21,3.25,6.92s6.41-2.47,7.25-5.58a5.14,5.14,0,0,0-3.69-6.44C1210.32,366.13,1207,368.84,1206.14,371.95Z"/><path class="cls-32" d="M1206.14,371.95c-.84,3.11.61,6.21,3.25,6.92C1214.76,374.79,1207.68,370.25,1206.14,371.95Z"/><path class="cls-16" d="M1141.73,341.81s-17.56,45.31,15.6,57.86,49.92-19.84,48.55-53.35S1157.54,299.3,1141.73,341.81Z"/><path class="cls-33" d="M1165.64,388c-5.77.46-7.95-4.36-8.83-7.15-.46-1.45-1.82-6.28-.7-7.45.56-.73,3.37-.78,4.35-.92,2.52-.29,5.17-.39,7.56-.54,1.68,0,5.46-.73,6.87.15,1.68,1.17,1.4,5,1.12,6.72a9.91,9.91,0,0,1-4.2,6.79,11.73,11.73,0,0,1-6.17,2.41"/><path class="cls-34" d="M1165.64,388a7.45,7.45,0,0,1-4.75-1.09c2.42-5.8,11.2-5.85,13.82-4.42a10.49,10.49,0,0,1-2.91,3.1,11.73,11.73,0,0,1-6.17,2.41"/><path class="cls-25" d="M1170.56,390s-4.89,3.29-9.82-.17C1160.74,389.8,1165.2,396.39,1170.56,390Z"/><path class="cls-35" d="M1161.65,363.66c-.69,1-2.24,2.81-3.33,2.29-3.25-1.54,2.87-6.88,4.59-8.95,2.41-2.75,4.59-7.46,6-1.72.57,2.75,2.29,9.18.69,11.81-1.26,2.06-2.75-.23-3.21-1.84-.8,1-1.61,3.67-3.56,3-1.61-.57-1.26-2.75-1.26-4.13"/><path class="cls-36" d="M1192.77,355.66s-7.83-16.86-17.09-.8C1175.68,354.86,1182.72,361.51,1192.77,355.66Z"/><path class="cls-37" d="M1178.74,352.7a3.21,3.21,0,0,0,6.42.1,2.75,2.75,0,0,0-2.82-3C1180.57,349.74,1178.77,350.93,1178.74,352.7Z"/><path class="cls-38" d="M1181.24,353.92a1.19,1.19,0,0,0,1.22-2,1,1,0,0,0-1.49.35A1.24,1.24,0,0,0,1181.24,353.92Z"/><path class="cls-36" d="M1182.63,352.52a.83.83,0,0,0,.85-1.43.71.71,0,0,0-1,.24A.87.87,0,0,0,1182.63,352.52Z"/><path class="cls-36" d="M1181.5,353.82a.49.49,0,0,0-.55-.43.5.5,0,0,0-.44.55.42.42,0,0,0,.49.4A.52.52,0,0,0,1181.5,353.82Z"/><path class="cls-25" d="M1192.77,355.66s-8.86-11.94-17.09-.8a14,14,0,0,1,3-6.06c2.51-2.59,7.63-3.8,11.66,1.23A15.11,15.11,0,0,1,1192.77,355.66Z"/><path class="cls-36" d="M1144.28,354s8.16-16.71,17.1-.47C1161.38,353.52,1154.21,360,1144.28,354Z"/><path class="cls-37" d="M1148.11,350.83a3.21,3.21,0,0,0,6.39.66,2.75,2.75,0,0,0-2.55-3.26C1150.19,348,1148.29,349.07,1148.11,350.83Z"/><path class="cls-38" d="M1150.5,352.27a1.19,1.19,0,0,0,1.4-1.93,1,1,0,0,0-1.52.21A1.24,1.24,0,0,0,1150.5,352.27Z"/><path class="cls-36" d="M1152,351a.83.83,0,0,0,1-1.35.71.71,0,0,0-1.06.15A.87.87,0,0,0,1152,351Z"/><path class="cls-36" d="M1150.77,352.19a.49.49,0,0,0-.51-.48.5.5,0,0,0-.49.51.42.42,0,0,0,.45.44A.52.52,0,0,0,1150.77,352.19Z"/><path class="cls-25" d="M1144.28,354s9.09-11.76,17.1-.47a14,14,0,0,0-2.92-6.12c-2.46-2.64-7.55-3.95-11.68,1A15.1,15.1,0,0,0,1144.28,354Z"/><path class="cls-39" d="M1150.11,340c2,0,10.39.57,7.08-1.91-2.41-1.66-7.92-1.55-8.59,1.19.06.68,1.21.72,1.51.72"/><path class="cls-39" d="M1187.33,341c-2,0-10.39.57-7.08-1.91,2.41-1.66,7.92-1.55,8.59,1.19-.06.68-1.21.72-1.51.72"/><path class="cls-18" d="M1179.63,373.55a8.83,8.83,0,1,0,17.66,0c0-4.88-3.15-9.18-8-9.18S1179.63,368.67,1179.63,373.55Z"/><path class="cls-40" d="M1152.33,371.4c0-4.88-3.15-9.18-8-9.18a10,10,0,0,0-7.19,3.32,47.82,47.82,0,0,0,1.32,13.08,8.82,8.82,0,0,0,13.9-7.23Z"/><path class="cls-18" d="M1152.33,371.4c0-4.88-3.15-9.18-8-9.18a10,10,0,0,0-7.19,3.32,47.82,47.82,0,0,0,1.32,13.08,8.82,8.82,0,0,0,13.9-7.23Z"/><path class="cls-27" d="M1205,361.82a47.74,47.74,0,0,1-6-32.42l3.52-2.45S1217.12,345,1205,361.82Z"/><path class="cls-28" d="M1138.13,355s6.46-41.93,52.84-27c3,1,11.91,5.64,13.13,1.36s-11.87-24.95-40.62-16.08S1138.13,355,1138.13,355Z"/><path class="cls-41" d="M1163.9,412.14s1.07,2.6,3.21,2.75c0,0,.46,11.16-9.79,10.25C1157.33,425.14,1158.7,415.35,1163.9,412.14Z"/><path class="cls-41" d="M1172,411.53s-.15,3.06-4.89,3.36c0,0-.76,10.86,10.25,9.63C1177.36,424.53,1176.9,415.2,1172,411.53Z"/><ellipse class="cls-42" cx="1166.98" cy="423.16" rx="0.92" ry="0.95"/><ellipse class="cls-42" cx="1166.75" cy="428.89" rx="0.92" ry="0.95"/><ellipse class="cls-43" cx="1166.87" cy="422.53" rx="0.92" ry="0.95"/><ellipse class="cls-43" cx="1166.64" cy="428.26" rx="0.92" ry="0.95"/><path class="cls-17" d="M1163.9,412.14s-5.46,16.59-16.16,87.56a4.85,4.85,0,0,1-3.87,1.35c-3.08-.14-4-1.42-4-1.42s5.81-29.67,12.85-67c0,0-27.53,19-44.35-17.74l4.89-5.2S1131.94,440,1163.9,412.14Z"/><polygon class="cls-44" points="1108.08 416.42 1115.88 410.57 1113.24 406.79 1104.98 411.83 1108.08 416.42"/><path class="cls-17" d="M1172,411.53s30.36,14.3,35.63,50.77l-7.34,2.06s-4.59-22.25-17.66-32.35c0,0,18.81,44,23.4,65.61,0,0-11,4.43-21.33,2.14C1184.7,499.77,1175.37,440.81,1172,411.53Z"/><ellipse class="cls-45" cx="1176.74" cy="427.89" rx="1.26" ry="1.3"/><path class="cls-27" d="M1177.87,427.23a1.26,1.26,0,1,1-2.52,0,1.21,1.21,0,0,1,1.18-1.3A1.35,1.35,0,0,1,1177.87,427.23Z"/><path class="cls-46" d="M1177,428a.9.9,0,1,1-.87-1.59.87.87,0,0,1,1.22.29A1,1,0,0,1,1177,428Z"/><path class="cls-17" d="M1176.34,426.81c.06.1.07.2,0,.26a.2.2,0,0,1-.29,0,.22.22,0,0,1,0-.28A.17.17,0,0,1,1176.34,426.81Z"/><path class="cls-17" d="M1177.1,426.79c.06.1.07.2,0,.26a.2.2,0,0,1-.29,0,.22.22,0,0,1,0-.28A.17.17,0,0,1,1177.1,426.79Z"/><path class="cls-17" d="M1176.36,427.47c.06.1.07.2,0,.26a.2.2,0,0,1-.29,0,.22.22,0,0,1,0-.28A.17.17,0,0,1,1176.36,427.47Z"/><path class="cls-17" d="M1177,427.45c.06.1.07.2,0,.26a.2.2,0,0,1-.29,0,.22.22,0,0,1,0-.28A.17.17,0,0,1,1177,427.45Z"/><ellipse class="cls-45" cx="1179.58" cy="443.03" rx="1.26" ry="1.3"/><path class="cls-27" d="M1180.71,442.36a1.26,1.26,0,1,1-2.52,0,1.21,1.21,0,0,1,1.18-1.3A1.35,1.35,0,0,1,1180.71,442.36Z"/><path class="cls-46" d="M1179.89,443.16a.91.91,0,1,1-.87-1.59.87.87,0,0,1,1.22.29A1,1,0,0,1,1179.89,443.16Z"/><path class="cls-17" d="M1179.18,441.95c.06.1.07.2,0,.26a.2.2,0,0,1-.29,0,.22.22,0,0,1,0-.28A.17.17,0,0,1,1179.18,441.95Z"/><path class="cls-17" d="M1179.94,441.93c.06.1.07.2,0,.26a.2.2,0,0,1-.29,0,.22.22,0,0,1,0-.28A.17.17,0,0,1,1179.94,441.93Z"/><path class="cls-17" d="M1179.2,442.6c.06.1.07.2,0,.26a.2.2,0,0,1-.29,0,.22.22,0,0,1,0-.28A.17.17,0,0,1,1179.2,442.6Z"/><path class="cls-17" d="M1179.89,442.59c.06.1.07.2,0,.26a.2.2,0,0,1-.29,0,.22.22,0,0,1,0-.28A.17.17,0,0,1,1179.89,442.59Z"/><ellipse class="cls-45" cx="1187.23" cy="490.59" rx="1.26" ry="1.3"/><path class="cls-27" d="M1188.36,489.93a1.26,1.26,0,1,1-2.52,0,1.21,1.21,0,0,1,1.18-1.3A1.35,1.35,0,0,1,1188.36,489.93Z"/><path class="cls-46" d="M1187.54,490.72a.9.9,0,1,1-.87-1.59.87.87,0,0,1,1.22.29A1,1,0,0,1,1187.54,490.72Z"/><path class="cls-17" d="M1186.83,489.51c.06.1.07.2,0,.26a.2.2,0,0,1-.29,0,.22.22,0,0,1,0-.28A.17.17,0,0,1,1186.83,489.51Z"/><path class="cls-17" d="M1187.59,489.49c.06.1.07.2,0,.26a.2.2,0,0,1-.29,0,.22.22,0,0,1,0-.28A.17.17,0,0,1,1187.59,489.49Z"/><path class="cls-17" d="M1186.85,490.17c.06.1.07.2,0,.26a.2.2,0,0,1-.29,0,.22.22,0,0,1,0-.28A.17.17,0,0,1,1186.85,490.17Z"/><path class="cls-17" d="M1187.54,490.15c.06.1.07.2,0,.26a.2.2,0,0,1-.29,0,.22.22,0,0,1,0-.28A.17.17,0,0,1,1187.54,490.15Z"/><ellipse class="cls-45" cx="1184.45" cy="476.14" rx="1.26" ry="1.3"/><path class="cls-27" d="M1185.58,475.48a1.26,1.26,0,1,1-2.52,0,1.21,1.21,0,0,1,1.18-1.3A1.35,1.35,0,0,1,1185.58,475.48Z"/><path class="cls-46" d="M1184.75,476.27a.9.9,0,1,1-.87-1.59.87.87,0,0,1,1.22.29A1,1,0,0,1,1184.75,476.27Z"/><path class="cls-17" d="M1184,475.06c.06.1.07.2,0,.26a.2.2,0,0,1-.29,0,.22.22,0,0,1,0-.28A.17.17,0,0,1,1184,475.06Z"/><path class="cls-17" d="M1184.81,475c.06.1.07.2,0,.26a.2.2,0,0,1-.29,0,.22.22,0,0,1,0-.28A.17.17,0,0,1,1184.81,475Z"/><path class="cls-17" d="M1184.06,475.72c.06.1.07.2,0,.26a.2.2,0,0,1-.29,0,.22.22,0,0,1,0-.28A.17.17,0,0,1,1184.06,475.72Z"/><path class="cls-17" d="M1184.75,475.71c.06.1.07.2,0,.26a.2.2,0,0,1-.29,0,.22.22,0,0,1,0-.28A.17.17,0,0,1,1184.75,475.71Z"/><ellipse class="cls-45" cx="1182.45" cy="461.14" rx="1.26" ry="1.3"/><path class="cls-27" d="M1183.58,460.47a1.26,1.26,0,1,1-2.52,0,1.21,1.21,0,0,1,1.18-1.3A1.35,1.35,0,0,1,1183.58,460.47Z"/><path class="cls-46" d="M1182.76,461.27a.9.9,0,1,1-.87-1.59.87.87,0,0,1,1.22.29A1,1,0,0,1,1182.76,461.27Z"/><path class="cls-17" d="M1182.05,460.06c.06.1.07.2,0,.26a.2.2,0,0,1-.29,0,.22.22,0,0,1,0-.28A.17.17,0,0,1,1182.05,460.06Z"/><path class="cls-17" d="M1182.81,460c.06.1.07.2,0,.26a.2.2,0,0,1-.29,0,.22.22,0,0,1,0-.28A.17.17,0,0,1,1182.81,460Z"/><path class="cls-17" d="M1182.07,460.71c.06.1.07.2,0,.26a.2.2,0,0,1-.29,0,.22.22,0,0,1,0-.28A.17.17,0,0,1,1182.07,460.71Z"/><path class="cls-17" d="M1182.76,460.7c.06.1.07.2,0,.26a.2.2,0,0,1-.29,0,.22.22,0,0,1,0-.28A.17.17,0,0,1,1182.76,460.7Z"/><polygon class="cls-47" points="1219.87 439.18 1179.8 448.17 1186.69 482.99 1226.4 471.56 1219.87 439.18"/><polygon class="cls-48" points="1191.43 483.25 1188.22 481.88 1180.94 448.34 1184.62 449.17 1191.43 483.25"/><polygon class="cls-49" points="1223.85 440.56 1183.77 449.54 1191.28 484.67 1230.38 472.93 1223.85 440.56"/><polygon class="cls-50" points="1179.8 448.17 1183.77 449.54 1223.85 440.56 1219.87 439.18 1179.8 448.17"/><path class="cls-17" d="M1172,411.53s31.2,12.54,36.44,54.1l-7.34,2.06s-5.39-25.58-18.47-35.67Z"/><path class="cls-16" d="M1207.15,467.7c1.18,1.88,6.7,9.69,6.29,12.34-.19,1.24-.74,2-2.26.2.46,2.21-1.25,3.24-2.7.52-.18,2.72-1.13,3.25-2.55.72-.05.94-.31,2.59-1.31,2.31-2.33-.64-1.25-4.28-.84-6.46-1.5,2.74-4.6,4.33-4.78,2.47-.12-1.26,3.14-3.13,4-5.13.55-1.22.15-2.25.27-3.48.08-.81-.13-1.1.3-1.89s1.88-1.18,2.51-1.53Z"/><polygon class="cls-44" points="1198.81 466.66 1210.74 463.91 1211.89 468.26 1200.64 471.71 1198.81 466.66"/><path class="cls-16" d="M906.72,483.84s8.43-46.46,23.65-64.54l-9.37-5s-20.14,33.09-20.81,70.4Z"/><path class="cls-51" d="M940.45,578.3C938,582.19,928,589,930.39,590.57c3.23,2.08,12.44-4.47,15.06-9,1.53-2.63,1-5.11-.09-5.7s-2.75.71-4.29.92Z"/><path class="cls-16" d="M933.92,521.16l6.52,57.14s-.15,4.23,5.93-.26l4-56.77Z"/><path class="cls-18" d="M945.55,550.17a3.71,3.71,0,1,1-7.4.42c-.12-2,1.1-3.92,3.15-4A4.13,4.13,0,0,1,945.55,550.17Z"/><path class="cls-52" d="M940.45,578.3l-2.54-18.48s5.92,2.37,10.18-.69L946.37,578s-2.54,3.35-5.17,2.56C940.33,580.34,940.45,578.3,940.45,578.3Z"/><path class="cls-53" d="M937.78,559.15s5.62,3.28,10.22-.62c0,0,4.14,4.68-.7,2.81,0,0-1,4.37-2.89.39,0,0-.55,3.9-2.5.08,0,0-1,4.06-2.58-.23C939.34,561.57,934.82,564.7,937.78,559.15Z"/><path class="cls-51" d="M969.11,578.3c2.49,3.89,12.44,10.74,10.06,12.27-3.23,2.08-12.44-4.47-15.06-9-1.53-2.63-1-5.11.09-5.7s2.75.71,4.29.92Z"/><path class="cls-16" d="M975.63,521.16l-6.52,57.14s.15,4.23-5.93-.26l-4-56.77Z"/><path class="cls-18" d="M964,550.17a3.71,3.71,0,1,0,7.4.42c.12-2-1.1-3.92-3.15-4A4.13,4.13,0,0,0,964,550.17Z"/><path class="cls-52" d="M969.11,578.3l2.54-18.48s-5.92,2.37-10.18-.69L963.18,578s2.54,3.35,5.17,2.56C969.22,580.34,969.11,578.3,969.11,578.3Z"/><path class="cls-53" d="M971.77,559.15s-5.62,3.28-10.22-.62c0,0-4.14,4.68.7,2.81,0,0,1,4.37,2.89.39,0,0,.55,3.9,2.5.08,0,0,1,4.06,2.58-.23C970.21,561.57,974.74,564.7,971.77,559.15Z"/><path class="cls-41" d="M945.2,381.37s-17.64,9.05-29.5,37l11.76,8.95,6.66-11-.62,33.92L977.82,449l-3.54-35.8,6,7.91,12.33-5.67s-11.39-22.95-34.11-34.57Z"/><path class="cls-51" d="M895.4,362.38s5.41,1,12.17,1.66c.62-5.31,1.87-12.18,1.87-12.18L910.7,364c2.48.45,6.66,1.09,9.64,1.4l.87-7,1.27,7.06c1.28.09,3.21.2,4.57.27l.82-4,.51,3.93A406.52,406.52,0,0,0,982,364.35c.77-.07,2.51-5.31,2.51-5.31s1.74,4.89,2.71,4.79c4.67-.49,9.37-1,14-1.67l.62-12.18,2.81,11.86c2.34-.35,6.82-1.38,9.16-1.77,0,0,8.32-105.62-57.23-110.31S889.47,341.36,895.4,362.38Z"/><polygon class="cls-25" points="959.58 359.13 955.63 383.17 948.03 383.69 943.77 360.17 959.58 359.13"/><path class="cls-26" d="M958.18,367.71s-5.33,10.46-13,.47l-.23-1.3S957.27,367.11,958.18,367.71Z"/><path class="cls-16" d="M912.42,297.89s-11.7,60.82,32.75,69,58.09-36.26,48.73-78S922.55,241,912.42,297.89Z"/><path class="cls-35" d="M951.2,321.17c-.42,1.64-1.61,4.62-3.23,4.45-4.87-.51.56-10.13,1.84-13.56,1.84-4.62,3.63-10.33,7.1-3.12,3.9,8.12,6.71,13.42,5.46,14.67-2.33,2.33-3.9-.16-4.4-2.51-.56,1.69-.4,5.44-3.21,5.44-2.32,0-2.87-3-3.49-4.73"/><path class="cls-36" d="M968.42,307.93s.41-25,19.67-9.23C988.09,298.7,983.29,310.45,968.42,307.93Z"/><path class="cls-54" d="M980.7,298.51a4.37,4.37,0,0,1-8,3.46,3.74,3.74,0,0,1,2-5.27C976.87,295.74,979.75,296.29,980.7,298.51Z"/><path class="cls-51" d="M978.19,301.34a1.62,1.62,0,0,1-2.6-1.94,1.38,1.38,0,0,1,2.06-.34A1.68,1.68,0,0,1,978.19,301.34Z"/><path class="cls-36" d="M978.67,299.47a1.13,1.13,0,0,1-1.81-1.35,1,1,0,0,1,1.44-.24A1.18,1.18,0,0,1,978.67,299.47Z"/><path class="cls-36" d="M975.68,302a.66.66,0,0,1,.46-.83.69.69,0,0,1,.84.47.57.57,0,0,1-.4.76A.71.71,0,0,1,975.68,302Z"/><path class="cls-25" d="M968.42,307.93s4.18-19.26,19.67-9.23c0,0-2.83-4.29-6.73-6.15-4.3-2-10.94-1.11-13.07,7.15A21.3,21.3,0,0,0,968.42,307.93Z"/><path class="cls-36" d="M943.24,309.18s-.41-25-19.67-9.23C923.57,299.95,928.37,311.7,943.24,309.18Z"/><path class="cls-54" d="M931,299.75a4.37,4.37,0,0,0,8,3.46,3.74,3.74,0,0,0-2-5.27C934.79,297,931.91,297.54,931,299.75Z"/><path class="cls-51" d="M933.47,302.59a1.62,1.62,0,0,0,2.6-1.94,1.38,1.38,0,0,0-2.06-.34A1.68,1.68,0,0,0,933.47,302.59Z"/><path class="cls-36" d="M934.82,300.64a1.13,1.13,0,0,0,1.81-1.35,1,1,0,0,0-1.44-.24A1.18,1.18,0,0,0,934.82,300.64Z"/><path class="cls-36" d="M934.38,302.83a.66.66,0,0,0-.46-.83.69.69,0,0,0-.84.47.57.57,0,0,0,.4.76A.71.71,0,0,0,934.38,302.83Z"/><path class="cls-25" d="M943.24,309.18s-4.18-19.26-19.67-9.23c0,0,2.83-4.29,6.73-6.15,4.3-2,10.94-1.11,13.07,7.15A21.3,21.3,0,0,1,943.24,309.18Z"/><path class="cls-51" d="M979.14,286.14c-2.65-.55-14-2.43-8.8-4.7,3.71-1.46,11,.38,11,4.21-.29.88-1.82.58-2.23.49"/><path class="cls-51" d="M939.57,285.14c-2.64.58-13.72,3.52-10-.67,2.78-2.85,10.16-4.16,11.78-.69.1.92-1.42,1.27-1.83,1.36"/><path class="cls-33" d="M942.23,332.8s12,5.78,24.66-.47C966.89,332.34,954.66,343.11,942.23,332.8Z"/><path class="cls-25" d="M948.15,340.47s7.07,3.58,13.17-.86C961.32,339.61,955.18,348.12,948.15,340.47Z"/><path class="cls-51" d="M911.11,310s5.73-39.42,32.37-44.62,48.36,7.58,53.15,44c0,0,5.34-33.18-21.1-49.2S908.31,259.15,911.11,310Z"/><path class="cls-53" d="M910.39,311s-1.87-48.28,36.84-51.61,52.86,28.1,51.2,51.41l2.71-.42s3.54-56-46.83-55.36-47.45,52.24-46.41,55.57Z"/><path class="cls-16" d="M917.55,321c1.74,8.44-2.66,16.47-9.83,18s-16.71-7.66-18.45-16.09a13.76,13.76,0,0,1,10.9-16.59C907.35,304.76,915.81,312.53,917.55,321Z"/><path class="cls-25" d="M910,323.41c.83,4-1.26,7.85-4.68,8.55s-8-3.65-8.79-7.67a6.56,6.56,0,0,1,5.2-7.9C905.09,315.69,909.13,319.39,910,323.41Z"/><path class="cls-32" d="M910,323.41c.83,4-1.26,7.85-4.68,8.55C898.76,326.35,908.13,321.13,910,323.41Z"/><path class="cls-16" d="M988.5,321.68c-1.74,8.43,2.66,16.47,9.83,18s16.71-7.66,18.45-16.09A13.76,13.76,0,0,0,1005.88,307C998.71,305.48,990.25,313.25,988.5,321.68Z"/><path class="cls-25" d="M996.1,324.12c-.83,4,1.27,7.85,4.68,8.56s8-3.65,8.79-7.67a6.56,6.56,0,0,0-5.2-7.9C1001,316.4,996.93,320.1,996.1,324.12Z"/><path class="cls-32" d="M996.1,324.12c-.83,4,1.27,7.85,4.68,8.56C1007.3,327.06,997.93,321.84,996.1,324.12Z"/><path class="cls-18" d="M936.76,325.11a9.74,9.74,0,1,1-19.49,0c0-5.38,3.48-10.12,8.86-10.12S936.76,319.73,936.76,325.11Z"/><path class="cls-18" d="M990.06,325.21a9.74,9.74,0,1,1-19.49,0c0-5.38,3.48-10.12,8.86-10.12S990.06,319.82,990.06,325.21Z"/><path class="cls-19" d="M946.91,379s3.75,6.24,9.68-.16l2,2s-5.62,7.49-13.35.55Z"/><polygon class="cls-19" points="980.32 422.31 993.58 415.71 992.54 413.42 978.86 420.65 980.32 422.31"/><polygon class="cls-19" points="928.3 427.1 915.23 417.42 914.18 419.09 927.09 428.94 928.3 427.1"/><path class="cls-53" d="M955.32,423.69c-5.56-4-8.9-8.47-10.15-13.58-.48-1.71-1.78-7.61.41-8.89,4.61-2.75,7.59,8.09,9.06,10.51.2-5,9.2-17.82,9.31-6.54.25,7.12-3.5,13-8.63,18.5"/><polygon class="cls-55" points="933.49 450.2 977.82 448.95 980 456.45 932.24 456.45 933.49 450.2"/><path class="cls-56" d="M910.39,509.83l21.85-53.38H980L1006.23,512S952.84,546,910.39,509.83Z"/><path class="cls-41" d="M936.18,464.32c-.06-.36-.54-1.45.24-1.45.54,0,.42,1.09.42,1.54.21-.39,2-1.27,1.75-.27-.09.42-1,.63-1.36.63.39.24,1,1,.36,1.3s-.93-.29-1-.75c-.15.45-.7,1.41-1.25.87s.24-1.12.6-1.39c-.52,0-1.88-.26-1.29-.93.45-.51,1.26.11,1.56.44"/><path class="cls-41" d="M931,478.47c-.06-.36-.54-1.45.24-1.45.54,0,.42,1.09.42,1.54.21-.39,2-1.27,1.75-.27-.09.42-1,.63-1.36.63.39.24,1,1,.36,1.3s-.93-.29-1-.74c-.15.45-.7,1.41-1.25.87s.24-1.12.6-1.39c-.52,0-1.88-.26-1.29-.92.45-.51,1.26.11,1.56.44"/><path class="cls-41" d="M942,473.47c-.06-.36-.54-1.45.24-1.45.54,0,.42,1.09.42,1.54.21-.39,2-1.27,1.75-.27-.09.42-1,.63-1.36.63.39.24,1,1,.36,1.3s-.93-.29-1-.74c-.15.45-.7,1.41-1.25.87s.24-1.12.6-1.39c-.52,0-1.88-.26-1.29-.92.45-.51,1.26.11,1.56.44"/><path class="cls-41" d="M924.5,493.82c-.06-.36-.54-1.45.24-1.45.54,0,.42,1.09.42,1.54.21-.39,2-1.27,1.75-.27-.09.42-1,.63-1.36.63.39.24,1,1,.36,1.3s-.93-.29-1-.74c-.15.45-.7,1.41-1.25.86s.24-1.12.6-1.39c-.52,0-1.88-.26-1.29-.93.45-.51,1.26.11,1.56.44"/><path class="cls-41" d="M939.49,487.78c-.06-.36-.54-1.45.24-1.45.54,0,.42,1.09.42,1.54.21-.39,2-1.27,1.75-.27-.09.42-1,.63-1.36.63.39.24,1,1,.36,1.3s-.93-.29-1-.74c-.15.45-.7,1.41-1.25.87s.24-1.12.6-1.39c-.52,0-1.88-.26-1.29-.92.45-.51,1.26.11,1.56.44"/><path class="cls-41" d="M919.92,508.18c-.06-.36-.54-1.45.24-1.45.54,0,.42,1.09.42,1.54.21-.39,2-1.27,1.75-.27-.09.42-1,.63-1.36.63.39.24,1,1,.36,1.3s-.93-.29-1-.74c-.15.45-.7,1.41-1.25.86s.24-1.12.6-1.39c-.52,0-1.88-.26-1.29-.93.45-.51,1.26.11,1.56.44"/><path class="cls-41" d="M935.53,503.81c-.06-.36-.54-1.45.24-1.45.54,0,.42,1.09.42,1.54.21-.39,2-1.27,1.75-.27-.09.42-1,.63-1.36.63.39.24,1,1,.36,1.3s-.93-.29-1-.74c-.15.45-.7,1.41-1.25.86s.24-1.12.6-1.39c-.52,0-1.88-.26-1.29-.93.45-.51,1.26.11,1.56.44"/><path class="cls-41" d="M950.93,500.69c-.06-.36-.54-1.45.24-1.45.54,0,.42,1.09.42,1.54.21-.39,2-1.27,1.75-.27-.09.42-1,.63-1.36.63.39.24,1,1,.36,1.3s-.93-.29-1-.74c-.15.45-.7,1.41-1.25.86s.24-1.12.6-1.39c-.52,0-1.88-.26-1.29-.93.45-.51,1.26.11,1.56.44"/><path class="cls-41" d="M953.61,462.81c-.06-.36-.54-1.45.24-1.45.54,0,.42,1.09.42,1.54.21-.39,2-1.27,1.75-.27-.09.42-1,.63-1.36.63.39.24,1,1,.36,1.3s-.93-.29-1-.74c-.15.45-.7,1.41-1.25.87s.24-1.12.6-1.39c-.52,0-1.88-.26-1.29-.92.45-.51,1.26.11,1.56.44"/><path class="cls-41" d="M954.26,483.2c-.06-.36-.54-1.45.24-1.45.54,0,.42,1.09.42,1.54.21-.39,2-1.27,1.75-.27-.09.42-1,.63-1.36.63.39.24,1,1,.36,1.3s-.93-.29-1-.74c-.15.45-.7,1.41-1.25.86s.24-1.12.6-1.39c-.52,0-1.88-.26-1.29-.93.45-.51,1.26.11,1.56.44"/><path class="cls-41" d="M944.06,515c-.06-.36-.54-1.45.24-1.45.54,0,.42,1.09.42,1.54.21-.39,2-1.27,1.75-.27-.09.42-1,.63-1.36.63.39.24,1,1,.36,1.3s-.93-.29-1-.74c-.15.45-.7,1.41-1.25.86s.24-1.12.6-1.39c-.52,0-1.88-.26-1.29-.93.45-.51,1.26.11,1.56.44"/><path class="cls-41" d="M963.67,517.22c-.06-.36-.54-1.45.24-1.45.54,0,.42,1.09.42,1.54.21-.39,2-1.27,1.75-.27-.09.42-1,.63-1.36.63.39.24,1,1,.36,1.3s-.93-.29-1-.74c-.15.45-.7,1.41-1.25.87s.24-1.12.6-1.39c-.52,0-1.88-.26-1.29-.92.45-.51,1.26.11,1.56.44"/><path class="cls-41" d="M963.21,494.44c-.06-.36-.54-1.45.24-1.45.54,0,.42,1.09.42,1.54.21-.39,2-1.27,1.75-.27-.09.42-1,.63-1.36.63.39.24,1,1,.36,1.3s-.93-.29-1-.74c-.15.45-.7,1.41-1.25.86s.24-1.12.6-1.39c-.52,0-1.88-.26-1.29-.93.45-.51,1.26.11,1.56.44"/><path class="cls-41" d="M962.8,469.88c-.06-.36-.54-1.45.24-1.45.54,0,.42,1.09.42,1.54.21-.39,2-1.27,1.75-.27-.09.42-1,.63-1.36.63.39.24,1,1,.36,1.3s-.93-.29-1-.75c-.15.45-.7,1.41-1.25.87s.24-1.12.6-1.39c-.52,0-1.88-.26-1.29-.93.45-.51,1.26.11,1.56.44"/><path class="cls-41" d="M973.41,461.77c-.06-.36-.54-1.45.24-1.45.54,0,.42,1.09.42,1.54.21-.39,2-1.27,1.75-.27-.09.42-1,.63-1.36.63.39.24,1,1,.36,1.3s-.93-.29-1-.75c-.15.45-.7,1.41-1.25.87s.24-1.12.6-1.39c-.52,0-1.88-.26-1.29-.93.45-.51,1.26.11,1.56.44"/><path class="cls-41" d="M980.46,473.75c-.06-.36-.54-1.45.24-1.45.54,0,.42,1.09.42,1.54.21-.39,2-1.27,1.75-.27-.09.42-1,.63-1.36.63.39.24,1,1,.36,1.3s-.93-.29-1-.74c-.15.45-.7,1.41-1.25.87s.24-1.12.6-1.39c-.52,0-1.88-.26-1.29-.93.45-.51,1.26.11,1.56.44"/><path class="cls-41" d="M970.91,483.83c-.06-.36-.54-1.45.24-1.45.54,0,.42,1.09.42,1.54.21-.39,2-1.27,1.75-.27-.09.42-1,.63-1.36.63.39.24,1,1,.36,1.3s-.93-.29-1-.74c-.15.45-.7,1.41-1.25.86s.24-1.12.6-1.39c-.52,0-1.88-.26-1.29-.93.45-.51,1.26.11,1.56.44"/><path class="cls-41" d="M987.56,493.19c-.06-.36-.54-1.45.24-1.45.54,0,.42,1.09.42,1.54.21-.39,2-1.27,1.75-.27-.09.42-1,.63-1.36.63.39.24,1,1,.36,1.3s-.93-.29-1-.74c-.15.45-.7,1.41-1.25.86s.24-1.12.6-1.39c-.52,0-1.88-.26-1.29-.93.45-.51,1.26.11,1.56.44"/><path class="cls-41" d="M972.37,503.81c-.06-.36-.54-1.45.24-1.45.54,0,.42,1.09.42,1.54.21-.39,2-1.27,1.75-.27-.09.42-1,.63-1.36.63.39.24,1,1,.36,1.3s-.93-.29-1-.74c-.15.45-.7,1.41-1.25.86s.24-1.12.6-1.39c-.52,0-1.88-.26-1.29-.93.45-.51,1.26.11,1.56.44"/><path class="cls-41" d="M995.89,508.59c-.06-.36-.54-1.45.24-1.45.54,0,.42,1.09.42,1.54.21-.39,2-1.27,1.75-.27-.09.42-1,.63-1.36.63.39.24,1,1,.36,1.3s-.93-.29-1-.75c-.15.45-.7,1.41-1.25.87s.24-1.12.6-1.39c-.52,0-1.88-.26-1.29-.93.45-.51,1.26.11,1.56.44"/><path class="cls-41" d="M981.32,513c-.06-.36-.54-1.45.24-1.45.54,0,.42,1.09.42,1.54.21-.39,2-1.27,1.75-.27-.09.42-1,.63-1.36.63.39.24,1,1,.36,1.3s-.93-.29-1-.75c-.15.45-.7,1.41-1.25.87s.24-1.12.6-1.39c-.52,0-1.88-.26-1.29-.93.45-.51,1.26.11,1.56.44"/><path class="cls-57" d="M1015.91,499.94c5,7.08,8.33,16.65,9.78,25.18,1.46,7.7,2.7,18.94.21,26.43-2.08,5.83-5.9,5.66-6.87-.42-.83-5.2-.83-17.27-2.29-22.69-.83,10.41-4.16,25.18-6.45,35.38-.62,2.91-2.29,11-6.66,11.45-5.41.62-4.4-18.84-8.53-19.35-2.81-.35-6.66,23.72-10,15.4-3.75-8.95-2.19-30.8-.1-39.33,3.54-14.57,12.38-27.26,28.2-31.22"/><path class="cls-16" d="M991.35,415.24s17.77,33,.68,63.69l-4.73-6.87s10.09-22.89-5.1-52.24Z"/><path class="cls-37" d="M892.7,513.26s1,26.85,2.71,29.55,23.73,1.67,23.73,1.67l10.4-18.31.83-37-6.55-4-24.25,12.69Z"/><path class="cls-58" d="M923.81,485.17l10.93.94s6.56,57.75-15.61,58.38C919.13,544.48,927.56,508.58,923.81,485.17Z"/><polygon class="cls-37" points="939.73 384.64 934.11 493.6 928.18 492.97 933.8 389.01 939.73 384.64"/><polygon class="cls-59" points="927.14 491.72 934.74 492.35 934.63 495.05 927.14 494.64 927.14 491.72"/><path class="cls-60" d="M923.81,485.17l-31.32,2.5-5.41,27.47s17.07,2.7,33.09-.42A262.73,262.73,0,0,0,923.81,485.17Z"/><polygon class="cls-59" points="914.02 512.66 913.52 520.27 910.82 520.21 911.11 512.71 914.02 512.66"/><polygon class="cls-59" points="899.87 513.5 899.37 521.1 896.66 521.04 896.96 513.54 899.87 513.5"/><path class="cls-16" d="M907,475.31c.07,1.86-.17,3.06-.26,5-.06.65-.38,3,0,3.56.43.76,2.52,1.89,3.39,2.32,1.8.85,3.4,1.12,4.71,2.67s1.28,3.09-1.26,2.48a11.56,11.56,0,0,1-4.72-2.05,41.66,41.66,0,0,1,1.11,8.62c0,1.08.25,4.07-1,3.83-3.18-.62-2.88-6.07-3.21-9.28,0,.81.68,11.64-2.57,10.28-1.56-.66-.19-9.1-.32-10.59-.69,3.1-.77,10.25-4.19,9.73-1.81-.28.57-9.26,1.09-11-1.25,1.67-2.14,5.82-4.36,6.46-1.81.5-1.72-.88-1.5-2.39,1-4.72,4.42-6.86,6.73-10.74.91-1.52,1.15-6.4,1.08-7.19-.16-1.3-.86-2.32-.1-3.56.6-1.19,6.27-.88,5.58,1.41"/><path class="cls-41" d="M997.54,498.54c-.78-4.61-5.16-9.3-7.58-13.17-2.29-3.42-4.38-6.81-8-8.8-2.29-1.3-4.17-2.52-5.71-.07s0,3.36,1.36,4.94c5.49,6.55,8.72,16.52,12.08,23.13.94,1.67.75,1,2.83,1.25,1.88.16,4.77-3.72,5.54-5.48"/><path class="cls-16" d="M994.47,473.56c-1.28,2.73-6.14,14.8-9.48,16.3-1.56.7-2.85.63-1.89-2.44-2.19,2.16-4.62,1-2.59-2.71-3.24,1.8-4.55,1.1-2.7-2.38-1.12.64-3.19,1.56-3.61.21-1-3.14,4-4.58,6.76-5.73-4.24.3-8.34-2.07-6.35-3.65,1.35-1.07,5.89,1.28,8.85.84,1.81-.27,2.69-1.48,4.18-2.25,1-.51,1.16-1,2.38-1,1-.09,2.73,1.28,3.6,1.74Z"/><path class="cls-61" d="M1015.07,492c5.62-3.75,10.2-6.45,14.15-9.78a149.25,149.25,0,0,0,15.19-15.19c2.29-2.91,10.61-15.4.62-13.11-8.12,1.67-17.27,12.9-21.64,19.15-4.16,6-8.95,12.9-11.86,19.56"/><path class="cls-61" d="M1004,488.71c-1.66-6.66.42-23.31,3.54-31.43,1.87-5.2,4.79-10.61,8.95-14.36,6.24-5.41,2.71,6.87,2.08,9.37-2.91,9-5.2,18.11-8.33,27.06-1.25,3.33-1.46,10.2-6.24,9.37"/><path class="cls-62" d="M1036.69,466.73c.83.76-.12,3.28-.79,4s-16.28,15.85-17.12,15.1,13.43-17.1,14.1-17.84S1035.85,466,1036.69,466.73Z"/><path class="cls-62" d="M1012.47,454.89c1.11.2.29,3.87.08,4.84s-5.74,21.35-6.84,21.11,1.3-18.92,3.36-22.49C1009.57,457.49,1010.75,454.57,1012.47,454.89Z"/><path class="cls-41" d="M1007,533.31c-1.2,6.73-6.27,12.69-11.3,11.8s-8.13-8.32-6.93-15.05,6.89-12.69,11.93-11.8S1008.22,526.58,1007,533.31Z"/><g class="cls-63"><path class="cls-64" d="M1005.08,486.62c-8.95,5.62-19.56,20.86-11.45,31.89,5.41,7.28,15.74,5.51,20.94-.73,4.37-5.41,4.55-13.94,2.26-20.19-1.87-5.41-2.19-10.15-11.76-11"/></g><path class="cls-61" d="M1004.46,484.34c-8.95,5.62-20.4,20.6-12.28,31.63,5.41,7.28,16.65,5,21.85-1.25a20.76,20.76,0,0,0,3.12-19.56c-1.87-5.41-3.12-10-12.7-10.82"/><path class="cls-53" d="M942.81,564.62a.44.44,0,0,1-.87.05.42.42,0,0,1,.37-.48A.49.49,0,0,1,942.81,564.62Z"/><path class="cls-53" d="M946.52,565.59a.44.44,0,0,1-.87.05.42.42,0,0,1,.37-.48A.49.49,0,0,1,946.52,565.59Z"/><path class="cls-53" d="M940.86,566.86a.44.44,0,0,1-.87.05.42.42,0,0,1,.37-.47A.48.48,0,0,1,940.86,566.86Z"/><path class="cls-53" d="M946.1,568.74a.44.44,0,0,1-.87,0,.42.42,0,0,1,.37-.47A.49.49,0,0,1,946.1,568.74Z"/><path class="cls-53" d="M943.29,569.44a.44.44,0,0,1-.87,0,.42.42,0,0,1,.37-.47A.49.49,0,0,1,943.29,569.44Z"/><path class="cls-53" d="M945.54,573.31a.44.44,0,0,1-.87.05.42.42,0,0,1,.37-.48A.49.49,0,0,1,945.54,573.31Z"/><path class="cls-53" d="M941.95,571.44a.44.44,0,0,1-.87.05.42.42,0,0,1,.37-.48A.49.49,0,0,1,941.95,571.44Z"/><path class="cls-53" d="M942.54,575.7a.44.44,0,0,1-.87.05.42.42,0,0,1,.37-.48A.49.49,0,0,1,942.54,575.7Z"/><path class="cls-53" d="M945.2,577.42a.44.44,0,0,1-.87.05.42.42,0,0,1,.37-.48A.49.49,0,0,1,945.2,577.42Z"/><path class="cls-53" d="M967.52,578.67a.44.44,0,0,1-.87.05.42.42,0,0,1,.37-.48A.49.49,0,0,1,967.52,578.67Z"/><path class="cls-53" d="M965.33,576.32a.44.44,0,0,1-.87.05.42.42,0,0,1,.37-.48A.49.49,0,0,1,965.33,576.32Z"/><path class="cls-53" d="M942.54,578.67a.44.44,0,0,1-.87.05.42.42,0,0,1,.37-.48A.49.49,0,0,1,942.54,578.67Z"/><path class="cls-53" d="M968.14,574.29a.44.44,0,0,1-.87.05.42.42,0,0,1,.37-.48A.49.49,0,0,1,968.14,574.29Z"/><path class="cls-53" d="M964.71,572.73a.44.44,0,0,1-.87.05.42.42,0,0,1,.37-.48A.49.49,0,0,1,964.71,572.73Z"/><path class="cls-53" d="M968.3,570.7a.44.44,0,0,1-.87.05.42.42,0,0,1,.37-.48A.49.49,0,0,1,968.3,570.7Z"/><path class="cls-53" d="M966.11,569.46a.44.44,0,0,1-.87.05.42.42,0,0,1,.37-.48A.49.49,0,0,1,966.11,569.46Z"/><path class="cls-53" d="M964.24,566.33a.44.44,0,0,1-.87.05.42.42,0,0,1,.37-.48A.49.49,0,0,1,964.24,566.33Z"/><path class="cls-53" d="M968.77,567.27a.44.44,0,0,1-.87.05.42.42,0,0,1,.37-.48A.49.49,0,0,1,968.77,567.27Z"/><path class="cls-53" d="M966.74,564.93a.44.44,0,0,1-.87.05.42.42,0,0,1,.37-.48A.49.49,0,0,1,966.74,564.93Z"/><path class="cls-53" d="M970,564.77a.44.44,0,0,1-.87.05.42.42,0,0,1,.37-.48A.49.49,0,0,1,970,564.77Z"/><path class="cls-33" d="M994,514.88s1.57,2.28,3.31-.33c0,0-.16,4.05,2.63,1.48,0,0-2.3,4.19-3.08-.4C996.87,515.63,994.44,518.17,994,514.88Z"/><path class="cls-51" d="M1009.51,506.65c0,.86-.45,1.56-1,1.56s-1.22-1.11-1.22-2a1.11,1.11,0,0,1,1.22-1.15C1009.05,505.09,1009.51,505.79,1009.51,506.65Z"/><path class="cls-51" d="M996.82,502.92c-.79.35-1.61.22-1.84-.29s.52-1.57,1.31-1.92a1.11,1.11,0,0,1,1.55.65C998.06,501.86,997.61,502.56,996.82,502.92Z"/><path class="cls-18" d="M1010.45,513.94a2.87,2.87,0,0,1-5.74,0,2.76,2.76,0,0,1,2.61-3A3.2,3.2,0,0,1,1010.45,513.94Z"/><path class="cls-18" d="M994.47,509.15a2.2,2.2,0,0,1-3.53-2.63,2.12,2.12,0,0,1,3-.64A2.46,2.46,0,0,1,994.47,509.15Z"/><path class="cls-65" d="M1002.63,512.94c-.34.94-3.13,1.63-5.29.86s-2.88-2.7-2.55-3.64,2.36-1.08,4.52-.31S1003,512,1002.63,512.94Z"/><polygon class="cls-53" points="979.69 262.48 983.02 244.16 991.76 248.32 983.86 263.73 995.93 254.98 1000.5 264.56 984.27 268.31 979.69 262.48"/><path class="cls-66" d="M728.28,433s-18.74,49.45,16.86,41.17c3.6-.84,14.23-3.94,14.23-3.94L749.3,425.14Z"/><path class="cls-16" d="M763.38,544.38l.13-3.43,4.21-.4.51,3.07S769.26,548,763.38,544.38Z"/><path class="cls-36" d="M768.24,543.61c2.94.22,10,1.21,12.39,2.85,2.94,2.08.38,2.85-2.17,2.85-3.32,0-15.58-.44-15.07-4.93,2.77,1.17,5.15.66,4.85-.77"/><path class="cls-36" d="M770.17,544.2c0-.81-.14-1.61-.17-2.42a3.3,3.3,0,0,1,.21-1.17,2.61,2.61,0,0,1,.21-.46q.77-.08.71.49c.2,1.31-.53,2.39-1.07,3.54-.1.21.31.35.42.15A10.14,10.14,0,0,1,773.9,541c.29-.18.84-.47.89,0s-.7,1.18-1.1,1.54a5.48,5.48,0,0,1-3.41,1.47c-.29,0-.3.42,0,.39a6.25,6.25,0,0,0,3.92-1.74c.49-.43,1.74-1.81.66-2.29-.77-.35-1.91.74-2.36,1.12a10.37,10.37,0,0,0-2.41,2.62l.42.15c.56-1.19,2.11-3.68.46-4.74-.55-.35-1,.49-1.13.78-.57,1.25-.08,2.58-.13,3.87,0,.25.45.25.46,0Z"/><path class="cls-16" d="M764.41,488.65s-2.3,37.56-1,55.73c0,0,3,.88,4.85-.77,0,0,2.3-40.73,10-49.05Z"/><path class="cls-16" d="M769.3,522.51a2.07,2.07,0,0,0-2.14,2.09,2.2,2.2,0,0,0,2.35,2l.27,0c.15-1.27.32-2.58.49-3.9A2.78,2.78,0,0,0,769.3,522.51Z"/><path class="cls-18" d="M769.3,522.51a2.07,2.07,0,0,0-2.14,2.09,2.2,2.2,0,0,0,2.35,2l.27,0c.15-1.27.32-2.58.49-3.9A2.78,2.78,0,0,0,769.3,522.51Z"/><path class="cls-16" d="M777.18,539.56l.13-3.43,4.21-.4.51,3.07S783.05,543.16,777.18,539.56Z"/><path class="cls-36" d="M782,538.79c2.94.22,10,1.21,12.39,2.85,2.94,2.08.38,2.85-2.17,2.85-3.32,0-15.58-.44-15.07-4.93,2.77,1.17,5.15.66,4.85-.77"/><path class="cls-36" d="M784,539.67c0-.81-.14-1.61-.17-2.42a3.32,3.32,0,0,1,.21-1.17,2.64,2.64,0,0,1,.21-.46c.51-.05.75.11.71.49.2,1.3-.53,2.38-1.07,3.54-.1.21.31.35.42.15a10.15,10.15,0,0,1,3.42-3.34c.29-.18.84-.47.89,0s-.7,1.18-1.1,1.54a5.49,5.49,0,0,1-3.41,1.47c-.29,0-.3.41,0,.39a6.25,6.25,0,0,0,3.92-1.74c.49-.43,1.74-1.81.66-2.29-.77-.35-1.91.74-2.36,1.12a10.39,10.39,0,0,0-2.41,2.62l.42.15c.56-1.19,2.11-3.68.46-4.74-.55-.35-1,.49-1.13.78-.57,1.25-.08,2.58-.13,3.87,0,.25.45.25.46,0Z"/><path class="cls-16" d="M778.2,483.83s-2.3,37.56-1,55.73c0,0,3,.88,4.85-.77,0,0,2.3-40.73,10-49.05Z"/><path class="cls-16" d="M783.09,517.69a2.07,2.07,0,0,0-2.14,2.09,2.2,2.2,0,0,0,2.35,2l.27,0c.15-1.27.32-2.58.49-3.9A2.79,2.79,0,0,0,783.09,517.69Z"/><path class="cls-18" d="M783.09,517.69a2.07,2.07,0,0,0-2.14,2.09,2.2,2.2,0,0,0,2.35,2l.27,0c.15-1.27.32-2.58.49-3.9A2.79,2.79,0,0,0,783.09,517.69Z"/><path class="cls-67" d="M778.71,511s6.9,1.53,11.75-.22c0,0,1.28-18.39-1.79-34.16l-9.45,4.16Z"/><path class="cls-68" d="M757.76,479l.25,37.67s8.17,4.82,20.18.88c0,0,8.17-20.15,8.43-39Z"/><path class="cls-69" d="M757.41,474.63s-2.41,4.74,6.13,7.45c8.27,2.62,29.13,3.07,29.35-12.48Z"/><path class="cls-70" d="M824.64,422.29s-15.33-33.07-4.38-53.33c0,0,16.21,8.43,21.24,47.19,0,0-4.82,7.23-16.86,6.13"/><path class="cls-70" d="M836.18,392.8a7,7,0,0,1-12.4-4.52c0-3.88,2.51-7.3,6.39-7.3a6.69,6.69,0,0,1,.69,0c-5.41-9.35-10.6-12.06-10.6-12.06-10.95,20.26,4.38,53.33,4.38,53.33,12,1.09,16.86-6.13,16.86-6.13A114.85,114.85,0,0,0,836.18,392.8Z"/><path class="cls-71" d="M821,380.24s.74,24.45,8.42,36l-3.5.44s-6.44-9.1-6.88-37.35Z"/><path class="cls-16" d="M821.46,394.7c-2.45-.84-7.56-1.2-8.21,1.86-.66,3.39,1.42,5.8,3.61,8.1a22.94,22.94,0,0,1-2.52,3.18l-.66.77a25.45,25.45,0,0,0,3,4.05,10.52,10.52,0,0,0,3.5-2.74,3.08,3.08,0,0,0,.88-2.19s-.88-5.51-2.52-7.92C822.34,401.78,832,398.31,821.46,394.7Z"/><path class="cls-54" d="M813.47,417.8s5.93-2.34,4.57-6.19-4.43-6-7.06-2.95S813.47,417.8,813.47,417.8Z"/><path class="cls-69" d="M776,416.38s14.28,8,34.82-7.45c1.52-1.14,6.13.11,5.26,5.47-1.27,7.79-14.89,20.37-26.94,21C789.16,435.43,770.76,425.36,776,416.38Z"/><path class="cls-53" d="M825.73,422l.88,3s11.06,1.2,15-5.47l-1-2.74Z"/><path class="cls-49" d="M839.89,412.14c2.63-2,7-1,9.05,1.24a5.26,5.26,0,0,1,1.53,2.48c.07,1.09-.66.73-1.83.88l-5.47.22a10.27,10.27,0,0,1-3,0c-1.31-.51-.88-3-.88-4.45"/><path class="cls-49" d="M824.42,416.67c-1.53.15-2.56.07-3.8,1.09a9.93,9.93,0,0,0-2.85,3.65,8.17,8.17,0,0,0-.95,5.69c2.77-1.61,5.69-2.77,8.32-4.67.66-.51,1.46-.88,1.61-1.75.15-1.17-1.09-3.07-1.9-3.94"/><path class="cls-72" d="M823.78,388.28a7,7,0,0,0,12.4,4.52c-.23-.65-.46-1.28-.7-1.9a5.4,5.4,0,0,1-10-3.85c.66-2.91,3.12-5,6-4.38l.27.08c-.32-.6-.64-1.17-1-1.72a6.69,6.69,0,0,0-.69,0C826.29,381,823.78,384.4,823.78,388.28Z"/><path class="cls-20" d="M831.54,382.67c-2.91-.66-5.37,1.48-6,4.38a5.4,5.4,0,0,0,10,3.85,70,70,0,0,0-3.67-8.16Z"/><path class="cls-21" d="M825.52,387.05a5.4,5.4,0,0,0,7.46,6.13C833,390.65,831.32,385.17,825.52,387.05Z"/><path class="cls-71" d="M826.68,383.61a.32.32,0,0,1-.32.32.35.35,0,0,1-.37-.31.38.38,0,0,1,.37-.34A.32.32,0,0,1,826.68,383.61Z"/><path class="cls-71" d="M827,392.84a.32.32,0,0,1-.32.32.35.35,0,0,1-.37-.31.38.38,0,0,1,.37-.34A.32.32,0,0,1,827,392.84Z"/><path class="cls-71" d="M829.47,394.2a.32.32,0,0,1-.32.32.35.35,0,0,1-.37-.31.38.38,0,0,1,.37-.34A.32.32,0,0,1,829.47,394.2Z"/><path class="cls-71" d="M832.43,394.26a.32.32,0,0,1-.32.32.35.35,0,0,1-.37-.31.38.38,0,0,1,.37-.34A.32.32,0,0,1,832.43,394.26Z"/><path class="cls-71" d="M835.06,392.78a.32.32,0,0,1-.32.32.35.35,0,0,1-.37-.31.38.38,0,0,1,.37-.34A.32.32,0,0,1,835.06,392.78Z"/><path class="cls-71" d="M825.3,386.16a.32.32,0,0,1-.45-.08.35.35,0,0,1,0-.48.38.38,0,0,1,.49.11A.32.32,0,0,1,825.3,386.16Z"/><path class="cls-71" d="M824.7,388.71a.32.32,0,0,1-.45-.08.34.34,0,0,1,.08-.46.32.32,0,0,1,.44.09A.32.32,0,0,1,824.7,388.71Z"/><path class="cls-71" d="M825.3,391.08a.32.32,0,0,1-.45-.08.34.34,0,0,1,.08-.46.33.33,0,0,1,.37.54Z"/><path class="cls-73" d="M831.63,387.52a2.64,2.64,0,0,1-2.46,2.79c-1.36,0-2.57-1.8-2.57-3.34a2.28,2.28,0,0,1,2.57-2.24A2.64,2.64,0,0,1,831.63,387.52Z"/><ellipse class="cls-16" cx="835.53" cy="395.13" rx="4.65" ry="1.86" transform="translate(-80.18 520.53) rotate(-33.11)"/><path class="cls-16" d="M841.07,396.62c.37,1-.35,2.07-2.75,3s-5.55,1.34-5.92.38,1.26-2.49,3.66-3.42S840.7,395.66,841.07,396.62Z"/><ellipse class="cls-16" cx="837.67" cy="401.49" rx="4.65" ry="1.86" transform="translate(-66.16 187.05) rotate(-12.26)"/><path class="cls-16" d="M842.05,403.94c.09.87-1,2-3.22,2.2s-4.6-.57-4.68-1.44,1.62-1.75,3.8-2S842,403.07,842.05,403.94Z"/><path class="cls-71" d="M830.73,381.83a.32.32,0,0,1-.32.32.35.35,0,0,1-.37-.31.38.38,0,0,1,.37-.33A.32.32,0,0,1,830.73,381.83Z"/><path class="cls-71" d="M828.65,382.24a.32.32,0,0,1-.32.32.35.35,0,0,1-.37-.31.37.37,0,0,1,.37-.34A.32.32,0,0,1,828.65,382.24Z"/><path class="cls-68" d="M824.42,422.87s12.12,1.9,17.67-6.28l-1.5-7.74s-8.32,8.4-19.16,5.8l3,8.21"/><path class="cls-68" d="M828.1,376.76c-4.29-5.94-7.84-7.79-7.84-7.79a32.8,32.8,0,0,0-3.48,11C821.94,383.16,827.83,378.82,828.1,376.76Z"/><path class="cls-74" d="M818.3,379.48a.32.32,0,0,1-.32.32.35.35,0,0,1-.37-.31.38.38,0,0,1,.37-.34A.32.32,0,0,1,818.3,379.48Z"/><path class="cls-74" d="M824,416.45a.32.32,0,0,1-.32.32.35.35,0,0,1-.37-.31.37.37,0,0,1,.37-.34A.32.32,0,0,1,824,416.45Z"/><path class="cls-74" d="M826.62,416.71a.32.32,0,0,1-.32.32.35.35,0,0,1-.37-.31.38.38,0,0,1,.37-.33A.32.32,0,0,1,826.62,416.71Z"/><path class="cls-74" d="M830.13,416.27a.32.32,0,0,1-.32.32.35.35,0,0,1-.37-.31.38.38,0,0,1,.37-.34A.32.32,0,0,1,830.13,416.27Z"/><path class="cls-74" d="M833.36,415.5a.32.32,0,0,1-.32.32.35.35,0,0,1-.37-.31.38.38,0,0,1,.37-.34A.32.32,0,0,1,833.36,415.5Z"/><path class="cls-74" d="M836.37,414a.32.32,0,0,1-.32.32.35.35,0,0,1-.37-.31.38.38,0,0,1,.37-.33A.32.32,0,0,1,836.37,414Z"/><path class="cls-74" d="M839.49,412.33a.32.32,0,0,1-.32.32.35.35,0,0,1-.37-.31.38.38,0,0,1,.37-.34A.32.32,0,0,1,839.49,412.33Z"/><path class="cls-74" d="M820.56,380a.32.32,0,0,1-.32.32.35.35,0,0,1-.37-.31.37.37,0,0,1,.37-.34A.32.32,0,0,1,820.56,380Z"/><path class="cls-74" d="M823,379.7a.32.32,0,0,1-.32.32.35.35,0,0,1-.37-.31.38.38,0,0,1,.37-.34A.32.32,0,0,1,823,379.7Z"/><path class="cls-74" d="M825.35,378.78a.32.32,0,0,1-.32.32.35.35,0,0,1-.37-.31.38.38,0,0,1,.37-.34A.32.32,0,0,1,825.35,378.78Z"/><path class="cls-74" d="M827,377.29a.32.32,0,0,1-.32.32.35.35,0,0,1-.37-.31.38.38,0,0,1,.37-.34A.32.32,0,0,1,827,377.29Z"/><path class="cls-49" d="M835,418.87c-1.16-1.84-3.12-1.38-4.53,0-1.76,1.82-1.19,3.42-.75,5.68a14.36,14.36,0,0,0,2.79,6.66c.84.95,1.13.87,1.82-.13a9.68,9.68,0,0,0,1.51-4.66C836,424.55,836.14,420.59,835,418.87Z"/><path class="cls-75" d="M818.79,375c.16-1.5.89-2.66,1.63-2.59s1.21,1.9,1.05,3.41-.89,2.12-1.63,2S818.64,376.5,818.79,375Z"/><path class="cls-76" d="M755.36,459.37s-8.18,19,10.8,20.15,38.54-5,28.62-34.16S768.5,408,768.5,408s-.36,2.48-5.62,2.7L755,418.13l-2,28Z"/><path class="cls-77" d="M757,409.81s-18,0-28.91,14.67,12.92,15.11,20.37,12.26Z"/><path class="cls-25" d="M759.35,391.84l1.92,17.25s5.5,4,7.23-1.11l2.43-11.93Z"/><path class="cls-26" d="M759.6,394.07s2,6.36,9.74,9.71l.93-4.63-.89-2.32Z"/><path class="cls-16" d="M743.28,356.63s.27,43.45,32,43,35-32.89,22.87-60.31S742.47,316.08,743.28,356.63Z"/><path class="cls-18" d="M775.61,380.27a5.9,5.9,0,0,1-11.81,0c0-3.26,2.11-6.13,5.37-6.13S775.61,377,775.61,380.27Z"/><path class="cls-37" d="M757.41,369.73s9.64-11.1,6.13-22.19c0,0-12.85-20.59-23.94,2.92s-5.69,44.53-.15,31.24c0,0,2.19,22.78,6.13,6.13,0,0,11.64,21.22,9.63-8.41Z"/><path class="cls-16" d="M759.09,367.09c2.47,6,.36,12.49-4.71,14.59s-13.37-3.29-15.84-9.25a10.31,10.31,0,0,1,5.69-13.73C749.31,356.6,756.62,361.13,759.09,367.09Z"/><path class="cls-25" d="M753.84,369.95c1.18,2.84.17,6-2.24,7s-6.37-1.57-7.54-4.41a4.91,4.91,0,0,1,2.71-6.54C749.18,365,752.67,367.11,753.84,369.95Z"/><path class="cls-32" d="M753.84,369.95c1.18,2.84.17,6-2.24,7C746,373.68,752.18,368.53,753.84,369.95Z"/><path class="cls-24" d="M773,367.54s2.41-14.56,9.63-1.69a12.57,12.57,0,0,0-2.24-5.19C778.1,357.89,773.29,357,773,367.54Z"/><path class="cls-24" d="M794.63,363.48s1.57-14.5,7.28-1.52a15.53,15.53,0,0,0-1.79-5.22C798.29,353.92,794.62,352.92,794.63,363.48Z"/><path class="cls-78" d="M771.66,355.37c1.89-.21,9.9-.79,6.45-2.71-2.5-1.26-7.69-.45-8,2.23.14.63,1.24.52,1.52.49"/><path class="cls-78" d="M793.12,352.15c1.89-.22,9.9-.79,6.45-2.71-2.5-1.26-7.69-.45-8,2.23.14.63,1.24.52,1.52.49"/><path class="cls-35" d="M789.81,372.11c-.13.72-.87,2.54-2.31,2.84-2.29.54-2-3.26-2.1-4a29.87,29.87,0,0,1,.74-7.88c.1-.51.63-2.73,2-2.94,1.09-.13,2,2.19,2.3,2.65a34.4,34.4,0,0,0,3.93,5.77c.5.52,2.89,3.28,2.1,4s-2.3-.83-2.64-1.19c-.2.78,1.57,3.26-1.05,3.49-1.82.13-2.74-2-3-2.7"/><path class="cls-25" d="M786.1,385.93s3.68,3,7.45,1.25C793.55,387.18,789.14,391.83,786.1,385.93Z"/><path class="cls-33" d="M794.09,381a2.71,2.71,0,1,1-5.37,0c0-1.72,1.91-3,3.39-3S794.09,379.23,794.09,381Z"/><path class="cls-34" d="M791.4,384.08a2.93,2.93,0,0,1-2.68-3.12C790.91,379.22,792.74,382.8,791.4,384.08Z"/><path class="cls-37" d="M761.5,348c13.17.36,26.09.17,38.92-4.17,4.41-1.77,19-7.63,14.47-11.81-3.38-3.15-9.16,1.82-13.46,2.68,2.23-.74,11.63-7.37,8.09-10.24-1.77-1.43-8.19,2.22-10.48,2.68,1.66-2.12,6-5.66,4.48-8.93-1.66-3.84-6.76-1-9.91-.41-8,1.88-21,2.94-28.45,5.91-7.74,3-11.7,4.75-12,13.75-.24,7.79,3.77,8.48,9.15,11.58"/><path class="cls-16" d="M804.53,364.69a5.64,5.64,0,0,0-.69,0c-3.26,0-5.37,2.87-5.37,6.13a5.9,5.9,0,0,0,5.33,5.87A48.06,48.06,0,0,0,804.53,364.69Z"/><path class="cls-18" d="M804.53,364.69a5.64,5.64,0,0,0-.69,0c-3.26,0-5.37,2.87-5.37,6.13a5.9,5.9,0,0,0,5.33,5.87A48.06,48.06,0,0,0,804.53,364.69Z"/><path class="cls-53" d="M772.88,321.55s-10.22,44.38-43.51,49.35c-5.69.85-19.27-1.46,3.21-22.78S772.88,321.55,772.88,321.55Z"/><path class="cls-49" d="M772.88,321.55s-3.5,26-37.67,35c0,0-17.29-24.86,1.46-36.5C753.61,309.58,758.57,311.92,772.88,321.55Z"/><path class="cls-68" d="M768.2,333.56a47.37,47.37,0,0,1-19.05,17.68c-9.26-8.22-14.3-24-12.48-31.15C746.24,312.14,759.16,322.87,768.2,333.56Z"/><path class="cls-53" d="M740.91,316.74c1,1-.6,3.09-2.34,4.77s-3.93,2.23-4.9,1.23-.34-3.17,1.4-4.85S739.94,315.73,740.91,316.74Z"/><path class="cls-53" d="M752.81,413.09s1.56-7.37,10.07-4.09c8.91,3.43,40.51,57.09-11.17,59.06v-4.82s22.12-.51,23.65-15.84S761.93,405.06,752.81,413.09Z"/><polygon class="cls-37" points="753.03 461.49 753.68 468.94 748.87 468.94 747.33 462.58 753.03 461.49"/><path class="cls-53" d="M753.05,413.12c-2.26.44-5.24-1.61-6.77-3.07a8.65,8.65,0,0,1-2.92-6.28c-.15-4.16,5.4-4.31,8.1-2.48a18.66,18.66,0,0,1,6,7.08c.8,1.61-.15.95-1.31,2.12a21,21,0,0,1-2.19-2.85,14.9,14.9,0,0,0-3.41-3.67c-2.41-1.48-3.94.66-3,2.9.63,1.43,4.07,3.6,4.93,4.11,1.29.77,1.57.75.55,2.14"/><path class="cls-16" d="M769.74,455.82c2.11,0,11.24.39,13.16-1.3.9-.79,1.23-1.63-1-1.92,2-.77,2-2.67-1-2.44,2.09-1.55,2-2.58-.73-2.42.73-.53,1.92-1.58,1.19-2.24-1.72-1.55-4.08,1.2-5.62,2.65,1.43-2.62,1.11-5.93-.48-5.12-1.08.55-.9,4.14-2,5.89-.7,1.07-1.73,1.28-2.66,2-.61.48-1,.46-1.36,1.21s0,2.11.06,2.81Z"/><polygon class="cls-71" points="761 471.96 761.32 472.58 762.04 472.72 761.47 473.15 761.64 473.94 761.06 473.46 760.35 473.94 760.51 473.13 759.96 472.72 760.7 472.63 761 471.96"/><polygon class="cls-71" points="760.99 442.09 761.31 442.72 762.03 442.85 761.46 443.29 761.63 444.08 761.04 443.6 760.34 444.08 760.5 443.27 759.94 442.85 760.69 442.77 760.99 442.09"/><polygon class="cls-71" points="768.38 440.73 768.7 441.35 769.42 441.48 768.85 441.92 769.02 442.71 768.44 442.23 767.73 442.71 767.89 441.9 767.34 441.48 768.08 441.4 768.38 440.73"/><polygon class="cls-71" points="764.87 432.18 765.2 432.81 765.92 432.94 765.35 433.38 765.52 434.17 764.93 433.69 764.23 434.17 764.39 433.36 763.83 432.94 764.58 432.86 764.87 432.18"/><polygon class="cls-71" points="766.93 423.09 767.26 423.71 767.98 423.85 767.41 424.29 767.58 425.07 766.99 424.59 766.29 425.07 766.45 424.27 765.89 423.85 766.64 423.76 766.93 423.09"/><polygon class="cls-71" points="771.75 434.15 772.08 434.77 772.79 434.91 772.23 435.35 772.4 436.13 771.81 435.65 771.11 436.13 771.27 435.32 770.71 434.91 771.46 434.82 771.75 434.15"/><polygon class="cls-71" points="770.77 411.26 771.09 411.89 771.81 412.02 771.24 412.46 771.41 413.25 770.83 412.77 770.12 413.25 770.28 412.44 769.72 412.02 770.47 411.94 770.77 411.26"/><polygon class="cls-71" points="775.66 417.4 775.98 418.02 776.7 418.15 776.13 418.59 776.3 419.38 775.72 418.9 775.01 419.38 775.17 418.57 774.62 418.15 775.36 418.07 775.66 417.4"/><polygon class="cls-71" points="778.66 425.34 778.99 425.97 779.7 426.1 779.13 426.54 779.3 427.33 778.72 426.84 778.02 427.33 778.18 426.52 777.62 426.1 778.37 426.02 778.66 425.34"/><polygon class="cls-71" points="785.23 430.16 785.56 430.78 786.27 430.92 785.7 431.36 785.88 432.14 785.29 431.66 784.59 432.14 784.75 431.34 784.19 430.92 784.93 430.83 785.23 430.16"/><polygon class="cls-71" points="784.14 439.14 784.46 439.76 785.18 439.9 784.61 440.33 784.78 441.12 784.2 440.64 783.49 441.12 783.65 440.32 783.09 439.9 783.84 439.81 784.14 439.14"/><polygon class="cls-71" points="790.92 444.18 791.25 444.8 791.97 444.93 791.4 445.37 791.57 446.16 790.98 445.68 790.28 446.16 790.44 445.35 789.88 444.93 790.63 444.85 790.92 444.18"/><polygon class="cls-71" points="786.33 447.68 786.65 448.3 787.37 448.44 786.8 448.88 786.97 449.67 786.38 449.18 785.68 449.67 785.84 448.86 785.28 448.44 786.03 448.35 786.33 447.68"/><polygon class="cls-71" points="793.55 456.44 793.88 457.06 794.6 457.2 794.03 457.64 794.2 458.43 793.61 457.94 792.91 458.43 793.07 457.62 792.51 457.2 793.26 457.11 793.55 456.44"/><polygon class="cls-71" points="771.43 468.27 771.76 468.89 772.48 469.02 771.91 469.46 772.08 470.25 771.49 469.77 770.79 470.25 770.95 469.44 770.39 469.02 771.14 468.94 771.43 468.27"/><polygon class="cls-71" points="779.54 472.65 779.86 473.27 780.58 473.4 780.01 473.84 780.18 474.63 779.6 474.15 778.89 474.63 779.05 473.82 778.49 473.4 779.24 473.32 779.54 472.65"/><polygon class="cls-71" points="780.41 460.38 780.74 461.01 781.46 461.14 780.89 461.58 781.06 462.37 780.47 461.88 779.77 462.37 779.93 461.56 779.37 461.14 780.12 461.06 780.41 460.38"/><polygon class="cls-71" points="791.36 463.89 791.69 464.51 792.4 464.64 791.84 465.08 792.01 465.87 791.42 465.39 790.72 465.87 790.88 465.06 790.32 464.64 791.07 464.56 791.36 463.89"/><polygon class="cls-71" points="785.67 470.46 785.99 471.08 786.71 471.21 786.14 471.65 786.31 472.44 785.73 471.96 785.02 472.44 785.18 471.63 784.63 471.21 785.37 471.13 785.67 470.46"/><polygon class="cls-79" points="788.95 422.28 789.28 422.9 790 423.04 789.43 423.47 789.6 424.26 789.01 423.78 788.31 424.26 788.47 423.45 787.91 423.04 788.66 422.95 788.95 422.28"/><polygon class="cls-79" points="793.92 429.11 794.24 429.73 794.96 429.87 794.39 430.31 794.56 431.09 793.98 430.61 793.27 431.09 793.43 430.29 792.88 429.87 793.62 429.78 793.92 429.11"/><polygon class="cls-79" points="797.53 420.46 797.85 421.08 798.57 421.21 798 421.65 798.17 422.44 797.59 421.96 796.88 422.44 797.04 421.63 796.48 421.21 797.23 421.13 797.53 420.46"/><polygon class="cls-79" points="804.53 423.52 804.86 424.15 805.58 424.28 805.01 424.72 805.18 425.51 804.59 425.02 803.89 425.51 804.05 424.7 803.49 424.28 804.24 424.2 804.53 423.52"/><polygon class="cls-79" points="806.29 416.52 806.61 417.14 807.33 417.27 806.76 417.71 806.93 418.5 806.35 418.02 805.64 418.5 805.8 417.69 805.24 417.27 805.99 417.19 806.29 416.52"/><polygon class="cls-79" points="811.98 413.45 812.31 414.07 813.02 414.21 812.45 414.64 812.63 415.43 812.04 414.95 811.34 415.43 811.5 414.63 810.94 414.21 811.68 414.12 811.98 413.45"/><polygon class="cls-71" points="768.76 448.72 769.09 449.34 769.8 449.48 769.24 449.91 769.4 450.7 768.82 450.22 768.12 450.7 768.28 449.89 767.72 449.48 768.47 449.39 768.76 448.72"/><path class="cls-80" d="M768.21,458.93s4.82.73,4.82-3.36-2.19-7.15-5.69-5.11S768.21,458.93,768.21,458.93Z"/><path class="cls-54" d="M759.16,411s-4.6-2.77-8.76,4.89-19.64,39.49,8.18,47.38c0,0,7.88,2.19,11.39-3.5,0,0,4.31-9.27-3.8-10.15,0,0-14.23,0-8.54-12.26S767,415.43,759.16,411Z"/><polygon class="cls-71" points="767.66 452.96 767.99 453.58 768.71 453.72 768.14 454.15 768.31 454.94 767.72 454.46 767.02 454.94 767.18 454.13 766.62 453.72 767.37 453.63 767.66 452.96"/><polygon class="cls-71" points="761.64 457.12 761.97 457.74 762.68 457.88 762.11 458.31 762.28 459.1 761.7 458.62 761 459.1 761.16 458.3 760.6 457.88 761.34 457.79 761.64 457.12"/><polygon class="cls-71" points="754.96 449.45 755.29 450.08 756 450.21 755.43 450.65 755.61 451.44 755.02 450.96 754.32 451.44 754.48 450.63 753.92 450.21 754.66 450.13 754.96 449.45"/><polygon class="cls-71" points="747.08 448.36 747.4 448.98 748.12 449.12 747.55 449.56 747.72 450.34 747.14 449.86 746.43 450.34 746.59 449.54 746.03 449.12 746.78 449.03 747.08 448.36"/><polygon class="cls-71" points="747.19 435.11 747.51 435.73 748.23 435.87 747.66 436.31 747.83 437.09 747.25 436.61 746.54 437.09 746.7 436.29 746.14 435.87 746.89 435.78 747.19 435.11"/><polygon class="cls-71" points="754.96 431.28 755.29 431.9 756 432.04 755.43 432.47 755.61 433.26 755.02 432.78 754.32 433.26 754.48 432.45 753.92 432.04 754.66 431.95 754.96 431.28"/><polygon class="cls-71" points="751.24 423.37 751.57 423.99 752.28 424.13 751.72 424.56 751.88 425.35 751.3 424.87 750.6 425.35 750.76 424.55 750.2 424.13 750.95 424.04 751.24 423.37"/><polygon class="cls-71" points="758.91 416.58 759.23 417.2 759.95 417.34 759.38 417.78 759.55 418.56 758.97 418.08 758.26 418.56 758.42 417.76 757.86 417.34 758.61 417.25 758.91 416.58"/><polygon class="cls-67" points="765 492.66 775.8 492.66 775.51 504.49 764.41 503.61 765 492.66"/></g></g></svg>